<svg width="727" height="376" viewBox="0 0 727 376" fill="none" xmlns="http://www.w3.org/2000/svg">
<path d="M663.248 193.871H624.074L632.085 151.834H671.259L663.248 193.871Z" fill="#C9C9C9"/>
<path d="M622.174 193.871H624.075L632.086 151.834H630.185L622.174 193.871Z" fill="#8F8F8F"/>
<path d="M654.094 171.281C653.511 174.34 651.085 176.82 648.674 176.82C646.264 176.82 644.782 174.34 645.365 171.281C645.948 168.222 648.374 165.742 650.785 165.742C653.195 165.742 654.677 168.222 654.094 171.281Z" fill="white"/>
<path d="M614.078 120.769C610.826 120.571 604.121 119.838 601.767 117.125C601.767 117.125 600.71 121.643 597.475 123.956C597.475 123.956 595.447 126.073 593.251 127.312C593.25 127.314 588.931 136.311 582.779 144.651C583.65 147.534 586.821 147.469 589.192 146.965C591.622 152.714 593.886 159.716 593.886 159.716C591.455 151.225 591.976 146.387 592.231 144.951C593.006 141.854 595.159 133.835 596.219 135.765C596.646 136.543 597.737 138.621 598.416 139.129C599.729 140.112 601.189 140.304 602.619 139.976C603.748 131.811 604.821 125.966 610.926 124.638C604.584 130.144 608.305 130.226 612.876 127.673C613.843 125.108 614.195 122.809 614.078 120.769Z" fill="url(#paint0_linear_2100_15100)"/>
<path d="M601.767 117.125C601.767 117.125 600.71 121.643 597.475 123.956C597.475 123.956 595.447 126.073 593.251 127.312C593.25 127.314 588.931 136.311 582.779 144.651C583.65 147.534 586.821 147.469 589.192 146.965C591.622 152.714 593.886 159.716 593.886 159.716C591.455 151.225 591.976 146.387 592.231 144.951C593.006 141.854 595.159 133.835 596.219 135.765C596.646 136.543 597.737 138.621 598.416 139.129C599.729 140.112 601.189 140.304 602.619 139.976C604.662 139.509 606.645 137.976 608.053 136.106C608.059 136.1 608.062 136.094 608.067 136.087C608.569 136.183 609.539 136.301 609.907 135.885C610.284 135.459 611.095 132.499 611.352 131.016C611.978 129.853 612.476 128.742 612.878 127.672C613.842 125.107 614.194 122.808 614.078 120.768C610.827 120.571 604.122 119.838 601.767 117.125Z" fill="url(#paint1_linear_2100_15100)"/>
<path d="M582.78 140.745L589.086 127.634C588.851 127.42 588.641 127.138 588.464 126.776C581.329 129.139 569.839 139.668 569.839 139.668C569.839 139.668 543.957 146.665 559.055 156.891C566.974 162.255 575.993 153.853 582.78 144.651C582.493 143.699 582.455 142.429 582.78 140.745Z" fill="url(#paint2_linear_2100_15100)"/>
<path d="M589.087 127.634L582.781 140.745C582.456 142.429 582.493 143.7 582.781 144.651C588.933 136.311 593.253 127.312 593.253 127.312C591.739 128.167 590.149 128.596 589.087 127.634Z" fill="url(#paint3_linear_2100_15100)"/>
<path d="M589.087 127.634L582.781 140.745C582.456 142.429 582.493 143.7 582.781 144.651C588.933 136.311 593.253 127.312 593.253 127.312C591.739 128.167 590.149 128.596 589.087 127.634Z" fill="url(#paint4_linear_2100_15100)"/>
<path d="M597.921 108.426C603.671 107.677 613.56 111.611 614.078 120.77C615.184 120.837 615.891 120.842 615.891 120.842C616.124 119.091 611.136 111.171 611.136 111.171L604.922 105.76L597.467 105.049L589.971 109.812C589.971 109.812 586.376 121.393 588.313 126.445C588.359 126.565 588.411 126.671 588.463 126.777C588.691 126.701 588.912 126.636 589.131 126.579C589.291 122.764 590.384 109.408 597.921 108.426Z" fill="url(#paint5_linear_2100_15100)"/>
<path d="M597.922 108.426C590.385 109.407 589.292 122.765 589.133 126.578C590.943 126.097 592.418 126.218 593.252 127.312C595.448 126.073 597.477 123.956 597.477 123.956C600.712 121.644 601.769 117.126 601.769 117.126C604.123 119.84 610.829 120.573 614.08 120.77C613.561 111.61 603.672 107.676 597.922 108.426Z" fill="url(#paint6_linear_2100_15100)"/>
<path d="M597.922 108.426C590.385 109.407 589.292 122.765 589.133 126.578C590.943 126.097 592.418 126.218 593.252 127.312C595.448 126.073 597.477 123.956 597.477 123.956C600.712 121.644 601.769 117.126 601.769 117.126C604.123 119.84 610.829 120.573 614.08 120.77C613.561 111.61 603.672 107.676 597.922 108.426Z" fill="url(#paint7_linear_2100_15100)"/>
<path d="M589.086 127.635L589.104 127.598C589.104 127.598 589.105 127.218 589.132 126.578C588.913 126.637 588.691 126.702 588.463 126.776C588.64 127.14 588.85 127.422 589.086 127.635Z" fill="url(#paint8_linear_2100_15100)"/>
<path d="M589.086 127.635L589.104 127.598C589.104 127.598 589.105 127.218 589.132 126.578C588.913 126.637 588.691 126.702 588.463 126.776C588.64 127.14 588.85 127.422 589.086 127.635Z" fill="url(#paint9_linear_2100_15100)"/>
<path d="M589.086 127.635L589.104 127.598C589.104 127.598 589.105 127.218 589.132 126.578C588.913 126.637 588.691 126.702 588.463 126.776C588.64 127.14 588.85 127.422 589.086 127.635Z" fill="url(#paint10_linear_2100_15100)"/>
<path d="M589.132 126.578C589.105 127.216 589.104 127.597 589.104 127.597L589.086 127.634C590.148 128.596 591.738 128.166 593.251 127.312C592.417 126.218 590.942 126.096 589.132 126.578Z" fill="url(#paint11_linear_2100_15100)"/>
<path d="M589.132 126.578C589.105 127.216 589.104 127.597 589.104 127.597L589.086 127.634C590.148 128.596 591.738 128.166 593.251 127.312C592.417 126.218 590.942 126.096 589.132 126.578Z" fill="url(#paint12_linear_2100_15100)"/>
<path d="M589.132 126.578C589.105 127.216 589.104 127.597 589.104 127.597L589.086 127.634C590.148 128.596 591.738 128.166 593.251 127.312C592.417 126.218 590.942 126.096 589.132 126.578Z" fill="url(#paint13_linear_2100_15100)"/>
<path d="M614.434 110.101C614.434 110.101 614.587 104.298 605.282 101.492C595.977 98.6864 579.353 106.559 582.572 116.438C585.878 126.582 569.832 122.269 568.319 130.241C566.492 139.865 548.204 135.46 547.859 152.54C547.514 169.621 573.541 196.83 590.706 174.099C599.94 161.87 601.318 149.383 602.619 139.977C601.189 140.305 599.729 140.113 598.416 139.131C597.737 138.622 596.647 136.545 596.219 135.766C595.158 133.837 593.006 141.857 592.231 144.952C591.975 146.388 591.455 151.226 593.886 159.717C593.886 159.717 591.622 152.715 589.192 146.967C586.821 147.469 583.65 147.535 582.779 144.652C588.931 136.312 593.251 127.313 593.251 127.313C595.446 126.074 597.475 123.957 597.475 123.957C600.71 121.645 601.767 117.126 601.767 117.126C604.121 119.841 610.827 120.574 614.078 120.77C614.193 122.811 613.843 125.109 612.877 127.675C616.362 125.728 620.34 122.251 620.736 118.47C621.494 111.228 614.434 110.101 614.434 110.101ZM588.463 126.777C588.691 126.702 588.913 126.637 589.131 126.579C589.105 127.217 589.103 127.598 589.103 127.598L589.085 127.635C588.85 127.422 588.64 127.14 588.463 126.777Z" fill="url(#paint14_linear_2100_15100)"/>
<path d="M599.142 297.479C599.142 297.479 584.219 284.704 578.808 271.376C573.397 258.049 565.132 255.252 564.28 247.3C563.427 239.347 545.449 236.417 544.193 227.09C542.936 217.765 528.26 210.883 528.26 210.883C528.26 210.883 546.431 201.826 554.379 213.664C562.329 225.501 560.643 234.943 571.445 236.25C582.247 237.556 595.474 247.1 597.663 262.118C599.852 277.136 611.103 285.022 599.142 297.479Z" fill="url(#paint15_linear_2100_15100)"/>
<mask id="mask0_2100_15100" style="mask-type:luminance" maskUnits="userSpaceOnUse" x="528" y="207" width="77" height="91">
<path d="M599.142 297.479C599.142 297.479 584.219 284.704 578.808 271.376C573.397 258.049 565.132 255.252 564.28 247.3C563.427 239.347 545.449 236.417 544.193 227.09C542.936 217.765 528.26 210.883 528.26 210.883C528.26 210.883 546.431 201.826 554.379 213.664C562.329 225.501 560.643 234.943 571.445 236.25C582.247 237.556 595.474 247.1 597.663 262.118C599.852 277.136 611.103 285.022 599.142 297.479Z" fill="white"/>
</mask>
<g mask="url(#mask0_2100_15100)">
<path d="M553.916 239.899C556.656 239.096 568.593 246.781 577.709 257.531C586.826 268.28 580.706 275.295 587.6 278.493C594.495 281.691 599.142 297.479 599.142 297.479L568.296 281.171L553.916 239.899Z" fill="url(#paint16_linear_2100_15100)"/>
</g>
<path d="M599.011 297.757C599.011 297.757 580.143 294.759 562.962 298.437C545.781 302.115 529.648 297.137 512.186 312.507C512.186 312.507 519.616 300.954 519.912 297.005C520.209 293.057 540.583 289.22 540.425 286.032C540.267 282.845 544.846 290.731 544.846 290.731L543.921 284.507C543.921 284.507 560.641 279.008 563.386 282.19C566.13 285.373 567.199 287.042 567.199 287.042L567.643 281.119C567.643 281.119 577.68 279.884 583.771 283.517C589.863 287.147 595.495 288.958 599.011 297.757Z" fill="url(#paint17_linear_2100_15100)"/>
<mask id="mask1_2100_15100" style="mask-type:luminance" maskUnits="userSpaceOnUse" x="512" y="280" width="88" height="33">
<path d="M599.011 297.757C599.011 297.757 580.143 294.759 562.962 298.437C545.781 302.115 529.648 297.137 512.186 312.507C512.186 312.507 519.616 300.954 519.912 297.005C520.209 293.057 540.583 289.22 540.425 286.032C540.267 282.845 544.846 290.731 544.846 290.731L543.921 284.507C543.921 284.507 560.641 279.008 563.386 282.19C566.13 285.373 567.199 287.042 567.199 287.042L567.643 281.119C567.643 281.119 577.68 279.884 583.771 283.517C589.863 287.147 595.495 288.958 599.011 297.757Z" fill="white"/>
</mask>
<g mask="url(#mask1_2100_15100)">
<path d="M599.471 299.579C599.011 297.758 592.915 291.545 585.765 291.408C578.616 291.27 574.507 290.367 574.507 290.367L568.431 294.48L570.398 289.465C570.398 289.465 563.55 287.96 554.127 291.624C544.704 295.287 536.946 295.302 536.946 295.302L537.412 299.704L531.627 297.287C531.627 297.287 519.924 302.169 518.422 311.586C516.919 321.002 588.689 308.104 588.689 308.104L599.471 299.579Z" fill="url(#paint18_linear_2100_15100)"/>
</g>
<path d="M602.945 297.058C602.945 297.058 631.168 291.257 639.469 282.972C647.77 274.686 672.672 282.972 672.672 282.972C672.672 282.972 659.39 272.201 648.6 271.372L639.469 277.172L642.789 271.372C642.789 271.372 624.528 259.772 616.227 266.4C607.926 273.029 598.794 282.143 602.945 297.058Z" fill="url(#paint19_linear_2100_15100)"/>
<mask id="mask2_2100_15100" style="mask-type:luminance" maskUnits="userSpaceOnUse" x="601" y="264" width="72" height="34">
<path d="M602.945 297.058C602.945 297.058 631.168 291.257 639.469 282.972C647.77 274.686 672.672 282.972 672.672 282.972C672.672 282.972 659.39 272.201 648.6 271.372L639.469 277.172L642.789 271.372C642.789 271.372 624.528 259.772 616.227 266.4C607.926 273.029 598.794 282.143 602.945 297.058Z" fill="white"/>
</mask>
<g mask="url(#mask2_2100_15100)">
<path d="M602.115 297.057C602.945 297.057 607.096 277.172 616.226 280.486C625.357 283.801 628.678 280.486 628.678 280.486L630.338 285.458C630.338 285.458 641.129 275.955 651.505 280.706C661.881 285.458 618.718 303.686 618.718 303.686L602.115 297.057Z" fill="url(#paint20_linear_2100_15100)"/>
</g>
<path d="M603.041 297.328C603.041 297.328 608.737 275.35 620.93 258.385C633.124 241.419 635.354 221.478 660.463 209.768C660.463 209.768 644.298 212.365 639.84 210.81C635.383 209.255 621.498 229.624 618.088 227.935C614.678 226.246 621.122 234.985 621.122 234.985L614.758 231.018C614.758 231.018 600.793 246.615 602.967 251.119C605.142 255.623 606.457 257.579 606.457 257.579L599.771 255.246C599.771 255.246 593.647 265.591 594.72 273.955C595.793 282.318 595.094 289.314 603.041 297.328Z" fill="url(#paint21_linear_2100_15100)"/>
<mask id="mask3_2100_15100" style="mask-type:luminance" maskUnits="userSpaceOnUse" x="594" y="209" width="67" height="89">
<path d="M603.041 297.328C603.041 297.328 608.737 275.35 620.93 258.385C633.124 241.419 635.354 221.478 660.463 209.768C660.463 209.768 644.298 212.365 639.84 210.81C635.383 209.255 621.498 229.624 618.088 227.935C614.678 226.246 621.122 234.985 621.122 234.985L614.758 231.018C614.758 231.018 600.793 246.615 602.967 251.119C605.142 255.623 606.457 257.579 606.457 257.579L599.771 255.246C599.771 255.246 593.647 265.591 594.72 273.955C595.793 282.318 595.094 289.314 603.041 297.328Z" fill="white"/>
</mask>
<g mask="url(#mask3_2100_15100)">
<path d="M604.813 298.695C603.041 297.328 599.148 287.732 602.398 279.879C605.648 272.026 606.616 267.121 606.616 267.121L614 262.458L607.582 262.216C607.582 262.216 609.195 254.041 617.681 245.519C626.168 236.997 629.874 228.553 629.874 228.553L634.466 231.154L634.574 223.703C634.574 223.703 645.478 213.278 656.487 216.12C667.495 218.962 619.259 291.005 619.259 291.005L604.813 298.695Z" fill="url(#paint22_linear_2100_15100)"/>
</g>
<path d="M595.988 297.058C595.988 297.058 585.907 350.568 588.694 351.363C590.989 352.017 611.385 351.593 618.499 351.423C619.755 351.393 620.66 350.216 620.368 348.997L607.745 296.164L595.988 297.058Z" fill="url(#paint23_linear_2100_15100)"/>
<path d="M601.703 295.935C601.703 295.935 605.125 306.576 615.942 304.912C626.758 303.248 633.933 304.377 633.933 304.377L616.139 287.241C616.139 287.241 606.633 287.731 601.703 295.935Z" fill="url(#paint24_linear_2100_15100)"/>
<path d="M601.703 295.935C601.703 295.935 605.125 306.576 615.942 304.912C626.758 303.248 633.933 304.377 633.933 304.377L616.139 287.241C616.139 287.241 606.633 287.731 601.703 295.935Z" fill="url(#paint25_linear_2100_15100)"/>
<path d="M613.541 293.826L616.139 287.241C616.139 287.241 621.403 286.775 630.066 292.716C638.729 298.656 641.17 290.319 646.901 295.108C652.632 299.896 661.629 313.574 659.188 321.91C656.745 330.247 650.106 347.075 641.645 351.355C641.645 351.355 644.555 348.274 642.466 340.691C640.377 333.109 636.356 319.696 638.554 320.561C640.752 321.425 645.994 316.724 645.994 316.724L634.422 313.866C634.422 313.866 630.111 301.185 622.204 299.767C614.297 298.349 613.541 293.826 613.541 293.826Z" fill="url(#paint26_linear_2100_15100)"/>
<path d="M146.079 299.385C146.079 299.385 131.156 286.611 125.746 273.283C120.335 259.955 112.07 257.158 111.217 249.206C110.365 241.253 92.3867 238.323 91.1303 228.997C89.874 219.67 75.1973 212.789 75.1973 212.789C75.1973 212.789 93.367 203.732 101.317 215.57C109.266 227.407 107.58 236.851 118.383 238.157C129.186 239.463 142.413 249.008 144.602 264.026C146.788 279.043 158.039 286.929 146.079 299.385Z" fill="url(#paint27_linear_2100_15100)"/>
<mask id="mask4_2100_15100" style="mask-type:luminance" maskUnits="userSpaceOnUse" x="75" y="209" width="77" height="91">
<path d="M146.079 299.385C146.079 299.385 131.156 286.611 125.746 273.283C120.335 259.955 112.07 257.158 111.217 249.206C110.365 241.253 92.3867 238.323 91.1303 228.997C89.874 219.67 75.1973 212.789 75.1973 212.789C75.1973 212.789 93.367 203.732 101.317 215.57C109.266 227.407 107.58 236.851 118.383 238.157C129.186 239.463 142.413 249.008 144.602 264.026C146.788 279.043 158.039 286.929 146.079 299.385Z" fill="white"/>
</mask>
<g mask="url(#mask4_2100_15100)">
<path d="M100.854 241.804C103.593 241 115.529 248.686 124.647 259.435C133.764 270.185 127.643 277.2 134.538 280.397C141.432 283.596 146.079 299.384 146.079 299.384L115.234 283.076L100.854 241.804Z" fill="url(#paint28_linear_2100_15100)"/>
</g>
<path d="M145.948 299.663C145.948 299.663 127.08 296.664 109.9 300.342C92.7187 304.02 76.5853 299.042 59.123 314.413C59.123 314.413 66.5536 302.859 66.8498 298.911C67.1461 294.962 87.5206 291.126 87.3629 287.938C87.2041 284.75 91.7841 292.636 91.7841 292.636L90.8592 286.412C90.8592 286.412 107.58 280.913 110.325 284.096C113.069 287.278 114.137 288.947 114.137 288.947L114.582 283.025C114.582 283.025 124.619 281.79 130.71 285.422C136.8 289.053 142.432 290.864 145.948 299.663Z" fill="url(#paint29_linear_2100_15100)"/>
<mask id="mask5_2100_15100" style="mask-type:luminance" maskUnits="userSpaceOnUse" x="59" y="282" width="87" height="33">
<path d="M145.948 299.663C145.948 299.663 127.08 296.664 109.9 300.342C92.7187 304.02 76.5853 299.042 59.123 314.413C59.123 314.413 66.5536 302.859 66.8498 298.911C67.1461 294.962 87.5206 291.126 87.3629 287.938C87.2041 284.75 91.7841 292.636 91.7841 292.636L90.8592 286.412C90.8592 286.412 107.58 280.913 110.325 284.096C113.069 287.278 114.137 288.947 114.137 288.947L114.582 283.025C114.582 283.025 124.619 281.79 130.71 285.422C136.8 289.053 142.432 290.864 145.948 299.663Z" fill="white"/>
</mask>
<g mask="url(#mask5_2100_15100)">
<path d="M146.409 301.484C145.948 299.663 139.852 293.45 132.703 293.313C125.554 293.176 121.445 292.273 121.445 292.273L115.368 296.384L117.336 291.37C117.336 291.37 110.488 289.865 101.065 293.528C91.6415 297.191 83.8838 297.206 83.8838 297.206L84.3495 301.609L78.5643 299.191C78.5643 299.191 66.8617 304.073 65.3592 313.49C63.8567 322.907 135.627 310.009 135.627 310.009L146.409 301.484Z" fill="url(#paint30_linear_2100_15100)"/>
</g>
<path d="M149.884 298.963C149.884 298.963 178.107 293.163 186.408 284.878C194.709 276.592 219.612 284.878 219.612 284.878C219.612 284.878 206.33 274.106 195.539 273.277L186.408 279.078L189.729 273.277C189.729 273.277 171.467 261.677 163.166 268.306C154.865 274.935 145.734 284.049 149.884 298.963Z" fill="url(#paint31_linear_2100_15100)"/>
<mask id="mask6_2100_15100" style="mask-type:luminance" maskUnits="userSpaceOnUse" x="148" y="266" width="72" height="33">
<path d="M149.884 298.963C149.884 298.963 178.107 293.163 186.408 284.878C194.709 276.592 219.612 284.878 219.612 284.878C219.612 284.878 206.33 274.106 195.539 273.277L186.408 279.078L189.729 273.277C189.729 273.277 171.467 261.677 163.166 268.306C154.865 274.935 145.734 284.049 149.884 298.963Z" fill="white"/>
</mask>
<g mask="url(#mask6_2100_15100)">
<path d="M149.055 298.963C149.885 298.963 154.035 279.077 163.167 282.391C172.298 285.706 175.617 282.391 175.617 282.391L177.277 287.363C177.277 287.363 188.069 277.86 198.445 282.612C208.821 287.363 165.657 305.591 165.657 305.591L149.055 298.963Z" fill="url(#paint32_linear_2100_15100)"/>
</g>
<path d="M149.979 299.236C149.979 299.236 155.675 277.257 167.867 260.292C180.06 243.327 182.291 223.385 207.4 211.675C207.4 211.675 191.235 214.272 186.778 212.717C182.32 211.162 168.435 231.532 165.025 229.842C161.615 228.153 168.059 236.892 168.059 236.892L161.695 232.925C161.695 232.925 147.73 248.523 149.904 253.026C152.079 257.53 153.394 259.486 153.394 259.486L146.708 257.153C146.708 257.153 140.584 267.499 141.657 275.861C142.731 284.224 142.031 291.22 149.979 299.236Z" fill="url(#paint33_linear_2100_15100)"/>
<mask id="mask7_2100_15100" style="mask-type:luminance" maskUnits="userSpaceOnUse" x="141" y="211" width="67" height="89">
<path d="M149.979 299.236C149.979 299.236 155.675 277.257 167.867 260.292C180.06 243.327 182.291 223.385 207.4 211.675C207.4 211.675 191.235 214.272 186.778 212.717C182.32 211.162 168.435 231.532 165.025 229.842C161.615 228.153 168.059 236.892 168.059 236.892L161.695 232.925C161.695 232.925 147.73 248.523 149.904 253.026C152.079 257.53 153.394 259.486 153.394 259.486L146.708 257.153C146.708 257.153 140.584 267.499 141.657 275.861C142.731 284.224 142.031 291.22 149.979 299.236Z" fill="white"/>
</mask>
<g mask="url(#mask7_2100_15100)">
<path d="M151.75 300.602C149.978 299.236 146.085 289.639 149.336 281.786C152.586 273.933 153.553 269.028 153.553 269.028L160.938 264.365L154.52 264.124C154.52 264.124 156.132 255.948 164.619 247.426C173.105 238.904 176.811 230.46 176.811 230.46L181.403 233.061L181.512 225.61C181.512 225.61 192.415 215.185 203.424 218.027C214.433 220.869 166.197 292.912 166.197 292.912L151.75 300.602Z" fill="url(#paint34_linear_2100_15100)"/>
</g>
<path d="M142.926 298.964C142.926 298.964 132.845 352.474 135.632 353.269C137.927 353.923 158.323 353.5 165.437 353.329C166.692 353.3 167.598 352.122 167.307 350.903L154.684 298.07L142.926 298.964Z" fill="url(#paint35_linear_2100_15100)"/>
<path d="M148.639 297.839C148.639 297.839 152.06 308.48 162.877 306.816C173.693 305.153 180.868 306.281 180.868 306.281L163.075 289.146C163.075 289.146 153.569 289.636 148.639 297.839Z" fill="url(#paint36_linear_2100_15100)"/>
<path d="M148.639 297.839C148.639 297.839 152.06 308.48 162.877 306.816C173.693 305.153 180.868 306.281 180.868 306.281L163.075 289.146C163.075 289.146 153.569 289.636 148.639 297.839Z" fill="url(#paint37_linear_2100_15100)"/>
<path d="M160.479 295.732L163.076 289.147C163.076 289.147 168.341 288.681 177.003 294.622C185.666 300.563 188.108 292.226 193.839 297.014C199.569 301.802 208.566 315.481 206.125 323.817C203.683 332.153 197.044 348.981 188.583 353.261C188.583 353.261 191.492 350.179 189.404 342.597C187.315 335.015 183.293 321.602 185.492 322.467C187.691 323.332 192.932 318.63 192.932 318.63L181.359 315.772C181.359 315.772 177.049 303.091 169.142 301.673C161.234 300.254 160.479 295.732 160.479 295.732Z" fill="url(#paint38_linear_2100_15100)"/>
<path d="M363.501 376C536.395 376 676.553 370.319 676.553 363.312C676.553 356.304 536.395 350.623 363.501 350.623C190.607 350.623 50.4492 356.304 50.4492 363.312C50.4492 370.319 190.607 376 363.501 376Z" fill="url(#paint39_linear_2100_15100)"/>
<path d="M584.055 141.372C584.055 141.372 589.79 140.621 589.79 158.505C589.79 176.39 593.014 178.136 596.995 179.129C600.977 180.123 622.208 179.957 625.193 176.976C625.193 176.976 627.145 180.433 626.149 181.427C625.154 182.42 594.009 198.007 584.054 191.052C574.1 184.097 567.134 142.365 584.055 141.372Z" fill="url(#paint40_linear_2100_15100)"/>
<path opacity="0.36" d="M584.055 141.372C584.055 141.372 589.79 140.621 589.79 158.505C589.79 176.39 593.014 178.136 596.995 179.129C600.977 180.123 622.208 179.957 625.193 176.976C625.193 176.976 627.145 180.433 626.149 181.427C625.154 182.42 594.009 198.007 584.054 191.052C574.1 184.097 567.134 142.365 584.055 141.372Z" fill="url(#paint41_linear_2100_15100)"/>
<path d="M617.915 309.593C618.418 311.068 620.898 309.969 622.906 308.777C623.273 306.097 624.342 298.291 624.342 298.291C624.342 298.291 624.364 298.221 624.404 298.092C622.811 297.774 620.586 297.414 618.32 297.289C618.331 297.348 618.34 297.416 618.353 297.474C618.353 297.474 618.568 304.81 617.043 307.038C616.851 307.317 616.641 307.594 616.422 307.871C616.88 307.91 617.463 308.266 617.915 309.593Z" fill="#E2B19D"/>
<path d="M636.257 318.184C634.353 314.271 622.54 311.442 622.867 309.051C622.878 308.972 622.892 308.869 622.905 308.777C620.896 309.969 618.416 311.068 617.913 309.593C617.462 308.267 616.879 307.91 616.422 307.871C614.891 309.792 612.905 311.651 613.666 313.885C614.535 316.438 638.161 322.097 636.257 318.184Z" fill="#232F4A"/>
<path d="M641.168 287.947C642.222 289.097 644.051 287.095 645.411 285.199C644.669 282.597 642.507 275.021 642.507 275.021C642.507 275.021 642.5 274.947 642.485 274.813C640.898 275.161 638.715 275.722 636.59 276.516C636.625 276.566 636.659 276.625 636.694 276.673C636.694 276.673 639.843 283.305 639.342 285.957C639.279 286.289 639.199 286.628 639.108 286.968C639.543 286.82 640.22 286.913 641.168 287.947Z" fill="#E2B19D"/>
<path d="M661.422 288.462C658.103 285.641 646.147 287.785 645.484 285.464C645.462 285.387 645.434 285.289 645.409 285.199C644.049 287.096 642.219 289.097 641.165 287.947C640.218 286.914 639.54 286.82 639.107 286.968C638.478 289.341 637.407 291.84 639.002 293.58C640.827 295.57 664.74 291.281 661.422 288.462Z" fill="#232F4A"/>
<path d="M551.479 220.789C551.479 220.789 549.216 238.117 567.871 238.606C586.525 239.097 612.052 234.196 613.524 238.116C614.997 242.036 612.543 300.345 615.488 302.306C618.433 304.266 622.851 302.796 625.797 302.306C628.742 301.815 640.032 231.746 630.215 223.416C620.397 215.086 576.529 213.828 576.529 213.828" fill="url(#paint42_linear_2100_15100)"/>
<path d="M554.727 219.497C554.727 219.497 553.98 236.956 572.606 235.829C591.232 234.701 616.242 226.757 618.049 230.534C619.857 234.312 632.833 281.384 635.937 283.082C639.041 284.779 643.316 282.932 646.207 282.189C649.099 281.446 644.152 217.635 633.647 210.187C623.142 202.739 579.074 210.394 579.074 210.394" fill="url(#paint43_linear_2100_15100)"/>
<path d="M584.068 139.136C583.66 138.865 571.305 138.646 561.978 160.696C552.651 182.746 551.183 221.553 551.426 223.709C551.669 225.865 573.759 224.395 578.668 218.026C583.577 211.657 587.427 209.135 587.427 209.135C587.427 209.135 578.668 194.506 593.885 177.356C599.973 170.498 588.486 142.076 584.068 139.136Z" fill="url(#paint44_linear_2100_15100)"/>
<path d="M633.135 174.695C626.329 179.398 623.71 178.876 624.758 177.831C625.805 176.785 625.805 175.217 625.805 175.217C622.664 177.307 620.57 182.011 620.57 182.011L620.517 182.249C620.455 182.133 620.415 182.062 620.415 182.062C617.43 185.042 596.198 185.208 592.217 184.215C588.236 183.221 586.524 182.01 586.524 164.125C586.524 146.24 574.252 150.405 574.252 150.405C568.735 155.333 573.624 184.609 583.579 191.565C593.095 198.214 618.032 188.447 621.078 186.706C626.019 186.299 629.471 182.011 629.471 182.011C633.659 178.876 633.135 174.695 633.135 174.695Z" fill="url(#paint45_linear_2100_15100)"/>
<path d="M474.259 155.226C474.259 155.226 474.303 154.784 474.314 154.06C474.304 154.068 474.293 154.077 474.282 154.085C474.202 154.508 474.187 154.903 474.259 155.226Z" fill="url(#paint46_linear_2100_15100)"/>
<path d="M474.259 155.226C474.259 155.226 474.303 154.784 474.314 154.06C474.304 154.068 474.293 154.077 474.282 154.085C474.202 154.508 474.187 154.903 474.259 155.226Z" fill="url(#paint47_linear_2100_15100)"/>
<path d="M479.134 150.076C477.744 149.701 476.527 150.357 475.649 151.355C475.492 152.057 475.274 152.693 474.967 153.214C474.723 153.628 474.509 153.897 474.314 154.06C474.302 154.784 474.258 155.225 474.258 155.225C474.188 154.902 474.202 154.508 474.282 154.085C472.66 155.354 472.545 148.66 469.864 149.278C466.849 149.973 466.384 145.805 466.384 145.805C466.384 145.805 459.889 143.49 458.034 147.427C456.902 149.828 454.134 151.794 452.145 152.965C452.799 158.152 454.796 164.037 459.549 169.264C460.472 170.279 461.91 170.677 463.223 170.249C465.073 169.647 467.76 168.51 469.807 166.557C469.807 166.557 470.806 172.321 468.977 174.585L480.476 174.407C480.476 174.407 475.07 163.289 478.526 158.108C479.982 155.923 482.182 150.9 479.134 150.076Z" fill="url(#paint48_linear_2100_15100)"/>
<path d="M479.134 150.076C477.744 149.701 476.527 150.357 475.649 151.355C475.492 152.057 475.274 152.693 474.967 153.214C474.723 153.628 474.509 153.897 474.314 154.06C474.302 154.784 474.258 155.225 474.258 155.225C474.188 154.902 474.202 154.508 474.282 154.085C472.66 155.354 472.545 148.66 469.864 149.278C466.849 149.973 466.384 145.805 466.384 145.805C466.384 145.805 459.889 143.49 458.034 147.427C456.902 149.828 454.134 151.794 452.145 152.965C452.799 158.152 454.796 164.037 459.549 169.264C460.472 170.279 461.91 170.677 463.223 170.249C465.073 169.647 467.76 168.51 469.807 166.557C469.807 166.557 470.806 172.321 468.977 174.585L480.476 174.407C480.476 174.407 475.07 163.289 478.526 158.108C479.982 155.923 482.182 150.9 479.134 150.076Z" fill="url(#paint49_linear_2100_15100)"/>
<path d="M453.536 138.954C473.022 134.584 474.359 149.35 474.317 153.916C474.513 153.062 474.983 152.111 475.649 151.355C476.672 146.751 474.821 139.079 474.821 139.079L462.674 136.544L452.469 137.47L449.686 140.481V152.057L449.918 154.14C449.918 154.14 450.874 153.714 452.146 152.965C451.168 145.216 453.194 139.031 453.536 138.954Z" fill="url(#paint50_linear_2100_15100)"/>
<path d="M474.283 154.086C474.294 154.077 474.305 154.069 474.315 154.06C474.316 154.012 474.317 153.967 474.317 153.916C474.305 153.974 474.294 154.029 474.283 154.086Z" fill="url(#paint51_linear_2100_15100)"/>
<path d="M474.283 154.086C474.294 154.077 474.305 154.069 474.315 154.06C474.316 154.012 474.317 153.967 474.317 153.916C474.305 153.974 474.294 154.029 474.283 154.086Z" fill="url(#paint52_linear_2100_15100)"/>
<path d="M474.283 154.086C474.294 154.077 474.305 154.069 474.315 154.06C474.316 154.012 474.317 153.967 474.317 153.916C474.305 153.974 474.294 154.029 474.283 154.086Z" fill="url(#paint53_linear_2100_15100)"/>
<path d="M458.036 147.426C459.891 143.49 466.386 145.805 466.386 145.805C466.386 145.805 466.849 149.972 469.865 149.278C472.545 148.661 472.661 155.353 474.283 154.084C474.294 154.028 474.304 153.973 474.317 153.915C474.359 149.349 473.023 134.583 453.535 138.954C453.192 139.03 451.168 145.216 452.145 152.963C454.135 151.793 456.904 149.828 458.036 147.426Z" fill="url(#paint54_linear_2100_15100)"/>
<path d="M458.036 147.426C459.891 143.49 466.386 145.805 466.386 145.805C466.386 145.805 466.849 149.972 469.865 149.278C472.545 148.661 472.661 155.353 474.283 154.084C474.294 154.028 474.304 153.973 474.317 153.915C474.359 149.349 473.023 134.583 453.535 138.954C453.192 139.03 451.168 145.216 452.145 152.963C454.135 151.793 456.904 149.828 458.036 147.426Z" fill="url(#paint55_linear_2100_15100)"/>
<path d="M474.314 154.059C474.508 153.897 474.724 153.628 474.968 153.214C475.275 152.693 475.493 152.058 475.65 151.354C474.983 152.112 474.514 153.062 474.318 153.916C474.317 153.967 474.316 154.01 474.314 154.059Z" fill="url(#paint56_linear_2100_15100)"/>
<path d="M474.314 154.059C474.508 153.897 474.724 153.628 474.968 153.214C475.275 152.693 475.493 152.058 475.65 151.354C474.983 152.112 474.514 153.062 474.318 153.916C474.317 153.967 474.316 154.01 474.314 154.059Z" fill="url(#paint57_linear_2100_15100)"/>
<path d="M496.673 154.439C500.59 147.539 495.059 139.03 490.221 139.03C485.382 139.03 487.918 129.14 481.466 126.38C475.015 123.62 469.354 132.665 469.354 132.665C469.354 132.665 466.907 127.584 459.791 127.584C449.614 127.584 452.665 139.72 446.905 141.79C441.146 143.86 446.445 155.129 442.298 160.189C438.15 165.249 449.21 167.089 448.749 172.148C448.288 177.208 452.436 182.957 457.735 181.118C463.034 179.278 467.182 189.628 472.021 185.719C476.86 181.809 482.389 183.419 487.919 185.489C493.448 187.559 491.606 175.83 497.365 171.92C503.124 168.008 492.755 161.338 496.673 154.439ZM480.476 174.406L468.977 174.585C470.806 172.32 469.808 166.557 469.808 166.557C467.76 168.509 465.074 169.647 463.223 170.249C461.909 170.676 460.473 170.277 459.55 169.264C454.796 164.037 452.799 158.151 452.145 152.965C454.134 151.794 456.903 149.827 458.035 147.426C459.89 143.491 466.385 145.805 466.385 145.805C466.385 145.805 466.848 149.973 469.864 149.278C472.544 148.661 472.66 155.354 474.282 154.085C474.293 154.029 474.303 153.973 474.316 153.916C474.315 153.967 474.314 154.01 474.314 154.059C474.508 153.897 474.723 153.628 474.967 153.214C475.274 152.693 475.493 152.058 475.649 151.354C476.527 150.357 477.745 149.7 479.135 150.076C482.182 150.9 479.983 155.923 478.525 158.108C475.071 163.289 480.476 174.406 480.476 174.406Z" fill="url(#paint58_linear_2100_15100)"/>
<path d="M443.468 195.493C443.468 195.493 432.762 228.871 445.367 227.694C457.974 226.518 448.108 209.965 451.66 201.349C455.212 192.735 446.232 193.424 443.468 195.493Z" fill="#ECB7B4"/>
<path d="M501.005 284.206C501.777 281.927 523.383 215.598 523.383 215.598H464.738L469.78 280.865L501.005 284.206Z" fill="#232F4A"/>
<path d="M440.561 277.624L503.321 278.489L500.494 284.106H442.823L440.561 277.624Z" fill="#232F4A"/>
<path d="M454.769 282.378L449.941 360.156H454.026L462.939 282.378H454.769Z" fill="#232F4A"/>
<path d="M498.433 282.378L501.378 360.156H497.778L491.23 282.378H498.433Z" fill="#232F4A"/>
<path d="M455.223 354.332L453.937 362.18C453.937 362.18 446.734 362.687 447.249 364.712C447.764 366.737 458.052 363.952 458.052 363.952C458.052 363.952 461.911 354.586 458.052 353.319C454.194 352.054 455.223 354.332 455.223 354.332Z" fill="#1C3842"/>
<path d="M478.314 241.854C478.314 241.854 498.487 266.057 475.217 271.985C461.477 275.484 424.818 267.887 424.818 267.887C424.818 267.887 419.292 305.808 403.037 355.297L399.693 356.313C399.693 356.313 401.398 273.833 410.405 262.936C419.411 252.041 454.653 238.333 478.314 241.854Z" fill="url(#paint59_linear_2100_15100)"/>
<path d="M494.059 243.447C494.059 243.447 507.531 270.884 483.529 270.645C466.415 270.475 442.874 278.13 442.874 278.13C442.874 278.13 461.136 306.231 458.564 353.32L455.22 354.333C455.22 354.333 417.152 275.344 426.155 264.458C435.157 253.573 470.396 239.901 494.059 243.447Z" fill="url(#paint60_linear_2100_15100)"/>
<path d="M499.033 250.748C499.069 250.174 488.916 220.156 494.06 201.421C499.204 182.687 488.658 176.358 487.115 175.345C485.572 174.333 463.195 172.307 458.051 177.117C452.907 181.927 446.991 202.181 453.421 209.775C459.851 217.37 461.395 243.025 453.164 243.742C453.164 243.742 467.053 242.687 473.226 249.522C479.399 256.358 498.347 261.594 499.033 250.748Z" fill="url(#paint61_linear_2100_15100)"/>
<mask id="mask8_2100_15100" style="mask-type:luminance" maskUnits="userSpaceOnUse" x="450" y="174" width="50" height="83">
<path d="M499.033 250.748C499.069 250.174 488.916 220.156 494.06 201.421C499.204 182.687 488.658 176.358 487.115 175.345C485.572 174.333 463.195 172.307 458.051 177.117C452.907 181.927 446.991 202.181 453.421 209.775C459.851 217.37 461.395 243.025 453.164 243.742C453.164 243.742 467.053 242.687 473.226 249.522C479.399 256.358 498.347 261.594 499.033 250.748Z" fill="white"/>
</mask>
<g mask="url(#mask8_2100_15100)">
<path d="M464.738 174.08C464.738 174.08 451.877 187.752 466.281 191.549C480.685 195.346 485.572 176.105 483.257 172.055C480.943 168.003 464.738 174.08 464.738 174.08Z" fill="url(#paint62_linear_2100_15100)"/>
</g>
<path d="M466.474 225.87L466.282 225.724C466.201 225.822 466.275 225.869 466.474 225.87Z" fill="#E49B4B"/>
<path d="M500.798 201.698C501.489 178.256 486.827 175.345 486.827 175.345C486.827 175.345 484.026 181.927 483.403 185.471C483.016 187.671 485.054 196.348 490.438 203.077C492.73 200.476 495.201 202.654 500.798 201.698Z" fill="url(#paint63_linear_2100_15100)"/>
<path d="M443.469 195.492C444.85 181.703 459.851 175.851 459.851 175.851C459.851 175.851 457.171 181.926 457.794 185.472C458.181 187.671 455.744 196.369 450.36 203.098C448.068 200.497 449.066 196.448 443.469 195.492Z" fill="url(#paint64_linear_2100_15100)"/>
<path d="M399.888 356.607C399.888 356.607 382.162 361.644 385.026 363.57C387.89 365.497 405.032 362.56 405.651 361.147C406.271 359.736 403.267 355.055 403.267 355.055L399.888 356.607Z" fill="#1C3842"/>
<path d="M432.649 207.067L454.49 205.085C455.3 205.012 456.056 205.497 456.324 206.263L465.979 233.798C466.354 234.869 465.638 236.011 464.508 236.141L443.866 238.51C443.065 238.602 442.303 238.143 442.011 237.393L431.156 209.47C430.73 208.372 431.475 207.173 432.649 207.067Z" fill="url(#paint65_linear_2100_15100)"/>
<path d="M448.143 221.017C446.814 220.884 445.844 219.701 445.977 218.374C446.015 217.989 446.144 217.637 446.338 217.329C445.052 217.592 444.084 218.728 444.084 220.089C444.084 221.644 445.348 222.906 446.906 222.906C448.27 222.906 449.408 221.94 449.671 220.655C449.23 220.933 448.699 221.072 448.143 221.017Z" fill="#2C5162"/>
<path d="M488.44 200.139C488.44 200.139 489.174 216.557 486.85 218.877C484.526 221.197 466.411 225.449 462.301 224.482L464.242 228.844C464.242 228.844 490.724 230.474 496.146 225.062C501.568 219.65 500.827 201.859 500.81 196.837C500.793 191.816 490.805 196.092 488.44 200.139Z" fill="url(#paint66_linear_2100_15100)"/>
<path d="M461.289 220.424C461.289 220.424 451.994 221.197 453.543 223.517C455.093 225.837 455.867 228.929 458.19 228.929C460.515 228.929 463.8 229.447 463.706 227.642C463.613 225.836 462.839 221.196 461.289 220.424Z" fill="#ECB7B4"/>
<path d="M498.878 251.896C498.878 251.896 509.559 271.002 488.601 273.581C467.643 276.161 441.934 274.913 444.083 277.95C446.231 280.987 459.354 306.497 460.046 331.318C460.046 331.318 445.54 340.971 444.159 339.591C442.778 338.212 422.274 289.905 423.546 275.448C423.546 275.448 413.077 335.454 411.695 336.144C410.314 336.833 397.881 333.385 397.881 331.318C397.881 329.249 402.716 265.819 410.314 258.233C417.912 250.649 460.047 240.307 473.171 243.065" fill="url(#paint67_linear_2100_15100)"/>
<path d="M461.592 166.957C461.592 166.957 464.722 166.228 465.097 163.707" stroke="#4F2724" stroke-width="0.187" stroke-miterlimit="10"/>
<path opacity="0.59" d="M459.349 156.1C459.409 156.274 458.935 162.272 459.464 162.675C459.993 163.078 461.916 163.004 461.916 163.004" stroke="#230F0E" stroke-width="0.1386" stroke-miterlimit="10"/>
<path d="M455.431 156.003C455.517 156.49 455.455 156.908 455.292 156.937C455.129 156.966 454.927 156.595 454.842 156.107C454.755 155.62 454.817 155.202 454.98 155.173C455.143 155.145 455.344 155.516 455.431 156.003Z" fill="#230F0E"/>
<path d="M465.163 154.391C465.249 154.878 465.186 155.296 465.024 155.324C464.862 155.352 464.659 154.981 464.574 154.494C464.488 154.007 464.55 153.589 464.713 153.56C464.875 153.532 465.076 153.904 465.163 154.391Z" fill="#230F0E"/>
<path d="M463.291 152.529C464.266 151.652 465.548 151.633 466.359 152.743C466.472 152.898 466.7 152.705 466.587 152.549C465.685 151.316 464.2 151.309 463.097 152.301C462.954 152.429 463.147 152.658 463.291 152.529Z" fill="url(#paint68_linear_2100_15100)"/>
<path d="M456.181 153.519C454.804 152.965 453.411 153.477 452.987 154.943C452.934 155.127 453.214 155.231 453.267 155.046C453.649 153.727 454.861 153.308 456.077 153.797C456.255 153.871 456.359 153.59 456.181 153.519Z" fill="url(#paint69_linear_2100_15100)"/>
<path opacity="0.1" d="M469.67 161.577C469.899 162.876 469.25 164.076 468.221 164.257C467.192 164.438 466.171 163.532 465.941 162.234C465.711 160.935 466.36 159.735 467.39 159.554C468.42 159.373 469.441 160.279 469.67 161.577Z" fill="#E07E73"/>
<path d="M117.513 360.258C117.513 360.258 130.355 354.765 135.859 363.31H111.683C110.823 363.31 110.465 362.211 111.161 361.706L115.679 358.427L117.513 360.258Z" fill="#1C3842"/>
<path d="M62.427 268.668C62.427 268.668 62.3791 269.033 62.346 269.662C62.1276 273.728 62.4697 288.852 79.6953 288.528C99.5914 288.153 131.875 289.652 131.875 289.652C131.875 289.652 113.856 317.381 112.729 360.098H117.985C117.985 360.098 160.78 287.778 153.273 276.162C145.764 264.546 102.969 265.296 102.969 265.296" fill="url(#paint70_linear_2100_15100)"/>
<path d="M92.7148 185.079C92.7148 185.079 65.3488 200.699 61.0352 268.543C61.0352 268.543 69.5707 281.91 85.101 272.968C100.631 264.025 101.001 265.033 101.001 265.033C101.001 265.033 104.951 229.254 111.651 220.025C118.349 210.797 92.7148 185.079 92.7148 185.079Z" fill="url(#paint71_linear_2100_15100)"/>
<mask id="mask9_2100_15100" style="mask-type:luminance" maskUnits="userSpaceOnUse" x="61" y="185" width="52" height="92">
<path d="M92.7148 185.079C92.7148 185.079 65.3488 200.699 61.0352 268.543C61.0352 268.543 69.5707 281.91 85.101 272.968C100.631 264.025 101.001 265.033 101.001 265.033C101.001 265.033 104.951 229.254 111.651 220.025C118.349 210.797 92.7148 185.079 92.7148 185.079Z" fill="white"/>
</mask>
<g mask="url(#mask9_2100_15100)">
<path opacity="0.32" d="M87.0951 194.429C86.7935 194.865 96.0004 217.941 111.831 227.23C127.662 236.521 112.518 197.769 112.518 197.769L87.0951 194.429Z" fill="#7A2343"/>
</g>
<path d="M139.807 165.085V165.094C138.468 159.38 136.744 154.928 136.744 154.928L111.802 154.451L110.783 170.047C104.129 177.658 92.7871 184.829 92.7871 184.829C94.5773 196.979 107.764 206.767 107.764 206.767C108.578 198.585 115.886 189.456 120.294 185.051C124.716 188.648 130.152 191.189 135.531 188.898C139.884 187.044 141.313 182.275 141.347 176.879C142.028 176.644 142.917 176.191 143.81 175.3C145.644 173.469 139.807 165.085 139.807 165.085Z" fill="url(#paint72_linear_2100_15100)"/>
<path d="M111.148 148.803C123.19 148.378 118.64 140.319 125.63 146.678C132.619 153.036 147.6 131.656 142.587 147.831C142.587 147.831 144.233 156.562 132.191 156.987C120.149 157.413 121.932 162.66 121.932 162.66C121.932 162.66 120.762 166.818 120.117 169.027C119.87 169.874 120.12 170.784 120.769 171.381C123.191 173.607 127.72 177.249 131.399 176.709C136.665 175.935 140.607 176.01 141.975 176.52C143.342 177.032 143.278 188.797 137.083 192.392C130.887 195.986 123.254 192.767 122.112 189.578C120.97 186.389 120.519 185.019 120.519 185.019C120.519 185.019 119.239 176.337 117.609 171.649C115.6 172.58 112.623 173.143 110.858 169.655C110.858 169.655 105.011 166.487 106.502 162.911C107.992 159.336 99.1054 149.229 111.148 148.803Z" fill="url(#paint73_linear_2100_15100)"/>
<path d="M116.106 172.582C117.69 174.419 120.04 174.993 121.355 173.863C122.67 172.733 122.451 170.329 120.867 168.492C119.283 166.655 116.933 166.081 115.618 167.211C114.304 168.34 114.523 170.745 116.106 172.582Z" fill="url(#paint74_linear_2100_15100)"/>
<path d="M64.3027 287.029L105.972 287.778L104.095 292.65H65.8042L64.3027 287.029Z" fill="#2D1E1A"/>
<path d="M69.5591 291.151L64.6797 358.6H68.8089L77.8176 291.151H69.5591Z" fill="#2D1E1A"/>
<path d="M101.092 291.151L104.472 358.6H100.341L92.834 291.151H101.092Z" fill="#2D1E1A"/>
<path d="M168.27 232.069C169.021 231.319 139.802 227.818 138.325 228.089C137.303 228.276 132.825 219.609 125.756 207.486C112.712 210.267 108.718 216.802 107.496 220.626C118.76 231.877 130.756 240.486 134.082 240.295C140.125 239.95 167.047 237.563 167.047 237.563C167.047 237.563 167.047 233.29 168.27 232.069Z" fill="url(#paint75_linear_2100_15100)"/>
<path d="M126.652 207.812C123.36 202.167 119.533 195.807 115.248 189.226C101.337 167.863 85.4453 191.682 85.4453 191.682C88.6848 201.482 97.9237 211.941 107.549 221.557C108.829 217.558 113.006 210.721 126.652 207.812Z" fill="url(#paint76_linear_2100_15100)"/>
<path d="M165.959 237.728C165.959 237.728 171.617 242.811 179.539 233.774C179.539 233.774 183.5 229.821 189.158 233.21C189.158 233.21 190.29 234.904 191.421 233.774C192.553 232.645 182.368 224.173 176.144 229.821C176.144 229.821 168.03 231.373 165.863 232.574C165.863 232.574 163.129 237.163 165.959 237.728Z" fill="url(#paint77_linear_2100_15100)"/>
<path d="M44.1289 210.704L64.9212 292.501L71.0357 291.281L50.2434 210.704H44.1289Z" fill="#2D1E1A"/>
<path d="M135.587 166.821C135.421 167.438 135.119 167.892 134.913 167.837C134.707 167.782 134.674 167.237 134.841 166.62C135.007 166.003 135.309 165.549 135.515 165.604C135.722 165.659 135.754 166.204 135.587 166.821Z" fill="#230F0E"/>
<path d="M137.215 163.714C135.908 162.313 133.998 162.153 132.699 163.637C132.536 163.824 132.806 164.098 132.971 163.912C134.141 162.576 135.787 162.748 136.941 163.985C137.11 164.167 137.384 163.896 137.215 163.714Z" fill="#3A1817"/>
<path d="M132.86 182.183C134.795 183.345 137.33 183.696 139.264 182.38C139.507 182.215 139.277 181.818 139.033 181.984C137.233 183.208 134.889 182.866 133.091 181.787C132.838 181.635 132.606 182.031 132.86 182.183Z" fill="url(#paint78_linear_2100_15100)"/>
<path d="M177.443 240.005C176.831 240.616 172.551 236.952 172.551 236.952L215.359 236.342V239.395L177.443 240.005Z" fill="#4F5959"/>
<path d="M213.117 236.342L222.698 191.781L226.367 193.002L215.359 238.174L213.117 236.342Z" fill="#4F5959"/>
<path d="M610.098 246.308L613.514 236.221L160.71 239.273L162.305 249.359L179.231 249.244L158.484 353.895H163.039L189.638 249.173L581.513 246.502L608.79 353.895H613.345L592.041 246.431L610.098 246.308Z" fill="url(#paint79_linear_2100_15100)"/>
<path opacity="0.54" d="M610.098 246.308L613.514 236.221L160.71 239.273L162.305 249.359L179.231 249.244L158.484 353.895H163.039L189.638 249.173L581.513 246.502L608.79 353.895H613.345L592.041 246.431L610.098 246.308Z" fill="url(#paint80_linear_2100_15100)"/>
<path d="M291.858 107.142C291.092 107.644 287.839 118.136 294.709 123.313C301.579 128.491 307.412 133.019 307.412 133.019C307.412 133.019 313.894 136.253 319.079 133.019C324.264 129.784 325.56 130.431 328.8 125.579C332.041 120.727 334.634 118.787 333.338 112.964C332.042 107.142 314.542 92.2618 291.858 107.142Z" fill="url(#paint81_linear_2100_15100)"/>
<path d="M293.153 313.517C293.153 313.517 298.986 329.057 298.986 330.985C298.986 332.912 287.334 337.468 289.265 339.395L306.088 338.195C306.805 338.144 307.323 337.493 307.205 336.785C306.868 334.758 306.164 331.031 305.469 330.337C304.503 329.373 302.876 307.693 302.876 307.693L293.781 313.376" fill="url(#paint82_linear_2100_15100)"/>
<mask id="mask10_2100_15100" style="mask-type:luminance" maskUnits="userSpaceOnUse" x="289" y="307" width="19" height="33">
<path d="M293.153 313.517C293.153 313.517 298.986 329.057 298.986 330.985C298.986 332.912 287.334 337.468 289.265 339.395L306.088 338.195C306.805 338.144 307.323 337.493 307.205 336.785C306.868 334.758 306.164 331.031 305.469 330.337C304.503 329.373 302.876 307.693 302.876 307.693L293.781 313.376" fill="white"/>
</mask>
<g mask="url(#mask10_2100_15100)">
<path d="M297.041 330.984C297.041 330.984 305.467 332.277 310.003 329.043C314.541 325.808 309.355 344.569 309.355 344.569H290.56L281.486 339.393C281.486 339.393 287.967 323.868 297.041 330.984Z" fill="#1C3842"/>
</g>
<path d="M330.448 315.318C330.448 315.318 326.208 330.999 326.208 332.925C326.208 334.852 337.86 339.408 335.929 341.335L319.106 340.136C318.39 340.084 317.871 339.432 317.989 338.725C318.327 336.698 319.031 332.972 319.726 332.277C320.692 331.313 321.671 307.693 321.671 307.693L331.414 315.317" fill="url(#paint83_linear_2100_15100)"/>
<mask id="mask11_2100_15100" style="mask-type:luminance" maskUnits="userSpaceOnUse" x="317" y="307" width="20" height="35">
<path d="M330.448 315.318C330.448 315.318 326.208 330.999 326.208 332.925C326.208 334.852 337.86 339.408 335.929 341.335L319.106 340.136C318.39 340.084 317.871 339.432 317.989 338.725C318.327 336.698 319.031 332.972 319.726 332.277C320.692 331.313 321.671 307.693 321.671 307.693L331.414 315.317" fill="white"/>
</mask>
<g mask="url(#mask11_2100_15100)">
<path d="M328.152 332.925C328.152 332.925 319.726 334.218 315.189 330.983C310.652 327.749 315.837 346.51 315.837 346.51H334.633L343.706 341.334C343.706 341.334 337.225 325.809 328.152 332.925Z" fill="#1C3842"/>
</g>
<path d="M297.414 221.298C297.414 221.298 274.486 213.214 267.729 222.851C260.971 232.487 293.794 323.068 293.794 323.068C293.794 323.068 308.275 320.177 307.309 320.177C306.344 320.177 296.69 245.978 293.794 241.16C293.794 241.16 311.171 245.979 318.894 241.16C318.894 241.16 316.963 298.014 318.894 320.177C318.894 320.177 329.512 322.104 332.409 321.14C332.409 321.14 349.786 222.851 339.167 219.96C328.548 217.069 318.411 220.71 316.239 221.298C314.067 221.887 297.414 221.298 297.414 221.298Z" fill="url(#paint84_linear_2100_15100)"/>
<path d="M301.035 137.572C300.456 138.343 301.035 147.207 297.173 150.099C297.173 150.099 275.934 150.099 265.315 167.444C254.697 184.789 258.557 205.025 261.454 207.916C264.35 210.807 272.073 219.479 294.277 218.515C316.481 217.552 333.857 217.552 343.511 200.206C343.511 200.206 352.199 168.407 316.481 151.062C316.481 151.062 307.793 150.099 310.688 137.572C310.688 137.572 303.93 133.717 301.035 137.572Z" fill="url(#paint85_linear_2100_15100)"/>
<mask id="mask12_2100_15100" style="mask-type:luminance" maskUnits="userSpaceOnUse" x="258" y="135" width="87" height="84">
<path d="M301.035 137.572C300.456 138.343 301.035 147.207 297.173 150.099C297.173 150.099 275.934 150.099 265.315 167.444C254.697 184.789 258.557 205.025 261.454 207.916C264.35 210.807 272.073 219.479 294.277 218.515C316.481 217.552 333.857 217.552 343.511 200.206C343.511 200.206 352.199 168.407 316.481 151.062C316.481 151.062 307.793 150.099 310.688 137.572C310.688 137.572 303.93 133.717 301.035 137.572Z" fill="white"/>
</mask>
<g mask="url(#mask12_2100_15100)">
<path d="M288.484 147.207C287.519 150.098 293.311 147.207 293.311 147.207C293.311 147.207 292.346 157.807 306.827 157.807C321.307 157.807 328.065 138.534 328.065 138.534L364.749 171.298L361.853 207.915L330.961 221.405L279.796 230.077L242.147 205.024L238.285 175.151L272.074 140.461L288.484 147.207Z" fill="url(#paint86_linear_2100_15100)"/>
</g>
<path d="M272.075 186.715C271.178 187.073 276.902 218.515 279.797 220.442C282.693 222.37 321.308 220.442 325.17 220.442C329.032 220.442 332.892 187.679 331.928 186.715C330.963 185.752 276.901 184.788 272.075 186.715Z" fill="url(#paint87_linear_2100_15100)"/>
<path d="M298.139 103.845C297.09 104.717 290.416 129.862 299.104 139.499C307.792 149.135 324.204 139.499 328.066 112.518C328.066 112.518 321.308 84.5718 298.139 103.845Z" fill="url(#paint88_linear_2100_15100)"/>
<path opacity="0.59" d="M308.483 123.916C308.472 124.107 305.659 129.714 306.011 130.31C306.363 130.905 308.249 131.586 308.249 131.586" stroke="#230F0E" stroke-width="0.1444" stroke-miterlimit="10"/>
<path d="M303.884 122.093C303.708 122.746 303.388 123.229 303.17 123.17C302.951 123.112 302.917 122.534 303.093 121.881C303.269 121.228 303.588 120.745 303.807 120.804C304.025 120.862 304.059 121.439 303.884 122.093Z" fill="#230F0E"/>
<path d="M315.591 125.723C315.415 126.376 315.095 126.859 314.877 126.799C314.658 126.741 314.624 126.163 314.8 125.51C314.976 124.857 315.295 124.374 315.514 124.434C315.732 124.492 315.766 125.069 315.591 125.723Z" fill="#230F0E"/>
<path d="M318.24 116.508C319.958 115.986 321.558 116.703 321.92 118.547C321.97 118.804 322.365 118.697 322.314 118.44C321.912 116.39 320.074 115.523 318.131 116.113C317.881 116.19 317.986 116.585 318.24 116.508Z" fill="url(#paint89_linear_2100_15100)"/>
<path d="M307.553 112.33C306.169 110.845 304.144 110.675 302.766 112.249C302.594 112.446 302.88 112.738 303.054 112.54C304.293 111.124 306.039 111.305 307.262 112.617C307.442 112.81 307.732 112.523 307.553 112.33Z" fill="url(#paint90_linear_2100_15100)"/>
<path opacity="0.1" d="M302.519 127.903C302.05 129.645 300.549 130.757 299.167 130.387C297.785 130.015 297.045 128.303 297.514 126.561C297.983 124.818 299.484 123.707 300.865 124.077C302.248 124.447 302.989 126.161 302.519 127.903Z" fill="#E07E73"/>
<path opacity="0.1" d="M319.64 132.498C319.171 134.24 317.67 135.352 316.288 134.981C314.906 134.61 314.166 132.898 314.635 131.155C315.104 129.413 316.605 128.302 317.987 128.672C319.37 129.042 320.11 130.755 319.64 132.498Z" fill="#E07E73"/>
<path d="M302.246 205.327C301.133 205.216 300.322 204.226 300.433 203.115C300.465 202.793 300.574 202.499 300.736 202.242C299.659 202.461 298.85 203.412 298.85 204.551C298.85 205.853 299.907 206.909 301.211 206.909C302.352 206.909 303.305 206.1 303.524 205.026C303.156 205.257 302.711 205.374 302.246 205.327Z" fill="#2C5162"/>
<path d="M297.041 117.492C297.041 118.922 295.88 120.08 294.448 120.08C293.016 120.08 291.855 118.922 291.855 117.492C291.855 116.063 293.016 114.904 294.448 114.904C295.88 114.905 297.041 116.064 297.041 117.492Z" fill="url(#paint91_linear_2100_15100)"/>
<path d="M328.152 125.902C328.152 127.332 326.992 128.49 325.559 128.49C324.127 128.49 322.967 127.332 322.967 125.902C322.967 124.473 324.127 123.314 325.559 123.314C326.992 123.314 328.152 124.474 328.152 125.902Z" fill="#FAC1A7"/>
<path d="M335.281 103.26C333.984 84.4994 314.55 91.3175 314.55 91.3175C310.335 84.5866 302.443 93.28 300.507 95.5956C300.496 93.346 300.65 91.1154 301.304 88.92C301.394 88.6201 300.925 88.4924 300.835 88.7913C300.118 91.1995 299.987 93.6427 300.024 96.1137C299.706 95.935 299.39 95.7988 299.078 95.6861C298.484 94.8075 297.814 93.982 297.051 93.2247C296.829 93.0045 296.485 93.347 296.707 93.5672C297.306 94.1618 297.841 94.8021 298.332 95.4733C292.384 94.2671 287.939 104.433 292.345 110.59C293.152 111.718 294.095 112.27 295.104 112.424C294.795 113.258 294.558 113.933 294.449 114.259C294.449 114.259 296.759 115.653 295.604 119.808C295.604 119.808 296.325 122.412 298.088 111.904C302.43 109.981 306.826 103.844 306.826 103.844C306.826 103.844 320.341 117.335 332.891 117.335C345.441 117.335 335.281 103.26 335.281 103.26Z" fill="url(#paint92_linear_2100_15100)"/>
<path d="M326.208 117.493C326.208 117.493 322.319 127.197 322.967 127.845C323.615 128.492 326.208 120.081 327.505 123.317C328.801 126.551 329.449 112.318 329.449 112.318L326.208 117.493Z" fill="url(#paint93_linear_2100_15100)"/>
<path d="M310.892 120.911C312.091 117.984 315.442 116.581 318.374 117.778C321.307 118.976 322.712 122.32 321.512 125.248C320.313 128.175 316.962 129.578 314.03 128.38C311.097 127.182 309.692 123.838 310.892 120.911Z" stroke="#230F0E" stroke-width="0.1313" stroke-miterlimit="10"/>
<path d="M298.274 117.028C299.474 114.101 302.825 112.698 305.757 113.896C308.69 115.093 310.095 118.438 308.895 121.365C307.696 124.292 304.345 125.695 301.413 124.497C298.479 123.3 297.075 119.956 298.274 117.028Z" stroke="#230F0E" stroke-width="0.1313" stroke-miterlimit="10"/>
<path d="M310.717 121.397C310.717 121.397 309.831 121.847 308.969 120.85" stroke="#230F0E" stroke-width="0.1313" stroke-miterlimit="10"/>
<path d="M321.434 125.424L323.978 125.329" stroke="#230F0E" stroke-width="0.1313" stroke-miterlimit="10"/>
<path d="M297.937 118.181L295.461 116.246" stroke="#230F0E" stroke-width="0.1313" stroke-miterlimit="10"/>
<path d="M296.393 116.846C296.393 116.846 291.208 129.784 291.857 132.372C292.505 134.96 297.042 144.664 302.226 145.957C307.411 147.251 317.133 142.723 319.726 140.135C322.319 137.547 324.69 123.637 323.666 124.608C322.643 125.578 315.523 134.276 314.546 133.163C313.568 132.048 305.143 129.461 301.903 130.108C298.662 130.755 296.393 118.787 296.393 116.846Z" fill="url(#paint94_linear_2100_15100)"/>
<path d="M303.709 136.223C303.709 136.223 307.456 138.523 310.252 136.431" stroke="#4F2724" stroke-width="0.2559" stroke-miterlimit="10"/>
<path d="M608.557 128.774C608.37 129.232 608.094 129.553 607.94 129.49C607.788 129.427 607.815 129.006 608.002 128.549C608.189 128.09 608.465 127.77 608.618 127.832C608.771 127.895 608.743 128.317 608.557 128.774Z" fill="#230F0E"/>
<path d="M610.517 127.072C609.649 125.87 608.195 125.563 607.054 126.579C606.911 126.707 607.092 126.944 607.236 126.816C608.263 125.902 609.512 126.192 610.281 127.254C610.394 127.409 610.63 127.227 610.517 127.072Z" fill="#3A1817"/>
<path d="M608.045 134.195C607.942 134.204 607.847 134.187 607.767 134.135C607.381 133.886 607.592 133.021 607.837 132.339C608.172 131.407 608.766 130.264 609.507 129.121C610.249 127.977 611.052 126.971 611.769 126.285C612.292 125.785 612.998 125.237 613.381 125.487C613.767 125.736 613.556 126.601 613.311 127.283C612.976 128.216 612.383 129.358 611.641 130.501C610.898 131.645 610.096 132.651 609.379 133.337C608.966 133.734 608.438 134.158 608.045 134.195ZM609.631 129.203C608.895 130.336 608.309 131.468 607.977 132.391C607.666 133.256 607.618 133.862 607.847 134.011C608.078 134.158 608.611 133.868 609.275 133.231C609.984 132.552 610.779 131.555 611.515 130.421C612.251 129.287 612.837 128.155 613.169 127.233C613.48 126.367 613.528 125.762 613.299 125.613C613.069 125.466 612.536 125.756 611.871 126.392C611.163 127.071 610.367 128.069 609.631 129.203Z" fill="#2B2222"/>
<path d="M609.441 129.233L596.5 122.774L596.56 122.654L609.501 129.113L609.441 129.233Z" fill="#2B2222"/>
<path d="M597.404 124.403C597.237 126.224 596.012 127.601 594.67 127.477C593.327 127.354 592.375 125.778 592.543 123.957C592.71 122.136 593.934 120.759 595.277 120.883C596.62 121.007 597.572 122.582 597.404 124.403Z" fill="url(#paint95_linear_2100_15100)"/>
<path d="M601.736 135.644C601.926 136.908 602.762 138.229 604.2 137.995C604.314 137.976 604.266 137.803 604.152 137.822C602.816 138.039 602.083 136.743 601.909 135.596C601.892 135.483 601.719 135.53 601.736 135.644Z" fill="#604941"/>
<defs>
<linearGradient id="paint0_linear_2100_15100" x1="547.858" y1="138.42" x2="620.794" y2="138.42" gradientUnits="userSpaceOnUse">
<stop stop-color="#3D365F"/>
<stop offset="0.9985" stop-color="#58467F"/>
</linearGradient>
<linearGradient id="paint1_linear_2100_15100" x1="582.55" y1="138.42" x2="614.111" y2="138.42" gradientUnits="userSpaceOnUse">
<stop offset="0.0091" stop-color="#A46A6D"/>
<stop offset="1" stop-color="#B28E8E"/>
</linearGradient>
<linearGradient id="paint2_linear_2100_15100" x1="547.857" y1="142.674" x2="620.794" y2="142.674" gradientUnits="userSpaceOnUse">
<stop stop-color="#3D365F"/>
<stop offset="0.9985" stop-color="#58467F"/>
</linearGradient>
<linearGradient id="paint3_linear_2100_15100" x1="547.858" y1="135.982" x2="620.794" y2="135.982" gradientUnits="userSpaceOnUse">
<stop stop-color="#3D365F"/>
<stop offset="0.9985" stop-color="#58467F"/>
</linearGradient>
<linearGradient id="paint4_linear_2100_15100" x1="582.551" y1="135.982" x2="614.112" y2="135.982" gradientUnits="userSpaceOnUse">
<stop offset="0.0091" stop-color="#A46A6D"/>
<stop offset="1" stop-color="#B28E8E"/>
</linearGradient>
<linearGradient id="paint5_linear_2100_15100" x1="547.857" y1="115.913" x2="620.793" y2="115.913" gradientUnits="userSpaceOnUse">
<stop stop-color="#3D365F"/>
<stop offset="0.9985" stop-color="#58467F"/>
</linearGradient>
<linearGradient id="paint6_linear_2100_15100" x1="547.858" y1="117.824" x2="620.794" y2="117.824" gradientUnits="userSpaceOnUse">
<stop stop-color="#3D365F"/>
<stop offset="0.9985" stop-color="#58467F"/>
</linearGradient>
<linearGradient id="paint7_linear_2100_15100" x1="582.55" y1="117.824" x2="614.111" y2="117.824" gradientUnits="userSpaceOnUse">
<stop offset="0.0091" stop-color="#A46A6D"/>
<stop offset="1" stop-color="#B28E8E"/>
</linearGradient>
<linearGradient id="paint8_linear_2100_15100" x1="547.814" y1="127.107" x2="620.827" y2="127.107" gradientUnits="userSpaceOnUse">
<stop stop-color="#3D365F"/>
<stop offset="0.9985" stop-color="#58467F"/>
</linearGradient>
<linearGradient id="paint9_linear_2100_15100" x1="554.29" y1="127.107" x2="593.256" y2="127.107" gradientUnits="userSpaceOnUse">
<stop stop-color="#3D365F"/>
<stop offset="0.9985" stop-color="#58467F"/>
</linearGradient>
<linearGradient id="paint10_linear_2100_15100" x1="587.74" y1="127.107" x2="615.928" y2="127.107" gradientUnits="userSpaceOnUse">
<stop stop-color="#3D365F"/>
<stop offset="0.9985" stop-color="#58467F"/>
</linearGradient>
<linearGradient id="paint11_linear_2100_15100" x1="547.857" y1="127.246" x2="620.794" y2="127.246" gradientUnits="userSpaceOnUse">
<stop stop-color="#3D365F"/>
<stop offset="0.9985" stop-color="#58467F"/>
</linearGradient>
<linearGradient id="paint12_linear_2100_15100" x1="582.549" y1="127.246" x2="614.11" y2="127.246" gradientUnits="userSpaceOnUse">
<stop offset="0.0091" stop-color="#A46A6D"/>
<stop offset="1" stop-color="#B28E8E"/>
</linearGradient>
<linearGradient id="paint13_linear_2100_15100" x1="554.327" y1="127.246" x2="593.251" y2="127.246" gradientUnits="userSpaceOnUse">
<stop stop-color="#3D365F"/>
<stop offset="0.9985" stop-color="#58467F"/>
</linearGradient>
<linearGradient id="paint14_linear_2100_15100" x1="524.308" y1="141.845" x2="1017.36" y2="141.845" gradientUnits="userSpaceOnUse">
<stop stop-color="#3D365F"/>
<stop offset="0.9985" stop-color="#58467F"/>
</linearGradient>
<linearGradient id="paint15_linear_2100_15100" x1="564.503" y1="232.766" x2="571.042" y2="285.139" gradientUnits="userSpaceOnUse">
<stop offset="0.0032" stop-color="#70AEAB"/>
<stop offset="1" stop-color="#678EC4"/>
</linearGradient>
<linearGradient id="paint16_linear_2100_15100" x1="563.514" y1="272.506" x2="589.536" y2="264.847" gradientUnits="userSpaceOnUse">
<stop offset="0.0032" stop-color="#70AEAB"/>
<stop offset="1" stop-color="#678EC4"/>
</linearGradient>
<linearGradient id="paint17_linear_2100_15100" x1="510.628" y1="306.34" x2="595.748" y2="284.839" gradientUnits="userSpaceOnUse">
<stop offset="0.0032" stop-color="#70AEAB"/>
<stop offset="1" stop-color="#678EC4"/>
</linearGradient>
<linearGradient id="paint18_linear_2100_15100" x1="597.784" y1="292.901" x2="518.608" y2="312.901" gradientUnits="userSpaceOnUse">
<stop offset="0.0032" stop-color="#70AEAB"/>
<stop offset="1" stop-color="#678EC4"/>
</linearGradient>
<linearGradient id="paint19_linear_2100_15100" x1="672.672" y1="280.706" x2="601.91" y2="280.706" gradientUnits="userSpaceOnUse">
<stop offset="0.0032" stop-color="#70AEAB"/>
<stop offset="1" stop-color="#678EC4"/>
</linearGradient>
<linearGradient id="paint20_linear_2100_15100" x1="602.115" y1="291.53" x2="653.115" y2="291.53" gradientUnits="userSpaceOnUse">
<stop offset="0.0032" stop-color="#70AEAB"/>
<stop offset="1" stop-color="#678EC4"/>
</linearGradient>
<linearGradient id="paint21_linear_2100_15100" x1="654.459" y1="205.136" x2="590.688" y2="287.798" gradientUnits="userSpaceOnUse">
<stop offset="0.0032" stop-color="#70AEAB"/>
<stop offset="1" stop-color="#678EC4"/>
</linearGradient>
<linearGradient id="paint22_linear_2100_15100" x1="598.315" y1="293.684" x2="657.634" y2="216.793" gradientUnits="userSpaceOnUse">
<stop offset="0.0032" stop-color="#70AEAB"/>
<stop offset="1" stop-color="#678EC4"/>
</linearGradient>
<linearGradient id="paint23_linear_2100_15100" x1="588.207" y1="323.94" x2="620.423" y2="323.94" gradientUnits="userSpaceOnUse">
<stop offset="0.011" stop-color="#CFA08E"/>
<stop offset="1" stop-color="#D26A8F"/>
</linearGradient>
<linearGradient id="paint24_linear_2100_15100" x1="603.242" y1="292.031" x2="634.013" y2="304.17" gradientUnits="userSpaceOnUse">
<stop offset="0.0032" stop-color="#70AEAB"/>
<stop offset="1" stop-color="#678EC4"/>
</linearGradient>
<linearGradient id="paint25_linear_2100_15100" x1="603.242" y1="292.031" x2="634.013" y2="304.17" gradientUnits="userSpaceOnUse">
<stop offset="0.0032" stop-color="#70AEAB"/>
<stop offset="1" stop-color="#678EC4"/>
</linearGradient>
<linearGradient id="paint26_linear_2100_15100" x1="650.26" y1="331.554" x2="623.357" y2="285.812" gradientUnits="userSpaceOnUse">
<stop offset="0.0032" stop-color="#70AEAB"/>
<stop offset="1" stop-color="#678EC4"/>
</linearGradient>
<linearGradient id="paint27_linear_2100_15100" x1="111.439" y1="234.671" x2="117.978" y2="287.045" gradientUnits="userSpaceOnUse">
<stop offset="0.0032" stop-color="#70AEAB"/>
<stop offset="1" stop-color="#678EC4"/>
</linearGradient>
<linearGradient id="paint28_linear_2100_15100" x1="110.452" y1="274.411" x2="136.473" y2="266.752" gradientUnits="userSpaceOnUse">
<stop offset="0.0032" stop-color="#70AEAB"/>
<stop offset="1" stop-color="#678EC4"/>
</linearGradient>
<linearGradient id="paint29_linear_2100_15100" x1="57.5659" y1="308.246" x2="142.685" y2="286.745" gradientUnits="userSpaceOnUse">
<stop offset="0.0032" stop-color="#70AEAB"/>
<stop offset="1" stop-color="#678EC4"/>
</linearGradient>
<linearGradient id="paint30_linear_2100_15100" x1="144.722" y1="294.807" x2="65.5456" y2="314.807" gradientUnits="userSpaceOnUse">
<stop offset="0.0032" stop-color="#70AEAB"/>
<stop offset="1" stop-color="#678EC4"/>
</linearGradient>
<linearGradient id="paint31_linear_2100_15100" x1="219.611" y1="282.612" x2="148.85" y2="282.612" gradientUnits="userSpaceOnUse">
<stop offset="0.0032" stop-color="#70AEAB"/>
<stop offset="1" stop-color="#678EC4"/>
</linearGradient>
<linearGradient id="paint32_linear_2100_15100" x1="149.055" y1="293.436" x2="200.055" y2="293.436" gradientUnits="userSpaceOnUse">
<stop offset="0.0032" stop-color="#70AEAB"/>
<stop offset="1" stop-color="#678EC4"/>
</linearGradient>
<linearGradient id="paint33_linear_2100_15100" x1="201.397" y1="207.043" x2="137.625" y2="289.705" gradientUnits="userSpaceOnUse">
<stop offset="0.0032" stop-color="#70AEAB"/>
<stop offset="1" stop-color="#678EC4"/>
</linearGradient>
<linearGradient id="paint34_linear_2100_15100" x1="145.253" y1="295.59" x2="204.572" y2="218.7" gradientUnits="userSpaceOnUse">
<stop offset="0.0032" stop-color="#70AEAB"/>
<stop offset="1" stop-color="#678EC4"/>
</linearGradient>
<linearGradient id="paint35_linear_2100_15100" x1="135.144" y1="325.847" x2="167.36" y2="325.847" gradientUnits="userSpaceOnUse">
<stop offset="0.011" stop-color="#CFA08E"/>
<stop offset="1" stop-color="#D26A8F"/>
</linearGradient>
<linearGradient id="paint36_linear_2100_15100" x1="150.179" y1="293.936" x2="180.95" y2="306.075" gradientUnits="userSpaceOnUse">
<stop offset="0.0032" stop-color="#70AEAB"/>
<stop offset="1" stop-color="#678EC4"/>
</linearGradient>
<linearGradient id="paint37_linear_2100_15100" x1="150.179" y1="293.936" x2="180.95" y2="306.075" gradientUnits="userSpaceOnUse">
<stop offset="0.0032" stop-color="#70AEAB"/>
<stop offset="1" stop-color="#678EC4"/>
</linearGradient>
<linearGradient id="paint38_linear_2100_15100" x1="197.197" y1="333.46" x2="170.295" y2="287.718" gradientUnits="userSpaceOnUse">
<stop offset="0.0032" stop-color="#70AEAB"/>
<stop offset="1" stop-color="#678EC4"/>
</linearGradient>
<linearGradient id="paint39_linear_2100_15100" x1="50.4493" y1="363.311" x2="676.553" y2="363.311" gradientUnits="userSpaceOnUse">
<stop stop-color="#DEDDE9"/>
<stop offset="0.994" stop-color="#B0BFE8"/>
</linearGradient>
<linearGradient id="paint40_linear_2100_15100" x1="573.813" y1="167.101" x2="626.433" y2="167.101" gradientUnits="userSpaceOnUse">
<stop offset="0.0091" stop-color="#A46A6D"/>
<stop offset="1" stop-color="#B28E8E"/>
</linearGradient>
<linearGradient id="paint41_linear_2100_15100" x1="573.813" y1="167.101" x2="626.433" y2="167.101" gradientUnits="userSpaceOnUse">
<stop offset="0.0091" stop-color="#A46A6D"/>
<stop offset="1" stop-color="#B28E8E"/>
</linearGradient>
<linearGradient id="paint42_linear_2100_15100" x1="551.392" y1="258.563" x2="634.148" y2="258.563" gradientUnits="userSpaceOnUse">
<stop stop-color="#3D365F"/>
<stop offset="0.9985" stop-color="#58467F"/>
</linearGradient>
<linearGradient id="paint43_linear_2100_15100" x1="554.722" y1="245.353" x2="647.023" y2="245.353" gradientUnits="userSpaceOnUse">
<stop stop-color="#3D365F"/>
<stop offset="0.9985" stop-color="#58467F"/>
</linearGradient>
<linearGradient id="paint44_linear_2100_15100" x1="551.403" y1="181.859" x2="595.627" y2="181.859" gradientUnits="userSpaceOnUse">
<stop stop-color="#D88B2F"/>
<stop offset="1" stop-color="#E6BD4A"/>
</linearGradient>
<linearGradient id="paint45_linear_2100_15100" x1="571.946" y1="171.921" x2="633.156" y2="171.921" gradientUnits="userSpaceOnUse">
<stop offset="0.0091" stop-color="#A46A6D"/>
<stop offset="1" stop-color="#B28E8E"/>
</linearGradient>
<linearGradient id="paint46_linear_2100_15100" x1="441.325" y1="154.642" x2="499.177" y2="154.642" gradientUnits="userSpaceOnUse">
<stop stop-color="#3D365F"/>
<stop offset="0.9985" stop-color="#58467F"/>
</linearGradient>
<linearGradient id="paint47_linear_2100_15100" x1="451.851" y1="154.642" x2="480.674" y2="154.642" gradientUnits="userSpaceOnUse">
<stop offset="0.0019" stop-color="#E5B5BB"/>
<stop offset="1" stop-color="#EBD1BD"/>
</linearGradient>
<linearGradient id="paint48_linear_2100_15100" x1="441.362" y1="159.857" x2="499.147" y2="159.857" gradientUnits="userSpaceOnUse">
<stop stop-color="#3D365F"/>
<stop offset="0.9985" stop-color="#58467F"/>
</linearGradient>
<linearGradient id="paint49_linear_2100_15100" x1="451.877" y1="159.857" x2="480.666" y2="159.857" gradientUnits="userSpaceOnUse">
<stop offset="0.0019" stop-color="#E5B5BB"/>
<stop offset="1" stop-color="#EBD1BD"/>
</linearGradient>
<linearGradient id="paint50_linear_2100_15100" x1="441.364" y1="145.342" x2="499.149" y2="145.342" gradientUnits="userSpaceOnUse">
<stop stop-color="#3D365F"/>
<stop offset="0.9985" stop-color="#58467F"/>
</linearGradient>
<linearGradient id="paint51_linear_2100_15100" x1="441.328" y1="154.001" x2="499.176" y2="154.001" gradientUnits="userSpaceOnUse">
<stop stop-color="#3D365F"/>
<stop offset="0.9985" stop-color="#58467F"/>
</linearGradient>
<linearGradient id="paint52_linear_2100_15100" x1="451.854" y1="154.001" x2="480.674" y2="154.001" gradientUnits="userSpaceOnUse">
<stop offset="0.0019" stop-color="#E5B5BB"/>
<stop offset="1" stop-color="#EBD1BD"/>
</linearGradient>
<linearGradient id="paint53_linear_2100_15100" x1="451.873" y1="157.906" x2="483.528" y2="152.389" gradientUnits="userSpaceOnUse">
<stop stop-color="#3D365F"/>
<stop offset="0.9985" stop-color="#58467F"/>
</linearGradient>
<linearGradient id="paint54_linear_2100_15100" x1="441.364" y1="146.201" x2="499.149" y2="146.201" gradientUnits="userSpaceOnUse">
<stop stop-color="#3D365F"/>
<stop offset="0.9985" stop-color="#58467F"/>
</linearGradient>
<linearGradient id="paint55_linear_2100_15100" x1="451.881" y1="146.201" x2="480.67" y2="146.201" gradientUnits="userSpaceOnUse">
<stop offset="0.0019" stop-color="#E5B5BB"/>
<stop offset="1" stop-color="#EBD1BD"/>
</linearGradient>
<linearGradient id="paint56_linear_2100_15100" x1="441.363" y1="152.707" x2="499.148" y2="152.707" gradientUnits="userSpaceOnUse">
<stop stop-color="#3D365F"/>
<stop offset="0.9985" stop-color="#58467F"/>
</linearGradient>
<linearGradient id="paint57_linear_2100_15100" x1="451.878" y1="152.707" x2="480.666" y2="152.707" gradientUnits="userSpaceOnUse">
<stop offset="0.0019" stop-color="#E5B5BB"/>
<stop offset="1" stop-color="#EBD1BD"/>
</linearGradient>
<linearGradient id="paint58_linear_2100_15100" x1="-291.606" y1="289.779" x2="742.602" y2="109.313" gradientUnits="userSpaceOnUse">
<stop stop-color="#3D365F"/>
<stop offset="0.9985" stop-color="#58467F"/>
</linearGradient>
<linearGradient id="paint59_linear_2100_15100" x1="399.693" y1="298.802" x2="486.429" y2="298.802" gradientUnits="userSpaceOnUse">
<stop offset="0.0019" stop-color="#E5B5BB"/>
<stop offset="1" stop-color="#EBD1BD"/>
</linearGradient>
<linearGradient id="paint60_linear_2100_15100" x1="424.778" y1="298.604" x2="497.828" y2="298.604" gradientUnits="userSpaceOnUse">
<stop offset="0.0019" stop-color="#E5B5BB"/>
<stop offset="1" stop-color="#EBD1BD"/>
</linearGradient>
<linearGradient id="paint61_linear_2100_15100" x1="459.459" y1="202.372" x2="499.6" y2="229.408" gradientUnits="userSpaceOnUse">
<stop offset="0.0068" stop-color="#67A1C2"/>
<stop offset="0.9951" stop-color="#3E5B97"/>
</linearGradient>
<linearGradient id="paint62_linear_2100_15100" x1="459.454" y1="181.352" x2="483.807" y2="181.352" gradientUnits="userSpaceOnUse">
<stop offset="0.0019" stop-color="#E5B5BB"/>
<stop offset="1" stop-color="#EBD1BD"/>
</linearGradient>
<linearGradient id="paint63_linear_2100_15100" x1="483.357" y1="189.21" x2="500.822" y2="189.21" gradientUnits="userSpaceOnUse">
<stop offset="0.0068" stop-color="#67A1C2"/>
<stop offset="0.9951" stop-color="#3E5B97"/>
</linearGradient>
<linearGradient id="paint64_linear_2100_15100" x1="444.43" y1="186.277" x2="428.743" y2="181.562" gradientUnits="userSpaceOnUse">
<stop offset="0.0068" stop-color="#67A1C2"/>
<stop offset="0.9951" stop-color="#3E5B97"/>
</linearGradient>
<linearGradient id="paint65_linear_2100_15100" x1="431.036" y1="221.799" x2="466.079" y2="221.799" gradientUnits="userSpaceOnUse">
<stop stop-color="#DEDDE9"/>
<stop offset="0.994" stop-color="#B0BFE8"/>
</linearGradient>
<linearGradient id="paint66_linear_2100_15100" x1="462.3" y1="211.817" x2="500.852" y2="211.817" gradientUnits="userSpaceOnUse">
<stop offset="0.0019" stop-color="#E5B5BB"/>
<stop offset="1" stop-color="#EBD1BD"/>
</linearGradient>
<linearGradient id="paint67_linear_2100_15100" x1="397.88" y1="291.168" x2="501.599" y2="291.168" gradientUnits="userSpaceOnUse">
<stop offset="0.007" stop-color="#CA8194"/>
<stop offset="1" stop-color="#B7496A"/>
</linearGradient>
<linearGradient id="paint68_linear_2100_15100" x1="463.047" y1="152.194" x2="466.618" y2="152.194" gradientUnits="userSpaceOnUse">
<stop stop-color="#3D365F"/>
<stop offset="0.9985" stop-color="#58467F"/>
</linearGradient>
<linearGradient id="paint69_linear_2100_15100" x1="452.98" y1="154.222" x2="456.273" y2="154.222" gradientUnits="userSpaceOnUse">
<stop stop-color="#3D365F"/>
<stop offset="0.9985" stop-color="#58467F"/>
</linearGradient>
<linearGradient id="paint70_linear_2100_15100" x1="140.91" y1="277.749" x2="66.6028" y2="331.632" gradientUnits="userSpaceOnUse">
<stop offset="0.0068" stop-color="#67A1C2"/>
<stop offset="0.9951" stop-color="#3E5B97"/>
</linearGradient>
<linearGradient id="paint71_linear_2100_15100" x1="61.0347" y1="230.564" x2="112.767" y2="230.564" gradientUnits="userSpaceOnUse">
<stop stop-color="#3D365F"/>
<stop offset="0.9985" stop-color="#58467F"/>
</linearGradient>
<linearGradient id="paint72_linear_2100_15100" x1="92.7867" y1="180.609" x2="144.166" y2="180.609" gradientUnits="userSpaceOnUse">
<stop offset="0.0091" stop-color="#A46A6D"/>
<stop offset="1" stop-color="#B28E8E"/>
</linearGradient>
<linearGradient id="paint73_linear_2100_15100" x1="104.73" y1="167.807" x2="143.593" y2="167.807" gradientUnits="userSpaceOnUse">
<stop stop-color="#3D365F"/>
<stop offset="0.9985" stop-color="#58467F"/>
</linearGradient>
<linearGradient id="paint74_linear_2100_15100" x1="114.76" y1="170.537" x2="122.213" y2="170.537" gradientUnits="userSpaceOnUse">
<stop offset="0.0091" stop-color="#A46A6D"/>
<stop offset="1" stop-color="#B28E8E"/>
</linearGradient>
<linearGradient id="paint75_linear_2100_15100" x1="107.496" y1="223.893" x2="168.285" y2="223.893" gradientUnits="userSpaceOnUse">
<stop offset="0.0091" stop-color="#A46A6D"/>
<stop offset="1" stop-color="#B28E8E"/>
</linearGradient>
<linearGradient id="paint76_linear_2100_15100" x1="85.4458" y1="200.944" x2="126.652" y2="200.944" gradientUnits="userSpaceOnUse">
<stop stop-color="#3D365F"/>
<stop offset="0.9985" stop-color="#58467F"/>
</linearGradient>
<linearGradient id="paint77_linear_2100_15100" x1="164.675" y1="233.525" x2="191.508" y2="233.525" gradientUnits="userSpaceOnUse">
<stop offset="0.0091" stop-color="#A46A6D"/>
<stop offset="1" stop-color="#B28E8E"/>
</linearGradient>
<linearGradient id="paint78_linear_2100_15100" x1="132.75" y1="182.488" x2="139.367" y2="182.488" gradientUnits="userSpaceOnUse">
<stop offset="0.0091" stop-color="#A46A6D"/>
<stop offset="1" stop-color="#B28E8E"/>
</linearGradient>
<linearGradient id="paint79_linear_2100_15100" x1="158.485" y1="295.058" x2="613.514" y2="295.058" gradientUnits="userSpaceOnUse">
<stop offset="0.007" stop-color="#CA8194"/>
<stop offset="1" stop-color="#B7496A"/>
</linearGradient>
<linearGradient id="paint80_linear_2100_15100" x1="158.485" y1="295.058" x2="613.514" y2="295.058" gradientUnits="userSpaceOnUse">
<stop offset="0.007" stop-color="#CA8194"/>
<stop offset="1" stop-color="#B7496A"/>
</linearGradient>
<linearGradient id="paint81_linear_2100_15100" x1="290.418" y1="117.591" x2="333.679" y2="117.591" gradientUnits="userSpaceOnUse">
<stop stop-color="#3D365F"/>
<stop offset="0.9985" stop-color="#58467F"/>
</linearGradient>
<linearGradient id="paint82_linear_2100_15100" x1="289.048" y1="323.544" x2="307.221" y2="323.544" gradientUnits="userSpaceOnUse">
<stop offset="0.0019" stop-color="#E5B5BB"/>
<stop offset="1" stop-color="#EBD1BD"/>
</linearGradient>
<linearGradient id="paint83_linear_2100_15100" x1="317.972" y1="324.515" x2="336.145" y2="324.515" gradientUnits="userSpaceOnUse">
<stop offset="0.0019" stop-color="#E5B5BB"/>
<stop offset="1" stop-color="#EBD1BD"/>
</linearGradient>
<linearGradient id="paint84_linear_2100_15100" x1="266.813" y1="270.596" x2="342.604" y2="270.596" gradientUnits="userSpaceOnUse">
<stop offset="0.0068" stop-color="#67A1C2"/>
<stop offset="0.9951" stop-color="#3E5B97"/>
</linearGradient>
<linearGradient id="paint85_linear_2100_15100" x1="258.317" y1="177.224" x2="344.442" y2="177.224" gradientUnits="userSpaceOnUse">
<stop offset="0.0019" stop-color="#E5B5BB"/>
<stop offset="1" stop-color="#EBD1BD"/>
</linearGradient>
<linearGradient id="paint86_linear_2100_15100" x1="238.285" y1="184.307" x2="364.749" y2="184.307" gradientUnits="userSpaceOnUse">
<stop stop-color="#D88B2F"/>
<stop offset="1" stop-color="#E6BD4A"/>
</linearGradient>
<linearGradient id="paint87_linear_2100_15100" x1="271.98" y1="203.451" x2="332.078" y2="203.451" gradientUnits="userSpaceOnUse">
<stop stop-color="#DEDDE9"/>
<stop offset="0.994" stop-color="#B0BFE8"/>
</linearGradient>
<linearGradient id="paint88_linear_2100_15100" x1="294.703" y1="120.104" x2="328.065" y2="120.104" gradientUnits="userSpaceOnUse">
<stop offset="0.0019" stop-color="#E5B5BB"/>
<stop offset="1" stop-color="#EBD1BD"/>
</linearGradient>
<linearGradient id="paint89_linear_2100_15100" x1="317.988" y1="117.313" x2="322.318" y2="117.313" gradientUnits="userSpaceOnUse">
<stop stop-color="#3D365F"/>
<stop offset="0.9985" stop-color="#58467F"/>
</linearGradient>
<linearGradient id="paint90_linear_2100_15100" x1="302.713" y1="111.911" x2="307.609" y2="111.911" gradientUnits="userSpaceOnUse">
<stop stop-color="#3D365F"/>
<stop offset="0.9985" stop-color="#58467F"/>
</linearGradient>
<linearGradient id="paint91_linear_2100_15100" x1="291.856" y1="117.493" x2="297.041" y2="117.493" gradientUnits="userSpaceOnUse">
<stop offset="0.0019" stop-color="#E5B5BB"/>
<stop offset="1" stop-color="#EBD1BD"/>
</linearGradient>
<linearGradient id="paint92_linear_2100_15100" x1="290.565" y1="104.357" x2="339.164" y2="104.357" gradientUnits="userSpaceOnUse">
<stop stop-color="#3D365F"/>
<stop offset="0.9985" stop-color="#58467F"/>
</linearGradient>
<linearGradient id="paint93_linear_2100_15100" x1="322.894" y1="120.099" x2="329.448" y2="120.099" gradientUnits="userSpaceOnUse">
<stop stop-color="#3D365F"/>
<stop offset="0.9985" stop-color="#58467F"/>
</linearGradient>
<linearGradient id="paint94_linear_2100_15100" x1="291.8" y1="131.516" x2="323.909" y2="131.516" gradientUnits="userSpaceOnUse">
<stop stop-color="#3D365F"/>
<stop offset="0.9985" stop-color="#58467F"/>
</linearGradient>
<linearGradient id="paint95_linear_2100_15100" x1="592.524" y1="124.181" x2="597.423" y2="124.181" gradientUnits="userSpaceOnUse">
<stop offset="0.0091" stop-color="#A46A6D"/>
<stop offset="1" stop-color="#B28E8E"/>
</linearGradient>
</defs>
</svg>
