<svg width="127" height="40" viewBox="0 0 127 40" fill="none" xmlns="http://www.w3.org/2000/svg">
<g id="Airbnb svg" clip-path="url(#clip0_1_319)">
<path id="Vector" d="M66.9323 10.05C66.9323 11.4915 65.7817 12.6527 64.3534 12.6527C62.9251 12.6527 61.7745 11.4915 61.7745 10.05C61.7745 8.60861 62.8854 7.44745 64.3534 7.44745C65.8214 7.48749 66.9323 8.64865 66.9323 10.05ZM56.2993 15.2953C56.2993 15.5355 56.2993 15.9359 56.2993 15.9359C56.2993 15.9359 55.0694 14.3343 52.4509 14.3343C48.1263 14.3343 44.7539 17.6577 44.7539 22.2623C44.7539 26.8268 48.0866 30.1902 52.4509 30.1902C55.1091 30.1902 56.2993 28.5485 56.2993 28.5485V29.2292C56.2993 29.5495 56.5374 29.7898 56.8548 29.7898H60.0685V14.7347C60.0685 14.7347 57.1325 14.7347 56.8548 14.7347C56.5374 14.7347 56.2993 15.015 56.2993 15.2953ZM56.2993 24.9449C55.7042 25.8258 54.514 26.5866 53.0857 26.5866C50.5465 26.5866 48.6024 24.985 48.6024 22.2623C48.6024 19.5395 50.5465 17.9379 53.0857 17.9379C54.4743 17.9379 55.7439 18.7387 56.2993 19.5796V24.9449ZM62.449 14.7347H66.2578V29.7898H62.449V14.7347ZM119.343 14.3343C116.725 14.3343 115.495 15.9359 115.495 15.9359V7.48749H111.686V29.7898C111.686 29.7898 114.622 29.7898 114.899 29.7898C115.217 29.7898 115.455 29.5095 115.455 29.2292V28.5485C115.455 28.5485 116.685 30.1902 119.303 30.1902C123.628 30.1902 127 26.8268 127 22.2623C127 17.6977 123.628 14.3343 119.343 14.3343ZM118.708 26.5465C117.24 26.5465 116.09 25.7858 115.495 24.9049V19.5395C116.09 18.7387 117.359 17.8979 118.708 17.8979C121.247 17.8979 123.192 19.4995 123.192 22.2222C123.192 24.9449 121.247 26.5465 118.708 26.5465ZM109.702 20.8609V29.8298H105.893V21.3013C105.893 18.8188 105.1 17.8178 102.957 17.8178C101.807 17.8178 100.616 18.4184 99.8626 19.2993V29.7898H96.0538V14.7347H99.0691C99.3865 14.7347 99.6246 15.015 99.6246 15.2953V15.9359C100.735 14.7748 102.203 14.3343 103.671 14.3343C105.338 14.3343 106.726 14.8148 107.837 15.7758C109.186 16.8969 109.702 18.3383 109.702 20.8609ZM86.8095 14.3343C84.1909 14.3343 82.961 15.9359 82.961 15.9359V7.48749H79.1522V29.7898C79.1522 29.7898 82.0882 29.7898 82.3659 29.7898C82.6833 29.7898 82.9213 29.5095 82.9213 29.2292V28.5485C82.9213 28.5485 84.1513 30.1902 86.7698 30.1902C91.0944 30.1902 94.4668 26.8268 94.4668 22.2623C94.5065 17.6977 91.1341 14.3343 86.8095 14.3343ZM86.1747 26.5465C84.7067 26.5465 83.5561 25.7858 82.961 24.9049V19.5395C83.5561 18.7387 84.8257 17.8979 86.1747 17.8979C88.7139 17.8979 90.658 19.4995 90.658 22.2222C90.658 24.9449 88.7139 26.5465 86.1747 26.5465ZM75.8592 14.3343C77.0098 14.3343 77.6049 14.5345 77.6049 14.5345V18.0981C77.6049 18.0981 74.4309 17.017 72.4471 19.2993V29.8298H68.6383V14.7347C68.6383 14.7347 71.5743 14.7347 71.852 14.7347C72.1694 14.7347 72.4074 15.015 72.4074 15.2953V15.9359C73.1216 15.0951 74.6689 14.3343 75.8592 14.3343ZM36.3031 28.4284C36.1047 27.9479 35.9063 27.4274 35.708 26.987C35.3906 26.2663 35.0732 25.5856 34.7954 24.9449L34.7558 24.9049C32.0182 18.8989 29.0822 12.8128 25.9876 6.80681L25.8685 6.56657C25.5511 5.96597 25.2337 5.32533 24.9163 4.68468C24.5196 3.96396 24.1228 3.2032 23.488 2.48248C22.2184 0.880881 20.3934 0 18.4493 0C16.4655 0 14.6802 0.880881 13.3709 2.4024C12.7758 3.12312 12.3393 3.88388 11.9426 4.6046C11.6252 5.24525 11.3078 5.88589 10.9904 6.48649L10.8714 6.72673C7.81637 12.7327 4.84074 18.8188 2.10316 24.8248L2.06348 24.9049C1.78576 25.5455 1.46836 26.2262 1.15095 26.9469C0.952579 27.3874 0.754203 27.8679 0.555828 28.3884C0.0400517 29.8699 -0.118649 31.2713 0.0797268 32.7127C0.516153 35.7157 2.49991 38.2382 5.23749 39.3594C6.26904 39.7998 7.34027 40 8.45117 40C8.76857 40 9.16533 39.96 9.48273 39.9199C10.792 39.7598 12.141 39.3193 13.4502 38.5586C15.0769 37.6376 16.6242 36.3163 18.3699 34.3944C20.1157 36.3163 21.7027 37.6376 23.2897 38.5586C24.5989 39.3193 25.9479 39.7598 27.2572 39.9199C27.5746 39.96 27.9713 40 28.2887 40C29.3996 40 30.5105 39.7998 31.5024 39.3594C34.2797 38.2382 36.2237 35.6757 36.6602 32.7127C36.9776 31.3113 36.8189 29.9099 36.3031 28.4284ZM18.4096 30.5105C16.2672 27.7878 14.8785 25.2252 14.4024 23.0631C14.2041 22.1421 14.1644 21.3413 14.2834 20.6206C14.3628 19.98 14.6008 19.4194 14.9182 18.9389C15.672 17.8579 16.9416 17.1772 18.4096 17.1772C19.8776 17.1772 21.1869 17.8178 21.901 18.9389C22.2184 19.4194 22.4565 19.98 22.5358 20.6206C22.6549 21.3413 22.6152 22.1822 22.4168 23.0631C21.9407 25.1852 20.5521 27.7477 18.4096 30.5105ZM34.24 32.3924C33.9623 34.4745 32.5736 36.2763 30.6296 37.0771C29.6774 37.4775 28.6458 37.5976 27.6142 37.4775C26.6224 37.3574 25.6305 37.037 24.5989 36.4364C23.1706 35.6356 21.7423 34.3944 20.076 32.5526C22.6945 29.3093 24.2815 26.3463 24.8767 23.7037C25.1544 22.4625 25.1941 21.3413 25.075 20.3003C24.9163 19.2993 24.5593 18.3784 24.0038 17.5776C22.7739 15.7758 20.7108 14.7347 18.4096 14.7347C16.1085 14.7347 14.0454 15.8158 12.8154 17.5776C12.26 18.3784 11.9029 19.2993 11.7442 20.3003C11.5855 21.3413 11.6252 22.5025 11.9426 23.7037C12.5377 26.3463 14.1644 29.3493 16.7433 32.5926C15.1166 34.4344 13.6486 35.6757 12.2203 36.4765C11.1888 37.0771 10.1969 37.3974 9.205 37.5175C8.13377 37.6376 7.10222 37.4775 6.18969 37.1171C4.24561 36.3163 2.85698 34.5145 2.57926 32.4324C2.46023 31.4314 2.53958 30.4304 2.93633 29.3093C3.05536 28.9089 3.25373 28.5085 3.45211 28.028C3.72984 27.3874 4.04724 26.7067 4.36464 26.026L4.40431 25.9459C7.14189 19.98 10.0779 13.8939 13.1328 7.96797L13.2519 7.72773C13.5693 7.12713 13.8867 6.48649 14.2041 5.88589C14.5215 5.24524 14.8785 4.64464 15.315 4.12412C16.1481 3.16316 17.259 2.64264 18.489 2.64264C19.7189 2.64264 20.8298 3.16316 21.663 4.12412C22.0994 4.64464 22.4565 5.24524 22.7739 5.88589C23.0913 6.48649 23.4087 7.12713 23.7261 7.72773L23.8451 7.96797C26.8604 13.9339 29.7964 20.02 32.534 25.986V26.026C32.8514 26.6667 33.1291 27.3874 33.4465 28.028C33.6449 28.5085 33.8432 28.9089 33.9623 29.3093C34.2797 30.3503 34.3987 31.3514 34.24 32.3924Z" fill="#FF385C"/>
</g>
<defs>
<clipPath id="clip0_1_319">
<rect width="127" height="40" fill="white"/>
</clipPath>
</defs>
</svg>
