<svg width="200" height="40" viewBox="0 0 200 40" fill="none" xmlns="http://www.w3.org/2000/svg">
<g id="Binance svg" clip-path="url(#clip0_1_346)">
<g id="Group">
<path id="Vector" d="M9.09091 20L4.58568 24.48L0 20L4.58568 15.44L9.09091 20ZM20.1126 9.04L27.9163 16.8L32.502 12.24L20.1126 0L7.8037 12.24L12.3894 16.8L20.1126 9.04ZM35.6396 15.44L31.1344 20L35.72 24.56L40.2253 20L35.6396 15.44ZM20.1126 30.96L12.3089 23.2L7.72325 27.76L20.1126 40L32.4216 27.76L27.9163 23.2L20.1126 30.96ZM20.1126 24.48L24.6983 19.92L20.1126 15.44L15.5269 20L20.1126 24.48ZM68.0611 24.96C68.0611 21.92 66.4521 20.48 63.9582 19.52C65.5672 18.64 66.8544 17.28 66.8544 14.8V14.72C66.8544 11.28 64.0386 9.04 59.6138 9.04H49.3162V30.96H59.7747C64.7627 30.96 68.0611 28.96 68.0611 24.96ZM61.9469 15.6C61.9469 17.28 60.5792 17.92 58.4875 17.92H53.9823V13.28H58.8093C60.8206 13.28 61.9469 14.08 61.9469 15.6ZM63.2341 24.32C63.2341 25.92 61.9469 26.72 59.8552 26.72H54.0627V21.92H59.6943C62.1078 21.92 63.2341 22.8 63.2341 24.32ZM78.1979 30.96V9.04H73.2904V30.96H78.1979ZM104.264 30.96V9.04H99.4368V22.56L89.1392 9.04H84.6339V30.96H89.461V17.04L100.161 30.96H104.264ZM131.134 30.96L121.641 8.88H117.136L107.643 30.96H112.631L114.642 26H123.974L125.986 30.96H131.134ZM122.285 21.76H116.412L119.389 14.64L122.285 21.76ZM154.304 30.96V9.04H149.477V22.56L139.179 9.04H134.674V30.96H139.501V17.04L150.201 30.96H154.304ZM179.324 27.44L176.187 24.32C174.417 25.92 172.888 26.88 170.394 26.88C166.613 26.88 163.958 23.76 163.958 20V19.92C163.958 16.16 166.613 13.12 170.394 13.12C172.566 13.12 174.336 14.08 176.026 15.6L179.163 12.08C177.152 10.08 174.658 8.72 170.475 8.72C163.717 8.72 158.97 13.84 158.97 20.08V20C158.97 26.32 163.797 31.28 170.314 31.28C174.497 31.36 177.072 29.84 179.324 27.44ZM200 30.96V26.64H188.013V22H198.391V17.68H188.013V13.2H199.839V8.88H183.186V30.8L200 30.96Z" fill="#F0B90B"/>
</g>
</g>
<defs>
<clipPath id="clip0_1_346">
<rect width="200" height="40" fill="white"/>
</clipPath>
</defs>
</svg>
