<svg width="9" height="13" viewBox="0 0 9 13" fill="none" xmlns="http://www.w3.org/2000/svg">
<path d="M8.57177 5.45904C8.73423 4.265 7.81856 3.64165 6.56322 3.22023L6.95312 1.60477L5.96066 1.36772L5.58258 2.94806C5.3197 2.8866 5.05386 2.82514 4.79097 2.77247L5.16905 1.19213L4.16478 0.955078L3.77489 2.57053C3.56222 2.52078 3.34659 2.48274 3.13392 2.43299L1.76634 2.10814L1.51527 3.15292C1.51527 3.15292 2.25666 3.31388 2.23008 3.32851C2.63179 3.42801 2.70858 3.68847 2.69382 3.88748L2.25371 5.72828C2.28029 5.73999 2.31574 5.73999 2.35413 5.76632C2.31574 5.75462 2.29211 5.75462 2.25371 5.74291L1.65114 8.31828C1.60093 8.44119 1.47392 8.61678 1.19922 8.55533C1.21104 8.56703 0.469646 8.37973 0.469646 8.37973L0 9.51231L1.29374 9.81082C1.53299 9.87227 1.77225 9.92202 1.99673 9.98641L1.60684 11.6165L2.5993 11.8535L2.98919 10.2381C3.26684 10.3113 3.52973 10.3756 3.78079 10.4371L3.3909 12.0408L4.38336 12.2779L4.77325 10.6478C6.4687 10.9463 7.73586 10.8088 8.24981 9.27818C8.66333 8.05781 8.21141 7.36129 7.30757 6.90182C7.9692 6.75257 8.44771 6.32822 8.57177 5.45904ZM6.33874 8.62849C6.04927 9.84886 3.96688 9.2138 3.29933 9.05284L3.81328 6.88719C4.49265 7.05108 6.64002 7.34959 6.33874 8.62849ZM6.61344 5.45904C6.35055 6.56527 4.6167 6.03264 4.05254 5.89509L4.53105 3.93138C5.0834 4.066 6.89109 4.30305 6.61344 5.45904Z" fill="#F7931A"/>
</svg>
