<svg width="40" height="41" viewBox="0 0 40 41" fill="none" xmlns="http://www.w3.org/2000/svg">
<g clip-path="url(#clip0_2949_20923)">
<path d="M39.4017 25.3365C36.7295 36.0565 25.8684 42.5731 15.1637 39.9008C4.44342 37.2286 -2.07315 26.3679 0.599197 15.6634C3.27138 4.94342 14.1167 -1.57315 24.837 1.0992C35.5417 3.75576 42.074 14.6164 39.4017 25.3365Z" fill="url(#paint0_linear_2949_20923)"/>
<path d="M29.5234 18.0078C29.9141 15.3516 27.8984 13.9141 25.1172 12.9609L26.0234 9.35156L23.8359 8.80469L22.9609 12.3203C22.3828 12.1797 21.7891 12.0391 21.1953 11.9141L22.0703 8.38281L19.8828 7.83594L18.9922 11.4297C18.5078 11.3203 18.0391 11.2109 17.5859 11.1016V11.0859L14.5547 10.3359L13.9766 12.6797C13.9766 12.6797 15.6016 13.0547 15.5703 13.0703C16.4609 13.2891 16.6172 13.8828 16.5859 14.3516L15.5547 18.4609C15.6172 18.4766 15.6953 18.4922 15.7891 18.5391C15.7109 18.5234 15.6328 18.5078 15.5547 18.4766L14.1172 24.2266C14.0078 24.4922 13.7266 24.8984 13.1172 24.7422C13.1328 24.7734 11.5234 24.3516 11.5234 24.3516L10.4297 26.8672L13.2891 27.5859C13.8203 27.7266 14.3359 27.8516 14.8516 27.9922L13.9453 31.6328L16.1328 32.1797L17.0391 28.5703C17.6328 28.7266 18.2266 28.8828 18.7891 29.0234L17.8984 32.6172L20.0859 33.1641L20.9922 29.5234C24.7422 30.2266 27.5547 29.9453 28.7266 26.5547C29.6797 23.8359 28.6797 22.2578 26.7109 21.2266C28.1641 20.8984 29.2422 19.9453 29.5234 18.0078ZM24.5078 25.0391C23.8359 27.7578 19.2422 26.2891 17.7578 25.9141L18.9609 21.0859C20.4453 21.4609 25.2266 22.1953 24.5078 25.0391ZM25.1953 17.9609C24.5703 20.4453 20.7578 19.1797 19.5234 18.8672L20.6172 14.4922C21.8516 14.8047 25.8359 15.3828 25.1953 17.9609Z" fill="white"/>
</g>
<defs>
<linearGradient id="paint0_linear_2949_20923" x1="1998.92" y1="-0.459999" x2="1998.92" y2="4000.1" gradientUnits="userSpaceOnUse">
<stop stop-color="#F9AA4B"/>
<stop offset="1" stop-color="#F7931A"/>
</linearGradient>
<clipPath id="clip0_2949_20923">
<rect width="40" height="40" fill="white" transform="translate(0 0.5)"/>
</clipPath>
</defs>
</svg>
