<svg width="41" height="41" viewBox="0 0 41 41" fill="none" xmlns="http://www.w3.org/2000/svg">
<g id="fluent:brain-circuit-20-filled">
<path id="Vector" d="M12.5681 5.72528C13.9661 4.66649 15.6728 4.09542 17.4266 4.09963C17.9186 4.09963 18.3101 4.35588 18.5377 4.53218C18.7919 4.73308 19.0297 4.98933 19.2429 5.24558C19.394 5.42919 19.4767 5.65965 19.4766 5.89748V13.3246H17.2523C17.0105 12.6407 16.5347 12.0643 15.9091 11.6973C15.2834 11.3303 14.5481 11.1963 13.8332 11.3189C13.1183 11.4416 12.4697 11.813 12.0022 12.3676C11.5346 12.9222 11.2782 13.6243 11.2782 14.3496C11.2782 15.075 11.5346 15.777 12.0022 16.3316C12.4697 16.8862 13.1183 17.2577 13.8332 17.3803C14.5481 17.503 15.2834 17.369 15.9091 17.002C16.5347 16.6349 17.0105 16.0585 17.2523 15.3746H19.4766V34.6754C19.4767 34.8271 19.4431 34.977 19.3782 35.1142C19.3133 35.2514 19.2188 35.3725 19.1014 35.4687C18.1543 36.2436 16.8874 36.8996 15.3766 36.8996C12.9453 36.8996 11.1351 35.6737 9.96456 34.208C9.12357 33.1636 8.54755 31.9314 8.28561 30.6164C7.48915 30.404 6.75068 30.0152 6.12491 29.4786C4.99331 28.509 4.10156 26.9366 4.10156 24.5996C4.10156 23.4578 4.17741 22.4266 4.34756 21.5246H10.7641C12.0679 21.5246 13.1421 22.4984 13.3061 23.7571C12.6243 24.0038 12.0517 24.4835 11.6893 25.1114C11.3268 25.7393 11.1979 26.4751 11.3253 27.1888C11.4527 27.9025 11.8281 28.5483 12.3854 29.0121C12.9427 29.4759 13.6459 29.7278 14.3709 29.7235C15.0958 29.7192 15.796 29.4588 16.3477 28.9884C16.8993 28.518 17.2671 27.8678 17.3859 27.1526C17.5047 26.4374 17.367 25.7032 16.9971 25.0797C16.6272 24.4561 16.0489 23.9833 15.3643 23.7448C15.2779 22.5839 14.7557 21.4986 13.9025 20.7066C13.0493 19.9146 11.9282 19.4745 10.7641 19.4746H5.00561C5.31926 18.8637 5.73951 18.3471 6.28686 17.9802C6.42531 17.8885 6.57061 17.8077 6.72146 17.7383C6.13926 16.0327 6.29096 14.036 6.85266 12.4677C7.21141 11.4591 7.78131 10.5059 8.56441 9.87038C9.08101 9.45013 9.69601 9.17338 10.3684 9.12008C10.6636 7.71993 11.4918 6.56168 12.5681 5.72528ZM21.5266 29.7246H23.0641C24.2874 29.7246 25.4606 29.2387 26.3256 28.3737C27.1906 27.5086 27.6766 26.3354 27.6766 25.1121V21.3504C28.3605 21.1086 28.9369 20.6328 29.3039 20.0071C29.6709 19.3815 29.8049 18.6462 29.6823 17.9313C29.5596 17.2163 29.1882 16.5678 28.6336 16.1002C28.079 15.6327 27.3769 15.3762 26.6516 15.3762C25.9262 15.3762 25.2242 15.6327 24.6696 16.1002C24.115 16.5678 23.7435 17.2163 23.6208 17.9313C23.4982 18.6462 23.6322 19.3815 23.9992 20.0071C24.3663 20.6328 24.9427 21.1086 25.6266 21.3504V25.1121C25.6266 26.5266 24.4786 27.6746 23.0641 27.6746H21.5266V5.89748C21.5265 5.65965 21.6091 5.42919 21.7603 5.24558C21.9714 4.98933 22.2113 4.73308 22.4655 4.53218C22.691 4.35588 23.0825 4.09963 23.5766 4.09963C25.3303 4.09542 27.037 4.66649 28.4351 5.72528C29.5113 6.56168 30.3416 7.71993 30.6347 9.12008C31.3071 9.17133 31.9221 9.45013 32.4387 9.87038C33.2218 10.5059 33.7917 11.4591 34.1505 12.4677C34.7122 14.036 34.8639 16.0347 34.2817 17.7362C34.4293 17.8059 34.5748 17.8879 34.7163 17.9822C35.28 18.3574 35.7085 18.8945 36.0242 19.5279C36.6453 20.7682 36.9016 22.4984 36.9016 24.5996C36.9016 26.9387 36.0098 28.509 34.8782 29.4786C34.2524 30.0152 33.514 30.404 32.7175 30.6164C32.5125 31.7603 31.9385 33.0846 31.0386 34.208C29.8701 35.6737 28.0579 36.8996 25.6266 36.8996C24.1178 36.8996 22.8488 36.2436 21.9038 35.4687C21.786 35.3727 21.6911 35.2517 21.6259 35.1145C21.5606 34.9773 21.5267 34.8273 21.5266 34.6754V29.7246ZM14.3516 13.3246C14.0797 13.3246 13.819 13.4326 13.6268 13.6248C13.4346 13.8171 13.3266 14.0778 13.3266 14.3496C13.3266 14.6215 13.4346 14.8822 13.6268 15.0744C13.819 15.2666 14.0797 15.3746 14.3516 15.3746C14.6234 15.3746 14.8841 15.2666 15.0763 15.0744C15.2686 14.8822 15.3766 14.6215 15.3766 14.3496C15.3766 14.0778 15.2686 13.8171 15.0763 13.6248C14.8841 13.4326 14.6234 13.3246 14.3516 13.3246ZM14.3516 25.6246C14.0797 25.6246 13.819 25.7326 13.6268 25.9248C13.4346 26.1171 13.3266 26.3778 13.3266 26.6496C13.3266 26.9215 13.4346 27.1822 13.6268 27.3744C13.819 27.5666 14.0797 27.6746 14.3516 27.6746C14.6234 27.6746 14.8841 27.5666 15.0763 27.3744C15.2686 27.1822 15.3766 26.9215 15.3766 26.6496C15.3766 26.3778 15.2686 26.1171 15.0763 25.9248C14.8841 25.7326 14.6234 25.6246 14.3516 25.6246ZM26.6516 19.4746C26.9234 19.4746 27.1841 19.3666 27.3763 19.1744C27.5686 18.9822 27.6766 18.7215 27.6766 18.4496C27.6766 18.1778 27.5686 17.9171 27.3763 17.7248C27.1841 17.5326 26.9234 17.4246 26.6516 17.4246C26.3797 17.4246 26.119 17.5326 25.9268 17.7248C25.7346 17.9171 25.6266 18.1778 25.6266 18.4496C25.6266 18.7215 25.7346 18.9822 25.9268 19.1744C26.119 19.3666 26.3797 19.4746 26.6516 19.4746Z" fill="white"/>
</g>
</svg>
