<svg width="41" height="41" viewBox="0 0 41 41" fill="none" xmlns="http://www.w3.org/2000/svg">
<g id="game-icons:brainstorm">
<path id="Vector" d="M16.7768 1.68962C16.7328 1.69026 16.6875 1.69226 16.6417 1.69458H16.6043C15.7697 1.69458 15.0637 1.96701 14.7525 2.33024C14.4605 2.67073 14.3143 3.13903 14.7449 4.10445C15.2051 4.80938 15.5738 5.77392 15.8935 7.01729L14.442 7.39014C13.9011 5.28649 13.2272 4.44086 12.7704 4.23962C12.5418 4.13913 12.3175 4.13016 11.982 4.23218C11.6465 4.3342 11.2262 4.5673 10.7683 4.90531C10.0623 5.4263 9.62105 6.09968 9.64724 6.66944C9.66726 7.10802 9.93632 7.67562 10.8684 8.29862C10.9562 8.34747 11.0436 8.39512 11.1335 8.44629L11.126 8.46118C11.3752 8.61063 11.6316 8.7476 11.8943 8.87158L11.2513 10.223C10.8449 10.0302 10.4803 9.82708 10.1552 9.61487C8.97682 8.97048 8.10998 8.6878 7.64777 8.72656C7.40129 8.74714 7.25298 8.81201 7.0672 8.99675C6.88142 9.18141 6.6737 9.51645 6.48423 10.0453C6.16872 10.9253 6.11571 11.6453 6.35651 12.0372C6.54805 12.3491 7.03429 12.6847 8.18581 12.8005C8.47329 12.8064 8.77935 12.8181 9.11416 12.833V12.843C9.14619 12.843 9.1763 12.8433 9.20921 12.843L9.2217 14.3395C8.87801 14.3427 8.55689 14.3307 8.25324 14.3069C7.29502 14.301 6.7139 14.3785 6.47406 14.4996C6.32384 14.5754 6.26698 14.6329 6.18378 14.8024C6.1005 14.9719 6.02186 15.2677 5.96837 15.7033C5.91912 16.1063 5.95203 16.4026 6.03604 16.6066C6.12012 16.8108 6.2412 16.9605 6.53893 17.1196C7.13471 17.4379 8.48659 17.6401 10.7482 17.4476L10.8757 18.939C9.14387 19.0863 7.84764 19.0618 6.84675 18.8138C6.77844 19.1131 6.79293 19.347 6.84915 19.5446C6.85876 19.5775 6.86973 19.6102 6.88174 19.6423C6.8827 19.6447 6.88334 19.6472 6.8843 19.6497C7.02206 19.9086 7.20904 20.1381 7.43476 20.3254C7.4362 20.3264 7.43828 20.3268 7.43972 20.3278C8.00428 20.7458 8.93094 20.9835 9.47931 20.9835H17.7922C18.762 20.9835 19.6036 20.2695 19.9295 18.9742L20.5749 16.4066L21.3709 18.9341C21.7886 20.2636 22.6591 20.9836 23.5205 20.9836H31.8334C32.3347 20.9836 33.3044 20.6676 33.883 20.1628C33.9534 20.1016 34.0202 20.0365 34.0832 19.9677C34.0945 19.9551 34.1048 19.9429 34.1157 19.9301C34.1173 19.9283 34.1194 19.927 34.1208 19.9252C34.2409 19.7719 34.3383 19.6049 34.4211 19.4248C34.4312 19.3971 34.443 19.3698 34.4511 19.342C34.5001 19.1733 34.5184 18.9966 34.486 18.7916C33.4734 19.061 32.151 19.0911 30.3671 18.9392L30.4945 17.4478C32.7562 17.6403 34.1055 17.4382 34.7012 17.12C34.9991 16.9609 35.1202 16.8111 35.2041 16.6071C35.2882 16.403 35.3236 16.1067 35.2742 15.7038C35.2208 15.268 35.1397 14.9723 35.0564 14.8029C34.9733 14.6333 34.9165 14.5759 34.7662 14.5C34.5264 14.3789 33.9453 14.3014 32.9869 14.3073C32.6834 14.331 32.3623 14.3431 32.0186 14.3398L32.0336 12.8434C32.0666 12.8437 32.0966 12.8434 32.1289 12.8434V12.8334C32.4636 12.8186 32.7695 12.8068 33.0571 12.8009C34.2086 12.6851 34.6949 12.3495 34.8864 12.0377C35.1272 11.6456 35.0742 10.9258 34.7588 10.0457C34.5693 9.51677 34.359 9.18181 34.1732 8.99715C33.9875 8.81241 33.8392 8.74754 33.5927 8.72688C33.1305 8.68804 32.2658 8.97072 31.0878 9.61519C30.7622 9.82772 30.3963 10.03 29.9892 10.2232L29.3485 8.8719C29.6113 8.74797 29.8677 8.61103 30.1168 8.46158L30.1068 8.44661C30.2017 8.39248 30.2944 8.34275 30.3871 8.29126C31.3096 7.67145 31.5757 7.10642 31.5956 6.66967C31.6217 6.09992 31.1804 5.42654 30.4745 4.90555C30.0166 4.56762 29.5964 4.33444 29.2609 4.23242C28.9253 4.1304 28.7011 4.13937 28.4726 4.23987C28.314 4.30969 28.1287 4.45968 27.932 4.7104C27.8951 4.79648 27.8559 4.88157 27.8145 4.96561L27.7669 4.94319C27.4432 5.44048 27.0994 6.21996 26.7985 7.39038L25.3495 7.01761C25.7063 5.62986 26.1225 4.58933 26.6608 3.8695C26.9678 3.06208 26.8276 2.64191 26.5607 2.33056C26.2494 1.96733 25.5435 1.6949 24.7089 1.6949H24.6721C23.9385 1.65807 23.4457 1.83472 23.038 2.14038C22.6302 2.44595 22.3025 2.91137 22.0545 3.4941C21.5584 4.65955 21.4189 6.24718 21.4189 7.4104V7.41552L21.4037 10.1406V10.1482H19.9073V10.1406L19.8923 7.41552V7.4104C19.8923 6.24726 19.7553 4.65971 19.2592 3.49418C19.0111 2.91145 18.6834 2.44595 18.2758 2.14038C17.8934 1.8537 17.4368 1.67993 16.7768 1.68986L16.7768 1.68962ZM20.683 20.8659C20.0035 21.8434 18.9783 22.4824 17.7929 22.4824H14.537L22.3948 28.9387L15.8108 29.0412L33.2204 39.7268L27.4096 31.0531L31.824 31.4335L25.7357 22.4824H23.5209C22.3684 22.4824 21.3758 21.8402 20.683 20.8658L20.683 20.8659Z" fill="white"/>
</g>
</svg>
