<svg width="101" height="100" viewBox="0 0 101 100" fill="none" xmlns="http://www.w3.org/2000/svg">
<path d="M84.2298 70.8002L86.9638 70.7442L88.3098 70.7222C88.7578 70.7222 89.2038 70.7222 89.6498 70.7122L89.5618 70.8002L89.5498 68.5102L89.6498 68.6102L86.9398 68.6002C86.0378 68.6002 85.1398 68.5782 84.2298 68.5662L84.2858 68.5122C84.2858 68.8882 84.2678 69.2642 84.2578 69.6462L84.2298 70.8002ZM84.2298 70.8002L84.2018 69.6682C84.2018 69.2862 84.1798 68.8982 84.1758 68.5102V68.4562H84.2298C85.1338 68.4462 86.0298 68.4242 86.9398 68.4222L89.6498 68.4102H89.7518V68.5102L89.7398 70.8002V70.8902H89.6498C89.1938 70.8902 88.7358 70.8902 88.2798 70.8782L86.9178 70.8562L84.2298 70.8002Z" fill="#EBEBEB"/>
<path d="M87.2542 73.68L89.9882 73.624L91.3342 73.602C91.7822 73.602 92.2282 73.602 92.6742 73.592L92.5862 73.68L92.5742 71.4L92.6742 71.5L89.9642 71.488C89.0602 71.488 88.1642 71.466 87.2542 71.454L87.3002 71.4C87.3002 71.776 87.2842 72.152 87.2742 72.534L87.2542 73.68ZM87.2542 73.68L87.2262 72.548C87.2162 72.166 87.2042 71.778 87.2002 71.39V71.336H87.2562C88.1602 71.326 89.0562 71.304 89.9662 71.304L92.6762 71.29H92.7762V71.39L92.7662 73.68V73.77H92.6782C92.2222 73.77 91.7642 73.77 91.3082 73.758L89.9462 73.736L87.2542 73.68Z" fill="#EBEBEB"/>
<path d="M81.2079 73.6816H86.6279V71.3916H81.2079V73.6816Z" fill="#EBEBEB"/>
<path d="M16.5882 39.3998L19.3202 39.3438L20.6682 39.3218C21.1162 39.3218 21.5602 39.3218 22.0082 39.3218L21.9182 39.4098V37.1198L22.0182 37.2198L19.3002 37.1998C18.3962 37.1998 17.5002 37.1758 16.5902 37.1658L16.6442 37.1118C16.6442 37.4878 16.6262 37.8638 16.6182 38.2458L16.5882 39.3998ZM16.5882 39.3998L16.5602 38.2678C16.5602 37.8838 16.5362 37.4978 16.5322 37.1098V37.0558H16.5882C17.4902 37.0458 18.3882 37.0238 19.2982 37.0218L22.0082 37.0098H22.1082V37.1098L22.1002 39.3998V39.4898H22.0122C21.5542 39.4898 21.0982 39.4898 20.6422 39.4778L19.2782 39.4558L16.5882 39.3998Z" fill="#EBEBEB"/>
<path d="M19.6103 42.2861H25.0303V39.9961H19.6103V42.2861Z" fill="#EBEBEB"/>
<path d="M13.5638 42.286L16.2998 42.23L17.6458 42.208C18.0938 42.208 18.5398 42.208 18.9858 42.208L18.8958 42.296V40.006L18.9958 40.106L16.2858 40.094C15.3818 40.094 14.4858 40.07 13.5758 40.06L13.6298 40.006C13.6298 40.382 13.6138 40.758 13.6038 41.14L13.5638 42.286ZM13.5638 42.286L13.5358 41.154C13.5258 40.77 13.5138 40.384 13.5098 39.996V39.942H13.5658C14.4698 39.932 15.3658 39.91 16.2758 39.908L18.9858 39.896H19.0858V39.996V42.286V42.376H18.9978C18.5418 42.376 18.0838 42.376 17.6278 42.364L16.2638 42.342L13.5638 42.286Z" fill="#EBEBEB"/>
<path d="M11.3486 73.6821H16.7686V71.3921H11.3486V73.6821Z" fill="#EBEBEB"/>
<path d="M11.3498 11.6918L14.0818 11.6358L15.4298 11.6138C15.8778 11.6138 16.3218 11.6138 16.7698 11.6138L16.6798 11.7018L16.6698 9.3998L16.7698 9.4998L14.0598 9.4898C13.1558 9.4898 12.2598 9.4658 11.3498 9.4558L11.4038 9.4018C11.4038 9.7758 11.3858 10.1538 11.3778 10.5358L11.3498 11.6918ZM11.3498 11.6918L11.3198 10.5578C11.3118 10.1758 11.2998 9.7998 11.2998 9.3998V9.3458H11.3558C12.2578 9.3358 13.1558 9.3138 14.0658 9.3118L16.7758 9.2998H16.8758V9.3998L16.8638 11.6898V11.7798H16.7758C16.3178 11.7798 15.8618 11.7798 15.4058 11.7678L14.0418 11.7458L11.3498 11.6918Z" fill="#EBEBEB"/>
<path d="M8.32609 14.5801H13.7461V12.2901H8.32609V14.5801Z" fill="#EBEBEB"/>
<path d="M87.2542 11.6942L89.9882 11.6402L91.3342 11.6162C91.7822 11.6162 92.2282 11.6162 92.6742 11.6162L92.5862 11.7042L92.5742 9.4002L92.6742 9.5002L89.9642 9.4882C89.0602 9.4882 88.1642 9.4662 87.2542 9.4562L87.3002 9.4002C87.3002 9.7762 87.2842 10.1522 87.2742 10.5342L87.2542 11.6942ZM87.2542 11.6942L87.2262 10.5622C87.2162 10.1802 87.2042 9.7922 87.2002 9.4042V9.3502H87.2562C88.1602 9.3502 89.0562 9.3182 89.9662 9.3182L92.6762 9.3042H92.7762V9.4002L92.7662 11.6902V11.7802H92.6782C92.2222 11.7802 91.7642 11.7802 91.3082 11.7682L89.9462 11.7462L87.2542 11.6942Z" fill="#EBEBEB"/>
<path d="M76.6864 45.4458H82.1064V43.1558H76.6864V45.4458Z" fill="#EBEBEB"/>
<path d="M55.1025 64.334H60.5225V62.044H55.1025V64.334Z" fill="#EBEBEB"/>
<path d="M60.1626 17.3341L57.4286 17.4001L56.0826 17.4221C55.6346 17.4221 55.1886 17.4221 54.7426 17.4341L54.8306 17.3441L54.8426 19.6361L54.7426 19.5361L57.4526 19.5481C58.3546 19.5481 59.2526 19.5701 60.1626 19.5801L60.1066 19.6361C60.1066 19.2601 60.1246 18.8821 60.1346 18.5021L60.1626 17.3341ZM60.1626 17.3341L60.1906 18.4681C60.1906 18.8501 60.2126 19.2361 60.2166 19.6261V19.6801H60.1626C59.2586 19.6801 58.3626 19.7121 57.4526 19.7121L54.7426 19.7261H54.6426V19.6261L54.6526 17.3341V17.2441H54.7426C55.1986 17.2441 55.6566 17.2441 56.1126 17.2441L57.4746 17.2681L60.1626 17.3341Z" fill="#EBEBEB"/>
<path d="M57.1382 14.4458L54.4042 14.5018L53.0582 14.5238C52.6102 14.5238 52.1642 14.5238 51.7182 14.5358L51.8062 14.4458L51.8182 16.7378L51.7182 16.6378L54.4282 16.6498C55.3322 16.6498 56.2282 16.6718 57.1382 16.6818L57.0842 16.7378C57.0842 16.3618 57.1002 15.9838 57.1102 15.6038L57.1382 14.4458ZM57.1382 14.4458L57.1662 15.5798C57.1762 15.9618 57.1882 16.3478 57.1922 16.7378V16.7998H57.1362C56.2322 16.8098 55.3362 16.8318 54.4262 16.8318L51.7162 16.8438H51.6162V16.7438V14.4518V14.3618H51.7042C52.1602 14.3618 52.6182 14.3618 53.0742 14.3618L54.4362 14.3838L57.1382 14.4458Z" fill="#EBEBEB"/>
<path d="M84.4939 0H84.2939V19.576H84.4939V0Z" fill="#C7C7C7"/>
<path d="M76.1143 27.5578L76.7803 29.0218H92.0103L92.6743 27.5578L86.1903 23.0698H82.5983L76.1143 27.5578Z" fill="#EBEBEB"/>
<path d="M82.1484 18.7461L82.5984 23.0701H86.1904L86.6404 18.7461H82.1484Z" fill="#DBDBDB"/>
<path d="M76.1143 27.5581L76.7803 29.0241H92.0103L92.6743 27.5581H76.1143Z" fill="#DBDBDB"/>
<path d="M67.8006 0H67.6006V11.046H67.8006V0Z" fill="#C7C7C7"/>
<path d="M59.4199 19.028L60.0859 20.492H75.3159L75.9799 19.028L69.4959 14.54H65.9039L59.4199 19.028Z" fill="#EBEBEB"/>
<path d="M65.4541 10.2158L65.9041 14.5398H69.4961L69.9461 10.2158H65.4541Z" fill="#DBDBDB"/>
<path d="M59.4199 19.0278L60.0859 20.4918H75.3159L75.9799 19.0278H59.4199Z" fill="#DBDBDB"/>
<path d="M8.32617 87.7299L18.8702 87.6819L29.4122 87.6639L50.5002 87.6299L71.5882 87.6639L82.1302 87.6819L92.6742 87.7299L82.1302 87.7799L71.5882 87.7959L50.5002 87.8299L29.4122 87.7959L18.8702 87.7779L8.32617 87.7299Z" fill="#263238"/>
<path d="M83.7463 10.2661H17.4023V56.6221H83.7463V10.2661Z" fill="#DBDBDB"/>
<path d="M83.7463 10.23H17.4023V12.058H83.7463V10.23Z" fill="#455A64"/>
<path d="M18.9865 11.1441C18.9865 11.2233 18.9631 11.3006 18.9191 11.3664C18.8752 11.4321 18.8127 11.4834 18.7396 11.5137C18.6665 11.544 18.5861 11.5519 18.5085 11.5365C18.4309 11.521 18.3596 11.4829 18.3037 11.427C18.2477 11.371 18.2096 11.2998 18.1942 11.2222C18.1788 11.1446 18.1867 11.0642 18.217 10.9911C18.2472 10.918 18.2985 10.8555 18.3643 10.8116C18.4301 10.7676 18.5074 10.7441 18.5865 10.7441C18.6926 10.7441 18.7944 10.7863 18.8694 10.8613C18.9444 10.9363 18.9865 11.0381 18.9865 11.1441Z" fill="#C7C7C7"/>
<path d="M20.6086 11.1441C20.6086 11.2233 20.5851 11.3006 20.5412 11.3664C20.4972 11.4321 20.4348 11.4834 20.3617 11.5137C20.2886 11.544 20.2082 11.5519 20.1306 11.5365C20.053 11.521 19.9817 11.4829 19.9258 11.427C19.8698 11.371 19.8317 11.2998 19.8163 11.2222C19.8008 11.1446 19.8088 11.0642 19.839 10.9911C19.8693 10.918 19.9206 10.8555 19.9864 10.8116C20.0521 10.7676 20.1295 10.7441 20.2086 10.7441C20.3147 10.7441 20.4164 10.7863 20.4914 10.8613C20.5665 10.9363 20.6086 11.0381 20.6086 11.1441Z" fill="white"/>
<path d="M22.2326 11.1441C22.2326 11.2233 22.2092 11.3006 22.1652 11.3664C22.1213 11.4321 22.0588 11.4834 21.9857 11.5137C21.9126 11.544 21.8322 11.5519 21.7546 11.5365C21.677 11.521 21.6057 11.4829 21.5498 11.427C21.4938 11.371 21.4557 11.2998 21.4403 11.2222C21.4249 11.1446 21.4328 11.0642 21.4631 10.9911C21.4933 10.918 21.5446 10.8555 21.6104 10.8116C21.6762 10.7676 21.7535 10.7441 21.8326 10.7441C21.9387 10.7441 22.0404 10.7863 22.1155 10.8613C22.1905 10.9363 22.2326 11.0381 22.2326 11.1441Z" fill="#0085FF"/>
<path d="M77.8642 16.5859H23.2842V52.4779H77.8642V16.5859Z" fill="white"/>
<path d="M74.1866 50.6218H26.9626V50.5418C26.9626 50.0644 26.7729 49.6066 26.4354 49.269C26.0978 48.9314 25.64 48.7418 25.1626 48.7418H25.1006V20.2958H25.1506C25.628 20.2958 26.0858 20.1062 26.4234 19.7686C26.7609 19.431 26.9506 18.9732 26.9506 18.4958V18.4458H74.1866V18.4958C74.1866 18.9732 74.3762 19.431 74.7138 19.7686C75.0514 20.1062 75.5092 20.2958 75.9866 20.2958H76.0366V48.7378H75.9866C75.5092 48.7378 75.0514 48.9274 74.7138 49.265C74.3762 49.6026 74.1866 50.0604 74.1866 50.5378V50.6218ZM27.0626 50.5218H74.0866C74.0921 50.0292 74.2883 49.5579 74.6341 49.2069C74.9798 48.856 75.4481 48.6527 75.9406 48.6398V20.3998C75.4532 20.3862 74.9895 20.1865 74.6447 19.8417C74.2999 19.4969 74.1002 19.0332 74.0866 18.5458H27.0626C27.049 19.0332 26.8493 19.4969 26.5045 19.8417C26.1597 20.1865 25.696 20.3862 25.2086 20.3998V48.6398C25.7011 48.6527 26.1694 48.856 26.5151 49.2069C26.8608 49.5579 27.0571 50.0292 27.0626 50.5218Z" fill="#0085FF"/>
<path d="M36.0527 24.262C36.059 23.8919 36.2106 23.5391 36.4748 23.2797C36.739 23.0204 37.0946 22.8754 37.4647 22.876C37.7865 22.8745 38.0996 22.98 38.3547 23.176C38.3984 23.2133 38.4265 23.2656 38.4335 23.3226C38.4405 23.3796 38.426 23.4372 38.3927 23.484C38.3565 23.5291 38.3044 23.5585 38.2471 23.5664C38.1898 23.5742 38.1317 23.5597 38.0847 23.526C37.9091 23.3853 37.6898 23.3103 37.4647 23.314C37.2066 23.3155 36.9585 23.4148 36.7707 23.592C36.5925 23.7696 36.4919 24.0104 36.4907 24.262C36.4907 24.3864 36.5154 24.5095 36.5635 24.6242C36.6116 24.7389 36.682 24.8428 36.7707 24.93C36.9585 25.1072 37.2066 25.2065 37.4647 25.208C37.6898 25.2121 37.9092 25.137 38.0847 24.996C38.1323 24.9641 38.1899 24.9507 38.2467 24.9585C38.3035 24.9662 38.3554 24.9945 38.3927 25.038C38.4265 25.0846 38.4413 25.1423 38.4342 25.1995C38.4272 25.2566 38.3988 25.3089 38.3547 25.346C38.1 25.5428 37.7866 25.6484 37.4647 25.646C37.0941 25.6492 36.7373 25.5053 36.4727 25.2459C36.208 24.9864 36.057 24.6326 36.0527 24.262Z" fill="#0085FF"/>
<path d="M39.1381 25.436V23.164C39.1363 23.1357 39.1406 23.1074 39.1506 23.0809C39.1607 23.0544 39.1762 23.0303 39.1963 23.0102C39.2163 22.9902 39.2404 22.9746 39.2669 22.9646C39.2934 22.9546 39.3218 22.9503 39.3501 22.952H40.6101C40.6642 22.9551 40.7151 22.9788 40.7523 23.0182C40.7895 23.0577 40.8102 23.1098 40.8101 23.164C40.8102 23.2187 40.7897 23.2713 40.7526 23.3114C40.7155 23.3515 40.6645 23.376 40.6101 23.38H39.5661V24.084H40.4621C40.5188 24.084 40.5733 24.1066 40.6134 24.1467C40.6535 24.1869 40.6761 24.2413 40.6761 24.298C40.6761 24.3548 40.6535 24.4092 40.6134 24.4494C40.5733 24.4895 40.5188 24.512 40.4621 24.512H39.5661V25.22H40.6101C40.663 25.2252 40.7121 25.2498 40.7479 25.2892C40.7836 25.3286 40.8034 25.3799 40.8034 25.433C40.8034 25.4862 40.7836 25.5375 40.7479 25.5769C40.7121 25.6162 40.663 25.6409 40.6101 25.646H39.3501C39.3223 25.6463 39.2948 25.6411 39.2691 25.6306C39.2434 25.6202 39.22 25.6048 39.2003 25.5852C39.1806 25.5657 39.1649 25.5425 39.1543 25.5169C39.1436 25.4913 39.1381 25.4638 39.1381 25.436Z" fill="#0085FF"/>
<path d="M43.2807 25.328C43.2897 25.3544 43.2934 25.3823 43.2916 25.4102C43.2897 25.438 43.2824 25.4652 43.2699 25.4901C43.2574 25.5151 43.2401 25.5373 43.2189 25.5555C43.1978 25.5737 43.1732 25.5875 43.1467 25.596C43.1187 25.6038 43.0897 25.6078 43.0607 25.608C43.0077 25.6086 42.9557 25.5941 42.9107 25.566C42.8582 25.5332 42.8153 25.487 42.7867 25.432C42.725 25.2862 42.6977 25.1281 42.7067 24.97C42.7065 24.9113 42.6899 24.8538 42.6587 24.804C42.6295 24.7586 42.5906 24.7204 42.5447 24.692C42.4779 24.6503 42.405 24.6193 42.3287 24.6H41.8747V25.436C41.8711 25.4907 41.8467 25.5419 41.8065 25.5791C41.7663 25.6163 41.7134 25.6367 41.6587 25.636C41.6043 25.6366 41.5519 25.6161 41.5123 25.5788C41.4728 25.5415 41.4493 25.4903 41.4467 25.436V23.164C41.4449 23.1357 41.4492 23.1074 41.4592 23.0809C41.4693 23.0544 41.4848 23.0303 41.5049 23.0102C41.5249 22.9902 41.549 22.9746 41.5755 22.9646C41.602 22.9546 41.6304 22.9503 41.6587 22.952H42.3467C42.4553 22.9518 42.5629 22.973 42.6632 23.0146C42.7636 23.0562 42.8547 23.1172 42.9313 23.1942C43.008 23.2712 43.0686 23.3626 43.1096 23.4632C43.1507 23.5637 43.1715 23.6714 43.1707 23.78C43.1709 23.9011 43.1441 24.0207 43.0922 24.13C43.0403 24.2394 42.9646 24.3357 42.8707 24.412C42.9233 24.4518 42.9692 24.4997 43.0067 24.554C43.0896 24.6769 43.1335 24.8219 43.1327 24.97C43.1288 25.0457 43.1342 25.1216 43.1487 25.196C43.1798 25.2057 43.208 25.2227 43.231 25.2457C43.254 25.2687 43.2711 25.297 43.2807 25.328ZM42.7427 23.78C42.7427 23.674 42.7005 23.5722 42.6255 23.4972C42.5505 23.4222 42.4488 23.38 42.3427 23.38H41.8707V24.18H42.3427C42.4488 24.18 42.5505 24.1379 42.6255 24.0629C42.7005 23.9879 42.7427 23.8861 42.7427 23.78Z" fill="#0085FF"/>
<path d="M45.4743 23.38H44.8623V25.436C44.8623 25.4632 44.8569 25.49 44.8462 25.515C44.8355 25.5399 44.8199 25.5624 44.8002 25.5811C44.7806 25.5998 44.7574 25.6143 44.7319 25.6238C44.7065 25.6332 44.6794 25.6374 44.6523 25.636C44.598 25.6366 44.5455 25.6161 44.506 25.5788C44.4664 25.5415 44.4429 25.4903 44.4403 25.436V23.38H43.8403C43.8122 23.3798 43.7844 23.374 43.7586 23.363C43.7327 23.352 43.7093 23.336 43.6896 23.316C43.6699 23.2959 43.6543 23.2722 43.6438 23.2461C43.6333 23.22 43.628 23.1921 43.6283 23.164C43.6266 23.1357 43.6308 23.1074 43.6409 23.0809C43.6509 23.0544 43.6665 23.0303 43.6865 23.0102C43.7066 22.9902 43.7306 22.9746 43.7572 22.9646C43.7837 22.9546 43.812 22.9503 43.8403 22.952H45.4823C45.5102 22.9518 45.5379 22.9571 45.5638 22.9676C45.5896 22.9782 45.6131 22.9938 45.6328 23.0135C45.6526 23.0333 45.6682 23.0568 45.6787 23.0826C45.6893 23.1084 45.6946 23.1361 45.6943 23.164C45.6943 23.1927 45.6886 23.2212 45.6775 23.2476C45.6664 23.2741 45.6501 23.2981 45.6296 23.3182C45.6092 23.3383 45.5849 23.3541 45.5582 23.3648C45.5315 23.3754 45.503 23.3806 45.4743 23.38Z" fill="#0085FF"/>
<path d="M46.348 23.164C46.3463 23.1357 46.3506 23.1074 46.3606 23.0809C46.3706 23.0544 46.3862 23.0303 46.4062 23.0102C46.4263 22.9902 46.4504 22.9746 46.4769 22.9646C46.5034 22.9546 46.5317 22.9503 46.56 22.952C46.5881 22.9518 46.616 22.9571 46.6421 22.9676C46.6682 22.9781 46.6919 22.9936 46.7119 23.0133C46.732 23.033 46.748 23.0564 46.759 23.0823C46.77 23.1082 46.7758 23.1359 46.776 23.164V25.436C46.7725 25.4907 46.7481 25.5419 46.7079 25.5791C46.6677 25.6163 46.6148 25.6367 46.56 25.636C46.5328 25.6377 46.5055 25.6337 46.4798 25.6244C46.4541 25.6151 46.4307 25.6006 46.4108 25.5819C46.3909 25.5631 46.3751 25.5405 46.3643 25.5155C46.3535 25.4904 46.348 25.4633 46.348 25.436V23.164Z" fill="#0085FF"/>
<path d="M47.5 25.4362V23.1642C47.4997 23.1362 47.505 23.1086 47.5156 23.0827C47.5262 23.0569 47.5418 23.0334 47.5615 23.0137C47.5812 22.9939 47.6047 22.9783 47.6306 22.9678C47.6564 22.9572 47.6841 22.9519 47.712 22.9522H48.97C49.0268 22.9522 49.0812 22.9747 49.1213 23.0148C49.1615 23.055 49.184 23.1094 49.184 23.1662C49.184 23.2229 49.1615 23.2773 49.1213 23.3175C49.0812 23.3576 49.0268 23.3802 48.97 23.3802H47.928V24.0842H48.824C48.8808 24.0842 48.9352 24.1067 48.9753 24.1468C49.0155 24.187 49.038 24.2414 49.038 24.2982C49.038 24.3549 49.0155 24.4093 48.9753 24.4495C48.9352 24.4896 48.8808 24.5122 48.824 24.5122H47.928V25.4362C47.924 25.4906 47.8994 25.5415 47.8594 25.5787C47.8193 25.6158 47.7666 25.6363 47.712 25.6362C47.6577 25.6367 47.6052 25.6162 47.5657 25.5789C47.5261 25.5416 47.5026 25.4904 47.5 25.4362Z" fill="#0085FF"/>
<path d="M49.8519 23.164C49.8502 23.1357 49.8545 23.1074 49.8645 23.0809C49.8745 23.0544 49.8901 23.0303 49.9101 23.0102C49.9302 22.9902 49.9543 22.9746 49.9808 22.9646C50.0073 22.9546 50.0357 22.9503 50.0639 22.952C50.1205 22.952 50.1749 22.9742 50.2153 23.0139C50.2557 23.0535 50.2789 23.1075 50.2799 23.164V25.436C50.2759 25.4905 50.2514 25.5414 50.2113 25.5785C50.1712 25.6156 50.1186 25.6362 50.0639 25.636C50.0367 25.6377 50.0094 25.6337 49.9837 25.6244C49.9581 25.6151 49.9346 25.6006 49.9147 25.5819C49.8948 25.5631 49.879 25.5405 49.8682 25.5155C49.8574 25.4904 49.8519 25.4633 49.8519 25.436V23.164Z" fill="#0085FF"/>
<path d="M50.8799 24.262C50.8867 23.892 51.0385 23.5395 51.3025 23.2803C51.5666 23.0211 51.9219 22.8759 52.2919 22.876C52.6137 22.8742 52.9269 22.9798 53.1819 23.176C53.2259 23.2131 53.2543 23.2654 53.2614 23.3225C53.2684 23.3797 53.2536 23.4373 53.2199 23.484C53.184 23.5295 53.1318 23.5593 53.0744 23.5671C53.0169 23.575 52.9587 23.5602 52.9119 23.526C52.7362 23.3853 52.5169 23.3103 52.2919 23.314C52.0331 23.3174 51.7855 23.4197 51.5999 23.6C51.511 23.6876 51.4404 23.7918 51.392 23.9068C51.3436 24.0218 51.3184 24.1452 51.3179 24.27C51.3178 24.3946 51.3427 24.5179 51.3911 24.6326C51.4395 24.7474 51.5105 24.8512 51.5999 24.938C51.7912 25.1115 52.0417 25.2052 52.2999 25.2C52.525 25.2041 52.7444 25.129 52.9199 24.988C52.9675 24.9561 53.0251 24.9427 53.0819 24.9505C53.1386 24.9582 53.1906 24.9865 53.2279 25.03C53.2621 25.0765 53.2772 25.1343 53.2701 25.1916C53.263 25.2488 53.2343 25.3012 53.1899 25.338C52.9353 25.5351 52.6218 25.6407 52.2999 25.638C51.9293 25.6433 51.5716 25.5015 51.3054 25.2436C51.0392 24.9856 50.8862 24.6326 50.8799 24.262Z" fill="#0085FF"/>
<path d="M55.2842 25.0121H54.3482L54.1602 25.5121C54.1437 25.5516 54.1159 25.5854 54.0804 25.6092C54.0448 25.633 54.003 25.6458 53.9602 25.6461C53.9246 25.6498 53.8886 25.6439 53.856 25.629C53.8234 25.6141 53.7954 25.5907 53.775 25.5613C53.7545 25.5318 53.7424 25.4974 53.7398 25.4617C53.7372 25.4259 53.7442 25.3902 53.7602 25.3581L54.6122 23.0901C54.6285 23.0504 54.6562 23.0165 54.6918 22.9926C54.7274 22.9688 54.7693 22.956 54.8122 22.9561C54.8552 22.9555 54.8974 22.968 54.9331 22.9919C54.9688 23.0159 54.9964 23.0501 55.0122 23.0901L55.8622 25.3581C55.8812 25.4117 55.8787 25.4706 55.8553 25.5225C55.8318 25.5743 55.7891 25.615 55.7362 25.6361C55.6838 25.6524 55.6273 25.6488 55.5774 25.6259C55.5275 25.603 55.4879 25.5625 55.4662 25.5121L55.2842 25.0121ZM55.1262 24.5881L54.8142 23.7601L54.5002 24.5881H55.1262Z" fill="#0085FF"/>
<path d="M57.6581 23.38H57.0461V25.436C57.041 25.4885 57.0166 25.5371 56.9776 25.5725C56.9386 25.6079 56.8878 25.6275 56.8351 25.6275C56.7825 25.6275 56.7317 25.6079 56.6927 25.5725C56.6537 25.5371 56.6292 25.4885 56.6241 25.436V23.38H56.0141C55.9576 23.379 55.9036 23.3558 55.864 23.3154C55.8243 23.275 55.8021 23.2206 55.8021 23.164C55.8004 23.1357 55.8047 23.1074 55.8147 23.0809C55.8247 23.0544 55.8403 23.0303 55.8603 23.0102C55.8804 22.9902 55.9045 22.9746 55.931 22.9646C55.9575 22.9546 55.9858 22.9503 56.0141 22.952H57.6581C57.6861 22.9518 57.7137 22.9571 57.7396 22.9676C57.7654 22.9782 57.7889 22.9938 57.8086 23.0135C57.8284 23.0333 57.844 23.0568 57.8545 23.0826C57.8651 23.1084 57.8704 23.1361 57.8701 23.164C57.8702 23.2206 57.8479 23.275 57.8083 23.3154C57.7686 23.3558 57.7147 23.379 57.6581 23.38Z" fill="#0085FF"/>
<path d="M58.5326 23.164C58.5309 23.1357 58.5351 23.1074 58.5452 23.0809C58.5552 23.0544 58.5708 23.0303 58.5908 23.0102C58.6109 22.9902 58.6349 22.9746 58.6614 22.9646C58.688 22.9546 58.7163 22.9503 58.7446 22.952C58.7727 22.9518 58.8006 22.9571 58.8267 22.9676C58.8527 22.9781 58.8765 22.9936 58.8965 23.0133C58.9166 23.033 58.9326 23.0564 58.9436 23.0823C58.9546 23.1082 58.9603 23.1359 58.9606 23.164V25.436C58.957 25.4907 58.9326 25.5419 58.8925 25.5791C58.8523 25.6163 58.7994 25.6367 58.7446 25.636C58.7174 25.6377 58.6901 25.6337 58.6644 25.6244C58.6387 25.6151 58.6152 25.6006 58.5954 25.5819C58.5755 25.5631 58.5597 25.5405 58.5489 25.5155C58.5381 25.4904 58.5326 25.4633 58.5326 25.436V23.164Z" fill="#0085FF"/>
<path d="M61.8048 23.288C62.055 23.5505 62.1945 23.8993 62.1945 24.262C62.1945 24.6246 62.055 24.9734 61.8048 25.236C61.6871 25.3622 61.5447 25.4628 61.3864 25.5317C61.2281 25.6005 61.0574 25.636 60.8848 25.636C60.7089 25.6366 60.5347 25.6015 60.3727 25.5327C60.2108 25.464 60.0645 25.363 59.9428 25.236C59.6971 24.9712 59.5605 24.6232 59.5605 24.262C59.5605 23.9007 59.6971 23.5528 59.9428 23.288C60.063 23.1581 60.2087 23.0545 60.3708 22.9836C60.5329 22.9127 60.7079 22.876 60.8848 22.876C61.0584 22.8768 61.2299 22.9138 61.3883 22.9848C61.5468 23.0557 61.6886 23.159 61.8048 23.288ZM61.7548 24.262C61.7546 24.0125 61.6612 23.7721 61.4928 23.588C61.4152 23.5019 61.3203 23.433 61.2144 23.3859C61.1084 23.3387 60.9938 23.3144 60.8778 23.3144C60.7619 23.3144 60.6472 23.3387 60.5413 23.3859C60.4353 23.433 60.3404 23.5019 60.2628 23.588C60.0924 23.7708 59.9986 24.0121 60.0008 24.262C59.9983 24.5102 60.0922 24.7497 60.2628 24.93C60.3398 25.0172 60.4344 25.0871 60.5404 25.135C60.6465 25.1828 60.7615 25.2076 60.8778 25.2076C60.9942 25.2076 61.1092 25.1828 61.2152 25.135C61.3212 25.0871 61.4159 25.0172 61.4928 24.93C61.6618 24.7487 61.7555 24.5098 61.7548 24.262Z" fill="#0085FF"/>
<path d="M63.2759 25.4362C63.2759 25.4919 63.2538 25.5453 63.2144 25.5847C63.175 25.6241 63.1216 25.6462 63.0659 25.6462C63.0102 25.6462 62.9568 25.6241 62.9174 25.5847C62.878 25.5453 62.8559 25.4919 62.8559 25.4362V23.2002C62.8537 23.1662 62.8603 23.1321 62.875 23.1013C62.8897 23.0705 62.912 23.0439 62.9399 23.0242C62.985 22.9924 63.0407 22.9793 63.0952 22.9879C63.1497 22.9965 63.1988 23.026 63.2319 23.0702L64.4759 24.7902V23.2002C64.4783 23.148 64.5002 23.0985 64.5372 23.0615C64.5742 23.0245 64.6236 23.0027 64.6759 23.0002C64.7299 23.0006 64.7819 23.0215 64.8212 23.0586C64.8605 23.0957 64.8843 23.1463 64.8879 23.2002V25.4382C64.8843 25.4922 64.8605 25.5428 64.8212 25.5799C64.7819 25.617 64.7299 25.6378 64.6759 25.6382C64.6455 25.6384 64.6155 25.6316 64.5881 25.6185C64.5607 25.6053 64.5367 25.5861 64.5179 25.5622C64.51 25.5558 64.5038 25.5476 64.4999 25.5382L63.2679 23.8302L63.2759 25.4362Z" fill="#0085FF"/>
<path d="M43.3359 28.5639C44.5439 28.5465 45.7506 28.5339 46.9559 28.5259H50.5739H54.1939C55.3939 28.5339 56.5999 28.5465 57.8119 28.5639C56.6119 28.5839 55.4059 28.5972 54.1939 28.6039H50.5739H46.9559C45.7506 28.6012 44.5439 28.5879 43.3359 28.5639Z" fill="#263238"/>
<path d="M39.3145 29.6921L42.1285 29.6661L44.9445 29.6581L50.5745 29.6421L56.2045 29.6581L59.0205 29.6661L61.8365 29.6921L59.0205 29.7161L56.2045 29.7241L50.5745 29.7421L44.9445 29.7241L42.1285 29.7161L39.3145 29.6921Z" fill="#263238"/>
<path d="M55.5742 43.5681C56.7982 43.5494 58.0216 43.5367 59.2442 43.5301L62.9142 43.5181L66.5842 43.5301C67.8082 43.5301 69.0316 43.5427 70.2542 43.5681C69.0329 43.5867 67.8096 43.5994 66.5842 43.6061L62.9142 43.6181L59.2442 43.6001C58.0202 43.6001 56.7969 43.5894 55.5742 43.5681Z" fill="#263238"/>
<path d="M30.9004 43.5681C32.1244 43.5494 33.3477 43.5367 34.5704 43.5301L38.2404 43.5181L41.9104 43.5301C43.1344 43.5301 44.3584 43.5427 45.5824 43.5681C44.3544 43.5894 43.1271 43.6001 41.9004 43.6001L38.2304 43.6121L34.5644 43.6001C33.3404 43.6001 32.1191 43.5894 30.9004 43.5681Z" fill="#263238"/>
<path d="M64.0363 35.2541L60.6703 35.2781L57.3043 35.2861L50.5743 35.3021L43.8443 35.2861L40.4783 35.2781L37.1143 35.2541L40.4783 35.2281L43.8443 35.2201L50.5743 35.2041L57.3043 35.2201L60.6703 35.2281L64.0363 35.2541Z" fill="#263238"/>
<path d="M67.5865 34.1261L63.3345 34.1521L59.0805 34.1601L50.5745 34.1761L42.0685 34.1601L37.8145 34.1521L33.5625 34.1261L37.8145 34.1021L42.0685 34.0941L50.5745 34.0781L59.0805 34.0941L63.3345 34.1021L67.5865 34.1261Z" fill="#263238"/>
<path d="M66.5148 36.3801L62.5288 36.4041L58.5448 36.4121L50.5748 36.4301L42.6048 36.4121L38.6208 36.4041L34.6348 36.3801L38.6208 36.3541L42.6048 36.3461L50.5748 36.3301L58.5448 36.3461L62.5288 36.3561L66.5148 36.3801Z" fill="#263238"/>
<path d="M59.6285 37.5061L57.3645 37.5301L55.1025 37.5381L50.5745 37.5561L46.0485 37.5381L43.7845 37.5301L41.5205 37.5061L43.7845 37.4821L46.0485 37.4721L50.5745 37.4561L55.1025 37.4721L57.3645 37.4821L59.6285 37.5061Z" fill="#263238"/>
<path d="M58.2088 42.8198C58.4541 42.6491 58.7075 42.4891 58.9688 42.3398C59.2266 42.1831 59.5026 42.0588 59.7908 41.9698C59.8277 41.9605 59.8651 41.9532 59.9028 41.9478C59.9256 41.9418 59.9497 41.9427 59.972 41.9501C59.9944 41.9576 60.0141 41.9713 60.0288 41.9898C60.068 42.0613 60.086 42.1424 60.0808 42.2238C60.0776 42.3747 60.0622 42.5252 60.0348 42.6738C59.9828 42.9698 59.9088 43.2618 59.8348 43.5498C59.6729 44.1285 59.4725 44.6958 59.2348 45.2478C59.1763 45.3872 59.1054 45.5211 59.0228 45.6478C58.9989 45.6819 58.9714 45.7134 58.9408 45.7418C58.9199 45.7624 58.8921 45.7745 58.8628 45.7758C58.8434 45.7756 58.8245 45.7693 58.8088 45.7578L58.7828 45.7298C58.7388 45.6576 58.7165 45.5743 58.7188 45.4898C58.7255 45.1854 58.7788 44.8839 58.8768 44.5958C58.9646 44.307 59.0777 44.0266 59.2148 43.7578C59.3448 43.4836 59.5229 43.235 59.7408 43.0238C59.8573 42.9196 60.0008 42.8503 60.1548 42.8238C60.2339 42.8114 60.3149 42.8183 60.3908 42.8438C60.4627 42.8799 60.5204 42.939 60.5548 43.0118C60.5896 43.076 60.6311 43.1364 60.6788 43.1918C60.7006 43.2177 60.7291 43.2371 60.7613 43.2477C60.7934 43.2583 60.8279 43.2597 60.8608 43.2518C60.9987 43.2024 61.1262 43.1278 61.2368 43.0318C61.2968 42.9878 61.3548 42.9398 61.4168 42.8978C61.4487 42.8754 61.4821 42.8554 61.5168 42.8378C61.5353 42.8258 61.5568 42.8194 61.5788 42.8194C61.6008 42.8194 61.6223 42.8258 61.6408 42.8378C61.6988 42.9118 61.6848 42.9898 61.7128 43.0558C61.7213 43.0885 61.742 43.1169 61.7705 43.135C61.7991 43.1532 61.8335 43.1599 61.8668 43.1538C61.9912 43.0757 62.1026 42.9785 62.1968 42.8658C62.2968 42.7578 62.3968 42.6438 62.4948 42.5318C62.6948 42.3058 62.8828 42.0758 63.0828 41.8538C63.1828 41.7418 63.2828 41.6318 63.3928 41.5258C63.4469 41.4728 63.5044 41.4233 63.5648 41.3778C63.5966 41.3543 63.6308 41.3342 63.6668 41.3178C63.6874 41.3078 63.7099 41.3023 63.7328 41.3018C63.7464 41.302 63.7597 41.3055 63.7716 41.3122C63.7835 41.3188 63.7935 41.3283 63.8008 41.3398C63.8356 41.4139 63.8468 41.497 63.8328 41.5778C63.825 41.653 63.813 41.7278 63.7968 41.8018C63.7641 41.949 63.7241 42.0945 63.6768 42.2378C63.5863 42.5266 63.4663 42.8054 63.3188 43.0698C63.2795 43.1381 63.2318 43.2012 63.1768 43.2578C63.1601 43.2758 63.1396 43.2898 63.1167 43.2988C63.0939 43.3078 63.0693 43.3115 63.0448 43.3098C63.0031 43.3055 62.9625 43.294 62.9248 43.2758C62.8506 43.2408 62.785 43.1899 62.7328 43.1266C62.6806 43.0633 62.643 42.9893 62.6228 42.9098C62.6116 42.8625 62.618 42.8127 62.6408 42.7698C62.6543 42.7459 62.6745 42.7264 62.6988 42.7138C62.7221 42.7013 62.7485 42.6957 62.7748 42.6978C62.8544 42.7041 62.9326 42.7223 63.0068 42.7518C63.1508 42.8018 63.2888 42.8638 63.4268 42.9238C63.5648 42.9838 63.7008 43.0438 63.8368 43.0998C63.9068 43.1258 63.9748 43.1538 64.0368 43.1738C64.0689 43.1835 64.1016 43.1909 64.1348 43.1958C64.1633 43.1975 64.1917 43.1912 64.2168 43.1778C64.3308 43.1218 64.4048 42.9778 64.5188 42.8718C64.5775 42.8054 64.6588 42.7634 64.7468 42.7538C64.7634 42.7518 64.7802 42.7535 64.7961 42.7587C64.812 42.7639 64.8265 42.7724 64.8388 42.7838C64.8504 42.7959 64.8592 42.8104 64.8647 42.8263C64.8703 42.8422 64.8723 42.859 64.8708 42.8758C64.8673 42.917 64.8599 42.9579 64.8488 42.9978C64.8268 43.0638 64.8188 43.1498 64.8388 43.1538C64.8588 43.1578 64.9468 43.1538 65.0088 43.1438C65.1463 43.1014 65.2745 43.0336 65.3868 42.9438C65.4468 42.9018 65.5088 42.8558 65.5768 42.8158C65.6504 42.7667 65.739 42.7454 65.8268 42.7558C65.9766 42.8138 66.1089 42.9095 66.2108 43.0338C66.2586 43.0858 66.3123 43.1322 66.3708 43.1718C66.3968 43.1898 66.4228 43.1938 66.4288 43.1878C66.4588 43.1728 66.4876 43.1554 66.5148 43.1358C66.6323 43.0478 66.7445 42.953 66.8508 42.8518C67.0694 42.6531 67.264 42.4295 67.4308 42.1858C67.5135 42.0721 67.5633 41.9379 67.5748 41.7978C67.5748 41.6638 67.4368 41.5978 67.2928 41.5798C67.0025 41.5307 66.7057 41.5348 66.4168 41.5918C66.272 41.6183 66.13 41.6585 65.9928 41.7118C65.9223 41.7385 65.8552 41.7734 65.7928 41.8158C65.7388 41.8558 65.6888 41.9138 65.7048 41.9678C65.7344 42.0272 65.785 42.0735 65.8468 42.0978C65.912 42.1285 65.9788 42.1559 66.0468 42.1798C66.1868 42.2278 66.3288 42.2718 66.4728 42.3058C67.0604 42.4166 67.6569 42.4735 68.2548 42.4758V42.4858C67.6554 42.4994 67.056 42.4559 66.4648 42.3558C66.3174 42.3231 66.1718 42.2823 66.0288 42.2338C65.9588 42.2078 65.8868 42.1858 65.8168 42.1518C65.7383 42.1211 65.6751 42.0607 65.6408 41.9838C65.635 41.9405 65.6421 41.8965 65.6613 41.8573C65.6806 41.8182 65.711 41.7856 65.7488 41.7638C65.81 41.7169 65.8773 41.6786 65.9488 41.6498C66.0889 41.5905 66.2351 41.5469 66.3848 41.5198C66.6834 41.4561 66.9911 41.4473 67.2928 41.4938C67.3725 41.5049 67.4492 41.5314 67.5188 41.5718C67.5568 41.595 67.5886 41.6272 67.6112 41.6655C67.6339 41.7039 67.6468 41.7472 67.6488 41.7918C67.6426 41.9524 67.589 42.1076 67.4948 42.2378C67.3273 42.4912 67.1292 42.7229 66.9048 42.9278C66.7957 43.0337 66.6795 43.1319 66.5568 43.2218C66.5236 43.2464 66.4881 43.2679 66.4508 43.2858C66.4252 43.2946 66.3979 43.2972 66.3711 43.2934C66.3444 43.2896 66.3189 43.2794 66.2968 43.2638C66.2323 43.2187 66.1726 43.1671 66.1188 43.1098C66.0295 43.0027 65.9165 42.9178 65.7888 42.8618C65.6788 42.8458 65.5508 42.9478 65.4328 43.0318C65.3095 43.129 65.1691 43.2022 65.0188 43.2478C64.976 43.2638 64.9305 43.2712 64.8848 43.2695C64.8391 43.2678 64.7943 43.257 64.7528 43.2378C64.7322 43.2192 64.7167 43.1957 64.708 43.1694C64.6992 43.1431 64.6974 43.115 64.7028 43.0878C64.7073 43.0471 64.7154 43.007 64.7268 42.9678C64.736 42.9358 64.742 42.9029 64.7448 42.8698C64.7448 42.8578 64.7448 42.8518 64.7448 42.8578C64.7448 42.8638 64.7448 42.8578 64.7308 42.8578C64.669 42.8668 64.6124 42.8972 64.5708 42.9438C64.4688 43.0378 64.3988 43.1838 64.2408 43.2678C64.1997 43.2895 64.1531 43.2986 64.1068 43.2938C64.066 43.2896 64.0257 43.2808 63.9868 43.2678C63.9128 43.2458 63.8428 43.2178 63.7728 43.1898C63.6328 43.1318 63.4968 43.0698 63.3588 43.0098C63.2208 42.9498 63.0868 42.8878 62.9488 42.8398C62.8848 42.8133 62.8175 42.7958 62.7488 42.7878C62.7008 42.7878 62.6728 42.8278 62.6868 42.8918C62.7037 42.9576 62.7346 43.019 62.7774 43.0719C62.8202 43.1247 62.8739 43.1676 62.9348 43.1978C62.9645 43.2119 62.9962 43.2213 63.0288 43.2258C63.0488 43.2258 63.0708 43.2258 63.0968 43.1938C63.1467 43.1437 63.1898 43.0872 63.2248 43.0258C63.3723 42.772 63.4935 42.504 63.5868 42.2258C63.6351 42.0854 63.6758 41.9425 63.7088 41.7978C63.7263 41.726 63.739 41.6532 63.7468 41.5798C63.7604 41.5129 63.7549 41.4436 63.7308 41.3798C63.7088 41.3418 63.6248 41.3798 63.5708 41.4298C63.5121 41.4737 63.456 41.5211 63.4028 41.5718C63.2948 41.6738 63.1928 41.7838 63.0928 41.8938C62.8928 42.1138 62.6928 42.3418 62.4928 42.5658C62.3928 42.6778 62.2928 42.7898 62.1908 42.8998C62.0928 43.0168 61.975 43.1156 61.8428 43.1918C61.8009 43.2022 61.7566 43.196 61.7193 43.1743C61.682 43.1526 61.6545 43.1173 61.6428 43.0758C61.6148 43.0038 61.6168 42.9158 61.5768 42.8758C61.5368 42.8358 61.5228 42.8758 61.4908 42.8878C61.4586 42.9045 61.4278 42.9239 61.3988 42.9458C61.3388 42.9878 61.2808 43.0358 61.2208 43.0818C61.1065 43.1829 60.9742 43.2616 60.8308 43.3138C60.7906 43.3235 60.7486 43.3221 60.7091 43.3098C60.6697 43.2975 60.6343 43.2746 60.6068 43.2438C60.556 43.1864 60.5111 43.1241 60.4728 43.0578C60.4328 42.9958 60.3928 42.9298 60.3328 42.9098C60.268 42.8906 60.1997 42.8858 60.1328 42.8958C59.9905 42.9219 59.8583 42.987 59.7508 43.0838C59.5415 43.2928 59.3709 43.5373 59.2468 43.8058C59.1145 44.0719 59.0054 44.3489 58.9208 44.6338C58.8299 44.9143 58.7814 45.2069 58.7768 45.5018C58.7746 45.5675 58.7905 45.6325 58.8228 45.6898L58.8348 45.7038C58.8425 45.7008 58.8494 45.696 58.8548 45.6898C58.8791 45.6671 58.9006 45.6416 58.9188 45.6138C58.9937 45.4888 59.0605 45.3592 59.1188 45.2258C59.3557 44.6796 59.5562 44.1184 59.7188 43.5458C59.8047 43.2602 59.8761 42.9705 59.9328 42.6778C59.9633 42.533 59.98 42.3857 59.9828 42.2378C59.9889 42.1689 59.9757 42.0996 59.9448 42.0378C59.9268 42.0138 59.9088 42.0078 59.8688 42.0158C59.833 42.0195 59.7975 42.0262 59.7628 42.0358C59.4775 42.1195 59.203 42.2363 58.9448 42.3838C58.6828 42.5258 58.4248 42.6798 58.1748 42.8418L58.2088 42.8198Z" fill="#263238"/>
<path d="M41.8704 42.8198C41.625 42.6491 41.3717 42.4891 41.1104 42.3398C40.8526 42.1831 40.5765 42.0588 40.2884 41.9698C40.2508 41.9603 40.2127 41.953 40.1744 41.9478C40.1518 41.942 40.1281 41.9429 40.1061 41.9504C40.0841 41.9578 40.0647 41.9715 40.0504 41.9898C40.0112 42.0613 39.9932 42.1424 39.9984 42.2238C40.0006 42.3748 40.016 42.5254 40.0444 42.6738C40.0964 42.9698 40.1704 43.2618 40.2444 43.5498C40.4062 44.1285 40.6067 44.6958 40.8444 45.2478C40.9028 45.3872 40.9738 45.5211 41.0564 45.6478C41.0797 45.6824 41.1072 45.714 41.1384 45.7418C41.1592 45.7624 41.187 45.7745 41.2164 45.7758C41.2358 45.7754 41.2546 45.7691 41.2704 45.7578L41.2964 45.7298C41.3395 45.6572 41.3616 45.5741 41.3604 45.4898C41.3527 45.1855 41.2994 44.8842 41.2024 44.5958C41.1137 44.3073 41.0006 44.027 40.8644 43.7578C40.7336 43.4835 40.5548 43.2349 40.3364 43.0238C40.2203 42.9189 40.0766 42.8495 39.9224 42.8238C39.8439 42.8114 39.7636 42.8183 39.6884 42.8438C39.6165 42.8799 39.5587 42.939 39.5244 43.0118C39.4896 43.076 39.448 43.1364 39.4004 43.1918C39.3785 43.2175 39.3499 43.2367 39.3178 43.2473C39.2857 43.2579 39.2513 43.2594 39.2184 43.2518C39.0803 43.2028 38.9527 43.1282 38.8424 43.0318C38.7824 42.9878 38.7224 42.9398 38.6604 42.8978C38.6295 42.875 38.5967 42.8549 38.5624 42.8378C38.5439 42.8258 38.5224 42.8194 38.5004 42.8194C38.4784 42.8194 38.4568 42.8258 38.4384 42.8378C38.3804 42.9118 38.3944 42.9898 38.3664 43.0558C38.3578 43.0885 38.3372 43.1169 38.3086 43.135C38.2801 43.1532 38.2457 43.1599 38.2124 43.1538C38.087 43.0769 37.9755 42.9795 37.8824 42.8658C37.7804 42.7578 37.6824 42.6438 37.5844 42.5318C37.3844 42.3058 37.1964 42.0758 36.9964 41.8538C36.8964 41.7418 36.7964 41.6318 36.6864 41.5258C36.6323 41.4728 36.5748 41.4233 36.5144 41.3778C36.4825 41.3543 36.4483 41.3342 36.4124 41.3178C36.3917 41.308 36.3692 41.3025 36.3464 41.3018C36.3326 41.3023 36.3191 41.306 36.3069 41.3126C36.2948 41.3192 36.2843 41.3285 36.2764 41.3398C36.2422 41.4142 36.2318 41.4972 36.2464 41.5778C36.2541 41.653 36.2662 41.7278 36.2824 41.8018C36.3151 41.949 36.3551 42.0945 36.4024 42.2378C36.4929 42.5266 36.6129 42.8054 36.7604 43.0698C36.7997 43.1381 36.8474 43.2012 36.9024 43.2578C36.9191 43.2758 36.9396 43.2898 36.9624 43.2988C36.9853 43.3078 37.0099 43.3115 37.0344 43.3098C37.076 43.3055 37.1167 43.294 37.1544 43.2758C37.2286 43.2408 37.2942 43.1899 37.3464 43.1266C37.3986 43.0633 37.4361 42.9893 37.4564 42.9098C37.4659 42.8624 37.4596 42.8132 37.4384 42.7698C37.4243 42.7463 37.4043 42.727 37.3804 42.7138C37.3564 42.7012 37.3293 42.6957 37.3024 42.6978C37.2228 42.7046 37.1447 42.7228 37.0704 42.7518C36.9264 42.8018 36.7904 42.8638 36.6524 42.9238C36.5144 42.9838 36.3784 43.0438 36.2404 43.0998C36.1724 43.1258 36.1044 43.1538 36.0404 43.1738C36.0077 43.1837 35.9742 43.1911 35.9404 43.1958C35.9119 43.1973 35.8836 43.191 35.8584 43.1778C35.7464 43.1218 35.6704 42.9778 35.5584 42.8718C35.4993 42.8059 35.4182 42.7639 35.3304 42.7538C35.3138 42.7518 35.297 42.7535 35.2811 42.7587C35.2652 42.7639 35.2506 42.7724 35.2384 42.7838C35.2268 42.7959 35.2179 42.8104 35.2124 42.8263C35.2069 42.8422 35.2048 42.859 35.2064 42.8758C35.2099 42.917 35.2172 42.9579 35.2284 42.9978C35.2484 43.0638 35.2584 43.1498 35.2384 43.1538C35.2184 43.1578 35.1304 43.1538 35.0684 43.1438C34.9309 43.1014 34.8027 43.0336 34.6904 42.9438C34.6304 42.9018 34.5684 42.8558 34.4904 42.8158C34.4176 42.7665 34.3296 42.7452 34.2424 42.7558C34.0925 42.8138 33.9603 42.9095 33.8584 43.0338C33.8106 43.0858 33.7569 43.1322 33.6984 43.1718C33.6724 43.1898 33.6464 43.1938 33.6404 43.1878C33.6103 43.1728 33.5816 43.1554 33.5544 43.1358C33.4358 43.0483 33.3229 42.9535 33.2164 42.8518C32.999 42.6524 32.8051 42.429 32.6384 42.1858C32.5573 42.0725 32.5095 41.9388 32.5004 41.7998C32.5004 41.6658 32.6384 41.5998 32.7804 41.5818C33.0714 41.5328 33.3688 41.5368 33.6584 41.5938C33.8031 41.6206 33.945 41.6608 34.0824 41.7138C34.1524 41.7414 34.2195 41.7763 34.2824 41.8178C34.3364 41.8578 34.3864 41.9158 34.3704 41.9698C34.3404 42.0297 34.289 42.0761 34.2264 42.0998C34.1612 42.1306 34.0944 42.1579 34.0264 42.1818C33.8859 42.231 33.7431 42.273 33.5984 42.3078C33.0115 42.4187 32.4156 42.4756 31.8184 42.4778V42.4878C32.4211 42.502 33.0239 42.4585 33.6184 42.3578C33.7658 42.3251 33.9114 42.2843 34.0544 42.2358C34.1244 42.2098 34.1964 42.1878 34.2664 42.1538C34.3449 42.1231 34.4081 42.0627 34.4424 41.9858C34.4482 41.9425 34.4411 41.8985 34.4218 41.8593C34.4026 41.8202 34.3722 41.7876 34.3344 41.7658C34.2729 41.7193 34.2057 41.681 34.1344 41.6518C33.9942 41.5928 33.848 41.5492 33.6984 41.5218C33.3998 41.4581 33.0921 41.4493 32.7904 41.4958C32.7101 41.5072 32.6328 41.5336 32.5624 41.5738C32.5246 41.5972 32.493 41.6295 32.4704 41.6678C32.4477 41.7061 32.4347 41.7493 32.4324 41.7938C32.4405 41.954 32.4939 42.1087 32.5864 42.2398C32.7564 42.4942 32.958 42.726 33.1864 42.9298C33.2954 43.0357 33.4117 43.1339 33.5344 43.2238C33.5671 43.248 33.6019 43.2694 33.6384 43.2878C33.6639 43.2968 33.6912 43.2995 33.7181 43.2957C33.7449 43.2918 33.7704 43.2816 33.7924 43.2658C33.8579 43.2213 33.9183 43.1696 33.9724 43.1118C34.0617 43.0047 34.1747 42.9198 34.3024 42.8638C34.4124 42.8478 34.5404 42.9498 34.6584 43.0338C34.7817 43.131 34.9221 43.2042 35.0724 43.2498C35.1148 43.2658 35.16 43.2732 35.2054 43.2714C35.2507 43.2697 35.2952 43.259 35.3364 43.2398C35.3575 43.2216 35.3734 43.1981 35.3826 43.1718C35.3917 43.1454 35.3937 43.1171 35.3884 43.0898C35.3838 43.0491 35.3758 43.009 35.3644 42.9698C35.3552 42.9378 35.3492 42.9049 35.3464 42.8718C35.3464 42.8598 35.3464 42.8538 35.3464 42.8598C35.3464 42.8658 35.3464 42.8598 35.3604 42.8598C35.4221 42.8688 35.4788 42.8992 35.5204 42.9458C35.6224 43.0398 35.6904 43.1858 35.8484 43.2698C35.8902 43.2914 35.9375 43.3004 35.9844 43.2958C36.0252 43.2916 36.0654 43.2828 36.1044 43.2698C36.1784 43.2478 36.2484 43.2198 36.3184 43.1918C36.4584 43.1338 36.5944 43.0718 36.7324 43.0118C36.8704 42.9518 37.0044 42.8898 37.1424 42.8418C37.2063 42.8153 37.2736 42.7978 37.3424 42.7898C37.3904 42.7898 37.4184 42.8298 37.4044 42.8938C37.3875 42.9596 37.3566 43.0211 37.3138 43.0739C37.271 43.1267 37.2173 43.1696 37.1564 43.1998C37.1267 43.2139 37.095 43.2233 37.0624 43.2278C37.0424 43.2278 37.0204 43.2278 36.9944 43.1958C36.9445 43.1457 36.9014 43.0892 36.8664 43.0278C36.7189 42.774 36.5976 42.506 36.5044 42.2278C36.4564 42.0858 36.4144 41.9438 36.3804 41.7998C36.3635 41.728 36.3515 41.6551 36.3444 41.5818C36.3307 41.5149 36.3363 41.4456 36.3604 41.3818C36.3824 41.3438 36.4664 41.3818 36.5204 41.4318C36.5791 41.4757 36.6352 41.5231 36.6884 41.5738C36.7964 41.6758 36.8884 41.7858 36.9984 41.8958C37.1984 42.1158 37.3984 42.3438 37.5984 42.5678C37.6984 42.6798 37.7984 42.7918 37.9004 42.9018C37.9981 43.0182 38.1151 43.117 38.2464 43.1938C38.2882 43.2037 38.3323 43.1972 38.3695 43.1756C38.4067 43.1541 38.4342 43.119 38.4464 43.0778C38.4744 43.0058 38.4724 42.9178 38.5104 42.8778C38.5484 42.8378 38.5664 42.8778 38.5964 42.8898C38.6293 42.9064 38.6607 42.9258 38.6904 42.9478C38.7504 42.9898 38.8084 43.0378 38.8684 43.0838C38.9827 43.1849 39.115 43.2636 39.2584 43.3158C39.2985 43.3255 39.3406 43.3241 39.3801 43.3118C39.4195 43.2995 39.4549 43.2766 39.4824 43.2458C39.5331 43.1884 39.578 43.1261 39.6164 43.0598C39.6564 42.9978 39.6964 42.9318 39.7564 42.9118C39.8212 42.8925 39.8895 42.8877 39.9564 42.8978C40.0986 42.9239 40.2309 42.989 40.3384 43.0858C40.5476 43.2948 40.7183 43.5393 40.8424 43.8078C40.974 44.0739 41.0824 44.3509 41.1664 44.6358C41.2588 44.916 41.3081 45.2087 41.3124 45.5038C41.3136 45.5694 41.2977 45.6341 41.2664 45.6918L41.2524 45.7058C41.2446 45.7028 41.2378 45.698 41.2324 45.6918C41.2081 45.6691 41.1866 45.6436 41.1684 45.6158C41.0927 45.4913 41.0259 45.3616 40.9684 45.2278C40.7315 44.6816 40.531 44.1204 40.3684 43.5478C40.2864 43.2598 40.2104 42.9718 40.1544 42.6798C40.1259 42.5347 40.1092 42.3875 40.1044 42.2398C40.1002 42.1708 40.114 42.1018 40.1444 42.0398C40.1624 42.0158 40.1804 42.0098 40.2204 42.0178C40.2562 42.0217 40.2916 42.0284 40.3264 42.0378C40.6115 42.1218 40.886 42.2386 41.1444 42.3858C41.4064 42.5278 41.6644 42.6818 41.9144 42.8438L41.8704 42.8198Z" fill="#263238"/>
<path d="M50.6726 39.644C50.6851 39.6756 50.7061 39.7032 50.7332 39.7237C50.7603 39.7442 50.7925 39.7569 50.8263 39.7604C50.8601 39.7639 50.8942 39.7581 50.9249 39.7436C50.9557 39.729 50.9818 39.7064 51.0006 39.678C51.0212 39.6471 51.0507 39.6231 51.0852 39.609C51.1197 39.595 51.1576 39.5917 51.194 39.5994C51.2304 39.6072 51.2636 39.6257 51.2894 39.6525C51.3152 39.6794 51.3323 39.7133 51.3386 39.75C51.3444 39.7832 51.3592 39.8142 51.3812 39.8397C51.4033 39.8652 51.4319 39.8842 51.464 39.8946C51.496 39.9051 51.5303 39.9067 51.5632 39.8992C51.596 39.8917 51.6262 39.8754 51.6506 39.852C51.6769 39.8256 51.7106 39.8079 51.7472 39.8011C51.7839 39.7943 51.8217 39.7987 51.8558 39.8139C51.8898 39.8291 51.9184 39.8543 51.9379 39.8861C51.9573 39.9179 51.9666 39.9548 51.9646 39.992C51.9632 40.026 51.9712 40.0596 51.9877 40.0894C52.0041 40.1191 52.0284 40.1437 52.0579 40.1606C52.0874 40.1775 52.1209 40.186 52.1549 40.1852C52.1888 40.1844 52.2219 40.1743 52.2506 40.156C52.2816 40.136 52.318 40.1258 52.3549 40.1268C52.3919 40.1277 52.4277 40.1398 52.4577 40.1613C52.4877 40.1829 52.5105 40.213 52.5231 40.2478C52.5358 40.2825 52.5377 40.3202 52.5286 40.356C52.5201 40.389 52.5209 40.4237 52.5308 40.4562C52.5408 40.4888 52.5594 40.518 52.5848 40.5407C52.6102 40.5634 52.6413 40.5787 52.6747 40.5849C52.7082 40.5911 52.7427 40.5881 52.7746 40.576C52.8095 40.5633 52.8475 40.5613 52.8836 40.5704C52.9198 40.5795 52.9523 40.5992 52.9771 40.627C53.0018 40.6548 53.0177 40.6894 53.0226 40.7263C53.0275 40.7632 53.0212 40.8007 53.0046 40.834C52.9891 40.865 52.9826 40.8996 52.9858 40.934C52.9889 40.9684 53.0016 41.0012 53.0223 41.0289C53.0431 41.0565 53.0711 41.0778 53.1033 41.0903C53.1355 41.1029 53.1706 41.1063 53.2046 41.1C53.2411 41.0951 53.2783 41.1012 53.3114 41.1175C53.3445 41.1337 53.372 41.1595 53.3904 41.1914C53.4089 41.2233 53.4174 41.26 53.4149 41.2968C53.4124 41.3336 53.3991 41.3688 53.3766 41.398C53.3558 41.4247 53.3427 41.4564 53.3386 41.49C53.3345 41.5235 53.3396 41.5575 53.3534 41.5883C53.3671 41.6192 53.3891 41.6457 53.4167 41.665C53.4444 41.6843 53.4769 41.6957 53.5106 41.698C53.5475 41.7007 53.5828 41.7144 53.6119 41.7372C53.641 41.7601 53.6626 41.7911 53.674 41.8263C53.6854 41.8616 53.686 41.8994 53.6758 41.935C53.6655 41.9705 53.6449 42.0022 53.6166 42.026C53.5905 42.0477 53.5709 42.076 53.5597 42.108C53.5486 42.14 53.5464 42.1744 53.5534 42.2075C53.5604 42.2407 53.5763 42.2713 53.5994 42.296C53.6226 42.3208 53.652 42.3388 53.6846 42.348C53.7205 42.3581 53.7525 42.3787 53.7766 42.4072C53.8006 42.4357 53.8156 42.4707 53.8195 42.5078C53.8233 42.5449 53.816 42.5823 53.7984 42.6151C53.7807 42.648 53.7536 42.6748 53.7206 42.692C53.6909 42.7079 53.6661 42.7316 53.6488 42.7604C53.6315 42.7893 53.6223 42.8224 53.6223 42.856C53.6223 42.8897 53.6315 42.9227 53.6488 42.9516C53.6661 42.9805 53.6909 43.0041 53.7206 43.02C53.7536 43.0373 53.7807 43.0641 53.7984 43.0969C53.816 43.1298 53.8233 43.1672 53.8195 43.2043C53.8156 43.2413 53.8006 43.2764 53.7766 43.3049C53.7525 43.3334 53.7205 43.354 53.6846 43.364C53.652 43.3729 53.6224 43.3906 53.5992 43.4152C53.576 43.4398 53.56 43.4702 53.553 43.5033C53.546 43.5364 53.5482 43.5707 53.5594 43.6026C53.5706 43.6345 53.5904 43.6626 53.6166 43.684C53.6447 43.7081 53.665 43.74 53.6751 43.7756C53.6852 43.8112 53.6845 43.849 53.6732 43.8842C53.6619 43.9195 53.6404 43.9506 53.6115 43.9737C53.5825 43.9968 53.5474 44.0108 53.5106 44.014C53.4769 44.0163 53.4444 44.0277 53.4167 44.0471C53.3891 44.0664 53.3671 44.0929 53.3534 44.1237C53.3396 44.1546 53.3345 44.1886 53.3386 44.2221C53.3427 44.2556 53.3558 44.2874 53.3766 44.314C53.3991 44.3432 53.4124 44.3784 53.4149 44.4152C53.4174 44.452 53.4089 44.4887 53.3904 44.5207C53.372 44.5526 53.3445 44.5783 53.3114 44.5946C53.2783 44.6109 53.2411 44.6169 53.2046 44.612C53.1706 44.6058 53.1355 44.6091 53.1033 44.6217C53.0711 44.6343 53.0431 44.6556 53.0223 44.6832C53.0016 44.7108 52.9889 44.7437 52.9858 44.7781C52.9826 44.8125 52.9891 44.8471 53.0046 44.878C53.0206 44.9113 53.0264 44.9485 53.0212 44.985C53.016 45.0215 53.0001 45.0557 52.9754 45.0831C52.9507 45.1106 52.9185 45.1301 52.8827 45.1391C52.847 45.1482 52.8093 45.1464 52.7746 45.134C52.7428 45.1227 52.7085 45.1202 52.6754 45.1267C52.6422 45.1332 52.6115 45.1485 52.5863 45.171C52.5611 45.1936 52.5425 45.2224 52.5323 45.2546C52.5222 45.2868 52.5209 45.3212 52.5286 45.354C52.5366 45.3897 52.534 45.4269 52.5211 45.461C52.5081 45.4952 52.4854 45.5247 52.4558 45.5461C52.4261 45.5674 52.3909 45.5795 52.3544 45.5809C52.3179 45.5824 52.2818 45.573 52.2506 45.554C52.2219 45.5357 52.1888 45.5256 52.1549 45.5248C52.1209 45.524 52.0874 45.5325 52.0579 45.5494C52.0284 45.5663 52.0041 45.591 51.9877 45.6207C51.9712 45.6504 51.9632 45.6841 51.9646 45.718C51.9666 45.7552 51.9573 45.7922 51.9379 45.824C51.9184 45.8558 51.8898 45.881 51.8558 45.8961C51.8217 45.9113 51.7839 45.9158 51.7472 45.909C51.7106 45.9022 51.6769 45.8844 51.6506 45.858C51.6262 45.8347 51.596 45.8184 51.5632 45.8109C51.5303 45.8034 51.496 45.8049 51.464 45.8154C51.4319 45.8259 51.4033 45.8449 51.3812 45.8704C51.3592 45.8958 51.3444 45.9268 51.3386 45.96C51.3323 45.9967 51.3152 46.0307 51.2894 46.0575C51.2636 46.0844 51.2304 46.1029 51.194 46.1106C51.1576 46.1184 51.1197 46.115 51.0852 46.101C51.0507 46.087 51.0212 46.063 51.0006 46.032C50.9818 46.0037 50.9557 45.981 50.9249 45.9665C50.8942 45.952 50.8601 45.9461 50.8263 45.9496C50.7925 45.9532 50.7603 45.9659 50.7332 45.9864C50.7061 46.0069 50.6851 46.0344 50.6726 46.066C50.6593 46.1009 50.6358 46.1309 50.605 46.1521C50.5743 46.1733 50.5379 46.1847 50.5006 46.1847C50.4632 46.1847 50.4268 46.1733 50.3961 46.1521C50.3654 46.1309 50.3418 46.1009 50.3286 46.066C50.316 46.0344 50.2951 46.0069 50.268 45.9864C50.2409 45.9659 50.2087 45.9532 50.1749 45.9496C50.1411 45.9461 50.1069 45.952 50.0762 45.9665C50.0455 45.981 50.0193 46.0037 50.0006 46.032C49.9799 46.063 49.9504 46.087 49.9159 46.101C49.8814 46.115 49.8436 46.1184 49.8072 46.1106C49.7708 46.1029 49.7375 46.0844 49.7117 46.0575C49.686 46.0307 49.6688 45.9967 49.6626 45.96C49.6567 45.9268 49.642 45.8958 49.6199 45.8704C49.5978 45.8449 49.5692 45.8259 49.5372 45.8154C49.5051 45.8049 49.4708 45.8034 49.438 45.8109C49.4051 45.8184 49.3749 45.8347 49.3506 45.858C49.3242 45.8844 49.2905 45.9022 49.2539 45.909C49.2173 45.9158 49.1794 45.9113 49.1454 45.8961C49.1113 45.881 49.0827 45.8558 49.0633 45.824C49.0438 45.7922 49.0345 45.7552 49.0366 45.718C49.0379 45.6841 49.0299 45.6504 49.0134 45.6207C48.997 45.591 48.9727 45.5663 48.9432 45.5494C48.9138 45.5325 48.8802 45.524 48.8463 45.5248C48.8123 45.5256 48.7792 45.5357 48.7506 45.554C48.7194 45.573 48.6833 45.5824 48.6468 45.5809C48.6103 45.5795 48.575 45.5674 48.5454 45.5461C48.5157 45.5247 48.493 45.4952 48.4801 45.461C48.4671 45.4269 48.4645 45.3897 48.4726 45.354C48.4803 45.3212 48.479 45.2868 48.4688 45.2546C48.4587 45.2224 48.44 45.1936 48.4148 45.171C48.3897 45.1485 48.3589 45.1332 48.3258 45.1267C48.2927 45.1202 48.2584 45.1227 48.2266 45.134C48.1918 45.1464 48.1542 45.1482 48.1184 45.1391C48.0827 45.1301 48.0504 45.1106 48.0257 45.0831C48.0011 45.0557 47.9851 45.0215 47.98 44.985C47.9748 44.9485 47.9805 44.9113 47.9966 44.878C48.012 44.8471 48.0185 44.8125 48.0154 44.7781C48.0122 44.7437 47.9996 44.7108 47.9788 44.6832C47.958 44.6556 47.93 44.6343 47.8978 44.6217C47.8656 44.6091 47.8306 44.6058 47.7966 44.612C47.76 44.6169 47.7228 44.6109 47.6897 44.5946C47.6567 44.5783 47.6291 44.5526 47.6107 44.5207C47.5923 44.4887 47.5838 44.452 47.5862 44.4152C47.5887 44.3784 47.602 44.3432 47.6246 44.314C47.6453 44.2874 47.6585 44.2556 47.6626 44.2221C47.6667 44.1886 47.6615 44.1546 47.6478 44.1237C47.634 44.0929 47.6121 44.0664 47.5844 44.0471C47.5567 44.0277 47.5243 44.0163 47.4906 44.014C47.4537 44.0108 47.4186 43.9968 47.3897 43.9737C47.3607 43.9506 47.3393 43.9195 47.328 43.8842C47.3166 43.849 47.316 43.8112 47.326 43.7756C47.3361 43.74 47.3565 43.7081 47.3846 43.684C47.4107 43.6626 47.4305 43.6345 47.4417 43.6026C47.4529 43.5707 47.4552 43.5364 47.4481 43.5033C47.4411 43.4702 47.4251 43.4398 47.4019 43.4152C47.3787 43.3906 47.3492 43.3729 47.3166 43.364C47.2807 43.354 47.2486 43.3334 47.2245 43.3049C47.2005 43.2764 47.1856 43.2413 47.1817 43.2043C47.1778 43.1672 47.1851 43.1298 47.2028 43.0969C47.2204 43.0641 47.2475 43.0373 47.2806 43.02C47.3103 43.0041 47.3351 42.9805 47.3524 42.9516C47.3697 42.9227 47.3788 42.8897 47.3788 42.856C47.3788 42.8224 47.3697 42.7893 47.3524 42.7604C47.3351 42.7316 47.3103 42.7079 47.2806 42.692C47.2475 42.6748 47.2204 42.648 47.2028 42.6151C47.1851 42.5823 47.1778 42.5449 47.1817 42.5078C47.1856 42.4707 47.2005 42.4357 47.2245 42.4072C47.2486 42.3787 47.2807 42.3581 47.3166 42.348C47.3491 42.3388 47.3786 42.3208 47.4017 42.296C47.4248 42.2713 47.4407 42.2407 47.4477 42.2075C47.4547 42.1744 47.4525 42.14 47.4414 42.108C47.4303 42.076 47.4106 42.0477 47.3846 42.026C47.3562 42.0022 47.3356 41.9705 47.3254 41.935C47.3151 41.8994 47.3157 41.8616 47.3271 41.8263C47.3385 41.7911 47.3601 41.7601 47.3893 41.7372C47.4184 41.7144 47.4536 41.7007 47.4906 41.698C47.5243 41.6957 47.5567 41.6843 47.5844 41.665C47.6121 41.6457 47.634 41.6192 47.6478 41.5883C47.6615 41.5575 47.6667 41.5235 47.6626 41.49C47.6585 41.4564 47.6453 41.4247 47.6246 41.398C47.602 41.3688 47.5887 41.3336 47.5862 41.2968C47.5838 41.26 47.5923 41.2233 47.6107 41.1914C47.6291 41.1595 47.6567 41.1337 47.6897 41.1175C47.7228 41.1012 47.76 41.0951 47.7966 41.1C47.8306 41.1063 47.8656 41.1029 47.8978 41.0903C47.93 41.0778 47.958 41.0565 47.9788 41.0289C47.9996 41.0012 48.0122 40.9684 48.0154 40.934C48.0185 40.8996 48.012 40.865 47.9966 40.834C47.9799 40.8007 47.9736 40.7632 47.9785 40.7263C47.9834 40.6894 47.9993 40.6548 48.0241 40.627C48.0488 40.5992 48.0814 40.5795 48.1175 40.5704C48.1536 40.5613 48.1916 40.5633 48.2266 40.576C48.2584 40.5881 48.2929 40.5911 48.3264 40.5849C48.3599 40.5787 48.391 40.5634 48.4163 40.5407C48.4417 40.518 48.4604 40.4888 48.4703 40.4562C48.4802 40.4237 48.481 40.389 48.4726 40.356C48.4635 40.3202 48.4654 40.2825 48.478 40.2478C48.4906 40.213 48.5134 40.1829 48.5434 40.1613C48.5734 40.1398 48.6092 40.1277 48.6462 40.1268C48.6831 40.1258 48.7195 40.136 48.7506 40.156C48.7792 40.1743 48.8123 40.1844 48.8463 40.1852C48.8802 40.186 48.9138 40.1775 48.9432 40.1606C48.9727 40.1437 48.997 40.1191 49.0134 40.0894C49.0299 40.0596 49.0379 40.026 49.0366 39.992C49.0345 39.9548 49.0438 39.9179 49.0633 39.8861C49.0827 39.8543 49.1113 39.8291 49.1454 39.8139C49.1794 39.7987 49.2173 39.7943 49.2539 39.8011C49.2905 39.8079 49.3242 39.8256 49.3506 39.852C49.3749 39.8754 49.4051 39.8917 49.438 39.8992C49.4708 39.9067 49.5051 39.9051 49.5372 39.8946C49.5692 39.8842 49.5978 39.8652 49.6199 39.8397C49.642 39.8142 49.6567 39.7832 49.6626 39.75C49.6688 39.7133 49.686 39.6794 49.7117 39.6525C49.7375 39.6257 49.7708 39.6072 49.8072 39.5994C49.8436 39.5917 49.8814 39.595 49.9159 39.609C49.9504 39.6231 49.9799 39.6471 50.0006 39.678C50.0193 39.7064 50.0455 39.729 50.0762 39.7436C50.1069 39.7581 50.1411 39.7639 50.1749 39.7604C50.2087 39.7569 50.2409 39.7442 50.268 39.7237C50.2951 39.7032 50.316 39.6756 50.3286 39.644C50.3418 39.6091 50.3654 39.5791 50.3961 39.5579C50.4268 39.5367 50.4632 39.5254 50.5006 39.5254C50.5379 39.5254 50.5743 39.5367 50.605 39.5579C50.6358 39.5791 50.6593 39.6091 50.6726 39.644Z" fill="#0085FF"/>
<path d="M51.6797 45.4896C53.1306 44.8379 53.7785 43.1333 53.1267 41.6824C52.475 40.2315 50.7704 39.5836 49.3195 40.2354C47.8686 40.8872 47.2207 42.5917 47.8725 44.0426C48.5243 45.4936 50.2288 46.1414 51.6797 45.4896Z" fill="white"/>
<path d="M50.5007 45.5522C49.9674 45.5522 49.4461 45.394 49.0027 45.0977C48.5593 44.8013 48.2137 44.3802 48.0097 43.8874C47.8057 43.3947 47.7525 42.8525 47.8566 42.3295C47.9608 41.8064 48.2178 41.3261 48.595 40.9491C48.9723 40.5721 49.4528 40.3155 49.976 40.2117C50.4991 40.1079 51.0412 40.1616 51.5338 40.366C52.0264 40.5703 52.4473 40.9162 52.7433 41.3598C53.0393 41.8034 53.1971 42.3249 53.1967 42.8582C53.1956 43.5727 52.9112 44.2576 52.4058 44.7626C51.9003 45.2677 51.2152 45.5516 50.5007 45.5522ZM50.5007 40.2622C49.9865 40.2622 49.4838 40.4146 49.0562 40.7003C48.6286 40.986 48.2954 41.3921 48.0986 41.8672C47.9018 42.3423 47.8503 42.865 47.9506 43.3694C48.051 43.8737 48.2986 44.337 48.6622 44.7006C49.0258 45.0643 49.4891 45.3119 49.9935 45.4122C50.4978 45.5125 51.0206 45.461 51.4957 45.2642C51.9708 45.0675 52.3768 44.7342 52.6625 44.3066C52.9482 43.8791 53.1007 43.3764 53.1007 42.8622C53.1007 42.1726 52.8268 41.5113 52.3392 41.0237C51.8516 40.5361 51.1903 40.2622 50.5007 40.2622Z" fill="#0085FF"/>
<path d="M54.8719 42.0298H46.1279V43.6858H54.8719V42.0298Z" fill="white"/>
<path d="M47.2783 42.8739C47.2804 42.7475 47.3321 42.6269 47.4223 42.5382C47.5125 42.4496 47.6339 42.3999 47.7603 42.3999C47.8702 42.3993 47.9771 42.4352 48.0643 42.5019C48.079 42.515 48.0884 42.5331 48.0906 42.5526C48.0928 42.5722 48.0877 42.5919 48.0763 42.6079C48.0641 42.6232 48.0465 42.6331 48.0271 42.6357C48.0078 42.6383 47.9881 42.6334 47.9723 42.6219C47.9125 42.5735 47.8373 42.548 47.7603 42.5499C47.6726 42.5502 47.5882 42.5838 47.5243 42.6439C47.494 42.6736 47.4699 42.7091 47.4534 42.7483C47.4369 42.7874 47.4284 42.8294 47.4283 42.8719C47.428 42.9144 47.4364 42.9566 47.4529 42.9958C47.4694 43.035 47.4937 43.0704 47.5243 43.0999C47.588 43.1606 47.6723 43.1949 47.7603 43.1959C47.8375 43.1968 47.9125 43.1706 47.9723 43.1219C47.9885 43.1111 48.0082 43.1068 48.0274 43.1097C48.0467 43.1127 48.0641 43.1227 48.0763 43.1379C48.0876 43.1536 48.0926 43.173 48.0904 43.1922C48.0881 43.2114 48.0789 43.2292 48.0643 43.2419C47.9771 43.3086 47.8702 43.3445 47.7603 43.3439C47.6344 43.3445 47.5133 43.2955 47.4231 43.2076C47.3329 43.1197 47.2809 42.9998 47.2783 42.8739Z" fill="#0085FF"/>
<path d="M48.332 43.2737V42.4997C48.332 42.4903 48.3339 42.4809 48.3375 42.4722C48.3411 42.4634 48.3464 42.4555 48.3531 42.4488C48.3598 42.4421 48.3677 42.4368 48.3765 42.4332C48.3852 42.4296 48.3946 42.4277 48.404 42.4277H48.834C48.8513 42.4306 48.867 42.4395 48.8784 42.4529C48.8897 42.4663 48.8959 42.4832 48.8959 42.5007C48.8959 42.5183 48.8897 42.5352 48.8784 42.5486C48.867 42.5619 48.8513 42.5709 48.834 42.5737H48.478V42.8137H48.784C48.8013 42.8166 48.817 42.8255 48.8284 42.8389C48.8397 42.8523 48.8459 42.8692 48.8459 42.8867C48.8459 42.9043 48.8397 42.9212 48.8284 42.9346C48.817 42.948 48.8013 42.9569 48.784 42.9597H48.478V43.1997H48.834C48.8531 43.1997 48.8714 43.2073 48.8849 43.2208C48.8984 43.2343 48.906 43.2526 48.906 43.2717C48.906 43.2908 48.8984 43.3091 48.8849 43.3226C48.8714 43.3361 48.8531 43.3437 48.834 43.3437H48.404C48.3853 43.3437 48.3673 43.3364 48.3538 43.3234C48.3404 43.3103 48.3326 43.2925 48.332 43.2737Z" fill="#0085FF"/>
<path d="M49.7441 43.2377C49.7472 43.2468 49.7485 43.2564 49.7479 43.2659C49.7473 43.2755 49.7447 43.2848 49.7404 43.2934C49.7362 43.302 49.7302 43.3096 49.7229 43.3158C49.7157 43.3221 49.7072 43.3268 49.6981 43.3297H49.6701C49.6524 43.3301 49.635 43.3252 49.6201 43.3157C49.6026 43.304 49.5882 43.2882 49.5781 43.2697C49.557 43.2198 49.5474 43.1658 49.5501 43.1117C49.5502 43.0919 49.5447 43.0725 49.5341 43.0557C49.5244 43.0397 49.5106 43.0266 49.4941 43.0177C49.4726 43.0021 49.4481 42.9912 49.4221 42.9857H49.2661V43.2697C49.2632 43.287 49.2543 43.3027 49.241 43.3141C49.2276 43.3254 49.2106 43.3316 49.1931 43.3316C49.1756 43.3316 49.1586 43.3254 49.1453 43.3141C49.1319 43.3027 49.123 43.287 49.1201 43.2697V42.4997C49.1201 42.4806 49.1277 42.4623 49.1412 42.4488C49.1547 42.4353 49.173 42.4277 49.1921 42.4277H49.4281C49.4651 42.4277 49.5016 42.435 49.5357 42.4492C49.5698 42.4634 49.6008 42.4842 49.6268 42.5104C49.6528 42.5367 49.6734 42.5678 49.6874 42.602C49.7013 42.6362 49.7084 42.6728 49.7081 42.7097C49.7084 42.7511 49.6994 42.792 49.6817 42.8293C49.664 42.8667 49.6382 42.8997 49.6061 42.9257C49.6248 42.9381 49.6405 42.9545 49.6521 42.9737C49.6808 43.0155 49.6962 43.065 49.6961 43.1157C49.6933 43.1417 49.6933 43.1678 49.6961 43.1937C49.7072 43.1965 49.7173 43.2019 49.7257 43.2096C49.7341 43.2173 49.7404 43.227 49.7441 43.2377ZM49.5621 42.7097C49.5621 42.6919 49.5586 42.6742 49.5518 42.6577C49.5449 42.6412 49.5349 42.6262 49.5223 42.6136C49.5097 42.6009 49.4947 42.5909 49.4782 42.5841C49.4617 42.5773 49.444 42.5737 49.4261 42.5737H49.2641V42.8437H49.4261C49.4618 42.8437 49.4961 42.8297 49.5216 42.8046C49.547 42.7795 49.5616 42.7455 49.5621 42.7097Z" fill="#0085FF"/>
<path d="M50.5001 42.5738H50.2901V43.2738C50.2903 43.2833 50.2887 43.2928 50.2851 43.3016C50.2816 43.3105 50.2763 43.3186 50.2696 43.3253C50.2628 43.332 50.2548 43.3373 50.2459 43.3408C50.2371 43.3444 50.2276 43.346 50.2181 43.3458C50.2086 43.3458 50.1992 43.3439 50.1905 43.3403C50.1818 43.3367 50.1738 43.3314 50.1671 43.3247C50.1605 43.318 50.1552 43.3101 50.1515 43.3013C50.1479 43.2926 50.1461 43.2832 50.1461 43.2738V42.5738H49.9461C49.9364 42.5738 49.9269 42.5718 49.918 42.5681C49.9092 42.5644 49.9011 42.5589 49.8944 42.552C49.8877 42.5451 49.8824 42.5369 49.879 42.5279C49.8755 42.519 49.8738 42.5094 49.8741 42.4998C49.8738 42.4902 49.8755 42.4807 49.879 42.4719C49.8825 42.463 49.8878 42.455 49.8945 42.4482C49.9013 42.4415 49.9093 42.4362 49.9182 42.4327C49.927 42.4292 49.9365 42.4275 49.9461 42.4278H50.5001C50.5191 42.4278 50.5375 42.4353 50.551 42.4489C50.5645 42.4624 50.5721 42.4807 50.5721 42.4998C50.5721 42.519 50.5645 42.5376 50.5511 42.5514C50.5376 42.5652 50.5193 42.5732 50.5001 42.5738Z" fill="#0085FF"/>
<path d="M50.792 42.4997C50.792 42.4806 50.7996 42.4623 50.8131 42.4488C50.8266 42.4353 50.8449 42.4277 50.864 42.4277C50.8833 42.4277 50.9018 42.4352 50.9157 42.4487C50.9295 42.4621 50.9375 42.4805 50.938 42.4997V43.2737C50.938 43.2834 50.9361 43.2929 50.9324 43.3018C50.9286 43.3106 50.9231 43.3187 50.9162 43.3254C50.9093 43.3321 50.9012 43.3373 50.8922 43.3408C50.8832 43.3443 50.8736 43.346 50.864 43.3457C50.8545 43.346 50.845 43.3443 50.8361 43.3408C50.8273 43.3373 50.8192 43.332 50.8125 43.3253C50.8058 43.3185 50.8005 43.3105 50.7969 43.3016C50.7934 43.2928 50.7917 43.2833 50.792 43.2737V42.4997Z" fill="#0085FF"/>
<path d="M51.1846 43.2737V42.4997C51.1846 42.4903 51.1864 42.4809 51.1901 42.4722C51.1937 42.4634 51.199 42.4555 51.2057 42.4488C51.2123 42.4421 51.2203 42.4368 51.229 42.4332C51.2378 42.4296 51.2471 42.4277 51.2566 42.4277H51.6866C51.7055 42.4282 51.7235 42.436 51.7369 42.4494C51.7503 42.4628 51.7581 42.4808 51.7586 42.4997C51.7586 42.519 51.7511 42.5375 51.7376 42.5514C51.7242 42.5652 51.7058 42.5732 51.6866 42.5737H51.3306V42.8137H51.6366C51.6539 42.8166 51.6696 42.8255 51.6809 42.8389C51.6922 42.8523 51.6984 42.8692 51.6984 42.8867C51.6984 42.9043 51.6922 42.9212 51.6809 42.9346C51.6696 42.948 51.6539 42.9569 51.6366 42.9597H51.3306V43.2737C51.33 43.293 51.322 43.3113 51.3082 43.3248C51.2944 43.3382 51.2759 43.3457 51.2566 43.3457C51.2471 43.3457 51.2378 43.3439 51.229 43.3403C51.2203 43.3366 51.2123 43.3313 51.2057 43.3246C51.199 43.318 51.1937 43.31 51.1901 43.3013C51.1864 43.2926 51.1846 43.2832 51.1846 43.2737Z" fill="#0085FF"/>
<path d="M51.9883 42.4997C51.9883 42.4806 51.9959 42.4623 52.0094 42.4488C52.0229 42.4353 52.0412 42.4277 52.0603 42.4277C52.0796 42.4277 52.0981 42.4352 52.1119 42.4487C52.1258 42.4621 52.1338 42.4805 52.1343 42.4997V43.2737C52.1343 43.2834 52.1324 43.2929 52.1286 43.3018C52.1249 43.3106 52.1194 43.3187 52.1125 43.3254C52.1056 43.3321 52.0974 43.3373 52.0885 43.3408C52.0795 43.3443 52.0699 43.346 52.0603 43.3457C52.0508 43.346 52.0413 43.3443 52.0324 43.3408C52.0236 43.3373 52.0155 43.332 52.0088 43.3253C52.002 43.3185 51.9968 43.3105 51.9932 43.3016C51.9897 43.2928 51.988 43.2833 51.9883 43.2737V42.4997Z" fill="#0085FF"/>
<path d="M52.3799 43.2738V42.4998C52.3796 42.4902 52.3813 42.4807 52.3848 42.4719C52.3884 42.463 52.3936 42.455 52.4004 42.4482C52.4071 42.4415 52.4152 42.4362 52.424 42.4327C52.4329 42.4292 52.4424 42.4275 52.4519 42.4278H52.8799C52.8972 42.4306 52.9129 42.4395 52.9242 42.4529C52.9356 42.4663 52.9418 42.4832 52.9418 42.5008C52.9418 42.5183 52.9356 42.5352 52.9242 42.5486C52.9129 42.562 52.8972 42.5709 52.8799 42.5738H52.5239V42.8138H52.8299C52.8472 42.8166 52.8629 42.8255 52.8742 42.8389C52.8856 42.8523 52.8918 42.8692 52.8918 42.8868C52.8918 42.9043 52.8856 42.9212 52.8742 42.9346C52.8629 42.948 52.8472 42.9569 52.8299 42.9598H52.5239V43.1998H52.8799C52.899 43.1998 52.9173 43.2073 52.9308 43.2209C52.9443 43.2344 52.9519 43.2527 52.9519 43.2718C52.9519 43.2909 52.9443 43.3092 52.9308 43.3227C52.9173 43.3362 52.899 43.3438 52.8799 43.3438H52.4519C52.4426 43.344 52.4332 43.3424 52.4245 43.339C52.4158 43.3356 52.4078 43.3305 52.4011 43.324C52.3944 43.3175 52.3891 43.3096 52.3854 43.301C52.3818 43.2924 52.3799 43.2831 52.3799 43.2738Z" fill="#0085FF"/>
<path d="M53.1582 43.2737V42.4997C53.1582 42.4903 53.1601 42.4809 53.1637 42.4722C53.1673 42.4634 53.1726 42.4555 53.1793 42.4488C53.186 42.4421 53.1939 42.4368 53.2026 42.4332C53.2114 42.4296 53.2207 42.4277 53.2302 42.4277H53.3862C53.5027 42.4354 53.6119 42.4871 53.6917 42.5724C53.7715 42.6576 53.8159 42.77 53.8159 42.8867C53.8159 43.0035 53.7715 43.1159 53.6917 43.2011C53.6119 43.2863 53.5027 43.338 53.3862 43.3457H53.2302C53.2207 43.3457 53.2114 43.3439 53.2026 43.3403C53.1939 43.3366 53.186 43.3313 53.1793 43.3246C53.1726 43.318 53.1673 43.31 53.1637 43.3013C53.1601 43.2926 53.1582 43.2832 53.1582 43.2737ZM53.3002 43.1997H53.3822C53.4653 43.1987 53.5447 43.1649 53.6031 43.1058C53.6615 43.0466 53.6942 42.9669 53.6942 42.8837C53.6942 42.801 53.6613 42.7216 53.6028 42.6631C53.5443 42.6046 53.4649 42.5717 53.3822 42.5717H53.3002V43.1997Z" fill="#0085FF"/>
<path d="M80.49 58.6517L82.294 56.4817L85.04 57.1257L81.676 47.0977L77.126 48.6257L80.49 58.6517Z" fill="#455A64"/>
<path d="M78.796 53.5977L77.126 48.6257L81.676 47.0977L78.796 53.5977Z" fill="#37474F"/>
<path d="M81.0879 47.298L84.3279 56.958L84.4279 56.982L81.1699 47.27L81.0879 47.298Z" fill="white"/>
<path d="M77.6318 48.4557L80.8898 58.1677L80.9578 58.0897L77.7158 48.4277L77.6318 48.4557Z" fill="white"/>
<path d="M71.9678 58.6357L74.6718 57.8317L76.5998 59.8917L79.7278 48.3537L75.0978 47.0977L71.9678 58.6357Z" fill="#455A64"/>
<path d="M79.1286 48.1938L76.1006 59.3578L76.1706 59.4318L79.2126 48.2158L79.1286 48.1938Z" fill="white"/>
<path d="M75.6123 47.2397L72.5703 58.4557L72.6683 58.4277L75.6983 47.2617L75.6123 47.2397Z" fill="white"/>
<path d="M78.9006 35.9239C78.9292 35.9951 78.9766 36.0571 79.0378 36.1034C79.0991 36.1496 79.1718 36.1783 79.2481 36.1863C79.3244 36.1944 79.4014 36.1814 79.471 36.1489C79.5405 36.1164 79.5998 36.0656 79.6426 36.0019C79.6896 35.9319 79.7565 35.8777 79.8347 35.8461C79.9128 35.8146 79.9986 35.8072 80.081 35.8248C80.1634 35.8424 80.2387 35.8844 80.2971 35.9451C80.3554 36.0059 80.3943 36.0828 80.4086 36.1659C80.4218 36.2415 80.4553 36.3121 80.5057 36.3701C80.556 36.428 80.6212 36.4712 80.6942 36.4948C80.7673 36.5185 80.8454 36.5218 80.9202 36.5044C80.9949 36.4869 81.0635 36.4494 81.1186 36.3959C81.179 36.3371 81.2556 36.2977 81.3386 36.2829C81.4216 36.2681 81.5071 36.2784 81.5841 36.3126C81.6612 36.3469 81.7262 36.4034 81.7708 36.4749C81.8155 36.5464 81.8377 36.6296 81.8346 36.7139C81.8316 36.7906 81.8495 36.8667 81.8866 36.934C81.9236 37.0013 81.9783 37.0571 82.0448 37.0956C82.1113 37.1341 82.187 37.1537 82.2638 37.1524C82.3406 37.151 82.4155 37.1287 82.4806 37.0879C82.5519 37.043 82.635 37.0205 82.7192 37.0233C82.8034 37.0261 82.8849 37.054 82.9531 37.1035C83.0213 37.153 83.0731 37.2217 83.1019 37.3009C83.1307 37.3801 83.1351 37.4661 83.1146 37.5479C83.0955 37.6225 83.0972 37.7009 83.1195 37.7747C83.1419 37.8484 83.184 37.9146 83.2412 37.9661C83.2985 38.0176 83.3688 38.0525 83.4445 38.0669C83.5202 38.0813 83.5984 38.0747 83.6706 38.0479C83.7497 38.0189 83.8356 38.0143 83.9174 38.0346C83.9991 38.0549 84.0729 38.0992 84.1292 38.1618C84.1856 38.2244 84.2219 38.3024 84.2336 38.3858C84.2452 38.4692 84.2316 38.5542 84.1946 38.6299C84.1617 38.6986 84.1481 38.7749 84.1552 38.8507C84.1622 38.9266 84.1896 38.9991 84.2345 39.0606C84.2794 39.1221 84.3401 39.1703 84.4102 39.2001C84.4803 39.2299 84.5571 39.2402 84.6326 39.2299C84.7166 39.2159 84.8029 39.2278 84.88 39.2638C84.9572 39.2999 85.0217 39.3584 85.0649 39.4318C85.1082 39.5051 85.1283 39.5899 85.1225 39.6748C85.1167 39.7598 85.0854 39.841 85.0326 39.9079C84.9851 39.9683 84.9549 40.0405 84.9455 40.1167C84.936 40.193 84.9475 40.2704 84.9788 40.3406C85.0101 40.4108 85.0599 40.4711 85.123 40.515C85.186 40.5589 85.2599 40.5848 85.3366 40.5899C85.4209 40.5953 85.5016 40.626 85.5683 40.6778C85.635 40.7297 85.6846 40.8004 85.7107 40.8808C85.7367 40.9611 85.7381 41.0475 85.7145 41.1286C85.691 41.2097 85.6436 41.2819 85.5786 41.3359C85.5196 41.3851 85.4752 41.4495 85.4502 41.5221C85.4252 41.5947 85.4204 41.6728 85.4365 41.7479C85.4525 41.823 85.4888 41.8923 85.5413 41.9483C85.5938 42.0044 85.6606 42.045 85.7346 42.0659C85.8159 42.0887 85.8885 42.1354 85.943 42.2C85.9975 42.2646 86.0314 42.344 86.0402 42.428C86.0491 42.5121 86.0325 42.5968 85.9926 42.6713C85.9527 42.7458 85.8914 42.8066 85.8166 42.8459C85.7488 42.8817 85.692 42.9354 85.6524 43.0011C85.6129 43.0669 85.5919 43.1421 85.5919 43.2189C85.5919 43.2956 85.6129 43.3708 85.6524 43.4366C85.692 43.5023 85.7488 43.556 85.8166 43.5919C85.8914 43.6311 85.9527 43.6919 85.9926 43.7664C86.0325 43.8409 86.0491 43.9256 86.0402 44.0097C86.0314 44.0937 85.9975 44.1732 85.943 44.2377C85.8885 44.3023 85.8159 44.349 85.7346 44.3719C85.6606 44.3927 85.5938 44.4333 85.5413 44.4894C85.4888 44.5454 85.4525 44.6147 85.4365 44.6898C85.4204 44.7649 85.4252 44.843 85.4502 44.9156C85.4752 44.9882 85.5196 45.0526 85.5786 45.1019C85.6439 45.1555 85.6915 45.2275 85.7153 45.3086C85.739 45.3897 85.7377 45.4761 85.7116 45.5565C85.6854 45.6368 85.6357 45.7075 85.5688 45.7591C85.5019 45.8107 85.4209 45.841 85.3366 45.8459C85.2599 45.8509 85.186 45.8768 85.123 45.9207C85.0599 45.9646 85.0101 46.025 84.9788 46.0951C84.9475 46.1653 84.936 46.2427 84.9455 46.319C84.9549 46.3952 84.9851 46.4675 85.0326 46.5279C85.0861 46.5946 85.1181 46.6761 85.1242 46.7615C85.1304 46.8468 85.1105 46.932 85.0671 47.0058C85.0237 47.0796 84.9589 47.1384 84.8813 47.1745C84.8037 47.2106 84.7169 47.2222 84.6326 47.2079C84.5571 47.1975 84.4803 47.2078 84.4102 47.2376C84.3401 47.2674 84.2794 47.3156 84.2345 47.3771C84.1896 47.4387 84.1622 47.5112 84.1552 47.587C84.1481 47.6628 84.1617 47.7391 84.1946 47.8079C84.2316 47.8835 84.2452 47.9685 84.2336 48.0519C84.2219 48.1353 84.1856 48.2133 84.1292 48.2759C84.0729 48.3385 83.9991 48.3828 83.9174 48.4031C83.8356 48.4234 83.7497 48.4188 83.6706 48.3899C83.5984 48.363 83.5202 48.3564 83.4445 48.3708C83.3688 48.3852 83.2985 48.4201 83.2412 48.4716C83.184 48.5231 83.1419 48.5893 83.1195 48.663C83.0972 48.7368 83.0955 48.8152 83.1146 48.8899C83.1351 48.9716 83.1307 49.0576 83.1019 49.1368C83.0731 49.216 83.0213 49.2847 82.9531 49.3342C82.8849 49.3837 82.8034 49.4116 82.7192 49.4144C82.635 49.4172 82.5519 49.3947 82.4806 49.3499C82.4155 49.309 82.3406 49.2867 82.2638 49.2854C82.187 49.284 82.1113 49.3036 82.0448 49.3421C81.9783 49.3806 81.9236 49.4365 81.8866 49.5037C81.8495 49.571 81.8316 49.6471 81.8346 49.7239C81.8377 49.8081 81.8155 49.8913 81.7708 49.9628C81.7262 50.0344 81.6612 50.0909 81.5841 50.1251C81.5071 50.1593 81.4216 50.1697 81.3386 50.1548C81.2556 50.14 81.179 50.1006 81.1186 50.0419C81.0635 49.9883 80.9949 49.9508 80.9202 49.9334C80.8454 49.9159 80.7673 49.9192 80.6942 49.9429C80.6212 49.9665 80.556 50.0097 80.5057 50.0676C80.4553 50.1256 80.4218 50.1962 80.4086 50.2719C80.3943 50.3549 80.3554 50.4318 80.2971 50.4926C80.2387 50.5534 80.1634 50.5953 80.081 50.6129C79.9986 50.6306 79.9128 50.6231 79.8347 50.5916C79.7565 50.56 79.6896 50.5058 79.6426 50.4359C79.5998 50.3721 79.5405 50.3213 79.471 50.2888C79.4014 50.2563 79.3244 50.2434 79.2481 50.2514C79.1718 50.2594 79.0991 50.2881 79.0378 50.3343C78.9766 50.3806 78.9292 50.4426 78.9006 50.5139C78.8693 50.5923 78.8152 50.6595 78.7454 50.7069C78.6755 50.7543 78.593 50.7796 78.5086 50.7796C78.4241 50.7796 78.3417 50.7543 78.2718 50.7069C78.2019 50.6595 78.1478 50.5923 78.1166 50.5139C78.088 50.4426 78.0405 50.3806 77.9793 50.3343C77.9181 50.2881 77.8454 50.2594 77.7691 50.2514C77.6927 50.2434 77.6157 50.2563 77.5462 50.2888C77.4767 50.3213 77.4173 50.3721 77.3746 50.4359C77.3275 50.5058 77.2606 50.56 77.1825 50.5916C77.1043 50.6231 77.0185 50.6306 76.9361 50.6129C76.8537 50.5953 76.7785 50.5534 76.7201 50.4926C76.6617 50.4318 76.6229 50.3549 76.6086 50.2719C76.5954 50.1962 76.5618 50.1256 76.5115 50.0676C76.4611 50.0097 76.3959 49.9665 76.3229 49.9429C76.2498 49.9192 76.1717 49.9159 76.097 49.9334C76.0222 49.9508 75.9536 49.9883 75.8986 50.0419C75.8381 50.1006 75.7615 50.14 75.6785 50.1548C75.5956 50.1697 75.51 50.1593 75.433 50.1251C75.3559 50.0909 75.2909 50.0344 75.2463 49.9628C75.2017 49.8913 75.1795 49.8081 75.1826 49.7239C75.1851 49.6471 75.1668 49.571 75.1295 49.5038C75.0922 49.4367 75.0373 49.3809 74.9708 49.3425C74.9042 49.3041 74.8285 49.2845 74.7516 49.2858C74.6748 49.2871 74.5998 49.3092 74.5346 49.3499C74.4632 49.3947 74.3801 49.4172 74.2959 49.4144C74.2117 49.4116 74.1302 49.3837 74.062 49.3342C73.9938 49.2847 73.942 49.216 73.9132 49.1368C73.8845 49.0576 73.88 48.9716 73.9006 48.8899C73.9194 48.8154 73.9176 48.7373 73.8954 48.6638C73.8731 48.5904 73.8312 48.5244 73.7742 48.4729C73.7172 48.4215 73.6473 48.3866 73.5719 48.3719C73.4966 48.3573 73.4187 48.3635 73.3466 48.3899C73.2675 48.4188 73.1815 48.4234 73.0998 48.4031C73.018 48.3828 72.9442 48.3385 72.8879 48.2759C72.8315 48.2133 72.7952 48.1353 72.7836 48.0519C72.7719 47.9685 72.7855 47.8835 72.8226 47.8079C72.8554 47.7391 72.869 47.6628 72.862 47.587C72.8549 47.5112 72.8275 47.4387 72.7826 47.3771C72.7377 47.3156 72.677 47.2674 72.6069 47.2376C72.5369 47.2078 72.46 47.1975 72.3846 47.2079C72.3002 47.2222 72.2135 47.2106 72.1359 47.1745C72.0583 47.1384 71.9935 47.0796 71.9501 47.0058C71.9067 46.932 71.8867 46.8468 71.8929 46.7615C71.8991 46.6761 71.931 46.5946 71.9846 46.5279C72.0321 46.4675 72.0622 46.3952 72.0717 46.319C72.0811 46.2427 72.0696 46.1653 72.0383 46.0951C72.007 46.025 71.9572 45.9646 71.8941 45.9207C71.8311 45.8768 71.7572 45.8509 71.6806 45.8459C71.5962 45.841 71.5153 45.8107 71.4484 45.7591C71.3815 45.7075 71.3317 45.6368 71.3056 45.5565C71.2794 45.4761 71.2781 45.3897 71.3019 45.3086C71.3256 45.2275 71.3732 45.1555 71.4386 45.1019C71.4975 45.0526 71.5419 44.9882 71.5669 44.9156C71.592 44.843 71.5967 44.7649 71.5807 44.6898C71.5646 44.6147 71.5284 44.5454 71.4759 44.4894C71.4233 44.4333 71.3565 44.3927 71.2826 44.3719C71.2012 44.349 71.1286 44.3023 71.0741 44.2377C71.0196 44.1732 70.9858 44.0937 70.9769 44.0097C70.9681 43.9256 70.9847 43.8409 71.0246 43.7664C71.0644 43.6919 71.1257 43.6311 71.2006 43.5919C71.2684 43.556 71.3251 43.5023 71.3647 43.4366C71.4043 43.3708 71.4252 43.2956 71.4252 43.2189C71.4252 43.1421 71.4043 43.0669 71.3647 43.0011C71.3251 42.9354 71.2684 42.8817 71.2006 42.8459C71.1257 42.8066 71.0644 42.7458 71.0246 42.6713C70.9847 42.5968 70.9681 42.5121 70.9769 42.428C70.9858 42.344 71.0196 42.2646 71.0741 42.2C71.1286 42.1354 71.2012 42.0887 71.2826 42.0659C71.3565 42.045 71.4233 42.0044 71.4759 41.9483C71.5284 41.8923 71.5646 41.823 71.5807 41.7479C71.5967 41.6728 71.592 41.5947 71.5669 41.5221C71.5419 41.4495 71.4975 41.3851 71.4386 41.3359C71.3735 41.2819 71.3262 41.2097 71.3026 41.1286C71.2791 41.0475 71.2804 40.9611 71.3065 40.8808C71.3326 40.8004 71.3821 40.7297 71.4488 40.6778C71.5155 40.626 71.5963 40.5953 71.6806 40.5899C71.7572 40.5848 71.8311 40.5589 71.8941 40.515C71.9572 40.4711 72.007 40.4108 72.0383 40.3406C72.0696 40.2704 72.0811 40.193 72.0717 40.1167C72.0622 40.0405 72.0321 39.9683 71.9846 39.9079C71.9318 39.841 71.9004 39.7598 71.8946 39.6748C71.8888 39.5899 71.9089 39.5051 71.9522 39.4318C71.9955 39.3584 72.0599 39.2999 72.1371 39.2638C72.2143 39.2278 72.3005 39.2159 72.3846 39.2299C72.46 39.2402 72.5369 39.2299 72.6069 39.2001C72.677 39.1703 72.7377 39.1221 72.7826 39.0606C72.8275 38.9991 72.8549 38.9266 72.862 38.8507C72.869 38.7749 72.8554 38.6986 72.8226 38.6299C72.7855 38.5542 72.7719 38.4692 72.7836 38.3858C72.7952 38.3024 72.8315 38.2244 72.8879 38.1618C72.9442 38.0992 73.018 38.0549 73.0998 38.0346C73.1815 38.0143 73.2675 38.0189 73.3466 38.0479C73.4187 38.0742 73.4966 38.0804 73.5719 38.0658C73.6473 38.0512 73.7172 38.0162 73.7742 37.9648C73.8312 37.9134 73.8731 37.8474 73.8954 37.7739C73.9176 37.7004 73.9194 37.6223 73.9006 37.5479C73.88 37.4661 73.8845 37.3801 73.9132 37.3009C73.942 37.2217 73.9938 37.153 74.062 37.1035C74.1302 37.054 74.2117 37.0261 74.2959 37.0233C74.3801 37.0205 74.4632 37.043 74.5346 37.0879C74.5998 37.1285 74.6748 37.1506 74.7516 37.1519C74.8285 37.1532 74.9042 37.1336 74.9708 37.0952C75.0373 37.0568 75.0922 37.001 75.1295 36.9339C75.1668 36.8667 75.1851 36.7907 75.1826 36.7139C75.1799 36.6296 75.2025 36.5464 75.2476 36.4751C75.2926 36.4038 75.358 36.3476 75.4353 36.3138C75.5125 36.28 75.5982 36.2701 75.6811 36.2855C75.7641 36.3008 75.8405 36.3407 75.9006 36.3999C75.9556 36.4534 76.0242 36.4909 76.099 36.5084C76.1737 36.5258 76.2518 36.5225 76.3249 36.4988C76.3979 36.4752 76.4631 36.432 76.5135 36.3741C76.5638 36.3161 76.5974 36.2455 76.6106 36.1699C76.6249 36.0868 76.6637 36.0099 76.7221 35.9491C76.7805 35.8884 76.8557 35.8464 76.9381 35.8288C77.0205 35.8112 77.1063 35.8186 77.1845 35.8501C77.2626 35.8817 77.3295 35.9359 77.3766 36.0059C77.4193 36.0696 77.4787 36.1204 77.5482 36.1529C77.6177 36.1854 77.6947 36.1984 77.7711 36.1903C77.8474 36.1823 77.9201 36.1536 77.9813 36.1074C78.0425 36.0611 78.09 35.9991 78.1186 35.9279C78.1498 35.8499 78.2035 35.783 78.2729 35.7358C78.3423 35.6885 78.4243 35.663 78.5082 35.6626C78.5922 35.6622 78.6744 35.6868 78.7443 35.7333C78.8142 35.7799 78.8686 35.8462 78.9006 35.9239Z" fill="#0085FF"/>
<path d="M84.8104 44.9427C85.7607 41.4592 83.7072 37.8648 80.2237 36.9144C76.7402 35.9641 73.1458 38.0176 72.1954 41.5011C71.245 44.9846 73.2986 48.579 76.7821 49.5294C80.2656 50.4798 83.86 48.4262 84.8104 44.9427Z" fill="white"/>
<path d="M78.5 49.3037C77.2971 49.3037 76.1212 48.9469 75.121 48.2787C74.1208 47.6104 73.3413 46.6605 72.8809 45.5491C72.4206 44.4378 72.3002 43.2149 72.5348 42.0351C72.7695 40.8553 73.3488 39.7716 74.1993 38.921C75.0499 38.0704 76.1336 37.4912 77.3134 37.2565C78.4932 37.0218 79.7161 37.1423 80.8275 37.6026C81.9388 38.0629 82.8887 38.8425 83.557 39.8427C84.2253 40.8429 84.582 42.0187 84.582 43.2217C84.5804 44.8342 83.9391 46.3803 82.7988 47.5205C81.6586 48.6608 80.1125 49.3021 78.5 49.3037ZM78.5 37.2917C77.3266 37.2917 76.1797 37.6396 75.2041 38.2915C74.2286 38.9434 73.4682 39.87 73.0193 40.954C72.5704 42.0381 72.4531 43.2309 72.6821 44.3817C72.9112 45.5324 73.4763 46.5894 74.3061 47.4189C75.1359 48.2484 76.1931 48.8133 77.3439 49.0419C78.4948 49.2706 79.6875 49.1528 80.7714 48.7035C81.8553 48.2542 82.7816 47.4936 83.4332 46.5178C84.0848 45.5421 84.4324 44.395 84.432 43.2217C84.4299 41.6492 83.8041 40.1418 82.6921 39.0301C81.58 37.9185 80.0724 37.2932 78.5 37.2917Z" fill="#0085FF"/>
<path d="M77.8281 46.8619L74.2441 43.2779L75.7141 41.8059L77.8281 43.9199L84.5581 37.1899L86.0281 38.6619L77.8281 46.8619Z" fill="#455A64"/>
</svg>
