<svg width="264" height="165" viewBox="0 0 264 165" fill="none" xmlns="http://www.w3.org/2000/svg">
<rect width="264" height="165" rx="9.11263" fill="#F7F7F7"/>
<mask id="mask0_2854_22277" style="mask-type:alpha" maskUnits="userSpaceOnUse" x="0" y="0" width="264" height="165">
<rect width="264" height="165" rx="9.11263" fill="white"/>
</mask>
<g mask="url(#mask0_2854_22277)">
<path d="M29.1184 103.592C28.9574 102.438 30.1121 101.544 31.198 101.983L57.1759 112.474C58.2629 112.913 58.4658 114.357 57.5409 115.073L35.4149 132.197C34.49 132.913 33.1315 132.363 32.9703 131.207L29.1184 103.592Z" fill="#0085FF"/>
</g>
<mask id="mask1_2854_22277" style="mask-type:alpha" maskUnits="userSpaceOnUse" x="0" y="0" width="264" height="165">
<rect width="264" height="165" rx="9.11263" fill="white"/>
</mask>
<g mask="url(#mask1_2854_22277)">
<path d="M100.803 72.6237C101.604 71.7751 103.023 72.1062 103.361 73.2209L109.927 94.8608C110.266 95.9798 109.263 97.0484 108.123 96.7822L85.9927 91.616C84.8527 91.3499 84.4328 89.9492 85.2377 89.0973L100.803 72.6237Z" fill="#F43B86"/>
</g>
<mask id="mask2_2854_22277" style="mask-type:alpha" maskUnits="userSpaceOnUse" x="0" y="0" width="264" height="165">
<rect width="264" height="165" rx="9.11263" fill="white"/>
</mask>
<g mask="url(#mask2_2854_22277)">
<path d="M74.8398 137.269C74.2926 136.237 75.0758 135 76.2481 135.045L114.057 136.488C115.227 136.532 115.908 137.821 115.283 138.808L95.1215 170.644C94.4964 171.631 93.0338 171.578 92.4876 170.548L74.8398 137.269Z" fill="#FFE459"/>
</g>
<mask id="mask3_2854_22277" style="mask-type:alpha" maskUnits="userSpaceOnUse" x="0" y="0" width="264" height="165">
<rect width="264" height="165" rx="9.11263" fill="white"/>
</mask>
<g mask="url(#mask3_2854_22277)">
<path d="M246.905 100.296L270.929 102.424C271.512 102.476 271.82 103.136 271.483 103.614L257.617 123.237C257.28 123.714 256.551 123.65 256.304 123.122L246.145 101.371C245.898 100.842 246.321 100.245 246.905 100.296Z" stroke="#F43B86" stroke-width="1.51877" stroke-linejoin="round"/>
</g>
<mask id="mask4_2854_22277" style="mask-type:alpha" maskUnits="userSpaceOnUse" x="0" y="0" width="264" height="165">
<rect width="264" height="165" rx="9.11263" fill="white"/>
</mask>
<g mask="url(#mask4_2854_22277)">
<path d="M204.709 116.424L201.307 141.478C201.229 142.056 200.55 142.333 200.087 141.977L179.966 126.521C179.503 126.165 179.601 125.442 180.144 125.221L203.666 115.623C204.208 115.402 204.787 115.846 204.709 116.424Z" stroke="#66CDED" stroke-width="1.51877" stroke-linejoin="round"/>
</g>
<path d="M16.9298 27.6174C16.0446 27.6174 15.3136 27.3233 14.7366 26.7351C14.1596 26.1469 13.8711 25.4214 13.8711 24.5587C13.8711 23.6904 14.1596 22.9649 14.7366 22.3823C15.3136 21.7941 16.0446 21.5 16.9298 21.5C17.462 21.5 17.9521 21.626 18.4003 21.8781C18.8541 22.1246 19.207 22.4607 19.4591 22.8865L18.4591 23.4663C18.3135 23.203 18.1062 22.9985 17.8373 22.8529C17.5684 22.7016 17.2659 22.626 16.9298 22.626C16.3584 22.626 15.8962 22.8052 15.5433 23.1638C15.1959 23.5223 15.0223 23.9873 15.0223 24.5587C15.0223 25.1245 15.1959 25.5867 15.5433 25.9452C15.8962 26.3037 16.3584 26.483 16.9298 26.483C17.2659 26.483 17.5684 26.4102 17.8373 26.2645C18.1118 26.1133 18.3191 25.9088 18.4591 25.6511L19.4591 26.2309C19.207 26.6566 18.8569 26.9956 18.4087 27.2477C17.9605 27.4942 17.4676 27.6174 16.9298 27.6174ZM21.2707 24.0209C21.3715 23.752 21.5368 23.5503 21.7664 23.4159C22.0017 23.2814 22.2622 23.2142 22.5479 23.2142V24.4242C22.2174 24.385 21.9205 24.4522 21.6572 24.6259C21.3995 24.7996 21.2707 25.0881 21.2707 25.4914V27.4998H20.1867V23.2982H21.2707V24.0209ZM23.9419 25.8444C24.0876 26.3709 24.4825 26.6342 25.1268 26.6342C25.5413 26.6342 25.855 26.4942 26.0679 26.2141L26.9418 26.7183C26.5273 27.3177 25.9166 27.6174 25.1099 27.6174C24.4153 27.6174 23.8579 27.4073 23.4377 26.9872C23.0176 26.567 22.8075 26.0376 22.8075 25.399C22.8075 24.766 23.0148 24.2394 23.4293 23.8192C23.8439 23.3935 24.3761 23.1806 25.0259 23.1806C25.6421 23.1806 26.1491 23.3935 26.5469 23.8192C26.9502 24.245 27.1519 24.7716 27.1519 25.399C27.1519 25.539 27.1379 25.6875 27.1099 25.8444H23.9419ZM23.9251 25.004H26.0679C26.0063 24.7183 25.8774 24.5055 25.6814 24.3654C25.4909 24.2254 25.2724 24.1553 25.0259 24.1553C24.7346 24.1553 24.4937 24.231 24.3033 24.3822C24.1128 24.5279 23.9867 24.7351 23.9251 25.004ZM31.0606 21.6176H32.1446V27.4998H31.0606V27.004C30.7412 27.4129 30.2875 27.6174 29.6993 27.6174C29.1335 27.6174 28.6489 27.4045 28.2455 26.9788C27.8478 26.5474 27.6489 26.0208 27.6489 25.399C27.6489 24.7772 27.8478 24.2534 28.2455 23.8276C28.6489 23.3963 29.1335 23.1806 29.6993 23.1806C30.2875 23.1806 30.7412 23.3851 31.0606 23.794V21.6176ZM29.0606 26.2561C29.2847 26.4746 29.5648 26.5838 29.9009 26.5838C30.2371 26.5838 30.5144 26.4746 30.7328 26.2561C30.9513 26.032 31.0606 25.7463 31.0606 25.399C31.0606 25.0517 30.9513 24.7688 30.7328 24.5503C30.5144 24.3262 30.2371 24.2142 29.9009 24.2142C29.5648 24.2142 29.2847 24.3262 29.0606 24.5503C28.8422 24.7688 28.7329 25.0517 28.7329 25.399C28.7329 25.7463 28.8422 26.032 29.0606 26.2561ZM33.6737 22.794C33.4945 22.794 33.3376 22.7296 33.2031 22.6008C33.0743 22.4663 33.0099 22.3095 33.0099 22.1302C33.0099 21.9509 33.0743 21.7941 33.2031 21.6596C33.3376 21.5252 33.4945 21.458 33.6737 21.458C33.8586 21.458 34.0154 21.5252 34.1443 21.6596C34.2787 21.7941 34.346 21.9509 34.346 22.1302C34.346 22.3095 34.2787 22.4663 34.1443 22.6008C34.0154 22.7296 33.8586 22.794 33.6737 22.794ZM33.1359 27.4998V23.2982H34.2199V27.4998H33.1359ZM37.6153 24.3402H36.6658V26.088C36.6658 26.2337 36.7022 26.3401 36.775 26.4074C36.8479 26.4746 36.9543 26.5138 37.0944 26.525C37.2344 26.5306 37.4081 26.5278 37.6153 26.5166V27.4998C36.8703 27.5838 36.3437 27.5138 36.0356 27.2897C35.7331 27.0656 35.5818 26.6651 35.5818 26.088V24.3402H34.8507V23.2982H35.5818V22.4495L36.6658 22.1218V23.2982H37.6153V24.3402ZM43.3863 27.6174C42.5012 27.6174 41.7701 27.3233 41.1931 26.7351C40.6161 26.1469 40.3276 25.4214 40.3276 24.5587C40.3276 23.6904 40.6161 22.9649 41.1931 22.3823C41.7701 21.7941 42.5012 21.5 43.3863 21.5C43.9185 21.5 44.4087 21.626 44.8568 21.8781C45.3106 22.1246 45.6635 22.4607 45.9156 22.8865L44.9156 23.4663C44.77 23.203 44.5627 22.9985 44.2938 22.8529C44.0249 22.7016 43.7224 22.626 43.3863 22.626C42.8149 22.626 42.3527 22.8052 41.9998 23.1638C41.6524 23.5223 41.4788 23.9873 41.4788 24.5587C41.4788 25.1245 41.6524 25.5867 41.9998 25.9452C42.3527 26.3037 42.8149 26.483 43.3863 26.483C43.7224 26.483 44.0249 26.4102 44.2938 26.2645C44.5683 26.1133 44.7756 25.9088 44.9156 25.6511L45.9156 26.2309C45.6635 26.6566 45.3134 26.9956 44.8652 27.2477C44.4171 27.4942 43.9241 27.6174 43.3863 27.6174ZM49.7953 23.2982H50.8793V27.4998H49.7953V27.004C49.4704 27.4129 49.0138 27.6174 48.4256 27.6174C47.8654 27.6174 47.3836 27.4045 46.9803 26.9788C46.5825 26.5474 46.3837 26.0208 46.3837 25.399C46.3837 24.7772 46.5825 24.2534 46.9803 23.8276C47.3836 23.3963 47.8654 23.1806 48.4256 23.1806C49.0138 23.1806 49.4704 23.3851 49.7953 23.794V23.2982ZM47.7954 26.2561C48.0139 26.4746 48.2912 26.5838 48.6273 26.5838C48.9634 26.5838 49.2407 26.4746 49.4592 26.2561C49.6833 26.032 49.7953 25.7463 49.7953 25.399C49.7953 25.0517 49.6833 24.7688 49.4592 24.5503C49.2407 24.3262 48.9634 24.2142 48.6273 24.2142C48.2912 24.2142 48.0139 24.3262 47.7954 24.5503C47.5769 24.7688 47.4677 25.0517 47.4677 25.399C47.4677 25.7463 47.5769 26.032 47.7954 26.2561ZM52.9463 24.0209C53.0471 23.752 53.2124 23.5503 53.442 23.4159C53.6773 23.2814 53.9378 23.2142 54.2235 23.2142V24.4242C53.893 24.385 53.5961 24.4522 53.3328 24.6259C53.0751 24.7996 52.9463 25.0881 52.9463 25.4914V27.4998H51.8623V23.2982H52.9463V24.0209ZM57.8863 21.6176H58.9703V27.4998H57.8863V27.004C57.567 27.4129 57.1133 27.6174 56.5251 27.6174C55.9592 27.6174 55.4747 27.4045 55.0713 26.9788C54.6736 26.5474 54.4747 26.0208 54.4747 25.399C54.4747 24.7772 54.6736 24.2534 55.0713 23.8276C55.4747 23.3963 55.9592 23.1806 56.5251 23.1806C57.1133 23.1806 57.567 23.3851 57.8863 23.794V21.6176ZM55.8864 26.2561C56.1105 26.4746 56.3906 26.5838 56.7267 26.5838C57.0628 26.5838 57.3401 26.4746 57.5586 26.2561C57.7771 26.032 57.8863 25.7463 57.8863 25.399C57.8863 25.0517 57.7771 24.7688 57.5586 24.5503C57.3401 24.3262 57.0628 24.2142 56.7267 24.2142C56.3906 24.2142 56.1105 24.3262 55.8864 24.5503C55.6679 24.7688 55.5587 25.0517 55.5587 25.399C55.5587 25.7463 55.6679 26.032 55.8864 26.2561Z" fill="black"/>
<g clip-path="url(#clip0_2854_22277)">
<path fill-rule="evenodd" clip-rule="evenodd" d="M226.32 39.8262H236.414V21.9314H226.32V39.8262Z" fill="#FF5F00"/>
<path fill-rule="evenodd" clip-rule="evenodd" d="M226.953 30.8782C226.953 27.2478 228.676 24.0144 231.36 21.9308C229.397 20.4067 226.921 19.4976 224.23 19.4976C217.86 19.4976 212.695 24.5929 212.695 30.8782C212.695 37.1635 217.86 42.2588 224.23 42.2588C226.921 42.2588 229.397 41.3496 231.36 39.8256C228.676 37.7417 226.953 34.5086 226.953 30.8782Z" fill="#E75F51"/>
<path fill-rule="evenodd" clip-rule="evenodd" d="M249.663 37.9304V37.4888H249.546L249.412 37.7926L249.278 37.4888H249.161V37.9304H249.243V37.5972L249.369 37.8846H249.455L249.581 37.5966V37.9304H249.663ZM248.923 37.9304V37.564H249.073V37.4894H248.691V37.564H248.841V37.9304H248.923ZM250.024 30.8782C250.024 37.1635 244.859 42.2588 238.489 42.2588C235.798 42.2588 233.321 41.3496 231.359 39.8256C234.042 37.742 235.765 34.5086 235.765 30.8782C235.765 27.2481 234.042 24.0147 231.359 21.9308C233.321 20.4067 235.798 19.4976 238.489 19.4976C244.859 19.4976 250.024 24.5929 250.024 30.8782Z" fill="#F79E1B"/>
</g>
<path d="M15.7299 143.109C15.3041 143.109 14.9288 143.019 14.6039 142.84C14.279 142.661 14.0409 142.4 13.8896 142.058L14.5535 141.672C14.7271 142.12 15.1193 142.344 15.7299 142.344C16.1052 142.344 16.3993 142.254 16.6122 142.075C16.8251 141.896 16.9315 141.63 16.9315 141.277V137.117H17.7046V141.277C17.7046 141.865 17.517 142.319 17.1416 142.638C16.7719 142.952 16.3013 143.109 15.7299 143.109ZM22.2484 138.798H22.9795V143H22.2484V142.277C21.8843 142.831 21.3549 143.109 20.6603 143.109C20.072 143.109 19.5707 142.896 19.1561 142.47C18.7416 142.039 18.5343 141.515 18.5343 140.899C18.5343 140.283 18.7416 139.762 19.1561 139.336C19.5707 138.904 20.072 138.689 20.6603 138.689C21.3549 138.689 21.8843 138.966 22.2484 139.521V138.798ZM20.7527 142.403C21.1785 142.403 21.5342 142.26 21.8199 141.974C22.1056 141.683 22.2484 141.325 22.2484 140.899C22.2484 140.473 22.1056 140.117 21.8199 139.832C21.5342 139.54 21.1785 139.395 20.7527 139.395C20.3325 139.395 19.9796 139.54 19.6939 139.832C19.4082 140.117 19.2654 140.473 19.2654 140.899C19.2654 141.325 19.4082 141.683 19.6939 141.974C19.9796 142.26 20.3325 142.403 20.7527 142.403ZM26.0619 143.109C25.4288 143.109 24.9022 142.899 24.4821 142.479C24.0619 142.053 23.8519 141.526 23.8519 140.899C23.8519 140.271 24.0619 139.748 24.4821 139.327C24.9022 138.902 25.4288 138.689 26.0619 138.689C26.4764 138.689 26.8489 138.79 27.1795 138.991C27.51 139.187 27.7565 139.453 27.9189 139.79L27.3055 140.142C27.1991 139.918 27.0338 139.739 26.8097 139.605C26.5912 139.47 26.342 139.403 26.0619 139.403C25.6417 139.403 25.2888 139.546 25.0031 139.832C24.723 140.117 24.5829 140.473 24.5829 140.899C24.5829 141.319 24.723 141.672 25.0031 141.958C25.2888 142.243 25.6417 142.386 26.0619 142.386C26.342 142.386 26.5941 142.322 26.8181 142.193C27.0422 142.058 27.2131 141.879 27.3307 141.655L27.9525 142.016C27.7733 142.347 27.5156 142.613 27.1795 142.815C26.8433 143.011 26.4708 143.109 26.0619 143.109ZM32.2288 143H31.3213L29.4054 141.008V143H28.6744V137.117H29.4054V140.655L31.2205 138.798H32.1616L30.1533 140.832L32.2288 143ZM35.8666 142.26H38.4043V143H35.0851V137.117H35.8666V142.26ZM39.461 141.235C39.5338 141.61 39.7047 141.902 39.9736 142.109C40.2481 142.316 40.5842 142.42 40.982 142.42C41.5366 142.42 41.9399 142.215 42.192 141.806L42.8138 142.159C42.4049 142.792 41.7886 143.109 40.9651 143.109C40.2985 143.109 39.7551 142.901 39.335 142.487C38.9204 142.067 38.7131 141.537 38.7131 140.899C38.7131 140.266 38.9176 139.739 39.3265 139.319C39.7355 138.899 40.2649 138.689 40.9147 138.689C41.531 138.689 42.0323 138.907 42.4189 139.344C42.811 139.776 43.0071 140.297 43.0071 140.907C43.0071 141.014 42.9987 141.123 42.9819 141.235H39.461ZM40.9147 139.378C40.5226 139.378 40.1977 139.49 39.94 139.714C39.6823 139.932 39.5226 140.227 39.461 140.596H42.2676C42.206 140.198 42.0491 139.896 41.797 139.689C41.545 139.481 41.2508 139.378 40.9147 139.378ZM48.6327 138.798H49.3974L48.0949 143H47.3471L46.3639 139.89L45.3808 143H44.6329L43.3304 138.798H44.0951L45.0194 141.991L46.011 138.798H46.7168L47.7084 142L48.6327 138.798ZM50.5195 138.033C50.3794 138.033 50.2618 137.986 50.1666 137.89C50.0713 137.795 50.0237 137.68 50.0237 137.546C50.0237 137.411 50.0713 137.297 50.1666 137.201C50.2618 137.101 50.3794 137.05 50.5195 137.05C50.6539 137.05 50.7688 137.101 50.864 137.201C50.9593 137.297 51.0069 137.411 51.0069 137.546C51.0069 137.68 50.9593 137.795 50.864 137.89C50.7688 137.986 50.6539 138.033 50.5195 138.033ZM50.1498 143V138.798H50.8808V143H50.1498ZM52.6182 139.932C52.6182 140.095 52.6994 140.227 52.8618 140.327C53.0243 140.423 53.2204 140.501 53.4501 140.563C53.6797 140.619 53.9094 140.686 54.1391 140.764C54.3688 140.837 54.5649 140.966 54.7273 141.151C54.8898 141.33 54.971 141.563 54.971 141.848C54.971 142.229 54.8226 142.535 54.5256 142.764C54.2343 142.994 53.859 143.109 53.3996 143.109C52.9907 143.109 52.6406 143.019 52.3493 142.84C52.058 142.661 51.8507 142.423 51.7274 142.126L52.3577 141.764C52.4249 141.966 52.5509 142.126 52.7358 142.243C52.9207 142.361 53.1419 142.42 53.3996 142.42C53.6405 142.42 53.8394 142.375 53.9963 142.285C54.1531 142.19 54.2315 142.044 54.2315 141.848C54.2315 141.686 54.1503 141.557 53.9879 141.462C53.8254 141.361 53.6293 141.282 53.3996 141.226C53.17 141.165 52.9403 141.095 52.7106 141.016C52.4809 140.938 52.2848 140.809 52.1224 140.63C51.9599 140.451 51.8787 140.221 51.8787 139.941C51.8787 139.577 52.0187 139.277 52.2988 139.042C52.5845 138.806 52.9403 138.689 53.366 138.689C53.7078 138.689 54.0103 138.767 54.2736 138.924C54.5425 139.075 54.7441 139.288 54.8786 139.563L54.2652 139.907C54.1139 139.549 53.8142 139.369 53.366 139.369C53.1588 139.369 52.9823 139.42 52.8366 139.521C52.691 139.616 52.6182 139.753 52.6182 139.932Z" fill="black"/>
<path d="M215.194 142.278C214.796 142.832 214.239 143.11 213.522 143.11C212.805 143.11 212.247 142.832 211.85 142.278C211.452 141.723 211.253 140.984 211.253 140.059C211.253 139.135 211.452 138.396 211.85 137.841C212.247 137.286 212.805 137.009 213.522 137.009C214.239 137.009 214.796 137.286 215.194 137.841C215.592 138.396 215.791 139.135 215.791 140.059C215.791 140.984 215.592 141.723 215.194 142.278ZM212.421 141.748C212.679 142.146 213.046 142.345 213.522 142.345C213.998 142.345 214.365 142.146 214.623 141.748C214.886 141.351 215.018 140.788 215.018 140.059C215.018 139.331 214.886 138.768 214.623 138.37C214.365 137.967 213.998 137.765 213.522 137.765C213.046 137.765 212.679 137.964 212.421 138.362C212.163 138.76 212.035 139.326 212.035 140.059C212.035 140.788 212.163 141.351 212.421 141.748ZM218.428 139.152C219.017 139.152 219.501 139.337 219.882 139.706C220.263 140.071 220.454 140.544 220.454 141.127C220.454 141.709 220.263 142.185 219.882 142.555C219.501 142.925 219.017 143.11 218.428 143.11C217.835 143.11 217.347 142.925 216.966 142.555C216.591 142.185 216.403 141.709 216.403 141.127C216.403 140.673 216.521 140.281 216.756 139.95L218.647 137.118H219.538L218.151 139.169C218.274 139.157 218.367 139.152 218.428 139.152ZM217.521 142.026C217.756 142.25 218.059 142.362 218.428 142.362C218.798 142.362 219.098 142.25 219.327 142.026C219.563 141.796 219.68 141.496 219.68 141.127C219.68 140.757 219.563 140.46 219.327 140.236C219.098 140.012 218.798 139.9 218.428 139.9C218.053 139.9 217.751 140.012 217.521 140.236C217.291 140.46 217.176 140.757 217.176 141.127C217.176 141.496 217.291 141.796 217.521 142.026ZM221.446 143.841H221.009L224.37 136.278H224.807L221.446 143.841ZM225.432 143V142.362L227.507 140.244C228.062 139.69 228.339 139.214 228.339 138.816C228.339 138.485 228.238 138.228 228.036 138.043C227.835 137.858 227.588 137.765 227.297 137.765C226.742 137.765 226.339 138.029 226.087 138.555L225.432 138.169C225.616 137.788 225.871 137.499 226.196 137.303C226.527 137.107 226.891 137.009 227.289 137.009C227.782 137.009 228.21 137.172 228.574 137.496C228.938 137.821 229.12 138.258 229.12 138.807C229.12 139.401 228.77 140.048 228.07 140.748L226.566 142.244H229.23V143H225.432ZM231.183 137.118H231.855V143H231.082V137.959L229.83 138.328L229.637 137.656L231.183 137.118Z" fill="black"/>
<path d="M16.066 79.4265H17.0744V88.2498H15.9148V80.687L14.0367 81.2416L13.7468 80.2332L16.066 79.4265ZM18.5169 88.2498V87.2918L21.6303 84.1155C22.4622 83.2835 22.8781 82.5693 22.8781 81.9727C22.8781 81.4769 22.7269 81.0903 22.4243 80.813C22.1218 80.5357 21.7521 80.3971 21.3151 80.3971C20.4832 80.3971 19.8782 80.792 19.5001 81.5819L18.5169 81.0021C18.7942 80.4307 19.1766 79.998 19.6639 79.7038C20.1597 79.4097 20.7059 79.2627 21.3025 79.2627C22.042 79.2627 22.6848 79.5064 23.231 79.9937C23.7772 80.4811 24.0503 81.1366 24.0503 81.9601C24.0503 82.8508 23.5251 83.8213 22.4748 84.8717L20.2185 87.1153H24.2142V88.2498H18.5169ZM28.5701 83.0441C29.2423 83.1701 29.7927 83.46 30.2213 83.9138C30.6498 84.3675 30.8641 84.9432 30.8641 85.6406C30.8641 86.4977 30.57 87.1742 29.9818 87.6699C29.3936 88.1657 28.6793 88.4136 27.839 88.4136C27.1668 88.4136 26.5701 88.2624 26.0492 87.9599C25.5282 87.6489 25.1584 87.2036 24.9399 86.6238L25.9231 86.044C26.1836 86.859 26.8222 87.2666 27.839 87.2666C28.3852 87.2666 28.8306 87.1237 29.1751 86.838C29.5196 86.5523 29.6919 86.1532 29.6919 85.6406C29.6919 85.128 29.5196 84.7289 29.1751 84.4432C28.8306 84.1491 28.3852 84.002 27.839 84.002H27.5365L27.0701 83.2835L29.1121 80.5231H25.192V79.4265H30.486V80.4601L28.5701 83.0441ZM38.6246 85.4767V86.5733H37.5532V88.2498H36.381V86.5733H31.8811V85.4767L35.0449 79.4265H36.3054L33.1416 85.4767H36.381V82.981H37.5532V85.4767H38.6246Z" fill="black"/>
<path d="M56.7157 82.8674C57.5476 82.8674 58.2493 83.1152 58.8207 83.611C59.4005 84.0984 59.6904 84.7748 59.6904 85.6404C59.6904 86.4975 59.3963 87.1739 58.8081 87.6697C58.2199 88.1655 57.5056 88.4134 56.6653 88.4134C55.9931 88.4134 55.3923 88.2537 54.8629 87.9344C54.3335 87.6067 53.9637 87.1361 53.7537 86.5227L54.7494 85.9555C54.8671 86.384 55.0939 86.7118 55.4301 86.9386C55.7662 87.1571 56.1779 87.2664 56.6653 87.2664C57.2199 87.2664 57.6695 87.1235 58.014 86.8378C58.3585 86.5521 58.5308 86.1529 58.5308 85.6404C58.5308 85.1278 58.3585 84.7286 58.014 84.4429C57.6695 84.1488 57.2283 84.0018 56.6905 84.0018H54.1948L54.5225 79.4263H59.3501V80.5229H55.5813L55.4301 82.8674H56.7157ZM63.547 82.4766C64.4294 82.4766 65.1562 82.7539 65.7276 83.3085C66.299 83.8547 66.5847 84.5648 66.5847 85.4387C66.5847 86.3126 66.299 87.0269 65.7276 87.5815C65.1562 88.1361 64.4294 88.4134 63.547 88.4134C62.6563 88.4134 61.9252 88.1361 61.3538 87.5815C60.7908 87.0269 60.5093 86.3126 60.5093 85.4387C60.5093 84.758 60.6858 84.1698 61.0387 83.674L63.8748 79.4263H65.2108L63.1311 82.5018C63.316 82.485 63.4546 82.4766 63.547 82.4766ZM62.1857 86.7874C62.5387 87.1235 62.9924 87.2916 63.547 87.2916C64.1016 87.2916 64.5512 87.1235 64.8957 86.7874C65.2487 86.4429 65.4251 85.9933 65.4251 85.4387C65.4251 84.8841 65.2487 84.4387 64.8957 84.1026C64.5512 83.7665 64.1016 83.5984 63.547 83.5984C62.984 83.5984 62.5303 83.7665 62.1857 84.1026C61.8412 84.4387 61.669 84.8841 61.669 85.4387C61.669 85.9933 61.8412 86.4429 62.1857 86.7874ZM66.4025 79.4263H71.9107V80.4725L68.6965 88.2495H67.4739L70.6628 80.5355H66.4025V79.4263ZM77.0051 83.6866C77.4336 83.9051 77.7698 84.1992 78.0135 84.569C78.2571 84.9387 78.379 85.3589 78.379 85.8294C78.379 86.6361 78.0975 87.2706 77.5345 87.7327C76.9715 88.1865 76.2446 88.4134 75.3539 88.4134C74.4716 88.4134 73.7489 88.1865 73.1859 87.7327C72.6229 87.2706 72.3414 86.6361 72.3414 85.8294C72.3414 85.3589 72.4632 84.9387 72.7069 84.569C72.9506 84.1992 73.2867 83.9051 73.7153 83.6866C72.9926 83.2329 72.6313 82.5901 72.6313 81.7581C72.6313 80.9599 72.896 80.3464 73.4254 79.9179C73.9632 79.4809 74.606 79.2624 75.3539 79.2624C76.1102 79.2624 76.753 79.4809 77.2824 79.9179C77.8202 80.3464 78.0891 80.9599 78.0891 81.7581C78.0891 82.5901 77.7278 83.2329 77.0051 83.6866ZM75.3539 80.3842C74.9085 80.3842 74.5346 80.5019 74.2321 80.7372C73.938 80.9725 73.7909 81.3212 73.7909 81.7834C73.7909 82.2287 73.9422 82.5774 74.2447 82.8295C74.5472 83.0732 74.9169 83.1951 75.3539 83.1951C75.7909 83.1951 76.1606 83.0732 76.4631 82.8295C76.7656 82.5774 76.9169 82.2287 76.9169 81.7834C76.9169 81.3212 76.7698 80.9725 76.4757 80.7372C76.1816 80.5019 75.8077 80.3842 75.3539 80.3842ZM75.3539 87.2916C75.9169 87.2916 76.3665 87.1613 76.7026 86.9008C77.0471 86.6319 77.2194 86.2496 77.2194 85.7538C77.2194 85.2664 77.0471 84.8925 76.7026 84.632C76.3665 84.3631 75.9169 84.2286 75.3539 84.2286C74.7993 84.2286 74.3497 84.3631 74.0052 84.632C73.6691 84.8925 73.501 85.2664 73.501 85.7538C73.501 86.2496 73.6691 86.6319 74.0052 86.9008C74.3497 87.1613 74.7993 87.2916 75.3539 87.2916Z" fill="black"/>
<path d="M100.178 82.2245C100.178 82.9052 99.9977 83.4976 99.6363 84.0018H99.6489L96.8003 88.2495H95.4768L97.5692 85.1614C97.3843 85.1782 97.2415 85.1866 97.1406 85.1866C96.2499 85.1866 95.5188 84.9135 94.9474 84.3673C94.3844 83.8127 94.1029 83.0984 94.1029 82.2245C94.1029 81.3506 94.3844 80.6405 94.9474 80.0943C95.5188 79.5397 96.2499 79.2624 97.1406 79.2624C98.0314 79.2624 98.7582 79.5397 99.3212 80.0943C99.8926 80.6405 100.178 81.3506 100.178 82.2245ZM95.7793 80.8884C95.4348 81.2246 95.2626 81.6699 95.2626 82.2245C95.2626 82.7791 95.4348 83.2287 95.7793 83.5732C96.1323 83.9093 96.586 84.0774 97.1406 84.0774C97.6952 84.0774 98.1448 83.9093 98.4893 83.5732C98.8423 83.2287 99.0187 82.7791 99.0187 82.2245C99.0187 81.6699 98.8465 81.2246 98.5019 80.8884C98.1574 80.5523 97.7036 80.3842 97.1406 80.3842C96.586 80.3842 96.1323 80.5523 95.7793 80.8884ZM103.028 79.4263H104.036V88.2495H102.877V80.6868L100.999 81.2414L100.709 80.233L103.028 79.4263ZM111.504 87.1655C110.907 87.9974 110.071 88.4134 108.996 88.4134C107.92 88.4134 107.084 87.9974 106.487 87.1655C105.891 86.3336 105.592 85.2244 105.592 83.8379C105.592 82.4514 105.891 81.3422 106.487 80.5103C107.084 79.6784 107.92 79.2624 108.996 79.2624C110.071 79.2624 110.907 79.6784 111.504 80.5103C112.101 81.3422 112.399 82.4514 112.399 83.8379C112.399 85.2244 112.101 86.3336 111.504 87.1655ZM107.344 86.3714C107.731 86.968 108.281 87.2664 108.996 87.2664C109.71 87.2664 110.26 86.968 110.647 86.3714C111.042 85.7748 111.239 84.9303 111.239 83.8379C111.239 82.7455 111.042 81.901 110.647 81.3044C110.26 80.6994 109.71 80.3969 108.996 80.3969C108.281 80.3969 107.731 80.6952 107.344 81.2918C106.958 81.8884 106.765 82.7371 106.765 83.8379C106.765 84.9303 106.958 85.7748 107.344 86.3714ZM115.214 79.4263H116.223V88.2495H115.063V80.6868L113.185 81.2414L112.895 80.233L115.214 79.4263Z" fill="black"/>
<path d="M134.582 79.4263H135.59V88.2495H134.43V80.6868L132.552 81.2414L132.262 80.233L134.582 79.4263ZM139.074 79.4263H140.083V88.2495H138.923V80.6868L137.045 81.2414L136.755 80.233L139.074 79.4263ZM141.525 88.2495V87.2916L144.639 84.1152C145.471 83.2833 145.887 82.569 145.887 81.9724C145.887 81.4766 145.735 81.0901 145.433 80.8128C145.13 80.5355 144.761 80.3969 144.324 80.3969C143.492 80.3969 142.887 80.7918 142.509 81.5817L141.525 81.0019C141.803 80.4305 142.185 79.9977 142.672 79.7036C143.168 79.4095 143.714 79.2624 144.311 79.2624C145.05 79.2624 145.693 79.5061 146.24 79.9935C146.786 80.4809 147.059 81.1363 147.059 81.9598C147.059 82.8505 146.534 83.8211 145.483 84.8715L143.227 87.1151H147.223V88.2495H141.525ZM150.153 79.4263H151.161V88.2495H150.001V80.6868L148.123 81.2414L147.834 80.233L150.153 79.4263Z" fill="black"/>
<defs>
<clipPath id="clip0_2854_22277">
<rect width="37.7143" height="22.7941" fill="white" transform="translate(212.703 19.4995)"/>
</clipPath>
</defs>
</svg>
