<svg width="41" height="41" viewBox="0 0 41 41" fill="none" xmlns="http://www.w3.org/2000/svg">
<g id="gridicons:customize">
<path id="Vector" d="M3.41797 10.2503C3.41797 7.67928 4.75047 4.98866 6.83464 3.41699C6.83464 4.86053 8.01339 6.83366 10.2513 6.83366C11.6105 6.83366 12.9141 7.37361 13.8752 8.33474C14.8363 9.29586 15.3763 10.5994 15.3763 11.9587C15.3763 12.6181 15.2413 13.2433 15.0141 13.8224C16.2813 14.8281 17.5292 15.8579 18.7571 16.9111L15.2038 20.4645C14.1509 19.2362 13.1212 17.9883 12.1151 16.7215C11.5221 16.9581 10.8898 17.081 10.2513 17.0837C6.47589 17.0837 3.41797 14.0257 3.41797 10.2503ZM24.1776 21.949L26.4685 19.6581C27.5294 20.2043 28.704 20.4928 29.8971 20.5003C31.936 20.5003 33.8913 19.6904 35.333 18.2487C36.7747 16.807 37.5846 14.8517 37.5846 12.8128C37.5846 11.5743 37.2635 10.4195 36.7424 9.3842L30.7513 15.3753L27.3346 11.9587L33.3258 5.96753C32.2649 5.42138 31.0903 5.13285 29.8971 5.12533C27.8583 5.12533 25.9029 5.93526 24.4613 7.37694C23.0196 8.81863 22.2096 10.774 22.2096 12.8128C22.2096 14.0514 22.5308 15.2062 23.0518 16.2415L5.1263 34.167L8.54297 37.5837L20.2416 25.885C23.4591 29.1861 26.8686 32.2944 30.4523 35.1937L32.8867 37.1566L35.4492 34.5941L33.4863 32.1597C30.5871 28.5759 27.4788 25.1664 24.1776 21.949Z" fill="white"/>
</g>
</svg>
