<svg width="40" height="40" viewBox="0 0 40 40" fill="none" xmlns="http://www.w3.org/2000/svg">
<circle cx="20" cy="20" r="19.5" fill="white" stroke="url(#paint0_linear_4414_10770)"/>
<path d="M18.9368 15.7556L22.6402 17.3681L24.24 21.0589L21.7973 25.9459C21.5645 26.4114 21.2374 26.8234 20.8367 27.1557C20.436 27.4879 19.9706 27.7331 19.47 27.8756L10.761 30.3544C10.6064 30.3985 10.4428 30.4004 10.2872 30.3601C10.1316 30.3197 9.98953 30.2386 9.87581 30.1249C9.76208 30.0113 9.68079 29.8693 9.64035 29.7137C9.5999 29.5581 9.60177 29.3945 9.64575 29.2399L12.1207 20.5279C12.2631 20.0268 12.5083 19.5609 12.8406 19.1598C13.173 18.7587 13.5853 18.4313 14.0512 18.1984L18.9368 15.7556Z" fill="#D3D3D3"/>
<path d="M21.5907 9.92369C21.73 9.78433 21.8954 9.67379 22.0774 9.59837C22.2594 9.52295 22.4545 9.48413 22.6516 9.48413C22.8486 9.48413 23.0437 9.52295 23.2257 9.59837C23.4078 9.67379 23.5732 9.78433 23.7125 9.92369L30.0762 16.2874C30.2156 16.4267 30.3261 16.5921 30.4015 16.7741C30.4769 16.9562 30.5158 17.1513 30.5158 17.3483C30.5158 17.5453 30.4769 17.7404 30.4015 17.9225C30.3261 18.1045 30.2156 18.2699 30.0762 18.4092L27.425 21.0604L22.2477 17.6884L18.9395 12.5749L21.5907 9.92294V9.92369Z" fill="#433B6B"/>
<path d="M18.9404 12.575L27.4251 21.0605C27.0032 21.4823 26.431 21.7192 25.8344 21.7192C25.2378 21.7192 24.6656 21.4823 24.2436 21.0605L18.9404 15.758C18.7314 15.549 18.5657 15.301 18.4526 15.028C18.3395 14.7549 18.2812 14.4623 18.2812 14.1668C18.2812 13.8713 18.3395 13.5787 18.4526 13.3057C18.5657 13.0327 18.7314 12.7839 18.9404 12.575Z" fill="#FFB02E"/>
<path d="M16.3786 24.6823C16.8575 24.9104 17.4017 24.9621 17.9151 24.8281C18.4284 24.6941 18.8779 24.383 19.1842 23.9499C19.4906 23.5167 19.634 22.9892 19.5893 22.4606C19.5446 21.9319 19.3146 21.4361 18.9398 21.0605C18.5647 20.6841 18.0685 20.4525 17.539 20.407C17.0095 20.3614 16.481 20.5047 16.0471 20.8115C15.6131 21.1183 15.3018 21.5688 15.1683 22.0832C15.0347 22.5975 15.0875 23.1426 15.3173 23.6218L9.82732 29.1118C9.68659 29.2524 9.60749 29.4432 9.60742 29.6421C9.60735 29.8411 9.68632 30.0319 9.82695 30.1726C9.96758 30.3134 10.1584 30.3925 10.3573 30.3925C10.5563 30.3926 10.7471 30.3136 10.8878 30.173L16.3786 24.6823Z" fill="#635994"/>
<defs>
<linearGradient id="paint0_linear_4414_10770" x1="7" y1="4.5" x2="28.5" y2="40" gradientUnits="userSpaceOnUse">
<stop stop-color="#66CDED"/>
<stop offset="1" stop-color="#7F60F9"/>
</linearGradient>
</defs>
</svg>
