<svg width="40" height="40" viewBox="0 0 40 40" fill="none" xmlns="http://www.w3.org/2000/svg">
<circle cx="20" cy="20" r="19.5" fill="white" stroke="url(#paint0_linear_4414_10824)"/>
<g clip-path="url(#clip0_4414_10824)">
<path d="M25.2793 20.3471C26.542 19.6219 27.8014 18.8907 29.0684 18.1731C30.271 17.4916 31.6859 18.12 31.9586 19.446C32.1164 20.2131 31.7739 21.0417 31.0814 21.4453C28.811 22.7684 26.5372 24.0863 24.2522 25.3839C23.5449 25.7856 22.8164 25.7117 22.1719 25.2195C21.5171 24.7198 21.3108 24.0306 21.4643 23.2283C21.6396 22.6177 22.0409 22.2094 22.5881 21.9039C23.4928 21.399 24.383 20.8674 25.2793 20.3471Z" fill="#FABC05"/>
<path d="M26.2058 19.82C24.9462 19.0891 23.6835 18.3639 22.4284 17.6256C21.2369 16.9248 21.0738 15.3852 22.0857 14.486C22.6711 13.9659 23.5599 13.8481 24.2558 14.2461C26.5369 15.5508 28.815 16.861 31.0813 18.1911C31.7828 18.6027 32.0829 19.2707 31.9792 20.075C31.8737 20.8917 31.3801 21.415 30.6085 21.6832C29.9919 21.8368 29.4378 21.6934 28.8997 21.3722C28.01 20.8411 27.1045 20.336 26.2058 19.82Z" fill="#109D58"/>
<path d="M14.7267 19.3028C13.9185 19.762 13.1098 20.2203 12.3024 20.6809C11.8301 20.9503 11.363 21.229 10.8883 21.4939C9.93179 22.0278 8.79536 21.7149 8.25301 20.7745C7.73542 19.8771 8.03289 18.7137 8.95408 18.1759C11.2064 16.8613 13.4646 15.5562 15.7309 14.2656C16.426 13.8699 17.1471 13.9197 17.7898 14.3928C18.4682 14.8922 18.6903 15.595 18.538 16.4188C18.4435 16.6182 18.387 16.8519 18.2455 17.0089C18.0154 17.2644 17.7538 17.509 17.4626 17.6886C16.5615 18.2443 15.6401 18.7672 14.7267 19.3028Z" fill="#E94436"/>
<path d="M13.8001 19.8178C14.6019 20.2881 15.4032 20.7594 16.2058 21.2283C16.6752 21.5026 17.15 21.7678 17.6168 22.0464C18.5575 22.6079 18.8548 23.7485 18.3115 24.6883C17.7931 25.5853 16.6368 25.9095 15.7105 25.3805C13.4458 24.0872 11.1865 22.7843 8.93575 21.4668C8.24547 21.0627 7.92803 20.4133 8.01644 19.6201C8.10972 18.7828 8.60725 18.2392 9.39691 17.9591C9.61675 17.9414 9.84738 17.8734 10.0542 17.9174C10.3905 17.9891 10.7331 18.0932 11.0343 18.2556C11.966 18.7581 12.8795 19.2945 13.8001 19.8178Z" fill="#4385F3"/>
</g>
<defs>
<linearGradient id="paint0_linear_4414_10824" x1="7" y1="4.5" x2="28.5" y2="40" gradientUnits="userSpaceOnUse">
<stop stop-color="#66CDED"/>
<stop offset="1" stop-color="#7F60F9"/>
</linearGradient>
<clipPath id="clip0_4414_10824">
<rect width="24" height="11.7188" fill="white" transform="translate(8 14)"/>
</clipPath>
</defs>
</svg>
