<svg width="41" height="41" viewBox="0 0 41 41" fill="none" xmlns="http://www.w3.org/2000/svg">
<g id="ic:baseline-diversity-2" clip-path="url(#clip0_2104_17314)">
<path id="Vector" d="M17.2555 27.1622L19.6813 24.7363C15.0176 20.5851 11.9596 17.7834 11.9596 15.1184C11.9596 13.3247 13.3263 11.958 15.1201 11.958C17.0163 11.958 17.7509 13.0684 19.6984 15.3747H21.2871C23.2005 13.1368 23.9009 11.958 25.8655 11.958C27.3517 11.958 28.5134 12.8805 28.8892 14.213C29.4871 14.1447 30.0509 14.1105 30.5976 14.1105C31.2126 14.1105 31.7934 14.1618 32.3571 14.2472C31.9471 10.9843 29.2651 8.54134 25.8826 8.54134C25.6776 8.54134 25.4896 8.59259 25.2846 8.60967C25.4896 8.04592 25.6263 7.46509 25.6263 6.83301C25.6263 3.99717 23.3371 1.70801 20.5013 1.70801C17.6655 1.70801 15.3763 3.99717 15.3763 6.83301C15.3763 7.46509 15.513 8.04592 15.718 8.60967C15.513 8.59259 15.3251 8.54134 15.1201 8.54134C11.4301 8.54134 8.54297 11.4284 8.54297 15.1184C8.54297 19.2526 12.028 22.4813 17.2555 27.1622Z" fill="white"/>
<path id="Vector_2" d="M38.4378 27.7436C37.8911 27.4361 37.3103 27.2481 36.7294 27.1456C36.849 26.9748 36.9857 26.8381 37.0882 26.6673C38.9332 23.4727 37.874 19.5265 34.6794 17.6815C31.109 15.6144 26.5478 17.0152 19.9023 19.219L20.7907 22.5331C26.7186 20.5856 30.6819 19.3215 32.9882 20.654C34.5428 21.5594 35.0382 23.4044 34.1498 24.9761C33.1932 26.6161 31.8778 26.6844 28.9053 27.2311L28.1023 28.6148C29.0932 31.3823 29.7594 32.5952 28.7686 34.2865C27.8632 35.8411 26.0182 36.3365 24.4465 35.4481C24.344 35.3969 24.2586 35.2944 24.1561 35.2261C23.6436 36.3706 23.0628 37.3444 22.3965 38.1815C22.5161 38.2498 22.6186 38.3352 22.7382 38.4206C25.9328 40.2656 29.879 39.2065 31.724 36.0119C31.8265 35.8411 31.8778 35.6531 31.9632 35.4652C32.339 35.9265 32.7832 36.3365 33.3298 36.644C35.7728 38.0619 38.9161 37.2248 40.334 34.7648C41.7519 32.3048 40.8807 29.1444 38.4378 27.7436Z" fill="white"/>
<path id="Vector_3" d="M21.0455 23.9335C19.7813 30.0493 18.8759 34.0981 16.5696 35.4306C15.015 36.336 13.153 35.8406 12.2475 34.2689C11.2909 32.6289 11.9059 31.4331 12.9138 28.5973L12.128 27.2135C9.22378 26.6839 7.85712 26.6498 6.88337 24.9585C5.97795 23.4039 6.47337 21.5418 8.04503 20.6364C8.19878 20.551 8.36962 20.4998 8.54045 20.4485C7.94253 19.4918 7.44712 18.4498 7.13962 17.2881C6.86628 17.4077 6.59295 17.5273 6.31962 17.681C3.12503 19.526 2.06587 23.4723 3.91087 26.6668C4.01337 26.8377 4.15003 26.9743 4.26962 27.1452C3.68878 27.2477 3.10795 27.4356 2.56128 27.7431C0.118368 29.161 -0.735799 32.2873 0.682118 34.7473C2.10003 37.2073 5.22628 38.0443 7.68628 36.6264C8.23295 36.3189 8.67712 35.9089 9.05295 35.4477C9.13837 35.6356 9.18962 35.8235 9.29212 35.9943C11.1371 39.1889 15.0834 40.2481 18.278 38.4031C21.8484 36.336 22.9075 31.6893 24.3425 24.8389L21.0455 23.9335Z" fill="white"/>
</g>
<defs>
<clipPath id="clip0_2104_17314">
<rect width="41" height="41" fill="white"/>
</clipPath>
</defs>
</svg>
