<svg width="200" height="200" viewBox="0 0 200 200" fill="none" xmlns="http://www.w3.org/2000/svg">
<path d="M200 152.959H0V153.059H200V152.959Z" fill="#EBEBEB"/>
<path d="M34.2332 156.769H20.9844V156.869H34.2332V156.769Z" fill="#EBEBEB"/>
<path d="M85.4659 155.684H68.4551V155.784H85.4659V155.684Z" fill="#EBEBEB"/>
<path d="M45.0655 158.172H37.3887V158.272H45.0655V158.172Z" fill="#EBEBEB"/>
<path d="M179.961 159.811H173.867V159.911H179.961V159.811Z" fill="#EBEBEB"/>
<path d="M170.305 159.811H156.588V159.911H170.305V159.811Z" fill="#EBEBEB"/>
<path d="M132.732 156.934H123.199V157.034H132.732V156.934Z" fill="#EBEBEB"/>
<path d="M94.806 135.12H17.5664C16.3076 135.12 15.2832 134.095 15.2832 132.837V24.2642C15.2832 23.0054 16.3076 21.981 17.5664 21.981H94.806C96.0644 21.981 97.0888 23.0054 97.0888 24.2642V132.837C97.0888 134.096 96.0644 135.12 94.806 135.12ZM17.5664 22.081C16.3624 22.081 15.3832 23.0602 15.3832 24.2642V132.837C15.3832 134.041 16.3624 135.02 17.5664 135.02H94.806C96.0096 135.02 96.9888 134.041 96.9888 132.837V24.2642C96.9888 23.0606 96.0096 22.081 94.806 22.081H17.5664Z" fill="#EBEBEB"/>
<path d="M181.325 135.12H104.086C102.827 135.12 101.803 134.095 101.803 132.837V24.2642C101.803 23.0054 102.827 21.981 104.086 21.981H181.325C182.584 21.981 183.608 23.0054 183.608 24.2642V132.837C183.608 134.096 182.584 135.12 181.325 135.12ZM104.086 22.081C102.882 22.081 101.903 23.0602 101.903 24.2642V132.837C101.903 134.041 102.882 135.02 104.086 135.02H181.325C182.529 135.02 183.508 134.041 183.508 132.837V24.2642C183.508 23.0606 182.529 22.081 181.325 22.081H104.086Z" fill="#EBEBEB"/>
<path d="M173.243 31.0664H45.8672V143.283H173.243V31.0664Z" fill="#E0E0E0"/>
<path d="M170.93 40.6665H43.5547V143.283H170.93V40.6665Z" fill="#F5F5F5"/>
<path d="M152.089 57.9106H60.5312V126.038H152.089V57.9106Z" fill="white"/>
<path d="M26.7566 143.283H43.5566L43.5566 40.6664H26.7566L26.7566 143.283Z" fill="#F0F0F0"/>
<path d="M26.7566 47.2002H43.5566V40.667H26.7566V47.2002Z" fill="#EBEBEB"/>
<path d="M26.756 40.6665L170.932 40.6665V31.0665L26.756 31.0665V40.6665Z" fill="#E6E6E6"/>
<path d="M43.5555 44.6665L82.3555 44.6665V40.6665L43.5555 40.6665V44.6665Z" fill="#FAFAFA"/>
<path d="M121.155 40.6665H82.3555V44.6665H121.155V40.6665Z" fill="#EBEBEB"/>
<path d="M33.8956 48.5332H28.0156V54.4132H33.8956V48.5332Z" fill="#E6E6E6"/>
<path d="M42.296 48.5332H36.416V54.4132H42.296V48.5332Z" fill="#E6E6E6"/>
<path d="M36.4149 62.813H42.2949V56.933H36.4149V62.813Z" fill="#E6E6E6"/>
<path d="M28.0165 62.813H33.8965V56.933H28.0165V62.813Z" fill="#E6E6E6"/>
<path d="M33.8956 65.333H28.0156V71.213H33.8956V65.333Z" fill="#E6E6E6"/>
<path d="M42.296 65.333H36.416V71.213H42.296V65.333Z" fill="#E6E6E6"/>
<path d="M36.4149 79.6133H42.2949V73.7333H36.4149V79.6133Z" fill="#E6E6E6"/>
<path d="M28.0165 79.6133H33.8965V73.7333H28.0165V79.6133Z" fill="#E6E6E6"/>
<path d="M33.8956 82.1333H28.0156V88.0133H33.8956V82.1333Z" fill="#E6E6E6"/>
<path d="M42.296 82.1333H36.416V88.0133H42.296V82.1333Z" fill="#E6E6E6"/>
<path d="M36.4149 96.4131H42.2949V90.5331H36.4149V96.4131Z" fill="#E6E6E6"/>
<path d="M28.0165 96.4131H33.8965V90.5331H28.0165V96.4131Z" fill="#E6E6E6"/>
<path d="M28.0159 119.336H31.6191V115.733H28.0159V119.336Z" fill="#E6E6E6"/>
<path d="M38.6917 119.336H42.2949V115.733H38.6917V119.336Z" fill="#E6E6E6"/>
<path d="M33.3538 119.336H36.957V115.733H33.3538V119.336Z" fill="#E6E6E6"/>
<path d="M33.5198 113.177H42.2598V104.437H33.5198V113.177Z" fill="#E6E6E6"/>
<path d="M28.0159 107.673H36.7559V98.9333H28.0159V107.673Z" fill="white"/>
<path d="M140.627 83.1137C141.925 75.118 136.495 67.5842 128.499 66.2865C120.503 64.9888 112.97 70.4187 111.672 78.4145C110.374 86.4102 115.804 93.9441 123.8 95.2417C131.796 96.5394 139.329 91.1095 140.627 83.1137Z" fill="#F5F5F5"/>
<path d="M130.959 115.733V90.5332H121.332V115.733H130.959Z" fill="#F5F5F5"/>
<path d="M100.001 171.024C142.834 171.024 177.557 168.996 177.557 166.495C177.557 163.994 142.834 161.966 100.001 161.966C57.1681 161.966 22.4453 163.994 22.4453 166.495C22.4453 168.996 57.1681 171.024 100.001 171.024Z" fill="#F5F5F5"/>
<path d="M113.31 97.1609L101.984 108.487C101.984 108.487 95.0021 100.66 85.7609 101.544C82.3429 94.0417 78.4377 78.0541 77.3613 73.4913L92.7849 88.9149C92.2897 89.8205 92.4261 90.9741 93.1909 91.7389C94.1225 92.6705 95.6261 92.6705 96.5577 91.7389C97.4889 90.8077 97.4933 89.2997 96.5617 88.3681C95.7969 87.6033 94.6393 87.4709 93.7333 87.9661L78.3097 72.5425C82.8725 73.6189 98.8601 77.5241 106.363 80.9421C105.483 90.1797 113.31 97.1609 113.31 97.1609Z" fill="#8E9FAA"/>
<path opacity="0.2" d="M106.363 80.9438C98.8618 77.5246 82.8706 73.6206 78.3066 72.543L93.7298 87.9662C94.6382 87.469 95.7954 87.601 96.5626 88.3682C97.4926 89.2982 97.4866 90.8082 96.5566 91.7382L107.643 102.825L113.309 97.1586C113.309 97.1594 105.482 90.1798 106.363 80.9438Z" fill="black"/>
<path d="M144.562 139.743C142.575 141.73 139.323 141.73 137.336 139.743L104.119 106.526L111.345 99.3003L144.562 132.517C146.549 134.504 146.549 137.756 144.562 139.743Z" fill="#8E9FAA"/>
<path opacity="0.7" d="M144.562 139.743C142.575 141.73 139.323 141.73 137.336 139.743L104.119 106.526L111.345 99.3003L144.562 132.517C146.549 134.504 146.549 137.756 144.562 139.743Z" fill="white"/>
<path d="M115.351 102.612L107.43 110.532C106.975 110.988 106.23 110.988 105.775 110.532L103.771 108.528C103.316 108.073 103.316 107.328 103.771 106.873L111.691 98.9527C112.147 98.4975 112.891 98.4975 113.347 98.9527L115.351 100.957C115.806 101.412 115.806 102.157 115.351 102.612Z" fill="#8E9FAA"/>
<path d="M115.167 99.1377L103.957 110.348C103.41 110.895 102.515 110.895 101.968 110.348L100.123 108.503C99.5761 107.957 99.5761 107.061 100.123 106.514L111.333 95.3041C111.88 94.7573 112.775 94.7573 113.322 95.3041L115.166 97.1485C115.714 97.6957 115.714 98.5909 115.167 99.1377Z" fill="#8E9FAA"/>
<path opacity="0.4" d="M115.167 99.1377L103.957 110.348C103.41 110.895 102.515 110.895 101.968 110.348L100.123 108.503C99.5761 107.957 99.5761 107.061 100.123 106.514L111.333 95.3041C111.88 94.7573 112.775 94.7573 113.322 95.3041L115.166 97.1485C115.714 97.6957 115.714 98.5909 115.167 99.1377Z" fill="black"/>
<path d="M103.319 103.317L101.705 104.931L105.538 108.764L107.152 107.15L103.319 103.317Z" fill="white"/>
<path d="M108.242 106.069L108.904 105.407L105.071 101.573L104.409 102.236L108.242 106.069Z" fill="white"/>
<path d="M74.7508 144.906C54.0804 124.236 54.0804 90.6024 74.7508 69.932C95.4212 49.2616 129.054 49.2616 149.725 69.932L149.111 70.546C128.779 50.214 95.6964 50.214 75.3644 70.546C55.0324 90.878 55.0324 123.96 75.3644 144.292L74.7508 144.906Z" fill="#8E9FAA"/>
<path d="M111.928 32.7523L37.5684 107.112L38.1821 107.726L112.542 33.3661L111.928 32.7523Z" fill="#8E9FAA"/>
<path d="M75.0561 64.6827L69.5 70.2388L75.0561 75.7949L80.6122 70.2388L75.0561 64.6827Z" fill="white"/>
<path d="M75.0567 76.4088L68.8867 70.2388L75.0567 64.0688L81.2267 70.2388L75.0567 76.4088ZM70.1143 70.2388L75.0567 75.1812L79.9991 70.2388L75.0567 65.2964L70.1143 70.2388Z" fill="#8E9FAA"/>
<path d="M75.0561 139.043L69.5 144.599L75.0561 150.155L80.6122 144.599L75.0561 139.043Z" fill="white"/>
<path d="M75.0567 150.769L68.8867 144.599L75.0567 138.429L81.2267 144.599L75.0567 150.769ZM70.1143 144.599L75.0567 149.541L79.9991 144.599L75.0567 139.656L70.1143 144.599Z" fill="#8E9FAA"/>
<path d="M149.576 64.522L144.02 70.0781L149.576 75.6342L155.132 70.0781L149.576 64.522Z" fill="white"/>
<path d="M149.578 76.2477L143.408 70.0777L149.578 63.9077L155.748 70.0777L149.578 76.2477ZM144.636 70.0773L149.578 75.0197L154.521 70.0773L149.578 65.1349L144.636 70.0773Z" fill="#8E9FAA"/>
<path d="M115.176 30.1195C116.71 31.6539 116.71 34.1416 115.176 35.6756C113.642 37.21 111.154 37.21 109.62 35.6756C108.085 34.1412 108.085 31.6535 109.62 30.1195C111.154 28.5851 113.642 28.5851 115.176 30.1195Z" fill="white"/>
<path d="M112.398 37.2602C111.233 37.2602 110.137 36.8066 109.313 35.9822C107.612 34.281 107.612 31.513 109.313 29.8122C110.137 28.9882 111.233 28.5342 112.398 28.5342C113.563 28.5342 114.659 28.9878 115.483 29.8122C116.307 30.6362 116.761 31.7318 116.761 32.8974C116.761 34.0626 116.307 35.1582 115.483 35.9826C114.659 36.8066 113.563 37.2602 112.398 37.2602ZM112.398 29.4026C111.465 29.4026 110.587 29.7662 109.927 30.4262C108.565 31.789 108.565 34.0058 109.927 35.3686C111.29 36.7314 113.507 36.731 114.869 35.3686C115.529 34.7086 115.893 33.831 115.893 32.8974C115.893 31.9638 115.529 31.0862 114.869 30.4262C114.209 29.7662 113.332 29.4026 112.398 29.4026Z" fill="#8E9FAA"/>
<path d="M40.6545 104.641C42.1889 106.175 42.1889 108.663 40.6545 110.197C39.1201 111.732 36.6325 111.732 35.0981 110.197C33.5637 108.663 33.5637 106.175 35.0981 104.641C36.6325 103.107 39.1201 103.107 40.6545 104.641Z" fill="white"/>
<path d="M37.8767 111.78C36.7595 111.78 35.6423 111.354 34.7915 110.504C33.0903 108.803 33.0903 106.035 34.7915 104.334C36.4927 102.633 39.2607 102.633 40.9615 104.334C42.6627 106.035 42.6627 108.803 40.9615 110.504C40.1111 111.354 38.9939 111.78 37.8767 111.78ZM37.8767 103.926C36.9815 103.926 36.0871 104.266 35.4055 104.948C34.0427 106.31 34.0427 108.528 35.4055 109.89C36.7683 111.253 38.9855 111.253 40.3479 109.89C41.7103 108.528 41.7103 106.311 40.3479 104.948C39.6667 104.267 38.7715 103.926 37.8767 103.926Z" fill="#8E9FAA"/>
</svg>
