<svg width="268" height="150" viewBox="0 0 268 150" fill="none" xmlns="http://www.w3.org/2000/svg">
<mask id="mask0_1118_8745" style="mask-type:alpha" maskUnits="userSpaceOnUse" x="0" y="0" width="268" height="150">
<path d="M267.219 0H0V150H267.219V0Z" fill="#C4C4C4"/>
</mask>
<g mask="url(#mask0_1118_8745)">
<path d="M283.273 199.135C283.273 260.323 216.145 309.926 133.338 309.926C50.5311 309.926 -16.5972 260.323 -16.5972 199.135C-16.5972 137.946 50.5311 88.3433 133.338 88.3433C216.145 88.3433 283.273 137.946 283.273 199.135Z" fill="url(#paint0_linear_1118_8745)"/>
<path d="M101.819 24.5151C101.819 24.2159 102.062 23.9734 102.361 23.9734H164.314C164.613 23.9734 164.855 24.2159 164.855 24.5151V56.0336C164.855 56.505 164.257 56.7071 163.971 56.3323C163.685 55.9574 163.087 56.1595 163.087 56.631V81.1214C163.087 81.5549 163.571 81.8128 163.931 81.571L164.011 81.5166C164.371 81.2747 164.855 81.5326 164.855 81.9662V101.023C164.855 101.322 164.613 101.565 164.314 101.565H102.361C102.062 101.565 101.819 101.322 101.819 101.023V24.5151Z" fill="#CCCCCC"/>
<path d="M54.8188 127.11L101.849 101.594H165.059L112.578 147.146L54.8188 127.11Z" fill="url(#paint1_linear_1118_8745)"/>
<path fill-rule="evenodd" clip-rule="evenodd" d="M166.784 3.99065C167.059 4.06288 167.223 4.34427 167.151 4.61917L164.31 15.4345C164.237 15.7094 163.956 15.8737 163.681 15.8015C163.406 15.7292 163.242 15.4478 163.314 15.173L166.156 4.35762C166.228 4.08272 166.509 3.91843 166.784 3.99065Z" fill="#F1F1F1"/>
<path fill-rule="evenodd" clip-rule="evenodd" d="M179.085 10.7988C179.283 11.0028 179.278 11.3286 179.074 11.5266L171.303 19.0654C171.099 19.2633 170.773 19.2583 170.575 19.0543C170.377 18.8503 170.382 18.5245 170.586 18.3267L178.357 10.7878C178.561 10.5899 178.887 10.5948 179.085 10.7988Z" fill="#F1F1F1"/>
<path fill-rule="evenodd" clip-rule="evenodd" d="M186.265 23.8652C186.325 24.1431 186.148 24.4168 185.87 24.4765L174.939 26.8251C174.661 26.8848 174.387 26.7079 174.327 26.43C174.268 26.1522 174.444 25.8785 174.722 25.8188L185.654 23.4701C185.931 23.4104 186.205 23.5873 186.265 23.8652Z" fill="#F1F1F1"/>
<path d="M66.0513 90.0828H70.6318H75.1942C77.0651 90.0828 78.3726 88.2312 77.7468 86.4681L71.6515 69.2955C71.3104 68.3345 69.9516 68.334 69.6097 69.2947L63.4994 86.4661C62.8719 88.2296 64.1795 90.0828 66.0513 90.0828Z" fill="#F1F1F1"/>
<path d="M69.1714 88.0537H72.0709V99.2459H69.1714V88.0537Z" fill="#F1F1F1"/>
<path d="M54.5117 97.794H56.4502H58.3774C60.2483 97.794 61.5558 95.9425 60.93 94.1794L57.4699 84.4312C57.1289 83.4702 55.77 83.4697 55.4282 84.4304L51.9598 94.1774C51.3323 95.9408 52.6399 97.794 54.5117 97.794Z" fill="#F1F1F1"/>
<path d="M55.4482 96.4014H57.4379V104.082H55.4482V96.4014Z" fill="#F1F1F1"/>
<path d="M196.82 93.3289H198.759H200.686C202.557 93.3289 203.865 91.4775 203.239 89.7144L199.779 79.9662C199.438 79.0052 198.079 79.0047 197.737 79.9654L194.269 89.7122C193.641 91.4757 194.949 93.3289 196.82 93.3289Z" fill="#F1F1F1"/>
<path d="M197.757 91.9363H199.747V99.6164H197.757V91.9363Z" fill="#F1F1F1"/>
<path fill-rule="evenodd" clip-rule="evenodd" d="M108.103 28.5547C107.804 28.5547 107.561 28.7973 107.561 29.0965V86.6197L116.952 96.984H158.573C158.873 96.984 159.115 96.7414 159.115 96.4422V82.888C159.115 82.6934 159.011 82.5137 158.842 82.4174L156.489 81.0764C156.32 80.98 156.216 80.8003 156.216 80.6057V56.2254C156.216 56.0393 156.311 55.8663 156.469 55.7671L158.862 54.2591C159.02 54.1599 159.115 53.9868 159.115 53.8007V29.0965C159.115 28.7973 158.873 28.5547 158.573 28.5547H108.103Z" fill="white"/>
<path d="M116.811 86.6035H107.561L116.811 96.9839V86.6035Z" fill="#F1F1F1"/>
<path d="M131.122 68.5743H135.263L136.359 54.6912L136.562 48.6428H129.823L130.026 54.6912L131.122 68.5743ZM133.193 79.3722C135.222 79.3722 136.765 77.9108 136.765 75.7999C136.765 73.6485 135.222 72.1871 133.193 72.1871C131.163 72.1871 129.62 73.6485 129.62 75.7999C129.62 77.9108 131.122 79.3722 133.193 79.3722Z" fill="#CCCCCC"/>
<path d="M170.994 82.3896L166.804 84.6115L177.105 104.04L181.296 101.818L170.994 82.3896Z" fill="#CCCCCC"/>
<path d="M170.544 79.7L164.83 82.7298L166.446 85.7774L172.16 82.7476L170.544 79.7Z" fill="#B8B8B8"/>
<path fill-rule="evenodd" clip-rule="evenodd" d="M168.091 81.9766C160.832 85.8253 151.828 83.061 147.979 75.8024C144.131 68.5438 146.895 59.5396 154.153 55.6909C161.412 51.8423 170.416 54.6066 174.265 61.8652C178.114 69.1238 175.349 78.128 168.091 81.9766ZM166.879 79.6912C160.882 82.8705 153.444 80.5869 150.265 74.5907C147.086 68.5945 149.369 61.1562 155.365 57.9769C161.362 54.7976 168.8 57.0812 171.979 63.0774C175.158 69.0736 172.875 76.5119 166.879 79.6912Z" fill="url(#paint2_linear_1118_8745)"/>
<path opacity="0.4" d="M149.122 71.2999C150.456 77.9544 156.932 82.2672 163.587 80.9328C170.241 79.5985 174.554 73.1222 173.22 66.4677C171.885 59.8132 165.409 55.5004 158.755 56.8348C152.1 58.1692 147.787 64.6454 149.122 71.2999Z" fill="white"/>
<path fill-rule="evenodd" clip-rule="evenodd" d="M139.063 21.5382C139.099 21.8278 139.336 22.0599 139.628 22.0599H147.149C147.448 22.0599 147.69 22.3025 147.69 22.6017V30.2168C147.69 30.516 147.448 30.7586 147.149 30.7586H120.049C119.749 30.7586 119.507 30.516 119.507 30.2168V22.6017C119.507 22.3025 119.749 22.0599 120.049 22.0599H127.048C127.34 22.0599 127.576 21.8278 127.613 21.5382C127.969 18.6935 130.396 16.4927 133.338 16.4927C136.279 16.4927 138.706 18.6935 139.063 21.5382Z" fill="#CCCCCC"/>
</g>
<defs>
<linearGradient id="paint0_linear_1118_8745" x1="133.377" y1="21.8278" x2="133.377" y2="141.247" gradientUnits="userSpaceOnUse">
<stop stop-color="#E9EEFA"/>
<stop offset="1" stop-color="#E9EEFA" stop-opacity="0"/>
</linearGradient>
<linearGradient id="paint1_linear_1118_8745" x1="131.744" y1="93.3014" x2="116.521" y2="130.763" gradientUnits="userSpaceOnUse">
<stop stop-color="#E6E6E6"/>
<stop offset="1" stop-color="#F9F9F9"/>
</linearGradient>
<linearGradient id="paint2_linear_1118_8745" x1="154.153" y1="55.6909" x2="168.091" y2="81.9766" gradientUnits="userSpaceOnUse">
<stop stop-color="#999999"/>
<stop offset="1" stop-color="#CCCCCC"/>
</linearGradient>
</defs>
</svg>
