<svg width="81" height="90" viewBox="0 0 81 90" fill="none" xmlns="http://www.w3.org/2000/svg">
<path d="M80.4963 23.9366L35.7422 0L0.49625 65.899L45.2503 89.8356L80.4963 23.9366Z" fill="#F5F5F5"/>
<path d="M37.5931 69.3967L34.755 70.3673L27.5469 50.4447L30.3892 49.4697L37.5931 69.3967Z" fill="#E0E0E0"/>
<path d="M41.9439 54.9238L42.9799 57.7836L23.1922 64.5608L22.1562 61.7011L41.9439 54.9238Z" fill="#E0E0E0"/>
<path d="M56.0085 25.5303C55.9737 25.5956 51.4381 23.2364 45.8709 20.2634C40.3037 17.2905 35.8248 14.8225 35.8596 14.7572C35.8944 14.6919 40.4343 17.0511 46.0015 20.024C51.5687 22.997 56.0433 25.4606 56.0085 25.5303Z" fill="#E0E0E0"/>
<path d="M66.7496 37.3829C66.7148 37.4482 59.202 33.4959 49.9697 28.5599C40.7375 23.6238 33.2856 19.5671 33.3204 19.5018C33.3553 19.4365 40.8638 23.3844 50.096 28.3248C59.3282 33.2652 66.7845 37.3176 66.7496 37.3829Z" fill="#E0E0E0"/>
<path d="M64.1168 42.3146C64.082 42.3799 56.5691 38.4319 47.3369 33.4915C38.1047 28.5511 30.6528 24.4987 30.6876 24.4334C30.7224 24.3681 38.2309 28.3204 47.4632 33.2565C56.6954 38.1925 64.1516 42.2493 64.1168 42.3146Z" fill="#E0E0E0"/>
<path d="M61.4762 47.2461C61.4414 47.3114 53.9285 43.3634 44.6963 38.4274C35.4641 33.4914 28.0122 29.4477 28.047 29.3693C28.0818 29.291 35.5903 33.252 44.8225 38.188C54.0547 43.124 61.511 47.1808 61.4762 47.2461Z" fill="#E0E0E0"/>
<path d="M58.8356 52.1774C58.8008 52.2427 51.2879 48.2947 42.0557 43.3587C32.8235 38.4227 25.3672 34.3659 25.4064 34.3006C25.4456 34.2353 32.9497 38.1833 42.1819 43.1193C51.4141 48.0553 58.8704 52.1121 58.8356 52.1774Z" fill="#E0E0E0"/>
</svg>
