<svg width="326" height="225" viewBox="0 0 326 225" fill="none" xmlns="http://www.w3.org/2000/svg">
<g clip-path="url(#clip0_2753_31917)">
<g opacity="0.5">
<path fill-rule="evenodd" clip-rule="evenodd" d="M246.935 27.7869H232.793C229.547 27.7869 226.638 25.5326 226.065 22.332C226.056 22.2808 226.048 22.2289 226.039 22.1778C225.389 18.1227 228.76 14.5204 232.859 14.5204C236.645 14.5204 240.025 11.7482 240.384 7.97348C240.796 3.64297 237.408 0 233.171 0H194.831C191.046 0 187.666 2.77222 187.306 6.5469C186.894 10.8774 190.282 14.5204 194.52 14.5204H199.551C200.997 14.7141 202.369 15.4175 203.22 16.6047C203.877 17.5215 204.331 18.543 204.581 19.6039C205.572 23.8108 202.146 27.7869 197.831 27.7869H141.34C137.555 27.7869 134.175 30.5591 133.815 34.3338C133.403 38.6643 136.791 42.3077 141.028 42.3077H247.246C251.484 42.3077 254.872 38.6643 254.459 34.3338C254.1 30.5591 250.72 27.7869 246.935 27.7869Z" fill="#B2D5E5" fill-opacity="0.6"/>
<path fill-rule="evenodd" clip-rule="evenodd" d="M191.575 185.479H177.433C174.188 185.479 171.279 183.225 170.706 180.024C170.697 179.973 170.689 179.921 170.68 179.87C170.029 175.815 173.401 172.213 177.5 172.213C181.285 172.213 184.665 169.441 185.025 165.666C185.437 161.335 182.049 157.692 177.811 157.692H139.472C135.686 157.692 132.306 160.465 131.947 164.239C131.535 168.57 134.923 172.213 139.16 172.213H144.192C145.637 172.406 147.009 173.11 147.861 174.297C148.518 175.214 148.971 176.235 149.221 177.296C150.213 181.503 146.787 185.479 142.472 185.479H85.9807C82.1955 185.479 78.8151 188.252 78.4559 192.026C78.0434 196.357 81.4319 200 85.6691 200H191.887C196.125 200 199.512 196.357 199.1 192.026C198.741 188.252 195.361 185.479 191.575 185.479Z" fill="#B2D5E5" fill-opacity="0.6"/>
<path fill-rule="evenodd" clip-rule="evenodd" d="M318.469 105.546H298.318C295.761 105.546 293.375 103.995 292.566 101.568C291.931 99.6672 291.972 97.569 292.725 95.681C293.213 94.4565 294.44 93.6838 295.757 93.6838C299.53 93.6838 302.898 90.9245 303.256 87.1673C303.667 82.8568 300.291 79.2307 296.068 79.2307H190.525C186.753 79.2307 183.384 81.9897 183.026 85.7473C182.615 90.0577 185.992 93.6838 190.214 93.6838H264.923C268.194 93.6838 271.014 96.2439 271.063 99.5164C271.064 99.5635 271.064 99.6105 271.064 99.6579C271.059 102.952 268.216 105.546 264.923 105.546H213.237C209.465 105.546 206.096 108.306 205.738 112.063C205.327 116.374 208.703 120 212.926 120H318.78C323.002 120 326.378 116.374 325.968 112.063C325.609 108.306 322.241 105.546 318.469 105.546Z" fill="#B2D5E5" fill-opacity="0.6"/>
<path fill-rule="evenodd" clip-rule="evenodd" d="M7.77774 90.3857H28.5789C31.2187 90.3857 33.6811 88.7761 34.5167 86.2575C35.1718 84.2846 35.1293 82.1072 34.3521 80.1479C33.8485 78.8772 32.5821 78.0754 31.2223 78.0754C27.3284 78.0754 23.8513 75.2119 23.4818 71.3129C23.0578 66.8398 26.5428 63.0769 30.9021 63.0769H139.85C143.743 63.0769 147.221 65.94 147.59 69.8394C148.014 74.3125 144.529 78.0754 140.17 78.0754H63.0512C59.6747 78.0754 56.7636 80.7321 56.7131 84.1281C56.7123 84.1769 56.7119 84.2257 56.7119 84.275C56.7171 87.6934 59.6525 90.3857 63.0516 90.3857H116.405C120.299 90.3857 123.776 93.2492 124.146 97.1486C124.57 101.622 121.084 105.385 116.725 105.385H7.45717C3.09831 105.385 -0.386307 101.622 0.0372925 97.1486C0.407196 93.2492 3.88425 90.3857 7.77774 90.3857Z" fill="#B2D5E5" fill-opacity="0.6"/>
<path fill-rule="evenodd" clip-rule="evenodd" d="M228.581 131.637H142.921C142.101 131.637 141.287 131.39 140.635 130.892C137.559 128.538 136.584 124.456 137.912 121.047C138.206 120.29 138.955 119.803 139.765 119.803C143.221 119.803 146.398 117.482 147.077 114.085C148.003 109.45 144.493 105.385 140.036 105.385H120.484C117.028 105.385 113.851 107.705 113.172 111.103C112.247 115.738 115.756 119.803 120.213 119.803H122.805C124.48 119.803 125.997 120.881 126.478 122.49C127.428 125.664 126.716 130.195 123.676 131.565C123.608 131.596 123.545 131.637 123.471 131.637C120.419 131.637 117.608 133.535 116.668 136.447C115.054 141.445 118.725 146.055 123.471 146.055H143.286C144.71 146.055 146.078 146.815 146.686 148.107C147.878 150.643 147.753 153.661 146.304 156.092C145.627 157.229 144.365 157.889 143.044 157.889H140.704C136.733 157.889 133.514 161.117 133.514 165.098C133.514 169.08 136.733 172.308 140.703 172.308H175.653C179.623 172.308 182.843 169.08 182.843 165.098C182.843 161.117 179.623 157.889 175.653 157.889H163.938C162.943 157.889 161.955 157.534 161.268 156.814C159.234 154.683 158.51 151.657 159.19 148.896C159.606 147.207 161.173 146.055 162.907 146.055H228.852C233.309 146.055 236.819 141.99 235.893 137.355C235.214 133.958 232.037 131.637 228.581 131.637Z" fill="#B2D5E5" fill-opacity="0.6"/>
</g>
<path fill-rule="evenodd" clip-rule="evenodd" d="M249.167 42.6367H244.651C244.09 42.6367 243.635 42.1808 243.635 41.6195V37.0973C243.635 36.5352 243.181 36.0793 242.619 36.0793C242.058 36.0793 241.603 36.5352 241.603 37.0973V41.6195C241.603 42.1808 241.148 42.6367 240.587 42.6367H236.071C235.51 42.6367 235.055 43.0925 235.055 43.6538C235.055 44.2159 235.51 44.6718 236.071 44.6718H240.587C241.148 44.6718 241.603 45.1268 241.603 45.6889V50.2112C241.603 50.7725 242.058 51.2283 242.619 51.2283C243.181 51.2283 243.635 50.7725 243.635 50.2112V45.6889C243.635 45.1268 244.09 44.6718 244.651 44.6718H249.167C249.728 44.6718 250.183 44.2159 250.183 43.6538C250.183 43.0925 249.728 42.6367 249.167 42.6367Z" fill="#66CDED"/>
<path fill-rule="evenodd" clip-rule="evenodd" d="M108.457 166.655H103.941C103.379 166.655 102.925 166.199 102.925 165.638V161.116C102.925 160.553 102.47 160.098 101.908 160.098C101.347 160.098 100.893 160.553 100.893 161.116V165.638C100.893 166.199 100.437 166.655 99.8762 166.655H95.3603C94.799 166.655 94.3438 167.11 94.3438 167.672C94.3438 168.234 94.799 168.69 95.3603 168.69H99.8762C100.437 168.69 100.893 169.145 100.893 169.708V174.23C100.893 174.791 101.347 175.247 101.908 175.247C102.47 175.247 102.925 174.791 102.925 174.23V169.708C102.925 169.145 103.379 168.69 103.941 168.69H108.457C109.017 168.69 109.472 168.234 109.472 167.672C109.472 167.11 109.017 166.655 108.457 166.655Z" fill="#66CDED"/>
<path fill-rule="evenodd" clip-rule="evenodd" d="M183.713 84.8335C183.713 86.6876 182.212 88.1899 180.36 88.1899C178.509 88.1899 177.008 86.6876 177.008 84.8335C177.008 82.9793 178.509 81.4771 180.36 81.4771C182.212 81.4771 183.713 82.9793 183.713 84.8335Z" fill="#B2D5E5"/>
<path fill-rule="evenodd" clip-rule="evenodd" d="M186.802 20.3435C184.95 20.3435 183.45 18.8412 183.45 16.987C183.45 15.1329 184.95 13.6298 186.802 13.6298C188.653 13.6298 190.154 15.1329 190.154 16.987C190.154 18.8412 188.653 20.3435 186.802 20.3435ZM186.802 10.7693C183.373 10.7693 180.594 13.5536 180.594 16.987C180.594 20.4205 183.373 23.204 186.802 23.204C190.231 23.204 193.01 20.4205 193.01 16.987C193.01 13.5536 190.231 10.7693 186.802 10.7693Z" fill="#799EB2"/>
<path fill-rule="evenodd" clip-rule="evenodd" d="M276.396 120.929C274.545 120.929 273.044 119.427 273.044 117.573C273.044 115.719 274.545 114.216 276.396 114.216C278.247 114.216 279.748 115.719 279.748 117.573C279.748 119.427 278.247 120.929 276.396 120.929ZM276.396 111.355C272.967 111.355 270.188 114.14 270.188 117.573C270.188 121.006 272.967 123.79 276.396 123.79C279.825 123.79 282.604 121.006 282.604 117.573C282.604 114.14 279.825 111.355 276.396 111.355Z" fill="#799EB2"/>
<path fill-rule="evenodd" clip-rule="evenodd" d="M96.2121 43.654C96.2121 45.5074 94.7119 47.0105 92.8603 47.0105C91.008 47.0105 89.5078 45.5074 89.5078 43.654C89.5078 41.7999 91.008 40.2976 92.8603 40.2976C94.7119 40.2976 96.2121 41.7999 96.2121 43.654Z" fill="#B2D5E5"/>
<path fill-rule="evenodd" clip-rule="evenodd" d="M150.411 55.1376C143.441 54.4762 137.774 48.8714 137.036 41.899C136.5 36.837 138.497 32.2232 141.907 29.1555C140.254 35.856 142.741 40.3421 144.436 42.4727C145.054 43.2504 145.942 43.794 146.932 43.8779C148.313 43.9949 148.608 44.7372 148.633 45.2855C148.656 45.8391 148.749 46.3981 149.035 46.8724C152.212 52.1069 162.629 50.3474 162.909 50.2997C159.88 53.64 155.369 55.6081 150.411 55.1376ZM168.06 44.2113C166.997 44.7596 165.899 45.3625 165.831 45.5411C161.23 48.1583 156.88 47.2551 154.412 46.3103C153.288 45.8807 152.464 44.9213 152.177 43.7516C151.653 41.621 149.821 40.9011 148.457 40.6647C147.325 40.4683 146.31 39.8038 145.803 38.772C142.803 32.6752 146.062 26.5013 146.062 26.5013L146.686 24.3014C146.929 23.4498 146.091 22.696 145.265 23.0132C137.945 25.8253 132.869 33.1741 133.47 41.6226C134.103 50.503 141.19 57.7987 150.04 58.6511C159.209 59.5343 167.168 53.6908 169.573 45.4695C169.838 44.5671 168.895 43.7809 168.06 44.2113Z" fill="#66CDED"/>
<path fill-rule="evenodd" clip-rule="evenodd" d="M213.359 137.694L220.133 128.228L215.407 124.947L209.054 133.104L213.359 137.694Z" fill="#B2D5E5" stroke="#799EB2" stroke-width="2"/>
<path fill-rule="evenodd" clip-rule="evenodd" d="M191.799 160.886L185.026 170.35L189.75 173.632L196.103 165.475L191.799 160.886Z" fill="#B2D5E5" stroke="#799EB2" stroke-width="2"/>
<path fill-rule="evenodd" clip-rule="evenodd" d="M173.521 150.683L193.288 120.719L239.002 152.139L218.793 181.978L173.521 150.683Z" fill="#B2D5E5" stroke="#799EB2" stroke-width="2"/>
<path fill-rule="evenodd" clip-rule="evenodd" d="M218.521 181.801L238.496 151.809L242.605 154.603C245.928 156.862 246.784 161.388 244.516 164.705L232.383 182.452C230.129 185.748 225.634 186.605 222.325 184.369L218.521 181.801Z" fill="#B2D5E5" stroke="#799EB2" stroke-width="2"/>
<path fill-rule="evenodd" clip-rule="evenodd" d="M175.407 103.781C185.999 110.302 189.299 124.175 182.778 134.768C176.256 145.36 162.384 148.659 151.792 142.139L175.407 103.781Z" fill="#B2D5E5" stroke="#799EB2" stroke-width="2"/>
<path fill-rule="evenodd" clip-rule="evenodd" d="M152.222 111.015C154.943 110.486 157.577 112.263 158.105 114.984C158.634 117.705 156.858 120.339 154.138 120.868C151.417 121.397 148.782 119.62 148.253 116.899C147.724 114.179 149.502 111.544 152.222 111.015Z" fill="#B2D5E5" stroke="#799EB2" stroke-width="2"/>
<path fill-rule="evenodd" clip-rule="evenodd" d="M149.38 72.7065C149.758 71.778 149.133 70.7376 148.134 70.6468C137.983 69.7139 125.785 75.8871 116.828 87.609C106.501 101.128 103.711 117.806 109.075 128.598C109.351 129.153 109.991 129.422 110.59 129.267C111.401 129.059 111.817 128.162 111.447 127.412C106.706 117.795 109.553 102.448 119.206 89.8134C127.56 78.8764 138.733 72.9547 147.845 73.6271C148.507 73.676 149.129 73.321 149.38 72.7065Z" fill="#799EB2"/>
<path fill-rule="evenodd" clip-rule="evenodd" d="M160.423 96.4046C160.912 95.8112 160.767 94.913 160.108 94.5138C153.887 90.7464 143.925 93.9908 137.08 102.286C130.223 110.594 128.934 121.015 133.846 126.4C134.35 126.952 135.232 126.926 135.706 126.352C136.09 125.887 136.082 125.208 135.672 124.766C131.505 120.281 132.822 111.204 138.903 103.835C144.973 96.4811 153.617 93.4641 158.814 96.6789C159.342 97.0043 160.029 96.8819 160.423 96.4046Z" fill="#799EB2"/>
<path fill-rule="evenodd" clip-rule="evenodd" d="M205.94 117.062L230.715 133.797L240.368 120.096L215.22 102.942L205.94 117.062Z" fill="#B2D5E5" stroke="#799EB2" stroke-width="2"/>
<path fill-rule="evenodd" clip-rule="evenodd" d="M215.197 103.336L239.973 120.073L249.625 106.37L224.478 89.2181L215.197 103.336Z" fill="#B2D5E5" fill-opacity="0.3" stroke="#799EB2" stroke-width="2"/>
<path fill-rule="evenodd" clip-rule="evenodd" d="M224.557 89.4586L249.331 106.194L258.985 92.4926L233.838 75.3392L224.557 89.4586Z" fill="#B2D5E5" stroke="#799EB2" stroke-width="2"/>
<path fill-rule="evenodd" clip-rule="evenodd" d="M146.12 206.131L170.895 222.867L180.547 209.165L155.4 192.013L146.12 206.131Z" fill="#B2D5E5" stroke="#799EB2" stroke-width="2"/>
<path fill-rule="evenodd" clip-rule="evenodd" d="M155.377 192.407L180.153 209.143L189.805 195.441L164.658 178.288L155.377 192.407Z" fill="#B2D5E5" fill-opacity="0.3" stroke="#799EB2" stroke-width="2"/>
<path fill-rule="evenodd" clip-rule="evenodd" d="M164.737 178.528L189.512 195.264L199.164 181.562L174.017 164.409L164.737 178.528Z" fill="#B2D5E5" stroke="#799EB2" stroke-width="2"/>
</g>
<defs>
<clipPath id="clip0_2753_31917">
<rect width="326" height="225" fill="white"/>
</clipPath>
</defs>
</svg>
