<svg width="8" height="12" viewBox="0 0 8 12" fill="none" xmlns="http://www.w3.org/2000/svg">
<path d="M3.5448 8.03718C3.51043 8.04901 3.49084 8.01873 3.46747 8.00482C2.32184 7.32033 1.17748 6.63538 0.0343688 5.94997C0.0232998 5.94431 0.0118081 5.93954 0 5.9357V5.9204L0.0202785 5.90857C0.0490706 5.90091 0.0774139 5.89162 0.105171 5.88073L2.80484 4.63725C3.04542 4.52626 3.286 4.41701 3.52659 4.30706H3.54377C3.54377 4.34186 3.54377 4.37282 3.54377 4.40587C3.54469 5.61642 3.54503 6.82686 3.5448 8.03718Z" fill="#343535"/>
<path d="M3.54651 4.30791H3.52932C3.52932 4.27311 3.53276 4.23832 3.53276 4.20179C3.53276 2.8421 3.53276 1.48229 3.53276 0.122362C3.52881 0.0874347 3.53114 0.0520717 3.53963 0.0179843H3.54685C3.68811 0.229175 3.81115 0.451847 3.94106 0.669997C4.97029 2.39826 5.99895 4.12629 7.02704 5.85409C7.03701 5.87114 7.04491 5.88888 7.05384 5.90767C7.02473 5.90137 6.99613 5.89288 6.96827 5.88227C6.77958 5.79599 6.59021 5.70831 6.40324 5.62028C6.11042 5.48459 5.81748 5.34913 5.52443 5.21391L4.11256 4.56642C3.92456 4.47874 3.73554 4.3935 3.54651 4.30791Z" fill="#2F3030"/>
<path d="M3.54077 0.0161862C3.53227 0.0502735 3.52994 0.0856365 3.53389 0.120564C3.53389 1.48026 3.53389 2.84007 3.53389 4.19999C3.53389 4.23478 3.53183 4.26958 3.53046 4.30611C3.28987 4.41605 3.04929 4.5253 2.80871 4.63629L0.10904 5.87978C0.081283 5.89067 0.0529398 5.89996 0.0241477 5.90761C0.102165 5.74339 0.203554 5.59448 0.296006 5.43722C1.36717 3.63473 2.43913 1.83259 3.51189 0.0307995C3.51898 0.0208181 3.52667 0.0112897 3.53492 0.00226935L3.54077 0.0161862Z" fill="#828384"/>
<path d="M3.54651 4.30791C3.73554 4.3935 3.92462 4.47877 4.11331 4.56506L5.52518 5.21254C5.81846 5.34754 6.1114 5.483 6.40399 5.61892C6.59233 5.70625 6.78205 5.79462 6.96901 5.88091C6.99687 5.89152 7.02548 5.90001 7.05459 5.90631C7.08896 5.9498 7.03809 5.95154 7.02263 5.96093C6.72946 6.13837 6.43492 6.31338 6.14107 6.48943C5.29766 6.99462 4.45447 7.49969 3.61152 8.00465C3.59021 8.01717 3.56714 8.02639 3.5448 8.03718C3.5448 6.82709 3.54485 5.61707 3.54485 4.40675C3.54519 4.3737 3.54616 4.34096 3.54651 4.30791Z" fill="#131313"/>
<path d="M3.53272 8.72456L5.74092 7.40697C6.16251 7.15507 6.58387 6.90294 7.00501 6.65058L7.04316 6.62935C7.04694 6.66415 7.02322 6.68259 7.00879 6.70277C6.04646 8.07615 5.08413 9.44906 4.12181 10.8215C3.93965 11.0818 3.75784 11.3434 3.57397 11.6016C3.56434 11.6151 3.54957 11.6788 3.52001 11.6113C3.54338 11.5911 3.53307 11.564 3.53307 11.5417C3.5333 10.6023 3.53318 9.66327 3.53272 8.72456Z" fill="#2F3030"/>
<path d="M3.53253 8.72474C3.53253 9.66344 3.53253 10.6019 3.53253 11.5402C3.53253 11.5642 3.54285 11.5913 3.51947 11.6097C3.47033 11.5798 3.44902 11.5262 3.41637 11.482C2.30053 9.89087 1.18526 8.29946 0.0705642 6.70781C0.0564729 6.68763 0.043412 6.66606 0.0289771 6.64379C0.0578469 6.62675 0.0733139 6.65006 0.0901546 6.66015C1.2186 7.33466 2.34681 8.00975 3.47479 8.68542C3.49576 8.69864 3.51363 8.71221 3.53253 8.72474Z" fill="#828384"/>
<path d="M3.54102 0.016167L3.53277 0.00329388C3.54789 -0.00644804 3.54583 0.00781678 3.54824 0.0151232L3.54102 0.016167Z" fill="#393939"/>
</svg>
