<svg width="40" height="40" viewBox="0 0 40 40" fill="none" xmlns="http://www.w3.org/2000/svg">
<circle cx="20" cy="20" r="19.5" fill="white" stroke="url(#paint0_linear_4414_10841)"/>
<path d="M26.5 17H29.5V29H26.5V17ZM22.5 21H25.5V29H22.5V21ZM18.5 19H21.5V29H18.5V19ZM14.5 24H17.5V29H14.5V24ZM10.5 22H13.5V29H10.5V22Z" fill="#00BCD4"/>
<path d="M12 17.5C12.8284 17.5 13.5 16.8284 13.5 16C13.5 15.1716 12.8284 14.5 12 14.5C11.1716 14.5 10.5 15.1716 10.5 16C10.5 16.8284 11.1716 17.5 12 17.5Z" fill="#3F51B5"/>
<path d="M16 18.5C16.8284 18.5 17.5 17.8284 17.5 17C17.5 16.1716 16.8284 15.5 16 15.5C15.1716 15.5 14.5 16.1716 14.5 17C14.5 17.8284 15.1716 18.5 16 18.5Z" fill="#3F51B5"/>
<path d="M20 15C20.8284 15 21.5 14.3284 21.5 13.5C21.5 12.6716 20.8284 12 20 12C19.1716 12 18.5 12.6716 18.5 13.5C18.5 14.3284 19.1716 15 20 15Z" fill="#3F51B5"/>
<path d="M24 16C24.8284 16 25.5 15.3284 25.5 14.5C25.5 13.6716 24.8284 13 24 13C23.1716 13 22.5 13.6716 22.5 14.5C22.5 15.3284 23.1716 16 24 16Z" fill="#3F51B5"/>
<path d="M28 14C28.8284 14 29.5 13.3284 29.5 12.5C29.5 11.6716 28.8284 11 28 11C27.1716 11 26.5 11.6716 26.5 12.5C26.5 13.3284 27.1716 14 28 14Z" fill="#3F51B5"/>
<path d="M27.55 11.6001L23.9 13.4501L19.75 12.4001L15.75 15.9001L12.25 15.0501L11.75 16.9501L16.25 18.1001L20.25 14.6001L24.1 15.5501L28.45 13.4001L27.55 11.6001Z" fill="#3F51B5"/>
<defs>
<linearGradient id="paint0_linear_4414_10841" x1="7" y1="4.5" x2="28.5" y2="40" gradientUnits="userSpaceOnUse">
<stop stop-color="#66CDED"/>
<stop offset="1" stop-color="#7F60F9"/>
</linearGradient>
</defs>
</svg>
