<svg width="255" height="40" viewBox="0 0 255 40" fill="none" xmlns="http://www.w3.org/2000/svg">
<g id="Flutterwave svg" clip-path="url(#clip0_1_329)">
<g id="Group">
<path id="Vector" d="M82.5059 9.34375H78.0273V32.2601H82.5059V9.34375Z" fill="#EDF5FC"/>
<path id="Vector_2" d="M99.8632 24.1328C99.8632 27.2841 97.8047 28.7216 95.0787 28.7216C92.3526 28.7216 90.5167 27.3118 90.5167 24.2987V16.1162H86.0381V25.3215C86.0381 29.9103 88.9311 32.5917 93.7434 32.5917C96.7755 32.5917 98.4445 31.4859 99.5851 30.242H99.8354L100.225 32.2876H104.342V16.1162H99.8632V24.1328Z" fill="#EDF5FC"/>
<path id="Vector_3" d="M143.815 29.0813C140.532 29.0813 138.696 27.5886 138.39 25.4324H152.605C152.66 24.9901 152.716 24.5202 152.688 24.0779C152.66 18.2728 148.237 15.8125 143.509 15.8125C138.029 15.8125 133.884 19.0744 133.884 24.3267C133.884 29.3301 137.834 32.592 143.787 32.592C148.766 32.592 152.076 30.4082 152.744 27.0357H148.321C147.82 28.3626 146.235 29.0813 143.815 29.0813ZM143.536 19.3232C146.402 19.3232 148.043 20.5948 148.321 22.364H138.501C138.919 20.6501 140.588 19.3232 143.536 19.3232Z" fill="#EDF5FC"/>
<path id="Vector_4" d="M160.338 18.4383H160.06L159.642 16.1162H155.581V32.26H160.06V25.3215C160.06 22.1978 161.868 20.4562 165.261 20.4562C165.873 20.4562 166.485 20.5115 167.097 20.6221V16.1162H166.485C163.453 16.1162 161.617 16.752 160.338 18.4383Z" fill="#EDF5FC"/>
<path id="Vector_5" d="M189.073 27.2289H188.823L184.984 17.139H180.367L176.611 27.2012H176.305L172.745 16.1162H168.294L173.774 32.26H178.642L182.536 21.9766H182.815L186.653 32.26H191.549L197.029 16.1162H192.578L189.073 27.2289Z" fill="#EDF5FC"/>
<path id="Vector_6" d="M214.86 27.5609V22.1705C214.86 17.7752 211.132 15.8125 206.487 15.8125C201.563 15.8125 198.475 18.1345 198.058 21.6176H202.537C202.871 20.0972 204.15 19.2679 206.487 19.2679C208.823 19.2679 210.381 20.1525 210.381 21.9217V22.3363L203.065 22.8892C199.699 23.138 197.224 24.6307 197.224 27.8097C197.224 31.0717 200.061 32.6197 204.206 32.6197C207.572 32.6197 209.602 31.6798 210.854 30.2976H211.077C211.772 31.8733 213.219 32.3156 214.748 32.3156H216.64V29.026H216.223C215.305 28.9708 214.86 28.5285 214.86 27.5609ZM210.381 25.8471C210.381 28.3902 207.321 29.2472 204.706 29.2472C202.926 29.2472 201.758 28.8049 201.758 27.5609C201.758 26.4552 202.759 25.93 204.261 25.7918L210.409 25.3495L210.381 25.8471Z" fill="#EDF5FC"/>
<path id="Vector_7" d="M231.438 16.1162L226.209 27.8094H225.931L220.618 16.1162H215.777L223.344 32.26H228.712L236.251 16.1162H231.438Z" fill="#EDF5FC"/>
<path id="Vector_8" d="M250.577 27.0357C250.02 28.3626 248.435 29.0813 246.043 29.0813C242.76 29.0813 240.924 27.5886 240.618 25.4324H254.833C254.888 24.9901 254.944 24.5202 254.916 24.0779C254.888 18.2728 250.465 15.8125 245.737 15.8125C240.257 15.8125 236.14 19.0744 236.14 24.3267C236.14 29.3301 240.09 32.592 246.043 32.592C251.022 32.592 254.332 30.4082 255 27.0357H250.577ZM245.737 19.3232C248.602 19.3232 250.243 20.5948 250.521 22.364H240.702C241.119 20.6501 242.76 19.3232 245.737 19.3232Z" fill="#EDF5FC"/>
<path id="Vector_9" d="M70.7665 14.9277C70.7665 13.5179 71.7679 12.9097 73.0753 12.9097C73.6873 12.9097 74.2715 12.9927 74.8556 13.1585L75.6067 9.92426C74.5218 9.53725 73.3813 9.34375 72.2408 9.34375C68.9306 9.34375 66.2601 11.0853 66.2601 14.7066V16.1164H62.3936V19.6547H66.2601V32.2601H70.7665V19.6547H75.8292V16.1164H70.7665V14.9277Z" fill="#EDF5FC"/>
<path id="Vector_10" d="M114.273 11.583H110.1L109.878 16.1442H106.345V19.6825H109.794V27.6438C109.794 30.3529 111.185 32.6196 115.357 32.6196C116.442 32.6196 117.527 32.5091 118.584 32.2603V28.8601C117.972 28.9983 117.36 29.0813 116.721 29.0813C114.495 29.0813 114.273 27.8097 114.273 26.8422V19.6549H118.723V16.1165H114.273V11.583Z" fill="#EDF5FC"/>
<path id="Vector_11" d="M128.348 11.583H124.204L123.981 16.1442H120.448V19.6825H123.898V27.6438C123.898 30.3529 125.288 32.6196 129.461 32.6196C130.546 32.6196 131.603 32.4814 132.66 32.2603V28.8601C132.048 28.9983 131.436 29.0813 130.796 29.0813C128.571 29.0813 128.348 27.8097 128.348 26.8422V19.6549H132.799V16.1165H128.32V11.583H128.348Z" fill="#EDF5FC"/>
<path id="Vector_12" d="M0 8.73523C0 6.13675 0.751064 3.92528 2.36446 2.34961L5.14618 5.11395C2.05847 8.18237 4.75674 17.7193 13.5748 26.4823C22.3928 35.2453 31.9897 37.9267 35.0775 34.8582L37.8592 37.6226C32.6295 42.8195 20.7516 39.1153 10.7931 29.2466C3.8944 22.3634 0 14.5956 0 8.73523Z" fill="#009A46"/>
<path id="Vector_13" d="M17.5527 39.9996C14.9379 39.9996 12.7125 39.2533 11.127 37.6499L13.9087 34.8856C16.9964 37.954 26.5933 35.2726 35.4113 26.5096C44.2294 17.7467 46.9277 8.20971 43.84 5.14129L46.6217 2.37695C51.8513 7.57391 48.1238 19.3776 38.1931 29.274C31.2666 36.1295 23.4221 39.9996 17.5527 39.9996Z" fill="#FF5805"/>
<path id="Vector_14" d="M39.0828 25.3208C37.3859 20.4832 33.9366 15.3139 29.3746 10.7804C19.416 0.884069 7.53809 -2.7925 2.30846 2.37681C1.94683 2.76382 2.28064 3.67605 3.0317 4.42242C3.78277 5.1688 4.72855 5.50052 5.09018 5.14115C8.17788 2.07274 17.7748 4.75415 26.5928 13.5171C30.7654 17.6636 33.8809 22.3077 35.3831 26.5924C36.6905 30.3519 36.5792 33.3927 35.0493 34.9131C34.6876 35.2725 34.9936 36.1847 35.7725 36.9587C36.5514 37.7327 37.4694 38.0368 37.831 37.6774C40.5014 34.996 40.9465 30.6007 39.0828 25.3208Z" fill="#F5AFCB"/>
<path id="Vector_15" d="M46.5937 2.37756C43.9233 -0.27621 39.5003 -0.718504 34.1873 1.10596C29.3193 2.79221 24.1175 6.21999 19.5554 10.7535C9.59689 20.6498 5.8972 32.4536 11.1268 37.6505C11.4885 38.0099 12.4342 37.7058 13.1853 36.9318C13.9364 36.1578 14.2702 35.2456 13.9085 34.8862C10.8208 31.8178 13.5191 22.2808 22.3372 13.5178C26.5097 9.37134 31.183 6.27528 35.4669 4.78253C39.25 3.48329 42.3099 3.59387 43.8398 5.11425C44.2015 5.47362 45.1194 5.16954 45.8983 4.39553C46.6772 3.62151 46.9832 2.76456 46.5937 2.37756Z" fill="#FF9B00"/>
</g>
</g>
<defs>
<clipPath id="clip0_1_329">
<rect width="255" height="40" fill="white"/>
</clipPath>
</defs>
</svg>
