<svg width="73" height="73" viewBox="0 0 73 73" fill="none" xmlns="http://www.w3.org/2000/svg">
<path d="M32.7035 61.1553C32.7035 61.1553 16.6265 62.5835 8.34187 56.9959C-0.225533 51.2177 13.2073 41.6389 8.51627 31.7355C3.82527 21.8321 7.62107 9.30746 26.2269 11.7955C46.5635 14.5147 50.4809 0.19566 62.9595 6.87426C72.7659 12.1229 59.0929 25.8557 66.2989 36.9283C76.4675 52.5531 63.6233 61.1839 47.2087 61.1059C44.5915 61.0933 32.7035 61.1553 32.7035 61.1553Z" fill="#E4F1FF"/>
<path d="M2.77114 39.966C2.27854 40.1284 2.03174 40.6846 2.17234 41.184C2.17234 41.184 2.34454 41.8034 2.44174 42.1604C2.47894 42.2968 2.39894 42.4368 2.26274 42.475L1.23914 42.763C0.922537 42.8522 0.737938 43.181 0.827138 43.4976L0.849138 43.576C0.943738 43.9118 1.29274 44.1076 1.62874 44.013L1.79494 43.9662C1.95874 43.92 2.12894 44.0156 2.17514 44.1794L2.34674 44.7894C2.39374 44.9564 2.29654 45.1296 2.12954 45.1766L1.94614 45.2282C1.62274 45.3192 1.43434 45.6552 1.52534 45.9786L1.55514 46.0842C1.64354 46.3982 1.96994 46.5814 2.28394 46.4928L3.30294 46.206C3.44754 46.1654 3.59774 46.2496 3.63834 46.3942L4.41654 49.1592L4.08134 49.2536C3.86274 49.3152 3.73534 49.5422 3.79674 49.761L3.86594 50.007C3.92754 50.2256 4.15454 50.353 4.37334 50.2916L4.70854 50.1972L4.89514 50.8604L4.55994 50.9548C4.34134 51.0164 4.21394 51.2436 4.27534 51.4622L4.34454 51.7082C4.40614 51.927 4.63314 52.0542 4.85174 51.9926L5.18694 51.8982L5.68874 53.6812C5.68994 53.6854 5.68794 53.69 5.68394 53.6918C3.76754 54.6238 2.68234 56.5792 3.19774 58.411C3.78954 60.5138 6.26614 61.6564 8.72934 60.9632C11.1925 60.27 12.7095 58.0034 12.1177 55.9006C11.6013 54.0662 9.65054 52.963 7.52574 53.1714C7.52134 53.1718 7.51734 53.1692 7.51614 53.1648L7.01474 51.3838L7.35874 51.287C7.57734 51.2254 7.70474 50.9984 7.64334 50.7796L7.57414 50.5336C7.51254 50.315 7.28554 50.1876 7.06674 50.2492L6.72254 50.346L6.53594 49.6828L6.87994 49.586C7.09854 49.5244 7.22594 49.2974 7.16454 49.0786L7.09514 48.8326C7.03354 48.6138 6.80654 48.4866 6.58794 48.548L6.24374 48.6448L3.98234 40.61C3.83754 40.0918 3.28814 39.7956 2.77114 39.966ZM10.4373 56.374C10.8061 57.6842 9.86094 59.0964 8.32634 59.5282C6.79174 59.9602 5.24874 59.2482 4.87994 57.938C4.51114 56.628 5.45634 55.2158 6.99094 54.7838C8.52574 54.3522 10.0687 55.064 10.4373 56.374Z" fill="#B4D8F9"/>
<path d="M2.53779 27.1992C2.83919 27.1992 3.08339 27.4434 3.08339 27.7448C3.08339 28.0462 2.83919 28.2904 2.53779 28.2904C2.23639 28.2904 1.99219 28.0462 1.99219 27.7448C1.99219 27.4436 2.23639 27.1992 2.53779 27.1992Z" fill="#DE001D"/>
<path d="M2.53779 25.3376C2.83919 25.3376 3.08339 25.5818 3.08339 25.8832C3.08339 26.1846 2.83919 26.4288 2.53779 26.4288C2.23639 26.4288 1.99219 26.1846 1.99219 25.8832C1.99219 25.582 2.23639 25.3376 2.53779 25.3376Z" fill="#DE001D"/>
<path d="M2.53779 23.4983C2.83919 23.4983 3.08339 23.7425 3.08339 24.0439C3.08339 24.3453 2.83919 24.5895 2.53779 24.5895C2.23639 24.5895 1.99219 24.3451 1.99219 24.0439C1.99219 23.7425 2.23639 23.4983 2.53779 23.4983Z" fill="#DE001D"/>
<path d="M58.6016 61.1016C58.6016 61.1016 58.9838 57.7604 61.0456 57.8596C62.2412 57.9172 61.463 55.9892 62.2714 55.6618C63.0798 55.3344 64.0656 56.0858 64.6124 55.2662C65.1592 54.4466 66.0066 53.8262 67.2574 54.5226C68.5084 55.219 69.2366 53.9652 70.0178 55.185C70.799 56.4046 69.2766 57.4052 67.599 57.3572C65.9214 57.3092 66.5402 59.0256 64.9188 58.8118C63.2974 58.598 63.7436 60.78 62.4118 60.6376C61.478 60.5378 61.2 61.2516 60.6052 61.1544C60.3522 61.113 59.2506 61.2908 58.6016 61.1016Z" fill="#9FCCFB"/>
<path d="M61.4378 58.8789C61.438 58.8765 61.4384 58.8741 61.4392 58.8717C61.4432 58.8577 61.8652 57.4785 63.5748 57.2389C64.7418 57.0753 65.0432 56.8617 65.4606 56.5659C65.645 56.4353 65.8538 56.2871 66.1688 56.1241C67.184 55.5985 68.5776 56.0335 68.6364 56.0523C68.6584 56.0593 68.6706 56.0827 68.6634 56.1047C68.6564 56.1265 68.633 56.1387 68.611 56.1317C68.597 56.1271 67.191 55.6885 66.207 56.1981C65.8972 56.3585 65.6908 56.5047 65.5088 56.6339C65.098 56.9251 64.7736 57.1551 63.5866 57.3215C61.9318 57.5535 61.5232 58.8819 61.5194 58.8953C61.513 58.9173 61.4898 58.9299 61.4678 58.9235C61.4478 58.9175 61.4356 58.8985 61.4378 58.8789Z" fill="white"/>
<path d="M54.5429 61.0518C54.5429 61.0518 52.0061 56.55 55.4031 55.4288C57.3729 54.7784 54.9157 52.1436 56.0199 51.1116C57.1241 50.0796 59.1859 50.6822 59.5609 49.0166C59.9359 47.3508 60.9209 45.8206 63.3773 46.1694C65.8337 46.5182 66.2325 44.0374 68.2545 45.5248C70.2765 47.012 68.4357 49.577 65.6921 50.5422C62.9485 51.5074 65.0165 53.8994 62.2609 54.5614C59.5053 55.2234 61.5835 58.4756 59.3407 59.0734C57.0981 59.6708 59.6393 61.3656 54.5429 61.0518Z" fill="#9FCCFB"/>
<path d="M55.8238 59.2673C55.822 59.2635 55.8206 59.2597 55.8196 59.2553C55.8138 59.2307 55.2612 56.7711 58.1376 54.5701C60.101 53.0677 60.4442 52.4307 60.9194 51.5491C61.1294 51.1597 61.3672 50.7181 61.7832 50.1401C63.1246 48.2767 66.0722 47.3977 66.197 47.3611C66.2436 47.3475 66.2882 47.3683 66.2962 47.4079C66.3044 47.4473 66.2734 47.4901 66.227 47.5039C66.1972 47.5125 63.224 48.3997 61.9236 50.2061C61.5142 50.7747 61.2792 51.2107 61.0718 51.5957C60.604 52.4637 60.2346 53.1491 58.2374 54.6773C55.4534 56.8077 55.9814 59.1789 55.987 59.2027C55.9964 59.2417 55.9664 59.2851 55.9202 59.2997C55.879 59.3127 55.8388 59.2983 55.8238 59.2673Z" fill="white"/>
<path d="M2.97656 61.1416H69.303" stroke="#1C004F" stroke-width="0.5" stroke-miterlimit="10" stroke-linecap="round"/>
<path d="M46.3575 58.4131H8.63006C7.95846 58.4131 7.41406 57.8687 7.41406 57.1971V23.9887C7.41406 23.3171 7.95846 22.7727 8.63006 22.7727H46.3575C47.0291 22.7727 47.5735 23.3171 47.5735 23.9887V57.1971C47.5735 57.8687 47.0291 58.4131 46.3575 58.4131Z" fill="#0085FF"/>
<path d="M43.7649 55.6308H11.2179C10.8473 55.6308 10.5469 55.3304 10.5469 54.9598V26.2262C10.5469 25.8556 10.8473 25.5552 11.2179 25.5552H43.7649C44.1355 25.5552 44.4359 25.8556 44.4359 26.2262V54.96C44.4359 55.3304 44.1355 55.6308 43.7649 55.6308Z" fill="white"/>
<path d="M15.3361 61.0915H12.3039L11.4375 58.3577H16.0207L15.3361 61.0915Z" fill="#0085FF"/>
<path d="M42.2736 61.0911H39.2412L38.375 58.3577H42.9582L42.2736 61.0911Z" fill="#0085FF"/>
<path d="M11.2191 55.6307H43.7661C44.0075 55.6307 44.2175 55.5019 44.3357 55.3105L39.2581 50.8953H16.3765L10.8047 55.4839C10.9191 55.5743 11.0617 55.6307 11.2191 55.6307Z" fill="#E4F1FF"/>
<path d="M34.2048 54.5967C37.4935 54.5967 40.1596 54.0124 40.1596 53.2915C40.1596 52.5707 37.4935 51.9863 34.2048 51.9863C30.9161 51.9863 28.25 52.5707 28.25 53.2915C28.25 54.0124 30.9161 54.5967 34.2048 54.5967Z" fill="#9FCCFB"/>
<path d="M28.2467 53.3149H40.1562V35.8785H28.2467V53.3149Z" fill="#9FCCFB"/>
<path d="M28.25 35.8787C28.25 36.5995 30.916 37.1839 34.2048 37.1839C37.4936 37.1839 40.1596 36.5995 40.1596 35.8787C40.1596 35.1579 37.4936 34.5735 34.2048 34.5735C30.9162 34.5735 28.25 35.1579 28.25 35.8787Z" fill="#8CC2F2"/>
<mask id="mask0_2765_34359" style="mask-type:luminance" maskUnits="userSpaceOnUse" x="28" y="36" width="13" height="18">
<path d="M28.2467 53.3149H40.1562V36.1855H28.2467V53.3149Z" fill="white"/>
</mask>
<g mask="url(#mask0_2765_34359)">
<path d="M28.0078 38.6147C28.0078 39.3355 30.7948 39.9199 34.2328 39.9199C37.6708 39.9199 40.458 39.3355 40.458 38.6147" stroke="white" stroke-width="0.5" stroke-miterlimit="10"/>
</g>
<mask id="mask1_2765_34359" style="mask-type:luminance" maskUnits="userSpaceOnUse" x="28" y="36" width="13" height="18">
<path d="M28.2467 53.3149H40.1562V36.1855H28.2467V53.3149Z" fill="white"/>
</mask>
<g mask="url(#mask1_2765_34359)">
<path d="M28.0078 41.7783C28.0078 42.4991 30.7948 43.0835 34.2328 43.0835C37.6708 43.0835 40.458 42.4991 40.458 41.7783" stroke="white" stroke-width="0.5" stroke-miterlimit="10"/>
</g>
<mask id="mask2_2765_34359" style="mask-type:luminance" maskUnits="userSpaceOnUse" x="28" y="36" width="13" height="18">
<path d="M28.2467 53.3149H40.1562V36.1855H28.2467V53.3149Z" fill="white"/>
</mask>
<g mask="url(#mask2_2765_34359)">
<path d="M28.0078 44.7617C28.0078 45.4825 30.7948 46.0669 34.2328 46.0669C37.6708 46.0669 40.458 45.4825 40.458 44.7617" stroke="white" stroke-width="0.5" stroke-miterlimit="10"/>
</g>
<mask id="mask3_2765_34359" style="mask-type:luminance" maskUnits="userSpaceOnUse" x="28" y="36" width="13" height="18">
<path d="M28.2467 53.3149H40.1562V36.1855H28.2467V53.3149Z" fill="white"/>
</mask>
<g mask="url(#mask3_2765_34359)">
<path d="M28.0078 47.6228C28.0078 48.3436 30.7948 48.928 34.2328 48.928C37.6708 48.928 40.458 48.3436 40.458 47.6228" stroke="white" stroke-width="0.5" stroke-miterlimit="10"/>
</g>
<mask id="mask4_2765_34359" style="mask-type:luminance" maskUnits="userSpaceOnUse" x="28" y="36" width="13" height="18">
<path d="M28.2467 53.3149H40.1562V36.1855H28.2467V53.3149Z" fill="white"/>
</mask>
<g mask="url(#mask4_2765_34359)">
<path d="M28.0078 50.5017C28.0078 51.2225 30.7948 51.8069 34.2328 51.8069C37.6708 51.8069 40.458 51.2225 40.458 50.5017" stroke="white" stroke-width="0.5" stroke-miterlimit="10"/>
</g>
<path d="M29.4688 51.7212V53.5442" stroke="#81C0EF" stroke-width="0.5" stroke-miterlimit="10" stroke-linecap="round"/>
<path d="M29.4688 48.8323V50.8481" stroke="#81C0EF" stroke-width="0.5" stroke-miterlimit="10" stroke-linecap="round"/>
<path d="M29.4688 46.0188V48.11" stroke="#81C0EF" stroke-width="0.5" stroke-miterlimit="10" stroke-linecap="round"/>
<path d="M29.4688 43.0437V45.1349" stroke="#81C0EF" stroke-width="0.5" stroke-miterlimit="10" stroke-linecap="round"/>
<path d="M29.4688 39.7991V42.2569" stroke="#81C0EF" stroke-width="0.5" stroke-miterlimit="10" stroke-linecap="round"/>
<path d="M29.4688 37.2869V38.8661" stroke="#81C0EF" stroke-width="0.5" stroke-miterlimit="10" stroke-linecap="round"/>
<path d="M30.5938 52.0364V53.8596" stroke="#81C0EF" stroke-width="0.5" stroke-miterlimit="10" stroke-linecap="round"/>
<path d="M30.5938 49.1477V51.1635" stroke="#81C0EF" stroke-width="0.5" stroke-miterlimit="10" stroke-linecap="round"/>
<path d="M30.5938 46.3342V48.4254" stroke="#81C0EF" stroke-width="0.5" stroke-miterlimit="10" stroke-linecap="round"/>
<path d="M30.5938 43.3591V45.4503" stroke="#81C0EF" stroke-width="0.5" stroke-miterlimit="10" stroke-linecap="round"/>
<path d="M30.5938 40.1145V42.5723" stroke="#81C0EF" stroke-width="0.5" stroke-miterlimit="10" stroke-linecap="round"/>
<path d="M30.5938 37.6023V39.1815" stroke="#81C0EF" stroke-width="0.5" stroke-miterlimit="10" stroke-linecap="round"/>
<path d="M31.8516 52.2246V54.0476" stroke="#81C0EF" stroke-width="0.5" stroke-miterlimit="10" stroke-linecap="round"/>
<path d="M31.8516 49.3354V51.3513" stroke="#81C0EF" stroke-width="0.5" stroke-miterlimit="10" stroke-linecap="round"/>
<path d="M31.8516 46.522V48.6132" stroke="#81C0EF" stroke-width="0.5" stroke-miterlimit="10" stroke-linecap="round"/>
<path d="M31.8516 43.5469V45.6383" stroke="#81C0EF" stroke-width="0.5" stroke-miterlimit="10" stroke-linecap="round"/>
<path d="M31.8516 40.3022V42.76" stroke="#81C0EF" stroke-width="0.5" stroke-miterlimit="10" stroke-linecap="round"/>
<path d="M31.8516 37.79V39.3692" stroke="#81C0EF" stroke-width="0.5" stroke-miterlimit="10" stroke-linecap="round"/>
<path d="M39.0781 51.7361V53.5591" stroke="#81C0EF" stroke-width="0.5" stroke-miterlimit="10" stroke-linecap="round"/>
<path d="M39.0781 48.8472V50.863" stroke="#81C0EF" stroke-width="0.5" stroke-miterlimit="10" stroke-linecap="round"/>
<path d="M39.0781 46.0337V48.1249" stroke="#81C0EF" stroke-width="0.5" stroke-miterlimit="10" stroke-linecap="round"/>
<path d="M39.0781 43.0586V45.1498" stroke="#81C0EF" stroke-width="0.5" stroke-miterlimit="10" stroke-linecap="round"/>
<path d="M39.0781 39.8142V42.2718" stroke="#81C0EF" stroke-width="0.5" stroke-miterlimit="10" stroke-linecap="round"/>
<path d="M39.0781 37.3018V38.8812" stroke="#81C0EF" stroke-width="0.5" stroke-miterlimit="10" stroke-linecap="round"/>
<path d="M37.8203 52.0151V53.8381" stroke="#81C0EF" stroke-width="0.5" stroke-miterlimit="10" stroke-linecap="round"/>
<path d="M37.8203 49.1262V51.1418" stroke="#81C0EF" stroke-width="0.5" stroke-miterlimit="10" stroke-linecap="round"/>
<path d="M37.8203 46.313V48.4042" stroke="#81C0EF" stroke-width="0.5" stroke-miterlimit="10" stroke-linecap="round"/>
<path d="M37.8203 43.3376V45.4288" stroke="#81C0EF" stroke-width="0.5" stroke-miterlimit="10" stroke-linecap="round"/>
<path d="M37.8203 40.093V42.5506" stroke="#81C0EF" stroke-width="0.5" stroke-miterlimit="10" stroke-linecap="round"/>
<path d="M37.8203 37.5808V39.16" stroke="#81C0EF" stroke-width="0.5" stroke-miterlimit="10" stroke-linecap="round"/>
<path d="M36.4219 52.1548V53.9778" stroke="#81C0EF" stroke-width="0.5" stroke-miterlimit="10" stroke-linecap="round"/>
<path d="M36.4219 49.2656V51.2814" stroke="#81C0EF" stroke-width="0.5" stroke-miterlimit="10" stroke-linecap="round"/>
<path d="M36.4219 46.4524V48.5436" stroke="#81C0EF" stroke-width="0.5" stroke-miterlimit="10" stroke-linecap="round"/>
<path d="M36.4219 43.4773V45.5685" stroke="#81C0EF" stroke-width="0.5" stroke-miterlimit="10" stroke-linecap="round"/>
<path d="M36.4219 40.2327V42.6903" stroke="#81C0EF" stroke-width="0.5" stroke-miterlimit="10" stroke-linecap="round"/>
<path d="M36.4219 37.7202V39.2996" stroke="#81C0EF" stroke-width="0.5" stroke-miterlimit="10" stroke-linecap="round"/>
<path d="M34.9922 52.2246V54.0476" stroke="#81C0EF" stroke-width="0.5" stroke-miterlimit="10" stroke-linecap="round"/>
<path d="M34.9922 49.3354V51.3513" stroke="#81C0EF" stroke-width="0.5" stroke-miterlimit="10" stroke-linecap="round"/>
<path d="M34.9922 46.522V48.6132" stroke="#81C0EF" stroke-width="0.5" stroke-miterlimit="10" stroke-linecap="round"/>
<path d="M34.9922 43.5469V45.6383" stroke="#81C0EF" stroke-width="0.5" stroke-miterlimit="10" stroke-linecap="round"/>
<path d="M34.9922 40.3022V42.76" stroke="#81C0EF" stroke-width="0.5" stroke-miterlimit="10" stroke-linecap="round"/>
<path d="M34.9922 37.79V39.3692" stroke="#81C0EF" stroke-width="0.5" stroke-miterlimit="10" stroke-linecap="round"/>
<path d="M33.4609 52.1895V54.0125" stroke="#81C0EF" stroke-width="0.5" stroke-miterlimit="10" stroke-linecap="round"/>
<path d="M33.4609 49.3008V51.3166" stroke="#81C0EF" stroke-width="0.5" stroke-miterlimit="10" stroke-linecap="round"/>
<path d="M33.4609 46.4873V48.5785" stroke="#81C0EF" stroke-width="0.5" stroke-miterlimit="10" stroke-linecap="round"/>
<path d="M33.4609 43.5122V45.6034" stroke="#81C0EF" stroke-width="0.5" stroke-miterlimit="10" stroke-linecap="round"/>
<path d="M33.4609 40.2676V42.7254" stroke="#81C0EF" stroke-width="0.5" stroke-miterlimit="10" stroke-linecap="round"/>
<path d="M33.4609 37.7554V39.3346" stroke="#81C0EF" stroke-width="0.5" stroke-miterlimit="10" stroke-linecap="round"/>
<path d="M10.4679 26.791L10.4609 54.6276C10.4609 55.4778 10.8807 55.6352 11.6159 56.0088L28.1969 64.3122V17.0552L11.3347 25.3366C10.6245 25.6854 10.4679 25.9748 10.4679 26.791Z" fill="#8CC2F2"/>
<path d="M28.1953 17.0552L32.1645 18.0296C32.9453 18.2214 33.4969 18.9454 33.4969 19.7788V61.5134C33.4969 62.3354 32.9601 63.0526 32.1933 63.2552L28.1953 64.3122V17.0552Z" fill="#B7DAF9"/>
<path d="M10.4778 35.5781H9.82041C9.37161 35.5781 9.00781 35.2143 9.00781 34.7655V29.6429C9.00781 29.1941 9.37161 28.8303 9.82041 28.8303H10.4778C10.9266 28.8303 11.2904 29.1941 11.2904 29.6429V34.7655C11.2904 35.2143 10.9266 35.5781 10.4778 35.5781Z" fill="#E4F1FF"/>
<path d="M10.4622 52.2195H9.80479C9.35599 52.2195 8.99219 51.8557 8.99219 51.4069V46.2843C8.99219 45.8355 9.35599 45.4717 9.80479 45.4717H10.4622C10.911 45.4717 11.2748 45.8355 11.2748 46.2843V51.4069C11.2748 51.8557 10.911 52.2195 10.4622 52.2195Z" fill="#E4F1FF"/>
<path d="M20.7807 33.2107H17.9375V47.9293H20.7807C22.2489 47.9293 23.4391 44.6345 23.4391 40.5699C23.4391 36.5053 22.2489 33.2107 20.7807 33.2107Z" fill="#0085FF"/>
<path d="M17.8327 47.8797C19.7121 47.8797 21.2357 44.6132 21.2357 40.5839C21.2357 36.5545 19.7121 33.2881 17.8327 33.2881C15.9533 33.2881 14.4297 36.5545 14.4297 40.5839C14.4297 44.6132 15.9533 47.8797 17.8327 47.8797Z" fill="white"/>
<path d="M17.2767 35.8975H15.0469V45.2441H17.2767C18.4283 45.2441 19.3617 43.1519 19.3617 40.5709C19.3617 37.9897 18.4283 35.8975 17.2767 35.8975Z" fill="#0085FF"/>
<path d="M15.0459 45.2439C16.1975 45.2439 17.1309 43.1516 17.1309 40.5707C17.1309 37.9897 16.1975 35.8975 15.0459 35.8975C13.8944 35.8975 12.9609 37.9897 12.9609 40.5707C12.9609 43.1516 13.8944 45.2439 15.0459 45.2439Z" fill="#0085FF"/>
<path d="M17.3206 24.5925L12.3984 27.1211" stroke="white" stroke-width="0.5" stroke-miterlimit="10" stroke-linecap="round"/>
<path d="M26.5543 24.7265V22.6855V20.9453C26.5543 20.4453 26.0253 20.1223 25.5807 20.3509L21.5155 22.4391L20.4609 22.9809" stroke="white" stroke-width="0.5" stroke-miterlimit="10" stroke-linecap="round"/>
<path d="M26.5547 40.2932V32.8784" stroke="white" stroke-width="0.5" stroke-miterlimit="10" stroke-linecap="round"/>
<path d="M19.875 57.8403L22.7024 59.3213L25.5294 60.8021C25.996 61.0465 26.5552 60.7081 26.5552 60.1815V50.5671V43.2415" stroke="white" stroke-width="0.5" stroke-miterlimit="10" stroke-linecap="round"/>
<path d="M15.8438 55.728L17.4359 56.5622" stroke="white" stroke-width="0.5" stroke-miterlimit="10" stroke-linecap="round"/>
<path d="M15.0346 44.5344C14.4936 44.5344 14.0218 43.7248 13.7734 42.5256" stroke="white" stroke-width="0.5" stroke-miterlimit="10" stroke-linecap="round"/>
<path d="M16.3876 42.0374C16.3056 42.6022 16.1774 43.103 16.0156 43.5052" stroke="white" stroke-width="0.5" stroke-miterlimit="10" stroke-linecap="round"/>
<path d="M13.5945 41.016C13.5889 40.8746 13.5859 40.7308 13.5859 40.5852C13.5859 38.404 14.2341 36.636 15.0337 36.636C15.2337 36.636 15.4241 36.7466 15.5973 36.9464" stroke="white" stroke-width="0.5" stroke-miterlimit="10" stroke-linecap="round"/>
<path d="M22.6777 37.0193C22.4261 35.7139 22.0363 34.6431 21.5625 33.9561" stroke="white" stroke-width="0.5" stroke-miterlimit="10" stroke-linecap="round"/>
<path d="M22.9891 40.4797C22.9891 39.9833 22.9713 39.4983 22.9375 39.0293" stroke="white" stroke-width="0.5" stroke-miterlimit="10" stroke-linecap="round"/>
<path d="M22.3984 45.1261C22.5508 44.6089 22.6782 44.0331 22.7756 43.4131" stroke="white" stroke-width="0.5" stroke-miterlimit="10" stroke-linecap="round"/>
<path d="M21.125 47.5081C21.481 47.2017 21.8048 46.6937 22.0792 46.0325" stroke="white" stroke-width="0.5" stroke-miterlimit="10" stroke-linecap="round"/>
<path d="M54.6779 27.9673C55.9738 24.7195 54.3915 21.0361 51.1437 19.7402C47.896 18.4443 44.2126 20.0267 42.9167 23.2744C41.6208 26.5222 43.2031 30.2056 46.4509 31.5014C49.6987 32.7973 53.382 31.215 54.6779 27.9673Z" fill="#C5E3F9"/>
<path d="M53.3351 26.8933C52.5647 29.4375 49.8781 30.8755 47.3337 30.1051C44.7893 29.3347 43.3515 26.6479 44.1219 24.1037C44.8923 21.5593 47.5789 20.1215 50.1233 20.8919C52.6677 21.6621 54.1055 24.3489 53.3351 26.8933Z" fill="#71B7E2"/>
<path d="M53.4116 27.1244C52.6516 29.6344 50.001 31.0532 47.4908 30.293C44.9806 29.533 43.5622 26.8822 44.3222 24.3722C45.0822 21.8622 47.7328 20.4434 50.243 21.2036C52.753 21.9636 54.1716 24.6144 53.4116 27.1244Z" fill="#FF725E"/>
<path d="M53.4116 27.1244C52.6516 29.6344 50.001 31.0532 47.4908 30.293C44.9806 29.533 43.5622 26.8822 44.3222 24.3722C45.0822 21.8622 47.7328 20.4434 50.243 21.2036C52.753 21.9636 54.1716 24.6144 53.4116 27.1244Z" fill="#B4D8F9"/>
<path d="M56.3135 72.4042C65.0859 72.4042 72.1973 70.9946 72.1973 69.2558C72.1973 67.517 65.0859 66.1074 56.3135 66.1074C47.5411 66.1074 40.4297 67.517 40.4297 69.2558C40.4297 70.9946 47.5411 72.4042 56.3135 72.4042Z" fill="#E4F1FF"/>
<path d="M38.8465 10.5704C39.5949 8.02708 38.1399 5.35862 35.5966 4.61019C33.0533 3.86176 30.3848 5.31678 29.6364 7.86006C28.888 10.4033 30.343 13.0718 32.8863 13.8202C35.4296 14.5687 38.098 13.1137 38.8465 10.5704Z" fill="#B4D8F9"/>
<path d="M37.8123 9.2522C37.7477 11.2666 36.0627 12.8474 34.0481 12.7828C32.0335 12.7184 30.4531 11.0332 30.5175 9.0186C30.5821 7.0042 32.2671 5.4234 34.2817 5.488C36.2961 5.5526 37.8767 7.2378 37.8123 9.2522Z" fill="#71B7E2"/>
<path d="M37.9174 9.40737C37.8538 11.3948 36.1912 12.9542 34.2038 12.8906C32.2164 12.827 30.657 11.1644 30.7206 9.17697C30.7842 7.18957 32.4468 5.63017 34.4342 5.69377C36.4218 5.75737 37.9812 7.41997 37.9174 9.40737Z" fill="#FF725E"/>
<path d="M37.9174 9.40737C37.8538 11.3948 36.1912 12.9542 34.2038 12.8906C32.2164 12.827 30.657 11.1644 30.7206 9.17697C30.7842 7.18957 32.4468 5.63017 34.4342 5.69377C36.4218 5.75737 37.9812 7.41997 37.9174 9.40737Z" fill="#B4D8F9"/>
<path d="M41.9303 16.6893L42.9233 14.0977C42.9457 14.0393 42.9051 13.9765 42.8425 13.9731L40.0071 13.8209C39.9303 13.8169 39.8809 13.9021 39.9235 13.9655L40.3903 14.6605C39.8859 15.0503 38.1365 16.2709 36.7419 15.6381C36.6575 15.5999 36.5749 15.6939 36.6241 15.7721C37.0293 16.4177 38.3299 17.8181 41.3465 16.0843L41.7661 16.7091C41.8077 16.7715 41.9033 16.7599 41.9303 16.6893Z" fill="#0085FF"/>
<path d="M37.1274 1.80231C37.2058 1.85191 37.3004 1.76991 37.2624 1.68571C36.9498 0.990713 35.8538 -0.575087 32.6276 0.727913L32.2978 0.0515136C32.265 -0.0158864 32.1686 -0.0174864 32.1322 0.0487136L30.7928 2.47931C30.7626 2.53411 30.7942 2.60191 30.8556 2.61371L33.6434 3.15371C33.719 3.16831 33.7796 3.09071 33.7462 3.02211L33.3794 2.26951C33.9326 1.95291 35.833 0.984113 37.1274 1.80231Z" fill="#0085FF"/>
<path d="M42.9675 10.7923C44.8 8.8763 44.7323 5.83753 42.8163 4.00502C40.9002 2.17252 37.8615 2.24023 36.029 4.15624C34.1965 6.07225 34.2642 9.11102 36.1802 10.9435C38.0962 12.776 41.135 12.7083 42.9675 10.7923Z" fill="#C5E3F9"/>
<path d="M42.8821 8.60865C42.2015 10.5057 40.1121 11.4919 38.2149 10.8113C36.3177 10.1307 35.3317 8.04125 36.0123 6.14405C36.6929 4.24685 38.7823 3.26085 40.6795 3.94145C42.5767 4.62205 43.5627 6.71165 42.8821 8.60865Z" fill="#71B7E2"/>
<path d="M42.9274 8.78678C42.256 10.6584 40.1946 11.6314 38.323 10.9598C36.4514 10.2882 35.4786 8.22678 36.15 6.35518C36.8214 4.48358 38.8828 3.51078 40.7546 4.18218C42.6262 4.85378 43.599 6.91518 42.9274 8.78678Z" fill="#FF725E"/>
<path d="M42.9274 8.78678C42.256 10.6584 40.1946 11.6314 38.323 10.9598C36.4514 10.2882 35.4786 8.22678 36.15 6.35518C36.8214 4.48358 38.8828 3.51078 40.7546 4.18218C42.6262 4.85378 43.599 6.91518 42.9274 8.78678Z" fill="#B4D8F9"/>
<path d="M19.4906 13.7096C19.4402 13.7096 19.3908 13.7128 19.3414 13.7162C19.1766 12.5432 18.1716 11.6396 16.9532 11.6396C16.6226 11.6396 16.3076 11.7064 16.0206 11.8268C15.642 10.7106 14.5878 9.90625 13.3434 9.90625C11.781 9.90625 10.5146 11.1726 10.5146 12.735C9.34162 12.735 8.39062 13.6861 8.39062 14.8591C8.39062 16.0321 9.34162 16.983 10.5146 16.983L19.4906 16.992C20.5282 16.992 21.3694 16.2572 21.3694 15.351C21.3694 14.4444 20.5282 13.7096 19.4906 13.7096Z" fill="#0085FF"/>
<path d="M14.8664 17.0131C14.8288 17.9793 14.0344 18.7567 13.058 18.7633C13.0362 18.7635 13.0146 18.7631 12.993 18.7625C12.7752 18.7563 12.5666 18.7117 12.374 18.6349C12.1814 18.5581 12.0048 18.4495 11.8508 18.3153C11.8116 18.2813 11.774 18.2457 11.7378 18.2083C11.5734 18.0383 11.4414 17.8369 11.3528 17.6133C11.3314 17.5597 11.3124 17.5047 11.2962 17.4489C11.2578 17.3173 11.2342 17.1793 11.2266 17.0373C11.2642 16.0711 12.0586 15.2933 13.0352 15.2869C13.1586 15.2861 13.2796 15.2977 13.3966 15.3207C13.4562 15.3323 13.515 15.3469 13.5726 15.3643C13.8078 15.4351 14.023 15.5525 14.2078 15.7055C14.2476 15.7385 14.2862 15.7733 14.3234 15.8099C14.4674 15.9513 14.5882 16.1165 14.6792 16.2991C14.7678 16.4773 14.828 16.6715 14.8544 16.8765C14.86 16.9215 14.864 16.9671 14.8664 17.0131Z" fill="white"/>
<path d="M14.6839 17.0144C14.6501 17.8824 13.9365 18.5808 13.0593 18.5866C13.0397 18.5868 13.0203 18.5864 13.0009 18.5858C12.8051 18.5802 12.6179 18.5402 12.4447 18.4712C12.2715 18.4022 12.1129 18.3046 11.9747 18.184C11.9395 18.1534 11.9057 18.1214 11.8731 18.0878C11.7255 17.935 11.6069 17.754 11.5273 17.5532C11.5081 17.5052 11.4911 17.4558 11.4765 17.4056C11.4419 17.2872 11.4207 17.1634 11.4141 17.0358C11.4479 16.1678 12.1615 15.4692 13.0387 15.4634C13.1497 15.4626 13.2581 15.4732 13.3633 15.4936C13.4167 15.504 13.4697 15.5172 13.5213 15.5328C13.7325 15.5964 13.9259 15.7018 14.0919 15.8394C14.1277 15.869 14.1623 15.9004 14.1957 15.9332C14.3251 16.0602 14.4337 16.2086 14.5153 16.3728C14.5949 16.5328 14.6491 16.7074 14.6727 16.8916C14.6781 16.932 14.6817 16.9732 14.6839 17.0144Z" fill="#9FCCFB"/>
</svg>
