<svg width="127" height="40" viewBox="0 0 127 40" fill="none" xmlns="http://www.w3.org/2000/svg">
<g id="Google svg" clip-path="url(#clip0_1_321)">
<g id="Group">
<path id="Vector" d="M15.8863 14.2727V18.5455H26.1444C25.8721 20.9091 25.055 22.7273 23.7841 23.9091C22.3317 25.3636 19.9714 27 15.8863 27C9.62259 27 4.72051 21.9091 4.72051 15.6364C4.72051 9.36364 9.53181 4.27273 15.8863 4.27273C19.2452 4.27273 21.787 5.63636 23.6026 7.36364L26.5983 4.36364C24.0565 1.90909 20.6069 0 15.8863 0C7.26233 0 0 7 0 15.6364C0 24.2727 7.26233 31.2727 15.8863 31.2727C20.5161 31.2727 24.0565 29.7273 26.7798 26.9091C29.594 24.0909 30.5018 20.0909 30.5018 16.9091C30.5018 15.9091 30.411 15 30.3202 14.2727H15.8863Z" fill="#4285F4"/>
<path id="Vector_2" d="M43.2112 10.7275C37.6737 10.7275 33.0439 15.0003 33.0439 20.8184C33.0439 26.6366 37.5829 30.9094 43.2112 30.9094C48.8395 30.9094 53.3785 26.7275 53.3785 20.9094C53.3785 15.0003 48.8395 10.7275 43.2112 10.7275ZM43.2112 27.0003C40.1247 27.0003 37.4921 24.4548 37.4921 20.9094C37.4921 17.273 40.1247 14.8184 43.2112 14.8184C46.2977 14.8184 48.9303 17.273 48.9303 20.9094C48.9303 24.4548 46.2977 27.0003 43.2112 27.0003Z" fill="#EA4335"/>
<path id="Vector_3" d="M92.8672 13.0003H92.6857C91.6871 11.8184 89.7807 10.7275 87.3297 10.7275C82.2461 10.7275 77.8887 15.0912 77.8887 20.8184C77.8887 26.4548 82.2461 30.9094 87.3297 30.9094C89.7807 30.9094 91.6871 29.8184 92.6857 28.6366H92.8672V30.0912C92.8672 33.9094 90.7793 36.0003 87.5113 36.0003C84.7879 36.0003 83.1539 34.0912 82.4276 32.3639L78.6149 34.0003C79.7043 36.6366 82.7 40.0003 87.602 40.0003C92.7764 40.0003 97.2246 36.9094 97.2246 29.4548V11.273H93.0488V13.0003H92.8672ZM87.7836 27.0003C84.6971 27.0003 82.4276 24.3639 82.4276 20.9094C82.4276 17.3639 84.7879 14.8184 87.7836 14.8184C90.7793 14.8184 93.1396 17.4548 93.1396 21.0003C93.2303 24.4548 90.8701 27.0003 87.7836 27.0003Z" fill="#4285F4"/>
<path id="Vector_4" d="M65.8147 10.7275C60.2772 10.7275 55.6475 15.0003 55.6475 20.8184C55.6475 26.6366 60.1864 30.9094 65.8147 30.9094C71.443 30.9094 75.982 26.7275 75.982 20.9094C75.982 15.0003 71.443 10.7275 65.8147 10.7275ZM65.8147 27.0003C62.7282 27.0003 60.0956 24.4548 60.0956 20.9094C60.0956 17.273 62.7282 14.8184 65.8147 14.8184C68.9012 14.8184 71.5338 17.273 71.5338 20.9094C71.5338 24.4548 68.9012 27.0003 65.8147 27.0003Z" fill="#FBBC05"/>
<path id="Vector_5" d="M100.583 0.455078H104.94V31.0005H100.583V0.455078Z" fill="#34A853"/>
<path id="Vector_6" d="M118.376 27.0003C116.107 27.0003 114.564 26.0003 113.474 23.9094L127 18.3639L126.546 17.1821C125.729 14.9094 123.097 10.7275 117.922 10.7275C112.748 10.7275 108.391 14.8184 108.391 20.8184C108.391 26.4548 112.657 30.9094 118.376 30.9094C123.006 30.9094 125.639 28.0912 126.819 26.4548L123.369 24.1821C122.189 25.9094 120.646 27.0003 118.376 27.0003ZM118.104 14.5457C119.92 14.5457 121.463 15.4548 121.917 16.7275L112.839 20.5457C112.748 16.3639 115.835 14.5457 118.104 14.5457Z" fill="#EA4335"/>
</g>
</g>
<defs>
<clipPath id="clip0_1_321">
<rect width="127" height="40" fill="white"/>
</clipPath>
</defs>
</svg>
