<svg width="52" height="41" viewBox="0 0 52 41" fill="none" xmlns="http://www.w3.org/2000/svg">
<g id="fa-solid:hands-helping" clip-path="url(#clip0_2104_17323)">
<path id="Vector" d="M39.08 15.3752H26.9081V19.8596C26.9081 23.0387 24.3216 25.6252 21.1425 25.6252C17.9634 25.6252 15.3768 23.0387 15.3768 19.8596V10.1221L10.1798 13.2451C8.63425 14.166 7.68933 15.8397 7.68933 17.6334V21.4211L1.28308 25.1207C0.0578811 25.8254 -0.366533 27.3949 0.346162 28.6201L6.75241 39.719C7.4571 40.9442 9.02663 41.3606 10.2518 40.6559L18.5319 35.8752H29.4706C32.2973 35.8752 34.5956 33.577 34.5956 30.7502H35.8768C37.2942 30.7502 38.4393 29.6051 38.4393 28.1877V23.0627H39.08C40.145 23.0627 41.0018 22.2059 41.0018 21.1408V17.2971C41.0018 16.2321 40.145 15.3752 39.08 15.3752ZM50.9075 12.3803L44.5012 1.28147C43.7966 0.0562755 42.227 -0.360131 41.0018 0.344557L32.7218 5.12522H24.5378C23.5768 5.12522 22.6399 5.39749 21.8231 5.90198L19.1405 7.57561C18.3878 8.04006 17.9393 8.86487 17.9393 9.74573V19.8596C17.9393 21.6293 19.3727 23.0627 21.1425 23.0627C22.9122 23.0627 24.3456 21.6293 24.3456 19.8596V12.8127H39.08C41.5544 12.8127 43.5643 14.8227 43.5643 17.2971V19.5793L49.9706 15.8797C51.1958 15.167 51.6122 13.6055 50.9075 12.3803Z" fill="white"/>
</g>
<defs>
<clipPath id="clip0_2104_17323">
<rect width="51.25" height="41" fill="white"/>
</clipPath>
</defs>
</svg>
