<svg width="101" height="100" viewBox="0 0 101 100" fill="none" xmlns="http://www.w3.org/2000/svg">
<path d="M24.6648 84.281C28.7844 81.4028 29.7192 76.0604 29.5562 71.2582C29.5292 70.4566 29.6172 69.6116 29.2358 68.9082C28.8542 68.205 27.9646 67.7244 27.247 68.0622C26.6516 68.3424 26.3922 69.0348 26.0592 69.6076C25.6162 70.3696 24.956 71 24.1792 71.4032C23.6688 71.668 23.0372 71.83 22.5334 71.5522C21.842 71.1706 21.7604 70.2154 21.7654 69.418C21.7748 67.932 21.784 66.446 21.7932 64.9604C21.7982 64.1632 21.8004 63.3492 21.5526 62.5924C21.3046 61.8358 20.7568 61.1328 19.9984 60.9204C19.2398 60.708 18.302 61.1452 18.1418 61.9256C18.0752 62.2504 18.1412 62.5874 18.1192 62.9184C18.097 63.2494 17.9428 63.6156 17.6286 63.7078C17.3104 63.8012 16.9914 63.5752 16.753 63.342C15.93 62.537 15.3718 61.5 14.8498 60.4688C14.328 59.4376 13.8214 58.3818 13.0748 57.5038C12.3282 56.6258 11.2954 55.93 10.1536 55.8654C9.01157 55.8008 7.79517 56.5056 7.50657 57.6264C7.21717 58.7504 7.87297 59.8908 8.58657 60.8006C9.64517 62.1506 10.8976 63.3442 12.292 64.3326C12.5434 64.511 12.8158 64.7036 12.9118 64.999C13.085 65.5306 12.5814 66.0584 12.0566 66.2332C11.4624 66.4312 10.8174 66.3694 10.1958 66.4426C9.57417 66.5158 8.90077 66.79 8.66557 67.3776C8.33897 68.1924 9.02057 69.0466 9.69117 69.606C11.034 70.7264 12.5674 71.6112 14.203 72.2106C14.7894 72.4252 15.4066 72.6134 15.8796 73.0254C16.3526 73.4376 15.6186 74.896 15.333 75.4576C15.047 76.0198 15.333 75.4576 14.7186 75.3436C14.1046 75.2298 13.5544 74.8962 12.969 74.6754C11.8734 74.2618 10.4584 74.3374 9.75657 75.2842C9.29537 75.9066 9.25477 76.7734 9.48817 77.5152C9.72137 78.2572 10.1944 78.8962 10.6968 79.4856C12.4528 81.5458 14.7008 83.2044 17.2426 84.0858C19.784 84.9662 22.139 85.2046 24.6648 84.281Z" fill="#EBEBEB"/>
<path d="M24.7277 87.8408C24.5537 85.9384 24.1365 83.6916 23.4251 81.27C22.7183 78.8464 21.7233 76.2542 20.5893 73.5786C20.3033 72.9108 20.0209 72.251 19.7425 71.6006C19.4631 70.9522 19.1859 70.3088 18.8761 69.6966C18.2615 68.469 17.5771 67.3356 16.8937 66.28C16.2107 65.2238 15.5239 64.2464 14.8751 63.3372C14.2241 62.429 13.6013 61.594 13.0013 60.857C11.8055 59.3782 10.7017 58.3018 9.91389 57.5938C9.52069 57.2384 9.20649 56.9726 8.99129 56.7954C8.88769 56.7112 8.80649 56.6452 8.74529 56.5954C8.68929 56.5512 8.65989 56.5294 8.65829 56.5314C8.65649 56.5334 8.68269 56.559 8.73569 56.6072C8.79449 56.6596 8.87289 56.7294 8.97249 56.8182C9.18129 57.0026 9.48909 57.2752 9.87629 57.6364C10.6511 58.3566 11.7393 59.4404 12.9215 60.9232C13.5147 61.6622 14.1311 62.4988 14.7767 63.4088C15.4207 64.3206 16.1027 65.299 16.7811 66.3544C17.4595 67.4094 18.1387 68.5402 18.7481 69.7618C19.0553 70.3712 19.3293 71.009 19.6091 71.6592C19.8873 72.3092 20.1693 72.9688 20.4549 73.6364C21.5877 76.31 22.5841 78.8944 23.2961 81.3086C24.0123 83.7206 24.4383 85.9562 24.6247 87.8504" fill="#E0E0E0"/>
<path d="M18.8344 69.6913C18.8442 69.693 18.8714 69.5718 18.9122 69.3512C18.9542 69.1308 19.0042 68.8102 19.0602 68.4132C19.173 67.6194 19.2912 66.5178 19.417 65.303C19.5428 64.0874 19.6764 62.9908 19.8008 62.2008C19.862 61.8058 19.9146 61.4863 19.954 61.2661C19.992 61.0455 20.0084 60.9224 19.9986 60.92C19.9888 60.9178 19.9536 61.0365 19.8984 61.2541C19.8418 61.4711 19.7734 61.7888 19.6992 62.1828C19.5478 62.971 19.3974 64.0704 19.2716 65.287C19.1504 66.4861 19.0412 67.5712 18.9576 68.4002C18.9174 68.7744 18.8834 69.0897 18.856 69.3429C18.8326 69.5655 18.8242 69.6897 18.8344 69.6913Z" fill="#E0E0E0"/>
<path d="M8.58398 67.7762C8.58378 67.7864 8.72959 67.8032 8.99279 67.8252C9.25579 67.8486 9.63658 67.8804 10.1056 67.9348C11.0444 68.0362 12.3364 68.2216 13.7528 68.4884C15.1692 68.758 16.4406 69.0564 17.354 69.2988C17.8118 69.4168 18.1796 69.5222 18.4342 69.5936C18.6886 69.666 18.8308 69.7014 18.8342 69.6918C18.8374 69.682 18.7008 69.628 18.4512 69.5384C18.2012 69.4502 17.8368 69.329 17.3814 69.1976C16.4726 68.9286 15.2004 68.613 13.7798 68.3424C12.3592 68.075 11.06 67.9052 10.1156 67.8304C9.64358 67.7892 9.26058 67.773 8.99578 67.7676C8.73098 67.7634 8.58458 67.7658 8.58398 67.7762Z" fill="#E0E0E0"/>
<path d="M23.2987 81.0819C23.3033 81.0839 23.3273 81.0411 23.3689 80.9569C23.4163 80.8567 23.4741 80.7343 23.5441 80.5861C23.6949 80.2635 23.9009 79.7907 24.1477 79.2035C24.6423 78.0293 25.2743 76.3857 25.9473 74.5627C26.6207 72.7389 27.2367 71.0917 27.7059 69.9089C27.9359 69.3339 28.1251 68.8609 28.2657 68.5093C28.3259 68.3567 28.3753 68.2309 28.4159 68.1275C28.4487 68.0397 28.4639 67.9925 28.4591 67.9903C28.4545 67.9885 28.4305 68.0315 28.3887 68.1155C28.3413 68.2157 28.2835 68.3379 28.2135 68.4861C28.0627 68.8087 27.8567 69.2815 27.6099 69.8687C27.1153 71.0429 26.4833 72.6865 25.8101 74.5103C25.1369 76.3335 24.5209 77.9805 24.0517 79.1635C23.8215 79.7383 23.6325 80.2115 23.4917 80.5627C23.4315 80.7153 23.3821 80.8413 23.3415 80.9445C23.3091 81.0327 23.2939 81.0799 23.2987 81.0819Z" fill="#E0E0E0"/>
<path d="M9.67776 76.6917C9.67636 76.6967 9.72317 76.7157 9.81297 76.7475C9.91957 76.7831 10.0502 76.8269 10.2086 76.8801C10.574 76.9985 11.0672 77.1585 11.6672 77.3527C12.8988 77.7521 14.5934 78.3233 16.465 78.9569C18.3372 79.5911 20.0388 80.1471 21.279 80.5209C21.899 80.7081 22.4022 80.8545 22.752 80.9485C22.9138 80.9909 23.047 81.0259 23.1554 81.0545C23.2482 81.0771 23.2976 81.0865 23.299 81.0815C23.3004 81.0765 23.2536 81.0575 23.1638 81.0255C23.0576 80.9901 22.9268 80.9463 22.7682 80.8933C22.4028 80.7747 21.9098 80.6151 21.3098 80.4207C20.0782 80.0215 18.3834 79.4501 16.5112 78.8163C14.6396 78.1825 12.9382 77.6265 11.698 77.2525C11.078 77.0653 10.5748 76.9189 10.2248 76.8249C10.0632 76.7825 9.92997 76.7473 9.82137 76.7189C9.72857 76.6961 9.67936 76.6867 9.67776 76.6917Z" fill="#E0E0E0"/>
<path d="M75.14 14.2754L64.1318 41.1578L83.8936 49.0946L94.7332 22.3866L75.14 14.2754Z" fill="#E6E6E6"/>
<path d="M75.1399 14.2754C75.3193 14.3494 82.8641 17.463 94.7421 22.365L94.7637 22.374L94.7549 22.3956C91.7108 29.9 87.9653 39.1334 83.9202 49.1056L83.9095 49.1322L83.8829 49.1214C83.8375 49.1032 83.7881 49.0834 83.7387 49.0636C76.7031 46.2368 70.0323 43.5566 64.1221 41.1822L64.0977 41.1724L64.1077 41.148C70.6339 25.251 75.0519 14.4894 75.1399 14.2754C75.0525 14.4896 70.6537 25.2592 64.1559 41.1676L64.1415 41.1334C70.0523 43.5064 76.7237 46.185 83.7601 49.0098C83.8095 49.0296 83.8589 49.0494 83.9043 49.0676L83.8668 49.0834C87.9156 39.1128 91.6645 29.8806 94.7113 22.3774L94.7241 22.408C82.8571 17.4802 75.3191 14.3498 75.1399 14.2754Z" fill="#E6E6E6"/>
<path d="M73.6984 11.71L62.6904 38.5924L82.4522 46.5292L93.2916 19.8214L73.6984 11.71Z" fill="#FAFAFA"/>
<path d="M73.6984 11.71C73.878 11.784 81.4227 14.8976 93.3007 19.7996L93.3222 19.8086L93.3134 19.8302C90.2695 27.3346 86.5238 36.568 82.4788 46.5402L82.468 46.5668L82.4414 46.556C82.396 46.5378 82.3466 46.518 82.2972 46.4982C75.2616 43.6714 68.5909 40.9912 62.6807 38.6168L62.6562 38.607L62.6662 38.5826C69.1924 22.6856 73.6106 11.9242 73.6984 11.71C73.611 11.9242 69.2123 22.6938 62.7145 38.6022L62.7003 38.5682C68.6111 40.9412 75.2824 43.6198 82.3188 46.4446C82.3682 46.4644 82.4176 46.4842 82.463 46.5024L82.4257 46.5184C86.4745 36.5478 90.2232 27.3156 93.27 19.8124L93.2828 19.843C81.4156 14.9148 73.8778 11.7844 73.6984 11.71Z" fill="#EBEBEB"/>
<path d="M88.5743 23.9085C88.5569 23.9531 85.1307 22.6589 80.9227 21.0185C76.7131 19.3775 73.3157 18.0115 73.3331 17.9669C73.3505 17.9223 76.7759 19.2161 80.9855 20.8573C85.1935 22.4977 88.5915 23.8641 88.5743 23.9085Z" fill="#E0E0E0"/>
<path d="M87.8174 26.3675C87.8 26.4121 84.3738 25.1179 80.1658 23.4775C75.9562 21.8365 72.5588 20.4705 72.5762 20.4259C72.5936 20.3813 76.019 21.6751 80.2286 23.3163C84.4366 24.9567 87.8348 26.3231 87.8174 26.3675Z" fill="#E0E0E0"/>
<path d="M85.2628 33.8197C85.2454 33.8643 81.8192 32.5701 77.6112 30.9297C73.4016 29.2887 70.0042 27.9225 70.0216 27.8781C70.039 27.8335 73.4643 29.1273 77.6739 30.7685C81.8819 32.4089 85.28 33.7753 85.2628 33.8197Z" fill="#E0E0E0"/>
<path d="M84.0567 36.3372C84.0393 36.3818 80.6131 35.0876 76.4051 33.4472C72.1955 31.8062 68.7981 30.4403 68.8155 30.3957C68.8329 30.3511 72.2583 31.6448 76.4679 33.286C80.6761 34.9264 84.0741 36.2926 84.0567 36.3372Z" fill="#E0E0E0"/>
<path d="M83.0547 38.8792C83.0373 38.9238 79.6111 37.6296 75.4031 35.9892C71.1935 34.3482 67.7961 32.9822 67.8135 32.9376C67.8309 32.893 71.2563 34.187 75.4659 35.828C79.6739 37.4682 83.0719 38.8346 83.0547 38.8792Z" fill="#E0E0E0"/>
<path d="M82.0528 41.4212C82.0354 41.4658 78.6092 40.1716 74.4012 38.5312C70.1916 36.8902 66.7944 35.524 66.8116 35.4796C66.829 35.435 70.2544 36.729 74.464 38.37C78.6722 40.0104 82.0702 41.3766 82.0528 41.4212Z" fill="#E0E0E0"/>
<path d="M75.9806 21.2852C75.9306 21.3898 75.7256 21.862 75.7256 21.862L84.0644 25.243L84.3192 24.5282L75.9806 21.2852Z" fill="#EBEBEB"/>
<path d="M71.7808 22.3311C71.7308 22.4357 71.4238 23.0765 71.4238 23.0765L87.0528 29.0279L87.4372 28.2123L71.7808 22.3311Z" fill="#EBEBEB"/>
<path d="M70.8748 24.8633C70.8248 24.9679 70.5176 25.6087 70.5176 25.6087L86.1466 31.5603L86.531 30.7447L70.8748 24.8633Z" fill="#EBEBEB"/>
<path d="M70.089 27.5195C70.0712 27.5565 69.8076 28.3239 69.8076 28.3239L77.63 31.3241L78.0708 30.4041L70.089 27.5195Z" fill="#EBEBEB"/>
<path d="M90.524 87.5286C90.524 87.5574 71.9572 87.5806 49.0594 87.5806C26.1536 87.5806 7.59082 87.5572 7.59082 87.5286C7.59082 87.5 26.1536 87.4766 49.0594 87.4766C71.9572 87.4766 90.524 87.4998 90.524 87.5286Z" fill="#263238"/>
<path d="M20.2878 13.3583C20.0208 22.4057 19.2348 56.3873 19.026 65.4551C18.9974 66.6935 19.9734 67.7213 21.2116 67.7591L58.458 68.8975C59.7104 68.9357 60.7538 67.9459 60.7814 66.6933L61.3612 40.4255L64.5144 40.3743C65.2902 40.3617 65.9148 39.7339 65.9238 38.9581L66.1662 17.7905C66.1752 17.0017 65.545 16.3541 64.7562 16.3415L61.9072 16.2965L61.9288 14.2495C61.9418 13.0207 60.9632 12.0103 59.7346 11.9839L22.5774 11.1841C21.3466 11.1573 20.3242 12.1273 20.2878 13.3583Z" fill="#0085FF"/>
<path opacity="0.4" d="M20.2878 13.3583C20.0208 22.4057 19.2348 56.3873 19.026 65.4551C18.9974 66.6935 19.9734 67.7213 21.2116 67.7591L58.458 68.8975C59.7104 68.9357 60.7538 67.9459 60.7814 66.6933L61.3612 40.4255L64.5144 40.3743C65.2902 40.3617 65.9148 39.7339 65.9238 38.9581L66.1662 17.7905C66.1752 17.0017 65.545 16.3541 64.7562 16.3415L61.9072 16.2965L61.9288 14.2495C61.9418 13.0207 60.9632 12.0103 59.7346 11.9839L22.5774 11.1841C21.3466 11.1573 20.3242 12.1273 20.2878 13.3583Z" fill="black"/>
<path d="M23.1182 13.7461L19.833 66.0811L58.2158 68.2301L61.3132 16.2909L23.1182 13.7461Z" fill="#E0E0E0"/>
<path d="M18.5049 12.6107L18.7603 65.0481L57.2005 64.6011L56.7847 12.5713L18.5049 12.6107Z" fill="#EBEBEB"/>
<path d="M13.4727 16.2178L20.7277 68.1516L58.7639 62.5758L51.4045 11.0674L13.4727 16.2178Z" fill="#FAFAFA"/>
<path d="M13.4727 16.2179C13.8199 16.1703 28.4175 14.1717 51.3987 11.0253L51.4405 11.0195L51.4465 11.0613C53.5169 25.5325 56.0643 43.3383 58.8155 62.5683L58.8229 62.6197L58.7715 62.6273C58.6841 62.6401 58.5891 62.6541 58.4941 62.6679C44.9513 64.6513 32.1109 66.5319 20.7347 68.1981L20.6875 68.2049L20.6809 68.1577C16.4169 37.4321 13.5301 16.6319 13.4727 16.2179C13.5309 16.6313 16.4549 37.4267 20.7743 68.1449L20.7207 68.1047C32.0967 66.4357 44.9365 64.5517 58.4787 62.5649C58.5737 62.5509 58.6687 62.5371 58.7561 62.5243L58.7121 62.5831C55.9679 43.3521 53.4271 25.5453 51.3621 11.0735L51.4099 11.1095C28.4221 14.2049 13.8199 16.1713 13.4727 16.2179Z" fill="#263238"/>
<path d="M49.014 28.2523C49.0274 28.3375 42.5074 29.4321 34.4528 30.6967C26.3956 31.9619 19.8552 32.9179 19.8418 32.8327C19.8284 32.7475 26.3472 31.6531 34.4044 30.3881C42.4588 29.1235 49.0006 28.1671 49.014 28.2523Z" fill="#263238"/>
<path d="M51.8002 42.1977C51.8136 42.2829 45.2934 43.3775 37.2389 44.6421C29.1817 45.9071 22.6414 46.8633 22.628 46.7781C22.6146 46.6929 29.1334 45.5985 37.1906 44.3335C45.245 43.0689 51.7868 42.1125 51.8002 42.1977Z" fill="#263238"/>
<path d="M52.2054 47.2201C52.2188 47.3053 45.6986 48.3999 37.6442 49.6645C29.587 50.9295 23.0466 51.8857 23.0332 51.8005C23.0198 51.7153 29.5384 50.6209 37.5958 49.3559C45.6502 48.0911 52.192 47.1349 52.2054 47.2201Z" fill="#263238"/>
<path d="M47.5343 17.2339C47.5375 17.3121 43.1581 17.9947 37.7539 18.7583C32.3477 19.5221 27.9641 20.0777 27.9609 19.9995C27.9577 19.9213 32.3361 19.2389 37.7423 18.4751C43.1465 17.7115 47.5311 17.1557 47.5343 17.2339Z" fill="#263238"/>
<path d="M48.1535 20.0142C48.1567 20.0924 43.7773 20.775 38.3731 21.5386C32.9669 22.3024 28.5833 22.858 28.5801 22.7798C28.5769 22.7016 32.9553 22.0192 38.3615 21.2554C43.7657 20.4918 48.1503 19.936 48.1535 20.0142Z" fill="#263238"/>
<path d="M48.8996 22.9487C48.9028 23.0269 44.5234 23.7095 39.1192 24.4731C33.713 25.2369 29.3294 25.7925 29.3262 25.7143C29.323 25.6361 33.7014 24.9537 39.1076 24.1899C44.5118 23.4263 48.8964 22.8705 48.8996 22.9487Z" fill="#263238"/>
<path d="M52.9525 52.0951C52.9659 52.1803 46.4459 53.2749 38.3913 54.5395C30.3341 55.8045 23.7937 56.7607 23.7803 56.6755C23.7669 56.5903 30.2857 55.4959 38.3429 54.2309C46.3973 52.9663 52.9391 52.0099 52.9525 52.0951Z" fill="#263238"/>
<path d="M53.6996 56.9711C53.713 57.0563 47.1928 58.1509 39.1384 59.4155C31.0812 60.6807 24.5408 61.6367 24.5274 61.5515C24.514 61.4663 31.0326 60.3719 39.09 59.1069C47.1444 57.8423 53.6862 56.8859 53.6996 56.9711Z" fill="#263238"/>
<path d="M25.9316 31.0803C25.9484 31.2889 26.0578 32.2119 26.0578 32.2119L42.1368 29.9091L41.885 28.5625L25.9316 31.0803Z" fill="#0085FF"/>
<path d="M20.333 36.5274C20.3498 36.736 20.4532 38.0146 20.4532 38.0146L50.2392 33.097L50.0978 31.4756L20.333 36.5274Z" fill="#0085FF"/>
<path d="M21.2188 41.2998C21.2355 41.5084 21.3389 42.787 21.3389 42.787L51.1249 37.8694L50.9835 36.248L21.2188 41.2998Z" fill="#0085FF"/>
<path d="M22.4072 46.1577C22.4132 46.2315 22.6992 47.6683 22.6992 47.6683L37.6268 45.2407L37.4784 43.4053L22.4072 46.1577Z" fill="#0085FF"/>
<path d="M18.0713 19.7156L19.4091 29.3553L28.1863 28.1263L26.9905 18.5146L18.0713 19.7156Z" fill="#263238"/>
<path d="M18.0713 19.7156L19.4091 29.3553L28.1863 28.1263L26.9905 18.5146L18.0713 19.7156Z" fill="#0085FF"/>
<mask id="mask0_772_19876" style="mask-type:luminance" maskUnits="userSpaceOnUse" x="18" y="18" width="11" height="12">
<path d="M18.0713 19.7156L19.4091 29.3553L28.1863 28.1263L26.9905 18.5146L18.0713 19.7156Z" fill="white"/>
</mask>
<g mask="url(#mask0_772_19876)">
<path d="M22.4488 27.6987L25.0936 26.9831C25.0518 26.6665 24.803 25.4579 24.803 25.4579C24.803 25.4579 25.8878 25.0757 25.693 23.9563C25.4982 22.8369 24.8258 20.3083 24.8258 20.3083C23.4292 19.9941 21.9718 20.4603 21.0168 21.5267L20.875 21.6851L22.4488 27.6987Z" fill="#FFBE9D"/>
<path d="M24.9272 22.2762C24.8496 22.2284 24.8254 22.1268 24.8732 22.0492C24.921 21.9716 25.0226 21.9474 25.1002 21.9952C25.1778 22.043 25.202 22.1446 25.1542 22.2222C25.1064 22.2998 25.0048 22.324 24.9272 22.2762Z" fill="#263238"/>
<path d="M25.1501 21.9706C25.1363 21.9932 25.0107 21.9292 24.8569 21.9572C24.7025 21.983 24.6061 22.0856 24.5855 22.069C24.5755 22.0618 24.5865 22.0236 24.6283 21.9776C24.6693 21.9318 24.7447 21.881 24.8409 21.8642C24.9369 21.8474 25.0251 21.8698 25.0791 21.899C25.1339 21.9282 25.1571 21.9604 25.1501 21.9706Z" fill="#263238"/>
<path d="M23.403 22.4358C23.488 22.4684 23.5306 22.564 23.4978 22.649C23.4652 22.734 23.3696 22.7766 23.2846 22.7438C23.1996 22.7112 23.157 22.6156 23.1898 22.5306C23.2224 22.4456 23.318 22.4032 23.403 22.4358Z" fill="#263238"/>
<path d="M23.5046 22.4178C23.4906 22.4404 23.3652 22.3764 23.2114 22.4044C23.057 22.4302 22.9606 22.5328 22.94 22.5162C22.93 22.509 22.941 22.4708 22.9828 22.4248C23.0238 22.379 23.0992 22.3282 23.1954 22.3114C23.2914 22.2946 23.3796 22.317 23.4336 22.3462C23.4884 22.3756 23.5116 22.4076 23.5046 22.4178Z" fill="#263238"/>
<path d="M24.3582 23.5717C24.355 23.5599 24.4464 23.5229 24.5972 23.4725C24.6366 23.4607 24.6666 23.4457 24.6654 23.4235C24.668 23.3979 24.6444 23.3577 24.615 23.3137C24.5564 23.2193 24.4972 23.1239 24.435 23.0239C24.1838 22.6099 23.9972 22.2641 24.0182 22.2513C24.0392 22.2385 24.2598 22.5637 24.511 22.9777C24.571 23.0791 24.6284 23.1757 24.685 23.2713C24.7084 23.3151 24.7466 23.3641 24.7382 23.4345C24.7332 23.4699 24.7062 23.4997 24.6808 23.5117C24.6556 23.5247 24.633 23.5289 24.6138 23.5335C24.459 23.5679 24.3616 23.5835 24.3582 23.5717Z" fill="#263238"/>
<path d="M23.8903 23.8347C23.7121 23.7693 24.3753 23.9867 24.6857 23.9131C24.6857 23.9131 24.5597 24.2337 24.2157 24.1759C23.8585 24.1159 23.8903 23.8347 23.8903 23.8347Z" fill="white"/>
<path d="M24.802 25.4418C24.802 25.4418 24.1068 25.631 23.2686 25.2998C23.2686 25.2998 23.7628 26.0394 24.8586 25.7308L24.802 25.4418Z" fill="#EB996E"/>
<path d="M21.074 22.7657C21.0478 22.7627 20.2298 22.8587 20.5398 23.7753C20.8496 24.6919 21.673 24.0759 21.6656 24.0489C21.6584 24.0223 21.074 22.7657 21.074 22.7657Z" fill="#FFBE9D"/>
<path d="M21.2761 23.8218C21.2711 23.8202 21.2639 23.8384 21.2411 23.8598C21.2189 23.8808 21.1765 23.9044 21.1225 23.9026C21.0137 23.8998 20.8801 23.7736 20.8199 23.61C20.7893 23.5274 20.7799 23.442 20.7873 23.3662C20.7927 23.2896 20.8201 23.2282 20.8659 23.203C20.9107 23.1754 20.9549 23.193 20.9749 23.215C20.9959 23.2366 20.9963 23.2568 21.0017 23.2566C21.0051 23.258 21.0161 23.2346 20.9961 23.1992C20.9861 23.1824 20.9681 23.1644 20.9407 23.154C20.9127 23.1436 20.8773 23.1454 20.8445 23.1606C20.7755 23.1894 20.7339 23.276 20.7257 23.3592C20.7139 23.444 20.7225 23.5406 20.7567 23.6334C20.8249 23.8162 20.9779 23.957 21.1235 23.9506C21.1937 23.9456 21.2409 23.908 21.2613 23.877C21.2821 23.8446 21.2799 23.8224 21.2761 23.8218Z" fill="#EB996E"/>
<path d="M24.8168 20.2756C24.6702 21.0962 23.6148 21.6066 22.805 21.8048C23.122 21.4018 22.9008 21.5144 23.0914 21.2372C22.684 21.7572 21.9186 22.3552 20.9756 22.5068C20.78 22.1526 20.7346 21.7186 20.8526 21.3314C20.9706 20.9444 21.2504 20.6094 21.6102 20.4244C21.8478 20.3022 22.1132 20.245 22.358 20.1382C22.5648 20.048 22.7564 19.923 22.9698 19.8494C23.61 19.6288 24.645 19.2518 24.8168 20.2756Z" fill="#263238"/>
<path d="M21.4006 21.9971C21.3782 22.1127 21.3794 23.4247 21.3794 23.4247L20.8662 22.2551L21.4006 21.9971Z" fill="#263238"/>
<path d="M17.1914 32.3685L19.415 29.0959L19.4154 29.0965C19.8424 28.4481 20.3864 27.9259 21.0782 27.5191C21.4142 27.3215 21.7822 27.1721 22.2212 27.0707C23.2306 27.1875 24.185 27.0099 25.0842 26.5379C25.4866 26.5139 26.3756 26.4613 27.462 26.7627L31.862 27.6583L31.2264 31.5183L28.896 31.1897L29.401 34.6133L30.7838 39.6191L22.313 41.2915L21.5614 36.6575L20.9446 33.3185L19.9426 34.7391L17.1914 32.3685Z" fill="#455A64"/>
</g>
<path d="M65.2382 86.832L65.2276 84.993L68.6721 84.9512L68.7159 87.6416L68.5026 87.6578C67.5528 87.722 63.6684 87.9178 63.0306 87.7328C62.3196 87.5266 65.2382 86.832 65.2382 86.832Z" fill="#0085FF"/>
<path d="M67.4668 87.6295C67.5124 87.3411 67.6692 87.0717 67.8974 86.8897C68.1256 86.7077 68.4082 86.6097 68.6996 86.6295L68.712 87.5921L67.4668 87.6295Z" fill="#0085FF"/>
<path d="M63.8128 87.2227C63.8128 87.2227 62.7906 87.5311 62.9206 87.6985C63.0506 87.8659 66.9834 87.8159 68.7162 87.6419L68.7098 87.5649L64.1228 87.6623C64.1228 87.6623 64.0134 87.2287 63.8128 87.2227Z" fill="#0085FF"/>
<path d="M68.7641 87.5619C68.7641 87.5633 68.7437 87.5657 68.7049 87.5691C68.6539 87.5729 68.5979 87.5769 68.5349 87.5815C68.3649 87.5911 68.1559 87.6027 67.9091 87.6165C67.3805 87.6423 66.6499 87.6681 65.8425 87.6791C65.0349 87.6899 64.3037 87.6837 63.7747 87.6723C63.5277 87.6651 63.3185 87.6591 63.1483 87.6543C63.0851 87.6513 63.0293 87.6489 62.9781 87.6465C62.9393 87.6443 62.9189 87.6423 62.9189 87.6409C62.9189 87.6395 62.9396 87.6385 62.9784 87.6381C63.0296 87.6381 63.0855 87.6381 63.1487 87.6381C63.3189 87.6393 63.5281 87.6409 63.7751 87.6429C64.3041 87.6469 65.035 87.6483 65.8422 87.6377C66.6492 87.6267 67.3793 87.6055 67.9081 87.5873C68.1549 87.5787 68.3641 87.5715 68.5341 87.5657C68.5973 87.5639 68.6533 87.5625 68.7045 87.5611C68.7435 87.5601 68.7641 87.5605 68.7641 87.5619Z" fill="#263238"/>
<path d="M64.1246 87.7162C64.1118 87.718 64.1002 87.5686 64.0038 87.4188C63.91 87.2674 63.7802 87.1926 63.7874 87.1818C63.7898 87.1714 63.9382 87.2344 64.0392 87.3964C64.142 87.5574 64.135 87.7184 64.1246 87.7162Z" fill="#263238"/>
<path d="M65.1345 87.1872C65.1249 87.1934 65.0755 87.135 65.0243 87.0564C64.9731 86.9778 64.9393 86.9092 64.9489 86.9028C64.9585 86.8964 65.0079 86.955 65.0591 87.0336C65.1103 87.112 65.1441 87.1808 65.1345 87.1872Z" fill="#263238"/>
<path d="M65.4116 87.0362C65.404 87.0448 65.3492 87.0092 65.2892 86.9568C65.2292 86.9042 65.1866 86.8546 65.1942 86.846C65.2018 86.8374 65.2566 86.873 65.3166 86.9254C65.3766 86.9778 65.4192 87.0274 65.4116 87.0362Z" fill="#263238"/>
<path d="M65.5834 86.7085C65.5836 86.7201 65.5034 86.7313 65.404 86.7337C65.3046 86.7361 65.2238 86.7287 65.2236 86.7171C65.2234 86.7055 65.3036 86.6943 65.403 86.6919C65.5022 86.6895 65.583 86.6969 65.5834 86.7085Z" fill="#263238"/>
<path d="M65.6416 86.4788C65.6456 86.489 65.5584 86.5299 65.4418 86.5397C65.3252 86.5503 65.2322 86.5255 65.2344 86.5147C65.2362 86.5027 65.3274 86.5083 65.4382 86.4981C65.5488 86.4889 65.6378 86.4674 65.6416 86.4788Z" fill="#263238"/>
<path d="M65.014 86.8879C65.0144 86.8925 64.9294 86.9041 64.7926 86.8893C64.7244 86.8819 64.6434 86.8669 64.5562 86.8403C64.5128 86.8255 64.4676 86.8145 64.4206 86.7865C64.3986 86.7721 64.374 86.7519 64.365 86.7185C64.3554 86.6855 64.3728 86.6479 64.3974 86.6297C64.6076 86.5175 64.821 86.6337 64.9008 86.7421C64.9448 86.7973 64.9652 86.8515 64.975 86.8889C64.9844 86.9267 64.984 86.9483 64.9814 86.9487C64.9736 86.9517 64.9654 86.8617 64.8782 86.7611C64.8352 86.7119 64.7704 86.6641 64.6876 86.6407C64.6092 86.6185 64.4978 86.6137 64.424 86.6621C64.3892 86.6885 64.4034 86.7297 64.4428 86.7525C64.4796 86.7755 64.5268 86.7893 64.568 86.8041C64.6522 86.8319 64.7304 86.8497 64.7966 86.8605C64.9296 86.8819 65.014 86.8809 65.014 86.8879Z" fill="#263238"/>
<path d="M64.9567 86.8998C64.9535 86.9022 64.9203 86.8462 64.9293 86.7464C64.9341 86.6974 64.9513 86.6392 64.9877 86.584C65.0261 86.5344 65.0755 86.466 65.1705 86.4688C65.2219 86.4748 65.2477 86.5328 65.2401 86.5702C65.2365 86.609 65.2195 86.6426 65.2037 86.6696C65.1715 86.7254 65.1349 86.7706 65.1009 86.8048C65.0323 86.8734 64.9779 86.9002 64.9753 86.896C64.9713 86.8906 65.0189 86.8558 65.0791 86.7848C65.1091 86.7494 65.1415 86.7044 65.1701 86.6508C65.1999 86.6036 65.2197 86.5194 65.1639 86.51C65.1085 86.5054 65.0525 86.5612 65.0193 86.6058C64.9851 86.6542 64.9665 86.706 64.9585 86.7506C64.9427 86.8408 64.9641 86.898 64.9567 86.8998Z" fill="#263238"/>
<path d="M68.6811 86.6203C68.6805 86.6281 68.5823 86.6121 68.4269 86.6325C68.2729 86.6515 68.0593 86.7175 67.8745 86.8683C67.6901 87.0195 67.5831 87.2159 67.5337 87.3631C67.4829 87.5115 67.4791 87.6107 67.4715 87.6099C67.4689 87.6097 67.4673 87.5851 67.4705 87.5405C67.4735 87.4959 67.4833 87.4315 67.5057 87.3543C67.5489 87.2009 67.6557 86.9939 67.8481 86.8363C68.0407 86.6791 68.2647 86.6153 68.4237 86.6033C68.5037 86.5967 68.5689 86.5999 68.6133 86.6057C68.6575 86.6113 68.6815 86.6177 68.6811 86.6203Z" fill="#263238"/>
<path d="M68.3065 85.1914C68.3181 85.1912 68.3355 85.5078 68.3453 85.8984C68.3553 86.2894 68.3539 86.6064 68.3425 86.6066C68.3311 86.6068 68.3135 86.2904 68.3037 85.8994C68.2935 85.5088 68.2949 85.1918 68.3065 85.1914Z" fill="#263238"/>
<path d="M67.0289 87.2996C67.0305 87.3104 66.8065 87.35 66.5267 87.3558C66.2467 87.3624 66.0213 87.3326 66.0225 87.3218C66.0235 87.3096 66.2485 87.3206 66.5259 87.314C66.8031 87.3084 67.0275 87.2876 67.0289 87.2996Z" fill="#263238"/>
<path d="M67.7039 87.2894C67.7125 87.2978 67.6862 87.3374 67.6638 87.3892C67.6408 87.4408 67.6293 87.487 67.6175 87.4864C67.6063 87.4864 67.5991 87.4322 67.6253 87.3724C67.6515 87.3126 67.6963 87.2812 67.7039 87.2894Z" fill="#263238"/>
<path d="M67.9544 86.9703C67.9628 86.9783 67.941 87.0145 67.9058 87.0511C67.8706 87.0877 67.8354 87.1109 67.827 87.1029C67.8186 87.0949 67.8404 87.0589 67.8756 87.0221C67.9108 86.9855 67.946 86.9623 67.9544 86.9703Z" fill="#263238"/>
<path d="M68.3169 86.8207C68.3147 86.8325 68.2689 86.8325 68.2185 86.8511C68.1677 86.8683 68.1321 86.8969 68.1229 86.8893C68.1135 86.8831 68.1419 86.8337 68.2047 86.8117C68.2671 86.7895 68.3203 86.8101 68.3169 86.8207Z" fill="#263238"/>
<path d="M68.5755 86.7488C68.5797 86.7596 68.5603 86.7774 68.5317 86.7888C68.5033 86.8002 68.4767 86.8008 68.4723 86.7902C68.4681 86.7796 68.4875 86.7616 68.5161 86.7502C68.5447 86.7388 68.5713 86.7382 68.5755 86.7488Z" fill="#263238"/>
<path d="M82.8414 85.8813L82.2806 84.1299L78.9932 85.1593L79.7866 87.7303L79.9946 87.6795C80.9176 87.4457 84.6708 86.4261 85.2196 86.0525C85.8316 85.6355 82.8414 85.8813 82.8414 85.8813Z" fill="#0085FF"/>
<path d="M80.9705 87.3317C80.8377 87.0717 80.6051 86.8643 80.3315 86.7621C80.0579 86.6599 79.7591 86.6545 79.4883 86.7637L79.7753 87.6827L80.9705 87.3317Z" fill="#0085FF"/>
<path d="M84.3176 85.8095C84.3176 85.8095 85.385 85.7853 85.3134 85.9849C85.2418 86.1843 81.4876 87.3575 79.7864 87.7301L79.7686 87.6551L84.1592 86.3241C84.1594 86.3237 84.1288 85.8773 84.3176 85.8095Z" fill="#0085FF"/>
<path d="M79.7168 87.6695C79.7172 87.6709 79.7374 87.6669 79.7752 87.6579C79.8248 87.6457 79.8792 87.6321 79.9406 87.6169C80.1052 87.5731 80.3076 87.5193 80.5462 87.4559C81.0566 87.3163 81.7592 87.1141 82.5302 86.8739C83.3012 86.6335 83.9944 86.4007 84.4938 86.2255C84.7264 86.1421 84.9234 86.0713 85.0836 86.0139C85.1428 85.9915 85.1952 85.9717 85.243 85.9535C85.2792 85.9393 85.2982 85.9311 85.2976 85.9299C85.297 85.9285 85.2774 85.9341 85.2402 85.9457C85.1916 85.9615 85.1384 85.9789 85.0782 85.9985C84.9168 86.0525 84.7184 86.1191 84.4842 86.1975C83.9826 86.3655 83.2884 86.5937 82.5178 86.8339C81.7474 87.0739 81.0464 87.2805 80.5382 87.4273C80.3008 87.4957 80.0998 87.5539 79.9362 87.6011C79.8756 87.6191 79.8218 87.6351 79.7728 87.6497C79.7358 87.6615 79.7164 87.6681 79.7168 87.6695Z" fill="#263238"/>
<path d="M84.1747 86.3758C84.1873 86.3736 84.1521 86.2278 84.1971 86.0556C84.2393 85.8826 84.3393 85.7712 84.3293 85.7632C84.3239 85.754 84.2023 85.8601 84.1565 86.0455C84.1089 86.2303 84.1655 86.3812 84.1747 86.3758Z" fill="#263238"/>
<path d="M83.0503 86.1865C83.0615 86.1895 83.0901 86.1185 83.1145 86.0279C83.1389 85.9373 83.1495 85.8615 83.1385 85.8585C83.1273 85.8555 83.0987 85.9265 83.0743 86.0171C83.0499 86.1077 83.0391 86.1835 83.0503 86.1865Z" fill="#263238"/>
<path d="M82.7405 86.1287C82.7505 86.1345 82.7915 86.0837 82.8323 86.0151C82.8731 85.9465 82.8981 85.8861 82.8881 85.8803C82.8781 85.8745 82.8371 85.9253 82.7963 85.9939C82.7557 86.0625 82.7305 86.1229 82.7405 86.1287Z" fill="#263238"/>
<path d="M82.4747 85.871C82.4781 85.882 82.5579 85.8678 82.6531 85.8392C82.7483 85.8106 82.8227 85.7784 82.8195 85.7674C82.8163 85.7564 82.7363 85.7706 82.6411 85.7992C82.5459 85.828 82.4715 85.86 82.4747 85.871Z" fill="#263238"/>
<path d="M82.3486 85.6706C82.348 85.6816 82.4434 85.6932 82.5574 85.6664C82.6716 85.6402 82.7522 85.5879 82.7468 85.5783C82.7414 85.5675 82.6564 85.6011 82.548 85.6257C82.4398 85.6515 82.3486 85.6586 82.3486 85.6706Z" fill="#263238"/>
<path d="M83.0723 85.8649C83.0735 85.8695 83.1577 85.8539 83.2831 85.7975C83.3457 85.7693 83.4179 85.7299 83.4925 85.6777C83.5291 85.6501 83.5687 85.6257 83.6047 85.5845C83.6213 85.5639 83.6383 85.5371 83.6365 85.5025C83.6353 85.4681 83.6073 85.4379 83.5781 85.4281C83.3435 85.3865 83.1767 85.5633 83.1343 85.6911C83.1097 85.7573 83.1071 85.8151 83.1095 85.8537C83.1123 85.8925 83.1195 85.9129 83.1219 85.9125C83.1303 85.9129 83.1101 85.8249 83.1619 85.7021C83.1875 85.6419 83.2341 85.5765 83.3057 85.5285C83.3733 85.4831 83.4777 85.4439 83.5629 85.4669C83.6043 85.4813 83.6035 85.5249 83.5731 85.5587C83.5453 85.5921 83.5047 85.6197 83.4701 85.6465C83.3987 85.6991 83.3299 85.7401 83.2703 85.7711C83.1507 85.8331 83.0701 85.8585 83.0723 85.8649Z" fill="#263238"/>
<path d="M83.1305 85.8576C83.1343 85.859 83.1485 85.7952 83.1091 85.7034C83.0893 85.6584 83.0549 85.6084 83.0031 85.567C82.9511 85.5318 82.8829 85.4822 82.7935 85.5142C82.7465 85.5358 82.7399 85.599 82.7589 85.6322C82.7743 85.668 82.8009 85.6946 82.8243 85.7154C82.8721 85.7584 82.9211 85.79 82.9641 85.812C83.0505 85.856 83.1107 85.8644 83.1117 85.8598C83.1137 85.8534 83.0577 85.835 82.9787 85.7864C82.9393 85.762 82.8945 85.7294 82.8507 85.6872C82.8077 85.6516 82.7629 85.5776 82.8127 85.5514C82.8641 85.5298 82.9345 85.5656 82.9799 85.5976C83.0275 85.633 83.0613 85.6764 83.0827 85.7162C83.1255 85.7972 83.1229 85.8582 83.1305 85.8576Z" fill="#263238"/>
<path d="M79.502 86.7488C79.505 86.756 79.5934 86.7104 79.7474 86.6814C79.8998 86.6518 80.1234 86.6482 80.3456 86.7342C80.5678 86.8206 80.7306 86.9742 80.823 87.0988C80.9172 87.224 80.9516 87.3172 80.9588 87.314C80.9612 87.313 80.955 87.289 80.9382 87.2476C80.9214 87.2062 80.8922 87.1478 80.847 87.0814C80.7584 86.949 80.5926 86.7854 80.3608 86.6952C80.129 86.6054 79.8962 86.6144 79.7414 86.6524C79.6632 86.671 79.6022 86.6942 79.562 86.7136C79.5216 86.733 79.501 86.7466 79.502 86.7488Z" fill="#263238"/>
<path d="M79.416 85.2735C79.405 85.2767 79.4866 85.5831 79.5986 85.9577C79.7104 86.3325 79.8102 86.6333 79.8212 86.6301C79.8322 86.6267 79.7506 86.3205 79.6386 85.9457C79.5268 85.5713 79.427 85.2701 79.416 85.2735Z" fill="#263238"/>
<path d="M81.2842 86.8811C81.286 86.8919 81.5112 86.8601 81.779 86.7787C82.0472 86.6981 82.2522 86.5999 82.2478 86.5899C82.2432 86.5787 82.0326 86.6589 81.767 86.7387C81.5016 86.8195 81.2818 86.8693 81.2842 86.8811Z" fill="#263238"/>
<path d="M80.6392 87.0819C80.6338 87.0925 80.671 87.1219 80.7082 87.1643C80.7462 87.2063 80.7712 87.2467 80.7822 87.2423C80.7928 87.2389 80.783 87.1851 80.7394 87.1365C80.6962 87.0879 80.6438 87.0719 80.6392 87.0819Z" fill="#263238"/>
<path d="M80.3014 86.8554C80.296 86.8656 80.328 86.8932 80.3726 86.917C80.4174 86.9408 80.458 86.952 80.4636 86.9418C80.469 86.9316 80.4372 86.904 80.3922 86.8802C80.3476 86.8562 80.3068 86.8452 80.3014 86.8554Z" fill="#263238"/>
<path d="M79.9108 86.8257C79.9166 86.8361 79.9602 86.8221 80.0138 86.8241C80.0674 86.8247 80.1102 86.8409 80.1166 86.8307C80.1236 86.8219 80.0812 86.7837 80.0148 86.7823C79.9484 86.7805 79.9042 86.8167 79.9108 86.8257Z" fill="#263238"/>
<path d="M79.6436 86.8378C79.6428 86.8494 79.667 86.8604 79.6976 86.8624C79.7282 86.8644 79.7536 86.8568 79.7544 86.8452C79.7552 86.8338 79.731 86.8228 79.7004 86.8206C79.6698 86.8186 79.6444 86.8264 79.6436 86.8378Z" fill="#263238"/>
<path d="M62.8945 50.3096L64.5021 86.0398L69.8663 86.1526L68.9755 56.2396L78.6959 86.509L83.0803 85.309L73.2977 50.3096" fill="#263238"/>
<path d="M78.4668 86.3055L78.717 86.7865L83.3628 85.4323L83.0806 84.6523L78.4668 86.3055Z" fill="#455A64"/>
<path d="M82.5443 84.4744C82.5719 84.4662 82.6135 84.5238 82.6373 84.6032C82.6611 84.6826 82.6581 84.7536 82.6305 84.7618C82.6029 84.77 82.5613 84.7124 82.5375 84.633C82.5137 84.5536 82.5169 84.4826 82.5443 84.4744Z" fill="#455A64"/>
<path d="M82.196 83.3139C82.2236 83.3057 82.2848 83.4287 82.3328 83.5889C82.3808 83.7491 82.3974 83.8857 82.3698 83.8939C82.3422 83.9021 82.281 83.7791 82.233 83.6187C82.185 83.4587 82.1684 83.3221 82.196 83.3139Z" fill="#455A64"/>
<path d="M81.8483 82.1537C81.8759 82.1455 81.9371 82.2687 81.9851 82.4287C82.0331 82.5889 82.0497 82.7255 82.0221 82.7337C81.9945 82.7419 81.9333 82.6189 81.8853 82.4585C81.8375 82.2985 81.8207 82.1621 81.8483 82.1537Z" fill="#455A64"/>
<path d="M81.5006 80.9936C81.5282 80.9854 81.5894 81.1086 81.6374 81.2686C81.6854 81.4288 81.702 81.5653 81.6746 81.5735C81.647 81.5817 81.5858 81.4587 81.5378 81.2985C81.4896 81.1383 81.473 81.002 81.5006 80.9936Z" fill="#455A64"/>
<path d="M81.153 79.8334C81.1806 79.8252 81.2418 79.9482 81.2898 80.1084C81.3378 80.2686 81.3544 80.4052 81.327 80.4134C81.2994 80.4216 81.2382 80.2986 81.1902 80.1384C81.142 79.9784 81.1254 79.8418 81.153 79.8334Z" fill="#455A64"/>
<path d="M80.8042 78.6732C80.8318 78.665 80.893 78.7882 80.941 78.9482C80.989 79.1084 81.0056 79.245 80.978 79.2532C80.9504 79.2614 80.8892 79.1384 80.8412 78.9782C80.7934 78.818 80.7768 78.6814 80.8042 78.6732Z" fill="#455A64"/>
<path d="M80.4567 77.5131C80.4843 77.5049 80.5455 77.6281 80.5935 77.7881C80.6415 77.9483 80.6581 78.0849 80.6305 78.0931C80.6029 78.1013 80.5417 77.9783 80.4937 77.8179C80.4457 77.6579 80.4291 77.5213 80.4567 77.5131Z" fill="#455A64"/>
<path d="M80.109 76.3529C80.1366 76.3447 80.1978 76.4679 80.2458 76.6279C80.2938 76.7881 80.3104 76.9247 80.283 76.9329C80.2554 76.9411 80.1942 76.8181 80.1462 76.6577C80.0982 76.4977 80.0814 76.3611 80.109 76.3529Z" fill="#455A64"/>
<path d="M79.7614 75.1928C79.789 75.1846 79.8502 75.3078 79.8982 75.4678C79.9462 75.628 79.9628 75.7646 79.9354 75.7728C79.9078 75.781 79.8466 75.658 79.7986 75.4976C79.7504 75.3376 79.7338 75.201 79.7614 75.1928Z" fill="#455A64"/>
<path d="M79.4128 74.0326C79.4404 74.0244 79.5016 74.1476 79.5496 74.3076C79.5976 74.4678 79.6142 74.6044 79.5866 74.6126C79.559 74.6208 79.4978 74.4978 79.4498 74.3374C79.4018 74.1774 79.3852 74.0408 79.4128 74.0326Z" fill="#455A64"/>
<path d="M79.065 72.8725C79.0926 72.8643 79.1538 72.9873 79.2018 73.1475C79.2498 73.3077 79.2664 73.4443 79.2388 73.4525C79.2112 73.4607 79.15 73.3377 79.102 73.1773C79.0542 73.0173 79.0376 72.8807 79.065 72.8725Z" fill="#455A64"/>
<path d="M78.7174 71.7123C78.745 71.7041 78.8062 71.8271 78.8542 71.9873C78.9022 72.1475 78.9188 72.2841 78.8912 72.2923C78.8636 72.3005 78.8024 72.1775 78.7544 72.0173C78.7064 71.8571 78.6898 71.7205 78.7174 71.7123Z" fill="#455A64"/>
<path d="M78.3697 70.5521C78.3973 70.5439 78.4585 70.6669 78.5065 70.8271C78.5545 70.9873 78.5711 71.1239 78.5435 71.1321C78.5159 71.1403 78.4547 71.0173 78.4067 70.8571C78.3589 70.6969 78.3423 70.5605 78.3697 70.5521Z" fill="#455A64"/>
<path d="M78.0211 69.392C78.0487 69.3838 78.1099 69.5068 78.1579 69.667C78.2059 69.8272 78.2225 69.9638 78.1951 69.972C78.1675 69.9802 78.1064 69.8572 78.0584 69.697C78.0102 69.5368 77.9935 69.4004 78.0211 69.392Z" fill="#455A64"/>
<path d="M77.6735 68.2318C77.7011 68.2236 77.7623 68.3468 77.8103 68.5068C77.8583 68.667 77.8749 68.8036 77.8475 68.8118C77.8199 68.82 77.7587 68.697 77.7107 68.5368C77.6625 68.3766 77.6459 68.24 77.6735 68.2318Z" fill="#455A64"/>
<path d="M77.3258 67.0717C77.3534 67.0635 77.4146 67.1867 77.4626 67.3467C77.5106 67.5069 77.5272 67.6435 77.4998 67.6517C77.4722 67.6599 77.411 67.5369 77.363 67.3767C77.3148 67.2165 77.2982 67.0799 77.3258 67.0717Z" fill="#455A64"/>
<path d="M76.9772 65.9115C77.0048 65.9033 77.066 66.0265 77.114 66.1865C77.162 66.3467 77.1786 66.4833 77.151 66.4915C77.1234 66.4997 77.0622 66.3767 77.0142 66.2163C76.9662 66.0563 76.9496 65.9197 76.9772 65.9115Z" fill="#455A64"/>
<path d="M76.6294 64.7514C76.657 64.7432 76.7182 64.8664 76.7662 65.0264C76.8142 65.1866 76.8308 65.3232 76.8032 65.3314C76.7756 65.3396 76.7144 65.2166 76.6664 65.0562C76.6186 64.8962 76.602 64.7596 76.6294 64.7514Z" fill="#455A64"/>
<path d="M76.2819 63.5912C76.3095 63.583 76.3707 63.7062 76.4187 63.8662C76.4667 64.0264 76.4833 64.163 76.4559 64.1712C76.4283 64.1794 76.3671 64.0564 76.3191 63.8962C76.2709 63.736 76.2543 63.5994 76.2819 63.5912Z" fill="#455A64"/>
<path d="M75.9342 62.4311C75.9618 62.4229 76.023 62.5461 76.071 62.7061C76.119 62.8663 76.1356 63.0028 76.1082 63.011C76.0806 63.0192 76.0194 62.8962 75.9714 62.736C75.9232 62.5758 75.9066 62.4393 75.9342 62.4311Z" fill="#455A64"/>
<path d="M75.5856 61.2709C75.6132 61.2627 75.6744 61.3857 75.7224 61.5459C75.7704 61.7061 75.787 61.8427 75.7594 61.8509C75.7318 61.8591 75.6706 61.7361 75.6226 61.5759C75.5746 61.4157 75.558 61.2791 75.5856 61.2709Z" fill="#455A64"/>
<path d="M75.238 60.1107C75.2656 60.1025 75.3268 60.2255 75.3748 60.3857C75.4228 60.5459 75.4394 60.6825 75.4118 60.6907C75.3842 60.6989 75.323 60.5759 75.275 60.4157C75.227 60.2555 75.2104 60.1189 75.238 60.1107Z" fill="#455A64"/>
<path d="M74.8902 58.9506C74.9178 58.9424 74.979 59.0654 75.027 59.2256C75.075 59.3858 75.0916 59.5224 75.064 59.5306C75.0364 59.5388 74.9752 59.4158 74.9272 59.2556C74.8794 59.0954 74.8628 58.959 74.8902 58.9506Z" fill="#455A64"/>
<path d="M74.5426 57.7904C74.5702 57.7822 74.6314 57.9052 74.6794 58.0654C74.7274 58.2256 74.744 58.3622 74.7164 58.3704C74.6888 58.3786 74.6276 58.2556 74.5796 58.0952C74.5316 57.9354 74.515 57.7988 74.5426 57.7904Z" fill="#455A64"/>
<path d="M74.194 56.6303C74.2216 56.6221 74.2828 56.7453 74.3308 56.9053C74.3788 57.0655 74.3954 57.2021 74.3678 57.2103C74.3402 57.2185 74.279 57.0955 74.231 56.9351C74.1832 56.7751 74.1664 56.6385 74.194 56.6303Z" fill="#455A64"/>
<path d="M73.8464 55.4701C73.874 55.4619 73.9352 55.5851 73.9832 55.7451C74.0312 55.9053 74.0478 56.0419 74.0202 56.0501C73.9926 56.0583 73.9314 55.9353 73.8834 55.7749C73.8354 55.6149 73.8188 55.4783 73.8464 55.4701Z" fill="#455A64"/>
<path d="M73.4987 54.31C73.5263 54.3018 73.5875 54.4248 73.6355 54.585C73.6835 54.7452 73.7001 54.8818 73.6725 54.89C73.6449 54.8982 73.5837 54.7752 73.5357 54.6148C73.4877 54.4548 73.4711 54.3182 73.4987 54.31Z" fill="#455A64"/>
<path d="M73.1499 53.1498C73.1775 53.1416 73.2387 53.2646 73.2867 53.4248C73.3347 53.585 73.3513 53.7216 73.3237 53.7298C73.2961 53.738 73.2349 53.615 73.1869 53.4548C73.1391 53.2946 73.1225 53.158 73.1499 53.1498Z" fill="#455A64"/>
<path d="M72.8024 51.9896C72.83 51.9814 72.8912 52.1044 72.9392 52.2646C72.9872 52.4248 73.0038 52.5614 72.9762 52.5696C72.9486 52.5778 72.8874 52.4548 72.8394 52.2946C72.7914 52.1344 72.7748 51.9978 72.8024 51.9896Z" fill="#455A64"/>
<path d="M72.5424 51.1219C72.57 51.1137 72.6116 51.1713 72.6354 51.2507C72.6592 51.3301 72.6562 51.4011 72.6286 51.4093C72.601 51.4175 72.5594 51.3599 72.5356 51.2805C72.5118 51.2011 72.5148 51.1301 72.5424 51.1219Z" fill="#455A64"/>
<path d="M68.9422 85.8604C68.971 85.859 68.9976 85.9248 69.002 86.0074C69.0062 86.09 68.9864 86.1582 68.9578 86.1598C68.929 86.1614 68.9024 86.0956 68.898 86.0128C68.8938 85.93 68.9136 85.8618 68.9422 85.8604Z" fill="#455A64"/>
<path d="M68.8926 84.6699C68.9214 84.6689 68.9498 84.8013 68.956 84.9655C68.9622 85.1299 68.944 85.2639 68.9152 85.2651C68.8864 85.2663 68.8582 85.1339 68.8518 84.9695C68.8456 84.8051 68.8638 84.6709 68.8926 84.6699Z" fill="#455A64"/>
<path d="M68.8557 83.4795C68.8845 83.4787 68.9117 83.6113 68.9163 83.7757C68.9211 83.9401 68.9015 84.0741 68.8729 84.0749C68.8441 84.0757 68.8171 83.9431 68.8123 83.7787C68.8075 83.6143 68.8269 83.4803 68.8557 83.4795Z" fill="#455A64"/>
<path d="M68.8256 82.2891C68.8544 82.2883 68.881 82.4211 68.885 82.5855C68.889 82.7499 68.869 82.8839 68.8402 82.8845C68.8114 82.8851 68.7848 82.7525 68.7808 82.5879C68.7768 82.4237 68.7968 82.2899 68.8256 82.2891Z" fill="#455A64"/>
<path d="M68.7974 81.0977C68.8262 81.0971 68.8526 81.2299 68.8566 81.3943C68.8606 81.5589 68.8404 81.6927 68.8116 81.6935C68.7828 81.6941 68.7564 81.5613 68.7524 81.3969C68.7486 81.2323 68.7688 81.0985 68.7974 81.0977Z" fill="#455A64"/>
<path d="M68.7663 79.9053C68.7951 79.9045 68.8219 80.0373 68.8265 80.2019C68.8309 80.3665 68.8113 80.5005 68.7825 80.5013C68.7537 80.5021 68.7269 80.3693 68.7223 80.2047C68.7179 80.0401 68.7377 79.9061 68.7663 79.9053Z" fill="#455A64"/>
<path d="M68.7271 78.7139C68.7559 78.7127 68.7839 78.8453 68.7897 79.0097C68.7955 79.1743 68.7769 79.3085 68.7483 79.3093C68.7195 79.3103 68.6915 79.1777 68.6857 79.0133C68.6797 78.8493 68.6983 78.7151 68.7271 78.7139Z" fill="#455A64"/>
<path d="M68.6768 77.5244C68.7056 77.5232 68.7344 77.6554 68.7414 77.8198C68.7482 77.9842 68.7306 78.1184 68.7018 78.1196C68.673 78.1208 68.6442 77.9886 68.6372 77.8242C68.6304 77.6598 68.6482 77.5256 68.6768 77.5244Z" fill="#455A64"/>
<path d="M68.6309 76.334C68.6597 76.3328 68.6879 76.4652 68.6943 76.6296C68.7005 76.794 68.6823 76.9282 68.6535 76.9292C68.6247 76.9302 68.5965 76.798 68.5901 76.6336C68.5839 76.4692 68.6023 76.335 68.6309 76.334Z" fill="#455A64"/>
<path d="M68.5889 75.1426C68.6177 75.1416 68.6455 75.2742 68.6511 75.4384C68.6567 75.6028 68.6379 75.7368 68.6091 75.7378C68.5803 75.7388 68.5525 75.6062 68.5469 75.4418C68.5413 75.2776 68.5601 75.1436 68.5889 75.1426Z" fill="#455A64"/>
<path d="M68.5527 73.9512C68.5815 73.9504 68.6087 74.083 68.6135 74.2474C68.6183 74.4118 68.5989 74.5458 68.5703 74.5466C68.5415 74.5474 68.5143 74.4148 68.5095 74.2504C68.5047 74.086 68.5241 73.952 68.5527 73.9512Z" fill="#455A64"/>
<path d="M68.5217 72.7598C68.5505 72.759 68.5771 72.8918 68.5813 73.0562C68.5855 73.2206 68.5655 73.3546 68.5367 73.3552C68.5079 73.356 68.4813 73.2232 68.4771 73.0588C68.4729 72.8944 68.4929 72.7606 68.5217 72.7598Z" fill="#455A64"/>
<path d="M68.4956 71.5693C68.5244 71.5687 68.5504 71.7015 68.5538 71.8659C68.5572 72.0303 68.5366 72.1641 68.5078 72.1647C68.479 72.1653 68.453 72.0325 68.4496 71.8679C68.4462 71.7037 68.4668 71.5699 68.4956 71.5693Z" fill="#455A64"/>
<path d="M68.4754 70.3779C68.5042 70.3775 68.5295 70.5105 68.5321 70.6749C68.5347 70.8395 68.5135 70.9731 68.4847 70.9735C68.4559 70.9739 68.4306 70.8409 68.428 70.6765C68.4254 70.5119 68.4466 70.3783 68.4754 70.3779Z" fill="#455A64"/>
<path d="M68.461 69.1865C68.4898 69.1861 68.5146 69.3193 68.5162 69.4837C68.518 69.6483 68.4962 69.7817 68.4674 69.7821C68.4386 69.7823 68.4138 69.6493 68.4122 69.4849C68.4104 69.3203 68.4322 69.1867 68.461 69.1865Z" fill="#455A64"/>
<path d="M68.4528 67.9951C68.4816 67.9949 68.5056 68.1281 68.5066 68.2925C68.5076 68.4571 68.485 68.5905 68.4562 68.5907C68.4274 68.5909 68.4034 68.4577 68.4024 68.2931C68.4014 68.1289 68.424 67.9953 68.4528 67.9951Z" fill="#455A64"/>
<path d="M68.4502 66.8037C68.479 66.8037 68.5024 66.9369 68.5026 67.1015C68.5028 67.2661 68.4796 67.3993 68.4508 67.3993C68.422 67.3993 68.3986 67.2661 68.3984 67.1015C68.3982 66.9371 68.4214 66.8037 68.4502 66.8037Z" fill="#455A64"/>
<path d="M68.4538 65.6123C68.4826 65.6123 68.5054 65.7459 68.5046 65.9103C68.504 66.0749 68.48 66.2081 68.4512 66.2079C68.4224 66.2077 68.3996 66.0743 68.4004 65.9099C68.4012 65.7455 68.425 65.6123 68.4538 65.6123Z" fill="#455A64"/>
<path d="M68.4631 64.4219C68.4919 64.4221 68.5139 64.5557 68.5125 64.7201C68.5109 64.8847 68.4865 65.0177 68.4577 65.0175C68.4289 65.0173 68.4069 64.8837 68.4083 64.7191C68.4097 64.5547 68.4343 64.4215 68.4631 64.4219Z" fill="#455A64"/>
<path d="M68.4785 63.2305C68.5073 63.2309 68.5287 63.3645 68.5263 63.5291C68.5239 63.6937 68.4987 63.8267 68.4699 63.8263C68.4411 63.8259 68.4197 63.6923 68.4221 63.5277C68.4245 63.3631 68.4497 63.2301 68.4785 63.2305Z" fill="#455A64"/>
<path d="M68.4995 62.0391C68.5283 62.0397 68.5489 62.1735 68.5459 62.3379C68.5429 62.5023 68.5171 62.6353 68.4883 62.6347C68.4595 62.6341 68.4387 62.5005 68.4417 62.3359C68.4449 62.1715 68.4707 62.0385 68.4995 62.0391Z" fill="#455A64"/>
<path d="M68.5267 60.8477C68.5555 60.8485 68.5755 60.9825 68.5715 61.1469C68.5675 61.3115 68.5409 61.4443 68.5121 61.4437C68.4833 61.4431 68.4633 61.3091 68.4673 61.1445C68.4715 60.9797 68.4981 60.8469 68.5267 60.8477Z" fill="#455A64"/>
<path d="M68.5681 59.6553C68.5969 59.6567 68.6149 59.7909 68.6083 59.9553C68.6017 60.1197 68.5731 60.2521 68.5445 60.2511C68.5157 60.2501 68.4977 60.1159 68.5043 59.9511C68.5107 59.7865 68.5393 59.6539 68.5681 59.6553Z" fill="#455A64"/>
<path d="M68.6374 58.4658C68.666 58.468 68.6806 58.6026 68.67 58.7666C68.6592 58.9306 68.6272 59.0622 68.5986 59.0606C68.5698 59.059 68.5554 58.9244 68.566 58.7598C68.5768 58.5954 68.6086 58.4638 68.6374 58.4658Z" fill="#455A64"/>
<path d="M68.7465 57.2794C68.7751 57.2826 68.7847 57.4176 68.7681 57.581C68.7515 57.7444 68.7147 57.8746 68.6861 57.872C68.6575 57.8694 68.6477 57.7344 68.6645 57.5704C68.6813 57.4064 68.7179 57.2762 68.7465 57.2794Z" fill="#455A64"/>
<path d="M68.862 56.3938C68.8904 56.398 68.904 56.4678 68.8924 56.5496C68.8808 56.6314 68.8482 56.6946 68.8198 56.6908C68.7912 56.687 68.7776 56.6172 68.7894 56.535C68.801 56.4528 68.8336 56.3896 68.862 56.3938Z" fill="#455A64"/>
<path d="M64.3623 86.213L70.0351 86.3056L69.9905 85.3604L64.3623 85.3901V86.213Z" fill="#455A64"/>
<path d="M68.082 50.7627C68.0892 50.7623 68.1008 50.8401 68.1158 50.9811C68.1308 51.1221 68.149 51.3265 68.1694 51.5791C68.2102 52.0843 68.2592 52.7827 68.307 53.5545C68.3294 53.9391 68.3506 54.3055 68.3702 54.6429C68.3902 54.9777 68.3894 55.2805 68.4738 55.5121C68.5528 55.7453 68.7142 55.8845 68.8358 55.9423C68.9606 56.0005 69.043 55.9911 69.0422 56.0015C69.0424 56.0045 69.0228 56.0097 68.9846 56.0105C68.9464 56.0117 68.889 56.0047 68.8198 55.9795C68.684 55.9295 68.4996 55.7869 68.4048 55.5377C68.3054 55.2911 68.2998 54.9799 68.2744 54.6487C68.2522 54.3115 68.2282 53.9453 68.203 53.5609C68.1552 52.7891 68.1178 52.0901 68.0958 51.5837C68.0848 51.3305 68.0778 51.1255 68.0752 50.9837C68.0728 50.8417 68.0748 50.7631 68.082 50.7627Z" fill="#455A64"/>
<path d="M68.6325 51.2371C68.6405 51.2505 68.5875 51.2859 68.5827 51.3703C68.5803 51.4105 68.5915 51.4611 68.6241 51.4925C68.6547 51.5245 68.7103 51.5327 68.7641 51.5115C68.8175 51.4893 68.8517 51.4445 68.8513 51.4003C68.8529 51.3551 68.8255 51.3111 68.7957 51.2839C68.7333 51.2267 68.6707 51.2383 68.6671 51.2231C68.6577 51.2135 68.7333 51.1627 68.8389 51.2243C68.8867 51.2539 68.9405 51.3109 68.9471 51.3977C68.9553 51.4861 68.8889 51.5753 68.8033 51.6081C68.7189 51.6443 68.6093 51.6267 68.5535 51.5575C68.4977 51.4907 68.4965 51.4123 68.5103 51.3577C68.5429 51.2401 68.6325 51.2235 68.6325 51.2371Z" fill="#455A64"/>
<path d="M73.6799 52.0842C73.6853 52.0932 73.5271 52.194 73.2343 52.254C72.9459 52.3152 72.5131 52.315 72.0917 52.127C71.6705 51.9384 71.3817 51.616 71.2349 51.3604C71.0845 51.1022 71.0541 50.9172 71.0643 50.9152C71.0813 50.909 71.1367 51.083 71.2971 51.321C71.4545 51.5578 71.7367 51.854 72.1343 52.032C72.5319 52.2094 72.9409 52.222 73.2223 52.1814C73.5067 52.1422 73.6733 52.0674 73.6799 52.0842Z" fill="#455A64"/>
<path d="M64.7595 50.7627C64.7707 50.7617 64.7939 50.9127 64.7405 51.1497C64.6895 51.3841 64.5429 51.7049 64.2603 51.9529C63.9771 52.2007 63.6399 52.3035 63.4009 52.3235C63.1587 52.3453 63.0123 52.3025 63.0147 52.2915C63.0163 52.2741 63.1631 52.2897 63.3911 52.2505C63.6173 52.2131 63.9281 52.1051 64.1917 51.8747C64.4547 51.6437 64.6027 51.3497 64.6693 51.1305C64.7383 50.9095 64.7421 50.7619 64.7595 50.7627Z" fill="#455A64"/>
<path d="M63.9632 35.2289C63.9632 35.2289 58.6192 37.4881 58.4488 37.4029C58.3032 37.3301 58.159 33.0117 58.159 33.0117H55.4932C55.4932 33.0117 54.989 39.3969 56.591 40.4195C58.7806 41.8171 64.0822 38.9081 64.0822 38.9081L63.9632 35.2289Z" fill="#FFBE9D"/>
<path d="M46.1166 27.5176L45.5674 29.9058L48.1314 30.5162C48.1314 30.5162 49.1858 30.75 50.2346 32.244C51.2832 33.738 51.6886 34.408 51.6886 34.408L53.4644 25.6318L51.536 26.9978C51.1544 27.268 50.7302 27.471 50.2812 27.6008C49.7294 27.7602 48.9956 27.9426 48.5868 27.922C47.66 27.875 46.1166 27.5176 46.1166 27.5176Z" fill="#263238"/>
<path d="M74.8857 37.7036L51.6885 34.408L53.4643 25.6318L76.0199 31.0648C76.5231 31.186 76.8479 31.6746 76.7649 32.1854L76.0015 36.8826C75.9151 37.4144 75.4191 37.7794 74.8857 37.7036Z" fill="#0085FF"/>
<path d="M44.0462 27.6298C43.9766 27.6164 43.9156 27.678 43.9298 27.7474C43.999 28.0884 44.178 28.9366 44.3122 29.2842C44.3654 29.422 45.6498 29.547 45.6498 29.547L46.0044 28.0046L44.0462 27.6298Z" fill="#0085FF"/>
<path d="M73.0235 34.6832L73.3775 33.265L58.3923 30.2236L58.0869 31.6512L73.0235 34.6832Z" fill="#263238"/>
<path d="M70.1108 34.633L66.799 34.3686C66.7784 33.9818 66.806 32.486 66.806 32.486C66.806 32.486 65.428 32.2718 65.411 30.8942C65.394 29.5166 65.6328 26.353 65.6328 26.353C67.2276 25.6676 69.0684 25.899 70.4438 26.9578L70.648 27.115L70.1108 34.633Z" fill="#FFBE9D"/>
<path d="M65.9497 28.7203C66.0315 28.6461 66.0377 28.5195 65.9635 28.4377C65.8893 28.3559 65.7627 28.3497 65.6809 28.4239C65.5991 28.4981 65.5929 28.6247 65.6671 28.7065C65.7413 28.7883 65.8677 28.7945 65.9497 28.7203Z" fill="#263238"/>
<path d="M65.6159 28.4058C65.6375 28.4296 65.7727 28.3256 65.9625 28.3246C66.1523 28.321 66.2899 28.4218 66.3109 28.3974C66.3211 28.3866 66.2997 28.3436 66.2395 28.2978C66.1805 28.2524 66.0793 28.2086 65.9609 28.21C65.8427 28.2114 65.7425 28.2576 65.6847 28.3044C65.6259 28.3516 65.6055 28.3952 65.6159 28.4058Z" fill="#263238"/>
<path d="M67.8022 28.5708C67.7082 28.6286 67.6788 28.7518 67.7366 28.846C67.7946 28.9402 67.9178 28.9694 68.0118 28.9116C68.106 28.8538 68.1354 28.7304 68.0774 28.6364C68.0196 28.5422 67.8964 28.5128 67.8022 28.5708Z" fill="#263238"/>
<path d="M67.6775 28.5728C67.6991 28.5966 67.8343 28.4926 68.0241 28.4916C68.2139 28.4878 68.3515 28.5888 68.3725 28.5644C68.3827 28.5536 68.3613 28.5106 68.3011 28.4648C68.2421 28.4194 68.1409 28.3756 68.0225 28.377C67.9043 28.3784 67.8041 28.4246 67.7463 28.4714C67.6873 28.5188 67.6669 28.5622 67.6775 28.5728Z" fill="#263238"/>
<path d="M66.9156 30.1383C66.9168 30.1235 66.7996 30.0997 66.6088 30.0733C66.5592 30.0679 66.5202 30.0567 66.5166 30.0299C66.5076 29.9999 66.527 29.9469 66.5522 29.8877C66.601 29.7623 66.6504 29.6353 66.7022 29.5021C66.9094 28.9527 67.0548 28.4991 67.027 28.4885C66.9992 28.4779 66.8086 28.9147 66.6012 29.4639C66.5522 29.5981 66.5054 29.7259 66.4592 29.8525C66.441 29.9099 66.4064 29.9769 66.432 30.0587C66.4458 30.0997 66.4848 30.1293 66.5176 30.1379C66.5504 30.1479 66.5784 30.1479 66.6022 30.1489C66.7946 30.1563 66.9144 30.1531 66.9156 30.1383Z" fill="#263238"/>
<path d="M67.5322 30.3486C67.73 30.2308 66.9878 30.6378 66.6016 30.619C66.6016 30.619 66.8232 30.973 67.2204 30.8278C67.6326 30.6768 67.5322 30.3486 67.5322 30.3486Z" fill="white"/>
<path d="M66.804 32.4665C66.804 32.4665 67.6746 32.5373 68.6 31.9561C68.6 31.9561 68.1754 32.9475 66.8008 32.8235L66.804 32.4665Z" fill="#EB996E"/>
<path d="M70.651 28.4482C70.6814 28.4388 71.6779 28.3712 71.5125 29.5328C71.3471 30.6942 70.2287 30.1432 70.2315 30.1096C70.2343 30.0758 70.651 28.4482 70.651 28.4482Z" fill="#FFBE9D"/>
<path d="M70.6451 29.752C70.6507 29.749 70.6633 29.769 70.6953 29.7896C70.7265 29.8096 70.7823 29.8282 70.8461 29.8142C70.9753 29.7866 71.1063 29.6066 71.1417 29.398C71.1597 29.2926 71.1519 29.1888 71.1263 29.1002C71.1029 29.0102 71.0565 28.943 70.9963 28.9232C70.9369 28.9002 70.8879 28.931 70.8689 28.9616C70.8487 28.9918 70.8527 29.0162 70.8463 29.0172C70.8427 29.0196 70.8241 28.9942 70.8403 28.9476C70.8485 28.9252 70.8659 28.8998 70.8963 28.8814C70.9275 28.8626 70.9701 28.857 71.0125 28.8678C71.1011 28.8868 71.1701 28.9806 71.1981 29.078C71.2311 29.1764 71.2423 29.2934 71.2221 29.4118C71.1813 29.6448 71.0303 29.8468 70.8555 29.8714C70.7707 29.881 70.7061 29.8468 70.6749 29.8142C70.6433 29.7804 70.6409 29.7536 70.6451 29.752Z" fill="#EB996E"/>
<path d="M65.636 26.313C65.9934 27.2586 67.3648 27.632 68.374 27.6882C67.9064 27.2784 68.1954 27.3634 67.9064 27.0754C68.5076 27.6046 69.5532 28.147 70.7108 28.118C70.865 27.6522 70.8226 27.1248 70.5958 26.6896C70.369 26.2546 69.961 25.9176 69.491 25.777C69.1806 25.6842 68.8516 25.675 68.536 25.6022C68.2694 25.5408 68.0132 25.4342 67.7426 25.394C66.9304 25.2736 65.613 25.0544 65.636 26.313Z" fill="#263238"/>
<path d="M70.0908 27.6045C70.1434 27.7371 70.4336 29.3015 70.4336 29.3015L70.785 27.7933L70.0908 27.6045Z" fill="#263238"/>
<path d="M79.9493 46.9418C81.0507 45.6754 81.0443 43.7892 79.9341 42.5304L74.5849 36.4648L73.1533 40.467C73.2509 40.532 77.3181 44.8922 77.3181 44.8922L73.8229 49.2482C73.2845 49.9192 73.1279 50.8194 73.4079 51.6328L74.3417 53.919L76.8987 52.772L76.7045 52.4736H74.7853L74.6713 52.0136L79.9493 46.9418Z" fill="#FFBE9D"/>
<path d="M77.416 39.0304L74.0376 35.6246L74.0372 35.6254C73.384 34.9476 72.6194 34.4462 71.7042 34.1152C71.2598 33.9544 70.788 33.8582 70.2422 33.835C69.0652 34.1988 67.888 34.1994 66.711 33.8372C66.2262 33.898 65.1548 34.0332 63.9268 34.6342V34.6338L58.8818 36.6806L60.4982 41.14L63.2028 40.2298L63.3628 44.4228L62.8286 50.697L73.2974 50.8056L73.1622 45.1148L73.1546 40.9978L74.665 42.4682L77.416 39.0304Z" fill="#455A64"/>
</svg>
