<svg width="200" height="200" viewBox="0 0 200 200" fill="none" xmlns="http://www.w3.org/2000/svg">
<g clip-path="url(#clip0_3867_48049)">
<path d="M39.4771 113.589H160.522C162.426 113.589 163.97 112.046 163.97 110.141V28.6958C163.97 26.7918 162.426 25.248 160.522 25.248H39.4771C37.5731 25.248 36.0293 26.7916 36.0293 28.6958V110.141C36.0293 112.045 37.5729 113.589 39.4771 113.589Z" fill="#B2CCCA" stroke="#323C45" stroke-opacity="0.7" stroke-width="0.508756" stroke-miterlimit="10"/>
<path d="M38.7044 114.497H161.295C162.772 114.497 163.97 113.299 163.97 111.822V33.7749H36.0293V111.822C36.0293 113.299 37.2271 114.497 38.7044 114.497Z" fill="#FFE473" stroke="#323C45" stroke-opacity="0.7" stroke-width="0.508756" stroke-miterlimit="10"/>
<path d="M66.2563 47.8477L68.8703 56.0188H68.9363L69.6172 53.4048L71.5721 47.606H75.4821V48.1991L70.1443 63.1357H67.8816L65.4216 55.7333H65.3556L62.8956 63.1357H60.7209L55.3174 48.1991V47.606H59.2934L61.2703 53.4048L61.9512 56.0188H62.0172L64.5874 47.8477C65.2021 47.8477 65.6414 47.8477 66.2563 47.8477Z" fill="#323C45" fill-opacity="0.7"/>
<path d="M87.3884 51.1209C85.104 51.1209 83.9617 51.1209 81.6991 51.1209V53.2956H86.9268C86.9268 54.4598 86.9268 55.624 86.9268 56.788H81.6991C81.6991 57.6887 81.6991 58.5671 81.6991 59.4898C83.9617 59.4898 85.2795 59.4898 87.586 59.4898C87.586 60.632 87.586 61.8182 87.586 62.9824C83.9835 62.9824 81.3477 62.9824 77.7891 62.9824C77.7891 57.8424 77.7891 52.7024 77.7891 47.6064C81.3477 47.6064 83.7857 47.6064 87.3882 47.6064C87.3884 48.7484 87.3884 49.9347 87.3884 51.1209Z" fill="#323C45" fill-opacity="0.7"/>
<path d="M105.884 61.0491H99.8218L98.9214 62.982H95.0771V62.4109L101.996 47.4082H103.688L110.629 62.4109V62.982H106.785L105.884 61.0491ZM102.831 53.6466L101.096 57.6882H104.61L102.831 53.6466Z" fill="#323C45" fill-opacity="0.7"/>
<path d="M125.633 62.4108V62.982H121.239L118.604 58.4571H116.561V62.982C115.243 62.982 113.903 62.982 112.629 62.982C112.629 57.864 112.629 52.746 112.629 47.606C114.847 47.606 117.132 47.606 119.372 47.606C125.413 47.628 126.512 54.8986 122.624 57.5344L125.633 62.4108ZM119.372 51.1206C118.45 51.0986 117.483 51.1206 116.561 51.1206C116.561 52.3726 116.561 53.7346 116.561 54.9646H119.372C121.503 54.9644 121.613 51.1424 119.372 51.1206Z" fill="#323C45" fill-opacity="0.7"/>
<path d="M137.604 51.1209C135.32 51.1209 134.178 51.1209 131.915 51.1209V53.2956H137.143C137.143 54.4598 137.143 55.624 137.143 56.788H131.915C131.915 57.6887 131.915 58.5671 131.915 59.4898C134.178 59.4898 135.495 59.4898 137.802 59.4898C137.802 60.632 137.802 61.8182 137.802 62.9824C134.199 62.9824 131.564 62.9824 128.005 62.9824C128.005 57.8424 128.005 52.7024 128.005 47.6064C131.564 47.6064 134.002 47.6064 137.604 47.6064C137.604 48.7484 137.604 49.9347 137.604 51.1209Z" fill="#323C45" fill-opacity="0.7"/>
<path d="M66.8711 88.8982C65.5314 88.8982 64.1911 88.8982 62.8514 88.8982V82.726H58.1067V88.8982C56.7667 88.8982 55.4049 88.8982 54.0869 88.8982V73.5225C55.4049 73.5225 56.7667 73.5225 58.1067 73.5225V79.1016H62.8514V73.5225C64.1911 73.5225 65.5314 73.5225 66.8711 73.5225V88.8982Z" fill="#323C45" fill-opacity="0.7"/>
<path d="M77.3271 85.4493V88.898H69.5293V85.4493H71.4842V76.9486H69.6831V73.522H77.1735V76.9486H75.3724V85.4493H77.3271Z" fill="#323C45" fill-opacity="0.7"/>
<path d="M92.8798 88.3269V88.8978H88.4864L85.8506 84.3729H83.8078V88.8978C82.4898 88.8978 81.15 88.8978 79.876 88.8978C79.876 83.7798 79.876 78.6618 79.876 73.522C82.0944 73.522 84.3791 73.522 86.6195 73.522C92.6604 73.544 93.7586 80.8144 89.8706 83.4504L92.8798 88.3269ZM86.6193 77.0366C85.6969 77.0146 84.7304 77.0366 83.8078 77.0366C83.8078 78.2886 83.8078 79.6504 83.8078 80.8804H86.6193C88.7502 80.8804 88.86 77.0584 86.6193 77.0366Z" fill="#323C45" fill-opacity="0.7"/>
<path d="M101.776 85.4493V88.898H93.9785V85.4493H95.9334V76.9486H94.1323V73.522H101.623V76.9486H99.8216V85.4493H101.776Z" fill="#323C45" fill-opacity="0.7"/>
<path d="M108.41 81.3416V88.8978C107.048 88.8978 105.687 88.8978 104.347 88.8978V73.4561H105.775L113.55 81.0563V73.5221C114.89 73.5221 116.23 73.5221 117.57 73.5221V88.9198H116.164L108.41 81.3416Z" fill="#323C45" fill-opacity="0.7"/>
<path d="M128.423 73.3247C131.52 73.3467 134.749 74.95 135.496 78.772H131.63C130.993 77.4543 129.982 76.9272 128.423 76.9272C125.941 76.9272 124.601 78.86 124.601 81.2103C124.601 83.7583 126.094 85.4278 128.423 85.4278C130.004 85.4278 131.015 85.0105 131.718 83.5387H128.445V80.134H135.716C135.803 81.6716 135.803 83.1434 135.276 84.6372C134.178 87.8443 131.256 89.0743 128.423 89.0743C124.513 89.0743 120.559 86.4603 120.537 81.2105C120.559 75.9607 124.513 73.3247 128.423 73.3247Z" fill="#323C45" fill-opacity="0.7"/>
<path d="M138.571 73.1929H142.965L142.723 84.1975H138.901L138.571 73.1929ZM138.659 86.7898C138.659 85.5598 139.604 84.7689 140.812 84.7689C142.02 84.7689 142.965 85.5598 142.965 86.7898C142.965 87.9978 142.02 88.7886 140.812 88.7886C139.604 88.7884 138.659 87.9978 138.659 86.7898Z" fill="#323C45" fill-opacity="0.7"/>
<path d="M62.6562 29.4507H143.768" stroke="white" stroke-width="3.77778" stroke-miterlimit="10" stroke-linecap="round"/>
<path d="M149.322 29.4507H159.841" stroke="white" stroke-width="3.77778" stroke-miterlimit="10" stroke-linecap="round"/>
<g opacity="0.15">
<path d="M84.3997 126.225C83.2269 126.237 82.0406 125.882 81.0251 125.131C78.5475 123.298 77.6762 119.917 79.5084 117.439L93.7486 98.5403C96.8124 94.3954 102.436 92.9536 107.118 95.1085L112.766 97.7092C116.585 99.4676 119.083 103.321 119.128 107.526L119.198 114.497C119.198 114.497 116.83 114.464 113.748 114.497C110.667 114.531 108.072 117.169 108.039 114.088L107.97 107.788L102.614 105.321L88.8297 123.962C87.7486 125.424 86.0884 126.206 84.3997 126.225Z" fill="#323C45" fill-opacity="0.7"/>
</g>
<path d="M79.3587 125.837C78.1858 125.849 76.9996 125.494 75.9841 124.743C73.5065 122.91 72.6352 119.529 74.4674 117.051L88.7076 98.1526C91.7714 94.0077 97.3947 92.5659 102.077 94.7208L107.725 97.3215C111.544 99.0799 114.042 102.933 114.087 107.138L114.157 113.579C114.191 116.66 111.72 119.185 108.638 119.219C105.557 119.253 103.031 116.781 102.998 113.7L102.929 107.4L97.5734 104.934L83.7887 123.575C82.7074 125.036 81.0474 125.818 79.3587 125.837Z" fill="#FCD3B6" stroke="#323C45" stroke-opacity="0.7" stroke-width="0.508756" stroke-miterlimit="10" stroke-linecap="round"/>
<path opacity="0.13" d="M87.043 113.374L97.0428 101.417L105.221 105.801L107.57 112.045L102.986 109.388L102.929 107.4L97.3081 105.292L94.6825 109.782L87.043 113.374Z" fill="#323C45" fill-opacity="0.7"/>
<path d="M113.048 114.682V108.619" stroke="#FFEEE3" stroke-width="2.03498" stroke-miterlimit="10" stroke-linecap="round"/>
<path d="M114.088 107.138V115.911" stroke="#323C45" stroke-opacity="0.7" stroke-width="0.508756" stroke-miterlimit="10" stroke-linecap="round"/>
<path d="M111.748 158.109C111.339 158.974 111.03 159.445 111.03 159.445V169.436H81.5793V160.634L73.0615 122.163C73.0615 122.163 82.166 115.207 83.5726 115.365C89.5415 116.038 101.655 126.209 108.288 135.027C110.151 137.5 111.58 139.869 112.322 141.889C115.072 149.392 112.97 155.516 111.748 158.109Z" fill="#FCD3B6" stroke="#323C45" stroke-opacity="0.7" stroke-width="0.508756" stroke-miterlimit="10" stroke-linecap="round"/>
<path d="M73.3578 122.969C72.0547 120.176 73.2618 116.856 76.0545 115.553L95.9643 106.262C101.755 103.558 108.659 105.621 112.02 111.059L115.776 117.14C117.396 119.761 116.584 123.2 113.962 124.82C111.342 126.44 107.901 125.628 106.282 123.005L102.526 116.925C102.14 116.302 101.349 116.065 100.683 116.375L92.7174 120.093" fill="#FCD3B6"/>
<path d="M73.3578 122.969C72.0547 120.176 73.2618 116.856 76.0545 115.553L95.9643 106.262C101.755 103.558 108.659 105.621 112.02 111.059L115.776 117.14C117.396 119.761 116.584 123.2 113.962 124.82C111.342 126.44 107.901 125.628 106.282 123.005L102.526 116.925C102.14 116.302 101.349 116.065 100.683 116.375L92.7174 120.093" stroke="#323C45" stroke-opacity="0.7" stroke-width="0.508756" stroke-miterlimit="10" stroke-linecap="round"/>
<path opacity="0.13" d="M83.3516 119.919L101.609 112.585C105.31 111.099 109.524 111.714 112.645 114.197L116.066 116.92C116.066 116.92 117.813 121.697 115.048 124.658C112.283 127.618 83.3516 119.919 83.3516 119.919Z" fill="#323C45" fill-opacity="0.7"/>
<path opacity="0.13" d="M111.748 158.109L106.11 154.491C99.4171 150.462 98.4485 145.247 97.1016 139.356L106.955 136.634C106.955 136.634 107.479 135.918 108.288 135.027C110.151 137.5 111.58 139.869 112.322 141.889C115.073 149.391 112.97 155.516 111.748 158.109Z" fill="#323C45" fill-opacity="0.7"/>
<path d="M77.5655 127.192C76.7544 124.219 79.0042 121.089 81.9775 120.278L102.61 114.898C105.644 114.071 108.921 114.536 111.605 116.174C114.288 117.811 116.2 120.514 116.852 123.59L117.95 128.776C118.589 131.791 116.662 134.753 113.648 135.392C113.258 135.474 112.869 135.514 112.486 135.514C109.906 135.514 107.588 133.714 107.032 131.089L105.933 125.902C105.926 125.866 105.906 125.77 105.791 125.7C105.675 125.63 105.582 125.656 105.546 125.665L87.2589 130.653" fill="#FCD3B6"/>
<path d="M77.5655 127.192C76.7544 124.219 79.0042 121.089 81.9775 120.278L102.61 114.898C105.644 114.071 108.921 114.536 111.605 116.174C114.288 117.811 116.2 120.514 116.852 123.59L117.95 128.776C118.589 131.791 116.662 134.753 113.648 135.392C113.258 135.474 112.869 135.514 112.486 135.514C109.906 135.514 107.588 133.714 107.032 131.089L105.933 125.902C105.926 125.866 105.906 125.77 105.791 125.7C105.675 125.63 105.582 125.656 105.546 125.665L87.2589 130.653" stroke="#323C45" stroke-opacity="0.7" stroke-width="0.508756" stroke-miterlimit="10" stroke-linecap="round"/>
<path opacity="0.13" d="M88.2412 129.891L104.043 123.075C107.331 121.657 111.123 122.077 114.02 124.181L117.515 126.719C117.515 126.719 119.261 131.496 116.496 134.457C113.731 137.417 88.2412 129.891 88.2412 129.891Z" fill="#323C45" fill-opacity="0.7"/>
<path d="M97.3085 139.348L99.9205 138.564C99.035 140.177 98.9654 142.194 99.9127 143.929C101.007 145.932 103.151 146.998 105.289 146.815C106.037 146.751 106.784 146.534 107.485 146.151L111.35 144.04C114.812 142.149 116.832 138.387 116.496 134.456C116.239 131.456 114.663 128.765 112.173 127.072C109.682 125.38 106.599 124.905 103.716 125.772L89.0407 129.617C85.8143 130.463 83.9552 133.84 84.9665 137.018" fill="#FCD3B6"/>
<path opacity="0.13" d="M72.833 120.788L84.9663 137.018L89.4172 161.715V169.436H81.5786V160.994L72.833 120.788Z" fill="#323C45" fill-opacity="0.7"/>
<path d="M99.9199 138.564L106.954 136.634" stroke="#323C45" stroke-opacity="0.7" stroke-width="0.508756" stroke-miterlimit="10" stroke-linecap="round"/>
<path opacity="0.13" d="M99.417 142.684L105.738 140.819C107.548 140.284 108.196 138.055 106.955 136.634L99.417 138.715V142.684Z" fill="#323C45" fill-opacity="0.7"/>
<path d="M97.5736 104.934L97.043 101.417" stroke="#323C45" stroke-opacity="0.7" stroke-width="0.508756" stroke-miterlimit="10" stroke-linecap="round"/>
<path d="M105.233 145.941L110.306 143.32" stroke="#FFEEE3" stroke-width="2.03498" stroke-miterlimit="10" stroke-linecap="round"/>
<path d="M97.3085 139.348L99.9205 138.564C99.035 140.177 98.9654 142.194 99.9127 143.929C101.007 145.932 103.151 146.998 105.289 146.815C106.037 146.751 106.784 146.534 107.485 146.151L111.35 144.04C114.812 142.149 116.832 138.387 116.496 134.456C116.239 131.456 114.663 128.765 112.173 127.072C109.682 125.38 106.599 124.905 103.716 125.772L89.0407 129.617C85.8143 130.463 83.9552 133.84 84.9665 137.018" stroke="#323C45" stroke-opacity="0.7" stroke-width="0.508756" stroke-miterlimit="10" stroke-linecap="round"/>
<path d="M114.285 167.944H78.8779V177.6H114.285V167.944Z" fill="white" stroke="#323C45" stroke-opacity="0.7" stroke-width="0.508756" stroke-miterlimit="10" stroke-linecap="round"/>
<path d="M117.19 174.458H76.1113V200H117.19V174.458Z" fill="#E25959" stroke="#323C45" stroke-opacity="0.7" stroke-width="0.508756" stroke-miterlimit="10" stroke-linecap="round"/>
<path d="M112.136 182.427C112.985 182.427 113.674 181.738 113.674 180.889C113.674 180.04 112.985 179.352 112.136 179.352C111.287 179.352 110.599 180.04 110.599 180.889C110.599 181.738 111.287 182.427 112.136 182.427Z" fill="#323C45" fill-opacity="0.7"/>
<path opacity="0.13" d="M87.0431 174.458H76.1113V200H87.0431V174.458Z" fill="#323C45" fill-opacity="0.7"/>
<path opacity="0.13" d="M89.4173 167.944H78.8779V174.458H89.4173V167.944Z" fill="#323C45" fill-opacity="0.7"/>
<path d="M111.006 160.994V156.814C111.006 156.814 111.896 149.764 107.572 146.835C102.234 143.22 99.8972 138.564 99.8972 138.564C99.8972 138.564 95.4579 138.497 95.2034 138.564C94.949 138.63 94.4792 141.592 94.8732 144.213C95.267 146.834 97.3445 152.558 98.1499 153.321C98.9554 154.084 102.517 157.645 103.916 158.281C105.315 158.917 111.006 160.994 111.006 160.994Z" fill="#FCD3B6"/>
<path d="M99.9199 138.564C99.9199 138.564 102.361 140.596 106.963 145.112C115.389 153.381 111.029 163.764 111.029 163.764V167.944" fill="#FCD3B6"/>
<path d="M99.9199 138.564C99.9199 138.564 102.361 140.596 106.963 145.112C115.389 153.381 111.029 163.764 111.029 163.764V167.944" stroke="#323C45" stroke-opacity="0.7" stroke-width="0.508756" stroke-miterlimit="10" stroke-linecap="round"/>
<path d="M102.122 137.968L97.8633 139.161" stroke="#323C45" stroke-opacity="0.7" stroke-width="0.508756" stroke-miterlimit="10" stroke-linecap="round"/>
<path d="M63.5449 29.4507H99.9896" stroke="#323C45" stroke-opacity="0.7" stroke-width="0.508756" stroke-miterlimit="10" stroke-linecap="round"/>
<path d="M149.693 29.4507H159.173" stroke="#323C45" stroke-opacity="0.7" stroke-width="0.508756" stroke-miterlimit="10" stroke-linecap="round"/>
<path d="M40.9704 31.4965C42.0943 31.4965 43.0053 30.5855 43.0053 29.4616C43.0053 28.3378 42.0943 27.4268 40.9704 27.4268C39.8466 27.4268 38.9355 28.3378 38.9355 29.4616C38.9355 30.5855 39.8466 31.4965 40.9704 31.4965Z" fill="#FF5C5C" stroke="#323C45" stroke-opacity="0.7" stroke-width="0.508756" stroke-miterlimit="10"/>
<path d="M47.5847 31.4965C48.7085 31.4965 49.6196 30.5855 49.6196 29.4616C49.6196 28.3378 48.7085 27.4268 47.5847 27.4268C46.4609 27.4268 45.5498 28.3378 45.5498 29.4616C45.5498 30.5855 46.4609 31.4965 47.5847 31.4965Z" fill="#FFD671" stroke="#323C45" stroke-opacity="0.7" stroke-width="0.508756" stroke-miterlimit="10"/>
<path d="M54.199 31.4965C55.3228 31.4965 56.2338 30.5855 56.2338 29.4616C56.2338 28.3378 55.3228 27.4268 54.199 27.4268C53.0751 27.4268 52.1641 28.3378 52.1641 29.4616C52.1641 30.5855 53.0751 31.4965 54.199 31.4965Z" fill="#79E017" stroke="#323C45" stroke-opacity="0.7" stroke-width="0.508756" stroke-miterlimit="10"/>
</g>
<defs>
<clipPath id="clip0_3867_48049">
<rect width="200" height="200" fill="white"/>
</clipPath>
</defs>
</svg>
