<svg width="251" height="190" viewBox="0 0 251 190" fill="none" xmlns="http://www.w3.org/2000/svg">
<mask id="mask0_1316_11358" style="mask-type:luminance" maskUnits="userSpaceOnUse" x="0" y="0" width="251" height="190">
<path d="M251 0H0V189.292H251V0Z" fill="white"/>
</mask>
<g mask="url(#mask0_1316_11358)">
<path d="M-7.39196 195.43L-7.92773 194.661L-6.44279 193.627L-5.90734 194.396L-7.39196 195.43ZM-4.42207 193.362L-4.95751 192.593L-3.47289 191.558L-2.93712 192.328L-4.42207 193.362ZM-1.45249 191.293L-1.98826 190.524L-0.503316 189.49L0.0321341 190.259L-1.45249 191.293ZM1.51708 189.225L0.981633 188.456L2.46658 187.421L3.00203 188.19L1.51708 189.225ZM4.48698 187.157L3.95153 186.388L5.43616 185.353L5.97193 186.122L4.48698 187.157ZM7.45655 185.088L6.9211 184.319L8.40573 183.285L8.94118 184.054L7.45655 185.088ZM10.4265 183.02L9.89067 182.251L11.3756 181.216L11.9114 181.985L10.4265 183.02ZM13.396 180.951L12.8606 180.182L14.3452 179.148L14.881 179.917L13.396 180.951ZM16.3659 178.883L15.8305 178.114L17.3154 177.08L17.8509 177.849L16.3659 178.883ZM19.3355 176.815L18.7997 176.046L20.2847 175.012L20.8201 175.781L19.3355 176.815ZM22.3051 174.746L21.7696 173.978L23.2542 172.944L23.79 173.712L22.3051 174.746ZM25.275 172.678L24.7395 171.909L26.2241 170.875L26.7599 171.644L25.275 172.678ZM28.2445 170.61L27.7091 169.841L29.194 168.807L29.7295 169.575L28.2445 170.61ZM31.2144 168.541L30.679 167.773L32.1636 166.739L32.6994 167.507L31.2144 168.541ZM34.184 166.473L33.6482 165.704L35.1332 164.67L35.6686 165.439L34.184 166.473ZM37.1536 164.405L36.6181 163.636L38.1031 162.602L38.6385 163.371L37.1536 164.405ZM40.1235 162.337L39.5877 161.568L41.0723 160.533L41.6081 161.302L40.1235 162.337ZM43.093 160.268L42.5576 159.499L44.0425 158.465L44.578 159.234L43.093 160.268ZM46.0629 158.2L45.5275 157.431L47.0124 156.397L47.5479 157.166L46.0629 158.2ZM49.0325 156.132L48.4967 155.363L49.9817 154.328L50.5171 155.097L49.0325 156.132ZM52.0024 154.063L51.467 153.294L52.9516 152.26L53.4874 153.029L52.0024 154.063ZM54.972 151.995L54.4365 151.226L55.9212 150.192L56.4569 150.961L54.972 151.995ZM57.9416 149.926L57.4061 149.158L58.8911 148.123L59.4265 148.892L57.9416 149.926ZM60.9115 147.858L60.376 147.09L61.8606 146.056L62.3961 146.824L60.9115 147.858ZM63.881 145.79L63.3453 145.021L64.8302 143.987L65.3657 144.756L63.881 145.79ZM66.8509 143.721L66.3155 142.953L67.8004 141.919L68.3359 142.687L66.8509 143.721ZM69.8208 141.653L69.2851 140.884L70.77 139.85L71.3055 140.619L69.8208 141.653ZM72.7901 139.585L72.2546 138.816L73.7396 137.782L74.275 138.551L72.7901 139.585ZM75.76 137.517L75.2245 136.748L76.7092 135.714L77.2446 136.483L75.76 137.517ZM78.7299 135.448L78.1941 134.679L79.679 133.645L80.2145 134.414L78.7299 135.448ZM81.6994 133.38L81.1637 132.611L82.6486 131.577L83.1841 132.346L81.6994 133.38ZM84.6693 131.312L84.1339 130.543L85.6185 129.508L86.1543 130.277L84.6693 131.312ZM120.458 129.98L119.307 128.583L120.031 127.988L121.181 129.384L120.458 129.98ZM122.531 129.435L122.012 128.655L123.519 127.653L124.038 128.433L122.531 129.435ZM87.6389 129.243L87.1035 128.474L88.5884 127.44L89.1239 128.209L87.6389 129.243ZM125.544 127.431L125.025 126.651L126.532 125.649L127.051 126.429L125.544 127.431ZM118.157 127.186L117.007 125.789L117.731 125.194L118.881 126.591L118.157 127.186ZM90.6085 127.175L90.0727 126.406L91.5577 125.372L92.0931 126.141L90.6085 127.175ZM128.558 125.427L128.039 124.647L129.546 123.645L130.065 124.425L128.558 125.427ZM93.5784 125.107L93.0426 124.338L94.5276 123.304L95.063 124.073L93.5784 125.107ZM115.857 124.392L114.707 122.995L115.43 122.4L116.58 123.797L115.857 124.392ZM131.572 123.423L131.053 122.643L132.56 121.641L133.079 122.421L131.572 123.423ZM96.548 123.038L96.0125 122.269L97.4975 121.235L98.0329 122.004L96.548 123.038ZM113.557 121.598L112.407 120.201L113.13 119.606L114.281 121.002L113.557 121.598ZM134.585 121.419L134.066 120.639L135.573 119.637L136.092 120.417L134.585 121.419ZM99.5179 120.97L98.9824 120.201L100.467 119.167L101.003 119.936L99.5179 120.97ZM137.599 119.415L137.08 118.635L138.586 117.633L139.105 118.413L137.599 119.415ZM102.487 118.901L101.952 118.133L103.437 117.099L103.972 117.867L102.487 118.901ZM111.257 118.804L110.106 117.407L110.83 116.812L111.98 118.209L111.257 118.804ZM140.612 117.411L140.093 116.631L141.6 115.629L142.119 116.409L140.612 117.411ZM105.457 116.833L104.922 116.064L106.407 115.03L106.943 115.799L105.457 116.833ZM176.728 116.796L175.578 115.399L176.301 114.803L177.452 116.2L176.728 116.796ZM178.832 116.043L178.312 115.263L179.818 114.259L180.338 115.039L178.832 116.043ZM108.957 116.01L107.837 114.651L108.161 114.383L107.891 113.996L108.286 113.721L109.68 115.415L108.957 116.01ZM143.625 115.407L143.107 114.627L144.613 113.625L145.132 114.405L143.625 115.407ZM181.844 114.036L181.324 113.256L182.83 112.252L183.35 113.032L181.844 114.036ZM174.428 114.002L173.278 112.605L174.001 112.009L175.151 113.406L174.428 114.002ZM146.639 113.403L146.12 112.622L147.627 111.62L148.146 112.401L146.639 113.403ZM184.855 112.029L184.336 111.249L185.841 110.246L186.361 111.026L184.855 112.029ZM149.652 111.399L149.133 110.618L150.64 109.617L151.159 110.397L149.652 111.399ZM172.128 111.208L170.978 109.811L171.701 109.215L172.851 110.612L172.128 111.208ZM187.867 110.022L187.348 109.242L188.853 108.239L189.373 109.019L187.867 110.022ZM152.666 109.395L152.147 108.615L153.654 107.613L154.173 108.393L152.666 109.395ZM169.828 108.414L168.678 107.017L169.401 106.421L170.551 107.818L169.828 108.414ZM190.879 108.015L190.359 107.235L191.865 106.232L192.385 107.012L190.879 108.015ZM155.679 107.391L155.16 106.61L156.667 105.608L157.186 106.388L155.679 107.391ZM193.89 106.008L193.371 105.228L194.877 104.225L195.396 105.005L193.89 106.008ZM167.527 105.62L166.377 104.223L167.101 103.627L168.251 105.024L167.527 105.62ZM158.692 105.387L158.174 104.606L159.68 103.604L160.199 104.384L158.692 105.387ZM196.902 104.002L196.382 103.222L197.888 102.218L198.408 102.998L196.902 104.002ZM161.706 103.382L161.187 102.602L162.694 101.6L163.213 102.38L161.706 103.382ZM165.227 102.826L164.077 101.429L164.801 100.833L165.951 102.23L165.227 102.826ZM199.914 101.995L199.394 101.215L200.899 100.211L201.419 100.991L199.914 101.995ZM202.925 99.9878L202.406 99.2083L203.911 98.2047L204.431 98.9846L202.925 99.9878ZM205.937 97.981L205.417 97.2012L206.923 96.1979L207.443 96.9778L205.937 97.981ZM208.948 95.9742L208.429 95.1944L209.934 94.1908L210.454 94.9707L208.948 95.9742ZM211.96 93.9674L211.44 93.1876L212.946 92.184L213.465 92.9639L211.96 93.9674ZM214.972 91.9606L214.452 91.1807L215.958 90.1772L216.478 90.9571L214.972 91.9606ZM217.983 89.9538L217.464 89.1739L218.969 88.1707L219.489 88.9506L217.983 89.9538ZM220.995 87.947L220.475 87.1672L221.981 86.1636L222.501 86.9435L220.995 87.947ZM224.007 85.9402L223.487 85.1604L224.992 84.1568L225.512 84.9367L224.007 85.9402ZM227.018 83.9331L226.498 83.1532L228.004 82.1497L228.524 82.9295L227.018 83.9331Z" fill="#0085FF"/>
<path d="M-29.7613 106.849L-30.2803 106.069L-28.9423 105.179L-28.4234 105.959L-29.7613 106.849ZM-27.0851 105.069L-27.604 104.289L-26.266 103.399L-25.7471 104.18L-27.0851 105.069ZM-24.4091 103.29L-24.928 102.509L-23.5901 101.619L-23.0708 102.4L-24.4091 103.29ZM-21.7332 101.51L-22.2521 100.73L-20.9141 99.8396L-20.3952 100.62L-21.7332 101.51ZM-19.0569 99.7302L-19.5758 98.95L-18.2379 98.0601L-17.7189 98.8403L-19.0569 99.7302ZM-16.3809 97.9507L-16.8999 97.1705L-15.5619 96.2805L-15.0433 97.0607L-16.3809 97.9507ZM-13.705 96.1711L-14.2239 95.3909L-12.8859 94.501L-12.367 95.2812L-13.705 96.1711ZM-11.029 94.3916L-11.5483 93.6111L-10.21 92.7211L-9.69138 93.5013L-11.029 94.3916ZM-8.35276 92.6117L-8.8717 91.8315L-7.53372 90.9416L-7.01446 91.7218L-8.35276 92.6117ZM-5.67681 90.8318L-6.19543 90.0516L-4.85745 89.1617L-4.33851 89.9419L-5.67681 90.8318ZM-3.00086 89.0523L-3.5198 88.2721L-2.18182 87.3822L-1.66288 88.1627L-3.00086 89.0523ZM-0.324909 87.2727L-0.843847 86.4922L0.494129 85.6023L1.01307 86.3828L-0.324909 87.2727ZM2.35104 85.4929L1.8321 84.7127L3.17008 83.8228L3.68902 84.6029L2.35104 85.4929ZM5.02732 83.7133L4.50805 82.9332L5.84635 82.0432L6.36529 82.8234L5.02732 83.7133ZM7.70327 81.9338L7.18433 81.1536L8.5223 80.2637L9.04156 81.0442L7.70327 81.9338ZM10.3792 80.1543L9.86028 79.3737L11.1983 78.4838L11.7172 79.264L10.3792 80.1543ZM13.0555 78.3744L12.5366 77.5942L13.8745 76.7043L14.3935 77.4845L13.0555 78.3744ZM15.7314 76.5945L15.2125 75.8143L16.5505 74.9244L17.0694 75.7046L15.7314 76.5945ZM18.4074 74.815L17.8881 74.0348L19.2264 73.1449L19.7454 73.9254L18.4074 74.815ZM21.0833 73.0354L20.5644 72.2549L21.9024 71.365L22.4213 72.1452L21.0833 73.0354ZM23.7596 71.2556L23.2407 70.4754L24.5787 69.5855L25.0979 70.3656L23.7596 71.2556ZM26.4356 69.476L25.9163 68.6958L27.2546 67.8059L27.7735 68.5861L26.4356 69.476Z" fill="#C60022"/>
<path d="M29.6698 67.779L29.4283 67.4857L29.1117 67.6964L28.5928 66.9159L29.6138 66.2371L30.3934 67.1837L29.6698 67.779Z" fill="#C60022"/>
<path d="M40.3738 80.7811L39.3032 79.4807L40.0267 78.885L41.097 80.1854L40.3738 80.7811ZM38.233 78.1806L37.1624 76.8805L37.8859 76.2848L38.9562 77.5849L38.233 78.1806ZM36.0921 75.5804L35.0216 74.2799L35.7448 73.6846L36.8153 74.9847L36.0921 75.5804ZM33.9513 72.9798L32.8811 71.6797L33.6046 71.0841L34.6748 72.3842L33.9513 72.9798ZM31.8108 70.3796L30.7402 69.0795L31.4634 68.4839L32.534 69.784L31.8108 70.3796Z" fill="#C60022"/>
<path d="M42.2239 83.0276L41.4443 82.081L42.1679 81.4854L42.4097 81.779L42.726 81.5682L43.2449 82.3487L42.2239 83.0276Z" fill="#C60022"/>
<path d="M44.6 81.4469L44.0811 80.6664L45.4372 79.7645L45.9561 80.545L44.6 81.4469ZM47.3122 79.6431L46.7933 78.8626L48.149 77.9607L48.6683 78.7409L47.3122 79.6431ZM50.0244 77.8396L49.5055 77.0594L50.8616 76.1575L51.3805 76.9377L50.0244 77.8396ZM52.7366 76.0358L52.2177 75.2556L53.5738 74.3537L54.0924 75.1339L52.7366 76.0358ZM55.4488 74.2323L54.9296 73.4521L56.2857 72.5502L56.8046 73.3304L55.4488 74.2323ZM58.1607 72.4285L57.6418 71.6483L58.9979 70.7464L59.5168 71.5266L58.1607 72.4285ZM60.8729 70.6246L60.354 69.8445L61.7101 68.9425L62.2294 69.7227L60.8729 70.6246ZM63.5851 68.8211L63.0662 68.041L64.4223 67.1391L64.9412 67.9192L63.5851 68.8211ZM66.2973 67.0173L65.7784 66.2371L67.1345 65.3352L67.6534 66.1154L66.2973 67.0173ZM69.0095 65.2138L68.4906 64.4336L69.8467 63.5317L70.3657 64.3119L69.0095 65.2138ZM71.7218 63.41L71.2028 62.6295L72.5589 61.7276L73.0779 62.5078L71.7218 63.41ZM74.434 61.6065L73.915 60.826L75.2708 59.9241L75.7901 60.7043L74.434 61.6065ZM77.1458 59.8027L76.6269 59.0222L77.983 58.1203L78.5019 58.9008L77.1458 59.8027ZM79.8584 57.9989L79.3394 57.2187L80.6955 56.3168L81.2145 57.0973L79.8584 57.9989ZM82.5706 56.1954L82.0516 55.4152L83.4077 54.5129L83.9267 55.2935L82.5706 56.1954Z" fill="#C60022"/>
<path d="M85.8414 54.4746L85.5999 54.1813L85.2833 54.3917L84.7646 53.6116L85.7854 52.9324L86.5649 53.879L85.8414 54.4746Z" fill="#C60022"/>
<path d="M96.5457 67.4762L95.4751 66.1761L96.1986 65.5804L97.2692 66.8805L96.5457 67.4762ZM94.4048 64.876L93.3343 63.5759L94.0578 62.9802L95.128 64.2803L94.4048 64.876ZM92.264 62.2754L91.1938 60.9753L91.917 60.3797L92.9875 61.6798L92.264 62.2754ZM90.1232 59.6752L89.0526 58.3751L89.7761 57.7795L90.8464 59.0796L90.1232 59.6752ZM87.9824 57.075L86.9121 55.7746L87.6353 55.179L88.7056 56.4791L87.9824 57.075Z" fill="#C60022"/>
<path d="M98.3954 69.7241L97.6152 68.7766L98.3384 68.1809L98.5793 68.4732L98.8943 68.2628L99.4155 69.0414L98.3954 69.7241Z" fill="#C60022"/>
<path d="M100.772 68.1342L100.251 67.3553L101.607 66.4482L102.128 67.2271L100.772 68.1342ZM103.484 66.3197L102.964 65.5408L104.32 64.6334L104.841 65.4123L103.484 66.3197ZM106.197 64.5052L105.675 63.7263L107.031 62.8189L107.552 63.5978L106.197 64.5052ZM108.908 62.6907L108.388 61.9118L109.743 61.0044L110.265 61.7833L108.908 62.6907ZM111.62 60.8762L111.099 60.0973L112.456 59.1899L112.976 59.9688L111.62 60.8762ZM114.333 59.0617L113.812 58.2828L115.168 57.3757L115.689 58.1543L114.333 59.0617ZM117.045 57.2472L116.524 56.4683L117.88 55.5612L118.401 56.3401L117.045 57.2472ZM119.757 55.4324L119.235 54.6535L120.592 53.7464L121.113 54.525L119.757 55.4324ZM122.469 53.6179L121.948 52.839L123.304 51.9315L123.825 52.7104L122.469 53.6179ZM125.18 51.8034L124.66 51.0245L126.016 50.1174L126.537 50.8959L125.18 51.8034ZM127.893 49.9888L127.372 49.21L128.728 48.3025L129.248 49.0814L127.893 49.9888ZM130.605 48.1743L130.084 47.3955L131.44 46.4884L131.961 47.2669L130.605 48.1743ZM133.317 46.3598L132.796 45.5809L134.152 44.6738L134.673 45.4527L133.317 46.3598ZM136.029 44.5453L135.508 43.7664L136.864 42.8594L137.385 43.6382L136.029 44.5453ZM138.741 42.7308L138.22 41.9519L139.576 41.0448L140.097 41.8237L138.741 42.7308ZM141.453 40.9163L140.932 40.1374L142.288 39.2303L142.809 40.0092L141.453 40.9163ZM144.165 39.1018L143.644 38.3229L145 37.4155L145.521 38.1944L144.165 39.1018ZM146.877 37.2873L146.356 36.5084L147.712 35.6013L148.233 36.3799L146.877 37.2873ZM149.589 35.4728L149.068 34.6939L150.424 33.7868L150.945 34.5657L149.589 35.4728ZM152.301 33.6583L151.78 32.8794L153.136 31.972L153.657 32.7509L152.301 33.6583ZM155.013 31.8438L154.493 31.0649L155.848 30.1578L156.369 30.9367L155.013 31.8438ZM157.725 30.0293L157.204 29.2504L158.56 28.343L159.081 29.1219L157.725 30.0293ZM160.438 28.2148L159.917 27.4359L161.273 26.5288L161.794 27.3074L160.438 28.2148ZM163.149 26.4003L162.629 25.6214L163.985 24.7143L164.506 25.4929L163.149 26.4003ZM165.861 24.5858L165.34 23.8069L166.696 22.8998L167.217 23.6784L165.861 24.5858ZM168.574 22.7713L168.052 21.9924L169.408 21.085L169.93 21.8639L168.574 22.7713Z" fill="#C60022"/>
<path d="M171.429 19.7347L170.762 20.1814L171.283 20.96L171.95 20.5134L171.429 19.7347Z" fill="#C60022"/>
<path d="M171.17 20.3248L168.954 16.8946L173.033 16.6903L177.111 16.4863L175.249 20.1205L173.387 23.7547L171.17 20.3248Z" fill="#C60022"/>
<path d="M-21.7815 187.786L-22.3027 187.007L-20.9466 186.1L-20.4254 186.879L-21.7815 187.786ZM-19.0696 185.971L-19.5909 185.192L-18.2351 184.285L-17.7139 185.064L-19.0696 185.971ZM-16.3574 184.157L-16.8786 183.378L-15.5225 182.471L-15.0017 183.25L-16.3574 184.157ZM-13.6456 182.342L-14.1668 181.563L-12.8107 180.656L-12.2894 181.435L-13.6456 182.342ZM-10.9337 180.528L-11.4545 179.749L-10.0984 178.842L-9.57756 179.621L-10.9337 180.528ZM-8.22146 178.713L-8.74234 177.934L-7.38656 177.027L-6.86568 177.806L-8.22146 178.713ZM-5.50957 176.899L-6.03046 176.12L-4.67468 175.213L-4.1538 175.991L-5.50957 176.899ZM-2.79737 175.084L-3.31825 174.305L-1.96214 173.398L-1.44127 174.177L-2.79737 175.084ZM-0.0854836 173.27L-0.606689 172.491L0.749416 171.583L1.27062 172.362L-0.0854836 173.27ZM2.62672 171.455L2.10552 170.676L3.46162 169.769L3.98283 170.548L2.62672 171.455ZM5.33861 169.64L4.81773 168.862L6.17383 167.954L6.69504 168.733L5.33861 169.64ZM8.05082 167.826L7.52961 167.047L8.88572 166.14L9.4066 166.919L8.05082 167.826ZM10.763 166.011L10.2418 165.233L11.5979 164.325L12.1191 165.104L10.763 166.011ZM13.4749 164.197L12.954 163.418L14.3098 162.511L14.8307 163.29L13.4749 164.197ZM16.1868 162.382L15.6656 161.604L17.0217 160.696L17.5429 161.475L16.1868 162.382ZM18.899 160.568L18.3781 159.789L19.7339 158.882L20.2551 159.661L18.899 160.568ZM21.6112 158.753L21.09 157.975L22.4461 157.067L22.9673 157.846L21.6112 158.753ZM24.3231 156.939L23.8019 156.16L25.1577 155.253L25.6789 156.032L24.3231 156.939ZM27.0353 155.125L26.5141 154.346L27.8702 153.438L28.3911 154.217L27.0353 155.125ZM29.7472 153.31L29.226 152.531L30.5821 151.624L31.1033 152.403L29.7472 153.31ZM32.4591 151.495L31.9382 150.717L33.294 149.809L33.8148 150.588L32.4591 151.495ZM35.1713 149.681L34.6504 148.902L36.0065 147.995L36.5274 148.774L35.1713 149.681ZM37.8832 147.866L37.3623 147.088L38.7184 146.18L39.2393 146.959L37.8832 147.866ZM40.5954 146.052L40.0745 145.273L41.4306 144.366L41.9515 145.144L40.5954 146.052ZM43.3073 144.237L42.786 143.459L44.1422 142.551L44.6634 143.33L43.3073 144.237ZM46.0195 142.423L45.4983 141.644L46.8544 140.737L47.3756 141.515L46.0195 142.423Z" fill="#C60022"/>
<path d="M48.8745 139.374L48.207 139.82L48.7281 140.599L49.3956 140.152L48.8745 139.374Z" fill="#C60022"/>
<path d="M48.6147 139.976L46.3984 136.546L50.4774 136.342L54.5558 136.138L52.6934 139.772L50.8313 143.407L48.6147 139.976Z" fill="#C60022"/>
<path d="M212.166 47.1598L209.95 43.7296L214.029 43.5253L218.108 43.321L216.245 46.9556L214.383 50.5897L212.166 47.1598Z" fill="#0085FF"/>
<path d="M228.874 82.4513L226.658 79.0213L230.737 78.8171L234.816 78.6128L232.953 82.247L231.09 85.8812L228.874 82.4513Z" fill="#0085FF"/>
<path d="M-12.2174 149.575L-12.7393 148.797L83.2275 84.4463L96.0239 99.9895L139.4 71.1429L152.195 86.6842L212.162 46.6719L212.683 47.4511L152.01 87.9338L139.215 72.3916L95.8384 101.238L83.044 85.6978L-12.2174 149.575Z" fill="#0085FF"/>
</g>
<path d="M156.42 49.5235C156.42 49.5235 139.182 34.7271 107.065 42.3833C107.065 42.3833 78.3052 49.1797 75.7645 83.2461C75.7645 83.2461 75.22 94.5155 87.1961 113.7C87.1961 113.7 91.5506 126.69 90.4622 148.713L127.042 133.33L156.42 80.9418L156.42 49.5235Z" fill="#D1D3D4"/>
<path d="M113.333 121.735H110.982C110.811 120.906 110.585 120.105 110.299 119.327L112.265 118.193C112.734 117.92 112.896 117.319 112.626 116.844L110.656 113.432C110.38 112.963 109.777 112.801 109.31 113.072L107.266 114.251C106.718 113.626 106.119 113.043 105.478 112.509L106.615 110.541C106.886 110.066 106.724 109.466 106.253 109.193L102.842 107.222C102.373 106.953 101.771 107.114 101.497 107.585L100.321 109.625C99.5371 109.358 98.7255 109.154 97.8961 109.011V106.736C97.8961 106.194 97.4575 105.75 96.9107 105.75H92.9745C92.4251 105.75 91.9848 106.194 91.9848 106.736V109.09C91.1596 109.257 90.3578 109.485 89.5786 109.77L88.4487 107.804C88.1732 107.33 87.5711 107.171 87.0955 107.441L83.6844 109.415C83.2147 109.685 83.0548 110.288 83.3257 110.759L84.5051 112.802C83.8803 113.352 83.2937 113.948 82.764 114.588L80.7961 113.453C80.3212 113.182 79.7207 113.346 79.4481 113.816L77.4749 117.227C77.204 117.698 77.3642 118.301 77.8375 118.572L79.8764 119.749C79.6116 120.534 79.407 121.341 79.2652 122.17H76.9923C76.4452 122.17 76.0049 122.616 76.0049 123.158V127.096C76.0049 127.641 76.4452 128.08 76.9923 128.08H79.3451C79.5099 128.91 79.7362 129.716 80.0227 130.49L78.0554 131.625C77.5844 131.898 77.4274 132.501 77.6951 132.97L79.664 136.38C79.935 136.851 80.54 137.015 81.012 136.744L83.0551 135.564C83.6064 136.191 84.2037 136.779 84.8424 137.308L83.7064 139.278C83.4338 139.749 83.5941 140.353 84.0648 140.622L87.4808 142.594C87.9521 142.864 88.5539 142.703 88.823 142.233L90.0036 140.193C90.7864 140.457 91.5938 140.662 92.4251 140.802V143.081C92.4251 143.626 92.8654 144.063 93.4073 144.063L97.3513 144.066C97.8945 144.066 98.3364 143.625 98.3364 143.081V140.728C99.1584 140.559 99.9619 140.335 100.741 140.049L101.879 142.012C102.151 142.487 102.748 142.646 103.222 142.374L106.637 140.402C107.105 140.134 107.267 139.529 106.995 139.054L105.815 137.014C106.441 136.466 107.026 135.868 107.56 135.226L109.53 136.364C110.003 136.637 110.601 136.474 110.876 136.003L112.845 132.59C113.117 132.119 112.954 131.515 112.486 131.246L110.445 130.066C110.71 129.285 110.914 128.475 111.058 127.648H113.333C113.875 127.648 114.315 127.206 114.315 126.659V122.719C114.318 122.173 113.875 121.735 113.333 121.735ZM95.1622 132.769C90.8204 132.769 87.3008 129.248 87.3008 124.909C87.3008 120.565 90.8204 117.047 95.1622 117.047C99.5031 117.047 103.022 120.565 103.022 124.909C103.022 129.248 99.5031 132.769 95.1622 132.769Z" fill="#122B42"/>
<path d="M95.1606 112.463C88.2859 112.463 82.7148 118.034 82.7148 124.91C82.7148 131.78 88.2859 137.355 95.1606 137.355C102.035 137.355 107.609 131.78 107.609 124.91C107.609 118.035 102.035 112.463 95.1606 112.463ZM95.1622 135.129C89.5158 135.129 84.9392 130.552 84.9392 124.909C84.9392 119.263 89.5158 114.685 95.1622 114.685C100.807 114.685 105.382 119.263 105.382 124.909C105.382 130.552 100.807 135.129 95.1622 135.129Z" fill="#1C4563"/>
<path d="M95.1612 112.463C95.044 112.463 94.9326 112.465 94.8193 112.469V114.696C94.9326 114.69 95.044 114.685 95.1628 114.685C100.808 114.685 105.383 119.262 105.383 124.908C105.383 130.552 100.808 135.129 95.1628 135.129C95.044 135.129 94.9326 135.124 94.8193 135.12V137.347C94.9326 137.349 95.044 137.355 95.1612 137.355C102.036 137.355 107.609 131.78 107.609 124.91C107.609 118.035 102.036 112.463 95.1612 112.463Z" fill="#1C4563"/>
<path d="M139.778 96.5588L139.58 90.667L125.338 84.4012L123.015 75.5753C123.077 75.5443 113.5 70.8554 113.564 70.8259C108.497 71.9544 109.934 67.98 109.934 67.98L121.097 90.934L139.778 96.5588Z" fill="#001A45"/>
<path d="M138.912 90.373L120.403 85.7842L121.813 83.2542L118.737 80.2649L116.695 81.8813V86.9891C116.695 86.9891 118.509 89.5773 119.425 89.8447C120.341 90.1124 130.757 93.5932 130.837 93.6379C130.917 93.6825 137.206 95.7842 137.206 95.7842L138.912 90.373Z" fill="#00102E"/>
<path d="M139.411 94.1557C139.186 94.7731 139.283 95.6954 138.967 96.3771C139.796 96.8184 141.976 97.2791 143.587 97.8627C145.427 98.5309 146.686 95.3166 146.472 93.4438C146.255 91.5542 145.251 93.451 145.001 91.8336C144.791 90.4778 141.392 90.9751 140.38 91.2169C140.23 92.225 139.825 93.2289 139.411 94.1557Z" fill="#FFD59A"/>
<path d="M141.089 90.73L139.3 96.7847L137.205 96.1512L138.993 90.0964L141.089 90.73Z" fill="#E6E6E6"/>
<path d="M129.201 138.224C129.345 138.593 129.472 138.799 129.577 138.808C130.86 138.913 130.625 141.358 131.058 141.599C133.187 142.785 141.381 146.606 142.103 144.657C142.826 142.707 135.193 138.288 135.193 138.288L135.181 138.173C133.181 138.384 131.064 138.255 129.201 138.224Z" fill="#030202"/>
<path d="M102.252 103.989L102.329 103.769C108.908 96.6523 105.015 98.8229 108.195 97.5898C108.077 97.7961 147.53 99.2965 147.53 99.2965L135.587 137.332C134.318 139.714 129.513 140.044 128.924 138.893C128.436 135.397 135.565 109.766 135.565 109.766L116.205 111.715L102.252 103.989Z" fill="#001A45"/>
<path d="M102.252 103.989L102.329 103.769C108.908 96.6523 108.3 99.0061 111.48 97.7727C111.472 97.7869 117.185 98.0735 117.185 98.0735L142.152 102.088C142.152 102.088 132.026 132.488 132.514 135.984C132.826 136.595 134.326 136.788 135.855 136.479L135.587 137.332C134.318 139.714 129.513 140.044 128.924 138.893C128.436 135.397 135.565 109.766 135.565 109.766L116.205 111.715L102.252 103.989Z" fill="#00102E"/>
<path d="M112.261 68.2575L105.281 66.4951C106.715 72.7447 104.233 80.265 102.857 86.5923C102.04 90.1659 100.996 93.5379 99.917 97.041C99.11 99.861 100.637 100.904 100.637 100.904L107.478 106.285C108.329 106.028 108.35 102.271 112.625 98.5334C112.625 98.5334 112.028 96.3754 117.112 89.2184C117.737 88.3385 117.278 87.8095 117.853 86.8836C120.13 71.8292 119.018 73.3087 112.261 68.2575Z" fill="#E3E3E3"/>
<path d="M113.358 62.1394L110.32 61.4812C110.32 61.4812 106.768 64.9189 106.012 65.6068C105.255 66.2941 115.005 72.5793 115.005 72.5793C115.005 72.5793 115.272 72.005 117.158 71.2268C117.158 71.2268 116.795 69.1008 116.994 68.8788C118.195 67.5327 113.358 62.1394 113.358 62.1394Z" fill="#FFC16B"/>
<path d="M122.111 142.722C122.255 143.091 122.382 143.297 122.488 143.305C123.771 143.411 123.535 145.855 123.968 146.097C126.097 147.283 134.291 151.104 135.014 149.154C135.736 147.204 128.103 142.785 128.103 142.785L128.091 142.67C126.092 142.882 123.973 142.753 122.111 142.722Z" fill="#030202"/>
<path d="M109.115 116.214L128.475 114.264C128.475 114.264 121.346 139.895 121.834 143.391C122.423 144.542 127.229 144.212 128.497 141.831L140.441 103.795C140.441 103.795 100.987 102.294 101.104 102.088C97.9248 103.321 101.817 101.15 95.2392 108.267L95.1621 108.486" fill="#001A45"/>
<path d="M131.283 109.778C130.742 111.319 124.284 113.923 122.756 114.368C122.199 114.587 121.508 114.386 120.834 114.426C117.666 114.501 114.889 114.964 111.879 115.068C110.135 115.186 98.6433 112.477 100.603 102.862C100.939 101.216 97.3865 108.359 95.2363 108.239C95.7193 109.086 94.6216 114.754 101.137 116.599L109.115 116.213L128.677 114.326L126.625 121.001C126.625 121.001 130.126 113.074 131.283 109.778Z" fill="#00102E"/>
<path d="M105.91 67.1812L111.598 76.1569L112.677 73.8451C112.677 73.8451 111.07 89.5463 111.152 89.4945C111.235 89.4421 114.126 75.1307 114.126 75.1307L114.62 74.422L115.873 75.4725L117.815 71.8972L117.205 70.8192L114.16 72.5923C114.16 72.5923 111.741 72.6065 111.637 72.5654C111.533 72.5246 105.91 67.1812 105.91 67.1812Z" fill="#C9C9C9"/>
<path d="M109.761 84.5446C111.921 77.925 110.224 72.2031 104.644 64.8091L95.9174 67.98C95.9174 67.98 94.8478 90.5874 93.2317 94.0652C90.7296 99.4488 88.7426 99.7541 88.7426 99.7541C87.8717 104.346 91.6085 111.951 94.6581 112.628C95.7568 110.885 105.42 97.8493 109.761 84.5446Z" fill="#001A45"/>
<path d="M104.647 64.7512L103.57 65.6046C106.344 71.1747 103.309 73.5923 103.309 73.5923L107.248 76.5793L103.701 77.6302C103.701 77.6302 107.547 86.2103 105.462 94.6804C105.462 94.6804 108.702 87.7415 109.764 84.4868C111.925 77.8671 110.227 72.1452 104.647 64.7512Z" fill="#00245E"/>
<path d="M109.761 84.5447C108.169 89.4239 105.861 94.2659 103.522 98.5291L95.917 67.9797C95.917 67.9797 104.662 75.8694 110.578 80.7998C110.448 82.0273 110.177 83.2692 109.761 84.5447Z" fill="#00102E"/>
<path d="M117.51 70.7688L116.307 71.8976C116.705 81.0136 113.88 93.7054 109.443 102.323C118.163 94.7976 123.014 75.5749 123.014 75.5749L117.51 70.7688Z" fill="#001A45"/>
<path d="M118.129 87.9822C118.752 87.0938 119.375 84.0203 119.375 84.0203C119.375 84.0203 119.149 83.1867 118.6 81.7248C120.034 81.5707 119.715 80.7364 121.099 80.2991C120.246 80.0861 119.655 77.8501 119.219 77.1362C117.686 77.2253 118.059 78.6296 116.482 78.7219C116.425 85.2761 116.915 89.1197 112.29 96.0657C113.811 94.8721 116.19 90.5296 118.129 87.9822Z" fill="#00102E"/>
<path d="M113.422 94.4953C116.399 90.369 117.287 87.2473 120.853 83.7002C119.525 83.3483 118.651 81.5927 118.135 80.3195C119.68 80.2434 119.832 79.8365 121.311 79.3823C118.862 77.5085 117.441 73.6989 117.742 70.8254L116.307 71.8976C116.674 80.3039 114.777 88.054 112.11 96.4043C112.353 95.6474 113.044 95.1317 113.422 94.4953Z" fill="#00245E"/>
<path d="M115.415 52.5715C115.415 52.5715 118.368 50.6802 121.251 52.5236C124.134 54.3659 124.482 55.4336 123.507 57.6822C122.533 59.9302 121.391 61.3144 122.615 62.0231C123.838 62.7314 124.802 62.6301 124.802 62.6301C124.802 62.6301 124.325 64.6168 122.588 64.9862C121.54 65.2089 120.285 64.9745 120.285 64.9745C120.285 64.9745 119.878 67.3572 120.471 68.7748C120.929 69.871 118.128 71.1759 113.941 68.3303C110.825 66.2109 110.495 63.9959 110.739 63.3556C111.096 62.4197 111.263 62.241 111.627 61.5929C111.99 60.9451 115.415 52.5715 115.415 52.5715Z" fill="#FFD59A"/>
<path d="M115.386 53.7365C115.386 53.7365 115.468 58.8384 114.037 59.8349C112.606 60.831 110.454 62.3441 110.454 62.3441C110.454 62.3441 109.409 63.2062 109.016 58.1013C108.611 52.8562 108.207 53.0841 109.215 52.2123C110.224 51.3405 111.069 51.2476 111.069 51.2476C111.069 51.2476 110.684 49.1155 111.903 48.3376C113.121 47.5594 117.717 47.6193 121.438 49.0942C125.159 50.5681 127.917 53.0427 127.018 54.9983C126.279 56.6073 121.364 58.259 115.386 53.7365Z" fill="#382100"/>
<path d="M126.834 52.9907C126.082 54.8091 121.801 50.308 117.38 49.4727C115.501 49.1176 113.704 49.3782 112.575 50.4142C111.447 51.4498 113.535 52.5394 113.535 52.5394C113.535 52.5394 111.969 51.8463 111.333 51.7851C110.698 51.7243 109.812 54.2306 109.582 55.4213C109.381 56.4549 108.646 60.129 110.745 62.14C111.38 61.6942 112.926 60.6091 114.037 59.835C115.469 58.8386 115.386 53.7366 115.386 53.7366C121.364 58.2591 126.279 56.6074 127.018 54.9982C127.309 54.3659 127.218 53.6799 126.834 52.9907Z" fill="#261700"/>
<path d="M114.559 59.4814C114.194 60.8873 112.759 61.731 111.354 61.3658C109.948 61.0006 109.105 59.5652 109.47 58.1599C109.835 56.7552 111.27 55.9113 112.675 56.2761C114.081 56.6416 114.924 58.0764 114.559 59.4814Z" fill="#FFD59A"/>
<path d="M111.951 60.9288C111.951 60.9288 111.116 60.3995 111.897 59.7015C112.292 59.349 112.962 59.6886 112.962 59.6886C112.962 59.6886 112.789 58.3895 111.966 58.4791C111.144 58.5688 110.991 59.315 110.991 59.315C110.991 59.315 110.958 58.0104 112.174 58.1056C113.389 58.2007 113.086 59.9 113.086 59.9C113.086 59.9 111.978 59.3917 111.846 60.3228C111.789 60.7281 111.951 60.9288 111.951 60.9288Z" fill="#FFC16B"/>
<path d="M120.211 64.9554C120.211 64.9554 119.309 64.4128 119.79 63.8172C120.068 63.4724 120.401 63.2461 120.401 63.2461C120.401 63.2461 118.333 64.1357 120.211 64.9554Z" fill="#FFC16B"/>
<path d="M112.387 72.6873L114.537 74.1719C114.537 74.1719 107.412 96.8268 114.915 102.701C116.968 103.335 117.978 103.142 117.978 103.142L118.32 100.5C118.32 100.5 113.605 97.7372 113.236 92.0104C112.72 84.0178 115.319 74.1356 115.319 74.1356L117.071 72.8792L114.903 71.9265L112.387 72.6873Z" fill="#C60022"/>
<path d="M106.49 64.9053L115.314 71.9024L117.161 70.3906L117.887 71.4096L115.985 74.9856L115.236 72.1345L111.418 74.0186L105.416 66.0221L106.49 64.9053Z" fill="#E3E3E3"/>
<path d="M115.314 71.9024L109.129 68.0979C109.165 69.5945 109.435 69.7855 109.354 71.2433L111.418 74.0186L115.236 72.1345L115.986 74.9856L117.58 72.0791C117.647 71.9008 117.183 70.848 117.183 70.848L115.314 71.9024Z" fill="white"/>
<path d="M90.6025 148.757L155.55 48.7854C157.933 50.315 162.392 54.1486 164.634 56.5614C171.842 64.3147 178.147 73.2807 177.443 89.2076C177.296 92.6463 172.599 96.8852 176.388 103.343C176.388 103.343 184.464 116.008 184.331 118.188C184.331 118.188 184.646 122.163 178.527 122.593C178.527 122.593 176.846 123.141 177.462 126.483L178.318 130.513C178.318 130.513 178.488 132.744 175.193 133.661C175.193 133.661 174.698 134.194 175.52 135.137C175.52 135.137 177.204 136.614 174.761 140.167C173.884 141.442 172.538 143.09 173.61 146.259C173.61 146.259 175.071 152.385 172.723 153.982C172.723 153.982 170.134 157.409 158.929 156.612C155.192 156.354 148.326 154.939 144.261 159.779C144.128 160.023 142.092 163.845 143.386 167.402C143.946 168.945 144.117 170.563 142.221 171.065C140.462 171.531 138.73 170.935 137.022 170.591C133.814 169.945 130.673 169.07 127.583 168.037C100.114 157.73 90.6025 148.757 90.6025 148.757Z" fill="#122B42"/>
<path opacity="0.3" d="M155.55 48.7852C155.55 48.7852 182.364 73.1989 161.724 106.672C161.724 106.672 152.985 120.547 133.743 127.162C114.62 133.735 91.7518 146.489 90.6025 148.757L155.55 48.7852Z" fill="#404041"/>
<path d="M155.503 48.7412C155.503 48.7412 177.933 68.66 158.45 104.498C158.45 104.498 150.633 119.051 131.391 125.665C112.268 132.238 91.7013 146.446 90.5527 148.713L155.503 48.7412Z" fill="#F1F2F2"/>
<path d="M174.724 45.8425H172.145C171.958 44.9332 171.71 44.0542 171.396 43.2006L173.552 41.9574C174.067 41.6583 174.244 40.9986 173.949 40.477L171.787 36.735C171.485 36.2197 170.823 36.0422 170.311 36.3398L168.069 37.6324C167.468 36.9471 166.811 36.3071 166.108 35.7221L167.355 33.5631C167.652 33.0422 167.475 32.3844 166.958 32.0843L163.216 29.9228C162.702 29.6279 162.041 29.804 161.741 30.3206L160.45 32.5583C159.591 32.2653 158.701 32.0419 157.791 31.8849V29.3893C157.791 28.7946 157.31 28.3074 156.71 28.3074H152.393C151.79 28.3074 151.307 28.7943 151.307 29.3893V31.971C150.402 32.1536 149.522 32.4039 148.668 32.7169L147.428 30.5599C147.126 30.04 146.466 29.8658 145.944 30.1623L142.202 32.3271C141.687 32.623 141.512 33.285 141.809 33.8017L143.102 36.0422C142.416 36.6457 141.773 37.2993 141.192 38.0018L139.034 36.7557C138.513 36.4589 137.854 36.6386 137.555 37.1543L135.391 40.8959C135.094 41.412 135.269 42.074 135.788 42.3715L138.025 43.6628C137.734 44.5233 137.51 45.4084 137.354 46.3178H134.861C134.261 46.3178 133.778 46.8066 133.778 47.4016V51.7215C133.778 52.3194 134.261 52.8011 134.861 52.8011H137.442C137.623 53.7108 137.871 54.5952 138.185 55.444L136.027 56.6894C135.51 56.9885 135.338 57.6502 135.632 58.165L137.792 61.9057C138.089 62.4223 138.752 62.6014 139.27 62.3048L141.511 61.0106C142.116 61.6975 142.771 62.3427 143.472 62.9235L142.225 65.084C141.927 65.6007 142.102 66.2627 142.619 66.5593L146.366 68.7221C146.882 69.0177 147.543 68.8413 147.838 68.3262L149.133 66.0879C149.992 66.3773 150.877 66.6027 151.789 66.7568V69.2556C151.789 69.8532 152.272 70.334 152.866 70.334L157.192 70.3372C157.788 70.3372 158.273 69.8532 158.273 69.256V66.6758C159.175 66.49 160.056 66.2446 160.91 65.9312L162.158 68.0831C162.457 68.6049 163.112 68.7788 163.631 68.48L167.378 66.3178C167.891 66.0238 168.068 65.3605 167.77 64.8396L166.475 62.6014C167.163 62.0002 167.804 61.344 168.39 60.6405L170.551 61.8885C171.07 62.1873 171.725 62.0093 172.027 61.4926L174.187 57.7483C174.485 57.232 174.307 56.5696 173.794 56.2747L171.554 54.9801C171.845 54.1232 172.069 53.2346 172.226 52.3275H174.722C175.317 52.3275 175.799 51.8429 175.8 51.243V46.9212C175.805 46.3229 175.318 45.8425 174.724 45.8425ZM154.792 57.9458C150.03 57.9458 146.169 54.0827 146.169 49.3233C146.169 44.5592 150.03 40.6994 154.792 40.6994C159.554 40.6994 163.414 44.5592 163.414 49.3233C163.414 54.0831 159.554 57.9458 154.792 57.9458Z" fill="#122B42"/>
<path d="M154.79 35.6716C147.248 35.6716 141.138 41.7833 141.138 49.3253C141.138 56.8607 147.248 62.9763 154.79 62.9763C162.331 62.9763 168.444 56.8607 168.444 49.3253C168.444 41.7833 162.331 35.6716 154.79 35.6716ZM154.791 60.5347C148.598 60.5347 143.577 55.514 143.577 49.3236C143.577 43.1304 148.598 38.1093 154.791 38.1093C160.983 38.1093 166.002 43.1304 166.002 49.3236C166.002 55.5137 160.983 60.5347 154.791 60.5347Z" fill="#1C4563"/>
<path d="M154.791 35.6716C154.662 35.6716 154.54 35.6742 154.416 35.6788V38.1216C154.54 38.1148 154.662 38.109 154.793 38.109C160.984 38.109 166.003 43.13 166.003 49.3233C166.003 55.5137 160.984 60.5344 154.793 60.5344C154.662 60.5344 154.54 60.5289 154.416 60.5237V62.9676C154.54 62.9692 154.662 62.9757 154.791 62.9757C162.332 62.9757 168.445 56.8601 168.445 49.3246C168.445 41.7833 162.332 35.6716 154.791 35.6716Z" fill="#1C4563"/>
<path d="M133.702 28.9573H132.099C131.982 28.3917 131.828 27.8456 131.633 27.315L132.973 26.5419C133.293 26.3558 133.403 25.9459 133.22 25.6216L131.876 23.2952C131.689 22.9747 131.277 22.8647 130.959 23.0495L129.565 23.853C129.191 23.427 128.783 23.0291 128.346 22.6653L129.121 21.3231C129.306 20.9993 129.196 20.5901 128.874 20.4037L126.548 19.0602C126.228 18.8766 125.817 18.9864 125.631 19.3075L124.829 20.6986C124.294 20.5167 123.741 20.3775 123.175 20.28V18.7284C123.175 18.3587 122.876 18.0557 122.503 18.0557H119.819C119.444 18.0557 119.144 18.3584 119.144 18.7284V20.3334C118.581 20.4471 118.034 20.6024 117.503 20.7973L116.733 19.4561C116.545 19.1327 116.134 19.0246 115.81 19.2088L113.484 20.5545C113.164 20.7384 113.055 21.1499 113.239 21.4713L114.043 22.8643C113.617 23.2395 113.217 23.6458 112.856 24.0825L111.514 23.3079C111.19 23.1233 110.781 23.235 110.594 23.5555L109.249 25.8818C109.064 26.2026 109.173 26.6141 109.496 26.799L110.887 27.6018C110.706 28.1363 110.567 28.6869 110.47 29.2522H108.92C108.547 29.2522 108.246 29.5562 108.246 29.9262V32.6115C108.246 32.9832 108.546 33.2826 108.92 33.2826H110.524C110.637 33.8482 110.791 34.3979 110.986 34.9259L109.644 35.6999C109.323 35.886 109.216 36.2972 109.399 36.6177L110.741 38.943C110.926 39.2642 111.339 39.3755 111.66 39.1913L113.054 38.3869C113.429 38.8139 113.837 39.2153 114.273 39.5763L113.498 40.9194C113.312 41.2409 113.421 41.652 113.742 41.8365L116.072 43.181C116.393 43.3649 116.803 43.2551 116.987 42.9349L117.792 41.5436C118.326 41.7235 118.877 41.8637 119.444 41.9592V43.5128C119.444 43.8844 119.744 44.1832 120.113 44.1832L122.803 44.1852C123.174 44.1852 123.475 43.8844 123.475 43.5128V41.9087C124.035 41.7931 124.583 41.6404 125.114 41.4458L125.89 42.7838C126.076 43.1078 126.483 43.2163 126.806 43.0301L129.135 41.686C129.454 41.5034 129.564 41.091 129.379 40.7669L128.574 39.3755C129.002 39.0016 129.401 38.5941 129.765 38.1567L131.108 38.9327C131.431 39.1185 131.838 39.0078 132.026 38.6863L133.368 36.3587C133.554 36.0379 133.443 35.6261 133.124 35.4425L131.732 34.6378C131.912 34.1049 132.052 33.5526 132.149 32.9883H133.701C134.071 32.9883 134.371 32.687 134.371 32.314V29.6271C134.373 29.2557 134.071 28.9573 133.702 28.9573ZM121.31 36.482C118.349 36.482 115.949 34.0803 115.949 31.1214C115.949 28.1599 118.349 25.7601 121.31 25.7601C124.271 25.7601 126.67 28.1599 126.67 31.1214C126.671 34.0803 124.271 36.482 121.31 36.482Z" fill="#122B42"/>
<path d="M121.309 22.6343C116.621 22.6343 112.822 26.4339 112.822 31.1225C112.822 35.8072 116.621 39.609 121.309 39.609C125.997 39.609 129.798 35.8072 129.798 31.1225C129.798 26.4339 125.998 22.6343 121.309 22.6343ZM121.31 38.0911C117.46 38.0911 114.339 34.9697 114.339 31.1212C114.339 27.2707 117.46 24.1493 121.31 24.1493C125.16 24.1493 128.28 27.2707 128.28 31.1212C128.28 34.9697 125.16 38.0911 121.31 38.0911Z" fill="#1C4563"/>
<path d="M121.309 22.6343C121.229 22.6343 121.154 22.6359 121.076 22.6388V24.1578C121.153 24.1535 121.229 24.15 121.31 24.15C125.16 24.15 128.279 27.2714 128.279 31.1218C128.279 34.9703 125.16 38.0917 121.31 38.0917C121.229 38.0917 121.154 38.0885 121.076 38.0853V39.6045C121.153 39.6052 121.229 39.6097 121.309 39.6097C125.997 39.6097 129.798 35.8078 129.798 31.1231C129.798 26.4339 125.998 22.6343 121.309 22.6343Z" fill="#1C4563"/>
<path d="M129.525 96.5588L129.327 90.667L112.07 82.9658L104.644 64.809C104.706 64.7783 101.906 66.3209 101.97 66.2914C96.9034 67.4196 95.917 67.98 95.917 67.98L107.08 90.934L129.525 96.5588Z" fill="#001A45"/>
<path d="M129.158 94.1557C128.932 94.7731 129.03 95.6954 128.714 96.3771C129.543 96.8184 131.723 97.2791 133.334 97.8627C135.175 98.5309 136.434 95.3166 136.219 93.4438C136.002 91.5542 134.998 93.451 134.748 91.8336C134.538 90.4778 131.139 90.9751 130.127 91.2169C129.977 92.225 129.572 93.2289 129.158 94.1557Z" fill="#FFD59A"/>
<path d="M130.835 90.73L129.047 96.7847L126.952 96.1512L128.74 90.0964L130.835 90.73Z" fill="#E6E6E6"/>
<path opacity="0.3" d="M47.4482 94.7937L37.1196 84.4651L26.791 94.7937H31.8286L31.8289 108.344H42.423V94.7937H47.4482Z" fill="#0085FF"/>
<path d="M75.8145 116.705L63.9022 104.792L51.9902 116.705H57.8002V132.332H70.0187L70.0191 116.704L75.8145 116.705Z" fill="#0085FF"/>
<path opacity="0.5" d="M70.5575 81.2316L63.9017 74.5757L57.2461 81.2316H60.4925V89.9632H67.3189L67.3193 81.2316H70.5575Z" fill="#0085FF"/>
<path opacity="0.3" d="M198.034 64.0405L207.106 54.9692L216.177 64.0405H211.752V75.9405L202.448 75.9408L202.448 64.0405H198.034Z" fill="#0085FF"/>
<path d="M178.765 82.0543L189.227 71.5923L199.689 82.0546H194.586V95.7794H183.855L183.855 82.0543H178.765Z" fill="#0085FF"/>
<path d="M183.382 46.2621L189.227 40.4165L195.073 46.2621H192.222V53.9303H186.226L186.226 46.2621H183.382Z" fill="#C60022"/>
<path d="M31.5319 37.3174C38.2707 37.3174 45.0098 37.3174 51.7485 37.3174C58.5255 37.3174 65.3025 37.3174 72.0791 37.3174C72.1128 37.3174 72.1471 37.3174 72.1811 37.3174C74.9677 37.3174 77.2937 35.6321 77.2937 33.613C77.2937 31.5935 74.9677 29.9082 72.1811 29.9082C65.4041 29.9082 58.6268 29.9082 51.8495 29.9082C45.1105 29.9082 38.3717 29.9082 31.6326 29.9082C31.5989 29.9082 31.5653 29.9082 31.5316 29.9082C28.7446 29.9082 26.4189 31.5939 26.4189 33.613C26.4193 35.6321 28.7449 37.3174 31.5319 37.3174Z" fill="#E6E4E6"/>
<path d="M79.3753 21.7613C83.7845 21.7613 88.1937 21.7613 92.6026 21.7613C94.622 21.7613 96.3071 20.0759 96.3071 18.0565C96.3071 16.0371 94.622 14.3521 92.6026 14.3521C88.1937 14.3521 83.7845 14.3521 79.3753 14.3521C77.3559 14.3521 75.6709 16.0374 75.6709 18.0565C75.6706 20.0759 77.3559 21.7613 79.3753 21.7613Z" fill="#E6E4E6"/>
<path d="M196.155 32.0127C200.564 32.0127 204.973 32.0127 209.382 32.0127C211.401 32.0127 213.086 30.3274 213.086 28.308C213.086 26.2885 211.401 24.6035 209.382 24.6035C204.973 24.6035 200.564 24.6035 196.155 24.6035C194.136 24.6035 192.45 26.2889 192.45 28.308C192.45 30.3274 194.135 32.0127 196.155 32.0127Z" fill="#E6E4E6"/>
<path d="M211.828 141.06C216.236 141.06 220.646 141.06 225.054 141.06C227.074 141.06 228.759 139.374 228.759 137.355C228.759 135.336 227.074 133.651 225.054 133.651C220.645 133.651 216.236 133.651 211.828 133.651C209.808 133.651 208.123 135.336 208.123 137.355C208.123 139.374 209.808 141.06 211.828 141.06Z" fill="#E6E4E6"/>
<path d="M70.681 171.235C75.0902 171.235 79.4994 171.235 83.908 171.235C85.9277 171.235 87.6127 169.55 87.6127 167.53C87.6127 165.511 85.9277 163.826 83.908 163.826C79.4991 163.826 75.0902 163.826 70.681 163.826C68.6619 163.826 66.9766 165.511 66.9766 167.53C66.9762 169.55 68.6616 171.235 70.681 171.235Z" fill="#E6E4E6"/>
<path d="M43.6527 55.4134C48.0619 55.4134 52.4708 55.4134 56.88 55.4134C58.8994 55.4134 60.5844 53.728 60.5844 51.7086C60.5844 49.6892 58.8994 48.0042 56.88 48.0042C52.4708 48.0042 48.0619 48.0042 43.6527 48.0042C41.6333 48.0042 39.9482 49.6892 39.9482 51.7086C39.9479 53.728 41.6333 55.4134 43.6527 55.4134Z" fill="#E6E4E6"/>
<path d="M188.039 153.641C192.922 153.641 197.805 153.641 202.688 153.641C207.598 153.641 212.509 153.641 217.42 153.641C217.445 153.641 217.469 153.641 217.494 153.641C219.513 153.641 221.198 151.956 221.198 149.937C221.198 147.918 219.513 146.232 217.494 146.232C212.583 146.232 207.672 146.232 202.761 146.232C197.878 146.232 192.995 146.232 188.112 146.232C188.087 146.232 188.063 146.232 188.038 146.232C186.019 146.232 184.334 147.918 184.334 149.937C184.334 151.956 186.019 153.641 188.039 153.641Z" fill="#E6E4E6"/>
</svg>
