<svg width="207" height="326" viewBox="0 0 207 326" fill="none" xmlns="http://www.w3.org/2000/svg">
<path opacity="0.6" d="M19.735 88.8572L23.1353 186C23.1983 187.855 23.9781 189.612 25.3101 190.902C26.6421 192.191 28.4219 192.911 30.2738 192.91H197.259C199.124 192.908 200.915 192.175 202.248 190.868C203.582 189.562 204.353 187.784 204.397 185.915L206.731 87.6509C206.755 86.6929 206.587 85.7398 206.236 84.8482C205.886 83.9566 205.36 83.1447 204.69 82.4607C204.02 81.7767 203.22 81.2345 202.337 80.8663C201.454 80.4982 200.507 80.3115 199.55 80.3175L26.8207 81.4498C25.866 81.4563 24.9223 81.6546 24.0454 82.033C23.1686 82.4114 22.3763 82.9623 21.7157 83.6529C21.055 84.3436 20.5393 85.16 20.1991 86.0539C19.8589 86.9479 19.7011 87.9011 19.735 88.8572Z" fill="#36D1F7"/>
<path d="M197.259 193.174H30.274C28.3549 193.175 26.5106 192.429 25.1311 191.092C23.7516 189.755 22.945 187.932 22.882 186.01L19.4817 88.8675C19.4447 87.8719 19.6086 86.879 19.9635 85.9483C20.3184 85.0176 20.8571 84.1682 21.5472 83.4509C22.2373 82.7337 23.0648 82.1633 23.98 81.774C24.8952 81.3846 25.8794 81.1843 26.8737 81.185L199.603 80.0527C200.586 80.0567 201.558 80.255 202.464 80.6364C203.37 81.0177 204.192 81.5745 204.883 82.275C205.577 82.9835 206.121 83.8245 206.484 84.7479C206.847 85.6714 207.021 86.6585 206.995 87.6506L204.651 185.926C204.61 187.863 203.812 189.706 202.431 191.061C201.049 192.416 199.192 193.175 197.259 193.174ZM199.614 80.5818L26.8948 81.7141C25.9742 81.7206 25.0644 81.912 24.219 82.277C23.3735 82.642 22.6098 83.1732 21.9728 83.8392C21.3358 84.5051 20.8385 85.2923 20.5104 86.1541C20.1823 87.016 20.03 87.9351 20.0625 88.857L23.4628 185.989C23.5178 187.777 24.2669 189.474 25.5508 190.717C26.8347 191.96 28.552 192.652 30.3373 192.645H197.259C199.052 192.635 200.771 191.928 202.053 190.672C203.336 189.417 204.082 187.711 204.134 185.915L206.478 87.64C206.499 86.7207 206.336 85.8064 206 84.9509C205.663 84.0955 205.16 83.316 204.518 82.6584C203.877 82.0009 203.11 81.4784 202.265 81.1218C201.419 80.7652 200.51 80.5816 199.593 80.5818H199.614Z" fill="#744CA2"/>
<path style="mix-blend-mode:multiply" opacity="0.6" d="M19.9791 93.8096H206.542L206.838 88.6879C206.9 87.6156 206.742 86.5419 206.374 85.5333C206.005 84.5246 205.434 83.6024 204.695 82.8238C203.957 82.0452 203.067 81.4267 202.081 81.0065C201.094 80.5863 200.032 80.3735 198.96 80.3811L26.3045 81.7461C25.4481 81.753 24.6016 81.93 23.814 82.2671C23.0264 82.6041 22.3133 83.0944 21.7161 83.7095C21.119 84.3247 20.6495 85.0525 20.335 85.8507C20.0206 86.649 19.8673 87.5018 19.8841 88.3599L19.9791 93.8096Z" fill="url(#paint0_linear_2109_24268)"/>
<path style="mix-blend-mode:multiply" opacity="0.3" d="M29.3672 101.651V157.862H86.465V101.354L29.3672 101.651Z" fill="url(#paint1_linear_2109_24268)"/>
<path style="mix-blend-mode:multiply" opacity="0.3" d="M166.489 105.418H141.652V130.307H166.489V105.418Z" fill="url(#paint2_linear_2109_24268)"/>
<path style="mix-blend-mode:multiply" opacity="0.3" d="M195.794 105.418H170.957V130.307H195.794V105.418Z" fill="url(#paint3_linear_2109_24268)"/>
<path style="mix-blend-mode:multiply" opacity="0.3" d="M136.689 105.418H111.852V130.307H136.689V105.418Z" fill="url(#paint4_linear_2109_24268)"/>
<g style="mix-blend-mode:multiply">
<path d="M195.792 144.826H132.273V150.784H195.792V144.826Z" fill="#D1D4FB"/>
</g>
<g style="mix-blend-mode:multiply">
<path d="M195.806 153.895H116.395V155.736H195.806V153.895Z" fill="#D1D4FB"/>
</g>
<g style="mix-blend-mode:multiply">
<path d="M132.336 133.481H117.141V135.323H132.336V133.481Z" fill="#D1D4FB"/>
</g>
<g style="mix-blend-mode:multiply">
<path d="M161.672 133.481H146.477V135.323H161.672V133.481Z" fill="#D1D4FB"/>
</g>
<g style="mix-blend-mode:multiply">
<path d="M190.977 133.481H175.781V135.323H190.977V133.481Z" fill="#D1D4FB"/>
</g>
<g style="mix-blend-mode:multiply">
<path d="M137.396 156.899H111.852V158.741H137.396V156.899Z" fill="#D1D4FB"/>
</g>
<g style="mix-blend-mode:multiply">
<path d="M195.806 159.862H116.395V161.704H195.806V159.862Z" fill="#D1D4FB"/>
</g>
<g style="mix-blend-mode:multiply">
<path d="M195.793 162.825H111.852V164.666H195.793V162.825Z" fill="#D1D4FB"/>
</g>
<g style="mix-blend-mode:multiply">
<path d="M195.793 165.788H111.852V167.629H195.793V165.788Z" fill="#D1D4FB"/>
</g>
<g style="mix-blend-mode:multiply">
<path d="M195.806 177.768H116.395V179.609H195.806V177.768Z" fill="#D1D4FB"/>
</g>
<g style="mix-blend-mode:multiply">
<path d="M195.793 180.729H111.852V182.571H195.793V180.729Z" fill="#D1D4FB"/>
</g>
<g style="mix-blend-mode:multiply">
<path d="M195.793 183.693H111.852V185.535H195.793V183.693Z" fill="#D1D4FB"/>
</g>
<g style="mix-blend-mode:multiply">
<path d="M192.424 168.751H111.852V170.592H192.424V168.751Z" fill="#D1D4FB"/>
</g>
<g style="mix-blend-mode:multiply">
<path d="M195.806 171.715H116.395V173.556H195.806V171.715Z" fill="#D1D4FB"/>
</g>
<g style="mix-blend-mode:multiply">
<path d="M179.868 174.678H111.852V176.519H179.868V174.678Z" fill="#D1D4FB"/>
</g>
<g style="mix-blend-mode:soft-light">
<path d="M45.3678 146.593C42.1531 146.595 39.0099 145.642 36.3359 143.853C33.662 142.065 31.5773 139.522 30.3456 136.547C29.1139 133.571 28.7906 130.296 29.4165 127.137C30.0423 123.977 31.5893 121.074 33.8618 118.795C36.1342 116.517 39.03 114.964 42.1828 114.335C45.3357 113.706 48.6039 114.028 51.5742 115.26C54.5444 116.492 57.0832 118.58 58.8694 121.258C60.6557 123.937 61.6091 127.086 61.6091 130.307C61.6063 134.624 59.8946 138.763 56.8497 141.816C53.8048 144.869 49.6754 146.587 45.3678 146.593ZM45.3678 115.09C42.3615 115.088 39.4221 115.98 36.9215 117.652C34.421 119.325 32.4717 121.703 31.3202 124.486C30.1688 127.268 29.867 130.331 30.453 133.286C31.039 136.241 32.4864 138.955 34.6122 141.085C36.7381 143.216 39.4466 144.666 42.3953 145.253C45.344 145.84 48.4002 145.538 51.1773 144.384C53.9544 143.23 56.3276 141.277 57.9965 138.771C59.6655 136.265 60.5552 133.32 60.5531 130.307C60.5475 126.273 58.9458 122.406 56.0993 119.553C53.2527 116.701 49.3935 115.096 45.3678 115.09Z" fill="#E0FFFF"/>
</g>
<path d="M45.3672 139.154C50.2428 139.154 54.1954 135.193 54.1954 130.307C54.1954 125.422 50.2428 121.461 45.3672 121.461C40.4915 121.461 36.5391 125.422 36.5391 130.307C36.5391 135.193 40.4915 139.154 45.3672 139.154Z" fill="white"/>
<g style="mix-blend-mode:soft-light">
<path d="M86.4667 117.629C83.2519 117.629 80.1094 116.674 77.4365 114.884C74.7637 113.094 72.6807 110.55 71.451 107.573C70.2212 104.597 69.9 101.322 70.5279 98.1623C71.1558 95.0029 72.7047 92.101 74.9786 89.8239C77.2525 87.5467 80.1493 85.9965 83.3026 85.3693C86.4558 84.7421 89.7238 85.0661 92.6933 86.3003C95.6627 87.5346 98.2002 89.6236 99.9847 92.3032C101.769 94.9827 102.721 98.1325 102.718 101.354C102.713 105.67 100.999 109.808 97.9516 112.86C94.9047 115.911 90.7742 117.626 86.4667 117.629ZM86.4667 86.1264C83.4612 86.1264 80.5233 87.0195 78.0243 88.6927C75.5254 90.3659 73.5777 92.7441 72.4275 95.5266C71.2774 98.3091 70.9765 101.371 71.5628 104.325C72.1492 107.279 73.5964 109.992 75.7216 112.121C77.8468 114.251 80.5544 115.701 83.5021 116.289C86.4498 116.876 89.5052 116.575 92.2818 115.422C95.0585 114.27 97.4318 112.318 99.1015 109.814C100.771 107.31 101.662 104.366 101.662 101.354C101.665 99.3519 101.274 97.369 100.512 95.5185C99.7498 93.668 98.6311 91.9861 97.2199 90.569C95.8087 89.1519 94.1326 88.0274 92.2875 87.2597C90.4424 86.4919 88.4645 86.096 86.4667 86.0947V86.1264Z" fill="#E0FFFF"/>
</g>
<path d="M97.0271 102.45C97.7615 97.8961 94.6732 93.6082 90.1292 92.8723C85.5852 92.1364 81.3063 95.2311 80.5719 99.7845C79.8375 104.338 82.9258 108.626 87.4698 109.362C92.0138 110.098 96.2927 107.003 97.0271 102.45Z" fill="white"/>
<g style="mix-blend-mode:soft-light">
<path d="M26.5156 86.1798L27.7089 84.3809L34.1294 90.0105L33.1368 91.3861L26.5156 86.1798Z" fill="white"/>
<path d="M34.2907 86.1798L33.108 84.3809L26.6875 90.0105L27.6696 91.3861L34.2907 86.1798Z" fill="white"/>
</g>
<path d="M202.024 85.5977H144.535V88.4865H202.024V85.5977Z" fill="white"/>
<path d="M185.593 61.5876C185.593 62.5231 185.316 63.4376 184.797 64.2155C184.279 64.9934 183.542 65.5997 182.679 65.9577C181.817 66.3157 180.867 66.4094 179.952 66.2269C179.036 66.0443 178.195 65.5938 177.535 64.9323C176.875 64.2708 176.425 63.4279 176.243 62.5104C176.061 61.5928 176.154 60.6417 176.512 59.7774C176.869 58.9131 177.474 58.1743 178.25 57.6546C179.026 57.1348 179.939 56.8574 180.873 56.8574C182.125 56.8574 183.325 57.3558 184.21 58.2428C185.096 59.1299 185.593 60.3331 185.593 61.5876Z" fill="url(#paint5_linear_2109_24268)"/>
<path d="M194.728 66.3177C197.335 66.3177 199.448 64.2 199.448 61.5876C199.448 58.9752 197.335 56.8574 194.728 56.8574C192.121 56.8574 190.008 58.9752 190.008 61.5876C190.008 64.2 192.121 66.3177 194.728 66.3177Z" fill="url(#paint6_linear_2109_24268)"/>
<path d="M113.931 244.994C115.774 244.994 117.268 243.497 117.268 241.651C117.268 239.804 115.774 238.307 113.931 238.307C112.088 238.307 110.594 239.804 110.594 241.651C110.594 243.497 112.088 244.994 113.931 244.994Z" fill="url(#paint7_linear_2109_24268)"/>
<path opacity="0.73" d="M164.578 315.535H100.11C97.6149 315.536 95.2175 314.565 93.4241 312.827C91.6308 311.09 90.5822 308.721 90.5 306.223L89.0638 263.736C89.0213 262.443 89.2387 261.155 89.703 259.948C90.1673 258.74 90.869 257.639 91.7664 256.709C92.6639 255.779 93.7387 255.04 94.927 254.534C96.1154 254.029 97.393 253.768 98.684 253.768H165.877C167.165 253.768 168.44 254.028 169.626 254.532C170.813 255.035 171.886 255.772 172.783 256.698C173.68 257.625 174.382 258.722 174.849 259.926C175.315 261.129 175.535 262.414 175.497 263.704L174.198 306.201C174.119 308.705 173.07 311.079 171.275 312.821C169.479 314.563 167.077 315.536 164.578 315.535Z" fill="url(#paint8_linear_2109_24268)"/>
<path d="M164.577 315.799H100.108C97.5503 315.809 95.0888 314.82 93.2457 313.042C91.4026 311.264 90.3227 308.837 90.2349 306.275L88.7987 263.788C88.7534 262.459 88.9755 261.135 89.4519 259.894C89.9283 258.653 90.6491 257.521 91.5715 256.565C92.4939 255.609 93.5989 254.849 94.8207 254.33C96.0425 253.811 97.356 253.544 98.6829 253.545H165.876C167.199 253.544 168.509 253.81 169.728 254.326C170.947 254.842 172.05 255.599 172.972 256.55C173.894 257.501 174.615 258.628 175.094 259.865C175.573 261.101 175.8 262.421 175.76 263.746L174.461 306.201C174.39 308.777 173.316 311.223 171.469 313.016C169.622 314.81 167.149 315.808 164.577 315.799ZM98.6829 254.032C97.4275 254.032 96.1851 254.286 95.0295 254.777C93.8739 255.269 92.8286 255.988 91.9558 256.892C91.0831 257.796 90.4006 258.867 89.9489 260.041C89.4973 261.215 89.2857 262.468 89.3267 263.725L90.7629 306.201C90.8345 308.634 91.8516 310.942 93.5974 312.635C95.3433 314.327 97.6796 315.269 100.108 315.259H164.577C167.013 315.271 169.357 314.326 171.106 312.627C172.855 310.928 173.87 308.61 173.933 306.169L175.232 263.683C175.27 262.427 175.057 261.177 174.604 260.007C174.15 258.836 173.467 257.769 172.595 256.867C171.722 255.966 170.678 255.25 169.524 254.761C168.369 254.272 167.129 254.021 165.876 254.021L98.6829 254.032Z" fill="#953DA2"/>
<g style="mix-blend-mode:multiply">
<path d="M161.033 260.604H101.992V295.746H161.033V260.604Z" fill="#D1D4FB"/>
</g>
<path d="M126.273 269.322V287.026L141.364 277.365L126.273 269.322Z" fill="white"/>
<g style="mix-blend-mode:multiply">
<path d="M161.033 302.222H101.992V305.439H161.033V302.222Z" fill="#D1D4FB"/>
</g>
<path d="M117.272 302.222H101.992V305.439H117.272V302.222Z" fill="white"/>
<path fill-rule="evenodd" clip-rule="evenodd" d="M58.7222 249.502L55.6493 258.327C57.3495 253.449 59.7994 250.285 58.7222 249.502ZM55.6493 258.327L52.5552 267.163C53.3367 266.931 53.9386 263.216 55.6493 258.327ZM58.7222 249.502L55.6493 258.327C57.3495 253.449 59.7994 250.285 58.7222 249.502ZM55.6493 258.327L52.5552 267.163C53.3367 266.931 53.9386 263.216 55.6493 258.327ZM64.5408 265.989L67.5398 267.682L70.7712 258.846L67.3075 258.264C67.3709 257.936 67.4237 257.608 67.4659 257.29C67.708 255.833 67.807 254.355 67.7616 252.878L71.3837 250.602L69.7258 242.814L66.2515 246.147C65.7874 245.195 65.1782 244.32 64.4458 243.555C64.2585 243.344 64.0574 243.146 63.8438 242.962L65.9558 238.052L60.3062 236.211L58.9546 241.163C57.6307 241.185 56.327 241.492 55.1319 242.063L54.5088 237.386L48.289 242.095L49.7252 246.243C48.5505 247.597 47.5337 249.081 46.6944 250.666L43.6954 248.973L40.4641 257.809L43.9277 258.391C43.5732 260.163 43.4209 261.97 43.4737 263.777L39.8516 266.052L41.4989 273.841L44.9732 270.518C45.5374 271.729 46.3465 272.81 47.3492 273.692L45.2372 278.613L50.7917 280.782L51.6471 277.608L52.2384 275.491C53.5648 275.463 54.8706 275.157 56.0717 274.592L56.6842 279.269L62.904 274.55L61.4678 270.412C62.3797 269.354 63.196 268.218 63.9072 267.015C64.1606 266.687 64.3507 266.338 64.5408 265.989ZM55.6493 258.327C53.9386 263.216 55.6493 268.243 52.5552 267.163C49.4611 266.084 48.3312 261.237 50.0419 256.37C51.7527 251.502 55.6387 248.412 58.7222 249.502C61.8058 250.592 57.3495 253.449 55.6493 258.327ZM58.7222 249.502L55.6493 258.327C57.3495 253.449 59.7994 250.285 58.7222 249.502ZM55.6493 258.327L52.5552 267.163C53.3367 266.931 53.9386 263.216 55.6493 258.327Z" fill="url(#paint9_linear_2109_24268)"/>
<path fill-rule="evenodd" clip-rule="evenodd" d="M67.5429 267.682L70.7743 258.846L67.469 257.291L66.941 257.037L67.2895 252.169L70.9432 250.381L69.7289 242.815L61.7561 240.222L63.2239 243.725L66.0012 238.053L60.3516 236.211L58.0389 235.46L52.4739 233.28L51.4179 237.09L46.5708 234.783L40.3827 239.534L42.2623 244.635L36.4543 260.794L33.582 271.28L39.1049 271.883L37.2992 276.042L42.8748 278.222L50.837 280.815L49.5593 278.254L48.7568 276.719L51.6924 277.682L56.7295 279.323L62.9493 274.603L59.1055 270.063L63.9525 267.069L67.5429 267.682ZM50.045 256.37C51.7558 251.492 55.6418 248.413 58.7253 249.503L55.6524 258.328L52.5583 267.164C49.4642 266.074 48.3343 261.238 50.045 256.37Z" fill="url(#paint10_linear_2109_24268)"/>
<path fill-rule="evenodd" clip-rule="evenodd" d="M59.5691 265.079L62.8004 256.243L59.3368 255.661C59.6837 253.891 59.8395 252.089 59.8014 250.285L63.3918 248L61.7339 240.211L58.2597 243.534C57.6989 242.32 56.8893 241.239 55.8837 240.359L57.9957 235.449L52.4305 233.27L50.9838 238.561C49.6614 238.585 48.3589 238.888 47.1611 239.449L46.5486 234.783L40.3816 239.534L41.8072 243.682C40.6324 245.04 39.6156 246.528 38.7765 248.116L35.7774 246.423L32.5566 255.259L36.0203 255.841C35.6621 257.609 35.5062 259.413 35.5557 261.217L31.9336 263.492L33.5809 271.28L37.0552 267.957C37.6205 269.168 38.4294 270.249 39.4312 271.132L37.3192 276.042L42.8843 278.211L44.3205 272.92C45.6471 272.894 46.9533 272.587 48.1537 272.021L48.7662 276.698L54.9861 271.979L53.5499 267.841C54.7247 266.483 55.7414 264.995 56.5806 263.407L59.5691 265.079ZM44.5845 264.561C41.4904 263.502 40.3605 258.635 42.0712 253.767C43.7819 248.899 47.668 245.809 50.7621 246.899C53.8561 247.989 54.9861 252.815 53.2753 257.693C51.5646 262.571 47.6785 265.64 44.5845 264.561Z" fill="url(#paint11_linear_2109_24268)"/>
<g style="mix-blend-mode:multiply" opacity="0.5">
<path fill-rule="evenodd" clip-rule="evenodd" d="M71.3851 250.603L63.4228 248.011L59.8008 250.286L67.763 252.878L71.3851 250.603Z" fill="#601734"/>
</g>
<g style="mix-blend-mode:soft-light">
<path fill-rule="evenodd" clip-rule="evenodd" d="M62.948 274.561L54.9752 271.958L53.5391 267.82L61.5118 270.423L62.948 274.561Z" fill="#B3D9FF"/>
</g>
<g style="mix-blend-mode:multiply" opacity="0.5">
<path fill-rule="evenodd" clip-rule="evenodd" d="M55.9258 240.371L60.2871 241.641L61.7655 240.223L64.6694 241.164L66.0106 238.053L58.0483 235.45L55.9258 240.371Z" fill="#601734"/>
</g>
<g style="mix-blend-mode:multiply" opacity="0.5">
<path fill-rule="evenodd" clip-rule="evenodd" d="M44.3125 272.899L48.4837 274.635L48.1458 272C46.9712 272.638 45.6475 272.948 44.3125 272.899Z" fill="#601734"/>
</g>
<g style="mix-blend-mode:multiply" opacity="0.5">
<path fill-rule="evenodd" clip-rule="evenodd" d="M44.9531 248.952L51.9861 252.677C52.5079 251.968 53.1143 251.324 53.7918 250.762C53.7918 250.762 51.9544 242.995 44.9531 248.952Z" fill="#601734"/>
</g>
<path d="M49.7907 68.4975L43.4653 72.3387L40.9414 67.5239L47.8371 63.4922L49.7907 68.4975Z" fill="#4F31E0"/>
<path d="M80.8812 311.577L71.8313 318.021L69.2969 313.217L78.0828 308.074L80.8812 311.577Z" fill="#4F31E0"/>
<path fill-rule="evenodd" clip-rule="evenodd" d="M68.9257 35.619L67.3945 0H113.932L112.021 35.5132L68.9257 35.619Z" fill="url(#paint12_linear_2109_24268)"/>
<path fill-rule="evenodd" clip-rule="evenodd" d="M67.3939 0L66 2.09524L67.3939 35.619H68.9251L67.3939 0Z" fill="url(#paint13_linear_2109_24268)"/>
<path d="M82.8438 7.1112L75.5469 6.32812L76.5395 30.7302L82.8438 30.1165V27.5874L79.19 27.672L78.7782 8.85722L82.8438 8.97363V7.1112Z" fill="white"/>
<path d="M97.7969 7.1112L105.104 6.32812L104.101 30.7302L97.7969 30.1165V27.5874L101.451 27.672L101.873 8.85722L97.7969 8.97363V7.1112Z" fill="white"/>
<path d="M15.7253 38.8251L7.95312 18.4336L28.1121 22.6664L15.7253 38.8251ZM8.78737 19.1532L15.8731 37.7563L27.1723 23.005L8.78737 19.1532Z" fill="#744CA2"/>
<path d="M78.6325 316.31L71.8164 325.688L72.2441 326L79.0601 316.623L78.6325 316.31Z" fill="#744CA2"/>
<path d="M7.3392 241.82L0 232.667L0.411822 232.339L7.75102 241.492L7.3392 241.82Z" fill="#744CA2"/>
<path d="M121.524 21.9361L121.133 21.5869L132.084 9.06836L132.474 9.41757L121.524 21.9361Z" fill="#744CA2"/>
<defs>
<linearGradient id="paint0_linear_2109_24268" x1="19.8841" y1="87.1006" x2="206.849" y2="87.1006" gradientUnits="userSpaceOnUse">
<stop stop-color="#9D68C2"/>
<stop offset="1" stop-color="#AEC2FF"/>
</linearGradient>
<linearGradient id="paint1_linear_2109_24268" x1="57.9108" y1="157.862" x2="57.9108" y2="101.354" gradientUnits="userSpaceOnUse">
<stop stop-color="#CCEDFF"/>
<stop offset="1" stop-color="#9D68C2"/>
</linearGradient>
<linearGradient id="paint2_linear_2109_24268" x1="154.071" y1="130.307" x2="154.071" y2="105.418" gradientUnits="userSpaceOnUse">
<stop stop-color="#CCEDFF"/>
<stop offset="1" stop-color="#9D68C2"/>
</linearGradient>
<linearGradient id="paint3_linear_2109_24268" x1="183.386" y1="130.307" x2="183.386" y2="105.418" gradientUnits="userSpaceOnUse">
<stop stop-color="#CCEDFF"/>
<stop offset="1" stop-color="#9D68C2"/>
</linearGradient>
<linearGradient id="paint4_linear_2109_24268" x1="124.281" y1="130.307" x2="124.281" y2="105.418" gradientUnits="userSpaceOnUse">
<stop stop-color="#CCEDFF"/>
<stop offset="1" stop-color="#9D68C2"/>
</linearGradient>
<linearGradient id="paint5_linear_2109_24268" x1="180.873" y1="66.3177" x2="180.873" y2="56.8574" gradientUnits="userSpaceOnUse">
<stop stop-color="#459FFF"/>
<stop offset="1" stop-color="#A96DFF"/>
</linearGradient>
<linearGradient id="paint6_linear_2109_24268" x1="194.728" y1="66.3177" x2="194.728" y2="56.8574" gradientUnits="userSpaceOnUse">
<stop stop-color="#B31A8F"/>
<stop offset="1" stop-color="#FE117E"/>
</linearGradient>
<linearGradient id="paint7_linear_2109_24268" x1="113.931" y1="244.994" x2="113.931" y2="238.307" gradientUnits="userSpaceOnUse">
<stop stop-color="#8642A0"/>
<stop offset="1" stop-color="#6456C0"/>
</linearGradient>
<linearGradient id="paint8_linear_2109_24268" x1="132.275" y1="315.535" x2="132.275" y2="253.768" gradientUnits="userSpaceOnUse">
<stop stop-color="#D906E3"/>
<stop offset="1" stop-color="#FF6DF9"/>
</linearGradient>
<linearGradient id="paint9_linear_2109_24268" x1="54.1692" y1="282.271" x2="60.8264" y2="237.089" gradientUnits="userSpaceOnUse">
<stop stop-color="#1852A0"/>
<stop offset="1" stop-color="#067ED3"/>
</linearGradient>
<linearGradient id="paint10_linear_2109_24268" x1="49.1884" y1="281.12" x2="61.2472" y2="236.226" gradientUnits="userSpaceOnUse">
<stop stop-color="#1852A0"/>
<stop offset="1" stop-color="#067ED3"/>
</linearGradient>
<linearGradient id="paint11_linear_2109_24268" x1="40.311" y1="279.262" x2="47.4169" y2="233.844" gradientUnits="userSpaceOnUse">
<stop stop-color="#188DC1"/>
<stop offset="1" stop-color="#06BFE7"/>
</linearGradient>
<linearGradient id="paint12_linear_2109_24268" x1="83.8259" y1="39.6402" x2="95.8369" y2="-4.8869" gradientUnits="userSpaceOnUse">
<stop stop-color="#188DC1"/>
<stop offset="1" stop-color="#06BFE7"/>
</linearGradient>
<linearGradient id="paint13_linear_2109_24268" x1="63.2544" y1="34.4974" x2="72.2124" y2="1.3004" gradientUnits="userSpaceOnUse">
<stop stop-color="#1852A0"/>
<stop offset="1" stop-color="#067ED3"/>
</linearGradient>
</defs>
</svg>
