<svg width="205" height="353" viewBox="0 0 205 353" fill="none" xmlns="http://www.w3.org/2000/svg">
<path d="M94.7377 157.356C92.0904 153.039 88.208 149.623 83.597 147.554L81.1177 148.708L86.7092 158.88C86.2573 161.218 85.0571 163.344 83.291 164.935C80.9409 165.275 78.5443 164.837 76.4652 163.686L72.2452 152.857L69.7554 154.022C68.391 158.886 68.516 164.049 70.1141 168.841C70.1141 168.841 71.1691 171.287 71.3484 171.509C72.3401 172.652 74.8932 173.986 79.8517 173.679L96.9743 206.463C96.015 208.115 95.6068 210.032 95.809 211.934C96.0113 213.835 96.8135 215.622 98.0988 217.034C99.3841 218.447 101.085 219.41 102.954 219.784C104.823 220.158 106.763 219.924 108.49 219.115C110.217 218.306 111.641 216.964 112.555 215.286C113.469 213.608 113.825 211.681 113.572 209.786C113.318 207.89 112.467 206.126 111.144 204.749C109.821 203.373 108.095 202.456 106.216 202.133L92.1846 167.995C95.5184 164.459 96.2253 161.643 95.9721 160.066C95.6074 159.142 95.1954 158.237 94.7377 157.356ZM108.79 213.788L104.264 215.905L100.171 213.037L100.604 208.04L105.129 205.923L109.223 208.792L108.79 213.788Z" fill="url(#paint0_linear_2109_24210)"/>
<path d="M95.9723 160.024C93.3329 155.702 89.4532 152.281 84.842 150.211L82.3628 151.375L87.9437 161.538C87.5 163.879 86.2984 166.007 84.5255 167.593C82.1742 167.933 79.7766 167.49 77.6997 166.333L73.4797 155.514L71.0005 156.679C69.6353 161.542 69.7566 166.705 71.3486 171.499C71.3486 171.499 75.2205 176.696 81.0862 176.326L98.1877 209.057C97.2334 210.708 96.8295 212.623 97.0348 214.521C97.2401 216.419 98.0439 218.202 99.3292 219.61C100.614 221.018 102.314 221.977 104.181 222.348C106.047 222.72 107.983 222.483 109.706 221.674C111.43 220.865 112.851 219.525 113.762 217.849C114.674 216.173 115.028 214.249 114.774 212.356C114.52 210.464 113.671 208.703 112.35 207.329C111.029 205.954 109.305 205.039 107.43 204.717L93.3875 170.588C97.4704 166.333 95.9723 160.024 95.9723 160.024ZM110.035 216.456L105.509 218.573L101.416 215.704L101.849 210.708L106.375 208.591L110.468 211.47L110.035 216.456Z" fill="url(#paint1_linear_2109_24210)"/>
<path d="M72.2647 152.852L69.7891 154.013L71.0304 156.679L73.506 155.519L72.2647 152.852Z" fill="#E5E2FF"/>
<path d="M83.5928 147.564L81.1172 148.725L82.3585 151.391L84.8342 150.23L83.5928 147.564Z" fill="#E5E2FF"/>
<path d="M108.796 213.8L104.266 215.924L105.507 218.59L110.038 216.466L108.796 213.8Z" fill="#E5E2FF"/>
<path d="M124.543 58.3905V83.4044L154.347 83.6584L154.758 57.5859L124.543 58.3905Z" fill="url(#paint2_linear_2109_24210)"/>
<path d="M154.755 57.5859L156.696 60.8781L155.726 83.6373L154.344 83.6584L154.755 57.5859Z" fill="url(#paint3_linear_2109_24210)"/>
<path d="M129.871 66.8381L132.614 62.8262L147.511 75.3596L145.221 78.4189L129.871 66.8381Z" fill="white"/>
<path d="M147.89 66.8381L145.136 62.8262L130.25 75.3596L132.529 78.4189L147.89 66.8381Z" fill="white"/>
<path opacity="0.81" d="M194.085 352.735H92.0773C89.8946 352.733 87.7991 351.875 86.2381 350.345C84.677 348.814 83.774 346.732 83.7217 344.542L81.8227 260.598C81.796 259.481 81.9924 258.369 82.4004 257.329C82.8085 256.289 83.4199 255.342 84.1986 254.543C84.9773 253.744 85.9076 253.109 86.9346 252.676C87.9615 252.244 89.0645 252.022 90.1783 252.023H196.374C197.491 252.023 198.595 252.247 199.624 252.682C200.652 253.117 201.584 253.755 202.362 254.557C203.141 255.359 203.752 256.31 204.159 257.353C204.565 258.396 204.76 259.51 204.73 260.63L202.441 344.584C202.38 346.767 201.473 348.841 199.913 350.363C198.352 351.885 196.261 352.736 194.085 352.735Z" fill="url(#paint4_linear_2109_24210)"/>
<path d="M194.087 353H92.0793C89.8281 352.987 87.6701 352.096 86.0616 350.516C84.4531 348.935 83.5201 346.789 83.4599 344.531L81.5609 260.576C81.5342 259.424 81.7375 258.279 82.1588 257.206C82.5801 256.134 83.2109 255.158 84.0141 254.334C84.8173 253.511 85.7766 252.856 86.8356 252.41C87.8946 251.964 89.0318 251.736 90.1803 251.737H196.376C197.528 251.735 198.669 251.966 199.731 252.414C200.793 252.863 201.754 253.521 202.558 254.349C203.362 255.177 203.992 256.159 204.41 257.236C204.829 258.313 205.028 259.463 204.996 260.619L202.706 344.574C202.659 346.832 201.729 348.981 200.117 350.558C198.504 352.134 196.338 353.011 194.087 353ZM90.1803 252.288C89.1015 252.285 88.0331 252.498 87.0382 252.917C86.0432 253.335 85.142 253.949 84.3876 254.723C83.6332 255.496 83.0411 256.414 82.6462 257.421C82.2513 258.428 82.0616 259.505 82.0884 260.587L83.9874 344.542C84.0502 346.658 84.9288 348.666 86.4381 350.145C87.9474 351.624 89.9697 352.458 92.0793 352.47H194.087C196.198 352.479 198.228 351.657 199.741 350.181C201.254 348.704 202.129 346.691 202.179 344.574L204.468 260.629C204.498 259.545 204.31 258.465 203.917 257.454C203.524 256.443 202.932 255.522 202.178 254.744C201.423 253.966 200.521 253.348 199.525 252.926C198.528 252.505 197.458 252.287 196.376 252.288H90.1803Z" fill="#473DA2"/>
<path d="M162.967 269.193H109.32V271.501H162.967V269.193Z" fill="white"/>
<path d="M136.138 274.793H109.32V277.101H136.138V274.793Z" fill="white"/>
<path d="M136.138 279.483H109.32V281.791H136.138V279.483Z" fill="white"/>
<path d="M160.495 279.482H139.152V281.79H160.495V279.482Z" fill="white"/>
<path d="M152.565 284.162H109.32V286.47H152.565V284.162Z" fill="white"/>
<path d="M124.713 288.84H109.32V291.148H124.713V288.84Z" fill="white"/>
<path d="M154.493 302.877H127.875V305.185H154.493V302.877Z" fill="white"/>
<path d="M157.565 293.52H109.32V295.827H157.565V293.52Z" fill="white"/>
<path d="M146.435 298.198H109.32V300.506H146.435V298.198Z" fill="white"/>
<path d="M126.781 302.877H109.32V305.185H126.781V302.877Z" fill="white"/>
<path d="M136.138 307.556H109.32V309.863H136.138V307.556Z" fill="white"/>
<path d="M117.011 312.234H109.32V314.542H117.011V312.234Z" fill="white"/>
<path d="M148.099 312.234H120.184V314.542H148.099V312.234Z" fill="white"/>
<path d="M154.493 316.775H127.875V319.083H154.493V316.775Z" fill="white"/>
<path d="M126.781 316.776H109.32V319.084H126.781V316.776Z" fill="white"/>
<path d="M136.138 321.455H109.32V323.763H136.138V321.455Z" fill="white"/>
<path d="M117.011 326.145H109.32V328.452H117.011V326.145Z" fill="white"/>
<path d="M148.099 326.145H120.184V328.452H148.099V326.145Z" fill="white"/>
<path d="M25.8699 185.8C25.8719 186.967 25.5288 188.108 24.8839 189.079C24.239 190.051 23.3214 190.808 22.2472 191.256C21.173 191.703 19.9906 191.821 18.8497 191.594C17.7088 191.367 16.6608 190.805 15.8383 189.98C15.0159 189.154 14.456 188.103 14.2296 186.958C14.0032 185.813 14.1204 184.627 14.5665 183.549C15.0126 182.471 15.7674 181.55 16.7354 180.903C17.7034 180.256 18.8409 179.912 20.0041 179.914C20.7744 179.914 21.5371 180.066 22.2488 180.362C22.9605 180.658 23.6071 181.091 24.1518 181.638C24.6965 182.184 25.1286 182.833 25.4233 183.547C25.7181 184.261 25.8699 185.027 25.8699 185.8Z" fill="url(#paint5_linear_2109_24210)"/>
<path d="M172.916 111.965C174.757 111.965 176.25 110.467 176.25 108.619C176.25 106.772 174.757 105.274 172.916 105.274C171.075 105.274 169.582 106.772 169.582 108.619C169.582 110.467 171.075 111.965 172.916 111.965Z" fill="url(#paint6_linear_2109_24210)"/>
<path d="M49.6274 292.556C51.2705 292.556 52.6025 291.22 52.6025 289.571C52.6025 287.922 51.2705 286.586 49.6274 286.586C47.9843 286.586 46.6523 287.922 46.6523 289.571C46.6523 291.22 47.9843 292.556 49.6274 292.556Z" fill="url(#paint7_linear_2109_24210)"/>
<path opacity="0.73" d="M100.425 260.206H48.9415C46.9565 260.205 45.0491 259.432 43.6192 258.051C42.1893 256.669 41.348 254.786 41.2717 252.796L40.1217 218.826C40.0863 217.792 40.2588 216.762 40.6289 215.796C40.999 214.83 41.5591 213.949 42.2758 213.205C42.9926 212.461 43.8513 211.87 44.8007 211.466C45.7502 211.063 46.7709 210.855 47.8021 210.855H101.47C102.497 210.856 103.514 211.064 104.46 211.467C105.406 211.869 106.262 212.458 106.978 213.198C107.693 213.938 108.253 214.815 108.624 215.777C108.995 216.738 109.171 217.764 109.14 218.795L108.085 252.775C108.014 254.767 107.176 256.654 105.748 258.04C104.32 259.425 102.412 260.202 100.425 260.206Z" fill="url(#paint8_linear_2109_24210)"/>
<path d="M100.423 260.449H48.9391C46.8766 260.456 44.893 259.654 43.4111 258.214C41.9292 256.775 41.066 254.812 41.0055 252.743L39.8556 218.774C39.8217 217.705 40.002 216.64 40.3858 215.642C40.7695 214.644 41.349 213.734 42.0898 212.965C42.8306 212.196 43.7176 211.584 44.6984 211.165C45.6792 210.747 46.7338 210.53 47.7997 210.527H101.467C102.531 210.528 103.583 210.743 104.561 211.16C105.54 211.576 106.426 212.185 107.165 212.951C107.905 213.717 108.484 214.624 108.868 215.619C109.252 216.614 109.433 217.676 109.401 218.742L108.346 252.722C108.294 254.793 107.435 256.762 105.954 258.206C104.474 259.65 102.488 260.456 100.423 260.449ZM47.7997 211.057C46.8055 211.056 45.8213 211.257 44.9062 211.647C43.9912 212.037 43.164 212.608 42.4744 213.327C41.7848 214.046 41.2469 214.897 40.893 215.829C40.539 216.761 40.3764 217.756 40.4147 218.752L41.5647 252.722C41.6196 254.65 42.4219 256.481 43.8009 257.825C45.1799 259.169 47.0271 259.921 48.9497 259.92H100.434C102.36 259.921 104.21 259.166 105.59 257.818C106.969 256.469 107.769 254.633 107.819 252.701L108.874 218.731C108.909 217.736 108.744 216.744 108.389 215.814C108.034 214.884 107.495 214.036 106.806 213.32C106.117 212.603 105.291 212.034 104.377 211.645C103.463 211.256 102.481 211.056 101.489 211.057H47.7997Z" fill="#953DA2"/>
<path d="M62.6682 223.02L49.9766 237.787L62.9108 248.796V243.111L55.4309 236.612L62.3728 228.736L62.6682 223.02Z" fill="white"/>
<path d="M84.9824 223.686L97.6845 238.442L84.7503 249.451V243.777L92.2302 237.278L83.9062 228.438L84.9824 223.686Z" fill="white"/>
<path d="M65.4414 248.795L76.4978 224.342H81.6989L69.1655 248.795H65.4414Z" fill="white"/>
<path d="M166.153 0L172.916 13.6026L168.4 15.6668L162.07 3.1757L166.153 0Z" fill="#FF1D9C"/>
<path d="M13.7578 316.872L20.0245 323.773L22.4826 320.926L16.5641 314.395L13.7578 316.872Z" fill="#6877FF"/>
<path fill-rule="evenodd" clip-rule="evenodd" d="M30.6477 128.108L31.6921 103.813H0L1.29764 128.033L30.6477 128.108Z" fill="url(#paint9_linear_2109_24210)"/>
<path fill-rule="evenodd" clip-rule="evenodd" d="M31.6929 103.813L32.6424 105.253L31.6929 128.108H30.6484L31.6929 103.813Z" fill="url(#paint10_linear_2109_24210)"/>
<path d="M19.4888 108.704C20.8513 108.625 22.2183 108.675 23.5716 108.852C24.1835 109.138 23.4134 114.823 23.4134 114.823L24.7954 116.093L23.5083 117.353C23.5083 117.353 23.5716 123.111 22.7593 123.598C21.9469 124.085 19.1406 123.598 19.1406 123.598V122.159C20.044 122.255 20.9571 122.198 21.8414 121.989C22.2212 121.682 22.1896 116.696 22.1896 116.696L22.8015 116.029L22.1896 115.299C22.1896 115.299 22.2951 111.711 22.1896 110.726C22.1896 110.07 19.4888 110.038 19.4888 110.038V108.704Z" fill="white"/>
<path d="M11.5203 108.704C10.1577 108.625 8.79081 108.675 7.43747 108.852C6.81502 109.138 7.59572 114.823 7.59572 114.823L6.20312 116.093L7.50078 117.353C7.50078 117.353 7.43747 123.111 8.24982 123.598C9.06217 124.085 11.8579 123.598 11.8579 123.598V122.159C10.9616 122.254 10.0555 122.197 9.17822 121.989C8.79842 121.682 8.83007 116.696 8.83007 116.696L8.21817 116.029L8.83007 115.299C8.83007 115.299 8.71402 111.711 8.83007 110.726C8.83007 110.07 11.5309 110.038 11.5309 110.038L11.5203 108.704Z" fill="white"/>
<path d="M63.5949 320.66L48.9727 310.011L49.2786 309.588L63.9114 320.237L63.5949 320.66Z" fill="#744CA2"/>
<path d="M61.7015 307.758L50.75 322.183L51.1696 322.503L62.1211 308.079L61.7015 307.758Z" fill="#744CA2"/>
<path d="M30.7649 159.055L30.5195 159.523L39.9894 164.516L40.2348 164.048L30.7649 159.055Z" fill="#744CA2"/>
<path d="M191.254 66.7125L190.781 66.9482L195.673 76.8144L196.145 76.5787L191.254 66.7125Z" fill="#744CA2"/>
<path d="M125.962 232.733L113.387 243.287L113.725 243.693L126.301 233.139L125.962 232.733Z" fill="#744CA2"/>
<defs>
<linearGradient id="paint0_linear_2109_24210" x1="108.124" y1="220.689" x2="76.4037" y2="152.194" gradientUnits="userSpaceOnUse">
<stop stop-color="#DBCCFF"/>
<stop offset="1" stop-color="#D1BBFF"/>
</linearGradient>
<linearGradient id="paint1_linear_2109_24210" x1="109.346" y1="223.372" x2="77.6261" y2="154.876" gradientUnits="userSpaceOnUse">
<stop stop-color="#B5A6E7"/>
<stop offset="1" stop-color="#7760BF"/>
</linearGradient>
<linearGradient id="paint2_linear_2109_24210" x1="139.651" y1="83.6584" x2="139.651" y2="57.5965" gradientUnits="userSpaceOnUse">
<stop stop-color="#D93DE3"/>
<stop offset="1" stop-color="#FF6DBA"/>
</linearGradient>
<linearGradient id="paint3_linear_2109_24210" x1="155.525" y1="83.6584" x2="155.525" y2="57.5965" gradientUnits="userSpaceOnUse">
<stop stop-color="#A242EA"/>
<stop offset="1" stop-color="#FE117E"/>
</linearGradient>
<linearGradient id="paint4_linear_2109_24210" x1="135.142" y1="358.229" x2="149.278" y2="246.023" gradientUnits="userSpaceOnUse">
<stop stop-color="#067EFF"/>
<stop offset="1" stop-color="#3E37A0"/>
</linearGradient>
<linearGradient id="paint5_linear_2109_24210" x1="20.0041" y1="191.685" x2="20.0041" y2="179.914" gradientUnits="userSpaceOnUse">
<stop stop-color="#459FFF"/>
<stop offset="1" stop-color="#A96DFF"/>
</linearGradient>
<linearGradient id="paint6_linear_2109_24210" x1="172.916" y1="111.965" x2="172.916" y2="105.274" gradientUnits="userSpaceOnUse">
<stop stop-color="#B31A8F"/>
<stop offset="1" stop-color="#FE117E"/>
</linearGradient>
<linearGradient id="paint7_linear_2109_24210" x1="49.6274" y1="292.556" x2="49.6274" y2="286.575" gradientUnits="userSpaceOnUse">
<stop stop-color="#8642A0"/>
<stop offset="1" stop-color="#6456C0"/>
</linearGradient>
<linearGradient id="paint8_linear_2109_24210" x1="74.6307" y1="260.206" x2="74.6307" y2="210.813" gradientUnits="userSpaceOnUse">
<stop stop-color="#D906E3"/>
<stop offset="1" stop-color="#FF6DF9"/>
</linearGradient>
<linearGradient id="paint9_linear_2109_24210" x1="20.5091" y1="130.849" x2="12.3025" y2="100.493" gradientUnits="userSpaceOnUse">
<stop stop-color="#188DC1"/>
<stop offset="1" stop-color="#06BFE7"/>
</linearGradient>
<linearGradient id="paint10_linear_2109_24210" x1="34.5097" y1="127.345" x2="28.3946" y2="104.713" gradientUnits="userSpaceOnUse">
<stop stop-color="#1852A0"/>
<stop offset="1" stop-color="#067ED3"/>
</linearGradient>
</defs>
</svg>
