<svg width="16" height="16" viewBox="0 0 16 16" fill="none" xmlns="http://www.w3.org/2000/svg">
<g clip-path="url(#clip0_3459_12801)">
<path d="M4.66536 14.6668H2.66536C2.31174 14.6668 1.9726 14.5264 1.72256 14.2763C1.47251 14.0263 1.33203 13.6871 1.33203 13.3335V8.66683C1.33203 8.31321 1.47251 7.97407 1.72256 7.72402C1.9726 7.47397 2.31174 7.3335 2.66536 7.3335H4.66536M9.33203 6.00016V3.3335C9.33203 2.80306 9.12132 2.29436 8.74625 1.91928C8.37117 1.54421 7.86246 1.3335 7.33203 1.3335L4.66536 7.3335V14.6668H12.1854C12.5069 14.6705 12.819 14.5578 13.064 14.3495C13.309 14.1412 13.4705 13.8514 13.5187 13.5335L14.4387 7.5335C14.4677 7.3424 14.4548 7.14728 14.4009 6.96166C14.347 6.77604 14.2534 6.60436 14.1266 6.45851C13.9998 6.31265 13.8428 6.19612 13.6664 6.11697C13.4901 6.03783 13.2986 5.99797 13.1054 6.00016H9.33203Z" stroke="url(#paint0_linear_3459_12801)" stroke-width="2" stroke-linecap="round" stroke-linejoin="round"/>
</g>
<defs>
<linearGradient id="paint0_linear_3459_12801" x1="0.99878" y1="-0.999878" x2="13.9988" y2="18.5001" gradientUnits="userSpaceOnUse">
<stop stop-color="#7F60F9"/>
<stop offset="1" stop-color="#6DDCFF"/>
</linearGradient>
<clipPath id="clip0_3459_12801">
<rect width="16" height="16" fill="white"/>
</clipPath>
</defs>
</svg>
