<svg width="40" height="40" viewBox="0 0 40 40" fill="none" xmlns="http://www.w3.org/2000/svg">
<g clip-path="url(#clip0_1304_10405)">
<path d="M36.25 0.9374H3.75C3.0126 0.929896 2.30233 1.21523 1.77506 1.73078C1.24778 2.24634 0.946566 2.95002 0.9375 3.6874V36.3187C0.948206 37.0549 1.25014 37.757 1.77724 38.2712C2.30434 38.7854 3.01367 39.0699 3.75 39.0624H36.25C36.9874 39.0682 37.6972 38.7819 38.2242 38.2661C38.7512 37.7502 39.0526 37.0467 39.0625 36.3093V3.67803C39.0493 2.9428 38.7465 2.24248 38.2199 1.72929C37.6932 1.2161 36.9853 0.931518 36.25 0.9374Z" fill="#0076B2"/>
<path d="M6.58086 15.228H12.2402V33.4374H6.58086V15.228ZM9.41211 6.16553C10.0612 6.16553 10.6957 6.35805 11.2354 6.71874C11.7751 7.07942 12.1956 7.59207 12.4439 8.19182C12.6921 8.79157 12.7569 9.45148 12.6301 10.0881C12.5032 10.7247 12.1904 11.3093 11.7312 11.7681C11.272 12.2268 10.687 12.5391 10.0503 12.6654C9.41363 12.7916 8.75378 12.7262 8.15426 12.4774C7.55475 12.2285 7.0425 11.8075 6.68233 11.2675C6.32216 10.7275 6.13024 10.0928 6.13086 9.44365C6.13169 8.57395 6.47776 7.74016 7.09302 7.12548C7.70828 6.5108 8.54241 6.16553 9.41211 6.16553ZM15.7902 15.228H21.2152V17.728H21.2902C22.0465 16.2968 23.8902 14.7874 26.6434 14.7874C32.3746 14.7749 33.4371 18.5468 33.4371 23.4374V33.4374H27.7777V24.578C27.7777 22.4687 27.7402 19.753 24.8371 19.753C21.934 19.753 21.4402 22.053 21.4402 24.4405V33.4374H15.7902V15.228Z" fill="white"/>
</g>
<defs>
<clipPath id="clip0_1304_10405">
<rect width="40" height="40" fill="white"/>
</clipPath>
</defs>
</svg>
