<svg width="68" height="50" viewBox="0 0 68 50" fill="none" xmlns="http://www.w3.org/2000/svg">
<g filter="url(#filter0_dd_2784_37797)">
<rect x="10" y="5" width="48" height="30" rx="4" fill="#000008"/>
<rect x="9.88462" y="4.88462" width="48.2308" height="30.2308" rx="4.11538" stroke="#D6DCE5" stroke-width="0.230769"/>
<path d="M29.1811 29.0802V27.8942C29.1882 27.7947 29.1734 27.6949 29.1376 27.6014C29.1019 27.5079 29.046 27.4229 28.9737 27.352C28.9014 27.2811 28.8143 27.2259 28.7184 27.1903C28.6224 27.1546 28.5196 27.1391 28.417 27.145C28.2824 27.1364 28.1478 27.1631 28.0274 27.2222C27.9069 27.2813 27.8051 27.3707 27.7324 27.481C27.6662 27.374 27.5714 27.2863 27.4581 27.2272C27.3448 27.168 27.2171 27.1396 27.0886 27.145C26.9765 27.1395 26.8649 27.1625 26.7649 27.2118C26.6648 27.261 26.5797 27.3347 26.5181 27.4257V27.1924H26.0943V29.0802H26.5222V28.0345C26.5127 27.9698 26.5181 27.9039 26.5381 27.8415C26.5581 27.7791 26.5922 27.7218 26.6378 27.6738C26.6835 27.6257 26.7395 27.5881 26.802 27.5637C26.8644 27.5392 26.9317 27.5286 26.9989 27.5324C27.2801 27.5324 27.4227 27.7103 27.4227 28.0306V29.0802H27.8506V28.0345C27.8419 27.97 27.8479 27.9043 27.8681 27.8423C27.8884 27.7802 27.9225 27.7232 27.968 27.6753C28.0135 27.6274 28.0692 27.5898 28.1313 27.5651C28.1934 27.5404 28.2603 27.5293 28.3274 27.5324C28.6167 27.5324 28.7552 27.7103 28.7552 28.0306V29.0802H29.1811ZM31.565 28.1373V27.1944H31.1371V27.4237C31.0652 27.3338 30.9723 27.2617 30.866 27.2136C30.7597 27.1655 30.6431 27.1426 30.5258 27.147C30.2556 27.147 29.9965 27.2511 29.8055 27.4365C29.6144 27.6218 29.5071 27.8732 29.5071 28.1353C29.5071 28.3974 29.6144 28.6488 29.8055 28.8342C29.9965 29.0195 30.2556 29.1237 30.5258 29.1237C30.6431 29.128 30.7597 29.1052 30.866 29.057C30.9723 29.0089 31.0652 28.9369 31.1371 28.8469V29.0762H31.5609L31.565 28.1373ZM29.99 28.1373C29.9967 28.0261 30.0369 27.9192 30.1054 27.8298C30.174 27.7404 30.2681 27.6724 30.376 27.6343C30.4839 27.5961 30.6009 27.5893 30.7127 27.6148C30.8245 27.6404 30.9262 27.6971 31.0052 27.7779C31.0842 27.8588 31.1371 27.9604 31.1574 28.07C31.1776 28.1797 31.1644 28.2927 31.1193 28.3952C31.0742 28.4977 30.9992 28.5851 30.9035 28.6468C30.8079 28.7084 30.6957 28.7416 30.5808 28.7422C30.4997 28.744 30.4191 28.7294 30.3442 28.6993C30.2692 28.6692 30.2016 28.6242 30.1456 28.5673C30.0896 28.5103 30.0465 28.4427 30.019 28.3686C29.9915 28.2946 29.9802 28.2158 29.9859 28.1373H29.99ZM40.6196 27.149C40.7591 27.1486 40.8974 27.1741 41.0271 27.2241C41.1508 27.2722 41.2637 27.3433 41.3592 27.4336C41.4534 27.523 41.5283 27.6299 41.5792 27.7479C41.6857 28.0013 41.6857 28.2851 41.5792 28.5386C41.5283 28.6566 41.4535 28.7634 41.3592 28.8528C41.2637 28.9431 41.1508 29.0143 41.0271 29.0624C40.7584 29.1637 40.4604 29.1637 40.1917 29.0624C40.0685 29.0143 39.9563 28.9431 39.8616 28.8528C39.7682 28.7631 39.6941 28.6563 39.6436 28.5386C39.5374 28.2851 39.5374 28.0014 39.6436 27.7479C39.6941 27.6302 39.7682 27.5234 39.8616 27.4336C39.9563 27.3433 40.0685 27.2721 40.1917 27.2241C40.326 27.1701 40.4701 27.1425 40.6155 27.143L40.6196 27.149ZM40.6196 27.5443C40.5366 27.5432 40.4542 27.558 40.3771 27.5878C40.3045 27.616 40.2386 27.6584 40.1835 27.7123C40.1274 27.7691 40.0837 27.8363 40.0552 27.91C39.9929 28.0678 39.9929 28.2424 40.0552 28.4002C40.0836 28.4739 40.1273 28.5412 40.1835 28.5979C40.2386 28.6518 40.3045 28.6942 40.3771 28.7224C40.5323 28.7814 40.7048 28.7814 40.86 28.7224C40.9361 28.6951 41.0055 28.6527 41.0637 28.5979C41.1201 28.5412 41.1637 28.4739 41.1921 28.4002C41.2543 28.2424 41.2543 28.0678 41.1921 27.91C41.1637 27.8362 41.1201 27.769 41.0637 27.7123C41.0055 27.6575 40.9361 27.6151 40.86 27.5878C40.7831 27.5536 40.7 27.5348 40.6155 27.5324L40.6196 27.5443ZM33.8673 28.1373C33.8673 27.5443 33.4883 27.149 32.9443 27.149C32.6741 27.1526 32.4165 27.2603 32.2281 27.4482C32.0398 27.6362 31.9361 27.889 31.9398 28.1511C31.9436 28.4133 32.0546 28.6632 32.2483 28.8459C32.442 29.0287 32.7027 29.1293 32.9729 29.1256C33.2629 29.1352 33.5465 29.041 33.7695 28.8608L33.5658 28.5563C33.4049 28.6815 33.2056 28.7511 32.9993 28.754C32.8593 28.7657 32.72 28.7239 32.6112 28.6375C32.5024 28.5512 32.4326 28.427 32.4166 28.2915H33.8612C33.8673 28.2421 33.8673 28.1926 33.8673 28.1373ZM32.4187 27.9713C32.4265 27.8458 32.4842 27.7281 32.5795 27.643C32.6749 27.5579 32.8005 27.5119 32.9301 27.5146C32.9935 27.5133 33.0565 27.5242 33.1157 27.5465C33.1748 27.5688 33.2287 27.6022 33.2745 27.6448C33.3203 27.6874 33.357 27.7383 33.3825 27.7947C33.408 27.851 33.4218 27.9117 33.4231 27.9732L32.4187 27.9713ZM35.6501 27.6748C35.464 27.5708 35.2536 27.515 35.0389 27.5127C34.8066 27.5127 34.668 27.5957 34.668 27.7341C34.668 27.8724 34.8147 27.8961 34.9981 27.9199L35.2019 27.9475C35.6257 28.0068 35.8824 28.1808 35.8824 28.5129C35.8824 28.8449 35.5564 29.1296 34.9961 29.1296C34.6958 29.1373 34.4008 29.0514 34.1546 28.8845L34.3583 28.5643C34.5453 28.6988 34.7735 28.7685 35.0063 28.7619C35.2956 28.7619 35.4504 28.6789 35.4504 28.5326C35.4504 28.4259 35.3404 28.3666 35.1081 28.335L34.9044 28.3073C34.4684 28.248 34.232 28.0582 34.232 27.7499C34.232 27.3743 34.5499 27.145 35.047 27.145C35.3253 27.136 35.6003 27.2046 35.8396 27.3427L35.6501 27.6748ZM37.6876 27.568H36.9969V28.42C36.9969 28.6176 37.0662 28.7362 37.2781 28.7362C37.4103 28.732 37.5393 28.6953 37.653 28.6295L37.7752 28.9813C37.6164 29.0775 37.4327 29.1282 37.2455 29.1276C36.7442 29.1276 36.569 28.8667 36.569 28.4279V27.568H36.1738V27.1924H36.569V26.6192H36.9969V27.1924H37.6876V27.568ZM39.1526 27.145C39.2554 27.1454 39.3573 27.1628 39.4541 27.1964L39.3237 27.5917C39.2395 27.5592 39.1495 27.543 39.0588 27.5443C38.7817 27.5443 38.6513 27.7182 38.6513 28.0306V29.0881H38.2275V27.2004H38.6473V27.4296C38.6993 27.343 38.7744 27.2715 38.8648 27.2228C38.9552 27.1741 39.0574 27.15 39.1607 27.1529L39.1526 27.145ZM42.0825 28.8054C42.109 28.8051 42.1353 28.8098 42.1599 28.8192C42.1833 28.8285 42.2047 28.8419 42.2231 28.8588C42.241 28.8758 42.2555 28.8959 42.2659 28.9181C42.2762 28.9412 42.2815 28.9661 42.2815 28.9912C42.2815 29.0164 42.2762 29.0413 42.2659 29.0644C42.2555 29.0865 42.241 29.1066 42.2231 29.1237C42.2047 29.1405 42.1833 29.1539 42.1599 29.1632C42.1355 29.1736 42.1091 29.179 42.0825 29.179C42.0439 29.1787 42.0061 29.1678 41.9736 29.1475C41.9412 29.1272 41.9153 29.0984 41.8991 29.0644C41.8889 29.0412 41.8836 29.0164 41.8836 28.9912C41.8836 28.9661 41.8889 28.9412 41.8991 28.9181C41.9095 28.8959 41.924 28.8758 41.9419 28.8588C41.9602 28.8419 41.9817 28.8285 42.0051 28.8192C42.0265 28.811 42.0492 28.8063 42.0723 28.8054H42.0825ZM42.0825 29.1395C42.1028 29.1396 42.1229 29.1355 42.1416 29.1276C42.1591 29.12 42.175 29.1093 42.1884 29.096C42.2057 29.0791 42.2185 29.0584 42.2256 29.0356C42.2328 29.0129 42.2341 28.9887 42.2295 28.9654C42.2249 28.942 42.2145 28.9201 42.1991 28.9015C42.1838 28.8829 42.1641 28.8683 42.1416 28.8588C42.1229 28.8509 42.1028 28.8469 42.0825 28.8469C42.0622 28.847 42.0421 28.8511 42.0234 28.8588C42.0051 28.8661 41.9885 28.8768 41.9745 28.8904C41.949 28.9174 41.9349 28.9526 41.9349 28.9892C41.9349 29.0258 41.949 29.0611 41.9745 29.0881C41.9886 29.1019 42.0054 29.1129 42.024 29.1204C42.0425 29.1279 42.0624 29.1317 42.0825 29.1316V29.1395ZM42.0947 28.9042C42.1137 28.9033 42.1325 28.9089 42.1477 28.9201C42.1539 28.9251 42.1588 28.9314 42.162 28.9387C42.1652 28.9459 42.1666 28.9537 42.166 28.9616C42.1663 28.9681 42.1652 28.9747 42.1627 28.9808C42.1603 28.9869 42.1565 28.9925 42.1518 28.9971C42.1399 29.0076 42.1249 29.0138 42.109 29.0149L42.1681 29.0802H42.1212L42.0662 29.0149H42.0478V29.0802H42.0091V28.8983L42.0947 28.9042ZM42.0499 28.9378V28.9853H42.0947C42.1027 28.9876 42.1112 28.9876 42.1192 28.9853C42.1206 28.9825 42.1213 28.9795 42.1213 28.9764C42.1213 28.9733 42.1206 28.9703 42.1192 28.9675C42.1206 28.9647 42.1213 28.9617 42.1213 28.9586C42.1213 28.9555 42.1206 28.9525 42.1192 28.9497C42.1112 28.9474 42.1027 28.9474 42.0947 28.9497L42.0499 28.9378Z" fill="white"/>
<path d="M37.0764 12.7904H30.6583V23.9804H37.0764V12.7904Z" fill="#7673C0"/>
<path d="M31.0658 18.3864C31.0646 17.3086 31.3162 16.2446 31.8016 15.2751C32.287 14.3056 32.9934 13.4559 33.8673 12.7904C32.7852 11.9654 31.4857 11.4524 30.1173 11.31C28.7489 11.1676 27.3668 11.4015 26.1289 11.9851C24.8911 12.5687 23.8475 13.4784 23.1173 14.6102C22.3872 15.742 22 17.0502 22 18.3854C22 19.7206 22.3872 21.0288 23.1173 22.1606C23.8475 23.2924 24.8911 24.2021 26.1289 24.7857C27.3668 25.3693 28.7489 25.6032 30.1173 25.4608C31.4857 25.3184 32.7852 24.8054 33.8673 23.9804C32.9936 23.3151 32.2874 22.4658 31.802 21.4966C31.3167 20.5275 31.0649 19.4639 31.0658 18.3864Z" fill="#EB001B"/>
<path d="M45.0348 22.7944V22.573H45.1306V22.5255H44.8881V22.573H44.9839V22.8023L45.0348 22.7944ZM45.5055 22.7944V22.5176H45.4321L45.3465 22.7153L45.261 22.5176H45.1856V22.7944H45.2386V22.5868L45.318 22.7667H45.373L45.4525 22.5868V22.7963L45.5055 22.7944Z" fill="#00A1DF"/>
<path d="M45.7337 18.3864C45.7333 19.7213 45.346 21.0292 44.6158 22.1607C43.8856 23.2922 42.8421 24.2016 41.6045 24.7851C40.3668 25.3685 38.985 25.6024 37.6168 25.4601C36.2487 25.3178 34.9493 24.8051 33.8673 23.9804C34.7406 23.3145 35.4467 22.4649 35.9322 21.4957C36.4177 20.5265 36.6699 19.463 36.6699 18.3854C36.6699 17.3078 36.4177 16.2443 35.9322 15.2751C35.4467 14.3059 34.7406 13.4563 33.8673 12.7904C34.9493 11.9652 36.2488 11.4519 37.6173 11.3093C38.9858 11.1666 40.3681 11.4005 41.6061 11.984C42.8441 12.5675 43.8878 13.4771 44.6181 14.609C45.3484 15.7408 45.7357 17.0491 45.7357 18.3844L45.7337 18.3864Z" fill="#00A1DF"/>
</g>
<defs>
<filter id="filter0_dd_2784_37797" x="0.534856" y="0.153903" width="66.9303" height="48.923" filterUnits="userSpaceOnUse" color-interpolation-filters="sRGB">
<feFlood flood-opacity="0" result="BackgroundImageFix"/>
<feColorMatrix in="SourceAlpha" type="matrix" values="0 0 0 0 0 0 0 0 0 0 0 0 0 0 0 0 0 0 127 0" result="hardAlpha"/>
<feOffset dy="0.461538"/>
<feGaussianBlur stdDeviation="2.30769"/>
<feColorMatrix type="matrix" values="0 0 0 0 0.717647 0 0 0 0 0.717647 0 0 0 0 0.717647 0 0 0 0.08 0"/>
<feBlend mode="normal" in2="BackgroundImageFix" result="effect1_dropShadow_2784_37797"/>
<feColorMatrix in="SourceAlpha" type="matrix" values="0 0 0 0 0 0 0 0 0 0 0 0 0 0 0 0 0 0 127 0" result="hardAlpha"/>
<feOffset dy="4.61538"/>
<feGaussianBlur stdDeviation="4.61538"/>
<feColorMatrix type="matrix" values="0 0 0 0 0.717647 0 0 0 0 0.717647 0 0 0 0 0.717647 0 0 0 0.08 0"/>
<feBlend mode="normal" in2="effect1_dropShadow_2784_37797" result="effect2_dropShadow_2784_37797"/>
<feBlend mode="normal" in="SourceGraphic" in2="effect2_dropShadow_2784_37797" result="shape"/>
</filter>
</defs>
</svg>
