<svg width="40" height="40" viewBox="0 0 40 40" fill="none" xmlns="http://www.w3.org/2000/svg">
<circle cx="20" cy="20" r="19.5" fill="white" stroke="url(#paint0_linear_4414_10788)"/>
<g clip-path="url(#clip0_4414_10788)">
<path d="M15.3333 8C13.9188 8 12.5623 8.5619 11.5621 9.5621C10.5619 10.5623 10 11.9188 10 13.3333V18.6667H11.3333V13.3333C11.3333 12.2725 11.7548 11.2551 12.5049 10.5049C13.2551 9.75476 14.2725 9.33333 15.3333 9.33333C16.3942 9.33333 17.4116 9.75476 18.1618 10.5049C18.9119 11.2551 19.3333 12.2725 19.3333 13.3333V18.6667H20.6667V13.3333C20.6667 11.9188 20.1048 10.5623 19.1046 9.5621C18.1044 8.5619 16.7478 8 15.3333 8Z" fill="#F4900C"/>
<path d="M8.66602 13.3333L9.99935 14.6666L11.3327 13.3333L12.666 14.6666L13.9993 13.3333L15.3327 14.6666L16.666 13.3333L17.9993 14.6666L19.3327 13.3333L20.666 14.6666L21.9993 13.3333V28.6666H8.66602V13.3333Z" fill="#DD2E44"/>
<path d="M24.6673 11.3333C23.2528 11.3333 21.8963 11.8952 20.8961 12.8953C19.8959 13.8955 19.334 15.2521 19.334 16.6666V21.9999H20.6673V16.6666C20.6673 15.6057 21.0887 14.5883 21.8389 13.8382C22.589 13.088 23.6065 12.6666 24.6673 12.6666C25.7282 12.6666 26.7456 13.088 27.4957 13.8382C28.2459 14.5883 28.6673 15.6057 28.6673 16.6666V21.9999H30.0007V16.6666C30.0007 15.2521 29.4387 13.8955 28.4386 12.8953C27.4384 11.8952 26.0818 11.3333 24.6673 11.3333Z" fill="#FFCC4D"/>
<path d="M18 16.6667L19.3333 18.0001L20.6667 16.6667L22 18.0001L23.3333 16.6667L24.6667 18.0001L26 16.6667L27.3333 18.0001L28.6667 16.6667L30 18.0001L31.3333 16.6667V32.0001H18V16.6667Z" fill="#744EAA"/>
</g>
<defs>
<linearGradient id="paint0_linear_4414_10788" x1="7" y1="4.5" x2="28.5" y2="40" gradientUnits="userSpaceOnUse">
<stop stop-color="#66CDED"/>
<stop offset="1" stop-color="#7F60F9"/>
</linearGradient>
<clipPath id="clip0_4414_10788">
<rect width="24" height="24" fill="white" transform="translate(8 8)"/>
</clipPath>
</defs>
</svg>
