<svg width="66" height="49" viewBox="0 0 66 49" fill="none" xmlns="http://www.w3.org/2000/svg">
<g filter="url(#filter0_dd_2784_37795)">
<rect x="10" y="5" width="46" height="30" rx="4" fill="#000008"/>
<rect x="9.88806" y="4.88806" width="46.2239" height="30.2239" rx="4.11194" stroke="#D6DCE5" stroke-width="0.223881"/>
<path d="M36.3007 14.0632H29.5279V26.3843H36.3007V14.0632Z" fill="#FF5F00"/>
<path d="M29.958 20.2238C29.9569 19.0372 30.2225 17.8659 30.7347 16.7985C31.2469 15.7312 31.9923 14.7958 32.9143 14.0632C31.7725 13.1546 30.4011 12.5896 28.957 12.4327C27.513 12.2758 26.0544 12.5333 24.7481 13.1759C23.4417 13.8185 22.3403 14.8202 21.5698 16.0665C20.7992 17.3128 20.3906 18.7535 20.3906 20.2238C20.3906 21.6941 20.7992 23.1347 21.5698 24.381C22.3403 25.6273 23.4417 26.629 24.7481 27.2716C26.0544 27.9142 27.513 28.1717 28.957 28.0148C30.4011 27.8579 31.7725 27.2929 32.9143 26.3843C31.9923 25.6517 31.2469 24.7163 30.7347 23.649C30.2225 22.5817 29.9569 21.4104 29.958 20.2238Z" fill="#EB001B"/>
<path d="M45.4377 20.2238C45.4377 21.694 45.0292 23.1347 44.2586 24.381C43.4881 25.6273 42.3868 26.629 41.0805 27.2716C39.7742 27.9142 38.3156 28.1717 36.8716 28.0148C35.4275 27.8579 34.0562 27.2929 32.9143 26.3843C33.8356 25.6509 34.5804 24.7154 35.0925 23.6483C35.6046 22.5811 35.8707 21.4102 35.8707 20.2238C35.8707 19.0373 35.6046 17.8664 35.0925 16.7993C34.5804 15.7321 33.8356 14.7966 32.9143 14.0632C34.0562 13.1546 35.4275 12.5896 36.8716 12.4327C38.3156 12.2758 39.7742 12.5334 41.0805 13.176C42.3868 13.8186 43.4881 14.8203 44.2586 16.0666C45.0292 17.3129 45.4377 18.7535 45.4377 20.2238Z" fill="#F79E1B"/>
<path d="M44.6992 25.0793V24.827H44.7997V24.7757H44.5438V24.827H44.6443V25.0793H44.6992ZM45.196 25.0793V24.7752H45.1176L45.0273 24.9843L44.9371 24.7752H44.8586V25.0793H44.914V24.8499L44.9986 25.0477H45.056L45.1406 24.8494V25.0793H45.196Z" fill="#F79E1B"/>
</g>
<defs>
<filter id="filter0_dd_2784_37795" x="0.818213" y="0.298511" width="64.3636" height="48.3582" filterUnits="userSpaceOnUse" color-interpolation-filters="sRGB">
<feFlood flood-opacity="0" result="BackgroundImageFix"/>
<feColorMatrix in="SourceAlpha" type="matrix" values="0 0 0 0 0 0 0 0 0 0 0 0 0 0 0 0 0 0 127 0" result="hardAlpha"/>
<feOffset dy="0.447761"/>
<feGaussianBlur stdDeviation="2.23881"/>
<feColorMatrix type="matrix" values="0 0 0 0 0.717647 0 0 0 0 0.717647 0 0 0 0 0.717647 0 0 0 0.08 0"/>
<feBlend mode="normal" in2="BackgroundImageFix" result="effect1_dropShadow_2784_37795"/>
<feColorMatrix in="SourceAlpha" type="matrix" values="0 0 0 0 0 0 0 0 0 0 0 0 0 0 0 0 0 0 127 0" result="hardAlpha"/>
<feOffset dy="4.47761"/>
<feGaussianBlur stdDeviation="4.47761"/>
<feColorMatrix type="matrix" values="0 0 0 0 0.717647 0 0 0 0 0.717647 0 0 0 0 0.717647 0 0 0 0.08 0"/>
<feBlend mode="normal" in2="effect1_dropShadow_2784_37795" result="effect2_dropShadow_2784_37795"/>
<feBlend mode="normal" in="SourceGraphic" in2="effect2_dropShadow_2784_37795" result="shape"/>
</filter>
</defs>
</svg>
