<svg width="200" height="200" viewBox="0 0 200 200" fill="none" xmlns="http://www.w3.org/2000/svg">
<path d="M141.988 65.5563C141.988 65.5563 144.471 66.5963 145.379 69.2067C145.379 69.2067 145.107 65.0967 147.014 63.4619C147.014 63.4619 145.288 64.8243 144.925 66.8223C144.925 66.8223 143.955 65.8339 141.988 65.5563Z" fill="#263238"/>
<path d="M133.532 55.249C133.532 55.249 136.692 57.7054 137.556 59.969C137.556 59.969 138.038 57.5386 140.329 56.8138C140.329 56.8138 138.677 56.6854 137.556 58.2198C137.556 58.2198 136.358 56.2418 133.532 55.249Z" fill="#263238"/>
<path d="M130.154 65.9321C130.154 65.9321 132.745 65.5197 133.982 67.1097C133.982 67.1097 133.216 64.7541 133.982 63.1641C133.982 63.1641 132.961 63.8197 133.314 66.1853C133.314 66.1853 132.333 65.1665 130.154 65.9321Z" fill="#263238"/>
<path d="M200 152.96H0V153.06H200V152.96Z" fill="#EBEBEB"/>
<path d="M55.0639 155.684H41.8159V155.784H55.0639V155.684Z" fill="#EBEBEB"/>
<path d="M84.7561 159.348H68.4561V159.448H84.7561V159.348Z" fill="#EBEBEB"/>
<path d="M41.4159 158.096H20.9839V158.196H41.4159V158.096Z" fill="#EBEBEB"/>
<path d="M179.96 156.356H142.704V156.456H179.96V156.356Z" fill="#EBEBEB"/>
<path d="M127.776 158.044H110.884V158.144H127.776V158.044Z" fill="#EBEBEB"/>
<path d="M94.7999 135.12H17.5639C16.3039 135.118 15.2839 134.096 15.2839 132.836V24.264C15.2947 23.012 16.3119 22.002 17.5639 22H94.7999C96.0611 22 97.0839 23.0224 97.0839 24.284V132.836C97.0839 134.097 96.0611 135.12 94.7999 135.12ZM17.5639 22.08C16.3591 22.0824 15.3839 23.0592 15.3839 24.264V132.836C15.3839 134.041 16.3591 135.018 17.5639 135.02H94.7999C96.0051 135.018 96.9815 134.041 96.9839 132.836V24.264C96.9815 23.0588 96.0051 22.0824 94.7999 22.08H17.5639Z" fill="#EBEBEB"/>
<path d="M181.324 135.12H104.084C102.824 135.118 101.802 134.096 101.8 132.836V24.264C101.813 23.0112 102.831 22.002 104.084 22H181.324C182.574 22.0044 183.589 23.0136 183.6 24.264V132.836C183.6 134.094 182.582 135.116 181.324 135.12ZM104.084 22.08C102.879 22.0824 101.902 23.0588 101.9 24.264V132.836C101.902 134.041 102.879 135.018 104.084 135.02H181.324C182.529 135.018 183.506 134.041 183.508 132.836V24.264C183.506 23.0588 182.529 22.0824 181.324 22.08H104.084Z" fill="#EBEBEB"/>
<path d="M85.8896 43.3006H117.91C117.91 43.3006 115.969 40.251 112.642 41.7758C112.642 41.7758 112.019 38.5878 109.87 38.5182C107.722 38.449 106.959 40.1122 106.959 40.1122C106.959 40.1122 104.464 36.231 100.652 37.0626C96.8401 37.8942 96.4936 41.429 96.4936 41.429C96.4936 41.429 90.8104 38.5182 85.8896 43.3006Z" fill="#FAFAFA"/>
<path d="M27.3601 87.8822H59.3805C59.3805 87.8822 57.4397 84.8326 54.1129 86.3574C54.1129 86.3574 53.4893 83.1694 51.3405 83.0998C49.1921 83.0306 48.4297 84.6938 48.4297 84.6938C48.4297 84.6938 45.9345 80.8126 42.1225 81.6442C38.3105 82.4758 37.9641 86.0106 37.9641 86.0106C37.9641 86.0106 32.2809 83.1002 27.3601 87.8822Z" fill="#FAFAFA"/>
<path d="M149.021 66.325H181.041C181.041 66.325 179.1 63.2754 175.774 64.8002C175.774 64.8002 175.15 61.6118 173.001 61.5426C170.853 61.4734 170.09 63.1366 170.09 63.1366C170.09 63.1366 167.595 59.2554 163.783 60.087C159.971 60.9186 159.625 64.4534 159.625 64.4534C159.625 64.4534 153.942 61.5426 149.021 66.325Z" fill="#FAFAFA"/>
<path d="M147.053 47.2891C147.466 45.5457 146.388 43.7974 144.645 43.3843C142.901 42.9712 141.153 44.0495 140.74 45.793C140.327 47.5364 141.405 49.2846 143.148 49.6978C144.892 50.1109 146.64 49.0325 147.053 47.2891Z" fill="#F0F0F0"/>
<path d="M24.3 66.325H56.3204C56.3204 66.325 54.3796 63.2754 51.0528 64.8002C51.0528 64.8002 50.4292 61.6118 48.2804 61.5426C46.132 61.4734 45.3696 63.1366 45.3696 63.1366C45.3696 63.1366 42.8744 59.2554 39.0624 60.087C35.2504 60.9186 34.904 64.4534 34.904 64.4534C34.904 64.4534 29.2212 61.5426 24.3 66.325Z" fill="#FAFAFA"/>
<path d="M81.7131 76.0264H47.7595V142.288H81.7131V76.0264Z" fill="#E6E6E6"/>
<path d="M75.5399 76.0264H47.7595V142.288H75.5399V76.0264Z" fill="#F0F0F0"/>
<path d="M82.1123 76.0264H47.0291V77.1076H82.1123V76.0264Z" fill="#E0E0E0"/>
<path d="M82.1123 73.8638H47.0291V74.945H82.1123V73.8638Z" fill="#E0E0E0"/>
<path d="M81.3751 74.9453H47.7595V76.0265H81.3751V74.9453Z" fill="#F0F0F0"/>
<path d="M55.6147 79.9272H50.3967V85.1453H55.6147V79.9272Z" fill="#E6E6E6"/>
<path d="M55.6147 79.9272H50.8567V85.1453H55.6147V79.9272Z" fill="#F5F5F5"/>
<path d="M63.5159 79.9272H58.2979V85.1453H63.5159V79.9272Z" fill="#E6E6E6"/>
<path d="M63.5158 79.9272H58.7578V85.1453H63.5158V79.9272Z" fill="#F5F5F5"/>
<path d="M71.4175 79.9272H66.1995V85.1453H71.4175V79.9272Z" fill="#E6E6E6"/>
<path d="M71.4174 79.9272H66.6594V85.1453H71.4174V79.9272Z" fill="#F5F5F5"/>
<path d="M55.6147 87.6104H50.3967V92.8284H55.6147V87.6104Z" fill="#E6E6E6"/>
<path d="M55.6147 87.6104H50.8567V92.8284H55.6147V87.6104Z" fill="#F5F5F5"/>
<path d="M63.5159 87.6104H58.2979V92.8284H63.5159V87.6104Z" fill="#E6E6E6"/>
<path d="M63.5158 87.6104H58.7578V92.8284H63.5158V87.6104Z" fill="#F5F5F5"/>
<path d="M71.4175 87.6104H66.1995V92.8284H71.4175V87.6104Z" fill="#E6E6E6"/>
<path d="M71.4174 87.6104H66.6594V92.8284H71.4174V87.6104Z" fill="#F5F5F5"/>
<path d="M55.6147 101.681H50.3967V106.899H55.6147V101.681Z" fill="#E6E6E6"/>
<path d="M55.6147 101.681H50.8567V106.899H55.6147V101.681Z" fill="#F5F5F5"/>
<path d="M63.5159 101.681H58.2979V106.899H63.5159V101.681Z" fill="#E6E6E6"/>
<path d="M63.5158 101.681H58.7578V106.899H63.5158V101.681Z" fill="#F5F5F5"/>
<path d="M71.4175 101.681H66.1995V106.899H71.4175V101.681Z" fill="#E6E6E6"/>
<path d="M71.4174 101.681H66.6594V106.899H71.4174V101.681Z" fill="#F5F5F5"/>
<path d="M55.6147 109.365H50.3967V114.583H55.6147V109.365Z" fill="#E6E6E6"/>
<path d="M55.6147 109.365H50.8567V114.583H55.6147V109.365Z" fill="#F5F5F5"/>
<path d="M63.5159 109.365H58.2979V114.583H63.5159V109.365Z" fill="#E6E6E6"/>
<path d="M63.5158 109.365H58.7578V114.583H63.5158V109.365Z" fill="#F5F5F5"/>
<path d="M71.4175 109.365H66.1995V114.583H71.4175V109.365Z" fill="#E6E6E6"/>
<path d="M71.4174 109.365H66.6594V114.583H71.4174V109.365Z" fill="#F5F5F5"/>
<path d="M55.6147 125.001H50.3967V130.219H55.6147V125.001Z" fill="#E6E6E6"/>
<path d="M55.6147 125.001H50.8567V130.219H55.6147V125.001Z" fill="#F5F5F5"/>
<path d="M63.5159 125.001H58.2979V130.219H63.5159V125.001Z" fill="#E6E6E6"/>
<path d="M63.5158 125.001H58.7578V130.219H63.5158V125.001Z" fill="#F5F5F5"/>
<path d="M71.4175 125.001H66.1995V130.219H71.4175V125.001Z" fill="#E6E6E6"/>
<path d="M71.4174 125.001H66.6594V130.219H71.4174V125.001Z" fill="#F5F5F5"/>
<path d="M55.6147 132.685H50.3967V137.903H55.6147V132.685Z" fill="#E6E6E6"/>
<path d="M55.6147 132.685H50.8567V137.903H55.6147V132.685Z" fill="#F5F5F5"/>
<path d="M63.5159 132.685H58.2979V137.903H63.5159V132.685Z" fill="#E6E6E6"/>
<path d="M63.5158 132.685H58.7578V137.903H63.5158V132.685Z" fill="#F5F5F5"/>
<path d="M71.4175 132.685H66.1995V137.903H71.4175V132.685Z" fill="#E6E6E6"/>
<path d="M71.4174 132.685H66.6594V137.903H71.4174V132.685Z" fill="#F5F5F5"/>
<path d="M81.7131 96.4976H47.7595V96.9804H81.7131V96.4976Z" fill="#E0E0E0"/>
<path d="M81.7131 120.548H47.7595V121.031H81.7131V120.548Z" fill="#E0E0E0"/>
<path d="M42.0258 95.8677H18.5422V153.01H42.0258V95.8677Z" fill="#E0E0E0"/>
<path d="M35.3374 95.8677H18.5422V153.01H35.3374V95.8677Z" fill="#F0F0F0"/>
<path d="M26.5238 100.563H20.2734V103.598H26.5238V100.563Z" fill="#E6E6E6"/>
<path d="M26.5235 100.563H20.6895V103.598H26.5235V100.563Z" fill="#F5F5F5"/>
<path d="M33.7532 100.563H27.5032V103.598H33.7532V100.563Z" fill="#E6E6E6"/>
<path d="M33.7532 100.563H27.9192V103.598H33.7532V100.563Z" fill="#F5F5F5"/>
<path d="M26.5238 106.275H20.2734V109.31H26.5238V106.275Z" fill="#E6E6E6"/>
<path d="M26.5235 106.275H20.6895V109.31H26.5235V106.275Z" fill="#F5F5F5"/>
<path d="M33.7532 106.275H27.5032V109.31H33.7532V106.275Z" fill="#E6E6E6"/>
<path d="M33.7532 106.275H27.9192V109.31H33.7532V106.275Z" fill="#F5F5F5"/>
<path d="M26.5238 113.574H20.2734V116.609H26.5238V113.574Z" fill="#E6E6E6"/>
<path d="M26.5235 113.574H20.6895V116.609H26.5235V113.574Z" fill="#F5F5F5"/>
<path d="M33.7532 113.574H27.5032V116.609H33.7532V113.574Z" fill="#E6E6E6"/>
<path d="M33.7532 113.574H27.9192V116.609H33.7532V113.574Z" fill="#F5F5F5"/>
<path d="M26.5238 117.769H20.2734V120.803H26.5238V117.769Z" fill="#E6E6E6"/>
<path d="M26.5235 117.769H20.6895V120.803H26.5235V117.769Z" fill="#F5F5F5"/>
<path d="M33.7532 117.769H27.5032V120.803H33.7532V117.769Z" fill="#E6E6E6"/>
<path d="M33.7532 117.769H27.9192V120.803H33.7532V117.769Z" fill="#F5F5F5"/>
<path d="M26.5238 124.658H20.2734V127.693H26.5238V124.658Z" fill="#E6E6E6"/>
<path d="M26.5235 124.658H20.6895V127.693H26.5235V124.658Z" fill="#F5F5F5"/>
<path d="M33.7532 124.658H27.5032V127.693H33.7532V124.658Z" fill="#E6E6E6"/>
<path d="M33.7532 124.658H27.9192V127.693H33.7532V124.658Z" fill="#F5F5F5"/>
<path d="M26.5238 128.853H20.2734V131.887H26.5238V128.853Z" fill="#E6E6E6"/>
<path d="M26.5235 128.853H20.6895V131.887H26.5235V128.853Z" fill="#F5F5F5"/>
<path d="M33.7532 128.853H27.5032V131.887H33.7532V128.853Z" fill="#E6E6E6"/>
<path d="M33.7532 128.853H27.9192V131.887H33.7532V128.853Z" fill="#F5F5F5"/>
<path d="M26.5238 136.351H20.2734V139.385H26.5238V136.351Z" fill="#E6E6E6"/>
<path d="M26.5235 136.351H20.6895V139.385H26.5235V136.351Z" fill="#F5F5F5"/>
<path d="M33.7532 136.351H27.5032V139.385H33.7532V136.351Z" fill="#E6E6E6"/>
<path d="M33.7532 136.351H27.9192V139.385H33.7532V136.351Z" fill="#F5F5F5"/>
<path d="M26.5238 141.89H20.2734V144.924H26.5238V141.89Z" fill="#E6E6E6"/>
<path d="M26.5235 141.89H20.6895V144.924H26.5235V141.89Z" fill="#F5F5F5"/>
<path d="M33.7532 141.89H27.5032V144.924H33.7532V141.89Z" fill="#E6E6E6"/>
<path d="M33.7532 141.89H27.9192V144.924H33.7532V141.89Z" fill="#F5F5F5"/>
<path opacity="0.05" d="M42.0258 111.181H18.5422V111.703H42.0258V111.181Z" fill="black"/>
<path opacity="0.05" d="M42.0258 122.47H18.5422V122.992H42.0258V122.47Z" fill="black"/>
<path opacity="0.05" d="M42.0258 133.858H18.5422V134.38H42.0258V133.858Z" fill="black"/>
<path d="M42.0259 94.1772H17.4363V96.0024H42.0259V94.1772Z" fill="#E0E0E0"/>
<path opacity="0.05" d="M42.0262 94.1772H36.407V96.0024H42.0262V94.1772Z" fill="black"/>
<path d="M123.32 66.1045H95.7441V137.772H123.32V66.1045Z" fill="#E6E6E6"/>
<path d="M113.113 66.104H85.5359V137.772H113.113V66.104Z" fill="#F0F0F0"/>
<path d="M110.707 70.9697H87.9424V74.6201H110.707V70.9697Z" fill="#E6E6E6"/>
<path d="M110.707 70.9697H88.8259V74.6201H110.707V70.9697Z" fill="#F5F5F5"/>
<path d="M110.707 77.1138H87.9424V80.7642H110.707V77.1138Z" fill="#E6E6E6"/>
<path d="M110.707 77.1138H88.8259V80.7642H110.707V77.1138Z" fill="#F5F5F5"/>
<path d="M110.707 83.5005H87.9424V87.1509H110.707V83.5005Z" fill="#E6E6E6"/>
<path d="M110.707 83.5005H88.8259V87.1509H110.707V83.5005Z" fill="#F5F5F5"/>
<path d="M110.707 89.8867H87.9424V93.5371H110.707V89.8867Z" fill="#E6E6E6"/>
<path d="M110.707 89.8867H88.8259V93.5371H110.707V89.8867Z" fill="#F5F5F5"/>
<path d="M110.707 96.2729H87.9424V99.9234H110.707V96.2729Z" fill="#E6E6E6"/>
<path d="M110.707 96.2729H88.8259V99.9234H110.707V96.2729Z" fill="#F5F5F5"/>
<path d="M110.707 102.66H87.9424V106.31H110.707V102.66Z" fill="#E6E6E6"/>
<path d="M110.707 102.66H88.8259V106.31H110.707V102.66Z" fill="#F5F5F5"/>
<path d="M110.707 109.698H87.9424V113.348H110.707V109.698Z" fill="#E6E6E6"/>
<path d="M110.707 109.698H88.8259V113.348H110.707V109.698Z" fill="#F5F5F5"/>
<path d="M110.707 116.736H87.9424V120.386H110.707V116.736Z" fill="#E6E6E6"/>
<path d="M110.707 116.736H88.8259V120.386H110.707V116.736Z" fill="#F5F5F5"/>
<path d="M110.707 123.774H87.9424V127.424H110.707V123.774Z" fill="#E6E6E6"/>
<path d="M110.707 123.774H88.8259V127.424H110.707V123.774Z" fill="#F5F5F5"/>
<path d="M110.707 130.812H87.9424V134.463H110.707V130.812Z" fill="#E6E6E6"/>
<path d="M110.707 130.812H88.8259V134.463H110.707V130.812Z" fill="#F5F5F5"/>
<path d="M124.036 65.3828H84.7559V67.1316H124.036V65.3828Z" fill="#E0E0E0"/>
<path d="M124.036 62.2275H84.7559V63.9763H124.036V62.2275Z" fill="#E0E0E0"/>
<path d="M122.731 63.6338H85.5359V65.3826H122.731V63.6338Z" fill="#F0F0F0"/>
<path d="M123.32 70.9683H115.636V74.6203H123.32V70.9683Z" fill="#E0E0E0"/>
<path d="M123.32 76.9771H115.636V80.6291H123.32V76.9771Z" fill="#E0E0E0"/>
<path d="M123.32 82.9863H115.636V86.6383H123.32V82.9863Z" fill="#E0E0E0"/>
<path d="M123.32 89.8857H115.636V93.5377H123.32V89.8857Z" fill="#E0E0E0"/>
<path d="M123.32 96.2725H115.636V99.9245H123.32V96.2725Z" fill="#E0E0E0"/>
<path d="M123.32 102.659H115.636V106.311H123.32V102.659Z" fill="#E0E0E0"/>
<path d="M123.32 109.697H115.636V113.349H123.32V109.697Z" fill="#E0E0E0"/>
<path d="M123.32 116.735H115.636V120.387H123.32V116.735Z" fill="#E0E0E0"/>
<path d="M123.32 123.773H115.636V127.425H123.32V123.773Z" fill="#E0E0E0"/>
<path d="M123.32 130.812H115.636V134.464H123.32V130.812Z" fill="#E0E0E0"/>
<path d="M185.737 121.076H183.525V124.536H185.737V121.076Z" fill="#E0E0E0"/>
<path d="M185.737 126.738H183.525V130.198H185.737V126.738Z" fill="#E0E0E0"/>
<path d="M185.737 132.241H183.525V135.701H185.737V132.241Z" fill="#E0E0E0"/>
<path d="M185.737 138.06H183.525V141.52H185.737V138.06Z" fill="#E0E0E0"/>
<path d="M185.737 143.721H183.525V147.181H185.737V143.721Z" fill="#E0E0E0"/>
<path d="M185.737 117.6H162.469V152.988H185.737V117.6Z" fill="#E6E6E6"/>
<path d="M181.807 117.599H162.471V152.987H181.807V117.599Z" fill="#F0F0F0"/>
<path d="M179.935 121.078H164.21V124.537H179.935V121.078Z" fill="#EBEBEB"/>
<path d="M179.935 126.738H164.21V130.198H179.935V126.738Z" fill="#EBEBEB"/>
<path d="M179.935 132.399H164.21V135.859H179.935V132.399Z" fill="#EBEBEB"/>
<path d="M179.935 138.06H164.21V141.52H179.935V138.06Z" fill="#EBEBEB"/>
<path d="M179.935 143.721H164.21V147.181H179.935V143.721Z" fill="#EBEBEB"/>
<path d="M179.935 121.078H164.79V124.537H179.935V121.078Z" fill="#F5F5F5"/>
<path d="M179.935 126.738H164.79V130.198H179.935V126.738Z" fill="#F5F5F5"/>
<path d="M179.935 132.399H164.79V135.859H179.935V132.399Z" fill="#F5F5F5"/>
<path d="M179.935 138.061H164.79V141.52H179.935V138.061Z" fill="#F5F5F5"/>
<path d="M179.935 143.721H164.79V147.181H179.935V143.721Z" fill="#F5F5F5"/>
<path d="M87.3194 87.8076H47.707V165.112H87.3194V87.8076Z" fill="#8E9FAA"/>
<path opacity="0.4" d="M80.1174 87.8076H47.707V165.112H80.1174V87.8076Z" fill="white"/>
<path d="M87.7854 87.8071H46.8542V89.0671H87.7854V87.8071Z" fill="#8E9FAA"/>
<path d="M87.7854 85.2822H46.8542V86.547H87.7854V85.2822Z" fill="#8E9FAA"/>
<path d="M86.9267 86.5469H47.7083V87.8069H86.9267V86.5469Z" fill="#F0F0F0"/>
<path d="M56.8715 92.3584H50.7839V98.446H56.8715V92.3584Z" fill="#8E9FAA"/>
<path opacity="0.2" d="M56.8716 92.3584H51.3208V98.446H56.8716V92.3584Z" fill="white"/>
<path d="M66.09 92.3584H60.0024V98.446H66.09V92.3584Z" fill="#8E9FAA"/>
<path opacity="0.2" d="M66.0896 92.3584H60.5388V98.446H66.0896V92.3584Z" fill="white"/>
<path d="M75.3078 92.3584H69.2202V98.446H75.3078V92.3584Z" fill="#8E9FAA"/>
<path opacity="0.2" d="M75.3079 92.3584H69.7571V98.446H75.3079V92.3584Z" fill="white"/>
<path d="M56.8715 101.322H50.7839V107.409H56.8715V101.322Z" fill="#8E9FAA"/>
<path opacity="0.2" d="M56.8716 101.322H51.3208V107.409H56.8716V101.322Z" fill="white"/>
<path d="M66.09 101.322H60.0024V107.409H66.09V101.322Z" fill="#8E9FAA"/>
<path opacity="0.2" d="M66.0896 101.322H60.5388V107.409H66.0896V101.322Z" fill="white"/>
<path d="M75.3078 101.322H69.2202V107.409H75.3078V101.322Z" fill="#8E9FAA"/>
<path opacity="0.2" d="M75.3079 101.322H69.7571V107.409H75.3079V101.322Z" fill="white"/>
<path d="M56.8715 117.738H50.7839V123.825H56.8715V117.738Z" fill="#8E9FAA"/>
<path opacity="0.2" d="M56.8716 117.738H51.3208V123.825H56.8716V117.738Z" fill="white"/>
<path d="M66.09 117.738H60.0024V123.825H66.09V117.738Z" fill="#8E9FAA"/>
<path opacity="0.2" d="M66.0896 117.738H60.5388V123.825H66.0896V117.738Z" fill="white"/>
<path d="M75.3078 117.738H69.2202V123.825H75.3078V117.738Z" fill="#8E9FAA"/>
<path opacity="0.2" d="M75.3079 117.738H69.7571V123.825H75.3079V117.738Z" fill="white"/>
<path d="M56.8715 126.702H50.7839V132.789H56.8715V126.702Z" fill="#8E9FAA"/>
<path opacity="0.2" d="M56.8716 126.702H51.3208V132.789H56.8716V126.702Z" fill="white"/>
<path d="M66.09 126.702H60.0024V132.789H66.09V126.702Z" fill="#8E9FAA"/>
<path opacity="0.2" d="M66.0896 126.702H60.5388V132.789H66.0896V126.702Z" fill="white"/>
<path d="M75.3078 126.702H69.2202V132.789H75.3078V126.702Z" fill="#8E9FAA"/>
<path opacity="0.2" d="M75.3079 126.702H69.7571V132.789H75.3079V126.702Z" fill="white"/>
<path d="M56.8715 144.944H50.7839V151.032H56.8715V144.944Z" fill="#8E9FAA"/>
<path opacity="0.2" d="M56.8716 144.944H51.3208V151.032H56.8716V144.944Z" fill="white"/>
<path d="M66.09 144.944H60.0024V151.032H66.09V144.944Z" fill="#8E9FAA"/>
<path opacity="0.2" d="M66.0896 144.944H60.5388V151.032H66.0896V144.944Z" fill="white"/>
<path d="M75.3078 144.944H69.2202V151.032H75.3078V144.944Z" fill="#8E9FAA"/>
<path opacity="0.2" d="M75.3079 144.944H69.7571V151.032H75.3079V144.944Z" fill="white"/>
<path d="M56.8715 153.908H50.7839V159.995H56.8715V153.908Z" fill="#8E9FAA"/>
<path opacity="0.2" d="M56.8716 153.908H51.3208V159.995H56.8716V153.908Z" fill="white"/>
<path d="M66.09 153.908H60.0024V159.995H66.09V153.908Z" fill="#8E9FAA"/>
<path opacity="0.2" d="M66.0896 153.908H60.5388V159.995H66.0896V153.908Z" fill="white"/>
<path d="M75.3078 153.908H69.2202V159.995H75.3078V153.908Z" fill="#8E9FAA"/>
<path opacity="0.2" d="M75.3079 153.908H69.7571V159.995H75.3079V153.908Z" fill="white"/>
<path opacity="0.2" d="M87.3194 111.69H47.707V112.254H87.3194V111.69Z" fill="white"/>
<path opacity="0.2" d="M87.3194 139.749H47.707V140.312H87.3194V139.749Z" fill="white"/>
<path d="M141.862 98.4458H114.464V165.112H141.862V98.4458Z" fill="#8E9FAA"/>
<path opacity="0.4" d="M135.306 98.4458H114.464V165.112H135.306V98.4458Z" fill="white"/>
<path d="M123.776 103.925H116.484V107.465H123.776V103.925Z" fill="#8E9FAA"/>
<path opacity="0.2" d="M123.776 103.925H116.969V107.465H123.776V103.925Z" fill="white"/>
<path d="M132.21 103.925H124.918V107.465H132.21V103.925Z" fill="#8E9FAA"/>
<path opacity="0.2" d="M132.21 103.925H125.404V107.465H132.21V103.925Z" fill="white"/>
<path d="M123.776 110.588H116.484V114.128H123.776V110.588Z" fill="#8E9FAA"/>
<path opacity="0.2" d="M123.776 110.588H116.969V114.128H123.776V110.588Z" fill="white"/>
<path d="M132.21 110.588H124.918V114.128H132.21V110.588Z" fill="#8E9FAA"/>
<path opacity="0.2" d="M132.21 110.588H125.404V114.128H132.21V110.588Z" fill="white"/>
<path d="M123.776 119.104H116.484V122.644H123.776V119.104Z" fill="#8E9FAA"/>
<path opacity="0.2" d="M123.776 119.104H116.969V122.644H123.776V119.104Z" fill="white"/>
<path d="M132.21 119.104H124.918V122.644H132.21V119.104Z" fill="#8E9FAA"/>
<path opacity="0.2" d="M132.21 119.104H125.404V122.644H132.21V119.104Z" fill="white"/>
<path d="M123.776 123.997H116.484V127.537H123.776V123.997Z" fill="#8E9FAA"/>
<path opacity="0.2" d="M123.776 123.997H116.969V127.537H123.776V123.997Z" fill="white"/>
<path d="M132.21 123.997H124.918V127.537H132.21V123.997Z" fill="#8E9FAA"/>
<path opacity="0.2" d="M132.21 123.997H125.404V127.537H132.21V123.997Z" fill="white"/>
<path d="M123.776 132.035H116.484V135.575H123.776V132.035Z" fill="#8E9FAA"/>
<path opacity="0.2" d="M123.776 132.035H116.969V135.575H123.776V132.035Z" fill="white"/>
<path d="M132.21 132.035H124.918V135.575H132.21V132.035Z" fill="#8E9FAA"/>
<path opacity="0.2" d="M132.21 132.035H125.404V135.575H132.21V132.035Z" fill="white"/>
<path d="M123.776 136.928H116.484V140.468H123.776V136.928Z" fill="#8E9FAA"/>
<path opacity="0.2" d="M123.776 136.928H116.969V140.468H123.776V136.928Z" fill="white"/>
<path d="M132.21 136.928H124.918V140.468H132.21V136.928Z" fill="#8E9FAA"/>
<path opacity="0.2" d="M132.21 136.928H125.404V140.468H132.21V136.928Z" fill="white"/>
<path d="M123.776 145.676H116.484V149.216H123.776V145.676Z" fill="#8E9FAA"/>
<path opacity="0.2" d="M123.776 145.676H116.969V149.216H123.776V145.676Z" fill="white"/>
<path d="M132.21 145.676H124.918V149.216H132.21V145.676Z" fill="#8E9FAA"/>
<path opacity="0.2" d="M132.21 145.676H125.404V149.216H132.21V145.676Z" fill="white"/>
<path d="M123.776 152.138H116.484V155.678H123.776V152.138Z" fill="#8E9FAA"/>
<path opacity="0.2" d="M123.776 152.138H116.969V155.678H123.776V152.138Z" fill="white"/>
<path d="M132.21 152.138H124.918V155.678H132.21V152.138Z" fill="#8E9FAA"/>
<path opacity="0.2" d="M132.21 152.138H125.404V155.678H132.21V152.138Z" fill="white"/>
<path d="M141.861 96.4741H113.174V98.6037H141.861V96.4741Z" fill="#8E9FAA"/>
<path opacity="0.2" d="M141.862 96.4741H135.306V98.6037H141.862V96.4741Z" fill="black"/>
<path d="M114.464 127.882H111.884V131.919H114.464V127.882Z" fill="#E0E0E0"/>
<path d="M114.464 134.488H111.884V138.525H114.464V134.488Z" fill="#E0E0E0"/>
<path d="M114.464 140.908H111.884V144.945H114.464V140.908Z" fill="#E0E0E0"/>
<path d="M114.464 147.697H111.884V151.734H114.464V147.697Z" fill="#E0E0E0"/>
<path d="M114.464 154.301H111.884V158.338H114.464V154.301Z" fill="#E0E0E0"/>
<path d="M114.464 123.827H87.3184V165.112H114.464V123.827Z" fill="#8E9FAA"/>
<path opacity="0.3" d="M109.879 123.826H87.3196V165.112H109.879V123.826Z" fill="white"/>
<path d="M107.694 127.884H89.3486V131.92H107.694V127.884Z" fill="#8E9FAA"/>
<path d="M107.694 134.488H89.3486V138.524H107.694V134.488Z" fill="#8E9FAA"/>
<path d="M107.694 141.093H89.3486V145.129H107.694V141.093Z" fill="#8E9FAA"/>
<path d="M107.694 147.697H89.3486V151.733H107.694V147.697Z" fill="#8E9FAA"/>
<path d="M107.694 154.301H89.3486V158.337H107.694V154.301Z" fill="#8E9FAA"/>
<g opacity="0.1">
<path d="M107.694 127.884H90.0251V131.92H107.694V127.884Z" fill="white"/>
<path d="M107.694 134.488H90.0251V138.524H107.694V134.488Z" fill="white"/>
<path d="M107.694 141.093H90.0251V145.129H107.694V141.093Z" fill="white"/>
<path d="M107.694 147.697H90.0251V151.733H107.694V147.697Z" fill="white"/>
<path d="M107.694 154.301H90.0251V158.337H107.694V154.301Z" fill="white"/>
</g>
<path d="M31.4339 136.507H13.2219V165.112H42.2827V136.507V123.826L31.4339 136.507Z" fill="#8E9FAA"/>
<path d="M47.7071 123.826H42.2827V165.112H47.7071V123.826Z" fill="#8E9FAA"/>
<path opacity="0.7" d="M47.7071 123.826H42.2827V165.112H47.7071V123.826Z" fill="white"/>
<path opacity="0.7" d="M87.3196 89.0688H80.1172V165.112H87.3196V89.0688Z" fill="white"/>
<path opacity="0.6" d="M114.464 123.826H109.879V165.113H114.464V123.826Z" fill="white"/>
<path opacity="0.7" d="M141.862 98.6035H135.306V165.112H141.862V98.6035Z" fill="white"/>
<path opacity="0.5" d="M145.7 87.1768H144.669V91.4356H145.7V87.1768Z" fill="white"/>
<path opacity="0.5" d="M145.7 94.3447H144.669V98.6035H145.7V94.3447Z" fill="white"/>
<path opacity="0.5" d="M145.7 101.795H144.669V106.054H145.7V101.795Z" fill="white"/>
<path opacity="0.5" d="M145.7 109.246H144.669V113.505H145.7V109.246Z" fill="white"/>
<path opacity="0.5" d="M145.7 116.697H144.669V120.956H145.7V116.697Z" fill="white"/>
<path opacity="0.5" d="M145.7 124.147H144.669V128.406H145.7V124.147Z" fill="white"/>
<path opacity="0.5" d="M145.7 132.359H144.669V136.618H145.7V132.359Z" fill="white"/>
<path opacity="0.5" d="M145.7 140.57H144.669V144.829H145.7V140.57Z" fill="white"/>
<path opacity="0.5" d="M145.7 148.781H144.669V153.04H145.7V148.781Z" fill="white"/>
<path opacity="0.5" d="M145.7 156.993H144.669V161.251H145.7V156.993Z" fill="white"/>
<path d="M185.943 81.5005H153.771V165.112H185.943V81.5005Z" fill="#8E9FAA"/>
<path d="M174.035 81.4995H141.862V165.112H174.035V81.4995Z" fill="#8E9FAA"/>
<path opacity="0.7" d="M185.943 82.6987H174.035V165.113H185.943V82.6987Z" fill="white"/>
<path d="M185.943 87.1753H176.979V91.4361H185.943V87.1753Z" fill="#8E9FAA"/>
<path d="M185.943 94.1855H176.979V98.4463H185.943V94.1855Z" fill="#8E9FAA"/>
<path d="M185.943 101.196H176.979V105.457H185.943V101.196Z" fill="#8E9FAA"/>
<path d="M185.943 109.245H176.979V113.506H185.943V109.245Z" fill="#8E9FAA"/>
<path d="M185.943 116.696H176.979V120.957H185.943V116.696Z" fill="#8E9FAA"/>
<path d="M185.943 124.147H176.979V128.408H185.943V124.147Z" fill="#8E9FAA"/>
<path d="M185.943 132.358H176.979V136.619H185.943V132.358Z" fill="#8E9FAA"/>
<path d="M185.943 140.569H176.979V144.83H185.943V140.569Z" fill="#8E9FAA"/>
<path d="M185.943 148.78H176.979V153.041H185.943V148.78Z" fill="#8E9FAA"/>
<path d="M185.943 156.992H176.979V161.253H185.943V156.992Z" fill="#8E9FAA"/>
<path opacity="0.3" d="M185.943 87.1753H176.979V91.4361H185.943V87.1753Z" fill="white"/>
<path opacity="0.3" d="M185.943 94.1855H176.979V98.4463H185.943V94.1855Z" fill="white"/>
<path opacity="0.3" d="M185.943 101.196H176.979V105.457H185.943V101.196Z" fill="white"/>
<path opacity="0.3" d="M185.943 109.245H176.979V113.506H185.943V109.245Z" fill="white"/>
<path opacity="0.3" d="M185.943 116.696H176.979V120.957H185.943V116.696Z" fill="white"/>
<path opacity="0.3" d="M185.943 124.147H176.979V128.408H185.943V124.147Z" fill="white"/>
<path opacity="0.3" d="M185.943 132.358H176.979V136.619H185.943V132.358Z" fill="white"/>
<path opacity="0.3" d="M185.943 140.569H176.979V144.83H185.943V140.569Z" fill="white"/>
<path opacity="0.3" d="M185.943 148.78H176.979V153.041H185.943V148.78Z" fill="white"/>
<path opacity="0.3" d="M185.943 156.992H176.979V161.253H185.943V156.992Z" fill="white"/>
<path opacity="0.4" d="M174.035 81.4995H141.862V165.112H174.035V81.4995Z" fill="white"/>
<path d="M171.228 87.1768H144.669V91.4356H171.228V87.1768Z" fill="#8E9FAA"/>
<path opacity="0.2" d="M171.227 87.1768H145.699V91.4356H171.227V87.1768Z" fill="white"/>
<path d="M171.228 94.3447H144.669V98.6035H171.228V94.3447Z" fill="#8E9FAA"/>
<path opacity="0.2" d="M171.227 94.3447H145.699V98.6035H171.227V94.3447Z" fill="white"/>
<path d="M171.228 101.795H144.669V106.054H171.228V101.795Z" fill="#8E9FAA"/>
<path opacity="0.2" d="M171.227 101.795H145.699V106.054H171.227V101.795Z" fill="white"/>
<path d="M171.228 109.246H144.669V113.505H171.228V109.246Z" fill="#8E9FAA"/>
<path opacity="0.2" d="M171.227 109.246H145.699V113.505H171.227V109.246Z" fill="white"/>
<path d="M171.228 116.697H144.669V120.956H171.228V116.697Z" fill="#8E9FAA"/>
<path opacity="0.2" d="M171.227 116.697H145.699V120.956H171.227V116.697Z" fill="white"/>
<path d="M171.228 124.147H144.669V128.406H171.228V124.147Z" fill="#8E9FAA"/>
<path opacity="0.2" d="M171.227 124.147H145.699V128.406H171.227V124.147Z" fill="white"/>
<path d="M171.228 132.359H144.669V136.618H171.228V132.359Z" fill="#8E9FAA"/>
<path opacity="0.2" d="M171.227 132.359H145.699V136.618H171.227V132.359Z" fill="white"/>
<path d="M171.228 140.57H144.669V144.829H171.228V140.57Z" fill="#8E9FAA"/>
<path opacity="0.2" d="M171.227 140.57H145.699V144.829H171.227V140.57Z" fill="white"/>
<path d="M171.228 148.781H144.669V153.04H171.228V148.781Z" fill="#8E9FAA"/>
<path opacity="0.2" d="M171.227 148.781H145.699V153.04H171.227V148.781Z" fill="white"/>
<path d="M171.228 156.993H144.669V161.251H171.228V156.993Z" fill="#8E9FAA"/>
<path opacity="0.2" d="M171.227 156.993H145.699V161.251H171.227V156.993Z" fill="white"/>
<path d="M185.256 79.0176H174.035V80.6584H185.256V79.0176Z" fill="#8E9FAA"/>
<path d="M185.256 78.6177H141.862V80.6581H185.256V78.6177Z" fill="#F0F0F0"/>
<path d="M186.778 80.6582H140.951V82.6986H186.778V80.6582Z" fill="#8E9FAA"/>
<path d="M186.778 76.9771H140.951V79.0175H186.778V76.9771Z" fill="#8E9FAA"/>
<path opacity="0.05" d="M186.778 80.6582H140.951V82.6986H186.778V80.6582Z" fill="black"/>
<path opacity="0.05" d="M186.778 76.9771H140.951V79.0175H186.778V76.9771Z" fill="black"/>
<path opacity="0.2" d="M141.862 116.213H114.464V116.822H141.862V116.213Z" fill="white"/>
<path opacity="0.2" d="M141.862 129.383H114.464V129.992H141.862V129.383Z" fill="white"/>
<path opacity="0.2" d="M141.862 142.669H114.464V143.278H141.862V142.669Z" fill="white"/>
<path opacity="0.2" d="M87.7856 87.8071H80.1172V89.0691H87.7856V87.8071Z" fill="black"/>
<path opacity="0.2" d="M87.7856 85.2837H80.1172V86.5457H87.7856V85.2837Z" fill="black"/>
<path opacity="0.2" d="M186.778 80.6582H174.035V82.6986H186.778V80.6582Z" fill="black"/>
<path opacity="0.2" d="M186.778 76.9771H174.035V79.0175H186.778V76.9771Z" fill="black"/>
<path opacity="0.4" d="M31.4339 136.507H13.2219V165.112H42.2827V136.507V123.826L31.4339 136.507Z" fill="white"/>
<path d="M20.1823 142.306H15.8579V146.631H20.1823V142.306Z" fill="#8E9FAA"/>
<path d="M28.9815 142.306H24.6567V146.631H28.9815V142.306Z" fill="#8E9FAA"/>
<path d="M37.78 142.306H33.4556V146.631H37.78V142.306Z" fill="#8E9FAA"/>
<path d="M20.1823 149.583H15.8579V153.908H20.1823V149.583Z" fill="#8E9FAA"/>
<path d="M28.9815 149.583H24.6567V153.908H28.9815V149.583Z" fill="#8E9FAA"/>
<path d="M37.78 149.583H33.4556V153.908H37.78V149.583Z" fill="#8E9FAA"/>
<path d="M20.1823 156.86H15.8579V161.185H20.1823V156.86Z" fill="#8E9FAA"/>
<path d="M28.9815 156.86H24.6567V161.185H28.9815V156.86Z" fill="#8E9FAA"/>
<path d="M37.78 156.86H33.4556V161.185H37.78V156.86Z" fill="#8E9FAA"/>
<path opacity="0.2" d="M20.6595 142.306H16.3347V146.631H20.6595V142.306Z" fill="white"/>
<path opacity="0.2" d="M29.4579 142.306H25.1335V146.631H29.4579V142.306Z" fill="white"/>
<path opacity="0.2" d="M38.2572 142.306H33.9324V146.631H38.2572V142.306Z" fill="white"/>
<path opacity="0.2" d="M20.6595 149.583H16.3347V153.908H20.6595V149.583Z" fill="white"/>
<path opacity="0.2" d="M29.4579 149.583H25.1335V153.908H29.4579V149.583Z" fill="white"/>
<path opacity="0.2" d="M38.2572 149.583H33.9324V153.908H38.2572V149.583Z" fill="white"/>
<path opacity="0.2" d="M20.6595 156.86H16.3347V161.185H20.6595V156.86Z" fill="white"/>
<path opacity="0.2" d="M29.4579 156.86H25.1335V161.185H29.4579V156.86Z" fill="white"/>
<path opacity="0.2" d="M38.2572 156.86H33.9324V161.185H38.2572V156.86Z" fill="white"/>
<path d="M97.6417 168.428L95.1345 181.132H103.541L102.689 168.428H97.6417Z" fill="#8E9FAA"/>
<path d="M105.495 168.428L109.096 181.132H114.726L110.11 168.428H105.495Z" fill="#8E9FAA"/>
<path d="M113.28 168.428L120.687 181.132H127.08L117.45 168.428H113.28Z" fill="#8E9FAA"/>
<path d="M120.796 168.428L133.072 181.132H140.717L125.377 168.428H120.796Z" fill="#8E9FAA"/>
<path d="M94.5053 168.428L90.9041 181.132H85.2737L89.8897 168.428H94.5053Z" fill="#8E9FAA"/>
<path d="M86.7204 168.428L79.3128 181.132H72.9204L82.5492 168.428H86.7204Z" fill="#8E9FAA"/>
<path d="M79.2036 168.428L66.9284 181.132H59.2832L74.6228 168.428H79.2036Z" fill="#8E9FAA"/>
<path opacity="0.4" d="M97.6417 168.428L95.1345 181.132H103.541L102.689 168.428H97.6417Z" fill="white"/>
<path opacity="0.4" d="M105.495 168.428L109.096 181.132H114.726L110.11 168.428H105.495Z" fill="white"/>
<path opacity="0.4" d="M113.28 168.428L120.687 181.132H127.08L117.45 168.428H113.28Z" fill="white"/>
<path opacity="0.4" d="M120.796 168.428L133.072 181.132H140.717L125.377 168.428H120.796Z" fill="white"/>
<path opacity="0.4" d="M94.5053 168.428L90.9041 181.132H85.2737L89.8897 168.428H94.5053Z" fill="white"/>
<path opacity="0.4" d="M86.7204 168.428L79.3128 181.132H72.9204L82.5492 168.428H86.7204Z" fill="white"/>
<path opacity="0.4" d="M79.2036 168.428L66.9284 181.132H59.2832L74.6228 168.428H79.2036Z" fill="white"/>
<path d="M40.2625 163.645C43.1953 163.539 46.0597 162.151 47.9597 159.914C49.8597 157.678 50.7669 154.627 50.3973 151.715C50.1329 149.632 49.2605 147.684 48.6445 145.677C47.4785 141.878 47.1085 137.596 44.4349 134.656C42.7941 132.852 40.3753 131.781 37.9365 131.779C35.4981 131.777 33.0773 132.844 31.4337 134.645C29.7017 136.544 28.8821 139.114 28.5241 141.658C28.1661 144.203 28.2217 146.787 27.9825 149.346C27.7837 151.472 27.3813 153.59 27.4665 155.723C27.5517 157.856 28.1957 160.074 29.7589 161.528C30.5305 162.246 31.4797 162.738 32.4241 163.204C33.3685 163.672 34.3409 164.128 35.3853 164.268C36.4297 164.408 37.5737 164.186 38.3253 163.447C38.7909 163.617 39.7673 163.663 40.2625 163.645Z" fill="#8E9FAA"/>
<path opacity="0.7" d="M40.2625 163.645C43.1953 163.539 46.0597 162.151 47.9597 159.914C49.8597 157.678 50.7669 154.627 50.3973 151.715C50.1329 149.632 49.2605 147.684 48.6445 145.677C47.4785 141.878 47.1085 137.596 44.4349 134.656C42.7941 132.852 40.3753 131.781 37.9365 131.779C35.4981 131.777 33.0773 132.844 31.4337 134.645C29.7017 136.544 28.8821 139.114 28.5241 141.658C28.1661 144.203 28.2217 146.787 27.9825 149.346C27.7837 151.472 27.3813 153.59 27.4665 155.723C27.5517 157.856 28.1957 160.074 29.7589 161.528C30.5305 162.246 31.4797 162.738 32.4241 163.204C33.3685 163.672 34.3409 164.128 35.3853 164.268C36.4297 164.408 37.5737 164.186 38.3253 163.447C38.7909 163.617 39.7673 163.663 40.2625 163.645Z" fill="white"/>
<path d="M35.3716 171.399V170.87L36.2544 170.119C36.2544 170.119 37.314 159.307 37.4904 156.194C37.6668 153.08 37.8876 148.136 36.74 144.561C36.74 144.561 38.2408 147.912 38.9028 152.174C38.9028 152.174 40.2712 147.254 42.6992 144.12C42.6992 144.12 39.7416 151.68 40.1388 158.714C40.536 165.749 41.6396 170.605 41.6396 170.605L42.1692 170.958L42.2132 171.399H35.3716Z" fill="#8E9FAA"/>
<path d="M38.0705 154.05C38.0705 154.05 37.3057 150.641 35.2341 148.951C35.2341 148.951 36.9661 151.335 37.5341 155.385C38.1021 159.435 38.7077 156.854 38.7077 156.854L38.0705 154.05Z" fill="#8E9FAA"/>
<path d="M37.1678 163.269C37.1678 163.269 36.887 162.036 35.6226 161.264C35.6226 161.264 36.4134 162.031 36.7906 164.492C37.1678 166.952 38.0806 165.583 38.0806 165.583L38.151 164.229L37.1678 163.269Z" fill="#8E9FAA"/>
<path opacity="0.2" d="M36.7904 164.492C36.4132 162.032 35.6224 161.264 35.6224 161.264C36.3412 161.703 36.7416 162.29 36.9536 162.716C37.192 160.098 37.4168 157.484 37.49 156.193C37.5044 155.936 37.5192 155.663 37.5336 155.384C36.9652 151.334 35.2336 148.951 35.2336 148.951C36.4376 149.934 37.1996 151.496 37.6272 152.632C37.6624 149.969 37.5088 146.958 36.7396 144.56C36.7396 144.56 38.2404 147.912 38.9024 152.173C38.9024 152.173 40.2708 147.253 42.6988 144.119C42.6988 144.119 39.7412 151.679 40.1384 158.714C40.5356 165.749 41.6392 170.604 41.6392 170.604L42.1688 170.958L42.2128 171.399H35.3716V170.87L36.2544 170.119C36.2544 170.119 36.5096 167.513 36.7904 164.492Z" fill="black"/>
<path d="M158.087 165.356C154.776 165.237 151.543 163.669 149.397 161.144C147.252 158.62 146.229 155.175 146.646 151.889C146.944 149.538 147.929 147.338 148.625 145.073C149.941 140.784 150.358 135.949 153.377 132.63C155.229 130.594 157.96 129.385 160.713 129.383C163.465 129.381 166.198 130.586 168.053 132.619C170.009 134.762 170.934 137.663 171.338 140.536C171.742 143.409 171.679 146.326 171.95 149.215C172.174 151.614 172.629 154.006 172.533 156.414C172.437 158.822 171.709 161.326 169.945 162.967C169.074 163.777 168.002 164.333 166.936 164.86C165.869 165.387 164.772 165.903 163.593 166.061C162.414 166.219 161.123 165.968 160.274 165.134C159.748 165.324 158.646 165.376 158.087 165.356Z" fill="#8E9FAA"/>
<path opacity="0.7" d="M158.087 165.356C154.776 165.237 151.543 163.669 149.397 161.144C147.252 158.62 146.229 155.175 146.646 151.889C146.944 149.538 147.929 147.338 148.625 145.073C149.941 140.784 150.358 135.949 153.377 132.63C155.229 130.594 157.96 129.385 160.713 129.383C163.465 129.381 166.198 130.586 168.053 132.619C170.009 134.762 170.934 137.663 171.338 140.536C171.742 143.409 171.679 146.326 171.95 149.215C172.174 151.614 172.629 154.006 172.533 156.414C172.437 158.822 171.709 161.326 169.945 162.967C169.074 163.777 168.002 164.333 166.936 164.86C165.869 165.387 164.772 165.903 163.593 166.061C162.414 166.219 161.123 165.968 160.274 165.134C159.748 165.324 158.646 165.376 158.087 165.356Z" fill="white"/>
<path d="M163.608 174.109V173.511L162.611 172.664C162.611 172.664 161.415 160.458 161.216 156.943C161.017 153.429 160.768 147.847 162.063 143.811C162.063 143.811 160.369 147.595 159.622 152.405C159.622 152.405 158.077 146.851 155.336 143.313C155.336 143.313 158.675 151.848 158.227 159.789C157.778 167.731 156.532 173.212 156.532 173.212L155.934 173.611L155.884 174.109L163.608 174.109Z" fill="#8E9FAA"/>
<path d="M160.561 154.524C160.561 154.524 161.425 150.676 163.763 148.768C163.763 148.768 161.808 151.459 161.167 156.032C160.526 160.604 159.842 157.69 159.842 157.69L160.561 154.524Z" fill="#8E9FAA"/>
<path d="M161.581 164.931C161.581 164.931 161.898 163.54 163.325 162.667C163.325 162.667 162.432 163.534 162.007 166.312C161.581 169.089 160.55 167.543 160.55 167.543L160.471 166.015L161.581 164.931Z" fill="#8E9FAA"/>
<path opacity="0.2" d="M162.007 166.312C162.433 163.534 163.325 162.668 163.325 162.668C162.513 163.164 162.061 163.827 161.822 164.307C161.553 161.352 161.299 158.401 161.217 156.944C161.2 156.654 161.184 156.346 161.167 156.03C161.809 151.459 163.764 148.768 163.764 148.768C162.405 149.877 161.544 151.641 161.062 152.924C161.022 149.918 161.195 146.518 162.064 143.812C162.064 143.812 160.37 147.595 159.623 152.406C159.623 152.406 158.078 146.852 155.337 143.314C155.337 143.314 158.676 151.848 158.227 159.79C157.779 167.732 156.533 173.213 156.533 173.213L155.935 173.612L155.885 174.11H163.609V173.512L162.612 172.665C162.612 172.664 162.323 169.722 162.007 166.312Z" fill="black"/>
</svg>
