<svg width="680" height="680" viewBox="0 0 680 680" fill="none" xmlns="http://www.w3.org/2000/svg">
<path d="M557.114 209.033C556.81 203.815 554.91 198.83 551.844 194.462C547.78 187.646 543.67 180.84 539.513 174.044C539.567 174.119 539.616 174.201 539.671 174.277C533.599 165.689 522.995 159.472 511.572 158.473C510.947 158.422 510.315 158.422 509.69 158.355C423.743 149.339 323.862 147.63 237.292 156.315C219.594 158.076 207.621 170.531 209.455 184.004C223.723 289.647 195.885 402.314 147.016 510.889C143.373 518.952 144.369 526.29 148.904 531.171C148.865 531.126 148.819 531.098 148.78 531.053C156.703 539.777 164.516 548.554 172.219 557.381C175.403 561.024 180.476 563.413 187.094 563.881C262.696 569.003 337.827 579.597 411.897 595.58C413.412 595.904 414.95 596.107 416.496 596.187C430.567 596.928 446.987 588.227 454.592 574.737C520.048 458.268 563.883 333.218 557.114 209.033Z" fill="url(#paint0_radial_2277_22882)"/>
<path d="M557.114 209.033C556.81 203.815 554.91 198.83 551.844 194.462C547.78 187.646 543.67 180.84 539.513 174.044C539.567 174.117 539.616 174.202 539.671 174.278C533.599 165.686 522.995 159.472 511.572 158.474C510.947 158.422 510.312 158.425 509.687 158.355C423.066 149.284 323.859 147.651 237.292 156.315C219.594 158.079 207.621 170.525 209.455 184.004C223.723 289.647 195.885 402.317 147.016 510.89C143.373 518.953 144.369 526.29 148.904 531.171C148.865 531.126 148.819 531.095 148.78 531.053C156.703 539.777 164.516 548.554 172.219 557.382C175.403 561.024 180.476 563.414 187.094 563.881C262.695 569.005 337.826 579.598 411.897 595.577C413.412 595.903 414.95 596.106 416.496 596.184C430.567 596.928 446.987 588.224 454.592 574.734C520.048 458.269 563.887 333.218 557.114 209.033Z" fill="url(#paint1_linear_2277_22882)"/>
<path d="M485.31 156.036C484.686 151.128 482.811 146.464 479.864 142.49C475.97 136.267 472.062 130.047 468.14 123.83C468.191 123.897 468.237 123.972 468.286 124.042C462.645 116.234 453.362 110.989 443.696 110.685C443.168 110.685 442.634 110.706 442.103 110.685C369.191 107.106 285.22 106.584 211.871 111.717C196.893 112.789 186.28 124.142 187.282 137.129C195.339 238.795 167.726 345.944 112.658 446.165C108.557 453.599 108.939 460.679 112.961 465.685C112.928 465.639 112.885 465.606 112.852 465.56C119.859 474.485 126.836 483.42 133.783 492.365C136.655 496.066 141.476 498.674 147.948 499.514C222.505 509.055 296.653 520.388 370.393 533.514C371.916 533.786 373.458 533.939 375.004 533.97C389.096 534.273 405.152 525.266 412.04 512.003C471.531 397.423 499.438 274.025 485.31 156.036Z" fill="url(#paint2_radial_2277_22882)"/>
<path d="M485.31 156.036C484.686 151.128 482.811 146.463 479.864 142.49C475.97 136.267 472.062 130.047 468.14 123.83C468.191 123.896 468.237 123.972 468.286 124.042C462.645 116.234 453.362 110.989 443.696 110.685C443.168 110.685 442.634 110.706 442.103 110.685C368.617 107.079 285.22 106.593 211.871 111.717C196.893 112.789 186.28 124.142 187.282 137.129C195.339 238.795 167.726 345.944 112.658 446.165C108.557 453.599 108.939 460.679 112.961 465.684C112.928 465.639 112.885 465.606 112.852 465.56C119.859 474.485 126.836 483.42 133.783 492.365C136.655 496.066 141.476 498.674 147.948 499.514C222.505 509.055 296.653 520.388 370.393 533.514C371.916 533.786 373.458 533.939 375.004 533.97C389.099 534.273 405.152 525.266 412.04 512.003C471.531 397.423 499.438 274.025 485.31 156.036Z" fill="url(#paint3_linear_2277_22882)"/>
<path d="M319.564 171.05C311.663 170.632 303.751 171.606 296.188 173.928C255.255 186.302 229.451 230.256 245.286 271.32C273.518 344.481 386.689 305.517 380.508 233.037C377.57 198.454 351.536 172.863 319.564 171.05Z" fill="url(#paint4_radial_2277_22882)"/>
<path d="M355.326 285.336C383.264 257.398 385.765 214.603 360.913 189.751C336.061 164.899 293.266 167.401 265.328 195.339C237.39 223.277 234.889 266.071 259.741 290.923C284.593 315.775 327.388 313.274 355.326 285.336Z" fill="url(#paint5_radial_2277_22882)"/>
<path opacity="0.18" d="M262.796 223.286C261.685 225.411 260.243 227.233 258.218 226.847C256.7 226.543 255.829 224.913 255.565 223.386C254.931 219.704 256.558 216.01 258.525 212.834C262.608 206.247 268.345 200.121 275.082 196.226C276.15 195.619 277.316 195.069 278.549 195.054C279.781 195.039 281.092 195.661 281.566 196.8C282.969 200.206 275.574 205.403 273.5 207.443C270.208 210.689 267.369 214.365 265.061 218.371C264.448 219.446 263.743 221.477 262.796 223.286Z" fill="white"/>
<path d="M372.576 356.754L372.321 356.727L210.981 340.121C203.529 339.438 196.055 344.833 194.206 352.158C192.385 359.359 196.75 365.709 204.087 366.532H204.197C204.288 366.553 367.885 382.46 367.894 382.46C375.453 383.098 382.59 377.892 383.753 370.8C384.91 363.803 379.876 357.574 372.576 356.754Z" fill="url(#paint6_linear_2277_22882)"/>
<path d="M218.875 429.554C211.285 428.555 206.981 422.395 209.194 415.304C211.443 408.119 219.406 402.888 227.077 403.647C256.562 406.642 286.042 409.645 315.517 412.657C323.194 413.392 327.999 419.742 326.193 426.785C324.387 433.828 316.552 438.928 308.768 438.227C308.774 438.212 218.978 429.554 218.875 429.554Z" fill="url(#paint7_linear_2277_22882)"/>
<path d="M338.703 214.88C336.527 214.766 334.395 215.521 332.774 216.978C321.117 227.408 309.125 237.911 296.798 248.485C291.645 242.132 286.503 235.757 281.371 229.36C280.646 228.435 279.74 227.667 278.709 227.105C277.677 226.542 276.541 226.196 275.371 226.088C274.201 225.979 273.021 226.111 271.903 226.475C270.786 226.839 269.755 227.427 268.873 228.204C265.099 231.479 264.51 237.329 267.61 241.239C274.547 250.006 281.494 258.729 288.45 267.407C289.186 268.329 290.103 269.091 291.144 269.645C292.186 270.2 293.33 270.535 294.506 270.631L294.81 270.652C297.124 270.753 299.392 269.975 301.157 268.475C316.105 255.889 330.575 243.407 344.568 231.03C348.211 227.8 348.484 222.05 345.206 218.174C344.407 217.206 343.417 216.415 342.298 215.848C341.179 215.281 339.955 214.951 338.703 214.88Z" fill="url(#paint8_linear_2277_22882)"/>
<defs>
<radialGradient id="paint0_radial_2277_22882" cx="0" cy="0" r="1" gradientUnits="userSpaceOnUse" gradientTransform="translate(-49.8747 225.637) rotate(1.71836) scale(674.292 701.24)">
<stop offset="0.43" stop-color="#C9B3F8"/>
<stop offset="0.65" stop-color="#A389F0"/>
<stop offset="0.79" stop-color="#9A6CF0"/>
<stop offset="0.81" stop-color="#9669EA"/>
<stop offset="0.83" stop-color="#8B60DA"/>
<stop offset="0.86" stop-color="#7851BF"/>
<stop offset="0.88" stop-color="#6945A9"/>
<stop offset="0.9" stop-color="#724CB6"/>
<stop offset="0.93" stop-color="#8A5FD9"/>
<stop offset="0.94" stop-color="#9A6CF0"/>
</radialGradient>
<linearGradient id="paint1_linear_2277_22882" x1="400.244" y1="99.9635" x2="309.72" y2="634.585" gradientUnits="userSpaceOnUse">
<stop offset="0.06" stop-color="#C9B3F8"/>
<stop offset="0.2" stop-color="#C9B3F8"/>
<stop offset="0.57" stop-color="#A389F0"/>
<stop offset="0.82" stop-color="#6945A9"/>
<stop offset="0.91" stop-color="#6945A9"/>
</linearGradient>
<radialGradient id="paint2_radial_2277_22882" cx="0" cy="0" r="1" gradientUnits="userSpaceOnUse" gradientTransform="translate(-85.2719 228.758) rotate(1.71836) scale(629.76 629.76)">
<stop offset="0.43" stop-color="#F3F8FB"/>
<stop offset="0.65" stop-color="#DFEEF0"/>
<stop offset="0.79" stop-color="#ECFCFF"/>
<stop offset="0.81" stop-color="#E6F7FA"/>
<stop offset="0.85" stop-color="#D6EBED"/>
<stop offset="0.88" stop-color="#BED8D9"/>
<stop offset="0.94" stop-color="#BED8D9"/>
</radialGradient>
<linearGradient id="paint3_linear_2277_22882" x1="349.239" y1="56.4599" x2="262.918" y2="566.274" gradientUnits="userSpaceOnUse">
<stop offset="0.06" stop-color="#F3F8FB"/>
<stop offset="0.14" stop-color="#E3ECF1"/>
<stop offset="0.57" stop-color="#E3ECF1"/>
<stop offset="0.85" stop-color="#BED8D9"/>
<stop offset="0.91" stop-color="#BED8D9"/>
</linearGradient>
<radialGradient id="paint4_radial_2277_22882" cx="0" cy="0" r="1" gradientUnits="userSpaceOnUse" gradientTransform="translate(299.737 234.321) scale(84.8512 84.8513)">
<stop offset="0.01" stop-color="#75D982"/>
<stop offset="0.13" stop-color="#71D17A"/>
<stop offset="0.47" stop-color="#67BF67"/>
<stop offset="0.74" stop-color="#51AA59"/>
<stop offset="0.84" stop-color="#48A153"/>
<stop offset="0.93" stop-color="#4AA354"/>
<stop offset="0.96" stop-color="#51A959"/>
<stop offset="0.99" stop-color="#5CB560"/>
<stop offset="1" stop-color="#67BF67"/>
</radialGradient>
<radialGradient id="paint5_radial_2277_22882" cx="0" cy="0" r="1" gradientUnits="userSpaceOnUse" gradientTransform="translate(308.575 239.855) rotate(16.3138) scale(65.5979 69.7494)">
<stop offset="0.2" stop-color="#67BF67"/>
<stop offset="1" stop-color="#67BF67"/>
</radialGradient>
<linearGradient id="paint6_linear_2277_22882" x1="292.748" y1="321.488" x2="285.87" y2="393.373" gradientUnits="userSpaceOnUse">
<stop offset="0.23" stop-color="#A6BBBE"/>
<stop offset="0.25" stop-color="#A9BEC1"/>
<stop offset="0.38" stop-color="#B8D1D3"/>
<stop offset="0.47" stop-color="#BED8D9"/>
<stop offset="0.55" stop-color="#BAD3D5"/>
<stop offset="0.63" stop-color="#AFC6C8"/>
<stop offset="0.68" stop-color="#A6BBBE"/>
<stop offset="0.74" stop-color="#9CAFB2"/>
<stop offset="0.85" stop-color="#809093"/>
<stop offset="0.9" stop-color="#717F82"/>
</linearGradient>
<linearGradient id="paint7_linear_2277_22882" x1="272.057" y1="385.775" x2="264.041" y2="450.009" gradientUnits="userSpaceOnUse">
<stop offset="0.23" stop-color="#A6BBBE"/>
<stop offset="0.25" stop-color="#A9BEC1"/>
<stop offset="0.38" stop-color="#B8D1D3"/>
<stop offset="0.47" stop-color="#BED8D9"/>
<stop offset="0.55" stop-color="#BAD3D5"/>
<stop offset="0.63" stop-color="#AFC6C8"/>
<stop offset="0.68" stop-color="#A6BBBE"/>
<stop offset="0.74" stop-color="#9CAFB2"/>
<stop offset="0.85" stop-color="#809093"/>
<stop offset="0.9" stop-color="#717F82"/>
</linearGradient>
<linearGradient id="paint8_linear_2277_22882" x1="291.118" y1="214.516" x2="323.175" y2="249.778" gradientUnits="userSpaceOnUse">
<stop stop-color="#FFFDA6"/>
<stop offset="0.47" stop-color="#F5E37B"/>
<stop offset="0.67" stop-color="#F5E278"/>
<stop offset="0.79" stop-color="#F5DF70"/>
<stop offset="0.89" stop-color="#F5DB61"/>
<stop offset="0.98" stop-color="#F6D44D"/>
<stop offset="1" stop-color="#F6D246"/>
</linearGradient>
</defs>
</svg>
