<svg width="40" height="40" viewBox="0 0 40 40" fill="none" xmlns="http://www.w3.org/2000/svg">
<circle cx="20" cy="20" r="19.5" fill="white" stroke="url(#paint0_linear_4414_10862)"/>
<path d="M16.7372 12.2891L30.0092 16.7411L25.5572 30.0131L12.2852 25.5611L16.7372 12.2891Z" fill="#64B5F6"/>
<path d="M17.6195 14.252L28.0805 17.662L24.9805 27.172L14.5195 23.762L17.6195 14.252Z" fill="#1E88E5"/>
<path d="M13.4402 10.8889L27.2022 13.4229L24.6683 27.1849L10.9062 24.6509L13.4402 10.8889Z" fill="#90CAF9"/>
<path d="M14.6094 12.7219L25.4444 14.6469L23.6944 24.4969L12.8594 22.5719L14.6094 12.7219Z" fill="#42A5F5"/>
<path d="M10 10H24V24H10V10Z" fill="#BBDEFB"/>
<path d="M11.5 11.5H22.5V21.5H11.5V11.5Z" fill="#4CAF50"/>
<path d="M16 14.5C16 13.95 16.45 13.5 17 13.5C17.55 13.5 18 13.95 18 14.5C18 15.05 17 16.5 17 16.5C17 16.5 16 15.05 16 14.5ZM18 18.5C18 19.05 17.55 19.5 17 19.5C16.45 19.5 16 19.05 16 18.5C16 17.95 17 16.5 17 16.5C17 16.5 18 17.95 18 18.5Z" fill="white"/>
<path d="M14.75 16.35C14.25 16.05 14.1 15.45 14.4 15C14.7 14.5 15.3 14.35 15.75 14.65C16.25 14.95 17 16.5 17 16.5C17 16.5 15.25 16.65 14.75 16.35ZM19.25 16.65C19.75 16.95 19.9 17.55 19.6 18C19.3 18.5 18.7 18.65 18.25 18.35C17.75 18.1 17 16.5 17 16.5C17 16.5 18.75 16.35 19.25 16.65Z" fill="white"/>
<path d="M19.25 16.35C19.75 16.05 19.9 15.45 19.6 15C19.3 14.5 18.7 14.35 18.25 14.65C17.75 14.9 17 16.5 17 16.5C17 16.5 18.75 16.65 19.25 16.35ZM14.75 16.65C14.25 16.95 14.1 17.55 14.4 18C14.7 18.5 15.3 18.65 15.75 18.35C16.25 18.05 17 16.5 17 16.5C17 16.5 15.25 16.35 14.75 16.65Z" fill="white"/>
<path d="M17 17.5C17.5523 17.5 18 17.0523 18 16.5C18 15.9477 17.5523 15.5 17 15.5C16.4477 15.5 16 15.9477 16 16.5C16 17.0523 16.4477 17.5 17 17.5Z" fill="#FFC107"/>
<defs>
<linearGradient id="paint0_linear_4414_10862" x1="7" y1="4.5" x2="28.5" y2="40" gradientUnits="userSpaceOnUse">
<stop stop-color="#66CDED"/>
<stop offset="1" stop-color="#7F60F9"/>
</linearGradient>
</defs>
</svg>
