<svg width="200" height="200" viewBox="0 0 200 200" fill="none" xmlns="http://www.w3.org/2000/svg">
<path d="M154.706 138.256L150.317 160.853L183.841 167.365L188.231 144.769L154.706 138.256Z" fill="#EBEBEB"/>
<path d="M188.272 145.064C188.277 145.073 188.15 145.156 187.902 145.304C187.626 145.465 187.263 145.676 186.81 145.941C185.825 146.498 184.45 147.277 182.761 148.233C179.3 150.159 174.564 152.795 169.317 155.715L169.206 155.777L169.124 155.68C169.061 155.606 168.993 155.526 168.924 155.446C165 150.808 161.448 146.611 158.852 143.542C157.59 142.028 156.562 140.795 155.826 139.911C155.49 139.497 155.22 139.165 155.016 138.914C154.833 138.684 154.741 138.56 154.75 138.553C154.758 138.546 154.866 138.657 155.064 138.874C155.279 139.115 155.563 139.435 155.918 139.833C156.673 140.701 157.726 141.913 159.019 143.4C161.633 146.453 165.209 150.63 169.161 155.245C169.229 155.325 169.297 155.405 169.36 155.479L169.167 155.444C174.432 152.556 179.184 149.948 182.656 148.043C184.364 147.123 185.756 146.373 186.752 145.836C187.217 145.592 187.59 145.398 187.872 145.25C188.129 145.119 188.267 145.055 188.272 145.064Z" fill="#E0E0E0"/>
<path d="M150.36 161.149C150.306 161.082 153.429 158.474 157.334 155.325C161.24 152.174 164.448 149.675 164.502 149.742C164.556 149.808 161.434 152.416 157.528 155.566C153.624 158.716 150.414 161.216 150.36 161.149Z" fill="#E0E0E0"/>
<path d="M175.7 151.624C175.777 151.585 177.67 155.143 179.93 159.571C182.19 164 183.959 167.621 183.883 167.66C183.807 167.699 181.914 164.141 179.654 159.712C177.394 155.284 175.624 151.663 175.7 151.624Z" fill="#E0E0E0"/>
<path d="M173.633 39.8562C173.633 39.8694 173.436 39.8818 173.06 39.8942C172.65 39.903 172.104 39.9146 171.419 39.9294C169.954 39.9438 167.901 39.9642 165.381 39.989C160.249 40.003 153.224 40.0226 145.462 40.0442C144.976 40.0442 144.492 40.0442 144.042 40.0438H143.854L143.854 39.8562C143.877 32.4158 143.898 25.7438 143.912 20.8854C143.937 18.503 143.957 16.5674 143.971 15.1854C143.986 14.5418 143.997 14.0282 144.006 13.6406C144.018 13.2878 144.03 13.103 144.042 13.103C144.055 13.103 144.067 13.2878 144.079 13.6406C144.088 14.0282 144.099 14.5418 144.114 15.1854C144.128 16.5674 144.148 18.5026 144.172 20.8854C144.187 25.7438 144.208 32.4158 144.23 39.8562L144.043 39.6686C144.493 39.6686 144.976 39.6686 145.463 39.6682C153.224 39.6898 160.25 39.709 165.382 39.7234C167.902 39.7482 169.954 39.7686 171.419 39.783C172.104 39.7978 172.65 39.8094 173.061 39.8182C173.436 39.8306 173.633 39.8434 173.633 39.8562Z" fill="#E0E0E0"/>
<path d="M170.345 19.5938C170.362 19.6138 170.047 19.913 169.462 20.437C168.824 20.997 167.982 21.7362 166.964 22.6302C164.844 24.4694 161.898 26.9906 158.63 29.7574L158.135 30.1762L158.008 30.2838L157.886 30.1706C156.58 28.9566 155.333 27.7974 154.18 26.7262L154.411 26.7314C152.228 28.5314 150.354 30.077 148.968 31.221C148.327 31.733 147.8 32.1542 147.388 32.4846C147.017 32.7734 146.811 32.9218 146.798 32.9066C146.785 32.8914 146.967 32.7138 147.315 32.3974C147.711 32.0474 148.216 31.6006 148.83 31.0574C150.195 29.887 152.039 28.3054 154.186 26.4638L154.302 26.3638L154.417 26.4694C155.575 27.5346 156.829 28.6874 158.141 29.8946L157.892 29.8894L158.387 29.4702C161.655 26.7034 164.628 24.2146 166.792 22.427C167.842 21.5702 168.71 20.8618 169.367 20.325C169.981 19.8358 170.328 19.5742 170.345 19.5938Z" fill="#E0E0E0"/>
<path d="M170.345 25.7936C170.295 25.7936 170.249 25.0912 170.215 23.9472C170.182 22.8028 170.16 21.2168 170.157 19.4492L170.345 19.6368C170.244 19.6368 170.135 19.6372 170.025 19.6372C168.184 19.6372 166.518 19.616 165.312 19.582C164.106 19.548 163.36 19.5012 163.36 19.4492C163.36 19.3972 164.106 19.3504 165.312 19.3164C166.518 19.2824 168.184 19.2612 170.025 19.2612C170.135 19.2612 170.244 19.2612 170.345 19.2612H170.533V19.4488C170.53 21.2164 170.508 22.8028 170.475 23.9468C170.441 25.0916 170.396 25.7936 170.345 25.7936Z" fill="#E0E0E0"/>
<path d="M18.192 138.472C18.7632 138.127 19.3716 137.865 19.9988 137.687L20.3708 135.899L23.3924 135.846L23.8272 137.62C24.4604 137.776 25.0776 138.016 25.6604 138.341L27.1876 137.34L29.3616 139.439L28.4152 141C28.7604 141.571 29.0224 142.18 29.2004 142.807L30.9888 143.179L31.042 146.201L29.268 146.635C29.112 147.269 28.8716 147.885 28.5468 148.468L29.5476 149.996L27.4488 152.17L25.8876 151.223C25.3164 151.568 24.708 151.83 24.0804 152.008L23.708 153.796L20.6864 153.85L20.2516 152.076C19.6184 151.92 19.0016 151.679 18.4184 151.354L16.8912 152.356L14.7172 150.256L15.6636 148.695C15.3184 148.124 15.0564 147.516 14.8784 146.888L13.09 146.516L13.0372 143.494L14.8112 143.059C14.9672 142.426 15.2076 141.809 15.5324 141.226L14.5316 139.699L16.6304 137.525L18.192 138.472ZM19.8028 142.498C18.5592 143.786 18.5952 145.838 19.8832 147.082C21.1712 148.325 23.2236 148.289 24.4672 147.001C25.7108 145.713 25.6748 143.66 24.3868 142.417C23.0984 141.174 21.0464 141.21 19.8028 142.498Z" fill="#E0E0E0"/>
<path d="M19.8027 142.498C19.8027 142.498 19.9723 142.259 20.4063 141.968C20.8323 141.684 21.5771 141.368 22.5211 141.468C22.9859 141.52 23.4947 141.672 23.9587 141.979C24.4175 142.286 24.8507 142.722 25.1211 143.288C25.2635 143.566 25.3623 143.876 25.4159 144.198C25.4743 144.52 25.4823 144.859 25.4343 145.196C25.3523 145.874 25.0319 146.541 24.5343 147.066C24.0279 147.582 23.3719 147.925 22.6979 148.031C22.3627 148.092 22.0239 148.095 21.6995 148.048C21.3751 148.006 21.0627 147.918 20.7795 147.785C20.2039 147.535 19.7523 147.117 19.4295 146.669C19.1067 146.216 18.9375 145.713 18.8687 145.25C18.7359 144.31 19.0255 143.555 19.2943 143.119C19.5695 142.676 19.8027 142.498 19.8027 142.498C19.8203 142.512 19.6071 142.71 19.3571 143.155C19.1131 143.592 18.8547 144.33 18.9987 145.23C19.0727 145.674 19.2419 146.152 19.5551 146.58C19.8683 147.002 20.3015 147.396 20.8491 147.628C21.1183 147.752 21.4147 147.834 21.7223 147.872C22.0291 147.914 22.3499 147.91 22.6667 147.851C23.3039 147.749 23.9211 147.423 24.4003 146.936C24.8703 146.44 25.1735 145.812 25.2535 145.172C25.3007 144.853 25.2943 144.532 25.2407 144.227C25.1919 143.922 25.1003 143.628 24.9671 143.363C24.7155 142.824 24.3071 142.405 23.8739 142.107C23.4355 141.809 22.9515 141.656 22.5059 141.598C21.6011 141.486 20.8727 141.77 20.4443 142.029C20.0083 142.295 19.8179 142.515 19.8027 142.498Z" fill="#E0E0E0"/>
<path d="M18.192 138.473C18.192 138.475 18.1584 138.457 18.0912 138.419C18.0176 138.377 17.9192 138.32 17.7916 138.246C17.5188 138.085 17.1256 137.853 16.6148 137.551L16.6516 137.547C16.1176 138.106 15.4152 138.843 14.5652 139.733L14.5708 139.674C14.876 140.136 15.2152 140.649 15.578 141.197L15.596 141.225L15.58 141.254C15.2832 141.791 15.034 142.403 14.8704 143.075L14.8616 143.111L14.8256 143.119C14.2732 143.257 13.6748 143.405 13.0528 143.559L13.1032 143.494C13.122 144.445 13.142 145.455 13.1632 146.515L13.1052 146.445C13.6588 146.559 14.2688 146.685 14.894 146.814L14.9396 146.823L14.9524 146.868C15.1184 147.451 15.378 148.071 15.7324 148.654L15.7576 148.695L15.7324 148.737C15.4396 149.221 15.1168 149.755 14.788 150.299L14.7748 150.197C15.4584 150.855 16.1956 151.565 16.9512 152.293L16.8436 152.283C17.3188 151.971 17.8408 151.628 18.3696 151.281L18.4144 151.252L18.4612 151.278C18.9944 151.575 19.6168 151.829 20.2728 151.989L20.3256 152.002L20.3384 152.055C20.4748 152.61 20.624 153.216 20.7744 153.829L20.6844 153.759C21.6412 153.742 22.6664 153.724 23.706 153.705L23.6172 153.779C23.7344 153.214 23.8612 152.604 23.9888 151.99L24.0004 151.935L24.0544 151.92C24.6496 151.751 25.2656 151.491 25.8372 151.145L25.8388 151.145L25.8876 151.116L25.9352 151.145C26.4596 151.462 26.9804 151.778 27.4964 152.091L27.3816 152.106C28.0912 151.372 28.7912 150.647 29.4808 149.933L29.47 150.047C29.1332 149.533 28.8 149.023 28.47 148.519L28.4396 148.473L28.4664 148.425C28.7872 147.85 29.026 147.239 29.18 146.615L29.1932 146.562L29.246 146.549C29.846 146.402 30.4368 146.258 31.0204 146.115L30.9528 146.203C30.9356 145.171 30.9192 144.164 30.9028 143.182L30.9708 143.264C30.3644 143.137 29.7684 143.012 29.1832 142.889L29.1336 142.879L29.12 142.831C28.9388 142.19 28.6748 141.588 28.346 141.043L28.3208 141.001L28.346 140.959C28.6712 140.424 28.9872 139.906 29.2952 139.4L29.3076 139.495C28.5444 138.755 27.824 138.057 27.138 137.392L27.2264 137.4C26.6884 137.751 26.1836 138.08 25.6968 138.397L25.6628 138.419L25.6276 138.4C25.0192 138.059 24.4088 137.829 23.812 137.679L23.776 137.67L23.7676 137.635C23.6116 136.989 23.4712 136.408 23.3384 135.859L23.3928 135.901C22.222 135.917 21.2248 135.929 20.3712 135.941L20.4112 135.907C20.258 136.621 20.1324 137.206 20.0276 137.693L20.0236 137.711L20.0064 137.716C19.3668 137.895 18.9172 138.103 18.6248 138.248C18.4852 138.321 18.378 138.377 18.3 138.418C18.2268 138.458 18.192 138.475 18.192 138.473C18.192 138.47 18.2264 138.447 18.2928 138.404C18.362 138.362 18.4664 138.298 18.6112 138.221C18.9004 138.067 19.3488 137.848 19.9908 137.659L19.97 137.682C20.0684 137.193 20.1864 136.606 20.3304 135.891L20.3368 135.859L20.3704 135.858C21.224 135.839 22.2212 135.817 23.3916 135.792L23.4352 135.791L23.446 135.833C23.5824 136.381 23.7264 136.962 23.8868 137.606L23.842 137.561C24.4496 137.709 25.0716 137.94 25.6932 138.283L25.624 138.286C26.1092 137.966 26.6124 137.635 27.1488 137.281L27.196 137.25L27.2372 137.289C27.926 137.951 28.6492 138.647 29.4156 139.384L29.46 139.427L29.428 139.48C29.1216 139.987 28.808 140.507 28.484 141.043V140.959C28.8216 141.516 29.0936 142.131 29.2804 142.785L29.2172 142.727C29.8028 142.848 30.3988 142.971 31.006 143.097L31.0728 143.111L31.074 143.179C31.0924 144.161 31.1108 145.169 31.13 146.2L31.1312 146.271L31.0624 146.288C30.4792 146.431 29.8884 146.577 29.2888 146.724L29.3548 146.659C29.1976 147.298 28.9544 147.925 28.626 148.515L28.6224 148.42C28.9528 148.924 29.2868 149.433 29.624 149.947L29.6644 150.008L29.6132 150.061C28.9236 150.776 28.224 151.501 27.5148 152.236L27.4632 152.289L27.3996 152.251C26.8836 151.938 26.3624 151.622 25.8384 151.304H25.9344L25.9328 151.305C25.3468 151.66 24.7148 151.927 24.1048 152.099L24.17 152.029C24.042 152.643 23.9152 153.252 23.7976 153.817L23.7824 153.889L23.7088 153.89C22.6692 153.908 21.644 153.925 20.6872 153.942L20.6144 153.943L20.5972 153.872C20.4476 153.26 20.2992 152.654 20.1636 152.098L20.2292 152.164C19.5572 151.999 18.9196 151.738 18.3748 151.433L18.466 151.429C17.9364 151.776 17.4136 152.118 16.938 152.429L16.88 152.467L16.8304 152.419C16.0764 151.689 15.3408 150.977 14.6588 150.317L14.6112 150.271L14.6456 150.215C14.976 149.672 15.3004 149.139 15.5944 148.655V148.738C15.234 148.141 14.9712 147.507 14.804 146.911L14.8624 146.965C14.2376 146.833 13.628 146.705 13.0748 146.589L13.0176 146.577L13.0168 146.519C13.0004 145.459 12.9852 144.449 12.9708 143.497L12.97 143.444L13.0212 143.431C13.6444 143.281 14.2432 143.135 14.7964 143.001L14.752 143.046C14.9224 142.364 15.1796 141.745 15.4848 141.201L15.4868 141.257C15.1284 140.706 14.7936 140.19 14.492 139.726L14.4712 139.694L14.4976 139.667C15.3572 138.787 16.0684 138.059 16.6092 137.505L16.626 137.488L16.646 137.501C17.1448 137.811 17.5292 138.05 17.796 138.216C17.922 138.296 18.0192 138.358 18.0916 138.404C18.158 138.447 18.192 138.47 18.192 138.473Z" fill="#E0E0E0"/>
<path d="M39.9472 129.997C40.2892 129.791 40.6532 129.634 41.0288 129.527L41.2516 128.457L43.0604 128.425L43.3208 129.487C43.7 129.58 44.0692 129.724 44.4184 129.919L45.3324 129.32L46.634 130.577L46.0672 131.511C46.274 131.853 46.4308 132.217 46.5372 132.592L47.6076 132.815L47.6392 134.624L46.5772 134.884C46.4836 135.263 46.34 135.633 46.1456 135.982L46.7448 136.896L45.4884 138.197L44.554 137.63C44.212 137.837 43.848 137.994 43.4724 138.101L43.2496 139.171L41.4408 139.203L41.1804 138.141C40.8012 138.047 40.432 137.903 40.0832 137.709L39.1692 138.308L37.8676 137.052L38.4344 136.117C38.2276 135.775 38.0708 135.411 37.9644 135.036L36.894 134.813L36.8624 133.004L37.9244 132.744C38.0176 132.365 38.1616 131.995 38.356 131.646L37.7568 130.732L39.0132 129.431L39.9472 129.997ZM40.9116 132.406C40.1672 133.178 40.1888 134.406 40.96 135.151C41.7312 135.895 42.9596 135.873 43.704 135.102C44.4484 134.331 44.4268 133.102 43.6556 132.358C42.8844 131.614 41.656 131.636 40.9116 132.406Z" fill="#F5F5F5"/>
<path d="M40.9116 132.406C40.9116 132.406 41.0132 132.264 41.2728 132.089C41.528 131.919 41.9736 131.73 42.5388 131.79C42.8172 131.821 43.1216 131.912 43.3992 132.096C43.674 132.279 43.9332 132.54 44.0952 132.88C44.1804 133.046 44.2396 133.231 44.2716 133.424C44.3064 133.617 44.3112 133.82 44.2824 134.022C44.2332 134.427 44.0416 134.826 43.7436 135.14C43.4404 135.449 43.0476 135.655 42.6444 135.718C42.4436 135.754 42.2408 135.757 42.0468 135.728C41.8524 135.703 41.6656 135.65 41.496 135.571C41.1512 135.421 40.8812 135.171 40.688 134.903C40.4948 134.632 40.3932 134.331 40.3524 134.054C40.2728 133.491 40.4464 133.039 40.6072 132.778C40.772 132.513 40.9116 132.406 40.9116 132.406C40.922 132.415 40.7944 132.534 40.6448 132.8C40.4988 133.062 40.344 133.504 40.4304 134.042C40.4748 134.308 40.576 134.594 40.7636 134.85C40.9508 135.103 41.2104 135.338 41.5384 135.478C41.6996 135.552 41.8772 135.6 42.0612 135.623C42.2448 135.649 42.4368 135.646 42.6264 135.611C43.008 135.55 43.3772 135.354 43.664 135.063C43.9452 134.766 44.1268 134.39 44.1748 134.007C44.2032 133.816 44.1992 133.624 44.1672 133.442C44.138 133.258 44.0832 133.083 44.0032 132.924C43.8524 132.602 43.608 132.351 43.3488 132.172C43.0864 131.994 42.7968 131.903 42.53 131.868C41.9884 131.801 41.5524 131.971 41.296 132.126C41.0348 132.285 40.9208 132.417 40.9116 132.406Z" fill="#F5F5F5"/>
<path d="M39.9472 129.997C39.9472 129.999 39.9268 129.988 39.8868 129.965C39.8428 129.94 39.784 129.906 39.7076 129.862C39.544 129.765 39.3088 129.626 39.0032 129.446L39.0252 129.443C38.7056 129.778 38.2848 130.218 37.7764 130.752L37.7796 130.716C37.9624 130.993 38.1652 131.3 38.3824 131.628L38.3932 131.644L38.3836 131.662C38.206 131.984 38.0568 132.35 37.9588 132.752L37.9536 132.774L37.932 132.779C37.6012 132.861 37.2432 132.95 36.8708 133.042L36.9008 133.003C36.912 133.572 36.924 134.177 36.9368 134.811L36.902 134.769C37.2336 134.838 37.5988 134.913 37.9728 134.99L38 134.996L38.0076 135.022C38.1072 135.372 38.2624 135.743 38.4744 136.092L38.4896 136.116L38.4744 136.142C38.2992 136.432 38.106 136.751 37.9092 137.077L37.9012 137.015C38.3104 137.41 38.7516 137.834 39.204 138.27L39.1396 138.264C39.424 138.077 39.7368 137.872 40.0532 137.664L40.08 137.646L40.108 137.662C40.4272 137.84 40.7996 137.992 41.1924 138.088L41.224 138.095L41.232 138.127C41.3136 138.46 41.4028 138.822 41.4932 139.189L41.4392 139.147C42.012 139.137 42.6256 139.126 43.248 139.115L43.1948 139.159C43.2652 138.821 43.3408 138.456 43.4172 138.088L43.424 138.055L43.4564 138.046C43.8124 137.945 44.1816 137.79 44.5236 137.582L44.5244 137.582L44.5536 137.565L44.582 137.582C44.896 137.772 45.2076 137.961 45.5164 138.149L45.4476 138.158C45.8724 137.718 46.2912 137.284 46.7044 136.856L46.698 136.925C46.4964 136.617 46.2968 136.312 46.0992 136.01L46.0812 135.983L46.0972 135.954C46.2892 135.61 46.432 135.244 46.5244 134.87L46.5324 134.839L46.564 134.831C46.9232 134.743 47.2768 134.657 47.626 134.572L47.5856 134.624C47.5756 134.007 47.5656 133.404 47.5556 132.815L47.5964 132.864C47.2332 132.788 46.8768 132.714 46.5264 132.64L46.4968 132.634L46.4888 132.605C46.3804 132.221 46.2224 131.861 46.0256 131.534L46.0104 131.509L46.0256 131.484C46.2204 131.164 46.4092 130.854 46.5936 130.551L46.6012 130.608C46.1444 130.165 45.7128 129.747 45.3024 129.349L45.3552 129.354C45.0332 129.564 44.7312 129.761 44.4396 129.951L44.4192 129.964L44.3984 129.952C44.034 129.748 43.6688 129.611 43.3116 129.521L43.29 129.516L43.2848 129.494C43.1916 129.108 43.1076 128.76 43.028 128.432L43.0604 128.457C42.3596 128.466 41.7628 128.474 41.2516 128.48L41.2756 128.46C41.184 128.888 41.1088 129.238 41.046 129.53L41.0436 129.54L41.0332 129.543C40.6504 129.65 40.3812 129.775 40.206 129.861C40.1224 129.905 40.0584 129.938 40.0116 129.963C39.968 129.988 39.9472 129.998 39.9472 129.997C39.9472 129.996 39.968 129.982 40.0076 129.956C40.0488 129.93 40.1116 129.892 40.1984 129.846C40.3716 129.754 40.64 129.623 41.024 129.51L41.0116 129.523C41.0704 129.231 41.1412 128.88 41.2276 128.451L41.2316 128.432L41.2516 128.432C41.7624 128.42 42.3596 128.407 43.06 128.392L43.086 128.392L43.0924 128.417C43.174 128.745 43.2604 129.093 43.3564 129.478L43.3296 129.451C43.6932 129.54 44.0656 129.678 44.4376 129.884L44.3964 129.885C44.6868 129.694 44.988 129.495 45.3092 129.284L45.3376 129.265L45.3624 129.288C45.7748 129.685 46.2076 130.101 46.6664 130.542L46.6928 130.568L46.6736 130.6C46.49 130.903 46.3024 131.214 46.1088 131.535V131.485C46.3108 131.818 46.4736 132.186 46.5856 132.578L46.548 132.543C46.8984 132.616 47.2556 132.69 47.6188 132.765L47.6588 132.773L47.6596 132.814C47.6704 133.402 47.6816 134.006 47.6932 134.623L47.694 134.665L47.6528 134.675C47.3036 134.761 46.95 134.848 46.5912 134.936L46.6308 134.897C46.5368 135.28 46.3908 135.655 46.1944 136.008L46.1924 135.952C46.3904 136.254 46.59 136.558 46.792 136.866L46.816 136.903L46.7856 136.934C46.3728 137.362 45.954 137.796 45.5296 138.236L45.4988 138.268L45.4608 138.245C45.152 138.058 44.84 137.868 44.5264 137.678H44.584L44.5828 137.679C44.232 137.891 43.8536 138.051 43.4884 138.154L43.5276 138.112C43.4512 138.48 43.3752 138.844 43.3048 139.182L43.296 139.226L43.252 139.226C42.6296 139.237 42.016 139.248 41.4432 139.257L41.3996 139.258L41.3892 139.216C41.2996 138.849 41.2108 138.486 41.1296 138.154L41.1688 138.193C40.7668 138.094 40.3848 137.938 40.0588 137.756L40.1136 137.754C39.7968 137.961 39.4836 138.166 39.1988 138.352L39.164 138.375L39.1344 138.346C38.6832 137.909 38.2428 137.483 37.8344 137.088L37.806 137.06L37.8264 137.026C38.024 136.701 38.2184 136.382 38.3944 136.093V136.142C38.1788 135.785 38.0212 135.405 37.9212 135.048L37.956 135.081C37.582 135.002 37.2172 134.926 36.886 134.856L36.8516 134.849L36.8512 134.814C36.8416 134.179 36.8324 133.575 36.8236 133.005L36.8232 132.974L36.854 132.966C37.2268 132.876 37.5856 132.789 37.9168 132.709L37.89 132.736C37.992 132.328 38.146 131.956 38.3288 131.631L38.33 131.665C38.1156 131.334 37.9152 131.026 37.7344 130.748L37.722 130.729L37.7376 130.713C38.2524 130.186 38.678 129.75 39.0016 129.419L39.0116 129.409L39.0236 129.416C39.3224 129.602 39.5524 129.746 39.712 129.845C39.7872 129.893 39.8456 129.93 39.8892 129.957C39.9272 129.982 39.9472 129.996 39.9472 129.997Z" fill="#F5F5F5"/>
<path d="M45.76 177.365L45.7579 177.357L44.9344 173.998C43.7211 173.698 42.5544 173.239 41.466 172.633L38.5679 174.533L38.562 174.527L34.4324 170.54L34.4364 170.533L36.2288 167.577C35.5844 166.51 35.0848 165.36 34.7432 164.158L31.3496 163.451L31.3492 163.443L31.2484 157.705L31.2564 157.703L34.6156 156.879C34.9148 155.667 35.3739 154.5 35.9799 153.411L34.0808 150.512L34.0864 150.506L38.0732 146.377L38.0799 146.381L41.0364 148.174C42.1024 147.53 43.2524 147.031 44.4548 146.688L45.1611 143.294L45.1691 143.294L50.9084 143.193L50.9104 143.201L51.7335 146.56C52.9483 146.86 54.1151 147.319 55.2023 147.925L58.1004 146.025L58.1064 146.031L62.2359 150.018L62.232 150.025L60.4395 152.981C61.0831 154.047 61.5832 155.197 61.9251 156.4L65.3187 157.107V157.115L65.4195 162.854L65.4116 162.856L62.0523 163.679C61.7527 164.893 61.2939 166.059 60.688 167.148L62.5875 170.046L62.5819 170.052L58.5952 174.181L58.5883 174.177L55.6323 172.385C54.5655 173.029 53.4155 173.529 52.2135 173.871L51.5072 177.265L51.4992 177.265L45.76 177.365ZM41.4652 172.61L41.4704 172.613C42.5608 173.221 43.7296 173.681 44.9447 173.98L44.9508 173.982L44.9523 173.988L45.7756 177.345L51.4908 177.245L52.1963 173.855L52.2023 173.853C53.4063 173.511 54.5588 173.01 55.6276 172.365L55.6327 172.361L55.638 172.365L58.5924 174.156L62.5624 170.044L60.6648 167.149L60.6676 167.144C61.2752 166.053 61.7351 164.884 62.0343 163.669L62.0359 163.663L62.0419 163.661L65.3992 162.838L65.2987 157.123L61.9088 156.417L61.9072 156.411C61.5648 155.206 61.0639 154.053 60.4187 152.986L60.4156 152.981L60.4187 152.976L62.2104 150.021L58.0979 146.051L55.2031 147.949L55.1979 147.945C54.1091 147.338 52.9399 146.878 51.7232 146.578L51.7171 146.577L51.7156 146.571L50.8928 143.213L45.1776 143.313L44.472 146.704L44.466 146.706C43.2616 147.048 42.1091 147.549 41.0411 148.194L41.0359 148.197L41.0308 148.194L38.076 146.403L34.106 150.515L36.0036 153.41L36.0008 153.415C35.3928 154.507 34.9332 155.675 34.634 156.89L34.6324 156.896L34.6264 156.897L31.2691 157.721L31.3691 163.435L34.7596 164.141L34.7612 164.147C35.1028 165.351 35.6036 166.503 36.2496 167.573L36.2528 167.578L36.2496 167.583L34.4579 170.537L38.5704 174.508L41.4652 172.61ZM48.5119 166.251C46.9079 166.251 45.394 165.64 44.2368 164.523C43.0532 163.38 42.3856 161.845 42.3563 160.2C42.3275 158.555 42.9412 156.997 44.0836 155.814C45.2263 154.631 46.7615 153.963 48.4063 153.934C48.4436 153.933 48.4807 153.933 48.5175 153.933C50.1211 153.933 51.6356 154.544 52.7924 155.661C53.976 156.803 54.6435 158.338 54.6723 159.984C54.7011 161.628 54.0876 163.186 52.9452 164.37C51.8024 165.553 50.2675 166.221 48.6224 166.25C48.5863 166.251 48.5492 166.251 48.5119 166.251ZM44.0915 155.821L44.0988 155.828C42.9596 157.008 42.3484 158.561 42.3772 160.2C42.406 161.84 43.0715 163.37 44.2515 164.509C45.4043 165.622 46.9139 166.231 48.5124 166.231C48.5491 166.231 48.5863 166.231 48.6231 166.23C50.2627 166.201 51.7927 165.536 52.9315 164.356C54.0707 163.177 54.6819 161.624 54.6531 159.984C54.6243 158.345 53.9587 156.815 52.7792 155.676C51.6263 154.563 50.1167 153.953 48.5183 153.953C48.4815 153.953 48.4443 153.954 48.4075 153.955C46.7679 153.983 45.238 154.649 44.0992 155.829L44.0915 155.821Z" fill="#E0E0E0"/>
<path d="M44.0916 155.821C44.0916 155.821 44.4132 155.368 45.2364 154.816C46.0444 154.278 47.4568 153.679 49.248 153.868C50.13 153.967 51.0948 154.255 51.9744 154.837C52.8444 155.418 53.666 156.246 54.1792 157.321C54.4496 157.849 54.6368 158.435 54.7384 159.047C54.8488 159.658 54.8648 160.301 54.7728 160.94C54.6172 162.225 54.0096 163.49 53.066 164.485C52.1052 165.464 50.8612 166.116 49.5824 166.317C48.9464 166.431 48.3036 166.438 47.6892 166.349C47.074 166.269 46.4812 166.102 45.9444 165.85C44.8524 165.375 43.996 164.583 43.384 163.734C42.7716 162.875 42.4504 161.921 42.3204 161.043C42.0688 159.26 42.618 157.827 43.1276 157.001C43.6496 156.159 44.0916 155.821 44.0916 155.821C44.1248 155.849 43.7204 156.225 43.2468 157.069C42.7836 157.898 42.2936 159.297 42.5672 161.005C42.708 161.846 43.0284 162.753 43.6228 163.564C44.2164 164.366 45.0384 165.112 46.0772 165.553C46.588 165.789 47.1504 165.942 47.7336 166.015C48.3156 166.096 48.9244 166.087 49.5252 165.976C50.734 165.782 51.9044 165.164 52.8132 164.24C53.7044 163.299 54.28 162.109 54.4316 160.894C54.5212 160.29 54.5092 159.681 54.4072 159.103C54.3144 158.523 54.1412 157.966 53.888 157.464C53.4104 156.441 52.6364 155.646 51.814 155.081C50.9828 154.515 50.0648 154.227 49.2196 154.115C47.5036 153.902 46.1224 154.441 45.3096 154.933C44.4816 155.436 44.1208 155.853 44.0916 155.821Z" fill="#E0E0E0"/>
<path d="M41.036 148.186C41.036 148.191 40.972 148.157 40.8448 148.085C40.7056 148.004 40.5188 147.897 40.2768 147.757C39.7588 147.451 39.0132 147.01 38.0448 146.438L38.1144 146.429C37.1012 147.491 35.7688 148.887 34.1572 150.576L34.168 150.465C34.7468 151.34 35.39 152.313 36.078 153.354L36.1124 153.406L36.082 153.461C35.5192 154.48 35.0464 155.642 34.736 156.916L34.7196 156.983L34.6512 157C33.6032 157.261 32.4684 157.542 31.2884 157.835L31.384 157.711C31.42 159.516 31.458 161.431 31.498 163.442L31.3876 163.308C32.438 163.525 33.5948 163.763 34.7804 164.008L34.8668 164.026L34.8912 164.11C35.2064 165.217 35.6984 166.393 36.3704 167.499L36.418 167.577L36.3704 167.656C35.8152 168.575 35.2028 169.588 34.5792 170.62L34.554 170.426C35.8508 171.675 37.2492 173.022 38.6824 174.402L38.4784 174.383C39.38 173.79 40.37 173.14 41.3732 172.481L41.458 172.426L41.5464 172.475C42.5572 173.038 43.7384 173.52 44.9828 173.824L45.0828 173.848L45.1076 173.948C45.3664 175.002 45.6492 176.152 45.9348 177.313L45.764 177.182C47.5788 177.149 49.5236 177.114 51.4952 177.078L51.3268 177.218C51.5496 176.146 51.7896 174.99 52.032 173.826L52.0536 173.721L52.156 173.692C53.2844 173.373 54.4536 172.88 55.5372 172.224L55.5404 172.222L55.6328 172.167L55.7228 172.222C56.7172 172.825 57.7052 173.424 58.684 174.018L58.466 174.046C59.8116 172.652 61.1396 171.278 62.448 169.923L62.4276 170.14C61.7888 169.164 61.1564 168.198 60.5304 167.242L60.4728 167.154L60.524 167.063C61.1328 165.973 61.5852 164.813 61.8772 163.63L61.9024 163.529L62.0028 163.505C63.1408 163.226 64.2616 162.953 65.3684 162.682L65.2404 162.848C65.208 160.892 65.1764 158.981 65.1456 157.118L65.2748 157.274C64.1244 157.033 62.994 156.796 61.884 156.564L61.79 156.544L61.764 156.452C61.4208 155.237 60.9196 154.096 60.2964 153.06L60.2484 152.981L60.2964 152.902C60.9136 151.888 61.512 150.904 62.0968 149.944L62.1204 150.125C60.6728 148.722 59.306 147.397 58.0048 146.136L58.1724 146.151C57.152 146.816 56.1948 147.44 55.2712 148.042L55.2068 148.084L55.1404 148.047C53.986 147.401 52.8288 146.965 51.6968 146.681L51.6284 146.664L51.612 146.596C51.3164 145.372 51.05 144.27 50.7984 143.229L50.9016 143.308C48.6812 143.337 46.7896 143.362 45.17 143.383L45.246 143.32C44.9552 144.674 44.7172 145.783 44.5184 146.708L44.5112 146.742L44.4784 146.751C43.2656 147.09 42.4124 147.486 41.8576 147.759C41.5928 147.898 41.3896 148.004 41.2412 148.081C41.102 148.158 41.036 148.191 41.036 148.186C41.0364 148.182 41.1016 148.136 41.2272 148.056C41.3584 147.976 41.5568 147.854 41.8312 147.708C42.3796 147.416 43.23 147.001 44.4476 146.642L44.4076 146.685C44.5944 145.758 44.8184 144.645 45.0916 143.288L45.104 143.227L45.168 143.225C46.7872 143.19 48.6784 143.148 50.8984 143.1L50.9812 143.098L51.0016 143.179C51.26 144.218 51.5336 145.319 51.8376 146.541L51.7528 146.456C52.9052 146.737 54.0856 147.174 55.264 147.826L55.1332 147.831C56.0536 147.224 57.008 146.596 58.0252 145.925L58.1148 145.866L58.1928 145.941C59.4988 147.197 60.8708 148.516 62.3244 149.914L62.4088 149.995L62.348 150.096C61.7668 151.058 61.1716 152.043 60.558 153.06L60.5584 152.902C61.1988 153.958 61.7148 155.124 62.0688 156.365L61.9492 156.254C63.06 156.484 64.1908 156.717 65.342 156.955L65.4688 156.982L65.4712 157.112C65.5056 158.975 65.5412 160.886 65.5776 162.842L65.58 162.976L65.4496 163.008C64.3432 163.28 63.2228 163.556 62.0852 163.836L62.21 163.711C61.9124 164.924 61.45 166.113 60.8276 167.232L60.8212 167.053C61.4484 168.008 62.0816 168.974 62.7208 169.948L62.7972 170.065L62.7004 170.165C61.3924 171.521 60.0652 172.896 58.7204 174.29L58.6228 174.391L58.5024 174.318C57.5232 173.725 56.5352 173.126 55.5412 172.523H55.7236L55.7204 172.525C54.6092 173.198 53.41 173.704 52.2532 174.031L52.3772 173.898C52.1348 175.062 51.8936 176.218 51.6708 177.29L51.642 177.427L51.502 177.429C49.5304 177.463 47.5856 177.496 45.7708 177.527L45.6328 177.53L45.6 177.396C45.316 176.234 45.0348 175.084 44.7772 174.03L44.902 174.155C43.6276 173.842 42.4184 173.347 41.3844 172.768L41.5576 172.761C40.5532 173.418 39.562 174.067 38.6592 174.657L38.5492 174.729L38.4552 174.638C37.0252 173.254 35.63 171.903 34.3364 170.651L34.246 170.564L34.3112 170.457C34.938 169.427 35.5528 168.416 36.1108 167.499V167.656C35.4272 166.524 34.9288 165.32 34.6116 164.19L34.722 164.292C33.5368 164.043 32.3812 163.8 31.3312 163.58L31.2224 163.557L31.2204 163.446C31.1896 161.436 31.1604 159.52 31.1328 157.715L31.1312 157.614L31.2284 157.591C32.41 157.305 33.5464 157.03 34.5956 156.775L34.5108 156.86C34.834 155.567 35.322 154.391 35.9008 153.36L35.9044 153.467C35.2248 152.421 34.5896 151.443 34.0176 150.563L33.9784 150.503L34.028 150.452C35.6588 148.782 37.0072 147.402 38.0328 146.351L38.0648 146.318L38.1024 146.342C39.0488 146.931 39.778 147.384 40.284 147.699C40.5228 147.851 40.7072 147.968 40.8448 148.056C40.972 148.138 41.0364 148.181 41.036 148.186Z" fill="#E0E0E0"/>
<path d="M155.569 22.8955L35.6357 31.7705L46.9637 184.853L166.897 175.978L155.569 22.8955Z" fill="white"/>
<path d="M46.7836 185.061L46.7688 184.862L35.4212 31.5838L35.6208 31.569L155.75 22.6758L155.765 22.8754L167.112 176.153L166.913 176.168L46.7836 185.061ZM35.8496 31.9534L47.1528 184.633L166.684 175.783L155.381 23.1042L35.8496 31.9534Z" fill="#263238"/>
<path d="M144.985 29.5747L112.673 31.9658L112.826 34.0406L145.138 31.6495L144.985 29.5747Z" fill="#8E9FAA"/>
<path d="M144.597 45.5021C144.598 45.5093 144.53 45.5213 144.4 45.5377C144.246 45.5545 144.058 45.5749 143.83 45.5997C143.303 45.6477 142.594 45.7117 141.732 45.7901C139.93 45.9397 137.496 46.1421 134.807 46.3657C132.102 46.5881 129.65 46.7657 127.875 46.8805C127.012 46.9317 126.301 46.9737 125.772 47.0049C125.544 47.0141 125.355 47.0217 125.2 47.0277C125.069 47.0305 125 47.0289 124.999 47.0217C124.999 47.0145 125.067 47.0025 125.197 46.9861C125.351 46.9693 125.539 46.9489 125.766 46.9241C126.294 46.8761 127.002 46.8121 127.864 46.7337C129.666 46.5841 132.1 46.3817 134.79 46.1581C137.495 45.9357 139.946 45.7581 141.721 45.6433C142.585 45.5921 143.296 45.5501 143.824 45.5189C144.053 45.5097 144.242 45.5021 144.397 45.4957C144.528 45.4933 144.597 45.4949 144.597 45.5021Z" fill="#8E9FAA"/>
<path d="M146.534 53.325C146.538 53.3826 139.493 53.9506 130.8 54.5942C122.104 55.2378 115.053 55.7134 115.048 55.6558C115.044 55.5986 122.088 55.0302 130.784 54.3866C139.477 53.743 146.53 53.2678 146.534 53.325Z" fill="#263238"/>
<path d="M147.065 63.2976C147.07 63.3548 140.024 63.9232 131.331 64.5668C122.635 65.2104 115.584 65.686 115.58 65.6284C115.575 65.5712 122.619 65.0028 131.316 64.3592C140.009 63.7156 147.061 63.2404 147.065 63.2976Z" fill="#263238"/>
<path d="M147.065 58.3113C147.07 58.3685 140.024 58.9369 131.331 59.5805C122.635 60.2241 115.584 60.6997 115.58 60.6421C115.575 60.5849 122.619 60.0165 131.316 59.3729C140.009 58.7293 147.061 58.2541 147.065 58.3113Z" fill="#263238"/>
<path d="M80.9804 128.135C80.9848 128.193 77.3324 128.51 72.8244 128.844C68.3144 129.178 64.6563 129.402 64.6523 129.344C64.6479 129.287 68.2995 128.97 72.8091 128.636C77.3171 128.302 80.976 128.078 80.9804 128.135Z" fill="#8E9FAA"/>
<path d="M74.1572 137.721C74.1616 137.778 69.2688 138.187 63.23 138.635C57.1892 139.082 52.2908 139.398 52.2864 139.34C52.282 139.283 57.174 138.874 63.2144 138.427C69.2532 137.979 74.1528 137.664 74.1572 137.721Z" fill="#8E9FAA"/>
<path d="M113.993 138.532C113.997 138.589 100.248 139.654 83.2872 140.909C66.3204 142.165 52.5676 143.137 52.5632 143.079C52.5588 143.022 66.3052 141.958 83.272 140.701C100.233 139.446 113.989 138.474 113.993 138.532Z" fill="#263238"/>
<path d="M74.8452 147.017C74.8496 147.075 69.9568 147.484 63.918 147.931C57.8772 148.378 52.9788 148.694 52.9744 148.637C52.97 148.579 57.862 148.17 63.9024 147.723C69.9412 147.276 74.8412 146.96 74.8452 147.017Z" fill="#8E9FAA"/>
<path d="M114.681 147.829C114.686 147.886 100.936 148.951 83.9756 150.206C67.0088 151.462 53.256 152.434 53.2516 152.376C53.2472 152.319 66.9936 151.254 83.9604 149.998C100.921 148.743 114.677 147.771 114.681 147.829Z" fill="#263238"/>
<path d="M75.5336 156.314C75.538 156.372 70.6448 156.781 64.6064 157.228C58.566 157.675 53.6672 157.991 53.6628 157.934C53.6584 157.876 58.5504 157.467 64.5908 157.02C70.6296 156.573 75.5292 156.257 75.5336 156.314Z" fill="#8E9FAA"/>
<path d="M115.37 157.125C115.374 157.183 101.625 158.247 84.664 159.503C67.6972 160.759 53.9444 161.731 53.94 161.673C53.9356 161.616 67.682 160.551 84.6488 159.295C101.609 158.039 115.365 157.068 115.37 157.125Z" fill="#263238"/>
<path d="M77.05 165.726C77.0544 165.783 72.1616 166.192 66.1228 166.639C60.082 167.086 55.1836 167.402 55.1792 167.345C55.1748 167.288 60.0668 166.878 66.1072 166.431C72.146 165.984 77.046 165.668 77.05 165.726Z" fill="#8E9FAA"/>
<path d="M116.886 166.537C116.89 166.594 103.141 167.659 86.1804 168.914C69.2136 170.17 55.4608 171.142 55.4564 171.084C55.452 171.027 69.1984 169.962 86.1652 168.706C103.126 167.451 116.882 166.479 116.886 166.537Z" fill="#263238"/>
<path d="M60.5536 126.287L53.054 126.842L53.4066 131.607L60.9063 131.052L60.5536 126.287Z" fill="#8E9FAA"/>
<path d="M58.6617 131.218L55.6503 131.441L55.7606 132.932L58.7721 132.71L58.6617 131.218Z" fill="#8E9FAA"/>
<path d="M59.9224 132.569C59.9276 132.626 58.8032 132.774 57.4116 132.899C56.0192 133.023 54.8867 133.078 54.8815 133.021C54.8763 132.964 56.0003 132.816 57.3927 132.691C58.7847 132.566 59.9172 132.511 59.9224 132.569Z" fill="#8E9FAA"/>
<path d="M121.149 120.871L125.838 118.302L130.452 120.053L126.13 122.773L121.149 120.871Z" fill="#8E9FAA"/>
<path d="M122.27 121.946L122.46 124.868L129.683 124.233L129.435 121.416L126.098 123.433L122.27 121.946Z" fill="#8E9FAA"/>
<path d="M150.8 121.441C150.804 121.498 147.152 121.815 142.644 122.149C138.134 122.483 134.476 122.707 134.471 122.65C134.467 122.593 138.118 122.275 142.628 121.941C147.136 121.608 150.795 121.384 150.8 121.441Z" fill="#8E9FAA"/>
<path d="M134.051 131.478C134.055 131.536 131.545 131.768 128.446 131.997C125.346 132.227 122.83 132.367 122.825 132.309C122.821 132.252 125.33 132.019 128.431 131.79C131.53 131.56 134.047 131.421 134.051 131.478Z" fill="#263238"/>
<path d="M154.655 134.017C154.659 134.075 147.604 134.644 138.898 135.289C130.19 135.933 123.129 136.409 123.124 136.352C123.12 136.295 130.174 135.725 138.882 135.081C147.588 134.436 154.65 133.96 154.655 134.017Z" fill="#263238"/>
<path d="M134.892 141.865C134.896 141.923 132.386 142.155 129.287 142.385C126.187 142.615 123.671 142.754 123.666 142.697C123.662 142.639 126.171 142.407 129.272 142.177C132.371 141.948 134.888 141.808 134.892 141.865Z" fill="#263238"/>
<path d="M155.496 144.405C155.5 144.462 148.445 145.032 139.739 145.676C131.031 146.321 123.97 146.797 123.966 146.739C123.961 146.682 131.015 146.113 139.724 145.468C148.43 144.824 155.492 144.348 155.496 144.405Z" fill="#263238"/>
<path d="M135.531 152.129C135.536 152.186 133.026 152.419 129.926 152.649C126.826 152.878 124.31 153.018 124.306 152.96C124.301 152.903 126.81 152.67 129.911 152.441C133.01 152.211 135.527 152.072 135.531 152.129Z" fill="#263238"/>
<path d="M156.135 154.669C156.14 154.726 149.084 155.295 140.378 155.94C131.67 156.584 124.609 157.06 124.605 157.003C124.6 156.945 131.654 156.376 140.363 155.732C149.069 155.088 156.131 154.612 156.135 154.669Z" fill="#263238"/>
<path d="M136.677 162.984C136.681 163.041 134.171 163.274 131.072 163.503C127.972 163.732 125.456 163.872 125.451 163.814C125.447 163.757 127.956 163.524 131.056 163.295C134.156 163.066 136.672 162.926 136.677 162.984Z" fill="#263238"/>
<path d="M157.281 165.523C157.285 165.58 150.23 166.149 141.524 166.794C132.816 167.438 125.755 167.914 125.75 167.857C125.746 167.8 132.8 167.23 141.508 166.586C150.214 165.942 157.276 165.465 157.281 165.523Z" fill="#263238"/>
<path d="M118.57 45.2023C119.182 44.8907 119.583 44.2059 119.53 43.4383C119.46 42.4327 118.639 41.6703 117.696 41.7359C116.753 41.8011 116.045 42.6695 116.116 43.6751C116.17 44.4499 116.671 45.0755 117.329 45.2939C114.732 45.8839 115.062 48.7299 115.062 48.7299L121.276 48.2987C121.276 48.2987 121.203 45.4027 118.57 45.2023Z" fill="#8E9FAA"/>
<path d="M128.694 85.529C128.698 85.5862 126.168 85.8206 123.044 86.0518C119.919 86.283 117.384 86.4242 117.379 86.3666C117.375 86.3094 119.904 86.0754 123.029 85.8438C126.153 85.6126 128.689 85.4714 128.694 85.529Z" fill="#263238"/>
<path d="M129.122 90.5231C129.126 90.5803 126.596 90.8147 123.472 91.0459C120.347 91.2771 117.812 91.4183 117.807 91.3607C117.803 91.3035 120.332 91.0695 123.457 90.8379C126.581 90.6067 129.117 90.4655 129.122 90.5231Z" fill="#263238"/>
<path d="M151.065 84.4591L132.653 85.8223C132.31 85.8479 132.01 85.5899 131.985 85.2463C131.96 84.9027 132.218 84.6035 132.561 84.5783L150.973 83.2151C151.317 83.1895 151.616 83.4475 151.641 83.7911C151.666 84.1343 151.409 84.4335 151.065 84.4591Z" fill="#E0E0E0"/>
<path d="M148.374 84.6583L132.653 85.8224C132.31 85.848 132.01 85.59 131.985 85.2463C131.96 84.9028 132.218 84.6036 132.561 84.5784L148.282 83.4143C148.626 83.3887 148.925 83.6468 148.95 83.9904C148.976 84.3336 148.718 84.6327 148.374 84.6583Z" fill="#8E9FAA"/>
<path d="M151.413 89.1579L133.001 90.5211C132.658 90.5467 132.358 90.2887 132.333 89.9451C132.308 89.6015 132.566 89.3023 132.909 89.2771L151.321 87.9139C151.665 87.8883 151.964 88.1463 151.989 88.4899C152.014 88.8335 151.756 89.1327 151.413 89.1579Z" fill="#E0E0E0"/>
<path d="M145.92 89.5646L133.001 90.521C132.657 90.5466 132.358 90.2886 132.333 89.945C132.307 89.6014 132.565 89.3022 132.909 89.277L145.828 88.3206C146.171 88.295 146.47 88.553 146.496 88.8966C146.521 89.2402 146.263 89.5394 145.92 89.5646Z" fill="#8E9FAA"/>
<path d="M129.665 95.6222C129.67 95.6798 127.14 95.9138 124.016 96.145C120.891 96.3762 118.355 96.5174 118.351 96.4598C118.346 96.4026 120.876 96.1686 124.001 95.937C127.124 95.7058 129.661 95.5646 129.665 95.6222Z" fill="#263238"/>
<path d="M130.093 100.616C130.098 100.674 127.568 100.908 124.444 101.139C121.319 101.37 118.783 101.512 118.779 101.454C118.774 101.397 121.304 101.163 124.429 100.931C127.552 100.7 130.089 100.559 130.093 100.616Z" fill="#263238"/>
<path d="M152.037 94.5524L133.625 95.9156C133.281 95.9412 132.982 95.6832 132.957 95.3396C132.931 94.996 133.189 94.6968 133.533 94.6716L151.945 93.3084C152.288 93.2828 152.588 93.5408 152.613 93.8844C152.638 94.2276 152.38 94.5268 152.037 94.5524Z" fill="#E0E0E0"/>
<path d="M149.346 94.7516L133.625 95.9156C133.281 95.9412 132.982 95.6832 132.957 95.3396C132.931 94.996 133.189 94.6968 133.533 94.6716L149.254 93.5076C149.598 93.482 149.897 93.74 149.922 94.0836C149.947 94.4268 149.689 94.726 149.346 94.7516Z" fill="#8E9FAA"/>
<path d="M152.384 99.2516L133.972 100.615C133.628 100.64 133.329 100.382 133.304 100.039C133.278 99.6952 133.536 99.396 133.88 99.3708L152.292 98.0076C152.636 97.982 152.935 98.24 152.96 98.5836C152.986 98.9268 152.728 99.226 152.384 99.2516Z" fill="#E0E0E0"/>
<path d="M146.891 99.6579L133.972 100.614C133.629 100.64 133.33 100.382 133.304 100.038C133.279 99.6947 133.537 99.3955 133.88 99.3703L146.799 98.4139C147.143 98.3883 147.442 98.6463 147.467 98.9899C147.492 99.3335 147.235 99.6327 146.891 99.6579Z" fill="#8E9FAA"/>
<path d="M130.734 105.94C130.739 105.998 128.209 106.232 125.085 106.463C121.96 106.694 119.424 106.836 119.42 106.778C119.416 106.72 121.945 106.487 125.07 106.255C128.194 106.024 130.73 105.883 130.734 105.94Z" fill="#263238"/>
<path d="M153.106 104.87L134.694 106.233C134.35 106.259 134.051 106.001 134.026 105.657C134.001 105.314 134.258 105.015 134.602 104.989L153.014 103.626C153.358 103.601 153.657 103.859 153.682 104.202C153.708 104.546 153.45 104.845 153.106 104.87Z" fill="#E0E0E0"/>
<path d="M144.907 105.478L134.694 106.234C134.35 106.259 134.051 106.001 134.026 105.658C134.001 105.314 134.258 105.015 134.602 104.99L144.815 104.234C145.159 104.208 145.458 104.466 145.483 104.81C145.509 105.153 145.251 105.452 144.907 105.478Z" fill="#8E9FAA"/>
<path d="M122.569 80.4388L121.922 79.298C122.208 78.8332 122.374 78.286 122.374 77.7C122.374 76.0148 121.008 74.6484 119.322 74.6484C117.637 74.6484 116.271 76.0148 116.271 77.7C116.271 79.3852 117.637 80.7516 119.322 80.7516C120.026 80.7516 120.674 80.5128 121.19 80.1124L121.189 80.1136L122.569 80.4388Z" fill="#8E9FAA"/>
<path d="M146.213 76.1015C146.218 76.1591 141.951 76.5231 136.685 76.9143C131.418 77.3059 127.145 77.5771 127.141 77.5195C127.136 77.4623 131.402 77.0983 136.67 76.7063C141.936 76.3151 146.209 76.0439 146.213 76.1015Z" fill="#8E9FAA"/>
<path d="M38.0364 31.7506L45.6764 122.131L113.088 117.117L105.807 26.5742L38.0364 31.7506Z" fill="#EBEBEB"/>
<path d="M107.331 23.4605L40.7009 28.3911L47.3995 118.913L114.03 113.983L107.331 23.4605Z" fill="#FAFAFA"/>
<path d="M47.2172 119.123L47.2024 118.923L40.4864 28.2046L40.6856 28.1898L107.513 23.2422L107.528 23.4414L114.244 114.161L114.045 114.175L47.2172 119.123ZM40.9148 28.5738L47.5868 118.694L113.816 113.791L107.144 23.6706L40.9148 28.5738Z" fill="#263238"/>
<path d="M93.9244 37.1597C93.9208 37.1601 93.9112 37.1085 93.896 37.0077C93.8804 36.8965 93.8596 36.7481 93.8328 36.5589C93.7804 36.1521 93.7056 35.5721 93.6104 34.8305C93.5168 34.0757 93.4032 33.1577 93.2716 32.0941C93.1988 31.5621 93.1612 30.9841 93.0132 30.4025C92.9368 30.1133 92.828 29.8221 92.6504 29.5673C92.4732 29.3157 92.2216 29.1013 91.914 29.0029C91.2992 28.7965 90.5448 29.0029 90.0248 29.4825C89.4956 29.9717 89.2016 30.7057 89.0552 31.4709C88.7608 33.0237 88.908 34.7357 89.2128 36.4881C89.37 37.3653 89.5376 38.2697 89.7368 39.1793C89.942 40.0853 90.218 41.0041 90.7148 41.8245C91.206 42.6349 91.9692 43.3253 92.898 43.6381C93.3588 43.7905 93.8612 43.8457 94.3404 43.7413C94.8228 43.6505 95.2668 43.3953 95.6368 43.0621C96.3752 42.3749 96.7844 41.4017 96.9032 40.4253C97.0328 39.4413 96.9316 38.4533 96.8268 37.4889C96.6112 35.5541 96.4032 33.6881 96.2048 31.9097C96.1064 31.0209 96.01 30.1537 95.9168 29.3113C95.8232 28.4689 95.7392 27.6517 95.5896 26.8753C95.4444 26.0989 95.2292 25.3621 94.906 24.7081C94.5832 24.0553 94.1424 23.4957 93.6192 23.0837C92.5604 22.2605 91.2948 22.0053 90.2432 22.0653C89.18 22.1281 88.2944 22.5029 87.7352 22.9993C87.1656 23.4917 86.9104 24.0429 86.7752 24.4093C86.646 24.7841 86.6184 24.9933 86.6052 24.9905C86.6052 24.9905 86.6176 24.7793 86.7356 24.3957C86.8596 24.0209 87.1064 23.4525 87.682 22.9381C88.2472 22.4197 89.1508 22.0237 90.236 21.9489C91.3104 21.8765 92.6092 22.1245 93.71 22.9673C94.2544 23.3897 94.7144 23.9665 95.0496 24.6357C95.3852 25.3057 95.608 26.0569 95.7588 26.8421C95.914 27.6277 96.0016 28.4493 96.0984 29.2905C96.1948 30.1325 96.2936 30.9993 96.3952 31.8877C96.5972 33.6657 96.8092 35.5317 97.0292 37.4657C97.1356 38.4317 97.2408 39.4349 97.1084 40.4517C96.986 41.4613 96.5616 42.4865 95.7776 43.2149C95.3844 43.5701 94.9052 43.8461 94.382 43.9445C93.8624 44.0569 93.3212 43.9965 92.832 43.8341C91.8464 43.5005 91.0524 42.7761 90.5404 41.9301C90.0268 41.0785 89.748 40.1381 89.5428 39.2229C89.3432 38.3029 89.1792 37.4037 89.0236 36.5201C88.7224 34.7577 88.5776 33.0233 88.8856 31.4373C89.0396 30.6533 89.3468 29.8849 89.9156 29.3637C90.48 28.8517 91.2816 28.6333 91.9612 28.8629C92.3004 28.9741 92.5764 29.2137 92.7652 29.4869C92.9544 29.7633 93.0652 30.0701 93.1416 30.3689C93.2888 30.9717 93.32 31.5481 93.3876 32.0801C93.5056 33.1453 93.6076 34.0645 93.6912 34.8205C93.77 35.5637 93.8316 36.1457 93.8748 36.5533C93.8928 36.7433 93.9068 36.8929 93.9172 37.0045C93.9252 37.1069 93.928 37.1593 93.9244 37.1597Z" fill="#263238"/>
</svg>
