<svg width="101" height="100" viewBox="0 0 101 100" fill="none" xmlns="http://www.w3.org/2000/svg">
<g clip-path="url(#clip0_772_20469)">
<path d="M100.5 76.48H0.5V76.53H100.5V76.48Z" fill="#EBEBEB"/>
<path d="M90.4804 79.6982H83.8564V79.7482H90.4804V79.6982Z" fill="#EBEBEB"/>
<path d="M66.7439 80.2422H65.0059V80.2922H66.7439V80.2422Z" fill="#EBEBEB"/>
<path d="M83.6564 77.8418H79.8184V77.8918H83.6564V77.8418Z" fill="#EBEBEB"/>
<path d="M19.6302 78.1782H10.9922V78.2282H19.6302V78.1782Z" fill="#EBEBEB"/>
<path d="M22.6781 78.1782H21.4121V78.2282H22.6781V78.1782Z" fill="#EBEBEB"/>
<path d="M45.5299 79.022H26.7939V79.072H45.5299V79.022Z" fill="#EBEBEB"/>
<path d="M47.8996 67.56H9.2816C8.6516 67.559 8.1416 67.048 8.1416 66.418V12.132C8.147 11.506 8.6556 11.001 9.2816 11H47.8996C48.5302 11 49.0416 11.5112 49.0416 12.142V66.418C49.0416 67.0486 48.5302 67.56 47.8996 67.56ZM9.2816 11.04C8.6792 11.0412 8.1916 11.5296 8.1916 12.132V66.418C8.1916 67.0204 8.6792 67.5088 9.2816 67.51H47.8996C48.5022 67.509 48.9904 67.0206 48.9916 66.418V12.132C48.9904 11.5294 48.5022 11.0412 47.8996 11.04H9.2816Z" fill="#EBEBEB"/>
<path d="M91.1624 67.56H52.5424C51.9122 67.559 51.4016 67.0482 51.4004 66.418V12.132C51.407 11.5056 51.916 11.001 52.5424 11H91.1624C91.7876 11.0022 92.295 11.5068 92.3004 12.132V66.418C92.3004 67.0472 91.7916 67.5578 91.1624 67.56ZM52.5424 11.04C51.9398 11.0412 51.4516 11.5294 51.4504 12.132V66.418C51.4514 67.0206 51.9398 67.5088 52.5424 67.51H91.1624C91.765 67.509 92.2532 67.0206 92.2544 66.418V12.132C92.2534 11.5294 91.765 11.0412 91.1624 11.04H52.5424Z" fill="#EBEBEB"/>
<path d="M24.0362 57.1123H20.752V75.4481H24.0362V57.1123Z" fill="#F0F0F0"/>
<path d="M43.3036 75.4482H20.752V76.4444H43.3036V75.4482Z" fill="#F0F0F0"/>
<path d="M43.3041 57.1123H23.7725V75.4481H43.3041V57.1123Z" fill="#F5F5F5"/>
<path d="M42.0117 59.0479H25.0625V65.5115H42.0117V59.0479Z" fill="#F0F0F0"/>
<path d="M42.0117 67.0493H25.0625V73.5129H42.0117V67.0493Z" fill="#F0F0F0"/>
<path d="M37.5485 61.071H29.5281C29.3675 61.071 29.2373 60.9408 29.2373 60.7802V60.6546C29.2373 60.494 29.3675 60.3638 29.5281 60.3638H37.5485C37.7091 60.3638 37.8393 60.494 37.8393 60.6546V60.7802C37.8393 60.9408 37.7091 61.071 37.5485 61.071Z" fill="#F5F5F5"/>
<path d="M37.5485 69.0739H29.5281C29.3675 69.0739 29.2373 68.9437 29.2373 68.7831V68.6575C29.2373 68.4969 29.3675 68.3667 29.5281 68.3667H37.5485C37.7091 68.3667 37.8393 68.4969 37.8393 68.6575V68.7831C37.8393 68.9437 37.7091 69.0739 37.5485 69.0739Z" fill="#F5F5F5"/>
<path d="M87.9267 19.7725H41.1895V46.5481H87.9267V19.7725Z" fill="#E6E6E6"/>
<path d="M88.6214 19.7725H41.5146V46.5481H88.6214V19.7725Z" fill="#F0F0F0"/>
<path d="M87.6501 20.8647H42.4883V45.4539H87.6501V20.8647Z" fill="#FAFAFA"/>
<path d="M48.0293 45.4539L53.7419 20.8647H61.2287L55.5179 45.4539H48.0293Z" fill="white"/>
<path d="M56.7295 45.4539L62.4403 20.8647H65.8215L60.1107 45.4539H56.7295Z" fill="white"/>
<path d="M70.1465 45.4539L75.8571 20.8647H81.6329L75.9221 45.4539H70.1465Z" fill="white"/>
<path d="M87.6478 20.8647H87.5234V45.4539H87.6478V20.8647Z" fill="#E6E6E6"/>
<path d="M66.4711 19.7725H63.6641V46.5481H66.4711V19.7725Z" fill="#F0F0F0"/>
<path d="M63.6644 20.8647H63.54V45.4539H63.6644V20.8647Z" fill="#E6E6E6"/>
<path d="M65.117 19.7725H65.0186V46.5481H65.117V19.7725Z" fill="#E6E6E6"/>
<path d="M28.2601 20.2041H15.8369V39.2507H28.2601V20.2041Z" fill="#E6E6E6"/>
<path d="M29.312 20.2041H16.126V39.2507H29.312V20.2041Z" fill="#F5F5F5"/>
<path d="M28.4694 21.0449H16.9648V38.4101H28.4694V21.0449Z" fill="white"/>
<path d="M26.3938 23.8984H19.042V33.9766H26.3938V23.8984Z" fill="#F5F5F5"/>
<path d="M15.9443 34.6558C18.8021 21.4082 30.5859 11.481 44.6881 11.481C58.4703 11.481 69.9657 20.679 73.1513 33.4752" stroke="#E6E6E6" stroke-miterlimit="10" stroke-linecap="round" stroke-linejoin="round" stroke-dasharray="4 4"/>
<path d="M15.9448 31.8438C13.3432 31.8446 11.2354 33.9515 11.2354 36.5531C11.2354 37.4885 11.9562 38.8529 12.2906 39.4367C12.4362 39.6911 12.575 39.9489 12.708 40.2099L13.6394 42.0401C13.7562 42.2695 13.9918 42.4142 14.2494 42.4142H15.945H17.6406C17.898 42.4142 18.1338 42.2695 18.2506 42.0401L19.182 40.2099C19.315 39.9489 19.4538 39.6911 19.5994 39.4367C19.9336 38.8531 20.6546 37.4885 20.6546 36.5531C20.6542 33.9515 18.5464 31.8446 15.9448 31.8438Z" fill="#0085FF"/>
<path d="M14.9414 42.414C14.9414 42.414 14.7788 38.0682 13.8292 38.2212C12.8796 38.3744 13.3854 39.7748 15.7582 39.8526C18.131 39.9304 18.0012 38.2158 17.5022 38.2174C17.0032 38.2188 16.1956 40.1314 16.7308 42.414" stroke="#FAFAFA" stroke-miterlimit="10" stroke-linecap="round" stroke-linejoin="round"/>
<path d="M13.377 33.5081C14.0162 32.8377 14.9638 32.3751 16.3448 32.5513" stroke="#FAFAFA" stroke-miterlimit="10" stroke-linecap="round" stroke-linejoin="round"/>
<path d="M12.541 34.4803C12.636 34.3231 12.7726 34.1495 12.9694 33.9761" stroke="#FAFAFA" stroke-miterlimit="10" stroke-linecap="round" stroke-linejoin="round"/>
<path d="M18.2039 44.5097C18.2039 44.5313 18.2039 44.5507 18.2019 44.5723C18.1979 44.6695 18.1843 44.7625 18.1607 44.8511C18.1079 45.0715 18.0021 45.2703 17.8591 45.4281C17.6457 45.6637 17.3519 45.8085 17.0267 45.8085H14.5825C14.0399 45.8085 13.5817 45.4023 13.4485 44.8511C13.4249 44.7625 13.4113 44.6695 13.4073 44.5723C13.4053 44.5507 13.4053 44.5313 13.4053 44.5097C13.4053 44.4687 13.4073 44.4297 13.4111 44.3909C13.4111 44.3801 13.4131 44.3671 13.4151 44.3563C13.4229 44.2677 13.4425 44.1835 13.4661 44.1013C13.5229 43.9069 13.6209 43.7339 13.7501 43.5913C13.9635 43.3557 14.2573 43.2109 14.5825 43.2109H17.0269C17.5459 43.2109 17.9885 43.5847 18.1413 44.1013C18.1667 44.1813 18.1863 44.2677 18.1941 44.3563C18.1961 44.3671 18.1981 44.3801 18.1981 44.3909C18.2019 44.4297 18.2039 44.4685 18.2039 44.5097Z" fill="#0085FF"/>
<path opacity="0.2" d="M18.141 44.1013H13.4658C13.5226 43.9069 13.6206 43.7339 13.7498 43.5913C13.9632 43.3557 14.257 43.2109 14.5822 43.2109H17.0266C17.5456 43.2111 17.9882 43.5849 18.141 44.1013Z" fill="black"/>
<path opacity="0.2" d="M18.1606 44.8516C18.1078 45.072 18.002 45.2708 17.859 45.4286C17.6456 45.6642 17.3518 45.809 17.0266 45.809H14.5822C14.0396 45.809 13.5814 45.4028 13.4482 44.8516H18.1606Z" fill="black"/>
<g opacity="0.3">
<path d="M18.2039 44.5098C18.2039 44.5314 18.2039 44.5508 18.2019 44.5724H13.4073C13.4053 44.5508 13.4053 44.5314 13.4053 44.5098C13.4053 44.4688 13.4073 44.4298 13.4111 44.391C13.4111 44.3802 13.4131 44.3672 13.4151 44.3564H18.1941C18.1961 44.3672 18.1981 44.3802 18.1981 44.391C18.2019 44.4298 18.2039 44.4686 18.2039 44.5098Z" fill="black"/>
</g>
<path d="M15.8036 47.1718C15.8036 47.3454 15.6628 47.4862 15.4892 47.4862C15.3156 47.4862 15.1748 47.3454 15.1748 47.1718C15.1748 46.9982 15.3156 46.8574 15.4892 46.8574C15.6628 46.8572 15.8036 46.998 15.8036 47.1718Z" fill="#0085FF"/>
<path d="M15.4893 47.1719V54.8617H17.3441V68.7313" stroke="#0085FF" stroke-miterlimit="10"/>
<path d="M26.5695 21.0984L26.5737 20.6364L26.2877 20.551C26.2717 20.3952 26.2425 20.241 26.2005 20.0902L26.4395 19.9062L26.2653 19.4768L25.9687 19.5086C25.8953 19.371 25.8105 19.2398 25.7151 19.1164L25.8621 18.8556L25.5369 18.5262L25.2749 18.6692C25.1535 18.57 25.0241 18.4812 24.8879 18.4036L24.9231 18.1078L24.4969 17.9272L24.3101 18.1586C24.1599 18.114 24.0063 18.082 23.8507 18.063L23.7715 17.7762L23.3083 17.772L23.2241 18.0568C23.0683 18.0732 22.9143 18.1024 22.7633 18.144L22.5781 17.905L22.1487 18.078L22.1805 18.3746C22.0429 18.448 21.9119 18.533 21.7885 18.6282L21.5289 18.48L21.1983 18.804L21.3415 19.0672C21.2421 19.1884 21.1535 19.3184 21.0771 19.4552L20.7813 19.4176L20.5995 19.8438L20.8321 20.0304C20.7865 20.1808 20.7545 20.335 20.7365 20.491L20.4485 20.5714L20.4443 21.0322L20.7303 21.1176C20.7461 21.2738 20.7753 21.4284 20.8175 21.5798L20.5783 21.7626L20.7525 22.192L21.0491 22.1602C21.1217 22.2982 21.2067 22.4294 21.3027 22.5524L21.1545 22.8132L21.4797 23.1426L21.7417 23.0008C21.8631 23.0996 21.9925 23.188 22.1285 23.2652L22.0921 23.561L22.5183 23.7416L22.7063 23.5114C22.8569 23.5556 23.0111 23.5872 23.1669 23.6058L23.2461 23.8938L23.7081 23.898L23.7923 23.612C23.9485 23.5962 24.1031 23.567 24.2545 23.5248L24.4373 23.764L24.8667 23.591L24.8361 23.2956C24.9731 23.2212 25.1043 23.1364 25.2283 23.042L25.4879 23.189L25.8185 22.865L25.6767 22.6018C25.7757 22.481 25.8639 22.3514 25.9399 22.215L26.2357 22.2514L26.4175 21.8252L26.1861 21.6384C26.2307 21.4884 26.2625 21.3346 26.2805 21.179L26.5695 21.0984ZM23.4981 21.9162C22.9061 21.9096 22.4315 21.4242 22.4383 20.832C22.4451 20.24 22.9303 19.7654 23.5225 19.7722C24.1127 19.7788 24.5865 20.2612 24.5825 20.8514C24.5785 21.4434 24.0953 21.9202 23.5033 21.9162C23.5013 21.9162 23.4997 21.9162 23.4981 21.9162Z" fill="#0085FF"/>
<path d="M82.0874 27.58L81.4262 26.8944C81.4066 26.6044 81.3582 26.317 81.2812 26.0366L81.6334 25.3072L80.7686 23.8934L79.97 23.8796C79.7558 23.6844 79.5228 23.5106 79.2748 23.3606L78.9642 22.4636L77.3522 22.0776L76.6666 22.7388C76.3764 22.757 76.0888 22.8056 75.8088 22.8838L75.08 22.529L73.6656 23.3964L73.6518 24.195C73.4548 24.4078 73.2808 24.6408 73.1328 24.8902L72.2382 25.2014L71.8496 26.813L72.5108 27.4986C72.5288 27.7904 72.577 28.0796 72.6548 28.3616L72.3026 29.091L73.1674 30.5048L73.9654 30.5212C74.1798 30.7162 74.4126 30.89 74.6606 31.0402L74.9692 31.9342L76.5832 32.3232L77.2662 31.6616C77.5588 31.6432 77.8488 31.595 78.1318 31.5182L78.8612 31.8704L80.275 31.0056L80.2914 30.2076C80.487 29.9936 80.6608 29.7608 80.8104 29.5124L81.7048 29.2012L82.0874 27.58ZM76.5238 29.0114C75.5232 28.7706 74.9072 27.7642 75.148 26.7636C75.3888 25.763 76.3952 25.147 77.3958 25.3878C78.3964 25.6286 79.0124 26.635 78.7716 27.6356V27.636C78.5292 28.6356 77.524 29.2506 76.5238 29.0114Z" fill="#323C45"/>
<path d="M46.6516 10.7898L45.8208 10.2194C45.739 9.92282 45.6278 9.63522 45.4886 9.36102L45.699 8.53042L44.5028 7.24842L43.672 7.40342C43.4084 7.24642 43.1302 7.11582 42.8412 7.01302L42.329 6.14902L40.5762 6.09082L40.0058 6.92142C39.7088 7.00202 39.4212 7.11322 39.1474 7.25362L38.3166 7.04042L37.0346 8.23942L37.1896 9.07002C37.0304 9.33242 36.8996 9.61082 36.7992 9.90082L35.938 10.413L35.877 12.1658L36.7078 12.7362C36.7884 13.035 36.8996 13.3244 37.04 13.6002L36.8296 14.431L38.0258 15.713L38.8566 15.5606C39.1202 15.7172 39.3984 15.848 39.6874 15.951L40.197 16.8122L41.9526 16.8732L42.5202 16.0424C42.8196 15.9612 43.11 15.8498 43.387 15.7102L44.2176 15.9206L45.4996 14.7244L45.3474 13.8936C45.5048 13.6304 45.6356 13.352 45.7378 13.0628L46.599 12.5506L46.6516 10.7898ZM41.1884 13.4536C40.1002 13.4162 39.2482 12.5038 39.2856 11.4156C39.323 10.3274 40.2354 9.47542 41.3236 9.51282C42.4118 9.55022 43.2638 10.4626 43.2264 11.5508V11.5512C43.1872 12.6386 42.2758 13.4894 41.1884 13.4536Z" fill="#323C45"/>
<path d="M43.2154 13.4325C44.2929 12.355 44.2929 10.6079 43.2154 9.53042C42.1379 8.45289 40.3909 8.45289 39.3133 9.53041C38.2358 10.6079 38.2358 12.355 39.3133 13.4325C40.3909 14.51 42.1379 14.51 43.2154 13.4325Z" stroke="white" stroke-miterlimit="10"/>
<path d="M71.5642 20.1968L71.8284 19.0992L71.1942 18.7384C71.2418 18.3586 71.2572 17.9756 71.2402 17.5932L71.9106 17.2868L71.7322 16.1686L71.0086 16.0812C70.9096 15.7132 70.7798 15.3544 70.6204 15.0082L71.1138 14.468L70.5208 13.505L69.8182 13.7016C69.5838 13.3988 69.3244 13.116 69.0432 12.8562L69.2896 12.1712L68.3742 11.5068L67.8024 11.955C67.4692 11.7664 67.121 11.6056 66.7612 11.4746L66.7306 10.7482L65.63 10.4836L65.2728 11.1154C64.893 11.0688 64.5098 11.0534 64.1276 11.0694L63.8182 10.3984L62.7006 10.5738L62.6134 11.2974C62.2454 11.3966 61.8866 11.5264 61.5404 11.6856L61.0038 11.1898L60.0384 11.7792L60.2344 12.4848C59.931 12.7188 59.6488 12.9794 59.3914 13.2634L58.7076 13.011L58.0404 13.9258L58.4914 14.4982C58.3 14.831 58.139 15.1804 58.0104 15.5422L57.2804 15.5752L57.0168 16.6698L57.651 17.0306C57.6028 17.4114 57.5872 17.7954 57.6044 18.1788L56.9346 18.4824L57.113 19.6006L57.8366 19.6878C57.9338 20.0564 58.0636 20.4154 58.2248 20.7608L57.7284 21.3004L58.3214 22.2634L59.0234 22.0698C59.258 22.3716 59.5176 22.6534 59.799 22.9122L59.5496 23.5966L60.465 24.261L61.0392 23.8164C61.3734 24.0046 61.723 24.1646 62.0838 24.2946L62.1138 25.024L63.2114 25.2882L63.5692 24.6534C63.95 24.7016 64.334 24.7172 64.7174 24.7L65.021 25.3698L66.1386 25.1944L66.2282 24.4744C66.5954 24.3728 66.954 24.243 67.3012 24.0862L67.8384 24.579L68.8038 23.9896L68.6108 23.2846C68.9132 23.0512 69.194 22.7916 69.4504 22.5084L70.1348 22.7578L70.802 21.843L70.3538 21.2712C70.5428 20.9384 70.7026 20.5898 70.8314 20.2294L71.5642 20.1968ZM63.5956 21.3008C61.722 20.8456 60.5722 18.9576 61.0274 17.084C61.4826 15.2104 63.3706 14.0606 65.2442 14.5158C67.1118 14.9696 68.2614 16.8476 67.816 18.7174C67.3692 20.593 65.4864 21.7514 63.6108 21.3046C63.6058 21.3034 63.6008 21.302 63.5956 21.3008Z" fill="#0085FF"/>
<path opacity="0.2" d="M71.5642 20.1968L71.8284 19.0992L71.1942 18.7384C71.2418 18.3586 71.2572 17.9756 71.2402 17.5932L71.9106 17.2868L71.7322 16.1686L71.0086 16.0812C70.9096 15.7132 70.7798 15.3544 70.6204 15.0082L71.1138 14.468L70.5208 13.505L69.8182 13.7016C69.5838 13.3988 69.3244 13.116 69.0432 12.8562L69.2896 12.1712L68.3742 11.5068L67.8024 11.955C67.4692 11.7664 67.121 11.6056 66.7612 11.4746L66.7306 10.7482L65.63 10.4836L65.2728 11.1154C64.893 11.0688 64.5098 11.0534 64.1276 11.0694L63.8182 10.3984L62.7006 10.5738L62.6134 11.2974C62.2454 11.3966 61.8866 11.5264 61.5404 11.6856L61.0038 11.1898L60.0384 11.7792L60.2344 12.4848C59.931 12.7188 59.6488 12.9794 59.3914 13.2634L58.7076 13.011L58.0404 13.9258L58.4914 14.4982C58.3 14.831 58.139 15.1804 58.0104 15.5422L57.2804 15.5752L57.0168 16.6698L57.651 17.0306C57.6028 17.4114 57.5872 17.7954 57.6044 18.1788L56.9346 18.4824L57.113 19.6006L57.8366 19.6878C57.9338 20.0564 58.0636 20.4154 58.2248 20.7608L57.7284 21.3004L58.3214 22.2634L59.0234 22.0698C59.258 22.3716 59.5176 22.6534 59.799 22.9122L59.5496 23.5966L60.465 24.261L61.0392 23.8164C61.3734 24.0046 61.723 24.1646 62.0838 24.2946L62.1138 25.024L63.2114 25.2882L63.5692 24.6534C63.95 24.7016 64.334 24.7172 64.7174 24.7L65.021 25.3698L66.1386 25.1944L66.2282 24.4744C66.5954 24.3728 66.954 24.243 67.3012 24.0862L67.8384 24.579L68.8038 23.9896L68.6108 23.2846C68.9132 23.0512 69.194 22.7916 69.4504 22.5084L70.1348 22.7578L70.802 21.843L70.3538 21.2712C70.5428 20.9384 70.7026 20.5898 70.8314 20.2294L71.5642 20.1968ZM63.5956 21.3008C61.722 20.8456 60.5722 18.9576 61.0274 17.084C61.4826 15.2104 63.3706 14.0606 65.2442 14.5158C67.1118 14.9696 68.2614 16.8476 67.816 18.7174C67.3692 20.593 65.4864 21.7514 63.6108 21.3046C63.6058 21.3034 63.6008 21.302 63.5956 21.3008Z" fill="black"/>
<path d="M64.4228 22.4658C66.9399 22.4658 68.9804 20.4253 68.9804 17.9082C68.9804 15.3911 66.9399 13.3506 64.4228 13.3506C61.9057 13.3506 59.8652 15.3911 59.8652 17.9082C59.8652 20.4253 61.9057 22.4658 64.4228 22.4658Z" stroke="white" stroke-miterlimit="10"/>
<path d="M88.6733 29.7489L87.5249 29.7429L86.8691 30.6855L86.5199 29.5915L85.4209 29.2591L86.3533 28.5889L86.3299 27.4409L87.2553 28.1207L88.3401 27.7437L87.9795 28.8339L88.6733 29.7489Z" fill="#0085FF"/>
<path d="M89.5146 33.8364L89.8883 33.2398L89.6085 32.5936L90.2914 32.7646L90.8195 32.2988L90.868 33.0012L91.474 33.3594L90.8211 33.6226L90.6677 34.3098L90.2156 33.77L89.5146 33.8364Z" fill="#0085FF"/>
<path d="M78.8188 65.8525L78.6028 67.4995L79.8368 68.6111L78.2038 68.9145L77.5278 70.4317L76.7348 68.9723L75.083 68.7983L76.2258 67.5931L75.8808 65.9683L77.3802 66.6827L78.8188 65.8525Z" stroke="#0085FF" stroke-miterlimit="10"/>
<path d="M82.8819 65.6652L82.3367 65.2198L81.6607 65.4168L81.9157 64.7604L81.5195 64.1784L82.2225 64.218L82.6537 63.6616L82.8331 64.3422L83.4957 64.5804L82.9037 64.9614L82.8819 65.6652Z" fill="#0085FF"/>
<path d="M50.5001 91.3638C72.8429 91.3638 90.9553 90.3421 90.9553 89.0818C90.9553 87.8215 72.8429 86.7998 50.5001 86.7998C28.1573 86.7998 10.0449 87.8215 10.0449 89.0818C10.0449 90.3421 28.1573 91.3638 50.5001 91.3638Z" fill="#F5F5F5"/>
<path d="M90.6571 38.7906V55.1802C90.6571 56.5338 89.5595 57.63 88.2073 57.63H57.2965C55.9443 57.63 54.8467 56.5338 54.8467 55.1802V38.7906C54.8467 38.6938 54.8525 38.5968 54.8641 38.5028C55.0059 37.2866 56.0413 36.3408 57.2965 36.3408H88.2071C89.4623 36.3408 90.4979 37.2866 90.6395 38.5028C90.6513 38.597 90.6571 38.6938 90.6571 38.7906Z" fill="white" stroke="#0085FF" stroke-miterlimit="10" stroke-linecap="round" stroke-linejoin="round"/>
<path d="M62.0178 49.1701C61.5764 48.0453 61.4112 46.8221 61.6172 45.6335C61.9848 43.5129 63.6402 41.6027 65.7512 41.1841C68.8178 40.5759 71.7594 42.9975 74.883 42.8665C77.076 42.7745 79.3654 41.4453 81.3346 42.4147C84.4544 43.9505 83.579 48.7297 82.0752 51.0623C80.513 53.4855 77.664 54.8985 74.8942 55.4145" stroke="#FFC107" stroke-miterlimit="10" stroke-linecap="round" stroke-linejoin="round" stroke-dasharray="5 5"/>
<path d="M62.778 59.3235L66.0976 60.6779L68.0952 58.9991L67.905 52.6865L66.7876 52.2305L62.2998 56.6345L62.778 59.3235Z" fill="white" stroke="#323C45" stroke-miterlimit="10"/>
<path d="M64.6463 62.2018L62.7173 61.4148C62.3287 61.2562 62.1421 60.8126 62.3007 60.4238C62.4593 60.035 62.9029 59.8486 63.2917 60.0072L65.2207 60.7942C65.6093 60.9528 65.7959 61.3964 65.6373 61.7852C65.4787 62.174 65.0351 62.3604 64.6463 62.2018Z" fill="#0085FF"/>
<path d="M67.3496 52.46L65.7578 56.3614" stroke="#323C45" stroke-miterlimit="10"/>
<path d="M66.0894 56.497C66.0146 56.6802 65.8056 56.7682 65.6224 56.6934C65.4392 56.6186 65.3514 56.4096 65.426 56.2264C65.5008 56.0432 65.7098 55.9554 65.893 56.03C66.0762 56.1046 66.1642 56.3138 66.0894 56.497Z" fill="#323C45"/>
<path opacity="0.2" d="M64.6463 62.2018L62.7173 61.4148C62.3287 61.2562 62.1421 60.8126 62.3007 60.4238C62.4593 60.035 62.9029 59.8486 63.2917 60.0072L65.2207 60.7942C65.6093 60.9528 65.7959 61.3964 65.6373 61.7852C65.4787 62.174 65.0351 62.3604 64.6463 62.2018Z" fill="black"/>
<path d="M58.0664 56.7026C59.5086 52.941 63.7272 51.0608 67.4888 52.503C71.2504 53.9452 73.1306 58.1638 71.6884 61.9254" stroke="#323C45" stroke-miterlimit="10"/>
<path d="M71.8912 61.9907L71.5293 61.8071L71.3458 62.1691L71.7077 62.3526L71.8912 61.9907Z" stroke="#323C45" stroke-miterlimit="10"/>
<path d="M58.2672 56.7827L57.9053 56.5991L57.7217 56.9611L58.0837 57.1446L58.2672 56.7827Z" stroke="#323C45" stroke-miterlimit="10"/>
<path d="M62.5703 50.3501L73.7343 55.1915" stroke="#323C45" stroke-miterlimit="10"/>
<path d="M73.9914 55.2495C73.9744 55.3565 73.8738 55.4293 73.7668 55.4123C73.6598 55.3953 73.587 55.2947 73.604 55.1877C73.621 55.0807 73.7216 55.0079 73.8284 55.0249C73.9356 55.0421 74.0086 55.1425 73.9914 55.2495Z" fill="#0085FF"/>
<path d="M62.7785 50.3874C62.7615 50.4944 62.6609 50.5672 62.5539 50.55C62.4469 50.533 62.3741 50.4324 62.3911 50.3254C62.4081 50.2184 62.5087 50.1456 62.6157 50.1626C62.7227 50.18 62.7955 50.2806 62.7785 50.3874Z" fill="#0085FF"/>
<path d="M90.6399 38.5028H54.8643C55.0061 37.2866 56.0415 36.3408 57.2967 36.3408H88.2073C89.4627 36.3406 90.4983 37.2864 90.6399 38.5028Z" fill="#0085FF"/>
<path d="M83.0516 37.3158C83.0516 37.5372 82.8722 37.7166 82.6508 37.7166C82.4294 37.7166 82.25 37.5372 82.25 37.3158C82.25 37.0944 82.4294 36.915 82.6508 36.915C82.8722 36.915 83.0516 37.0944 83.0516 37.3158Z" fill="white"/>
<path d="M84.6908 37.7166C84.9122 37.7166 85.0916 37.5372 85.0916 37.3158C85.0916 37.0945 84.9122 36.915 84.6908 36.915C84.4695 36.915 84.29 37.0945 84.29 37.3158C84.29 37.5372 84.4695 37.7166 84.6908 37.7166Z" fill="white"/>
<path d="M87.1317 37.3158C87.1317 37.5372 86.9523 37.7166 86.7309 37.7166C86.5095 37.7166 86.3301 37.5372 86.3301 37.3158C86.3301 37.0944 86.5095 36.915 86.7309 36.915C86.9523 36.915 87.1317 37.0944 87.1317 37.3158Z" fill="white"/>
<path d="M89.3149 39.2393H85.6855V45.2581H89.3149V39.2393Z" stroke="#0085FF" stroke-width="0.75" stroke-miterlimit="10" stroke-linecap="round" stroke-linejoin="round"/>
<path d="M87.1327 39.7534H86.3311V40.555H87.1327V39.7534Z" fill="#0085FF"/>
<path d="M88.7645 39.7534H87.9629V40.555H88.7645V39.7534Z" fill="#0085FF"/>
<path d="M87.1327 41.103H86.3311V41.9046H87.1327V41.103Z" fill="#0085FF"/>
<path d="M88.7645 41.103H87.9629V41.9046H88.7645V41.103Z" fill="#0085FF"/>
<path d="M87.1327 42.4526H86.3311V43.2542H87.1327V42.4526Z" fill="#0085FF"/>
<path d="M88.7645 42.4526H87.9629V43.2542H88.7645V42.4526Z" fill="#0085FF"/>
<path d="M87.1327 43.8022H86.3311V44.6038H87.1327V43.8022Z" fill="#0085FF"/>
<path d="M88.7645 43.8022H87.9629V44.6038H88.7645V43.8022Z" fill="#0085FF"/>
<path opacity="0.1" d="M88.7645 39.7534H87.9629V40.555H88.7645V39.7534Z" fill="black"/>
<path opacity="0.2" d="M87.1327 41.103H86.3311V41.9046H87.1327V41.103Z" fill="black"/>
<path opacity="0.3" d="M88.7645 41.103H87.9629V41.9046H88.7645V41.103Z" fill="black"/>
<path opacity="0.4" d="M87.1327 42.4526H86.3311V43.2542H87.1327V42.4526Z" fill="black"/>
<path opacity="0.5" d="M88.7645 42.4526H87.9629V43.2542H88.7645V42.4526Z" fill="black"/>
<path opacity="0.6" d="M87.1327 43.8022H86.3311V44.6038H87.1327V43.8022Z" fill="black"/>
<path opacity="0.7" d="M88.7645 43.8022H87.9629V44.6038H88.7645V43.8022Z" fill="black"/>
<path d="M26.1863 75.7816C28.5209 77.313 29.7365 80.2308 29.6057 83.0198C29.5421 84.3778 29.1669 85.767 28.2793 86.7964C27.4001 87.8158 26.1123 88.3852 24.8301 88.7952C23.5135 89.2164 22.1181 89.5056 20.7511 89.3004C19.3841 89.0954 18.0441 88.3236 17.4427 87.0788C16.8111 85.7718 17.0809 84.2156 17.5157 82.8306C17.9507 81.4458 18.5441 80.0686 18.5265 78.6172C18.5127 77.4892 18.1289 76.4044 17.8453 75.3126C17.5617 74.2208 17.3799 73.0434 17.7605 71.9814C18.1411 70.9196 19.2497 70.0464 20.3523 70.284" stroke="#323C45" stroke-miterlimit="10" stroke-linecap="round" stroke-linejoin="round" stroke-dasharray="5 5"/>
<path d="M40.4978 27.3151C40.4978 27.3151 38.6794 25.7019 36.805 27.3151C34.9306 28.9283 34.7092 33.0919 33.3174 34.9325C33.3174 34.9325 34.0728 36.4883 37.0638 36.6781C40.0548 36.8679 43.313 33.8313 43.313 33.8313C43.313 33.8313 43.819 26.6507 40.4978 27.3151Z" fill="#323C45"/>
<path d="M37.5203 35.4903C37.3467 35.5469 35.9977 35.9225 33.7881 37.3287L35.3951 41.0249C35.3951 41.0249 35.8989 43.8773 37.1135 45.6451L39.6137 47.9753L44.5151 45.8057L43.1893 38.8955L43.3099 35.3601C43.3099 35.3601 41.6143 34.1555 37.5203 35.4903Z" fill="#0085FF"/>
<path d="M41.602 31.5324C41.458 32.4644 40.608 32.4644 40.608 32.4644C40.422 32.7744 39.924 33.1904 39.924 33.1904C40.1398 34.8614 41.194 34.8614 41.194 34.8614C39.536 37.5974 37.52 35.4904 37.52 35.4904C38.102 35.2364 38.282 34.8304 38.314 34.4844C38.348 34.1264 38.224 33.8324 38.224 33.8324C36.774 33.8124 36.028 32.8164 36.07 31.3444C36.11 29.8744 37.002 28.5264 37.002 28.5264C37.956 28.9004 39.676 28.4224 39.676 28.4224C39.592 30.6824 40.628 31.0764 40.628 31.0764C40.628 31.0764 41.748 30.5984 41.602 31.5324Z" fill="#B55B52"/>
<path d="M37.5674 32.0045C37.5674 32.0045 38.224 32.2029 38.5972 31.5703" stroke="#323C45" stroke-width="0.5" stroke-miterlimit="10" stroke-linecap="round" stroke-linejoin="round"/>
<path d="M38.2638 30.4713C38.2588 30.6043 38.1876 30.7097 38.1048 30.7065C38.022 30.7033 37.959 30.5929 37.9642 30.4599C37.9692 30.3267 38.0404 30.2215 38.1232 30.2247C38.2058 30.2277 38.2688 30.3381 38.2638 30.4713Z" fill="#323C45"/>
<path d="M36.694 30.3269C36.6894 30.4495 36.6238 30.5465 36.5476 30.5435C36.4714 30.5407 36.4134 30.4389 36.4182 30.3163C36.4228 30.1937 36.4884 30.0967 36.5646 30.0997C36.6406 30.1025 36.6986 30.2043 36.694 30.3269Z" fill="#323C45"/>
<path d="M38.2734 29.5669C38.2734 29.5669 38.6272 29.5343 38.9214 29.9781" stroke="#323C45" stroke-width="0.75" stroke-miterlimit="10" stroke-linecap="round" stroke-linejoin="round"/>
<path d="M37.2921 31.3938V30.3188L36.7695 31.231C36.7695 31.231 37.0447 31.4468 37.2921 31.3938Z" fill="#A02724"/>
<path d="M36.0677 38.7906L35.9217 42.2446C35.8437 42.2666 35.7677 42.2866 35.6937 42.3046C35.5657 42.3366 35.4417 42.3606 35.3197 42.3806C33.0597 42.7646 31.8057 41.4546 31.8057 41.4546L33.7877 37.3286L36.0677 38.7906Z" fill="#0085FF"/>
<path d="M36.8761 29.3265C36.7743 29.3219 36.6423 29.3355 36.4893 29.3961" stroke="#323C45" stroke-width="0.75" stroke-miterlimit="10" stroke-linecap="round" stroke-linejoin="round"/>
<path d="M37.3232 50.955C37.3232 50.955 37.525 56.6416 38.0706 65.141C38.6162 73.6402 41.6162 85.1666 41.6162 85.1666H44.5152C44.5152 85.1666 42.924 63.7438 42.8076 58.388C42.8076 58.388 49.7932 76.4344 55.3818 82.3722L57.2446 81.208C57.2446 81.208 49.6768 63.5108 48.8618 60.9494C48.0468 58.388 47.154 48.9424 44.515 45.8062H39.7804L37.3232 50.955Z" fill="#323C45"/>
<path d="M42.666 85.7231L43.0798 88.1237L44.878 88.0757L44.5804 85.7231H42.666Z" fill="#B55B52"/>
<path d="M55.8916 82.8641C55.9316 82.9439 56.929 84.6197 56.929 84.6197L58.1658 83.3031L57.0286 81.7471L55.8916 82.8641Z" fill="#B55B52"/>
<path d="M41.042 84.8639L45.3228 84.5347L45.1032 86.0713L41.7738 86.3641L41.042 84.8639Z" fill="#0085FF"/>
<path d="M54.6943 82.7244L57.5073 80.5898L57.9061 81.9682L55.6319 83.5424L54.6943 82.7244Z" fill="#0085FF"/>
<path d="M24.2979 74.6556L24.3139 67.9512L29.9679 70.8502L24.2979 74.6556Z" fill="#0085FF"/>
<path d="M54.2133 23.5611L29.9687 70.8505L28.1755 69.9321L26.0731 68.8537L24.3145 67.9513L48.5573 20.6621L50.5007 21.6573L52.7717 22.8213L54.2133 23.5611Z" fill="#0085FF"/>
<path opacity="0.4" d="M26.5811 73.1237L24.2979 74.6563L24.3047 72.0117L26.5811 73.1237Z" fill="black"/>
<path opacity="0.2" d="M54.2126 23.5611L29.968 70.8505L28.1748 69.9321L52.771 22.8213L54.2126 23.5611Z" fill="black"/>
<path opacity="0.2" d="M50.5007 21.6573L26.0731 68.8537L24.3145 67.9513L48.5573 20.6621L50.5007 21.6573Z" fill="black"/>
<path opacity="0.4" d="M29.9681 70.8503L24.2979 74.6565L24.3049 71.9021L24.3137 67.9507L29.9681 70.8503Z" fill="black"/>
<path d="M49.2523 42.6625C45.6303 46.3605 40.8603 44.4345 40.8603 44.4345C40.3643 44.3565 40.0463 43.8945 40.0463 43.8945L38.7363 43.4265L39.2363 42.1625L40.6623 42.5465L41.7023 43.3165C45.4383 43.9725 47.2843 41.6765 47.2843 41.6765C47.1303 40.6725 46.7023 39.5585 46.3583 38.7805L47.7523 36.0605C47.7743 36.0945 47.7963 36.1285 47.8183 36.1625C49.9263 39.5625 49.2523 42.6625 49.2523 42.6625Z" fill="#B55B52"/>
<path d="M38.182 46.4846L37.172 46.8846C36.304 47.5986 35.098 47.1966 35.098 47.1966C31.378 48.1526 29.748 46.9746 29.748 46.9746C30.262 45.2926 31.3192 43.3334 32.2412 41.7974C32.6252 42.0514 33.3262 42.3674 34.1714 42.4388C33.2694 43.926 32.4068 45.7744 32.4068 45.7744C33.3428 46.2644 35.5938 45.5028 35.5938 45.5028L37.9058 45.2808L38.182 46.4846Z" fill="#B55B52"/>
<path opacity="0.4" d="M42.8078 58.3875L41.8604 54.9199C41.8604 54.9199 42.8824 60.4045 42.888 60.5243C42.8936 60.6441 42.8078 58.3875 42.8078 58.3875Z" fill="black"/>
<path d="M56.8775 84.8739C56.8775 84.8739 55.9377 84.3669 55.8017 84.7255C55.6657 85.0841 56.8775 84.8739 56.8775 84.8739Z" stroke="#0085FF" stroke-miterlimit="10"/>
<path d="M56.8772 84.9976C56.8772 84.9976 55.8692 85.245 55.891 85.4674C55.9126 85.6902 56.8772 84.9976 56.8772 84.9976Z" stroke="#0085FF" stroke-miterlimit="10"/>
<path d="M58.6433 83.3386L59.4273 83.9766C59.6193 84.1328 59.6397 84.4184 59.4721 84.6006L56.8895 87.4054C56.8763 87.4198 56.8627 87.4326 56.8477 87.4452C56.7275 87.5452 56.1823 87.9738 55.9183 87.7574C55.6205 87.5132 56.5093 86.6096 56.5699 86.1382C56.6165 85.7758 56.7081 85.0196 56.7479 84.6896C56.7605 84.586 56.8101 84.4912 56.8881 84.4218L58.0863 83.3516C58.2437 83.2108 58.4797 83.2054 58.6433 83.3386Z" fill="#323C45"/>
<path d="M42.6657 88.3127C42.6657 88.3127 42.2021 87.3401 41.9477 87.5197C41.6933 87.6993 42.6657 88.3127 42.6657 88.3127Z" stroke="#0085FF" stroke-miterlimit="10"/>
<path d="M42.5918 88.3128C42.5918 88.3128 41.5594 87.7494 41.4396 88.076C41.32 88.4026 42.5918 88.3128 42.5918 88.3128Z" stroke="#0085FF" stroke-miterlimit="10"/>
<path d="M45.1757 88.0757H42.6659C42.6659 88.0757 41.8207 88.8675 40.8085 89.0923C39.7963 89.3171 39.8901 89.4859 39.8901 89.4859C39.8901 89.4859 39.7215 89.9169 40.3399 90.0107C40.9585 90.1045 44.8325 90.1231 45.3227 90.0107C45.8129 89.8983 45.1757 88.0757 45.1757 88.0757Z" fill="#323C45"/>
<path d="M38.1246 30.2361L37.7236 30.1777C37.7236 30.1777 37.8692 30.4169 38.1246 30.2361Z" fill="#323C45"/>
<path d="M36.5707 30.099L36.2441 30.04C36.2441 30.04 36.3743 30.2626 36.5707 30.099Z" fill="#323C45"/>
<path opacity="0.2" d="M39.2636 33.6826C39.2636 33.6826 39.0536 34.4006 38.3136 34.4846C38.3476 34.1266 38.2236 33.8326 38.2236 33.8326C38.2236 33.8326 38.9196 33.8026 39.2636 33.6826Z" fill="black"/>
<path opacity="0.2" d="M35.6943 42.3045C35.5663 42.3365 35.4423 42.3605 35.3203 42.3805L35.5323 40.4985L35.6943 42.3045Z" fill="black"/>
</g>
<defs>
<clipPath id="clip0_772_20469">
<rect width="100" height="100" fill="white" transform="translate(0.5)"/>
</clipPath>
</defs>
</svg>
