<svg width="170" height="170" viewBox="0 0 170 170" fill="none" xmlns="http://www.w3.org/2000/svg">
<g clip-path="url(#clip0_2793_40728)">
<rect width="170" height="170" rx="5" fill="#323C45" fill-opacity="0.7"/>
<path d="M170 0H0V170H170V0Z" fill="white"/>
<path d="M11.6875 59.1744C11.6875 42.8843 11.6875 26.6356 11.6875 10.3555C27.9627 10.3555 44.2114 10.3555 60.5064 10.3555C60.5064 26.6075 60.5064 42.8711 60.5064 59.1744C44.2593 59.1744 27.9974 59.1744 11.6875 59.1744ZM18.6878 17.3343C18.6878 28.9861 18.6878 40.5917 18.6878 52.184C30.3347 52.184 41.9419 52.184 53.5375 52.184C53.5375 40.5454 53.5375 28.9531 53.5375 17.3343C41.9138 17.3343 30.3231 17.3343 18.6878 17.3343Z" fill="black" stroke="black" stroke-width="0.5" stroke-miterlimit="10" stroke-linecap="round" stroke-linejoin="round"/>
<path d="M158.294 59.191C142.005 59.191 125.757 59.191 109.477 59.191C109.477 42.9174 109.477 26.6687 109.477 10.3721C125.727 10.3721 141.989 10.3721 158.294 10.3721C158.294 26.6158 158.294 42.8794 158.294 59.191ZM151.325 17.3509C139.67 17.3509 128.064 17.3509 116.475 17.3509C116.475 28.9994 116.475 40.6049 116.475 52.1989C128.115 52.1989 139.706 52.1989 151.325 52.1989C151.325 40.5752 151.325 28.9829 151.325 17.3509Z" fill="black" stroke="black" stroke-width="0.5" stroke-miterlimit="10" stroke-linecap="round" stroke-linejoin="round"/>
<path d="M11.7031 108.134C27.9932 108.134 44.2419 108.134 60.522 108.134C60.522 124.409 60.522 140.658 60.522 156.953C44.27 156.953 28.0081 156.953 11.7031 156.953C11.7031 140.707 11.7031 124.444 11.7031 108.134ZM53.5432 115.134C41.8914 115.134 30.2858 115.134 18.6935 115.134C18.6935 126.781 18.6935 138.388 18.6935 149.984C30.3321 149.984 41.9244 149.984 53.5432 149.984C53.5432 138.362 53.5432 126.769 53.5432 115.134Z" fill="black" stroke="black" stroke-width="0.5" stroke-miterlimit="10" stroke-linecap="round" stroke-linejoin="round"/>
<path d="M74.531 38.273C74.531 33.6397 74.531 29.0064 74.531 24.307C72.1937 24.307 69.8977 24.307 67.5703 24.307C67.5703 19.6324 67.5703 15.0239 67.5703 10.3691C79.1709 10.3691 90.7781 10.3691 102.423 10.3691C102.423 14.9859 102.423 19.6076 102.423 24.2756C100.129 24.2756 97.8478 24.2756 95.5221 24.2756C95.5221 26.6145 95.5221 28.9089 95.5221 31.2693C97.8131 31.2693 100.109 31.2693 102.433 31.2693C102.433 35.9439 102.433 40.5524 102.433 45.2039C100.139 45.2039 97.8445 45.2039 95.4841 45.2039C95.4841 42.9079 95.4841 40.6136 95.4841 38.2746C93.1385 38.2746 90.8574 38.2746 88.5118 38.2746C88.5118 35.9357 88.5118 33.6413 88.5118 31.3123C86.1663 31.3123 83.8852 31.3123 81.5396 31.3123C81.5396 33.5934 81.5396 35.8894 81.5396 38.2565C79.156 38.2565 76.8352 38.2565 74.5161 38.2565L74.531 38.273ZM81.5346 24.2525C83.8736 24.2525 86.1663 24.2525 88.4457 24.2525C88.4457 21.9168 88.4457 19.6241 88.4457 17.3414C86.12 17.3414 83.8405 17.3414 81.5346 17.3414C81.5346 19.6506 81.5346 21.9284 81.5346 24.2525Z" fill="black" stroke="black" stroke-width="0.5" stroke-miterlimit="10" stroke-linecap="round" stroke-linejoin="round"/>
<path d="M74.5185 136.038C74.5185 138.344 74.5185 140.648 74.5185 143.019C76.8558 143.019 79.1518 143.019 81.4907 143.019C81.4907 145.364 81.4907 147.645 81.4907 149.991C83.828 149.991 86.124 149.991 88.4564 149.991C88.4564 152.35 88.4564 154.646 88.4564 156.971C81.5056 156.971 74.5681 156.971 67.5859 156.971C67.5859 150.027 67.5859 143.078 67.5859 136.055C69.8951 136.055 72.2159 136.055 74.535 136.055L74.5185 136.038Z" fill="black" stroke="black" stroke-width="0.5" stroke-miterlimit="10" stroke-linecap="round" stroke-linejoin="round"/>
<path d="M32.626 73.1784C27.9944 73.1784 23.3611 73.1784 18.665 73.1784C18.665 75.5124 18.665 77.8067 18.665 80.1357C16.3211 80.1357 14.04 80.1357 11.7109 80.1357C11.7109 75.5306 11.7109 70.9088 11.7109 66.2441C18.6402 66.2441 25.5893 66.2441 32.6095 66.2441C32.6095 68.5566 32.6095 70.8758 32.6095 73.1949L32.626 73.1784Z" fill="black" stroke="black" stroke-width="0.5" stroke-miterlimit="10" stroke-linecap="round" stroke-linejoin="round"/>
<path d="M46.5946 73.1953C46.5946 70.891 46.5946 68.5868 46.5946 66.2412C51.2395 66.2412 55.8579 66.2412 60.5176 66.2412C60.5176 68.5289 60.5176 70.8216 60.5176 73.1771C55.8662 73.1771 51.2213 73.1771 46.5781 73.1771L46.5946 73.1953Z" fill="black" stroke="black" stroke-width="0.5" stroke-miterlimit="10" stroke-linecap="round" stroke-linejoin="round"/>
<path d="M151.383 108.134C153.692 108.134 155.971 108.134 158.294 108.134C158.294 110.431 158.294 112.724 158.294 115.055C156.001 115.055 153.709 115.055 151.383 115.055C151.383 112.762 151.383 110.483 151.383 108.134Z" fill="black" stroke="black" stroke-width="0.5" stroke-miterlimit="10" stroke-linecap="round" stroke-linejoin="round"/>
<path d="M95.4853 59.2258C95.4853 56.9232 95.4853 54.6207 95.4853 52.2734C97.7995 52.2734 100.092 52.2734 102.424 52.2734C102.424 54.5595 102.424 56.8522 102.424 59.2093C100.104 59.2093 97.7862 59.2093 95.4688 59.2093L95.4853 59.2258Z" fill="black" stroke="black" stroke-width="0.5" stroke-miterlimit="10" stroke-linecap="round" stroke-linejoin="round"/>
<path d="M144.376 129.072C144.376 126.769 144.376 124.466 144.376 122.119C146.69 122.119 148.983 122.119 151.313 122.119C151.313 124.405 151.313 126.696 151.313 129.055C148.993 129.055 146.675 129.055 144.359 129.055L144.376 129.072Z" fill="black" stroke="black" stroke-width="0.5" stroke-miterlimit="10" stroke-linecap="round" stroke-linejoin="round"/>
<path d="M137.375 80.1767C139.679 80.1767 141.982 80.1767 144.327 80.1767C144.327 82.4941 144.327 84.7868 144.327 87.1456C142.01 87.1456 139.692 87.1456 137.375 87.1456L137.391 87.1621C137.391 84.8281 137.391 82.4942 137.391 80.1602L137.375 80.1767Z" fill="black" stroke="black" stroke-width="0.5" stroke-miterlimit="10" stroke-linecap="round" stroke-linejoin="round"/>
<path d="M116.422 150.005C116.422 152.307 116.422 154.61 116.422 156.957C114.108 156.957 111.815 156.957 109.484 156.957C109.484 154.671 109.484 152.38 109.484 150.021C111.805 150.021 114.123 150.021 116.438 150.021L116.422 150.005Z" fill="black" stroke="black" stroke-width="0.5" stroke-miterlimit="10" stroke-linecap="round" stroke-linejoin="round"/>
<path d="M158.294 156.976C155.973 156.976 153.695 156.976 151.383 156.976C151.383 154.671 151.383 152.392 151.383 150.064C153.664 150.064 155.957 150.064 158.294 150.064C158.294 152.339 158.294 154.632 158.294 156.976Z" fill="black" stroke="black" stroke-width="0.5" stroke-miterlimit="10" stroke-linecap="round" stroke-linejoin="round"/>
<path d="M46.5461 45.2202C39.5656 45.2202 32.6297 45.2202 25.6641 45.2202C25.6641 38.2579 25.6641 31.322 25.6641 24.3398C32.6049 24.3398 39.5556 24.3398 46.5461 24.3398C46.5461 31.2757 46.5461 38.2248 46.5461 45.2202Z" fill="black" stroke="black" stroke-width="0.5" stroke-miterlimit="10" stroke-linecap="round" stroke-linejoin="round"/>
<path d="M123.445 45.2056C123.445 38.2284 123.445 31.2925 123.445 24.3252C130.408 24.3252 137.344 24.3252 144.326 24.3252C144.326 31.2644 144.326 38.2135 144.326 45.2056C137.391 45.2056 130.442 45.2056 123.445 45.2056Z" fill="black" stroke="black" stroke-width="0.5" stroke-miterlimit="10" stroke-linecap="round" stroke-linejoin="round"/>
<path d="M25.6562 142.99C25.6562 136.012 25.6562 129.076 25.6562 122.108C32.6186 122.108 39.5544 122.108 46.5366 122.108C46.5366 129.048 46.5366 135.998 46.5366 142.99C39.6024 142.99 32.6533 142.99 25.6562 142.99Z" fill="black" stroke="black" stroke-width="0.5" stroke-miterlimit="10" stroke-linecap="round" stroke-linejoin="round"/>
<path d="M74.5305 136.037H74.5156L74.5321 136.054V136.037H74.5305Z" fill="black" stroke="black" stroke-width="0.5" stroke-miterlimit="10" stroke-linecap="round" stroke-linejoin="round"/>
<path d="M116.438 150.021V150.005H116.422L116.438 150.021Z" fill="black" stroke="black" stroke-width="0.5" stroke-miterlimit="10" stroke-linecap="round" stroke-linejoin="round"/>
<path d="M102.453 94.1474H102.471V94.1309L102.453 94.1474Z" fill="black" stroke="black" stroke-width="0.5" stroke-miterlimit="10" stroke-linecap="round" stroke-linejoin="round"/>
<path d="M74.5156 38.2559V38.2724H74.5321L74.5156 38.2559Z" fill="black" stroke="black" stroke-width="0.5" stroke-miterlimit="10" stroke-linecap="round" stroke-linejoin="round"/>
<path d="M144.359 101.117V101.134H144.376L144.359 101.117Z" fill="black" stroke="black" stroke-width="0.5" stroke-miterlimit="10" stroke-linecap="round" stroke-linejoin="round"/>
<path d="M144.359 129.056V129.072H144.376L144.359 129.056Z" fill="black" stroke="black" stroke-width="0.5" stroke-miterlimit="10" stroke-linecap="round" stroke-linejoin="round"/>
<path d="M95.4688 59.209V59.2255H95.4853L95.4688 59.209Z" fill="black" stroke="black" stroke-width="0.5" stroke-miterlimit="10" stroke-linecap="round" stroke-linejoin="round"/>
<path d="M74.5326 108.119C74.5326 105.813 74.5326 103.509 74.5326 101.138C76.8567 101.138 79.151 101.138 81.4784 101.138C81.4784 98.7927 81.4784 96.5116 81.4784 94.166C79.194 94.166 76.8997 94.166 74.5657 94.166C74.5657 89.4782 74.5657 84.8565 74.5657 80.1901C79.1857 80.1901 83.7942 80.1901 88.4672 80.1901C88.4672 77.8528 88.4672 75.5569 88.4672 73.2245C95.4824 73.2245 102.433 73.2245 109.427 73.2245C109.427 77.8429 109.427 82.4514 109.427 87.126C114.093 87.126 118.715 87.126 123.408 87.126C123.408 89.503 123.408 91.8172 123.408 94.1297C116.72 94.133 110.032 94.1363 103.344 94.1396C103.055 94.1396 102.764 94.1462 102.474 94.1495C102.474 98.7745 102.474 103.401 102.474 108.068C100.137 108.068 97.8428 108.068 95.484 108.068C95.484 105.768 95.484 103.474 95.484 101.151C93.1418 101.151 90.864 101.151 88.5234 101.151V129.093C100.18 129.093 111.772 129.093 123.38 129.093C123.38 131.419 123.38 133.713 123.38 136.072C118.718 136.072 114.096 136.072 109.48 136.072C109.48 138.418 109.48 140.699 109.48 143.043C111.805 143.043 114.1 143.043 116.444 143.043C116.444 145.407 116.444 147.706 116.444 150.005C121.085 150.005 125.727 150.005 130.431 150.005C130.431 152.39 130.431 154.685 130.431 156.967C132.777 156.967 135.058 156.967 137.402 156.967C137.402 152.313 137.402 147.689 137.402 143.003C144.417 143.003 151.368 143.003 158.31 143.003C158.31 140.659 158.31 138.378 158.31 136.033C153.655 136.033 149.034 136.033 144.362 136.033C144.362 133.669 144.362 131.369 144.362 129.07C142.052 129.07 139.739 129.07 137.427 129.07C137.427 124.366 137.427 119.746 137.427 115.065C139.759 115.065 142.052 115.065 144.362 115.065C144.362 110.378 144.362 105.755 144.362 101.132C142.05 101.132 139.736 101.132 137.379 101.132C137.379 96.4141 137.379 91.7874 137.379 87.1608C135.081 87.1608 132.783 87.1608 130.444 87.1608C130.444 84.8284 130.444 82.5357 130.444 80.1587C132.755 80.1587 135.066 80.1587 137.379 80.1587C137.379 77.8446 137.379 75.5321 137.379 73.1535C135.013 73.1535 132.719 73.1535 130.382 73.1535C130.382 70.8079 130.382 68.5268 130.382 66.1845C118.731 66.1845 107.126 66.1845 95.4708 66.1845C95.4708 63.8224 95.4708 61.5231 95.4708 59.2239C93.1583 59.2239 90.8441 59.2239 88.4705 59.2239C88.4705 54.5129 88.4705 49.8912 88.4705 45.2744C86.1266 45.2744 83.8471 45.2744 81.5048 45.2744C81.5048 49.9259 81.5048 54.5476 81.5048 59.1726C79.1477 59.1726 76.8534 59.1726 74.5277 59.1726C74.5277 58.8966 74.5277 58.6618 74.5277 58.4271C74.5243 51.7078 74.521 44.9884 74.5177 38.2708C72.2052 38.2708 69.8911 38.2708 67.5223 38.2708C67.5223 56.9262 67.5223 75.5123 67.5223 94.1611C60.517 94.1611 53.5679 94.1611 46.6172 94.1611C46.6172 96.5034 46.6172 98.7844 46.6172 101.127C53.5944 101.127 60.5435 101.127 67.557 101.127C67.557 103.482 67.557 105.778 67.557 108.119C69.9191 108.119 72.2185 108.119 74.5177 108.119M123.37 80.1273C121.094 80.1273 118.801 80.1273 116.459 80.1273C116.459 77.8066 116.459 75.5288 116.459 73.2179C118.763 73.2179 121.042 73.2179 123.37 73.2179C123.37 75.4974 123.37 77.7917 123.37 80.1273ZM102.438 122.045C100.134 122.045 97.8544 122.045 95.527 122.045C95.527 119.764 95.527 117.471 95.527 115.136C97.8032 115.136 100.096 115.136 102.438 115.136C102.438 117.455 102.438 119.734 102.438 122.045ZM109.491 108.147C111.777 108.147 114.068 108.147 116.426 108.147C116.426 110.463 116.426 112.774 116.426 115.084C114.128 115.084 111.83 115.084 109.491 115.084C109.491 112.772 109.491 110.479 109.491 108.147ZM130.358 122.038C125.747 122.038 121.128 122.038 116.444 122.038C116.444 119.726 116.444 117.415 116.444 115.103C121.067 115.103 125.69 115.103 130.358 115.103C130.358 117.413 130.358 119.706 130.358 122.038ZM130.358 101.084C128.074 101.084 125.781 101.084 123.424 101.084C123.424 98.7679 123.424 96.4571 123.424 94.1462C125.722 94.1462 128.02 94.1462 130.358 94.1462C130.358 96.4604 130.358 98.7514 130.358 101.084Z" fill="black"/>
<path d="M74.5326 108.119C74.5326 105.813 74.5326 103.509 74.5326 101.138C76.8567 101.138 79.151 101.138 81.4784 101.138C81.4784 98.7927 81.4784 96.5116 81.4784 94.166C79.194 94.166 76.8997 94.166 74.5657 94.166C74.5657 89.4782 74.5657 84.8565 74.5657 80.1901C79.1857 80.1901 83.7942 80.1901 88.4672 80.1901C88.4672 77.8528 88.4672 75.5569 88.4672 73.2245C95.4824 73.2245 102.433 73.2245 109.427 73.2245C109.427 77.8429 109.427 82.4514 109.427 87.126C114.093 87.126 118.715 87.126 123.408 87.126C123.408 89.503 123.408 91.8172 123.408 94.1297C116.72 94.133 110.032 94.1363 103.344 94.1396C103.055 94.1396 102.764 94.1462 102.474 94.1495C102.474 98.7745 102.474 103.401 102.474 108.068C100.137 108.068 97.8428 108.068 95.484 108.068C95.484 105.768 95.484 103.474 95.484 101.151C93.1418 101.151 90.864 101.151 88.5234 101.151V129.093C100.18 129.093 111.772 129.093 123.38 129.093C123.38 131.419 123.38 133.713 123.38 136.072C118.718 136.072 114.096 136.072 109.48 136.072C109.48 138.418 109.48 140.699 109.48 143.043C111.805 143.043 114.1 143.043 116.444 143.043C116.444 145.407 116.444 147.706 116.444 150.005C121.085 150.005 125.727 150.005 130.431 150.005C130.431 152.39 130.431 154.685 130.431 156.967C132.777 156.967 135.058 156.967 137.402 156.967C137.402 152.313 137.402 147.689 137.402 143.003C144.417 143.003 151.368 143.003 158.31 143.003C158.31 140.659 158.31 138.378 158.31 136.033C153.655 136.033 149.034 136.033 144.362 136.033C144.362 133.669 144.362 131.369 144.362 129.07C142.052 129.07 139.739 129.07 137.427 129.07C137.427 124.366 137.427 119.746 137.427 115.065C139.759 115.065 142.052 115.065 144.362 115.065C144.362 110.378 144.362 105.755 144.362 101.132C142.05 101.132 139.736 101.132 137.379 101.132C137.379 96.4141 137.379 91.7874 137.379 87.1608C135.081 87.1608 132.783 87.1608 130.444 87.1608C130.444 84.8284 130.444 82.5357 130.444 80.1587C132.755 80.1587 135.066 80.1587 137.379 80.1587C137.379 77.8446 137.379 75.5321 137.379 73.1535C135.013 73.1535 132.719 73.1535 130.382 73.1535C130.382 70.8079 130.382 68.5268 130.382 66.1845C118.731 66.1845 107.126 66.1845 95.4708 66.1845C95.4708 63.8224 95.4708 61.5231 95.4708 59.2239C93.1583 59.2239 90.8441 59.2239 88.4705 59.2239C88.4705 54.5129 88.4705 49.8912 88.4705 45.2744C86.1266 45.2744 83.8471 45.2744 81.5048 45.2744C81.5048 49.9259 81.5048 54.5476 81.5048 59.1726C79.1477 59.1726 76.8534 59.1726 74.5277 59.1726C74.5277 58.8966 74.5277 58.6618 74.5277 58.4271C74.5243 51.7078 74.521 44.9884 74.5177 38.2708C72.2052 38.2708 69.8911 38.2708 67.5223 38.2708C67.5223 56.9262 67.5223 75.5123 67.5223 94.1611C60.517 94.1611 53.5679 94.1611 46.6172 94.1611C46.6172 96.5034 46.6172 98.7844 46.6172 101.127C53.5944 101.127 60.5435 101.127 67.557 101.127C67.557 103.482 67.557 105.778 67.557 108.119C69.9191 108.119 72.2185 108.119 74.5177 108.119M123.37 80.1273C121.094 80.1273 118.801 80.1273 116.459 80.1273C116.459 77.8066 116.459 75.5288 116.459 73.2179C118.763 73.2179 121.042 73.2179 123.37 73.2179C123.37 75.4974 123.37 77.7917 123.37 80.1273ZM102.438 122.045C100.134 122.045 97.8544 122.045 95.527 122.045C95.527 119.764 95.527 117.471 95.527 115.136C97.8032 115.136 100.096 115.136 102.438 115.136C102.438 117.455 102.438 119.734 102.438 122.045ZM109.491 108.147C111.777 108.147 114.068 108.147 116.426 108.147C116.426 110.463 116.426 112.774 116.426 115.084C114.128 115.084 111.83 115.084 109.491 115.084C109.491 112.772 109.491 110.479 109.491 108.147ZM130.358 122.038C125.747 122.038 121.128 122.038 116.444 122.038C116.444 119.726 116.444 117.415 116.444 115.103C121.067 115.103 125.69 115.103 130.358 115.103C130.358 117.413 130.358 119.706 130.358 122.038ZM130.358 101.084C128.074 101.084 125.781 101.084 123.424 101.084C123.424 98.7679 123.424 96.4571 123.424 94.1462C125.722 94.1462 128.02 94.1462 130.358 94.1462C130.358 96.4604 130.358 98.7514 130.358 101.084Z" stroke="black" stroke-width="0.5" stroke-miterlimit="10" stroke-linecap="round" stroke-linejoin="round"/>
<path d="M137.393 80.1621H137.375V80.177L137.393 80.1621Z" fill="black" stroke="black" stroke-width="0.5" stroke-miterlimit="10" stroke-linecap="round" stroke-linejoin="round"/>
<path d="M137.375 87.1455V87.162H137.393L137.375 87.1455Z" fill="black" stroke="black" stroke-width="0.5" stroke-miterlimit="10" stroke-linecap="round" stroke-linejoin="round"/>
<rect x="65" y="65" width="40" height="40" rx="5" fill="#0085FF"/>
<path d="M94.4356 94.9713L88.2162 85.9188L94.4037 76.7275C94.4937 76.5906 94.505 76.4163 94.4262 76.2719C94.3886 76.2011 94.3324 76.1419 94.2637 76.1007C94.195 76.0594 94.1164 76.0375 94.0362 76.0375H88.8144C88.6681 76.0375 88.5312 76.1088 88.4487 76.2306L85.0025 81.2444L81.5562 76.2288C81.5155 76.1694 81.4609 76.1208 81.3972 76.0872C81.3335 76.0535 81.2626 76.0358 81.1906 76.0356H75.9706C75.8075 76.0356 75.6556 76.1256 75.5806 76.27C75.5019 76.4144 75.5131 76.5906 75.6031 76.7256L81.7887 85.9188L75.5694 94.9713C75.4775 95.1063 75.4662 95.2825 75.5431 95.4288C75.62 95.5731 75.7719 95.665 75.935 95.665H81.4212C81.5694 95.665 81.7062 95.5919 81.7887 95.47L85.0025 90.6925L88.2181 95.47C88.3006 95.5919 88.4375 95.665 88.5856 95.665H94.07C94.235 95.665 94.385 95.5731 94.4637 95.4288C94.5387 95.2825 94.5294 95.1063 94.4356 94.9713Z" fill="white"/>
</g>
<defs>
<clipPath id="clip0_2793_40728">
<rect width="170" height="170" rx="5" fill="white"/>
</clipPath>
</defs>
</svg>
