<svg width="101" height="100" viewBox="0 0 101 100" fill="none" xmlns="http://www.w3.org/2000/svg">
<g clip-path="url(#clip0_772_20329)">
<path d="M100.5 0H0.5V100H100.5V0Z" fill="white"/>
<path d="M83.8039 33.2152C85.7231 15.7351 68.7762 9.66216 56.7622 14.1378C44.6507 18.6498 41.8429 11.1704 24.8122 13.3074C7.56779 15.4712 16.323 42.5406 16.323 42.5406C16.323 42.5406 19.0669 66.0791 22.3176 76.9291C25.5508 87.7203 56.4989 83.8161 64.0276 83.4941C71.5129 83.1739 78.0171 83.7919 84.5297 71.9432C91.0303 60.1161 81.8911 50.6374 83.8039 33.2152Z" fill="#F4F7FA"/>
<g opacity="0.8">
<path d="M37.8858 63.5278C37.8189 63.5278 37.7606 63.4785 37.7513 63.4103C37.7411 63.3359 37.7931 63.2674 37.8675 63.2572C37.9131 63.2509 42.4994 62.609 48.0033 60.8149C53.0747 59.1617 59.9849 56.1644 64.1052 51.273C67.5465 47.1877 71.9411 39.9687 76.162 31.4671C79.947 23.8436 82.2088 18.0121 82.2088 16.7785C82.2088 16.7034 82.2696 16.6426 82.3447 16.6426C82.4198 16.6426 82.4807 16.7034 82.4807 16.7785C82.4807 18.2215 79.8122 24.7266 76.4056 31.588C72.1753 40.1083 67.7679 47.347 64.3132 51.4482C60.1506 56.3897 53.1895 59.4107 48.0829 61.0749C42.5566 62.8759 37.9503 63.5202 37.9044 63.5265C37.8982 63.5274 37.8919 63.5278 37.8858 63.5278Z" fill="white"/>
<path d="M75.5937 33.0406C75.519 33.0406 75.4582 32.9796 75.4577 32.9048C75.4571 32.8058 75.3522 22.9589 71.8972 19.5038C71.8441 19.4507 71.8441 19.3644 71.8972 19.3114C71.9503 19.2583 72.0364 19.2582 72.0895 19.3113C75.6235 22.8452 75.727 32.4941 75.7297 32.9031C75.7302 32.9782 75.6697 33.0406 75.5946 33.0406C75.5943 33.0406 75.594 33.0406 75.5937 33.0406Z" fill="white"/>
<path d="M70.4016 42.5023C70.3459 42.5023 70.2935 42.4676 70.2736 42.4121C70.2483 42.3414 70.2851 42.2635 70.3558 42.2382C70.3864 42.2273 73.4618 41.1331 76.9798 40.552C81.7332 39.7669 84.9891 40.2414 86.657 41.9623C86.7093 42.0162 86.7079 42.1023 86.654 42.1545C86.6 42.2068 86.514 42.2054 86.4618 42.1515C82.6242 38.1923 70.5688 42.4508 70.4474 42.4942C70.4324 42.4997 70.4169 42.5023 70.4016 42.5023Z" fill="white"/>
<path d="M52.6653 59.3551C52.6507 59.3551 52.6359 59.3527 52.6213 59.3477C52.5502 59.3234 52.5123 59.2461 52.5367 59.175C52.5494 59.1377 53.8225 55.3906 54.4538 51.1873C55.0327 47.3335 55.1774 42.2974 52.5797 40.1908C52.5213 40.1435 52.5124 40.0579 52.5597 39.9996C52.607 39.9412 52.6927 39.9323 52.751 39.9796C54.9171 41.7362 55.5803 45.5218 54.7222 51.2313C54.0869 55.4584 52.8068 59.2256 52.7939 59.2631C52.7746 59.3195 52.7218 59.3551 52.6653 59.3551Z" fill="white"/>
<path d="M60.1154 55.2413C60.0569 55.2413 60.0029 55.2032 59.9853 55.1443C59.9637 55.0724 60.0045 54.9966 60.0764 54.975C60.5978 54.8186 72.8859 51.1683 76.4306 53.2135C76.4957 53.251 76.518 53.3342 76.4804 53.3992C76.4429 53.4643 76.3597 53.4866 76.2947 53.4491C72.8504 51.4619 60.2811 55.1976 60.1546 55.2355C60.1415 55.2394 60.1283 55.2413 60.1154 55.2413Z" fill="white"/>
</g>
<path d="M68.7596 20.3588L22.763 17.698C21.7036 17.6462 20.75 18.8023 20.75 19.773V79.002C20.75 80.3482 22.1251 80.6192 23.1845 80.511L68.7596 75.8565C69.5921 75.7715 70.2642 75.0097 70.2642 74.1546V21.9805C70.2642 21.1255 69.5921 20.3995 68.7596 20.3588Z" fill="url(#paint0_linear_772_20329)"/>
<path d="M69.5164 19.8879L23.429 17.6207C22.3696 17.5686 21.5068 18.3192 21.5068 19.2975V78.9893C21.5068 79.9676 22.3696 80.6718 23.429 80.5628L69.5164 75.8192C70.3489 75.7336 71.021 74.9658 71.021 74.104V21.5223C71.021 20.6605 70.3489 19.9289 69.5164 19.8879Z" fill="#D8DEE8"/>
<path opacity="0.3" d="M23.4291 79.7531C22.8576 79.8108 22.3916 79.4289 22.3916 78.9018V19.337C22.3916 18.8099 22.8576 18.403 23.4291 18.43L69.5165 20.607C69.9665 20.6283 70.3318 21.0249 70.3318 21.4911V74.1718C70.3318 74.638 69.9665 75.0542 69.5165 75.0997L23.4291 79.7531Z" fill="url(#paint1_linear_772_20329)"/>
<path d="M66.5457 73.6869L27.127 77.4849V22.5312L66.5457 24.0159V73.6869Z" fill="white"/>
<path opacity="0.3" d="M50.7793 24.2848L35.0254 24.4819L35.3788 20.9291C35.4054 20.4675 35.7392 20.0885 36.1785 20.021L38.8465 19.611C39.1606 19.5627 39.4312 19.3551 39.5684 19.057L39.8577 18.4287L46.8362 18.8596L50.7793 24.2848Z" fill="#97A6B7"/>
<path d="M59.192 21.9803C59.1173 21.5783 58.7952 21.2962 58.3894 21.278L55.8721 21.1651C54.7296 21.1139 53.892 20.1857 53.9339 19.01L54.031 16.2856C54.049 15.7817 53.6892 15.3779 53.1946 15.3484L52.3676 15.299C51.7369 15.2613 51.317 14.7054 51.4054 14.0625C51.56 12.939 50.7903 11.9695 49.6746 11.8934C48.5503 11.8168 47.5008 12.6758 47.3335 13.8137C47.3086 13.9827 47.2515 14.1498 47.1585 14.2989C46.8987 14.7157 46.4435 14.9451 45.9976 14.9185L45.1445 14.8676C44.6276 14.8367 44.1363 15.1995 44.0054 15.71L43.296 18.4755C42.9892 19.6716 41.832 20.5358 40.6031 20.4808L37.8417 20.357C37.3895 20.3367 36.9456 20.6003 36.7374 21.0136L35.0734 24.3155C34.9371 24.5859 35.1049 24.878 35.4019 24.8879L59.3489 25.6833C59.611 25.692 59.8334 25.4306 59.7851 25.1709L59.192 21.9803ZM49.3352 14.2515C49.0054 14.2311 48.7765 13.9443 48.8244 13.611C48.8724 13.2778 49.179 13.0251 49.5087 13.0465C49.8378 13.068 50.0654 13.3547 50.0176 13.6869C49.9698 14.0191 49.6645 14.2719 49.3352 14.2515Z" fill="url(#paint2_linear_772_20329)"/>
<path d="M59.3336 22.0544C59.2588 21.6525 58.9368 21.3703 58.531 21.3522L56.0137 21.2393C54.8711 21.1881 54.0335 20.2599 54.0754 19.0842L54.1726 16.3597C54.1906 15.8559 53.8307 15.4521 53.3362 15.4226L52.5091 15.3732C51.8785 15.3355 51.4586 14.7796 51.547 14.1367C51.7016 13.0132 50.9318 12.0437 49.8162 11.9676C48.6919 11.891 47.6425 12.75 47.4751 13.8879C47.4502 14.057 47.3931 14.224 47.3001 14.3731C47.0403 14.7899 46.5851 15.0193 46.1392 14.9927L45.2861 14.9418C44.7691 14.9109 44.2779 15.2737 44.147 15.7842L43.4376 18.5497C43.1308 19.7458 41.9735 20.61 40.7447 20.555L37.9833 20.4312C37.5311 20.4109 37.0872 20.6745 36.879 21.0878L35.215 24.3896C35.0787 24.6601 35.2465 24.9522 35.5435 24.962L59.4905 25.7574C59.7526 25.7661 59.975 25.5048 59.9267 25.2451L59.3336 22.0544ZM49.4768 14.3257C49.1469 14.3052 48.918 14.0185 48.966 13.6852C49.014 13.352 49.3205 13.0992 49.6502 13.1207C49.9794 13.1421 50.207 13.4288 50.1592 13.7611C50.1113 14.0933 49.806 14.3461 49.4768 14.3257Z" fill="#97A6B7"/>
<path opacity="0.5" d="M55.2354 23.5716C53.0992 22.2529 51.4602 23.1879 50.1289 21.7007C48.7037 20.1085 49.665 18.0124 48.1904 17.0234C47.2463 16.3901 46.4042 16.9487 45.3062 16.7772C44.9041 16.7145 44.4751 16.5547 44.0292 16.2432L43.4376 18.5496C43.1308 19.7457 41.9736 20.6099 40.7447 20.5549L37.9833 20.4311C37.5311 20.4108 37.0872 20.6745 36.879 21.0877L35.215 24.3896C35.0787 24.66 35.2465 24.9521 35.5435 24.962L57.3064 25.6848C56.7582 24.8142 56.0773 24.0913 55.2354 23.5716Z" fill="white"/>
<path d="M36.6194 42.0328C32.3766 42.1702 28.7871 38.8689 28.7871 34.6126C28.7871 30.2936 32.4714 26.894 36.8217 27.0848C40.9871 27.2674 44.1619 30.6994 44.0579 34.6925C43.9552 38.6319 40.6864 41.9012 36.6194 42.0328Z" fill="#D8DEE8"/>
<path d="M43.5692 34.6896C43.4763 38.3744 40.4269 41.4163 36.626 41.5296C32.6719 41.6474 29.3507 38.5753 29.3545 34.6152C29.3584 30.6009 32.7672 27.4462 36.8143 27.6127C40.701 27.7727 43.6633 30.9579 43.5692 34.6896Z" fill="white"/>
<mask id="mask0_772_20329" style="mask-type:luminance" maskUnits="userSpaceOnUse" x="29" y="28" width="15" height="14">
<path d="M43.0783 34.6878C42.9948 38.11 40.1601 40.9305 36.6328 41.0266C32.974 41.1262 29.9119 38.2774 29.919 34.6189C29.9261 30.9142 33.0688 27.9971 36.8072 28.1408C40.4083 28.2793 43.1627 31.2251 43.0783 34.6878Z" fill="white"/>
</mask>
<g mask="url(#mask0_772_20329)">
<path d="M29.3496 39.4656C29.3496 39.4656 35.8258 35.7581 43.4552 39.2034C43.4552 39.2034 42.4242 42.2081 36.6119 42.5577C30.4372 42.9292 29.3496 39.4656 29.3496 39.4656Z" fill="url(#paint3_linear_772_20329)"/>
<path d="M35.5907 34.6494L35.3318 36.3805C35.2503 37.4775 34.125 37.9011 34.125 37.9011C35.423 39.3871 37.907 39.2877 38.7922 37.8622C38.1997 37.652 37.5427 36.7586 37.5259 36.128L37.487 34.6593L35.5907 34.6494Z" fill="url(#paint4_linear_772_20329)"/>
<path d="M38.4976 33.1407C38.4736 34.5973 37.5558 36.1565 36.444 36.1592C35.3194 36.1619 34.4136 34.5747 34.4279 33.0875C34.4422 31.5927 35.3794 30.7949 36.5139 30.823C37.6353 30.8507 38.5218 31.6768 38.4976 33.1407Z" fill="url(#paint5_linear_772_20329)"/>
<path d="M34.3637 33.4633C34.4777 33.4471 34.5916 33.431 34.7053 33.4148C34.6544 33.2923 34.444 32.7491 34.7168 32.2797C34.9785 31.8292 35.5852 31.6193 36.0449 31.6586C36.5656 31.7031 36.8744 31.9444 37.1375 31.7676C37.2852 31.6682 37.3352 31.4834 37.354 31.3391C37.3642 31.4319 37.3883 31.5694 37.4534 31.722C37.6401 32.1596 37.9648 32.2557 38.1375 32.5447C38.2537 32.739 38.3259 33.0619 38.1204 33.6251C38.2185 33.6205 38.3165 33.6158 38.4145 33.6112C38.523 33.2951 38.6543 32.8463 38.7406 32.2955C38.8691 31.4761 38.9576 30.911 38.6367 30.6264C38.5727 30.5695 38.2886 30.3431 37.595 30.5309C37.4354 30.3603 37.0975 30.046 36.5715 29.8768C36.3892 29.8182 35.4814 29.5262 34.664 30.0765C34.107 30.4515 33.6662 31.1679 33.8008 31.7713C33.8718 32.0897 34.072 32.2357 34.2434 32.8499C34.3155 33.1086 34.3478 33.3257 34.3637 33.4633Z" fill="url(#paint6_linear_772_20329)"/>
<path d="M38.2108 33.6762C38.2108 33.6762 38.3498 33.0381 38.7392 33.1067C39.127 33.1751 38.5521 34.2141 38.2002 34.3372L38.2108 33.6762Z" fill="url(#paint7_linear_772_20329)"/>
<path d="M34.6785 33.6398C34.6785 33.6398 34.5514 32.9865 34.1433 33.0458C33.7336 33.1053 34.309 34.1821 34.6718 34.3129L34.6785 33.6398Z" fill="url(#paint8_linear_772_20329)"/>
</g>
<path d="M65.3248 33.004L49.0986 32.9241V30.752L65.3248 30.9192V33.004Z" fill="#D8DEE8"/>
<path d="M65.3248 35.633L49.0986 35.6631V34.0576L65.3248 34.092V35.633Z" fill="#D8DEE8"/>
<path d="M65.3248 38.2617L49.0986 38.4019V36.7964L65.3248 36.7207V38.2617Z" fill="#D8DEE8"/>
<path d="M31.797 47.5085L29.6455 47.5767V45.201L31.797 45.1455V47.5085Z" fill="#E75F51"/>
<path d="M65.3255 46.2382L33.4111 47.1702V45.5022L65.3255 44.6973V46.2382Z" fill="#D8DEE8"/>
<path d="M31.797 51.1511L29.6455 51.2388V48.8631L31.797 48.7881V51.1511Z" fill="#E75F51"/>
<path d="M65.3255 49.5918L33.4111 50.8001V49.1322L65.3255 48.0508V49.5918Z" fill="#D8DEE8"/>
<path d="M31.797 54.6952L29.6455 54.8018V52.5252L31.797 52.4307V54.6952Z" fill="#E75F51"/>
<path d="M65.3255 52.9452L33.4111 54.4301V52.7621L65.3255 51.4043V52.9452Z" fill="#D8DEE8"/>
<path d="M31.797 58.3387L29.6455 58.4649V56.1882L31.797 56.0742V58.3387Z" fill="#E75F51"/>
<path d="M65.3255 56.2998L33.4111 58.0611V56.3931L65.3255 54.7588V56.2998Z" fill="#D8DEE8"/>
<path d="M65.3245 61.2849L29.8242 63.6971V61.9162L65.3245 59.6533V61.2849Z" fill="#D8DEE8"/>
<path d="M65.3245 64.3671L29.8242 67.0613V65.3794L65.3245 62.8262V64.3671Z" fill="#D8DEE8"/>
<path d="M65.3245 67.4482L29.8242 70.4245V68.7425L65.3245 65.9072V67.4482Z" fill="#D8DEE8"/>
<path d="M65.3245 70.5302L29.8242 73.7885V72.1065L65.3245 68.9893V70.5302Z" fill="#D8DEE8"/>
<path d="M72.1733 79.4255L62.3677 80.8157C62.0898 80.8551 61.8326 80.6617 61.7932 80.3838C61.7538 80.106 61.9471 79.8487 62.225 79.8093L72.0307 78.4192C72.3086 78.3798 72.5658 78.5731 72.6052 78.851C72.6446 79.1289 72.4512 79.3861 72.1733 79.4255Z" fill="#D8DEE8"/>
<path d="M74.7865 78.0287L72.6217 78.3356L72.4473 77.1052L74.6121 76.7983C74.637 76.7948 74.6601 76.8121 74.6637 76.837L74.8253 77.9771C74.8288 78.002 74.8114 78.0251 74.7865 78.0287Z" fill="#D8DEE8"/>
<path d="M35.0498 83.3041L34.1354 83.4338C34.0326 83.4484 33.9374 83.3768 33.9228 83.2739C33.9082 83.171 33.9798 83.0759 34.0826 83.0613L34.997 82.9316L35.0498 83.3041Z" fill="#26264F"/>
<path d="M34.4952 83.1924C34.522 83.381 34.6775 83.5248 34.8677 83.5367L38.7918 83.7821L38.4585 81.4316L34.7573 82.7581C34.5779 82.8224 34.4685 83.0038 34.4952 83.1924Z" fill="#D8DEE8"/>
<path d="M34.722 82.9939C34.7293 83.0456 34.8681 83.0714 35.0544 83.0556L38.8519 82.4084L38.7607 81.7646L35.0241 82.8423C34.8409 82.879 34.7147 82.9423 34.722 82.9939Z" fill="white"/>
<path d="M72.823 78.9132L38.6998 83.7953C38.0508 83.8873 37.7175 81.5368 38.3666 81.4448L72.4897 76.5628C72.8769 76.5079 73.2353 76.7773 73.2902 77.1644L73.4247 78.1128C73.4796 78.5 73.2101 78.8584 72.823 78.9132Z" fill="url(#paint9_linear_772_20329)"/>
<path d="M65.1981 78.6057L38.3744 82.4529L38.2959 81.8989L65.1195 78.0518L65.1981 78.6057Z" fill="white"/>
<path d="M65.6166 79.9448L65.3043 79.9891L64.9697 77.6292L65.2821 77.585L65.6166 79.9448Z" fill="url(#paint10_linear_772_20329)"/>
<path d="M72.4383 76.572L72.126 76.6162L72.4604 78.976L72.7727 78.9318L72.4383 76.572Z" fill="white"/>
<path opacity="0.3" d="M72.4893 76.5628L56.1381 78.9252C54.3501 80.7394 53.057 81.0797 52.1441 80.9629C51.5101 80.8818 50.6795 80.5321 49.4421 80.7791C48.247 81.0177 48.2046 81.5069 47.2253 81.5864C45.7737 81.7043 45.2235 80.6812 44.1537 81.0581C43.5784 81.2608 43.6871 81.5744 42.9034 82.1031C42.6128 82.2993 41.4024 83.1159 39.9548 82.8361C39.1128 82.6734 38.497 82.1989 38.0833 81.7534C37.8697 82.4091 38.1851 83.8682 38.6993 83.7953L72.8225 78.9133C73.2097 78.8584 73.479 78.5 73.4241 78.1128L73.2897 77.1645C73.2348 76.7773 72.8765 76.5079 72.4893 76.5628Z" fill="#FFC107"/>
<path d="M68.5546 83.2167C68.5546 83.2167 66.4641 84.1729 66.4303 84.3248C66.3965 84.4767 67.776 84.2707 68.3395 84.2912C68.9029 84.3118 69.366 84.1441 69.3145 83.9056C69.2628 83.6671 69.0642 83.0674 69.0642 83.0674L68.5546 83.2167Z" fill="url(#paint11_linear_772_20329)"/>
<path d="M68.4766 82.4446L68.6061 83.3866C68.6061 83.3866 68.9377 83.5037 69.16 83.3637L69.2524 82.3301L68.4766 82.4446Z" fill="url(#paint12_linear_772_20329)"/>
<path d="M78.3322 82.4443L78.5765 82.8345C78.6449 82.9437 78.6655 83.0752 78.6332 83.1998C78.5488 83.525 78.3803 84.1587 78.3066 84.324C78.2062 84.5492 76.8522 84.6861 76.8522 84.6861C76.8522 84.6861 76.731 84.5164 77.0117 84.3105C77.2924 84.1045 77.473 84.0718 77.5716 83.7686C77.6701 83.4655 77.7342 82.6085 77.7342 82.6085L78.3322 82.4443Z" fill="url(#paint13_linear_772_20329)"/>
<path d="M77.3164 81.4535C77.4055 81.5242 77.8436 82.8434 77.8436 82.8434C77.8436 82.8434 77.9849 83.0231 78.2517 82.7568C78.5185 82.4904 78.3724 82.6373 78.3724 82.6373L78.3192 81.3389L77.3164 81.4535Z" fill="url(#paint14_linear_772_20329)"/>
<path d="M67.2798 63.5172C67.1762 66.3282 67.179 69.382 67.3486 72.6439C67.5395 76.3171 67.9136 79.7116 68.3821 82.7884C68.5536 82.7934 68.7337 82.7939 68.9219 82.7882C69.0489 82.7843 69.172 82.7778 69.291 82.7693C69.5288 82.1306 69.8097 81.2906 70.0606 80.2875C70.3243 79.2327 70.4827 78.2868 70.595 77.3824C70.9903 74.1978 70.5174 73.9212 70.8388 71.5611C71.1234 69.4709 71.5351 69.3883 72.0116 66.4205C72.5285 63.2003 72.1368 62.7183 71.9464 62.5443C71.1361 61.8036 69.2379 62.3138 67.2798 63.5172Z" fill="#323C45"/>
<path opacity="0.3" d="M71.9457 62.5439C71.1727 61.8374 69.41 62.2705 67.5498 63.3561C69.6984 65.6663 69.9356 67.1677 69.681 68.1429C69.3933 69.2451 68.5113 69.5644 68.5176 70.7689C68.5253 72.2489 69.862 72.6378 69.8374 74.2041C69.8211 75.2398 69.2341 75.2304 69.0986 76.5099C68.9382 78.0238 69.7063 78.5435 69.4606 79.6639C69.3549 80.1459 69.0514 80.7762 68.1843 81.4267C68.2481 81.8864 68.3134 82.3415 68.3814 82.7879C68.5528 82.7929 68.7329 82.7935 68.9211 82.7877C69.0482 82.7839 69.1713 82.7774 69.2902 82.7689C69.528 82.1301 69.8089 81.2901 70.0598 80.2871C70.3235 79.2323 70.4819 78.2864 70.5942 77.3819C70.9895 74.1974 70.5166 73.9208 70.838 71.5607C71.1226 69.4704 71.5344 69.3878 72.0108 66.42C72.5277 63.1998 72.136 62.7179 71.9457 62.5439Z" fill="url(#paint15_linear_772_20329)"/>
<path d="M68.6064 63.467C70.4581 66.1625 72.4565 69.518 74.2461 73.5357C75.5985 76.572 76.5809 79.4234 77.3032 81.965C77.4003 82.0097 77.6291 82.0987 77.9212 82.0593C78.3195 82.0057 78.5577 81.7508 78.62 81.6796C78.9071 79.8557 78.8713 78.3116 78.7697 77.1974C78.7046 76.484 78.5896 75.296 78.1313 73.8302C77.6179 72.1884 77.2674 72.0969 76.5987 70.3601C75.9046 68.5574 76.0705 68.1067 75.4045 65.8502C75.1309 64.9232 74.6733 63.5439 73.9198 61.8945C72.1486 62.4187 70.3775 62.9428 68.6064 63.467Z" fill="#323C45"/>
<path d="M62.7188 59.868C62.9295 59.9886 63.1649 60.1001 63.4284 60.2009C65.2713 60.9038 67.2339 60.0976 68.3813 58.61C68.406 58.5794 68.4292 58.548 68.4515 58.5166C68.4655 58.4984 68.4787 58.4794 68.4919 58.4612C68.5109 58.4348 68.5291 58.4084 68.5473 58.3819C68.767 58.0623 69.0107 57.6732 69.0694 57.7038C69.0735 57.7054 69.088 57.7104 69.0896 57.7178C69.0904 57.7195 69.1024 57.722 69.1024 57.7244V57.7253C69.1024 57.954 67.9703 59.8795 67.4648 62.0561C67.1947 63.2225 67.2589 63.7684 66.7534 64.5449C66.6386 64.7209 66.4943 64.9042 66.5439 65.1124C66.6686 65.6336 67.8591 65.7691 68.6859 65.8632C69.5582 65.9616 70.3719 65.9525 71.1765 65.9409C72.4643 65.9219 72.5655 65.855 72.8596 65.9996C73.7558 66.439 73.6945 67.4922 74.3694 67.6334C74.9352 67.7507 75.51 67.1188 75.6918 66.9181C76.6384 65.8765 76.588 64.6201 76.7556 63.353C77.1463 60.4065 78.7463 57.1784 80.3125 55.1348C80.7874 54.5153 81.1178 54.1898 81.1385 53.6133C81.1988 51.9232 78.52 50.0564 76.2905 49.8425C75.6793 49.783 74.5848 49.802 73.558 49.8986C73.1483 49.9374 72.7114 49.9944 72.2422 50.0762C71.1039 50.2753 70.3118 50.4141 69.5047 50.7833C66.2485 52.2726 67.7667 54.2733 64.2429 56.5663C63.0311 57.3543 61.0437 54.8738 61.0627 55.5611C61.0783 56.1616 60.4175 58.5505 62.7188 59.868Z" fill="#0085FF"/>
<path d="M74.4256 48.0889C74.4256 48.0889 74.5654 48.8693 74.8873 49.4248C75.1782 49.9269 76.381 50.1068 76.6316 50.1942C76.8822 50.2816 76.2536 50.718 75.585 50.8763C74.9165 51.0345 72.961 51.138 72.5781 50.9275C72.1951 50.717 72.8268 50.6527 73.2868 50.4108C73.7468 50.169 73.9007 49.1859 73.7582 48.768C73.6158 48.35 74.4256 48.0889 74.4256 48.0889Z" fill="url(#paint16_linear_772_20329)"/>
<path d="M73.1539 47.8632C72.6688 47.5165 72.5344 46.5789 72.8039 46.3684C72.8809 46.3082 72.9545 46.3359 74.0493 46.775C74.593 46.9932 74.8604 47.1093 74.9485 47.3494C75.0023 47.496 74.9935 47.694 74.9341 47.85C74.9035 47.9303 74.844 48.0302 74.7114 48.221C74.5938 48.3903 74.6017 48.3845 74.5657 48.4337C74.4791 48.5519 74.312 48.7509 74.0058 48.9815C73.9888 48.8952 73.9619 48.7882 73.9168 48.6714C73.8995 48.6264 73.8295 48.4508 73.7186 48.3028C73.5278 48.0482 73.3113 47.9757 73.1539 47.8632Z" fill="url(#paint17_linear_772_20329)"/>
<path d="M74.3975 48.7552C74.3975 48.7552 74.0801 49.2281 73.4922 49.1639C72.9657 49.1064 72.9402 47.9192 73.2884 47.6827C73.4046 47.6039 73.6314 47.5789 73.8123 47.6383C73.9192 47.6733 73.9538 47.7199 74.1296 47.7738C74.2917 47.8235 74.3388 47.8073 74.3865 47.8512C74.4461 47.906 74.4859 48.0357 74.3674 48.3772C74.4725 48.2796 74.5952 48.2458 74.679 48.29C74.6924 48.297 74.7276 48.3233 74.7463 48.3616C74.8142 48.5001 74.6832 48.6673 74.3975 48.7552Z" fill="url(#paint18_linear_772_20329)"/>
<path opacity="0.4" d="M62.7188 59.868C62.9294 59.9886 63.1648 60.1001 63.4283 60.2008C65.2712 60.9038 67.2338 60.0976 68.3812 58.6099C68.406 58.5793 68.4291 58.548 68.4514 58.5165C68.4655 58.4984 68.4787 58.4794 68.4919 58.4612C68.5109 58.4348 68.5291 58.4083 68.5472 58.3819C68.7669 58.0622 69.0106 57.6732 69.0693 57.7037C69.0734 57.7054 69.0759 57.7103 69.0776 57.7178C69.0776 57.7194 69.0784 57.7219 69.0784 57.7244C69.2552 57.4468 69.4327 57.1701 69.6095 56.8926C69.4179 56.5597 69.1469 56.2202 68.8149 56.2111C68.1103 56.1938 67.9286 57.679 66.7168 58.6553C65.989 59.2418 65.4034 59.2311 63.9314 59.5623C63.577 59.6425 63.1714 59.7415 62.7188 59.868Z" fill="url(#paint19_linear_772_20329)"/>
<path d="M79.4178 65.2196C80.3093 65.2991 82.3159 65.3354 83.7352 64.0224C86.098 61.8366 84.9258 57.6759 84.1034 55.8865C83.1604 53.835 81.6596 52.6866 80.7476 51.9887C79.616 51.1229 78.9253 50.5944 78.0944 50.7128C75.9455 51.0188 74.4572 55.4231 75.6369 56.6841C76.0231 57.097 76.4055 56.8632 77.5232 57.2191C77.8872 57.3351 80.6038 58.2003 81.0768 60.2012C81.4078 61.6015 80.565 63.2413 79.0649 64.3426C79.1825 64.635 79.3002 64.9273 79.4178 65.2196Z" fill="#0085FF"/>
<path opacity="0.4" d="M69.425 64.494C70.4343 63.8562 70.5836 63.2098 71.7137 62.773C73.1819 62.2056 73.8874 62.9264 74.6153 62.3444C75.4815 61.6518 74.7147 60.4453 75.3629 58.3514C75.473 57.996 76.3086 55.2967 78.2262 54.9528C79.1203 54.7924 80.3013 55.135 80.7564 55.8927C81.1125 56.4857 80.7807 56.9278 81.2138 57.5824C81.6465 58.2366 82.164 58.0766 82.7156 58.6223C83.5915 59.4887 83.7258 61.3157 82.935 62.349C82.5662 62.8309 82.0869 63.0215 81.185 63.3801C80.6341 63.5991 80.122 63.7354 79.681 63.8219C80.7854 62.762 81.3585 61.3951 81.0762 60.2011C80.7814 58.9539 79.6148 58.148 78.6896 57.6897C77.7638 59.432 77.0072 61.4508 76.7552 63.3528C76.5873 64.62 76.6379 65.8764 75.6913 66.9185C75.5092 67.119 74.9348 67.7513 74.3685 67.6332C73.6943 67.4928 73.755 66.4391 72.859 65.9994C72.5649 65.855 72.4635 65.922 71.1752 65.9408C70.3705 65.9525 69.5565 65.9621 68.6836 65.863C67.9483 65.7795 66.9262 65.6625 66.6211 65.2712C67.9485 65.2351 68.8344 64.8672 69.425 64.494Z" fill="url(#paint20_linear_772_20329)"/>
<path d="M60.9453 55.293L78.7008 67.4479C79.1303 67.7437 79.7242 67.6478 80.0266 67.2332L80.2166 66.973C80.5197 66.5575 80.4148 65.9801 79.982 65.6852L79.6268 65.444L65.1754 55.6193L62.205 53.5996L60.9453 55.293Z" fill="url(#paint21_linear_772_20329)"/>
<path d="M44.3058 42.1024C47.5084 36.886 54.1927 35.2271 59.2493 38.5621C64.3987 41.9583 65.7235 49.1006 62.1995 54.3427C58.7584 59.4618 52.0506 60.7083 47.2222 57.2894C42.4774 53.9297 41.176 47.2001 44.3058 42.1024ZM60.7236 53.3331C63.6548 48.9404 62.5436 42.9713 58.248 40.1212C54.0173 37.3141 48.402 38.6792 45.6968 43.0539C43.0435 47.3447 44.138 53.0227 48.1485 55.8472C52.2183 58.7134 57.8501 57.6392 60.7236 53.3331Z" fill="url(#paint22_linear_772_20329)"/>
<path opacity="0.6" d="M60.9453 55.293L78.7008 67.4479C79.1303 67.7437 79.7242 67.6478 80.0266 67.2332L80.2166 66.973C80.5197 66.5575 80.4148 65.9801 79.982 65.6852L79.6276 65.4432L79.6268 65.444C78.7545 66.3204 78.1787 66.4443 77.793 66.3468C76.8893 66.118 77.1569 64.7171 75.7866 63.6028C74.4311 62.5008 73.3366 63.1922 71.7993 61.9664C70.8693 61.2247 71.2013 60.9166 70.2563 59.9749C68.3729 58.0981 66.4194 58.6871 65.524 57.3085C65.2886 56.9458 65.1077 56.418 65.1754 55.6193L62.205 53.5996L60.9453 55.293Z" fill="#D8DEE8"/>
<path d="M43.7912 42.4745C46.9938 37.2581 53.6781 35.5992 58.7347 38.9342C63.8841 42.3304 65.2089 49.4726 61.685 54.7148C58.2438 59.8339 51.5359 61.0803 46.7076 57.6615C41.9627 54.3017 40.6614 47.5722 43.7912 42.4745ZM60.209 53.7052C63.1402 49.3125 62.029 43.3434 57.7334 40.4933C53.5026 37.6862 47.8874 39.0512 45.1822 43.426C42.5289 47.7168 43.6234 53.3948 47.6339 56.2192C51.7037 59.0854 57.3355 58.0112 60.209 53.7052Z" fill="url(#paint23_linear_772_20329)"/>
<path d="M44.2823 42.8105C47.3097 37.8921 53.616 36.3383 58.3798 39.4869C63.2259 42.6899 64.4751 49.4159 61.1621 54.3572C57.9224 59.1891 51.5952 60.3758 47.0345 57.1526C42.5483 53.9821 41.32 47.6233 44.2823 42.8105ZM60.209 53.7053C63.1402 49.3126 62.0291 43.3435 57.7334 40.4934C53.5027 37.6863 47.8874 39.0514 45.1822 43.4261C42.5289 47.7169 43.6235 53.3949 47.6339 56.2193C51.7037 59.0855 57.3355 58.0114 60.209 53.7053Z" fill="url(#paint24_linear_772_20329)"/>
<path d="M79.3421 65.0317L79.1436 64.5382C79.1436 64.5382 78.8195 64.558 78.5535 64.3673C78.4086 64.2634 78.1514 64.2324 78.0767 64.2532C78.0019 64.2739 77.7196 64.2615 78.0414 64.4151C78.3631 64.5685 78.3606 64.6826 78.2265 64.8086C78.0924 64.9346 77.582 65.2056 77.3984 65.2186C77.2147 65.2317 77.5468 65.5158 77.732 65.5521C77.9173 65.5883 78.2211 65.6342 78.5969 65.413C78.734 65.3323 79.3421 65.0317 79.3421 65.0317Z" fill="url(#paint25_linear_772_20329)"/>
<path d="M62.9646 56.6611C62.4759 56.3246 62.4 55.5932 61.6817 55.5417C61.6817 55.5417 61.084 55.3973 61.386 56.0589C61.688 56.7205 63.1479 57.2246 62.9646 56.6611Z" fill="url(#paint26_linear_772_20329)"/>
</g>
<defs>
<linearGradient id="paint0_linear_772_20329" x1="20.75" y1="49.1144" x2="70.2642" y2="49.1144" gradientUnits="userSpaceOnUse">
<stop stop-color="#444B8C"/>
<stop offset="0.9964" stop-color="#26264F"/>
</linearGradient>
<linearGradient id="paint1_linear_772_20329" x1="22.3916" y1="49.0938" x2="70.3318" y2="49.0938" gradientUnits="userSpaceOnUse">
<stop offset="0.0036" stop-color="#E38DDD"/>
<stop offset="1" stop-color="#9571F6"/>
</linearGradient>
<linearGradient id="paint2_linear_772_20329" x1="35.0254" y1="18.7861" x2="59.7917" y2="18.7861" gradientUnits="userSpaceOnUse">
<stop stop-color="#444B8C"/>
<stop offset="0.9964" stop-color="#26264F"/>
</linearGradient>
<linearGradient id="paint3_linear_772_20329" x1="29.3496" y1="40.1614" x2="43.4552" y2="40.1614" gradientUnits="userSpaceOnUse">
<stop stop-color="#AB316D"/>
<stop offset="1" stop-color="#792D3D"/>
</linearGradient>
<linearGradient id="paint4_linear_772_20329" x1="36.4449" y1="35.2261" x2="36.4707" y2="40.2355" gradientUnits="userSpaceOnUse">
<stop offset="0.0036" stop-color="#F36F56"/>
<stop offset="1" stop-color="#FFC444"/>
</linearGradient>
<linearGradient id="paint5_linear_772_20329" x1="37.2531" y1="28.2351" x2="35.974" y2="36.1346" gradientUnits="userSpaceOnUse">
<stop offset="0.0036" stop-color="#F36F56"/>
<stop offset="1" stop-color="#FFC444"/>
</linearGradient>
<linearGradient id="paint6_linear_772_20329" x1="36.5866" y1="29.8465" x2="35.9591" y2="33.7216" gradientUnits="userSpaceOnUse">
<stop stop-color="#444B8C"/>
<stop offset="0.9964" stop-color="#26264F"/>
</linearGradient>
<linearGradient id="paint7_linear_772_20329" x1="39.3233" y1="28.6628" x2="38.0604" y2="36.4624" gradientUnits="userSpaceOnUse">
<stop offset="0.0036" stop-color="#F36F56"/>
<stop offset="1" stop-color="#FFC444"/>
</linearGradient>
<linearGradient id="paint8_linear_772_20329" x1="35.2957" y1="27.8414" x2="34.0009" y2="35.8379" gradientUnits="userSpaceOnUse">
<stop offset="0.0036" stop-color="#F36F56"/>
<stop offset="1" stop-color="#FFC444"/>
</linearGradient>
<linearGradient id="paint9_linear_772_20329" x1="53.5662" y1="75.0937" x2="56.9591" y2="83.0478" gradientUnits="userSpaceOnUse">
<stop stop-color="#FFC444"/>
<stop offset="0.9964" stop-color="#F36F56"/>
</linearGradient>
<linearGradient id="paint10_linear_772_20329" x1="65.137" y1="78.8092" x2="65.4494" y2="78.7649" gradientUnits="userSpaceOnUse">
<stop stop-color="#AA80F9"/>
<stop offset="0.9964" stop-color="#6165D7"/>
</linearGradient>
<linearGradient id="paint11_linear_772_20329" x1="67.5328" y1="79.9191" x2="68.0686" y2="86.5348" gradientUnits="userSpaceOnUse">
<stop stop-color="#311944"/>
<stop offset="1" stop-color="#A03976"/>
</linearGradient>
<linearGradient id="paint12_linear_772_20329" x1="68.8841" y1="83.5994" x2="68.7732" y2="76.7465" gradientUnits="userSpaceOnUse">
<stop stop-color="#FFC444"/>
<stop offset="0.9964" stop-color="#F36F56"/>
</linearGradient>
<linearGradient id="paint13_linear_772_20329" x1="77.3559" y1="79.1241" x2="77.8917" y2="85.7396" gradientUnits="userSpaceOnUse">
<stop stop-color="#311944"/>
<stop offset="1" stop-color="#A03976"/>
</linearGradient>
<linearGradient id="paint14_linear_772_20329" x1="77.8875" y1="83.4543" x2="77.7765" y2="76.6012" gradientUnits="userSpaceOnUse">
<stop stop-color="#FFC444"/>
<stop offset="0.9964" stop-color="#F36F56"/>
</linearGradient>
<linearGradient id="paint15_linear_772_20329" x1="67.2214" y1="72.5016" x2="72.2884" y2="72.4895" gradientUnits="userSpaceOnUse">
<stop stop-color="#444B8C"/>
<stop offset="0.9964" stop-color="#3E4177"/>
</linearGradient>
<linearGradient id="paint16_linear_772_20329" x1="74.4826" y1="51.3384" x2="73.4001" y2="60.8874" gradientUnits="userSpaceOnUse">
<stop stop-color="#FFC444"/>
<stop offset="0.9964" stop-color="#F36F56"/>
</linearGradient>
<linearGradient id="paint17_linear_772_20329" x1="75.0759" y1="50.9181" x2="73.549" y2="46.4247" gradientUnits="userSpaceOnUse">
<stop stop-color="#444B8C"/>
<stop offset="0.9964" stop-color="#3E4177"/>
</linearGradient>
<linearGradient id="paint18_linear_772_20329" x1="73.808" y1="47.5927" x2="74.6585" y2="54.6287" gradientUnits="userSpaceOnUse">
<stop stop-color="#FFC444"/>
<stop offset="0.9964" stop-color="#F36F56"/>
</linearGradient>
<linearGradient id="paint19_linear_772_20329" x1="69.6095" y1="58.3345" x2="62.7187" y2="58.3345" gradientUnits="userSpaceOnUse">
<stop stop-color="#AA80F9"/>
<stop offset="0.9964" stop-color="#6165D7"/>
</linearGradient>
<linearGradient id="paint20_linear_772_20329" x1="66.6211" y1="61.2809" x2="83.4573" y2="61.2809" gradientUnits="userSpaceOnUse">
<stop stop-color="#AA80F9"/>
<stop offset="0.9964" stop-color="#6165D7"/>
</linearGradient>
<linearGradient id="paint21_linear_772_20329" x1="80.3898" y1="60.6096" x2="60.9453" y2="60.6096" gradientUnits="userSpaceOnUse">
<stop stop-color="#444B8C"/>
<stop offset="0.9964" stop-color="#26264F"/>
</linearGradient>
<linearGradient id="paint22_linear_772_20329" x1="43.0913" y1="44.8093" x2="63.6754" y2="51.2379" gradientUnits="userSpaceOnUse">
<stop stop-color="#444B8C"/>
<stop offset="0.9964" stop-color="#26264F"/>
</linearGradient>
<linearGradient id="paint23_linear_772_20329" x1="46.9919" y1="58.7244" x2="55.0505" y2="44.5552" gradientUnits="userSpaceOnUse">
<stop stop-color="#444B8C"/>
<stop offset="0.9964" stop-color="#26264F"/>
</linearGradient>
<linearGradient id="paint24_linear_772_20329" x1="58.8636" y1="38.0139" x2="47.8759" y2="56.96" gradientUnits="userSpaceOnUse">
<stop stop-color="#444B8C"/>
<stop offset="0.9964" stop-color="#26264F"/>
</linearGradient>
<linearGradient id="paint25_linear_772_20329" x1="79.0343" y1="63.0403" x2="74.9868" y2="75.3481" gradientUnits="userSpaceOnUse">
<stop stop-color="#FFC444"/>
<stop offset="0.9964" stop-color="#F36F56"/>
</linearGradient>
<linearGradient id="paint26_linear_772_20329" x1="62.9613" y1="56.445" x2="50.9063" y2="52.9425" gradientUnits="userSpaceOnUse">
<stop stop-color="#FFC444"/>
<stop offset="0.9964" stop-color="#F36F56"/>
</linearGradient>
<clipPath id="clip0_772_20329">
<rect width="100" height="100" fill="white" transform="translate(0.5)"/>
</clipPath>
</defs>
</svg>
