<svg width="16" height="16" viewBox="0 0 16 16" fill="none" xmlns="http://www.w3.org/2000/svg">
<path d="M12 5.3335C13.1046 5.3335 14 4.43807 14 3.3335C14 2.22893 13.1046 1.3335 12 1.3335C10.8954 1.3335 10 2.22893 10 3.3335C10 4.43807 10.8954 5.3335 12 5.3335Z" fill="url(#paint0_linear_3459_26682)" stroke="url(#paint1_linear_3459_26682)" stroke-linecap="round" stroke-linejoin="round"/>
<path d="M4 10C5.10457 10 6 9.10457 6 8C6 6.89543 5.10457 6 4 6C2.89543 6 2 6.89543 2 8C2 9.10457 2.89543 10 4 10Z" fill="url(#paint2_linear_3459_26682)" stroke="url(#paint3_linear_3459_26682)" stroke-linecap="round" stroke-linejoin="round"/>
<path d="M12 14.6665C13.1046 14.6665 14 13.7711 14 12.6665C14 11.5619 13.1046 10.6665 12 10.6665C10.8954 10.6665 10 11.5619 10 12.6665C10 13.7711 10.8954 14.6665 12 14.6665Z" fill="url(#paint4_linear_3459_26682)" stroke="url(#paint5_linear_3459_26682)" stroke-linecap="round" stroke-linejoin="round"/>
<path d="M5.72656 9.00684L10.2799 11.6602" stroke="url(#paint6_linear_3459_26682)" stroke-linecap="round" stroke-linejoin="round"/>
<path d="M10.2732 4.33984L5.72656 6.99318" stroke="url(#paint7_linear_3459_26682)" stroke-linecap="round" stroke-linejoin="round"/>
<defs>
<linearGradient id="paint0_linear_3459_26682" x1="12" y1="1.3335" x2="12" y2="5.3335" gradientUnits="userSpaceOnUse">
<stop stop-color="#7F60F9"/>
<stop offset="1" stop-color="#6DDCFF"/>
</linearGradient>
<linearGradient id="paint1_linear_3459_26682" x1="12" y1="1.3335" x2="12" y2="5.3335" gradientUnits="userSpaceOnUse">
<stop stop-color="#7F60F9"/>
<stop offset="1" stop-color="#6DDCFF"/>
</linearGradient>
<linearGradient id="paint2_linear_3459_26682" x1="4" y1="6" x2="4" y2="10" gradientUnits="userSpaceOnUse">
<stop stop-color="#7F60F9"/>
<stop offset="1" stop-color="#6DDCFF"/>
</linearGradient>
<linearGradient id="paint3_linear_3459_26682" x1="4" y1="6" x2="4" y2="10" gradientUnits="userSpaceOnUse">
<stop stop-color="#7F60F9"/>
<stop offset="1" stop-color="#6DDCFF"/>
</linearGradient>
<linearGradient id="paint4_linear_3459_26682" x1="12" y1="10.6665" x2="12" y2="14.6665" gradientUnits="userSpaceOnUse">
<stop stop-color="#7F60F9"/>
<stop offset="1" stop-color="#6DDCFF"/>
</linearGradient>
<linearGradient id="paint5_linear_3459_26682" x1="12" y1="10.6665" x2="12" y2="14.6665" gradientUnits="userSpaceOnUse">
<stop stop-color="#7F60F9"/>
<stop offset="1" stop-color="#6DDCFF"/>
</linearGradient>
<linearGradient id="paint6_linear_3459_26682" x1="8.00323" y1="9.00684" x2="8.00323" y2="11.6602" gradientUnits="userSpaceOnUse">
<stop stop-color="#7F60F9"/>
<stop offset="1" stop-color="#6DDCFF"/>
</linearGradient>
<linearGradient id="paint7_linear_3459_26682" x1="7.9999" y1="4.33984" x2="7.9999" y2="6.99318" gradientUnits="userSpaceOnUse">
<stop stop-color="#7F60F9"/>
<stop offset="1" stop-color="#6DDCFF"/>
</linearGradient>
</defs>
</svg>
