<svg width="41" height="41" viewBox="0 0 41 41" fill="none" xmlns="http://www.w3.org/2000/svg">
<g id="game-icons:skills">
<path id="Vector" d="M9.53672 2.00195V2.00996C7.53477 2.26621 5.76504 4.57246 5.76504 7.51934C5.76504 9.15293 6.33359 10.5943 7.16641 11.5953L7.9832 12.5723L6.72598 12.8045C5.62891 13.0127 4.82012 13.5973 4.14746 14.5262C3.4668 15.4471 2.9543 16.7283 2.59395 18.1938C1.9373 20.8844 1.80117 24.1756 1.78516 27.0424H5.30859L6.26152 39.7268H13.973L14.8139 27.0424H18.1691C18.1691 24.1436 18.1451 20.8123 17.5445 18.0977C17.2242 16.6162 16.7277 15.343 16.0471 14.4221C15.3584 13.5092 14.5096 12.9246 13.2844 12.7404L12.0031 12.5402L12.8119 11.5312C13.6127 10.5303 14.1492 9.11289 14.1492 7.51934C14.1492 4.38027 12.1633 2.00996 9.95312 2.00996C9.7209 2.00996 9.57676 2.00195 9.53672 2.00195ZM35.2338 2.64258C33.8564 2.64258 32.7514 3.74525 32.7514 5.125C32.7514 6.50475 33.8564 7.60742 35.2338 7.60742C36.6111 7.60742 37.7162 6.50475 37.7162 5.125C37.7162 3.74525 36.6111 2.64258 35.2338 2.64258ZM24.9037 4.4043V8.24805H16.6557V9.68945H24.9037V22.3418H20.4994V23.7832H24.9037V32.5918H16.6557V34.0332H24.9037V36.5957H31.374C31.334 36.3635 31.31 36.1232 31.31 35.875C31.31 35.6268 31.334 35.3865 31.374 35.1543H26.3451V23.7832H31.374C31.334 23.551 31.31 23.3107 31.31 23.0625C31.31 22.8143 31.334 22.574 31.374 22.3418H26.3451V5.8457H31.374C31.334 5.61188 31.31 5.37084 31.31 5.125C31.31 4.87916 31.334 4.63812 31.374 4.4043H24.9037ZM35.2338 20.5801C33.8564 20.5801 32.7514 21.6852 32.7514 23.0625C32.7514 24.4398 33.8564 25.5449 35.2338 25.5449C36.6111 25.5449 37.7162 24.4398 37.7162 23.0625C37.7162 21.6852 36.6111 20.5801 35.2338 20.5801ZM35.2338 33.3926C33.8564 33.3926 32.7514 34.4977 32.7514 35.875C32.7514 37.2523 33.8564 38.3574 35.2338 38.3574C36.6111 38.3574 37.7162 37.2523 37.7162 35.875C37.7162 34.4977 36.6111 33.3926 35.2338 33.3926Z" fill="white"/>
</g>
</svg>
