<svg width="40" height="40" viewBox="0 0 40 40" fill="none" xmlns="http://www.w3.org/2000/svg">
<circle cx="20" cy="20" r="19.5" fill="white" stroke="url(#paint0_linear_4414_10805)"/>
<path d="M27.7775 27.5H12.2225C11.96 27.5 11.75 27.71 11.75 27.9725V30.0275C11.75 30.29 11.96 30.5 12.2225 30.5H27.7775C28.04 30.5 28.25 30.29 28.25 30.0275V27.9725C28.25 27.71 28.04 27.5 27.7775 27.5Z" fill="#9B9B9B"/>
<path d="M14.1298 25.25H14.75V25.4675C14.75 25.76 14.99 26 15.284 26H24.7092C25.0092 26 25.25 25.76 25.25 25.4675V25.25H25.8702C26.36 25.25 26.75 24.9575 26.75 24.59V20.75H25.25V23.75H14.75V20.75H13.25V24.59C13.25 24.9575 13.64 25.25 14.1298 25.25ZM12.2225 26.75H27.7775C28.04 26.75 28.25 26.96 28.25 27.2225V29.2775C28.25 29.54 28.04 29.75 27.7775 29.75H12.2225C11.96 29.75 11.75 29.54 11.75 29.2775V27.2225C11.75 26.96 11.96 26.75 12.2225 26.75Z" fill="#BEBEBE"/>
<path d="M29.75 22.25H10.25C9.8375 22.25 9.5 21.9125 9.5 21.5V10.25C9.5 9.8375 9.8375 9.5 10.25 9.5H29.75C30.1625 9.5 30.5 9.8375 30.5 10.25V21.5C30.5 21.9125 30.1625 22.25 29.75 22.25Z" fill="#7167A4"/>
<path d="M10.25 21.3125V10.4375C10.25 10.3325 10.3325 10.25 10.4375 10.25H29.5625C29.6675 10.25 29.75 10.3325 29.75 10.4375V21.3125C29.75 21.4175 29.6675 21.5 29.5625 21.5H10.4375C10.3325 21.5 10.25 21.4175 10.25 21.3125Z" fill="#26C9FC"/>
<path d="M13.25 22.25H14.75V23H13.25V22.25ZM13.16 27.3125H12.59C12.545 27.3125 12.5 27.3575 12.5 27.41V27.9725C12.5 28.025 12.545 28.0625 12.59 28.0625H13.1525C13.205 28.0625 13.2425 28.0175 13.2425 27.9725V27.41C13.244 27.3981 13.2429 27.386 13.2395 27.3745C13.2361 27.363 13.2303 27.3524 13.2226 27.3432C13.2148 27.3341 13.2053 27.3266 13.1945 27.3213C13.1837 27.316 13.172 27.313 13.16 27.3125ZM14.45 27.3125H13.8875C13.835 27.3125 13.7975 27.3575 13.7975 27.4025V27.965C13.7975 28.0175 13.8425 28.055 13.8875 28.055H14.45C14.5025 28.055 14.54 28.01 14.54 27.965V27.4025C14.5475 27.3575 14.5025 27.3125 14.45 27.3125ZM15.185 27.3125H15.7475C15.8 27.3125 15.8375 27.3575 15.8375 27.4025V27.965C15.8375 28.01 15.8 28.055 15.7475 28.055H15.185C15.14 28.055 15.095 28.0175 15.095 27.965V27.4025C15.095 27.3575 15.1325 27.3125 15.185 27.3125ZM17.045 27.3125H16.4825C16.43 27.3125 16.3925 27.3575 16.3925 27.4025V27.965C16.3925 28.0175 16.4375 28.055 16.4825 28.055H17.045C17.0975 28.055 17.135 28.01 17.135 27.965V27.4025C17.135 27.3575 17.0975 27.3125 17.045 27.3125ZM17.7725 27.3125H18.335C18.3875 27.3125 18.4325 27.3575 18.425 27.4025V27.965C18.425 28.01 18.3875 28.055 18.335 28.055H17.7725C17.7275 28.055 17.6825 28.0175 17.6825 27.965V27.4025C17.6825 27.3575 17.72 27.3125 17.7725 27.3125ZM19.6325 27.3125H19.07C19.0175 27.3125 18.98 27.3575 18.98 27.4025V27.965C18.98 28.0175 19.025 28.055 19.07 28.055H19.6325C19.685 28.055 19.7225 28.01 19.7225 27.965V27.4025C19.73 27.3575 19.685 27.3125 19.6325 27.3125ZM20.3675 27.3125H20.93C20.9825 27.3125 21.02 27.3575 21.02 27.4025V27.965C21.02 28.01 20.9825 28.055 20.93 28.055H20.3675C20.3225 28.055 20.2775 28.0175 20.2775 27.965V27.4025C20.2775 27.3575 20.315 27.3125 20.3675 27.3125ZM22.2275 27.3125H21.665C21.6125 27.3125 21.575 27.3575 21.575 27.4025V27.965C21.575 28.0175 21.62 28.055 21.665 28.055H22.2275C22.28 28.055 22.3175 28.01 22.3175 27.965V27.4025C22.3175 27.3575 22.2725 27.3125 22.2275 27.3125ZM22.955 27.3125H23.5175C23.57 27.3125 23.615 27.3575 23.6075 27.4025V27.965C23.6075 28.01 23.57 28.055 23.5175 28.055H22.955C22.91 28.055 22.865 28.0175 22.865 27.965V27.4025C22.865 27.3575 22.9025 27.3125 22.955 27.3125ZM24.815 27.3125H24.2525C24.2 27.3125 24.1625 27.3575 24.1625 27.4025V27.965C24.1625 28.0175 24.2075 28.055 24.2525 28.055H24.815C24.8675 28.055 24.905 28.01 24.905 27.965V27.4025C24.9125 27.3575 24.8675 27.3125 24.815 27.3125ZM25.55 27.3125H26.1125C26.165 27.3125 26.2025 27.3575 26.2025 27.4025V27.965C26.2025 28.01 26.165 28.055 26.1125 28.055H25.55C25.505 28.055 25.46 28.0175 25.46 27.965V27.4025C25.46 27.3575 25.4975 27.3125 25.55 27.3125ZM27.41 27.3125H26.8475C26.795 27.3125 26.7575 27.3575 26.7575 27.4025V27.965C26.7575 28.0175 26.8025 28.055 26.8475 28.055H27.41C27.4625 28.055 27.5 28.01 27.5 27.965V27.4025C27.5 27.3575 27.455 27.3125 27.41 27.3125ZM12.59 28.4375H13.16C13.205 28.4375 13.25 28.4825 13.2425 28.535V29.0975C13.2425 29.1425 13.205 29.1875 13.1525 29.1875H12.59C12.545 29.1875 12.5 29.15 12.5 29.0975V28.535C12.5 28.4825 12.545 28.4375 12.59 28.4375ZM14.45 28.4375H13.8875C13.835 28.4375 13.7975 28.4825 13.7975 28.5275V29.09C13.7975 29.1425 13.8425 29.18 13.8875 29.18H14.45C14.5025 29.18 14.54 29.135 14.54 29.09V28.5275C14.5475 28.4825 14.5025 28.4375 14.45 28.4375ZM15.185 28.4375H15.7475C15.8 28.4375 15.8375 28.4825 15.8375 28.5275V29.09C15.8375 29.135 15.8 29.18 15.7475 29.18H15.185C15.14 29.18 15.095 29.1425 15.095 29.09V28.5275C15.095 28.4825 15.1325 28.4375 15.185 28.4375ZM17.045 28.4375H16.4825C16.43 28.4375 16.3925 28.4825 16.3925 28.5275V29.09C16.3925 29.1425 16.4375 29.18 16.4825 29.18H17.045C17.0975 29.18 17.135 29.135 17.135 29.09V28.5275C17.135 28.4825 17.0975 28.4375 17.045 28.4375ZM17.78 28.4375H22.205C22.2575 28.4375 22.295 28.4825 22.295 28.5275V29.09C22.295 29.135 22.2575 29.18 22.205 29.18H17.78C17.735 29.18 17.69 29.1425 17.69 29.09V28.5275C17.69 28.4825 17.7275 28.4375 17.78 28.4375ZM23.5175 28.4375H22.955C22.9025 28.4375 22.865 28.4825 22.865 28.5275V29.09C22.865 29.1425 22.91 29.18 22.955 29.18H23.5175C23.57 29.18 23.6075 29.135 23.6075 29.09V28.5275C23.615 28.4825 23.57 28.4375 23.5175 28.4375ZM24.2525 28.4375H24.815C24.8675 28.4375 24.9125 28.4825 24.905 28.5275V29.09C24.905 29.135 24.8675 29.18 24.815 29.18H24.2525C24.2075 29.18 24.1625 29.1425 24.1625 29.09V28.5275C24.1625 28.4825 24.2 28.4375 24.2525 28.4375ZM26.1125 28.4375H25.55C25.4975 28.4375 25.46 28.4825 25.46 28.5275V29.09C25.46 29.1425 25.505 29.18 25.55 29.18H26.1125C26.165 29.18 26.2025 29.135 26.2025 29.09V28.5275C26.2025 28.4825 26.165 28.4375 26.1125 28.4375ZM26.8475 28.4375H27.41C27.455 28.4375 27.5 28.4825 27.5 28.5275V29.09C27.5 29.135 27.4625 29.18 27.41 29.18H26.8475C26.8025 29.18 26.7575 29.1425 26.7575 29.09V28.5275C26.7575 28.4825 26.795 28.4375 26.8475 28.4375ZM26.75 22.25H25.25V23H26.75V22.25Z" fill="#9B9B9B"/>
<defs>
<linearGradient id="paint0_linear_4414_10805" x1="7" y1="4.5" x2="28.5" y2="40" gradientUnits="userSpaceOnUse">
<stop stop-color="#66CDED"/>
<stop offset="1" stop-color="#7F60F9"/>
</linearGradient>
</defs>
</svg>
