<svg xmlns="http://www.w3.org/2000/svg" width="60" height="61" viewBox="0 0 60 61" fill="none">
  <path d="M25.6939 41.95C25.7064 41.675 26.1589 41.565 26.2939 41.805C26.9289 42.93 28.0089 44.5825 29.2339 45.335C30.4589 46.085 32.4239 46.3 33.7139 46.355C33.9889 46.3675 34.0964 46.82 33.8564 46.955C32.7314 47.59 31.0814 48.67 30.3289 49.895C29.5764 51.12 29.3639 53.085 29.3089 54.375C29.2964 54.65 28.8414 54.7575 28.7089 54.5175C28.0739 53.3925 26.9939 51.7425 25.7664 50.99C24.5414 50.2375 22.5764 50.025 21.2889 49.97C21.0139 49.9575 20.9039 49.5025 21.1439 49.37C22.2689 48.735 23.9214 47.655 24.6739 46.4275C25.4239 45.2025 25.6389 43.2375 25.6939 41.95Z" fill="#6BDAFF"/>
  <path d="M46.2321 39.4502C46.2096 39.1752 45.7321 39.0602 45.5871 39.2952C45.1571 40.0027 44.5371 40.8527 43.8446 41.2777C43.1546 41.7027 42.1146 41.8677 41.2896 41.9327C41.0146 41.9527 40.8996 42.4327 41.1346 42.5752C41.8396 43.0052 42.6921 43.6252 43.1171 44.3177C43.5421 45.0077 43.7071 46.0502 43.7721 46.8752C43.7921 47.1502 44.2721 47.2627 44.4146 47.0277C44.8446 46.3227 45.4646 45.4702 46.1571 45.0477C46.8471 44.6227 47.8896 44.4552 48.7146 44.3927C48.9896 44.3702 49.1021 43.8927 48.8671 43.7477C48.1621 43.3177 47.3096 42.6977 46.8871 42.0052C46.4621 41.3152 46.2946 40.2752 46.2321 39.4502Z" fill="#6BDAFF"/>
  <path d="M36.7565 10.6676L36.1515 9.90258C33.809 6.94508 32.639 5.46508 31.2765 5.68258C29.9165 5.90258 29.264 7.67258 27.9615 11.2151L27.624 12.1301C27.254 13.1376 27.069 13.6401 26.714 14.0101C26.359 14.3801 25.874 14.5726 24.904 14.9601L24.0215 15.3126L23.404 15.5626C20.404 16.7626 18.894 17.4451 18.699 18.7701C18.494 20.1826 19.924 21.3926 22.784 23.8101L23.524 24.4351C24.339 25.1226 24.744 25.4676 24.9765 25.9351C25.2115 26.4026 25.244 26.9426 25.309 28.0226L25.369 29.0051C25.604 32.8051 25.719 34.7051 26.9565 35.3601C28.1915 36.0151 29.7265 34.9926 32.7965 32.9451L33.5915 32.4151C34.464 31.8326 34.899 31.5401 35.399 31.4626C35.899 31.3826 36.4015 31.5226 37.414 31.8026L38.3315 32.0576C41.889 33.0426 43.6665 33.5351 44.634 32.5276C45.604 31.5201 45.1215 29.6776 44.159 25.9951L43.909 25.0426C43.6365 23.9951 43.499 23.4726 43.574 22.9551C43.649 22.4376 43.929 21.9826 44.489 21.0751L44.9965 20.2501C46.959 17.0601 47.9415 15.4651 47.3065 14.1851C46.669 12.9101 44.8365 12.7926 41.1715 12.5651L40.2215 12.5051C39.1815 12.4401 38.6615 12.4076 38.209 12.1676C37.7565 11.9276 37.424 11.5076 36.759 10.6676H36.7565Z" fill="white"/>
  <path d="M22.0878 33.9778C16.7453 36.5878 12.2978 40.7228 10.6203 45.6628C8.74032 33.8953 11.3503 26.2953 15.5328 21.5703C15.8928 22.3078 16.3628 22.9178 16.7828 23.3953C17.6578 24.3853 18.9128 25.4453 20.1878 26.5228L21.1053 27.2978L21.5303 27.6603C21.5428 27.8203 21.5553 28.0103 21.5678 28.2528L21.6428 29.4653C21.7428 31.1028 21.8428 32.7003 22.0878 33.9778Z" fill="#6BDAFF"/>
</svg>