<svg xmlns="http://www.w3.org/2000/svg" width="60" height="61" viewBox="0 0 60 61" fill="none">
  <g clip-path="url(#clip0_2104_17539)">
    <path d="M39.375 0.662598C39.375 16.5063 47.9062 30.6626 60 30.6626C47.9062 30.6626 39.375 44.8188 39.375 60.6626C39.375 44.8188 30.8438 30.6626 18.75 30.6626C30.8438 30.6626 39.375 16.5063 39.375 0.662598Z" fill="white"/>
    <path d="M10.3125 0.662598C10.3125 8.5376 14.625 15.6626 20.625 15.6626C14.625 15.6626 10.3125 22.7876 10.3125 30.6626C10.3125 22.7876 6 15.6626 0 15.6626C6 15.6626 10.3125 8.5376 10.3125 0.662598Z" fill="#6BDAFF"/>
    <path d="M15 30.6626C15 38.5376 19.3125 45.6626 25.3125 45.6626C19.3125 45.6626 15 52.7876 15 60.6626C15 52.7876 10.6875 45.6626 4.6875 45.6626C10.6875 45.6626 15 38.5376 15 30.6626Z" fill="#6BDAFF"/>
  </g>
  <defs>
    <clipPath id="clip0_2104_17539">
      <rect width="60" height="60" fill="white" transform="matrix(-1 0 0 1 60 0.662598)"/>
    </clipPath>
  </defs>
</svg>