<svg xmlns="http://www.w3.org/2000/svg" width="60" height="61" viewBox="0 0 60 61" fill="none">
  <path d="M38.4744 13.6876L41.9994 20.7376C42.4744 21.7126 43.7494 22.6376 44.8244 22.8376L51.1994 23.8876C55.2744 24.5626 56.2244 27.5126 53.2994 30.4626L48.3244 35.4376C47.4994 36.2626 47.0244 37.8876 47.2994 39.0626L48.7244 45.2126C49.8494 50.0626 47.2494 51.9626 42.9744 49.4126L36.9994 45.8626C35.9244 45.2126 34.1244 45.2126 33.0494 45.8626L27.0744 49.4126C22.7994 51.9376 20.1994 50.0626 21.3244 45.2126L22.7494 39.0626C23.0244 37.9126 22.5494 36.2876 21.7244 35.4376L16.7494 30.4626C13.8244 27.5376 14.7744 24.5876 18.8494 23.8876L25.2244 22.8376C26.2994 22.6626 27.5744 21.7126 28.0494 20.7376L31.5744 13.6876C33.4494 9.8626 36.5494 9.8626 38.4744 13.6876Z" fill="white"/>
  <path d="M20 15.0376H5C3.975 15.0376 3.125 14.1876 3.125 13.1626C3.125 12.1376 3.975 11.2876 5 11.2876H20C21.025 11.2876 21.875 12.1376 21.875 13.1626C21.875 14.1876 21.025 15.0376 20 15.0376Z" fill="#6BDAFF"/>
  <path d="M12.5 50.0376H5C3.975 50.0376 3.125 49.1876 3.125 48.1626C3.125 47.1376 3.975 46.2876 5 46.2876H12.5C13.525 46.2876 14.375 47.1376 14.375 48.1626C14.375 49.1876 13.525 50.0376 12.5 50.0376Z" fill="#6BDAFF"/>
  <path d="M7.5 32.5376H5C3.975 32.5376 3.125 31.6876 3.125 30.6626C3.125 29.6376 3.975 28.7876 5 28.7876H7.5C8.525 28.7876 9.375 29.6376 9.375 30.6626C9.375 31.6876 8.525 32.5376 7.5 32.5376Z" fill="#6BDAFF"/>
</svg>