<svg width="293" height="30" viewBox="0 0 293 30" fill="none" xmlns="http://www.w3.org/2000/svg">
<path d="M0 0.0857143C0.378447 1.52135 1.13424 2.82941 2.18885 3.87398C3.24346 4.91855 4.55841 5.66153 5.99708 6.02571H15.3611L15.8408 6.21429V29.8543H21.6837V6.24857L22.2149 6.06H31.5875C33.0214 5.68602 34.3312 4.93975 35.3842 3.8967C36.4373 2.85364 37.1963 1.5508 37.5845 0.12V0.06H0V0.0857143ZM204.423 0.0514286H198.597V29.9229H225.276C226.54 29.4334 227.665 28.6415 228.552 27.6164C229.439 26.5914 230.061 25.3644 230.365 24.0429H204.406L204.423 0.0514286ZM159.591 5.93143C162.692 5.07429 165.297 2.65714 165.922 0.0342857L133.281 0.0857143V17.7H159.985V23.8971H139.029C137.432 24.3115 135.94 25.0606 134.654 26.095C133.368 27.1293 132.315 28.4253 131.567 29.8971H165.742V11.8371H139.046V5.93143H159.591ZM259.117 29.9057H264.908V17.8886H285.966V29.9057H291.749V11.8886L259.117 11.8543V29.9057ZM73.1215 6H95.3963C96.8556 5.64879 98.1904 4.90357 99.2555 3.84558C100.321 2.78758 101.075 1.4574 101.436 0L67.0816 0C67.4465 1.45571 68.202 2.78402 69.2664 3.84146C70.3309 4.8989 71.6639 5.64529 73.1215 6ZM73.1215 17.8029H95.3963C96.8547 17.4499 98.1887 16.7041 99.2534 15.6464C100.318 14.5887 101.073 13.2594 101.436 11.8029H67.0816C67.4482 13.2577 68.2043 14.5851 69.2685 15.6423C70.3327 16.6994 71.6647 17.4464 73.1215 17.8029ZM73.1215 29.9229H95.3963C96.8547 29.5699 98.1887 28.8241 99.2534 27.7664C100.318 26.7087 101.073 25.3794 101.436 23.9229H67.0816C67.4474 25.3782 68.2031 26.706 69.2675 27.7633C70.3318 28.8206 71.6643 29.5673 73.1215 29.9229ZM264.265 6.01714H286.54C288.001 5.66644 289.337 4.92154 290.403 3.86359C291.47 2.80564 292.226 1.47519 292.589 0.0171429H258.226C258.589 1.4737 259.344 2.80294 260.408 3.86066C261.473 4.91837 262.807 5.66417 264.265 6.01714Z" fill="#E82127"/>
</svg>
