<svg width="35" height="36" viewBox="0 0 35 36" fill="none" xmlns="http://www.w3.org/2000/svg">
<path d="M5 0.5C2.24219 0.5 0 2.74219 0 5.5V30.5C0 33.2578 2.24219 35.5 5 35.5H30C32.7578 35.5 35 33.2578 35 30.5V5.5C35 2.74219 32.7578 0.5 30 0.5H5ZM28.2109 7.0625L20.1016 16.3281L29.6406 28.9375H22.1719L16.3281 21.2891L9.63281 28.9375H5.92188L14.5938 19.0234L5.44531 7.0625H13.1016L18.3906 14.0547L24.5 7.0625H28.2109ZM25.2578 26.7188L11.9844 9.16406H9.77344L23.1953 26.7188H25.25H25.2578Z" fill="black"/>
</svg>
