<svg width="101" height="100" viewBox="0 0 101 100" fill="none" xmlns="http://www.w3.org/2000/svg">
<g clip-path="url(#clip0_721_3562)">
<path d="M100.5 76.4795H0.5V76.5295H100.5V76.4795Z" fill="#EBEBEB"/>
<path d="M47.903 67.5598H9.2832C8.6538 67.5598 8.1416 67.0476 8.1416 66.4182V12.1318C8.1416 11.5024 8.6538 10.9902 9.2832 10.9902H47.903C48.5322 10.9902 49.0444 11.5024 49.0444 12.1318V66.4182C49.0444 67.0476 48.5322 67.5598 47.903 67.5598ZM9.2832 11.0404C8.6812 11.0404 8.1916 11.53 8.1916 12.132V66.4184C8.1916 67.0204 8.6812 67.51 9.2832 67.51H47.903C48.5048 67.51 48.9944 67.0204 48.9944 66.4184V12.1318C48.9944 11.53 48.5048 11.0402 47.903 11.0402L9.2832 11.0404Z" fill="#EBEBEB"/>
<path d="M91.1619 67.5598H52.5423C51.9129 67.5598 51.4009 67.0476 51.4009 66.4182V12.1318C51.4009 11.5024 51.9131 10.9902 52.5423 10.9902H91.1619C91.7915 10.9902 92.3035 11.5024 92.3035 12.1318V66.4182C92.3037 67.0476 91.7915 67.5598 91.1619 67.5598ZM52.5423 11.0404C51.9405 11.0404 51.4509 11.53 51.4509 12.132V66.4184C51.4509 67.0204 51.9405 67.51 52.5423 67.51H91.1619C91.7639 67.51 92.2535 67.0204 92.2535 66.4184V12.1318C92.2535 11.53 91.7639 11.0402 91.1619 11.0402L52.5423 11.0404Z" fill="#EBEBEB"/>
<path d="M40.5871 78.3843H35.3877V78.4343H40.5871V78.3843Z" fill="#EBEBEB"/>
<path d="M21.8119 77.8413H10.9917V77.8913H21.8119V77.8413Z" fill="#EBEBEB"/>
<path d="M35.1872 80.2412H29.9238V80.2912H35.1872V80.2412Z" fill="#EBEBEB"/>
<path d="M59.9119 79.9053H52.1455V79.9553H59.9119V79.9053Z" fill="#EBEBEB"/>
<path d="M63.8312 79.9053H61.6924V79.9553H63.8312V79.9053Z" fill="#EBEBEB"/>
<path d="M90.4805 79.061H79.5693V79.111H90.4805V79.061Z" fill="#EBEBEB"/>
<path d="M45.5616 18.2505H15.8848V49.5669H45.5616V18.2505Z" fill="#E6E6E6"/>
<path d="M48.7415 17.2368H13.9635C13.8009 17.2368 13.6689 17.3688 13.6689 17.5314C13.6689 17.694 13.8009 17.826 13.9635 17.826H48.7417C48.9045 17.826 49.0363 17.694 49.0363 17.5314C49.0363 17.3688 48.9043 17.2368 48.7415 17.2368Z" fill="#E6E6E6"/>
<path d="M46.8207 18.2505H16.4731V49.5669H46.8207V18.2505Z" fill="#F0F0F0"/>
<path d="M45.5616 49.5664H15.8848V50.7364H45.5616V49.5664Z" fill="#E6E6E6"/>
<path d="M48.9184 49.5664H18.5708V50.7364H48.9184V49.5664Z" fill="#F0F0F0"/>
<path d="M45.0576 47.8036L45.0576 20.0132L18.2358 20.0132L18.2358 47.8036H45.0576Z" fill="#FAFAFA"/>
<path d="M24.3247 47.8038L34.6719 20.0132H39.5563L29.2091 47.8038H24.3247Z" fill="white"/>
<path d="M30.2583 47.8038L40.6055 20.0132H42.5099L32.1627 47.8038H30.2583Z" fill="white"/>
<path d="M45.0576 47.8036L45.0576 20.0132H44.8338L44.8338 47.8036H45.0576Z" fill="#E6E6E6"/>
<g opacity="0.6">
<path d="M17.5079 44.9961H13.7812L15.7898 16.7095H19.5163L17.5079 44.9961Z" fill="#F0F0F0"/>
<path d="M18.9594 44.9961H16.0562L18.0646 16.7095H20.9678L18.9594 44.9961Z" fill="#E6E6E6"/>
<path d="M21.2342 44.9961H17.5078L19.5162 16.7095H23.2426L21.2342 44.9961Z" fill="#F0F0F0"/>
<path d="M22.6859 44.9961H19.7827L21.7911 16.7095H24.6943L22.6859 44.9961Z" fill="#E6E6E6"/>
<path d="M24.9608 44.9961H21.2344L23.2428 16.7095H26.9694L24.9608 44.9961Z" fill="#F0F0F0"/>
</g>
<g opacity="0.6">
<path d="M46.2065 44.9959H48.3123L47.1773 16.7095H45.0713L46.2065 44.9959Z" fill="#F0F0F0"/>
<path d="M45.386 44.9959H47.0266L45.8916 16.7095H44.251L45.386 44.9959Z" fill="#E6E6E6"/>
<path d="M44.1003 44.9959H46.2063L45.0711 16.7095H42.9653L44.1003 44.9959Z" fill="#F0F0F0"/>
<path d="M43.28 44.9959H44.9208L43.7856 16.7095H42.145L43.28 44.9959Z" fill="#E6E6E6"/>
<path d="M41.9944 44.9959H44.1004L42.9654 16.7095H40.8594L41.9944 44.9959Z" fill="#F0F0F0"/>
</g>
<path d="M85.831 16.7095H65.3096V43.9937H85.831V16.7095Z" fill="#E6E6E6"/>
<path d="M87.39 16.7095H65.9502V43.9937H87.39V16.7095Z" fill="#F5F5F5"/>
<path d="M68.7304 17.8305L66.8208 41.4443L84.6099 42.8829L86.5195 19.2691L68.7304 17.8305Z" fill="white"/>
<path d="M86.0805 19.2333L84.1709 42.8472L84.609 42.8826L86.5186 19.2688L86.0805 19.2333Z" fill="#E6E6E6"/>
<path d="M88.5207 54.1851H77.0591V76.4795H88.5207V54.1851Z" fill="#F5F5F5"/>
<path d="M88.5209 54.1851H87.5757V76.4795H88.5209V54.1851Z" fill="#F0F0F0"/>
<path d="M51.5508 64.2544H77.9424V54.821H51.5508V64.2544Z" fill="#E6E6E6"/>
<path d="M52.8234 55.8574L88.521 55.8574V54.1852L52.8234 54.1852V55.8574Z" fill="#F0F0F0"/>
<path d="M52.8229 54.1851H41.3613V76.4795H52.8229V54.1851Z" fill="#F5F5F5"/>
<path d="M44.5859 76.4794H39.0181V64.0466C39.0181 62.5234 40.2529 61.2886 41.7761 61.2886H41.8279C43.3511 61.2886 44.5859 62.5234 44.5859 64.0466V76.4794Z" fill="#E6E6E6"/>
<path d="M52.8231 54.1851H51.8779V76.4795H52.8231V54.1851Z" fill="#F0F0F0"/>
<path d="M65.7243 54.1849H63.2515L63.8531 49.3721H66.3259L65.7243 54.1849Z" fill="#F0F0F0"/>
<path d="M66.2711 54.1849H63.7983L64.3999 49.3721H66.8727L66.2711 54.1849Z" fill="#F5F5F5"/>
<path d="M66.5719 51.7785H64.0991L64.3999 49.3721H66.8727L66.5719 51.7785Z" fill="#F0F0F0"/>
<path d="M57.4855 51.2025H74.9775C75.1233 51.2025 75.2363 51.0747 75.2181 50.9299L73.8701 40.1455C73.8549 40.0241 73.7517 39.9331 73.6295 39.9331H56.1375C55.9917 39.9331 55.8787 40.0609 55.8969 40.2057L57.2449 50.9901C57.2601 51.1115 57.3633 51.2025 57.4855 51.2025Z" fill="#F0F0F0"/>
<path d="M57.7453 51.2025H75.2373C75.3831 51.2025 75.4961 51.0747 75.4779 50.9299L74.1299 40.1455C74.1147 40.0241 74.0115 39.9331 73.8893 39.9331H56.3973C56.2515 39.9331 56.1385 40.0609 56.1567 40.2057L57.5047 50.9901C57.5197 51.1115 57.6229 51.2025 57.7453 51.2025Z" fill="#F5F5F5"/>
<path d="M74.9141 50.6067L73.6523 40.5125C73.6481 40.4785 73.6193 40.4531 73.5851 40.4531H56.7885C56.7477 40.4531 56.7161 40.4889 56.7213 40.5293L57.9831 50.6235C57.9873 50.6575 58.0161 50.6829 58.0503 50.6829H74.8467C74.8875 50.6829 74.9191 50.6473 74.9141 50.6067Z" fill="#E6E6E6"/>
<path d="M73.1214 50.6829L68.6816 40.4531H64.7886L69.2286 50.6829H73.1214Z" fill="#EBEBEB"/>
<path d="M68.479 50.6829L64.0392 40.4531H62.6362L67.0762 50.6829H68.479Z" fill="#EBEBEB"/>
<path d="M64.8951 53.7339H68.1207C68.3423 53.7339 68.5217 53.9135 68.5217 54.1351V54.1851H64.4941V54.1351C64.4941 53.9135 64.6737 53.7339 64.8951 53.7339Z" fill="#F5F5F5"/>
<path d="M62.6287 53.7339H64.5587C64.7803 53.7339 64.9597 53.9135 64.9597 54.1351V54.1851H62.2275V54.1351C62.2277 53.9135 62.4071 53.7339 62.6287 53.7339Z" fill="#F0F0F0"/>
<path d="M72.973 54.1854H60.5202L60.1836 53.186H71.3528L72.973 54.1854Z" fill="#F5F5F5"/>
<path d="M61.8903 54.1854H59.8331L59.5547 53.186H61.6119L61.8903 54.1854Z" fill="#F0F0F0"/>
<path d="M55.2185 53.3491H57.0907C57.5525 53.3491 57.9267 53.7233 57.9267 54.1851H54.3823C54.3825 53.7233 54.7569 53.3491 55.2185 53.3491Z" fill="#F0F0F0"/>
<path d="M18.3455 76.4795H21.8193L21.8193 60.3331H18.3455V76.4795Z" fill="#E0E0E0"/>
<path d="M33.7687 76.4795H19.7237L17.9873 57.3999H32.0321L33.7687 76.4795Z" fill="#E6E6E6"/>
<path d="M34.4964 76.4795H20.4514L18.7148 57.3999H32.7598L34.4964 76.4795Z" fill="#F0F0F0"/>
<path d="M22.3712 74.3673L21.019 59.5117H30.8396L32.1918 74.3673H22.3712Z" fill="white"/>
<path d="M50.5 85.5121C71.9164 85.5121 89.2778 84.4982 89.2778 83.2475C89.2778 81.9968 71.9164 80.9829 50.5 80.9829C29.0836 80.9829 11.7222 81.9968 11.7222 83.2475C11.7222 84.4982 29.0836 85.5121 50.5 85.5121Z" fill="#F5F5F5"/>
<path d="M20.3183 35.3992L20.1182 35.4058L20.2054 38.0708L20.4055 38.0643L20.3183 35.3992Z" fill="#0085FF"/>
<path d="M20.2426 33.1004L20.0425 33.1069L20.0839 34.3733L20.284 34.3668L20.2426 33.1004Z" fill="#0085FF"/>
<path d="M22.9401 52.3739H61.1125C61.9759 52.3739 62.6593 51.6675 62.6311 50.8041L61.7813 24.7573C61.7531 23.8939 61.0237 23.1875 60.1603 23.1875H21.9877C21.1243 23.1875 20.4409 23.8939 20.4691 24.7573L21.3189 50.8041C21.3471 51.6675 22.0767 52.3739 22.9401 52.3739Z" fill="#0085FF"/>
<path d="M23.0622 52.3739H61.2346C62.098 52.3739 62.7814 51.6675 62.7532 50.8041L61.9032 24.7573C61.875 23.8939 61.1456 23.1875 60.2822 23.1875H22.1098C21.2464 23.1875 20.563 23.8939 20.5912 24.7573L21.441 50.8041C21.4692 51.6675 22.1988 52.3739 23.0622 52.3739Z" fill="#0085FF"/>
<path opacity="0.5" d="M23.0622 52.3739H61.2346C62.098 52.3739 62.7814 51.6675 62.7532 50.8041L61.9032 24.7573C61.875 23.8939 61.1456 23.1875 60.2822 23.1875H22.1098C21.2464 23.1875 20.563 23.8939 20.5912 24.7573L21.441 50.8041C21.4692 51.6675 22.1988 52.3739 23.0622 52.3739Z" fill="white"/>
<path opacity="0.5" d="M60.1851 23.9722H22.0127C21.9695 23.9722 21.9269 23.974 21.8847 23.9774C20.9057 24.0578 21.0467 25.542 22.0315 25.542H60.2691C61.2539 25.542 61.2979 24.0578 60.3137 23.9774C60.2711 23.974 60.2283 23.9722 60.1851 23.9722Z" fill="#0085FF"/>
<path d="M22.9763 24.7573C22.9827 24.9561 22.8269 25.1171 22.6281 25.1171C22.4293 25.1171 22.2629 24.9559 22.2565 24.7573C22.2501 24.5585 22.4059 24.3975 22.6047 24.3975C22.8035 24.3975 22.9699 24.5587 22.9763 24.7573Z" fill="#FFC107"/>
<path d="M24.2005 24.7573C24.2071 24.9561 24.0511 25.1171 23.8523 25.1171C23.6535 25.1171 23.4871 24.9559 23.4807 24.7573C23.4743 24.5587 23.6301 24.3975 23.8289 24.3975C24.0277 24.3975 24.1941 24.5587 24.2005 24.7573Z" fill="#E75F51"/>
<path d="M25.4246 24.7573C25.431 24.9561 25.2752 25.1171 25.0764 25.1171C24.8776 25.1171 24.7112 24.9559 24.7048 24.7573C24.6984 24.5585 24.8542 24.3975 25.053 24.3975C25.2516 24.3975 25.418 24.5587 25.4246 24.7573Z" fill="#66CDED"/>
<path d="M23.8022 49.774H60.325C60.6394 49.774 60.8858 49.5192 60.8756 49.205L60.1766 27.7848C60.1664 27.4704 59.9032 27.2158 59.589 27.2158H23.066C22.7518 27.2158 22.5052 27.4706 22.5154 27.7848L23.2144 49.205C23.2248 49.5192 23.4878 49.774 23.8022 49.774Z" fill="white"/>
<g opacity="0.3">
<path d="M50.6051 47.1234H49.9385V46.9338H50.4095L50.3943 46.4632L50.5837 46.457L50.6051 47.1234Z" fill="#0085FF"/>
<path d="M48.8767 47.1232H47.8147V46.9336H48.8767V47.1232ZM46.7529 47.1232H45.6907V46.9336H46.7529V47.1232ZM44.6289 47.1232H43.5669V46.9336H44.6289V47.1232ZM42.5049 47.1232H41.4429V46.9336H42.5049V47.1232ZM40.3811 47.1232H39.3189V46.9336H40.3811V47.1232ZM38.2571 47.1232H37.1951V46.9336H38.2571V47.1232ZM36.1333 47.1232H35.0713V46.9336H36.1333V47.1232Z" fill="#0085FF"/>
<path d="M34.0093 47.1234H33.3485L33.3271 46.4632L33.5165 46.457L33.5321 46.9338H34.0093V47.1234Z" fill="#0085FF"/>
<path d="M33.2927 45.4011L33.2581 44.3391L33.4475 44.3329L33.4821 45.3949L33.2927 45.4011ZM33.2233 43.2771L33.1887 42.2151L33.3781 42.2089L33.4127 43.2709L33.2233 43.2771ZM33.1541 41.1531L33.1195 40.0911L33.3089 40.0849L33.3435 41.1469L33.1541 41.1531ZM33.0849 39.0291L33.0501 37.9671L33.2395 37.9609L33.2743 39.0229L33.0849 39.0291ZM33.0155 36.9051L32.9807 35.8431L33.1701 35.8369L33.2049 36.8989L33.0155 36.9051ZM32.9461 34.7811L32.9115 33.7191L33.1009 33.7129L33.1355 34.7749L32.9461 34.7811ZM32.8769 32.6571L32.8423 31.5951L33.0317 31.5889L33.0663 32.6509L32.8769 32.6571Z" fill="#0085FF"/>
<path d="M32.8074 30.5331L32.7856 29.8667H33.4524V30.0563H32.9816L32.9968 30.5271L32.8074 30.5331Z" fill="#0085FF"/>
<path d="M48.32 30.0563H47.258V29.8667H48.32V30.0563ZM46.1962 30.0563H45.1342V29.8667H46.1962V30.0563ZM44.0722 30.0563H43.01V29.8667H44.0722V30.0563ZM41.9482 30.0563H40.8862V29.8667H41.9482V30.0563ZM39.8244 30.0563H38.7624V29.8667H39.8244V30.0563ZM37.7006 30.0563H36.6384V29.8667H37.7006V30.0563ZM35.5766 30.0563H34.5146V29.8667H35.5766V30.0563Z" fill="#0085FF"/>
<path d="M49.8746 30.5331L49.859 30.0563H49.3818V29.8667H50.0426L50.064 30.5271L49.8746 30.5331Z" fill="#0085FF"/>
<path d="M50.3596 45.4011L50.325 44.3391L50.5144 44.3329L50.549 45.3949L50.3596 45.4011ZM50.2902 43.2771L50.2556 42.2151L50.445 42.2089L50.4796 43.2709L50.2902 43.2771ZM50.221 41.1531L50.1862 40.0911L50.3756 40.0849L50.4104 41.1469L50.221 41.1531ZM50.1518 39.0291L50.117 37.9671L50.3064 37.9609L50.3412 39.0229L50.1518 39.0291ZM50.0824 36.9051L50.0478 35.8431L50.2372 35.8369L50.2718 36.8989L50.0824 36.9051ZM50.013 34.7811L49.9784 33.7191L50.1678 33.7129L50.2024 34.7749L50.013 34.7811ZM49.9438 32.6571L49.9092 31.5951L50.0986 31.5889L50.1332 32.6509L49.9438 32.6571Z" fill="#0085FF"/>
</g>
<path d="M45.4644 41.2031H38.4822C37.1478 41.2031 36.027 40.1177 35.9832 38.7833C35.9436 37.5627 36.8194 36.5357 38.0054 36.3717C38.3092 35.1949 39.3814 34.3579 40.6194 34.3579C41.621 34.3579 42.5402 34.8815 43.064 35.7371C43.2824 35.6699 43.5098 35.6361 43.7424 35.6361C44.9692 35.6361 46.0154 36.5949 46.1422 37.8023C46.76 38.0963 47.1798 38.7233 47.2022 39.4069C47.2178 39.8863 47.0454 40.3373 46.7166 40.6769C46.388 41.0163 45.9434 41.2031 45.4644 41.2031ZM40.6196 34.8243C39.546 34.8243 38.6232 35.5837 38.4254 36.6301L38.3918 36.8077L38.2114 36.8193C37.19 36.8851 36.416 37.7411 36.4492 38.7683C36.4848 39.8539 37.3966 40.7371 38.4822 40.7371H45.4644C45.816 40.7371 46.1416 40.6007 46.3814 40.3529C46.6216 40.1049 46.7476 39.7743 46.736 39.4223C46.718 38.8745 46.357 38.3749 45.8378 38.1793L45.6934 38.1249L45.687 37.9707C45.6448 36.9405 44.7724 36.1025 43.7422 36.1025C43.5006 36.1025 43.2662 36.1483 43.046 36.2385L42.8494 36.3191L42.7512 36.1307C42.331 35.3247 41.5142 34.8243 40.6196 34.8243Z" fill="#0085FF"/>
<path d="M43.4525 38.9363L41.5267 37.0713L39.7227 38.9363H40.7783L40.8413 40.8645H42.4597L42.3969 38.9363H43.4525Z" fill="#0085FF"/>
<path d="M73.8891 31.3608C74.0741 31.6258 74.2217 31.85 74.3745 32.0984C74.5267 32.3408 74.6701 32.5868 74.8095 32.8356C75.0897 33.3322 75.3501 33.8404 75.5889 34.3642C75.8265 34.8878 76.0513 35.422 76.2369 35.9804C76.4313 36.5324 76.5895 37.1126 76.7077 37.7108L76.7851 38.167L76.7945 38.224L76.8053 38.297C76.8131 38.3668 76.8221 38.427 76.8249 38.505C76.8277 38.582 76.8311 38.652 76.8253 38.7406L76.8161 38.867L76.7949 39.0062C76.7815 39.0946 76.7499 39.2024 76.7191 39.2978C76.6793 39.4018 76.6387 39.5016 76.5783 39.602C76.4659 39.8022 76.3021 39.9804 76.1369 40.1068C75.7941 40.368 75.4851 40.4428 75.2351 40.4902C74.9819 40.5328 74.7757 40.5318 74.5827 40.523C74.3913 40.5124 74.2169 40.4916 74.0517 40.4602C73.7227 40.3984 73.4241 40.3166 73.1373 40.2256C72.5661 40.0384 72.0393 39.8148 71.5293 39.566C71.0175 39.3156 70.5337 39.0514 70.0469 38.7386L70.6219 37.4622C71.6327 37.7106 72.6771 37.9832 73.6385 38.1146C73.8769 38.1488 74.1091 38.1698 74.3163 38.172C74.5161 38.176 74.7135 38.1544 74.7459 38.1242C74.7581 38.1148 74.7129 38.1006 74.5799 38.1888C74.5199 38.2314 74.4471 38.306 74.3981 38.3868C74.3745 38.4304 74.3535 38.4646 74.3405 38.5068C74.3249 38.5366 74.3177 38.5806 74.3103 38.6014L74.2983 38.6658C74.2979 38.6868 74.2937 38.6896 74.2937 38.6992C74.2945 38.7096 74.2889 38.7034 74.2891 38.7064C74.2903 38.713 74.2851 38.6932 74.2813 38.6798L74.2699 38.6378L74.1797 38.3016C73.9121 37.4004 73.5175 36.481 73.0565 35.5834C72.8309 35.1324 72.5831 34.6868 72.3307 34.2442C72.2051 34.0226 72.0735 33.8038 71.9437 33.5858C71.8153 33.3734 71.6747 33.141 71.5579 32.958L73.8891 31.3608Z" fill="#FFB573"/>
<path d="M70.857 37.5624L69.99 36.6978L69.127 38.6206C69.127 38.6206 69.943 39.0734 70.6708 38.7432L70.857 37.5624Z" fill="#FFB573"/>
<path d="M68.7072 36.0088L68.0684 37.6316L69.127 38.6204L69.99 36.6974L68.7072 36.0088Z" fill="#FFB573"/>
<path d="M71.6331 32.0039L54.9819 29.0703L52.0484 45.7215L68.6996 48.6551L71.6331 32.0039Z" fill="#0085FF"/>
<path opacity="0.6" d="M71.6331 32.0039L54.9819 29.0703L52.0484 45.7215L68.6996 48.6551L71.6331 32.0039Z" fill="white"/>
<path d="M70.6802 32.6715L55.6494 30.0234L53.0013 45.0542L68.0321 47.7023L70.6802 32.6715Z" fill="white"/>
<path opacity="0.3" d="M62.726 37.7027C64.0005 36.8101 64.31 35.0532 63.4173 33.7787C62.5247 32.5041 60.7678 32.1946 59.4933 33.0873C58.2187 33.98 57.9092 35.7368 58.8019 37.0113C59.6946 38.2859 61.4514 38.5954 62.726 37.7027Z" fill="#0085FF"/>
<path opacity="0.2" d="M64.6327 39.4961L59.5947 43.0231L57.2777 39.7153L53.4763 42.3781L53.0049 45.0549L68.0343 47.7025L68.5059 45.0257L64.6327 39.4961Z" fill="#0085FF"/>
<path d="M65.4586 25.3031C65.4614 25.4361 65.3932 25.5455 65.3062 25.5473C65.2192 25.5491 65.1464 25.4427 65.1436 25.3097C65.1408 25.1767 65.209 25.0673 65.296 25.0655C65.383 25.0637 65.4558 25.1701 65.4586 25.3031Z" fill="#323C45"/>
<path d="M65.4057 25.5454C65.4057 25.5454 65.1191 26.3194 64.7939 26.6966C65.0339 26.9114 65.4321 26.8026 65.4321 26.8026L65.4057 25.5454Z" fill="#FF5652"/>
<path d="M65.9268 24.5548C65.9072 24.5582 65.8864 24.5544 65.8688 24.5422C65.5848 24.3464 65.322 24.4472 65.311 24.452C65.2714 24.468 65.2256 24.4486 65.2094 24.4088C65.1932 24.3688 65.2122 24.3236 65.252 24.3074C65.266 24.3016 65.6014 24.1684 65.9574 24.4136C65.993 24.4382 66.002 24.4868 65.9774 24.5224C65.9652 24.5402 65.9466 24.5514 65.9268 24.5548Z" fill="#323C45"/>
<path d="M69.3136 25.8105C69.2292 27.0377 69.3258 29.5169 70.2642 30.2107C70.2642 30.2107 70.0342 31.2115 67.8088 31.4911C65.3616 31.7985 66.4866 30.4233 66.4866 30.4233C67.7822 29.9365 67.6232 28.9499 67.2736 28.0485L69.3136 25.8105Z" fill="#FFB573"/>
<path d="M75.3789 78.9147C75.3735 78.9129 75.3683 78.9107 75.3633 78.9083C75.3237 78.8893 75.2771 78.8453 75.2799 78.7427C75.2815 78.6887 75.3043 78.6425 75.3477 78.6057C75.5361 78.4455 76.0841 78.5159 76.1073 78.5189C76.1229 78.5213 76.1353 78.5317 76.1397 78.5465C76.1441 78.5613 76.1393 78.5773 76.1277 78.5873C75.9997 78.6971 75.5759 78.9829 75.3789 78.9147ZM76.0031 78.5867C75.8177 78.5719 75.5103 78.5699 75.3983 78.6651C75.3721 78.6873 75.3589 78.7135 75.3579 78.7449C75.3557 78.8181 75.3865 78.8329 75.3967 78.8377C75.5027 78.8887 75.8027 78.7359 76.0031 78.5867Z" fill="#0085FF"/>
<path d="M75.8256 78.5361C75.6334 78.4697 75.43 78.3571 75.3958 78.2409C75.3862 78.2083 75.3818 78.1459 75.4598 78.0929C75.5102 78.0587 75.5678 78.0483 75.6308 78.0619C75.872 78.1129 76.1248 78.5199 76.1354 78.5371C76.143 78.5493 76.143 78.5647 76.136 78.5771C76.1288 78.5895 76.1154 78.5971 76.1012 78.5967C76.0326 78.5949 75.9308 78.5725 75.8256 78.5361ZM75.6414 78.1457C75.6324 78.1425 75.6234 78.1401 75.6144 78.1381C75.5724 78.1291 75.5362 78.1355 75.5036 78.1575C75.4612 78.1861 75.468 78.2089 75.4708 78.2187C75.502 78.3249 75.8138 78.4721 76.0234 78.5097C75.9476 78.4013 75.7894 78.1969 75.6414 78.1457Z" fill="#0085FF"/>
<path d="M63.2333 81.6477C63.0217 81.6477 62.8171 81.6185 62.7487 81.5233C62.7247 81.4899 62.7057 81.4333 62.7519 81.3525C62.7777 81.3073 62.8195 81.2765 62.8759 81.2611C63.1507 81.1863 63.7271 81.5149 63.7515 81.5291C63.7657 81.5373 63.7731 81.5533 63.7705 81.5693C63.7679 81.5853 63.7555 81.5981 63.7395 81.6013C63.6343 81.6223 63.4307 81.6477 63.2333 81.6477ZM62.9717 81.3275C62.9443 81.3275 62.9189 81.3303 62.8961 81.3365C62.8601 81.3463 62.8349 81.3641 62.8195 81.3913C62.7919 81.4397 62.8019 81.4637 62.8119 81.4777C62.8887 81.5841 63.3059 81.5865 63.6127 81.5433C63.4597 81.4649 63.1645 81.3275 62.9717 81.3275Z" fill="#0085FF"/>
<path d="M63.7321 81.6023C63.7267 81.6023 63.7211 81.6013 63.7161 81.5989C63.5169 81.5095 63.1225 81.1527 63.1525 80.9661C63.1597 80.9223 63.1907 80.8679 63.2981 80.8569C63.3777 80.8495 63.4509 80.8715 63.5149 80.9241C63.7247 81.0963 63.7693 81.5409 63.7709 81.5597C63.7723 81.5737 63.7661 81.5871 63.7547 81.5953C63.7481 81.5999 63.7401 81.6023 63.7321 81.6023ZM63.3295 80.9335C63.3219 80.9335 63.3139 80.9339 63.3061 80.9349C63.2359 80.9421 63.2313 80.9697 63.2299 80.9787C63.2117 81.0907 63.4799 81.3711 63.6831 81.4931C63.6619 81.3633 63.6031 81.0973 63.4653 80.9843C63.4237 80.9503 63.3791 80.9335 63.3295 80.9335Z" fill="#0085FF"/>
<path d="M65.5463 81.5629H63.8963L63.7319 77.7417H65.3819L65.5463 81.5629Z" fill="#FFB573"/>
<path d="M77.8838 78.0784L76.3538 78.499L74.395 74.9162L75.925 74.4956L77.8838 78.0784Z" fill="#FFB573"/>
<path d="M76.1249 78.3312L77.7753 77.487C77.8353 77.4562 77.9087 77.4714 77.9517 77.5234L78.9099 78.6806C79.0093 78.8006 78.9683 78.9832 78.8285 79.0518C78.2473 79.3366 77.9501 79.446 77.2243 79.8174C76.7777 80.0458 75.4499 81.0334 74.7797 81.208C74.1243 81.3788 73.8493 80.7428 74.1081 80.6112C75.2683 80.0214 75.7371 79.0546 75.9329 78.5436C75.9681 78.4514 76.0371 78.376 76.1249 78.3312Z" fill="#323C45"/>
<path d="M63.9072 81.3721H65.7092C65.7766 81.3721 65.835 81.4189 65.8498 81.4849L66.1758 82.9515C66.2096 83.1035 66.0942 83.2477 65.9384 83.2449C65.2884 83.2339 64.3492 83.1957 63.5322 83.1957C62.577 83.1957 61.7518 83.2477 60.6316 83.2477C59.9542 83.2477 59.7662 82.5629 60.0498 82.5009C61.3406 82.2185 62.3946 82.1883 63.51 81.5005C63.631 81.4259 63.7648 81.3721 63.9072 81.3721Z" fill="#323C45"/>
<path d="M70.9971 33.2657C71.1691 33.7091 71.3585 34.1413 71.5495 34.5465C71.8785 35.2475 72.2061 35.8599 72.4445 36.2831C72.6569 36.6641 72.7957 36.8897 72.7957 36.8897L76.3999 35.1021C76.3999 35.1021 74.9477 30.9275 73.4317 30.4631C71.8781 29.9911 70.2189 31.2755 70.9971 33.2657Z" fill="#323C45"/>
<path opacity="0.2" d="M72.5939 33.6782C72.2799 33.909 72.0559 34.5302 71.8965 35.2598C72.1021 35.6616 72.2913 36.0102 72.4437 36.2826C72.6561 36.6638 72.7947 36.8898 72.7947 36.8898L73.2081 36.6844C73.1803 35.7192 73.0257 34.6318 72.5939 33.6782Z" fill="black"/>
<path d="M63.3755 35.9278C63.3755 36.4892 63.3889 37.107 63.4205 37.7876C63.5013 39.6384 63.7035 41.945 64.0899 44.811H72.9147C72.9753 43.4566 72.1241 36.8464 73.4313 30.4632C73.4313 30.4632 71.9175 30.16 70.4755 30.0904C69.3479 30.0364 67.7151 30.0006 66.7245 30.0904C65.4173 30.2116 64.1865 30.5486 64.1865 30.5486C64.1865 30.5486 63.3733 31.4672 63.3755 35.9278Z" fill="#323C45"/>
<path d="M65.6457 33.3077C65.4891 33.6361 65.3549 33.8687 65.2069 34.1089C65.0613 34.3449 64.9149 34.5715 64.7615 34.7913C64.4583 35.2331 64.1395 35.6559 63.8059 36.0691C63.1371 36.8937 62.4153 37.6797 61.5791 38.4051C61.1625 38.7697 60.7097 39.1129 60.1985 39.4263L60.0017 39.5411L59.9503 39.5703L59.8779 39.6065L59.7323 39.6765C59.5369 39.7609 59.3391 39.8271 59.1443 39.8661C58.7547 39.9465 58.3881 39.9515 58.0511 39.9217C57.3763 39.8505 56.8117 39.6437 56.2941 39.3961C56.0371 39.2677 55.7917 39.1311 55.5591 38.9767C55.3207 38.8229 55.1129 38.6651 54.8779 38.4661L55.5865 37.2587C56.4513 37.4853 57.4287 37.6893 58.0997 37.5935C58.2635 37.5735 58.4011 37.5327 58.4959 37.4829C58.5433 37.4571 58.5805 37.4335 58.6107 37.4089C58.6171 37.4019 58.6239 37.3955 58.6307 37.3895L58.6411 37.3811L58.6697 37.3607L58.7911 37.2753C59.1167 37.0357 59.4427 36.7425 59.7635 36.4283C60.4023 35.7941 61.0093 35.0693 61.5817 34.3203C61.8677 33.9453 62.1449 33.5611 62.4097 33.1767C62.5407 32.9837 62.6701 32.7915 62.7901 32.6023C62.9069 32.4171 63.0293 32.2181 63.0927 32.0957L65.6457 33.3077Z" fill="#FFB573"/>
<path d="M55.9439 37.436L54.4221 36.7144L54.2847 38.7554C54.2847 38.7554 55.4675 38.9602 56.0937 38.4982L55.9439 37.436Z" fill="#FFB573"/>
<path d="M52.5034 37.0618L53.0898 38.6176L54.2844 38.7558L54.4218 36.7148L52.5034 37.0618Z" fill="#FFB573"/>
<path d="M66.7362 32.2267C66.6842 33.8033 63.4368 37.4363 63.4368 37.4363L60.0054 35.1953C60.0054 35.1953 61.0934 33.1601 62.506 31.6871C64.637 29.4653 66.7986 30.3343 66.7362 32.2267Z" fill="#323C45"/>
<path opacity="0.2" d="M63.7324 77.7432L63.8168 79.7128H65.4676L65.3832 77.7432H63.7324Z" fill="black"/>
<path opacity="0.2" d="M75.9261 74.4971L74.3955 74.9177L75.4061 76.7643L76.9365 76.3435L75.9261 74.4971Z" fill="black"/>
<path d="M69.891 24.9282C69.8248 26.5644 69.8693 27.5254 69.0615 28.3814C67.8463 29.669 65.8134 28.9628 65.3896 27.3396C65.008 25.8786 65.1805 23.4482 66.7665 22.7646C68.3289 22.091 69.9572 23.2918 69.891 24.9282Z" fill="#FFB573"/>
<path d="M66.6335 25.7082C66.0447 25.2892 65.4669 24.4224 65.5113 23.778C64.9669 23.7558 64.6001 22.8558 64.9001 22.2002C65.0889 22.6224 65.7387 22.3114 65.9915 21.978C65.8555 21.6558 65.8777 21.1224 66.8111 20.7446C66.7333 21.0168 66.7741 21.4738 67.7111 21.1446C68.8499 20.7446 70.8509 21.0112 70.2643 22.3668C71.0667 22.5112 72.1057 24.1656 71.2221 25.0368C70.3387 25.908 70.1555 27.3114 69.3999 27.4558C68.6443 27.6002 66.6779 27.6494 66.6335 25.7082Z" fill="#323C45"/>
<path d="M69.7324 22.3128C70.2574 22.0726 71.1038 22.1756 71.5598 22.8264C70.9388 22.5724 70.5836 22.4072 69.7324 22.3128Z" fill="#323C45"/>
<path d="M67.0648 25.6383C67.0524 26.0219 66.8846 26.3871 66.6772 26.6287C66.3652 26.9921 66.0234 26.7807 65.9546 26.3505C65.8926 25.9633 65.98 25.3077 66.368 25.1015C66.7502 24.8981 67.0788 25.1997 67.0648 25.6383Z" fill="#FFB573"/>
<path d="M67.2199 44.8112C67.2199 44.8112 66.4413 57.297 67.9171 61.9008C70.2547 69.1932 74.4213 76.642 74.4213 76.642L77.4015 75.7458C77.4015 75.7458 74.1243 67.8826 73.0463 61.7398C72.0781 56.2214 72.9145 49.3184 72.9145 44.811C70.8589 44.8112 67.2199 44.8112 67.2199 44.8112Z" fill="#0085FF"/>
<path opacity="0.2" d="M67.0933 47.5931C67.9261 47.3497 68.5753 47.4415 68.7439 48.1825C69.1837 50.1171 67.8641 55.2187 67.2063 57.5527C66.9395 54.2087 67.0015 50.2091 67.0933 47.5931Z" fill="black"/>
<path d="M73.5797 75.7878C73.5673 75.7916 74.3573 76.7104 74.3573 76.7104L77.6135 75.7312L77.1997 74.6294L73.5797 75.7878Z" fill="#323C45"/>
<path d="M64.0887 44.811C64.0887 44.811 61.6033 55.3452 61.4283 60.3772C61.2321 66.0204 63.2015 79.3312 63.2015 79.3312H65.9967C65.9967 79.3312 66.3409 65.9168 66.4651 60.7766C66.6007 55.173 69.8899 44.811 69.8899 44.811H64.0887Z" fill="#0085FF"/>
<path d="M62.6638 78.2178C62.6508 78.2178 62.8214 79.3782 62.8214 79.3782H66.2216L66.3136 78.3426L62.6638 78.2178Z" fill="#323C45"/>
<path d="M65.3246 29.7035C65.7028 29.5725 68.586 29.2061 70.6784 29.3177C71.8728 29.3815 72.5464 29.5117 73.0344 29.7477C73.5224 29.9839 72.6478 31.1729 72.2444 31.3181C72.4078 31.7741 71.4978 32.3559 70.9788 32.6319C70.771 33.0609 68.7266 33.4567 67.5254 32.5357C66.603 31.8289 64.2452 30.0775 65.3246 29.7035Z" fill="#0085FF"/>
</g>
<defs>
<clipPath id="clip0_721_3562">
<rect width="100" height="100" fill="white" transform="translate(0.5)"/>
</clipPath>
</defs>
</svg>
