<svg width="20" height="20" viewBox="0 0 20 20" fill="none" xmlns="http://www.w3.org/2000/svg">
<path d="M19.7027 12.4135C18.3684 17.7674 12.9458 21.0366 7.58209 19.7014C2.2282 18.363 -1.03581 12.9404 0.29857 7.5865C1.63295 2.23263 7.05226 -1.03663 12.4029 0.298561C17.7699 1.61739 21.0339 7.05635 19.7027 12.4135Z" fill="#2775CA"/>
<path d="M4.52483 8.51487C3.43262 11.3881 4.93906 14.6343 7.87656 15.679C7.98954 15.7537 8.10252 15.9029 8.10252 16.0149V16.5373C8.10252 16.6119 8.10252 16.6493 8.06483 16.6865C8.02723 16.8358 7.87656 16.9104 7.72589 16.8358C5.61695 16.1641 3.99752 14.5596 3.31964 12.4701C2.18983 8.92537 4.1482 5.15666 7.72589 4.03725C7.76358 4 7.83887 4 7.87656 4C8.02723 4.03725 8.10252 4.14919 8.10252 4.29848V4.82084C8.10252 5.00746 8.02723 5.1194 7.87656 5.194C6.33252 5.7537 5.08973 6.9477 4.52483 8.51487Z" fill="white"/>
<path d="M11.5296 4.18654C11.5672 4.03725 11.7179 3.96266 11.8686 4.03725C13.9398 4.7089 15.5969 6.3134 16.2748 8.44027C17.4046 11.985 15.4463 15.7537 11.8686 16.8731C11.8309 16.9104 11.7556 16.9104 11.7179 16.9104C11.5672 16.8731 11.4919 16.7612 11.4919 16.6119V16.0896C11.4919 15.9029 11.5672 15.791 11.7179 15.7164C13.2619 15.1567 14.5047 13.9627 15.0696 12.3955C16.1618 9.52233 14.6554 6.27606 11.7179 5.23134C11.6049 5.15666 11.4919 5.00746 11.4919 4.85818V4.33582C11.4919 4.26113 11.4919 4.22388 11.5296 4.18654Z" fill="white"/>
<path d="M9.91019 9.82092C11.4919 10.0075 12.2828 10.4552 12.2828 11.7612C12.2828 12.7686 11.5296 13.5522 10.3998 13.7388V14.6344C10.3621 14.8209 10.2491 14.9328 10.0985 14.9328H9.53355C9.34528 14.8955 9.2323 14.7835 9.2323 14.6344V13.7388C7.98951 13.5522 7.38692 12.8806 7.23634 11.9478V11.9104C7.23634 11.7612 7.34932 11.6492 7.4999 11.6492H8.14018C8.25316 11.6492 8.36615 11.7239 8.40375 11.8731C8.51673 12.4328 8.85567 12.8433 9.8349 12.8433C10.5504 12.8433 11.0777 12.4329 11.0777 11.8358C11.0777 11.2388 10.7387 11.0149 9.68422 10.8284C8.10249 10.6418 7.34932 10.1567 7.34932 8.9254C7.34932 7.99253 8.0648 7.24629 9.19461 7.09701V6.23883C9.2323 6.0522 9.34528 5.94026 9.49595 5.94026H10.0609C10.2491 5.97761 10.3621 6.08955 10.3621 6.23883V7.13435C11.2283 7.20895 11.9061 7.84325 12.0568 8.66417V8.70152C12.0568 8.85071 11.9438 8.96265 11.7932 8.96265H11.1907C11.0777 8.96265 10.9647 8.88805 10.927 8.77611C10.7387 8.21641 10.3621 7.99253 9.68422 7.99253C8.93105 7.99253 8.55442 8.32826 8.55442 8.85071C8.55442 9.37316 8.78038 9.67164 9.91019 9.82092Z" fill="white"/>
</svg>
