<svg width="20" height="20" viewBox="0 0 20 20" fill="none" xmlns="http://www.w3.org/2000/svg">
<path d="M12.3993 0.312925L12.3993 0.312938C17.7583 1.62981 21.0175 7.06069 19.6884 12.4099C18.356 17.7559 12.9414 21.0203 7.58566 19.6871C2.23969 18.3506 -1.01947 12.936 0.312936 7.59008C1.64535 2.24411 7.05664 -1.02028 12.3993 0.312925Z" fill="#F6F8FC" stroke="#F6F8FC" stroke-width="0.0296091"/>
<path fill-rule="evenodd" clip-rule="evenodd" d="M6.55899 5H13.3269C13.4884 5 13.6375 5.08291 13.7181 5.21742L15.6899 8.51058C15.7921 8.68136 15.7617 8.89692 15.6159 9.0354L10.1885 14.1888C10.0127 14.3557 9.72991 14.3557 9.55409 14.1888L4.13412 9.04236C3.98488 8.90066 3.95694 8.67881 4.06668 8.50697L6.17433 5.20685C6.25642 5.07833 6.40208 5 6.55899 5ZM12.453 6.47028V7.39429H10.5251V8.03494C11.8791 8.1034 12.895 8.38459 12.9026 8.72162L12.9025 9.42422C12.895 9.76125 11.8791 10.0424 10.5251 10.1109V11.6831H9.24497V10.1109C7.89095 10.0424 6.87507 9.76125 6.86754 9.42422L6.86759 8.72162C6.87512 8.38459 7.89095 8.1034 9.24497 8.03494V7.39429H7.31708V6.47028H12.453ZM9.88505 9.6282C11.33 9.6282 12.5378 9.39043 12.8334 9.07291C12.5827 8.80366 11.6761 8.59175 10.5251 8.53356V9.20431C10.3188 9.21474 10.1047 9.22024 9.88505 9.22024C9.66542 9.22024 9.45127 9.21474 9.24497 9.20431V8.53356C8.09399 8.59175 7.18738 8.80366 6.93673 9.07291C7.23231 9.39043 8.44006 9.6282 9.88505 9.6282Z" fill="#009393"/>
</svg>
